# vtk DataFile Version 2.0
sampleSurface
ASCII
DATASET POLYDATA
POINTS 1202 float
0 0 0 5.99825e-05 0 0 5.99825e-05 0 0.1 0 0
0.1 0.000120591 0 0 0.000120591 0 0.1 0.000181831 0 0
0.000181831 0 0.1 0.000243709 0 0 0.000243709 0 0.1 0.000306234
0 0 0.000306234 0 0.1 0.00036941 0 0 0.00036941 0
0.1 0.000433245 0 0 0.000433245 0 0.1 0.000497746 0 0
0.000497746 0 0.1 0.000562919 0 0 0.000562919 0 0.1 0.000628772
0 0 0.000628772 0 0.1 0.000695312 0 0 0.000695312 0
0.1 0.000762546 0 0 0.000762546 0 0.1 0.000830481 0 0
0.000830481 0 0.1 0.000899125 0 0 0.000899125 0 0.1 0.000968484
0 0 0.000968484 0 0.1 0.00103857 0 0 0.00103857 0
0.1 0.00110938 0 0 0.00110938 0 0.1 0.00118093 0 0
0.00118093 0 0.1 0.00125323 0 0 0.00125323 0 0.1 0.00132628
0 0 0.00132628 0 0.1 0.0014001 0 0 0.0014001 0
0.1 0.00147468 0 0 0.00147468 0 0.1 0.00155004 0 0
0.00155004 0 0.1 0.00162619 0 0 0.00162619 0 0.1 0.00170313
0 0 0.00170313 0 0.1 0.00178088 0 0 0.00178088 0
0.1 0.00185943 0 0 0.00185943 0 0.1 0.00193881 0 0
0.00193881 0 0.1 0.00201901 0 0 0.00201901 0 0.1 0.00210005
0 0 0.00210005 0 0.1 0.00218193 0 0 0.00218193 0
0.1 0.00226467 0 0 0.00226467 0 0.1 0.00234827 0 0
0.00234827 0 0.1 0.00243274 0 0 0.00243274 0 0.1 0.0025181
0 0 0.0025181 0 0.1 0.00260434 0 0 0.00260434 0
0.1 0.00269148 0 0 0.00269148 0 0.1 0.00277954 0 0
0.00277954 0 0.1 0.00286851 0 0 0.00286851 0 0.1 0.0029584
0 0 0.0029584 0 0.1 0.00304924 0 0 0.00304924 0
0.1 0.00314102 0 0 0.00314102 0 0.1 0.00323376 0 0
0.00323376 0 0.1 0.00332747 0 0 0.00332747 0 0.1 0.00342215
0 0 0.00342215 0 0.1 0.00351783 0 0 0.00351783 0
0.1 0.0036145 0 0 0.0036145 0 0.1 0.00371217 0 0
0.00371217 0 0.1 0.00381087 0 0 0.00381087 0 0.1 0.0039106
0 0 0.0039106 0 0.1 0.00401136 0 0 0.00401136 0
0.1 0.00411318 0 0 0.00411318 0 0.1 0.00421606 0 0
0.00421606 0 0.1 0.00432001 0 0 0.00432001 0 0.1 0.00442505
0 0 0.00442505 0 0.1 0.00453118 0 0 0.00453118 0
0.1 0.00463842 0 0 0.00463842 0 0.1 0.00474677 0 0
0.00474677 0 0.1 0.00485626 0 0 0.00485626 0 0.1 0.00496689
0 0 0.00496689 0 0.1 0.00507867 0 0 0.00507867 0
0.1 0.00519162 0 0 0.00519162 0 0.1 0.00530574 0 0
0.00530574 0 0.1 0.00542106 0 0 0.00542106 0 0.1 0.00553758
0 0 0.00553758 0 0.1 0.00565531 0 0 0.00565531 0
0.1 0.00577427 0 0 0.00577427 0 0.1 0.00589447 0 0
0.00589447 0 0.1 0.00601593 0 0 0.00601593 0 0.1 0.00613865
0 0 0.00613865 0 0.1 0.00626266 0 0 0.00626266 0
0.1 0.00638795 0 0 0.00638795 0 0.1 0.00651455 0 0
0.00651455 0 0.1 0.00664248 0 0 0.00664248 0 0.1 0.00677173
0 0 0.00677173 0 0.1 0.00690234 0 0 0.00690234 0
0.1 0.0070343 0 0 0.0070343 0 0.1 0.00716765 0 0
0.00716765 0 0.1 0.00730238 0 0 0.00730238 0 0.1 0.00743852
0 0 0.00743852 0 0.1 0.00757608 0 0 0.00757608 0
0.1 0.00771507 0 0 0.00771507 0 0.1 0.00785551 0 0
0.00785551 0 0.1 0.00799742 0 0 0.00799742 0 0.1 0.00814081
0 0 0.00814081 0 0.1 0.00828569 0 0 0.00828569 0
0.1 0.00843209 0 0 0.00843209 0 0.1 0.00858001 0 0
0.00858001 0 0.1 0.00872947 0 0 0.00872947 0 0.1 0.00888049
0 0 0.00888049 0 0.1 0.00903309 0 0 0.00903309 0
0.1 0.00918728 0 0 0.00918728 0 0.1 0.00934307 0 0
0.00934307 0 0.1 0.00950049 0 0 0.00950049 0 0.1 0.00965956
0 0 0.00965956 0 0.1 0.00982028 0 0 0.00982028 0
0.1 0.00998268 0 0 0.00998268 0 0.1 0.0101468 0 0
0.0101468 0 0.1 0.0103126 0 0 0.0103126 0 0.1 0.0104801
0 0 0.0104801 0 0.1 0.0106494 0 0 0.0106494 0
0.1 0.0108204 0 0 0.0108204 0 0.1 0.0109933 0 0
0.0109933 0 0.1 0.0111679 0 0 0.0111679 0 0.1 0.0113443
0 0 0.0113443 0 0.1 0.0115226 0 0 0.0115226 0
0.1 0.0117028 0 0 0.0117028 0 0.1 0.0118848 0 0
0.0118848 0 0.1 0.0120687 0 0 0.0120687 0 0.1 0.0122546
0 0 0.0122546 0 0.1 0.0124424 0 0 0.0124424 0
0.1 0.0126321 0 0 0.0126321 0 0.1 0.0128238 0 0
0.0128238 0 0.1 0.0130176 0 0 0.0130176 0 0.1 0.0132133
0 0 0.0132133 0 0.1 0.0134111 0 0 0.0134111 0
0.1 0.0136109 0 0 0.0136109 0 0.1 0.0138129 0 0
0.0138129 0 0.1 0.0140169 0 0 0.0140169 0 0.1 0.0142231
0 0 0.0142231 0 0.1 0.0144314 0 0 0.0144314 0
0.1 0.0146419 0 0 0.0146419 0 0.1 0.0148546 0 0
0.0148546 0 0.1 0.0150695 0 0 0.0150695 0 0.1 0.0152866
0 0 0.0152866 0 0.1 0.015506 0 0 0.015506 0
0.1 0.0157277 0 0 0.0157277 0 0.1 0.0159517 0 0
0.0159517 0 0.1 0.016178 0 0 0.016178 0 0.1 0.0164067
0 0 0.0164067 0 0.1 0.0166378 0 0 0.0166378 0
0.1 0.0168713 0 0 0.0168713 0 0.1 0.0171073 0 0
0.0171073 0 0.1 0.0173457 0 0 0.0173457 0 0.1 0.0175865
0 0 0.0175865 0 0.1 0.0178299 0 0 0.0178299 0
0.1 0.0180759 0 0 0.0180759 0 0.1 0.0183244 0 0
0.0183244 0 0.1 0.0185754 0 0 0.0185754 0 0.1 0.0188291
0 0 0.0188291 0 0.1 0.0190855 0 0 0.0190855 0
0.1 0.0193445 0 0 0.0193445 0 0.1 0.0196063 0 0
0.0196063 0 0.1 0.0198707 0 0 0.0198707 0 0.1 0.0201379
0 0 0.0201379 0 0.1 0.0204079 0 0 0.0204079 0
0.1 0.0206807 0 0 0.0206807 0 0.1 0.0209564 0 0
0.0209564 0 0.1 0.0212349 0 0 0.0212349 0 0.1 0.0215164
0 0 0.0215164 0 0.1 0.0218008 0 0 0.0218008 0
0.1 0.0220881 0 0 0.0220881 0 0.1 0.0223784 0 0
0.0223784 0 0.1 0.0226718 0 0 0.0226718 0 0.1 0.0229682
0 0 0.0229682 0 0.1 0.0232677 0 0 0.0232677 0
0.1 0.0235704 0 0 0.0235704 0 0.1 0.0238762 0 0
0.0238762 0 0.1 0.0241852 0 0 0.0241852 0 0.1 0.0244974
0 0 0.0244974 0 0.1 0.0248128 0 0 0.0248128 0
0.1 0.0251316 0 0 0.0251316 0 0.1 0.0254537 0 0
0.0254537 0 0.1 0.0257791 0 0 0.0257791 0 0.1 0.0261079
0 0 0.0261079 0 0.1 0.0264402 0 0 0.0264402 0
0.1 0.0267759 0 0 0.0267759 0 0.1 0.0271152 0 0
0.0271152 0 0.1 0.0274579 0 0 0.0274579 0 0.1 0.0278043
0 0 0.0278043 0 0.1 0.0281542 0 0 0.0281542 0
0.1 0.0285078 0 0 0.0285078 0 0.1 0.0288651 0 0
0.0288651 0 0.1 0.0292261 0 0 0.0292261 0 0.1 0.0295909
0 0 0.0295909 0 0.1 0.0299595 0 0 0.0299595 0
0.1 0.0303319 0 0 0.0303319 0 0.1 0.0307082 0 0
0.0307082 0 0.1 0.0310885 0 0 0.0310885 0 0.1 0.0314727
0 0 0.0314727 0 0.1 0.0318609 0 0 0.0318609 0
0.1 0.0322532 0 0 0.0322532 0 0.1 0.0326495 0 0
0.0326495 0 0.1 0.03305 0 0 0.03305 0 0.1 0.0334546
0 0 0.0334546 0 0.1 0.0338635 0 0 0.0338635 0
0.1 0.0342767 0 0 0.0342767 0 0.1 0.0346941 0 0
0.0346941 0 0.1 0.0351159 0 0 0.0351159 0 0.1 0.0355421
0 0 0.0355421 0 0.1 0.0359728 0 0 0.0359728 0
0.1 0.0364079 0 0 0.0364079 0 0.1 0.0368476 0 0
0.0368476 0 0.1 0.0372919 0 0 0.0372919 0 0.1 0.0377408
0 0 0.0377408 0 0.1 0.0381944 0 0 0.0381944 0
0.1 0.0386527 0 0 0.0386527 0 0.1 0.0391158 0 0
0.0391158 0 0.1 0.0395837 0 0 0.0395837 0 0.1 0.0400565
0 0 0.0400565 0 0.1 0.0405342 0 0 0.0405342 0
0.1 0.0410169 0 0 0.0410169 0 0.1 0.0415047 0 0
0.0415047 0 0.1 0.0419975 0 0 0.0419975 0 0.1 0.0424955
0 0 0.0424955 0 0.1 0.0429986 0 0 0.0429986 0
0.1 0.0435071 0 0 0.0435071 0 0.1 0.0440208 0 0
0.0440208 0 0.1 0.0445398 0 0 0.0445398 0 0.1 0.0450643
0 0 0.0450643 0 0.1 0.0455943 0 0 0.0455943 0
0.1 0.0461298 0 0 0.0461298 0 0.1 0.0466708 0 0
0.0466708 0 0.1 0.0472176 0 0 0.0472176 0 0.1 0.04777
0 0 0.04777 0 0.1 0.0483281 0 0 0.0483281 0
0.1 0.0488921 0 0 0.0488921 0 0.1 0.049462 0 0
0.049462 0 0.1 0.0500378 0 0 0.0500378 0 0.1 0.0506197
0 0 0.0506197 0 0.1 0.0512076 0 0 0.0512076 0
0.1 0.0518016 0 0 0.0518016 0 0.1 0.0524018 0 0
0.0524018 0 0.1 0.0530083 0 0 0.0530083 0 0.1 0.0536211
0 0 0.0536211 0 0.1 0.0542403 0 0 0.0542403 0
0.1 0.0548659 0 0 0.0548659 0 0.1 0.0554981 0 0
0.0554981 0 0.1 0.0561369 0 0 0.0561369 0 0.1 0.0567823
0 0 0.0567823 0 0.1 0.0574345 0 0 0.0574345 0
0.1 0.0580934 0 0 0.0580934 0 0.1 0.0587593 0 0
0.0587593 0 0.1 0.0594321 0 0 0.0594321 0 0.1 0.0601119
0 0 0.0601119 0 0.1 0.0607987 0 0 0.0607987 0
0.1 0.0614928 0 0 0.0614928 0 0.1 0.0621941 0 0
0.0621941 0 0.1 0.0629027 0 0 0.0629027 0 0.1 0.0636187
0 0 0.0636187 0 0.1 0.0643421 0 0 0.0643421 0
0.1 0.0650732 0 0 0.0650732 0 0.1 0.0658118 0 0
0.0658118 0 0.1 0.0665581 0 0 0.0665581 0 0.1 0.0673122
0 0 0.0673122 0 0.1 0.0680742 0 0 0.0680742 0
0.1 0.0688441 0 0 0.0688441 0 0.1 0.0696221 0 0
0.0696221 0 0.1 0.0704082 0 0 0.0704082 0 0.1 0.0712024
0 0 0.0712024 0 0.1 0.072005 0 0 0.072005 0
0.1 0.0728159 0 0 0.0728159 0 0.1 0.0736353 0 0
0.0736353 0 0.1 0.0744632 0 0 0.0744632 0 0.1 0.0752998
0 0 0.0752998 0 0.1 0.076145 0 0 0.076145 0
0.1 0.0769991 0 0 0.0769991 0 0.1 0.0778621 0 0
0.0778621 0 0.1 0.0787342 0 0 0.0787342 0 0.1 0.0796153
0 0 0.0796153 0 0.1 0.0805055 0 0 0.0805055 0
0.1 0.0814051 0 0 0.0814051 0 0.1 0.0823141 0 0
0.0823141 0 0.1 0.0832325 0 0 0.0832325 0 0.1 0.0841605
0 0 0.0841605 0 0.1 0.0850982 0 0 0.0850982 0
0.1 0.0860457 0 0 0.0860457 0 0.1 0.087003 0 0
0.087003 0 0.1 0.0879704 0 0 0.0879704 0 0.1 0.0889478
0 0 0.0889478 0 0.1 0.0899354 0 0 0.0899354 0
0.1 0.0909333 0 0 0.0909333 0 0.1 0.0919416 0 0
0.0919416 0 0.1 0.0929605 0 0 0.0929605 0 0.1 0.0939899
0 0 0.0939899 0 0.1 0.0950302 0 0 0.0950302 0
0.1 0.0960812 0 0 0.0960812 0 0.1 0.0971432 0 0
0.0971432 0 0.1 0.0982163 0 0 0.0982163 0 0.1 0.0993006
0 0 0.0993006 0 0.1 0.100396 0 0 0.100396 0
0.1 0.101503 0 0 0.101503 0 0.1 0.102622 0 0
0.102622 0 0.1 0.103752 0 0 0.103752 0 0.1 0.104894
0 0 0.104894 0 0.1 0.106048 0 0 0.106048 0
0.1 0.107214 0 0 0.107214 0 0.1 0.108392 0 0
0.108392 0 0.1 0.109582 0 0 0.109582 0 0.1 0.110785
0 0 0.110785 0 0.1 0.112001 0 0 0.112001 0
0.1 0.113229 0 0 0.113229 0 0.1 0.114469 0 0
0.114469 0 0.1 0.115723 0 0 0.115723 0 0.1 0.11699
0 0 0.11699 0 0.1 0.11827 0 0 0.11827 0
0.1 0.119564 0 0 0.119564 0 0.1 0.12087 0 0
0.12087 0 0.1 0.122191 0 0 0.122191 0 0.1 0.123525
0 0 0.123525 0 0.1 0.124873 0 0 0.124873 0
0.1 0.126236 0 0 0.126236 0 0.1 0.127612 0 0
0.127612 0 0.1 0.129003 0 0 0.129003 0 0.1 0.130408
0 0 0.130408 0 0.1 0.131828 0 0 0.131828 0
0.1 0.133263 0 0 0.133263 0 0.1 0.134713 0 0
0.134713 0 0.1 0.136178 0 0 0.136178 0 0.1 0.137658
0 0 0.137658 0 0.1 0.139154 0 0 0.139154 0
0.1 0.140665 0 0 0.140665 0 0.1 0.142192 0 0
0.142192 0 0.1 0.143735 0 0 0.143735 0 0.1 0.145294
0 0 0.145294 0 0.1 0.146869 0 0 0.146869 0
0.1 0.148461 0 0 0.148461 0 0.1 0.150069 0 0
0.150069 0 0.1 0.151694 0 0 0.151694 0 0.1 0.153336
0 0 0.153336 0 0.1 0.154995 0 0 0.154995 0
0.1 0.156672 0 0 0.156672 0 0.1 0.158366 0 0
0.158366 0 0.1 0.160077 0 0 0.160077 0 0.1 0.161807
0 0 0.161807 0 0.1 0.163554 0 0 0.163554 0
0.1 0.16532 0 0 0.16532 0 0.1 0.167104 0 0
0.167104 0 0.1 0.168907 0 0 0.168907 0 0.1 0.170728
0 0 0.170728 0 0.1 0.172569 0 0 0.172569 0
0.1 0.174428 0 0 0.174428 0 0.1 0.176307 0 0
0.176307 0 0.1 0.178206 0 0 0.178206 0 0.1 0.180124
0 0 0.180124 0 0.1 0.182063 0 0 0.182063 0
0.1 0.184022 0 0 0.184022 0 0.1 0.186001 0 0
0.186001 0 0.1 0.188001 0 0 0.188001 0 0.1 0.190021
0 0 0.190021 0 0.1 0.192063 0 0 0.192063 0
0.1 0.194126 0 0 0.194126 0 0.1 0.19621 0 0
0.19621 0 0.1 0.198317 0 0 0.198317 0 0.1 0.200445
0 0 0.200445 0 0.1 0.202595 0 0 0.202595 0
0.1 0.204768 0 0 0.204768 0 0.1 0.206964 0 0
0.206964 0 0.1 0.209182 0 0 0.209182 0 0.1 0.211424
0 0 0.211424 0 0.1 0.213689 0 0 0.213689 0
0.1 0.215977 0 0 0.215977 0 0.1 0.21829 0 0
0.21829 0 0.1 0.220626 0 0 0.220626 0 0.1 0.222987
0 0 0.222987 0 0.1 0.225372 0 0 0.225372 0
0.1 0.227783 0 0 0.227783 0 0.1 0.230218 0 0
0.230218 0 0.1 0.232679 0 0 0.232679 0 0.1 0.235166
0 0 0.235166 0 0.1 0.237678 0 0 0.237678 0
0.1 0.240217 0 0 0.240217 0 0.1 0.242782 0 0
0.242782 0 0.1 0.245374 0 0 0.245374 0 0.1 0.247993
0 0 0.247993 0 0.1 0.25064 0 0 0.25064 0
0.1 0.253313 0 0 0.253313 0 0.1 0.256015 0 0
0.256015 0 0.1 0.258745 0 0 0.258745 0 0.1 0.261504
0 0 0.261504 0 0.1 0.264291 0 0 0.264291 0
0.1 0.267107 0 0 0.267107 0 0.1 0.269953 0 0
0.269953 0 0.1 0.272828 0 0 0.272828 0 0.1 0.275733
0 0 0.275733 0 0.1 0.278669 0 0 0.278669 0
0.1 0.281635 0 0 0.281635 0 0.1 0.284632 0 0
0.284632 0 0.1 0.287661 0 0 0.287661 0 0.1 0.290721
0 0 0.290721 0 0.1 0.293813 0 0 0.293813 0
0.1 0.296937 0 0 0.296937 0 0.1 0.300093 0 0
0.300093 0 0.1 0.303283 0 0 0.303283 0 0.1 0.306506
0 0 0.306506 0 0.1 0.309763 0 0 0.309763 0
0.1 0.313053 0 0 0.313053 0 0.1 0.316378 0 0
0.316378 0 0.1 0.319737 0 0 0.319737 0 0.1 0.323132
0 0 0.323132 0 0.1 0.326562 0 0 0.326562 0
0.1 0.330027 0 0 0.330027 0 0.1 0.333529 0 0
0.333529 0 0.1 0.337068 0 0 0.337068 0 0.1 0.340643
0 0 0.340643 0 0.1 0.344255 0 0 0.344255 0
0.1 0.347906 0 0 0.347906 0 0.1 0.351594 0 0
0.351594 0 0.1 0.355321 0 0 0.355321 0 0.1 0.359086
0 0 0.359086 0 0.1 0.362891 0 0 0.362891 0
0.1 0.366736 0 0 0.366736 0 0.1 0.37062 0 0
0.37062 0 0.1 0.374546 0 0 0.374546 0 0.1 0.378512
0 0 0.378512 0 0.1 0.382519 0 0 0.382519 0
0.1 0.386568 0 0 0.386568 0 0.1 0.39066 0 0
0.39066 0 0.1 0.394794 0 0 0.394794 0 0.1 0.398971
0 0 0.398971 0 0.1 0.403192 0 0 0.403192 0
0.1 0.407457 0 0 0.407457 0 0.1 0.411766 0 0
0.411766 0 0.1 0.416121 0 0 0.416121 0 0.1 0.42052
0 0 0.42052 0 0.1 0.424966 0 0 0.424966 0
0.1 0.429458 0 0 0.429458 0 0.1 0.433997 0 0
0.433997 0 0.1 0.438583 0 0 0.438583 0 0.1 0.443217
0 0 0.443217 0 0.1 0.447899 0 0 0.447899 0
0.1 0.45263 0 0 0.45263 0 0.1 0.457411 0 0
0.457411 0 0.1 0.462241 0 0 0.462241 0 0.1 0.467122
0 0 0.467122 0 0.1 0.472053 0 0 0.472053 0
0.1 0.477036 0 0 0.477036 0 0.1 0.482071 0 0
0.482071 0 0.1 0.487159 0 0 0.487159 0 0.1 0.492299
0 0 0.492299 0 0.1 0.497493 0 0 0.497493 0
0.1 0.502742 0 0 0.502742 0 0.1 0.508045 0 0
0.508045 0 0.1 0.513403 0 0 0.513403 0 0.1 0.518817
0 0 0.518817 0 0.1 0.524288 0 0 0.524288 0
0.1 0.529816 0 0 0.529816 0 0.1 0.535401 0 0
0.535401 0 0.1 0.541045 0 0 0.541045 0 0.1 0.546748
0 0 0.546748 0 0.1 0.55251 0 0 0.55251 0
0.1 0.558332 0 0 0.558332 0 0.1 0.564215 0 0
0.564215 0 0.1 0.570159 0 0 0.570159 0 0.1 0.576165
0 0 0.576165 0 0.1 0.582234 0 0 0.582234 0
0.1 0.588366 0 0 0.588366 0 0.1 0.594562 0 0
0.594562 0 0.1 0.600822 0 0 0.600822 0 0.1 0.607148
0 0 0.607148 0 0.1 0.61354 0 0 0.61354 0
0.1 0.619999 0 0 0.619999 0 0.1 0.626525 0 0
0.626525 0 0.1 0.633119 0 0 0.633119 0 0.1 0.639782
0 0 0.639782 0 0.1 0.646514 0 0 0.646514 0
0.1 0.653316 0 0 0.653316 0 0.1 0.66019 0 0
0.66019 0 0.1 0.667135 0 0 0.667135 0 0.1 0.674152
0 0 0.674152 0 0.1 0.681243 0 0 0.681243 0
0.1 0.688408 0 0 0.688408 0 0.1 0.695647 0 0
0.695647 0 0.1 0.702962 0 0 0.702962 0 0.1 0.710353
0 0 0.710353 0 0.1 0.717821 0 0 0.717821 0
0.1 0.725367 0 0 0.725367 0 0.1 0.732992 0 0
0.732992 0 0.1 0.740697 0 0 0.740697 0 0.1 0.748481
0 0 0.748481 0 0.1 0.756347 0 0 0.756347 0
0.1 0.764295 0 0 0.764295 0 0.1 0.772326 0 0
0.772326 0 0.1 0.78044 0 0 0.78044 0 0.1 0.78864
0 0 0.78864 0 0.1 0.796924 0 0 0.796924 0
0.1 0.805295 0 0 0.805295 0 0.1 0.813754 0 0
0.813754 0 0.1 0.8223 0 0 0.8223 0 0.1 0.830936
0 0 0.830936 0 0.1 0.839662 0 0 0.839662 0
0.1 0.848479 0 0 0.848479 0 0.1 0.857387 0 0
0.857387 0 0.1 0.866389 0 0 0.866389 0 0.1 0.875485
0 0 0.875485 0 0.1 0.884675 0 0 0.884675 0
0.1 0.893961 0 0 0.893961 0 0.1 0.903344 0 0
0.903344 0 0.1 0.912825 0 0 0.912825 0 0.1 0.922405
0 0 0.922405 0 0.1 0.932085 0 0 0.932085 0
0.1 0.941865 0 0 0.941865 0 0.1 0.951748 0 0
0.951748 0 0.1 0.961734 0 0 0.961734 0 0.1 0.971824
0 0 0.971824 0 0.1 0.982019 0 0 0.982019 0
0.1 0.99232 0 0 0.99232 0 0.1 1.00273 0 0
1.00273 0 0.1 1.01325 0 0 1.01325 0 0.1 1.02387
0 0 1.02387 0 0.1 1.03461 0 0 1.03461 0
0.1 1.04546 0 0 1.04546 0 0.1 1.05642 0 0
1.05642 0 0.1 1.0675 0 0 1.0675 0 0.1 1.07869
0 0 1.07869 0 0.1 1.09 0 0 1.09 0
0.1 1.10143 0 0 1.10143 0 0.1 1.11298 0 0
1.11298 0 0.1 1.12465 0 0 1.12465 0 0.1 1.13644
0 0 1.13644 0 0.1 1.14835 0 0 1.14835 0
0.1 1.16038 0 0 1.16038 0 0.1 1.17254 0 0
1.17254 0 0.1 1.18483 0 0 1.18483 0 0.1 1.19725
0 0 1.19725 0 0.1 1.2098 0 0 1.2098 0
0.1 1.22247 0 0 1.22247 0 0.1 1.23528 0 0
1.23528 0 0.1 1.24822 0 0 1.24822 0 0.1 1.2613
0 0 1.2613 0 0.1 1.27452 0 0 1.27452 0
0.1 1.28787 0 0 1.28787 0 0.1 1.30136 0 0
1.30136 0 0.1 1.31499 0 0 1.31499 0 0.1 1.32877
0 0 1.32877 0 0.1 1.34268 0 0 1.34268 0
0.1 1.35675 0 0 1.35675 0 0.1 1.37095 0 0
1.37095 0 0.1 1.38531 0 0 1.38531 0 0.1 1.39982
0 0 1.39982 0 0.1 1.41448 0 0 1.41448 0
0.1 1.42929 0 0 1.42929 0 0.1 1.44426 0 0
1.44426 0 0.1 1.45938 0 0 1.45938 0 0.1 1.47466
0 0 1.47466 0 0.1 1.4901 0 0 1.4901 0
0.1 1.5057 0 0 1.5057 0 0.1 1.52146 0 0
1.52146 0 0.1 1.53739 0 0 1.53739 0 0.1 1.55348
0 0 1.55348 0 0.1 1.56974 0 0 1.56974 0
0.1 1.58617 0 0 1.58617 0 0.1 1.60278 0 0
1.60278 0 0.1 1.61955 0 0 1.61955 0 0.1 1.6365
0 0 1.6365 0 0.1 1.65363 0 0 1.65363 0
0.1 1.67093 0 0 1.67093 0 0.1 1.68842 0 0
1.68842 0 0.1 1.70609 0 0 1.70609 0 0.1 1.72394
0 0 1.72394 0 0.1 1.74198 0 0 1.74198 0
0.1 1.76021 0 0 1.76021 0 0.1 1.77862 0 0
1.77862 0 0.1 1.79723 0 0 1.79723 0 0.1 1.81604
0 0 1.81604 0 0.1 1.83504 0 0 1.83504 0
0.1 1.85423 0 0 1.85423 0 0.1 1.87363 0 0
1.87363 0 0.1 1.89323 0 0 1.89323 0 0.1 1.91304
0 0 1.91304 0 0.1 1.93305 0 0 1.93305 0
0.1 1.95327 0 0 1.95327 0 0.1 1.9737 0 0
1.9737 0 0.1 1.99434 0 0 1.99434 0 0.1 2.0152
0 0 2.0152 0 0.1 2.03628 0 0 2.03628 0
0.1 2.05757 0 0 2.05757 0 0.1 2.07909 0 0
2.07909 0 0.1 2.10083 0 0 2.10083 0 0.1 2.1228
0 0 2.1228 0 0.1 2.145 0 0 2.145 0
0.1 2.16743 0 0 2.16743 0 0.1 2.1901 0 0
2.1901 0 0.1 2.213 0 0 2.213 0 0.1 2.23614
0 0 2.23614 0 0.1 2.25952 0 0 2.25952 0
0.1 2.28314 0 0 2.28314 0 0.1 2.30701 0 0
2.30701 0 0.1 2.33113 0 0 2.33113 0 0.1 2.3555
0 0 2.3555 0 0.1 2.38013 0 0 2.38013 0
0.1 2.40501 0 0 2.40501 0 0.1 2.43015 0 0
2.43015 0 0.1 2.45556 0 0 2.45556 0 0.1 2.48122
0 0 2.48122 0 0.1 2.50716 0 0 2.50716 0
0.1 2.53337 0 0 2.53337 0 0.1 2.55985 0 0
2.55985 0 0.1 2.58661 0 0 2.58661 0 0.1 2.61364
0 0 2.61364 0 0.1 2.64096 0 0 2.64096 0
0.1 2.66856 0 0 2.66856 0 0.1 2.69645 0 0
2.69645 0 0.1 2.72463 0 0 2.72463 0 0.1 2.75311
0 0 2.75311 0 0.1 2.78188 0 0 2.78188 0
0.1 2.81095 0 0 2.81095 0 0.1 2.84033 0 0
2.84033 0 0.1 2.87001 0 0 2.87001 0 0.1 2.9
0 0 2.9 0 0.1 
POLYGONS 600 3000
4 0 1 2 3 4 1 4 5 2 4
4 6 7 5 4 6 8 9 7 4
8 10 11 9 4 10 12 13 11 4
12 14 15 13 4 14 16 17 15 4
16 18 19 17 4 18 20 21 19 4
20 22 23 21 4 22 24 25 23 4
24 26 27 25 4 26 28 29 27 4
28 30 31 29 4 30 32 33 31 4
32 34 35 33 4 34 36 37 35 4
36 38 39 37 4 38 40 41 39 4
40 42 43 41 4 42 44 45 43 4
44 46 47 45 4 46 48 49 47 4
48 50 51 49 4 50 52 53 51 4
52 54 55 53 4 54 56 57 55 4
56 58 59 57 4 58 60 61 59 4
60 62 63 61 4 62 64 65 63 4
64 66 67 65 4 66 68 69 67 4
68 70 71 69 4 70 72 73 71 4
72 74 75 73 4 74 76 77 75 4
76 78 79 77 4 78 80 81 79 4
80 82 83 81 4 82 84 85 83 4
84 86 87 85 4 86 88 89 87 4
88 90 91 89 4 90 92 93 91 4
92 94 95 93 4 94 96 97 95 4
96 98 99 97 4 98 100 101 99 4
100 102 103 101 4 102 104 105 103 4
104 106 107 105 4 106 108 109 107 4
108 110 111 109 4 110 112 113 111 4
112 114 115 113 4 114 116 117 115 4
116 118 119 117 4 118 120 121 119 4
120 122 123 121 4 122 124 125 123 4
124 126 127 125 4 126 128 129 127 4
128 130 131 129 4 130 132 133 131 4
132 134 135 133 4 134 136 137 135 4
136 138 139 137 4 138 140 141 139 4
140 142 143 141 4 142 144 145 143 4
144 146 147 145 4 146 148 149 147 4
148 150 151 149 4 150 152 153 151 4
152 154 155 153 4 154 156 157 155 4
156 158 159 157 4 158 160 161 159 4
160 162 163 161 4 162 164 165 163 4
164 166 167 165 4 166 168 169 167 4
168 170 171 169 4 170 172 173 171 4
172 174 175 173 4 174 176 177 175 4
176 178 179 177 4 178 180 181 179 4
180 182 183 181 4 182 184 185 183 4
184 186 187 185 4 186 188 189 187 4
188 190 191 189 4 190 192 193 191 4
192 194 195 193 4 194 196 197 195 4
196 198 199 197 4 198 200 201 199 4
200 202 203 201 4 202 204 205 203 4
204 206 207 205 4 206 208 209 207 4
208 210 211 209 4 210 212 213 211 4
212 214 215 213 4 214 216 217 215 4
216 218 219 217 4 218 220 221 219 4
220 222 223 221 4 222 224 225 223 4
224 226 227 225 4 226 228 229 227 4
228 230 231 229 4 230 232 233 231 4
232 234 235 233 4 234 236 237 235 4
236 238 239 237 4 238 240 241 239 4
240 242 243 241 4 242 244 245 243 4
244 246 247 245 4 246 248 249 247 4
248 250 251 249 4 250 252 253 251 4
252 254 255 253 4 254 256 257 255 4
256 258 259 257 4 258 260 261 259 4
260 262 263 261 4 262 264 265 263 4
264 266 267 265 4 266 268 269 267 4
268 270 271 269 4 270 272 273 271 4
272 274 275 273 4 274 276 277 275 4
276 278 279 277 4 278 280 281 279 4
280 282 283 281 4 282 284 285 283 4
284 286 287 285 4 286 288 289 287 4
288 290 291 289 4 290 292 293 291 4
292 294 295 293 4 294 296 297 295 4
296 298 299 297 4 298 300 301 299 4
300 302 303 301 4 302 304 305 303 4
304 306 307 305 4 306 308 309 307 4
308 310 311 309 4 310 312 313 311 4
312 314 315 313 4 314 316 317 315 4
316 318 319 317 4 318 320 321 319 4
320 322 323 321 4 322 324 325 323 4
324 326 327 325 4 326 328 329 327 4
328 330 331 329 4 330 332 333 331 4
332 334 335 333 4 334 336 337 335 4
336 338 339 337 4 338 340 341 339 4
340 342 343 341 4 342 344 345 343 4
344 346 347 345 4 346 348 349 347 4
348 350 351 349 4 350 352 353 351 4
352 354 355 353 4 354 356 357 355 4
356 358 359 357 4 358 360 361 359 4
360 362 363 361 4 362 364 365 363 4
364 366 367 365 4 366 368 369 367 4
368 370 371 369 4 370 372 373 371 4
372 374 375 373 4 374 376 377 375 4
376 378 379 377 4 378 380 381 379 4
380 382 383 381 4 382 384 385 383 4
384 386 387 385 4 386 388 389 387 4
388 390 391 389 4 390 392 393 391 4
392 394 395 393 4 394 396 397 395 4
396 398 399 397 4 398 400 401 399 4
400 402 403 401 4 402 404 405 403 4
404 406 407 405 4 406 408 409 407 4
408 410 411 409 4 410 412 413 411 4
412 414 415 413 4 414 416 417 415 4
416 418 419 417 4 418 420 421 419 4
420 422 423 421 4 422 424 425 423 4
424 426 427 425 4 426 428 429 427 4
428 430 431 429 4 430 432 433 431 4
432 434 435 433 4 434 436 437 435 4
436 438 439 437 4 438 440 441 439 4
440 442 443 441 4 442 444 445 443 4
444 446 447 445 4 446 448 449 447 4
448 450 451 449 4 450 452 453 451 4
452 454 455 453 4 454 456 457 455 4
456 458 459 457 4 458 460 461 459 4
460 462 463 461 4 462 464 465 463 4
464 466 467 465 4 466 468 469 467 4
468 470 471 469 4 470 472 473 471 4
472 474 475 473 4 474 476 477 475 4
476 478 479 477 4 478 480 481 479 4
480 482 483 481 4 482 484 485 483 4
484 486 487 485 4 486 488 489 487 4
488 490 491 489 4 490 492 493 491 4
492 494 495 493 4 494 496 497 495 4
496 498 499 497 4 498 500 501 499 4
500 502 503 501 4 502 504 505 503 4
504 506 507 505 4 506 508 509 507 4
508 510 511 509 4 510 512 513 511 4
512 514 515 513 4 514 516 517 515 4
516 518 519 517 4 518 520 521 519 4
520 522 523 521 4 522 524 525 523 4
524 526 527 525 4 526 528 529 527 4
528 530 531 529 4 530 532 533 531 4
532 534 535 533 4 534 536 537 535 4
536 538 539 537 4 538 540 541 539 4
540 542 543 541 4 542 544 545 543 4
544 546 547 545 4 546 548 549 547 4
548 550 551 549 4 550 552 553 551 4
552 554 555 553 4 554 556 557 555 4
556 558 559 557 4 558 560 561 559 4
560 562 563 561 4 562 564 565 563 4
564 566 567 565 4 566 568 569 567 4
568 570 571 569 4 570 572 573 571 4
572 574 575 573 4 574 576 577 575 4
576 578 579 577 4 578 580 581 579 4
580 582 583 581 4 582 584 585 583 4
584 586 587 585 4 586 588 589 587 4
588 590 591 589 4 590 592 593 591 4
592 594 595 593 4 594 596 597 595 4
596 598 599 597 4 598 600 601 599 4
600 602 603 601 4 602 604 605 603 4
604 606 607 605 4 606 608 609 607 4
608 610 611 609 4 610 612 613 611 4
612 614 615 613 4 614 616 617 615 4
616 618 619 617 4 618 620 621 619 4
620 622 623 621 4 622 624 625 623 4
624 626 627 625 4 626 628 629 627 4
628 630 631 629 4 630 632 633 631 4
632 634 635 633 4 634 636 637 635 4
636 638 639 637 4 638 640 641 639 4
640 642 643 641 4 642 644 645 643 4
644 646 647 645 4 646 648 649 647 4
648 650 651 649 4 650 652 653 651 4
652 654 655 653 4 654 656 657 655 4
656 658 659 657 4 658 660 661 659 4
660 662 663 661 4 662 664 665 663 4
664 666 667 665 4 666 668 669 667 4
668 670 671 669 4 670 672 673 671 4
672 674 675 673 4 674 676 677 675 4
676 678 679 677 4 678 680 681 679 4
680 682 683 681 4 682 684 685 683 4
684 686 687 685 4 686 688 689 687 4
688 690 691 689 4 690 692 693 691 4
692 694 695 693 4 694 696 697 695 4
696 698 699 697 4 698 700 701 699 4
700 702 703 701 4 702 704 705 703 4
704 706 707 705 4 706 708 709 707 4
708 710 711 709 4 710 712 713 711 4
712 714 715 713 4 714 716 717 715 4
716 718 719 717 4 718 720 721 719 4
720 722 723 721 4 722 724 725 723 4
724 726 727 725 4 726 728 729 727 4
728 730 731 729 4 730 732 733 731 4
732 734 735 733 4 734 736 737 735 4
736 738 739 737 4 738 740 741 739 4
740 742 743 741 4 742 744 745 743 4
744 746 747 745 4 746 748 749 747 4
748 750 751 749 4 750 752 753 751 4
752 754 755 753 4 754 756 757 755 4
756 758 759 757 4 758 760 761 759 4
760 762 763 761 4 762 764 765 763 4
764 766 767 765 4 766 768 769 767 4
768 770 771 769 4 770 772 773 771 4
772 774 775 773 4 774 776 777 775 4
776 778 779 777 4 778 780 781 779 4
780 782 783 781 4 782 784 785 783 4
784 786 787 785 4 786 788 789 787 4
788 790 791 789 4 790 792 793 791 4
792 794 795 793 4 794 796 797 795 4
796 798 799 797 4 798 800 801 799 4
800 802 803 801 4 802 804 805 803 4
804 806 807 805 4 806 808 809 807 4
808 810 811 809 4 810 812 813 811 4
812 814 815 813 4 814 816 817 815 4
816 818 819 817 4 818 820 821 819 4
820 822 823 821 4 822 824 825 823 4
824 826 827 825 4 826 828 829 827 4
828 830 831 829 4 830 832 833 831 4
832 834 835 833 4 834 836 837 835 4
836 838 839 837 4 838 840 841 839 4
840 842 843 841 4 842 844 845 843 4
844 846 847 845 4 846 848 849 847 4
848 850 851 849 4 850 852 853 851 4
852 854 855 853 4 854 856 857 855 4
856 858 859 857 4 858 860 861 859 4
860 862 863 861 4 862 864 865 863 4
864 866 867 865 4 866 868 869 867 4
868 870 871 869 4 870 872 873 871 4
872 874 875 873 4 874 876 877 875 4
876 878 879 877 4 878 880 881 879 4
880 882 883 881 4 882 884 885 883 4
884 886 887 885 4 886 888 889 887 4
888 890 891 889 4 890 892 893 891 4
892 894 895 893 4 894 896 897 895 4
896 898 899 897 4 898 900 901 899 4
900 902 903 901 4 902 904 905 903 4
904 906 907 905 4 906 908 909 907 4
908 910 911 909 4 910 912 913 911 4
912 914 915 913 4 914 916 917 915 4
916 918 919 917 4 918 920 921 919 4
920 922 923 921 4 922 924 925 923 4
924 926 927 925 4 926 928 929 927 4
928 930 931 929 4 930 932 933 931 4
932 934 935 933 4 934 936 937 935 4
936 938 939 937 4 938 940 941 939 4
940 942 943 941 4 942 944 945 943 4
944 946 947 945 4 946 948 949 947 4
948 950 951 949 4 950 952 953 951 4
952 954 955 953 4 954 956 957 955 4
956 958 959 957 4 958 960 961 959 4
960 962 963 961 4 962 964 965 963 4
964 966 967 965 4 966 968 969 967 4
968 970 971 969 4 970 972 973 971 4
972 974 975 973 4 974 976 977 975 4
976 978 979 977 4 978 980 981 979 4
980 982 983 981 4 982 984 985 983 4
984 986 987 985 4 986 988 989 987 4
988 990 991 989 4 990 992 993 991 4
992 994 995 993 4 994 996 997 995 4
996 998 999 997 4 998 1000 1001 999 4
1000 1002 1003 1001 4 1002 1004 1005 1003 4
1004 1006 1007 1005 4 1006 1008 1009 1007 4
1008 1010 1011 1009 4 1010 1012 1013 1011 4
1012 1014 1015 1013 4 1014 1016 1017 1015 4
1016 1018 1019 1017 4 1018 1020 1021 1019 4
1020 1022 1023 1021 4 1022 1024 1025 1023 4
1024 1026 1027 1025 4 1026 1028 1029 1027 4
1028 1030 1031 1029 4 1030 1032 1033 1031 4
1032 1034 1035 1033 4 1034 1036 1037 1035 4
1036 1038 1039 1037 4 1038 1040 1041 1039 4
1040 1042 1043 1041 4 1042 1044 1045 1043 4
1044 1046 1047 1045 4 1046 1048 1049 1047 4
1048 1050 1051 1049 4 1050 1052 1053 1051 4
1052 1054 1055 1053 4 1054 1056 1057 1055 4
1056 1058 1059 1057 4 1058 1060 1061 1059 4
1060 1062 1063 1061 4 1062 1064 1065 1063 4
1064 1066 1067 1065 4 1066 1068 1069 1067 4
1068 1070 1071 1069 4 1070 1072 1073 1071 4
1072 1074 1075 1073 4 1074 1076 1077 1075 4
1076 1078 1079 1077 4 1078 1080 1081 1079 4
1080 1082 1083 1081 4 1082 1084 1085 1083 4
1084 1086 1087 1085 4 1086 1088 1089 1087 4
1088 1090 1091 1089 4 1090 1092 1093 1091 4
1092 1094 1095 1093 4 1094 1096 1097 1095 4
1096 1098 1099 1097 4 1098 1100 1101 1099 4
1100 1102 1103 1101 4 1102 1104 1105 1103 4
1104 1106 1107 1105 4 1106 1108 1109 1107 4
1108 1110 1111 1109 4 1110 1112 1113 1111 4
1112 1114 1115 1113 4 1114 1116 1117 1115 4
1116 1118 1119 1117 4 1118 1120 1121 1119 4
1120 1122 1123 1121 4 1122 1124 1125 1123 4
1124 1126 1127 1125 4 1126 1128 1129 1127 4
1128 1130 1131 1129 4 1130 1132 1133 1131 4
1132 1134 1135 1133 4 1134 1136 1137 1135 4
1136 1138 1139 1137 4 1138 1140 1141 1139 4
1140 1142 1143 1141 4 1142 1144 1145 1143 4
1144 1146 1147 1145 4 1146 1148 1149 1147 4
1148 1150 1151 1149 4 1150 1152 1153 1151 4
1152 1154 1155 1153 4 1154 1156 1157 1155 4
1156 1158 1159 1157 4 1158 1160 1161 1159 4
1160 1162 1163 1161 4 1162 1164 1165 1163 4
1164 1166 1167 1165 4 1166 1168 1169 1167 4
1168 1170 1171 1169 4 1170 1172 1173 1171 4
1172 1174 1175 1173 4 1174 1176 1177 1175 4
1176 1178 1179 1177 4 1178 1180 1181 1179 4
1180 1182 1183 1181 4 1182 1184 1185 1183 4
1184 1186 1187 1185 4 1186 1188 1189 1187 4
1188 1190 1191 1189 4 1190 1192 1193 1191 4
1192 1194 1195 1193 4 1194 1196 1197 1195 4
1196 1198 1199 1197 4 1198 1200 1201 1199 
POINT_DATA 1202
FIELD attributes 1
U 3 1202 float
1.54633 0.0341547 0 0.86996 0.0236436 0 0.86996 0.0236436 0 1.54633 0.0341547
0 0.166339 0.00856605 0 0.166339 0.00856605 0 0.122373 0.00258696 0
0.122373 0.00258696 0 0.0963839 0.000773344 0 0.0963839 0.000773344 0 0.0818387
0.000279208 0 0.0818387 0.000279208 0 0.0730745 0.000175096 0 0.0730745 0.000175096
0 0.0669325 0.000157979 0 0.0669325 0.000157979 0 0.062156 0.00014171 0
0.062156 0.00014171 0 0.0582727 0.000120793 0 0.0582727 0.000120793 0 0.055048
0.000100916 0 0.055048 0.000100916 0 0.052316 8.58865e-05 0 0.052316 8.58865e-05
0 0.0499517 7.56267e-05 0 0.0499517 7.56267e-05 0 0.0478664 6.77252e-05 0
0.0478664 6.77252e-05 0 0.0460024 6.11537e-05 0 0.0460024 6.11537e-05 0 0.0443205
5.55258e-05 0 0.0443205 5.55258e-05 0 0.0427919 5.06245e-05 0 0.0427919 5.06245e-05
0 0.0413947 4.63098e-05 0 0.0413947 4.63098e-05 0 0.0401113 4.24877e-05 0
0.0401113 4.24877e-05 0 0.0389276 3.90883e-05 0 0.0389276 3.90883e-05 0 0.0378318
3.60556e-05 0 0.0378318 3.60556e-05 0 0.0368137 3.3343e-05 0 0.0368137 3.3343e-05
0 0.035865 3.09109e-05 0 0.035865 3.09109e-05 0 0.0349783 2.87251e-05 0
0.0349783 2.87251e-05 0 0.0341472 2.67562e-05 0 0.0341472 2.67562e-05 0 0.0333663
2.49783e-05 0 0.0333663 2.49783e-05 0 0.0326306 2.3369e-05 0 0.0326306 2.3369e-05
0 0.0319361 2.19085e-05 0 0.0319361 2.19085e-05 0 0.0312788 2.058e-05 0
0.0312788 2.058e-05 0 0.0306557 1.93682e-05 0 0.0306557 1.93682e-05 0 0.0300637
1.82605e-05 0 0.0300637 1.82605e-05 0 0.0295003 1.72454e-05 0 0.0295003 1.72454e-05
0 0.0289631 1.63128e-05 0 0.0289631 1.63128e-05 0 0.0284502 1.54554e-05 0
0.0284502 1.54554e-05 0 0.0279597 1.46626e-05 0 0.0279597 1.46626e-05 0 0.0274897
1.39375e-05 0 0.0274897 1.39375e-05 0 0.0270391 1.32567e-05 0 0.0270391 1.32567e-05
0 0.0266059 1.26526e-05 0 0.0266059 1.26526e-05 0 0.0261891 1.20491e-05 0
0.0261891 1.20491e-05 0 0.0257889 1.13194e-05 0 0.0257889 1.13194e-05 0 0.0254042
1.07019e-05 0 0.0254042 1.07019e-05 0 0.0250322 1.03203e-05 0 0.0250322 1.03203e-05
0 0.0246704 1.00054e-05 0 0.0246704 1.00054e-05 0 0.0243182 9.68245e-06 0
0.0243182 9.68245e-06 0 0.0239757 9.34825e-06 0 0.0239757 9.34825e-06 0 0.0236429
9.00863e-06 0 0.0236429 9.00863e-06 0 0.0233198 8.67002e-06 0 0.0233198 8.67002e-06
0 0.0230062 8.33755e-06 0 0.0230062 8.33755e-06 0 0.022702 8.01457e-06 0
0.022702 8.01457e-06 0 0.0224068 7.70307e-06 0 0.0224068 7.70307e-06 0 0.0221203
7.40409e-06 0 0.0221203 7.40409e-06 0 0.0218422 7.11809e-06 0 0.0218422 7.11809e-06
0 0.0215721 6.84511e-06 0 0.0215721 6.84511e-06 0 0.0213098 6.58494e-06 0
0.0213098 6.58494e-06 0 0.0210548 6.3372e-06 0 0.0210548 6.3372e-06 0 0.0208069
6.10141e-06 0 0.0208069 6.10141e-06 0 0.0205658 5.87707e-06 0 0.0205658 5.87707e-06
0 0.0203312 5.66359e-06 0 0.0203312 5.66359e-06 0 0.0201027 5.46045e-06 0
0.0201027 5.46045e-06 0 0.0198802 5.26706e-06 0 0.0198802 5.26706e-06 0 0.0196633
5.08292e-06 0 0.0196633 5.08292e-06 0 0.0194519 4.90747e-06 0 0.0194519 4.90747e-06
0 0.0192456 4.74027e-06 0 0.0192456 4.74027e-06 0 0.0190443 4.58077e-06 0
0.0190443 4.58077e-06 0 0.0188478 4.42862e-06 0 0.0188478 4.42862e-06 0 0.0186559
4.28331e-06 0 0.0186559 4.28331e-06 0 0.0184683 4.14456e-06 0 0.0184683 4.14456e-06
0 0.018285 4.01187e-06 0 0.018285 4.01187e-06 0 0.0181057 3.8851e-06 0
0.0181057 3.8851e-06 0 0.0179303 3.76367e-06 0 0.0179303 3.76367e-06 0 0.0177586
3.6476e-06 0 0.0177586 3.6476e-06 0 0.0175905 3.53627e-06 0 0.0175905 3.53627e-06
0 0.0174259 3.42982e-06 0 0.0174259 3.42982e-06 0 0.0172646 3.32782e-06 0
0.0172646 3.32782e-06 0 0.0171065 3.22986e-06 0 0.0171065 3.22986e-06 0 0.0169515
3.13776e-06 0 0.0169515 3.13776e-06 0 0.0167995 3.04619e-06 0 0.0167995 3.04619e-06
0 0.0166501 2.97008e-06 0 0.0166501 2.97008e-06 0 0.0165035 2.87531e-06 0
0.0165035 2.87531e-06 0 0.0163603 2.7474e-06 0 0.0163603 2.7474e-06 0 0.0162197
2.67277e-06 0 0.0162197 2.67277e-06 0 0.0160806 2.64364e-06 0 0.0160806 2.64364e-06
0 0.0159425 2.60494e-06 0 0.0159425 2.60494e-06 0 0.0158058 2.55689e-06 0
0.0158058 2.55689e-06 0 0.0156707 2.50171e-06 0 0.0156707 2.50171e-06 0 0.0155375
2.4423e-06 0 0.0155375 2.4423e-06 0 0.0154064 2.38086e-06 0 0.0154064 2.38086e-06
0 0.0152773 2.31887e-06 0 0.0152773 2.31887e-06 0 0.0151504 2.25721e-06 0
0.0151504 2.25721e-06 0 0.0150255 2.19649e-06 0 0.0150255 2.19649e-06 0 0.0149028
2.13703e-06 0 0.0149028 2.13703e-06 0 0.0147822 2.07907e-06 0 0.0147822 2.07907e-06
0 0.0146636 2.02272e-06 0 0.0146636 2.02272e-06 0 0.014547 1.96804e-06 0
0.014547 1.96804e-06 0 0.0144323 1.91506e-06 0 0.0144323 1.91506e-06 0 0.0143195
1.86377e-06 0 0.0143195 1.86377e-06 0 0.0142086 1.81414e-06 0 0.0142086 1.81414e-06
0 0.0140995 1.76613e-06 0 0.0140995 1.76613e-06 0 0.0139922 1.71972e-06 0
0.0139922 1.71972e-06 0 0.0138866 1.67483e-06 0 0.0138866 1.67483e-06 0 0.0137826
1.63144e-06 0 0.0137826 1.63144e-06 0 0.0136803 1.58947e-06 0 0.0136803 1.58947e-06
0 0.0135795 1.54889e-06 0 0.0135795 1.54889e-06 0 0.0134803 1.50963e-06 0
0.0134803 1.50963e-06 0 0.0133825 1.47166e-06 0 0.0133825 1.47166e-06 0 0.0132863
1.4349e-06 0 0.0132863 1.4349e-06 0 0.0131914 1.39935e-06 0 0.0131914 1.39935e-06
0 0.0130979 1.3649e-06 0 0.0130979 1.3649e-06 0 0.0130057 1.33159e-06 0
0.0130057 1.33159e-06 0 0.0129149 1.29928e-06 0 0.0129149 1.29928e-06 0 0.0128253
1.26805e-06 0 0.0128253 1.26805e-06 0 0.0127369 1.23772e-06 0 0.0127369 1.23772e-06
0 0.0126498 1.20844e-06 0 0.0126498 1.20844e-06 0 0.0125638 1.18002e-06 0
0.0125638 1.18002e-06 0 0.012479 1.15249e-06 0 0.012479 1.15249e-06 0 0.0123952
1.12629e-06 0 0.0123952 1.12629e-06 0 0.0123126 1.09984e-06 0 0.0123126 1.09984e-06
0 0.0122309 1.07852e-06 0 0.0122309 1.07852e-06 0 0.0121502 1.0518e-06 0
0.0121502 1.0518e-06 0 0.0120709 1.01385e-06 0 0.0120709 1.01385e-06 0 0.0119926
9.9181e-07 0 0.0119926 9.9181e-07 0 0.0119146 9.86701e-07 0 0.0119146 9.86701e-07
0 0.0118366 9.79694e-07 0 0.0118366 9.79694e-07 0 0.0117587 9.67565e-07 0
0.0117587 9.67565e-07 0 0.0116814 9.51683e-07 0 0.0116814 9.51683e-07 0 0.0116047
9.33528e-07 0 0.0116047 9.33528e-07 0 0.0115289 9.14179e-07 0 0.0115289 9.14179e-07
0 0.0114539 8.94294e-07 0 0.0114539 8.94294e-07 0 0.0113797 8.74282e-07 0
0.0113797 8.74282e-07 0 0.0113066 8.54387e-07 0 0.0113066 8.54387e-07 0 0.0112343
8.3476e-07 0 0.0112343 8.3476e-07 0 0.0111629 8.15496e-07 0 0.0111629 8.15496e-07
0 0.0110925 7.9665e-07 0 0.0110925 7.9665e-07 0 0.0110229 7.78253e-07 0
0.0110229 7.78253e-07 0 0.0109543 7.60323e-07 0 0.0109543 7.60323e-07 0 0.0108865
7.42865e-07 0 0.0108865 7.42865e-07 0 0.0108195 7.2588e-07 0 0.0108195 7.2588e-07
0 0.0107534 7.09358e-07 0 0.0107534 7.09358e-07 0 0.0106881 6.93298e-07 0
0.0106881 6.93298e-07 0 0.0106236 6.77683e-07 0 0.0106236 6.77683e-07 0 0.0105599
6.62505e-07 0 0.0105599 6.62505e-07 0 0.0104969 6.47748e-07 0 0.0104969 6.47748e-07
0 0.0104347 6.33406e-07 0 0.0104347 6.33406e-07 0 0.0103733 6.19456e-07 0
0.0103733 6.19456e-07 0 0.0103125 6.05901e-07 0 0.0103125 6.05901e-07 0 0.0102525
5.92708e-07 0 0.0102525 5.92708e-07 0 0.0101931 5.79892e-07 0 0.0101931 5.79892e-07
0 0.0101344 5.67408e-07 0 0.0101344 5.67408e-07 0 0.0100763 5.5529e-07 0
0.0100763 5.5529e-07 0 0.0100189 5.43474e-07 0 0.0100189 5.43474e-07 0 0.00996217
5.32019e-07 0 0.00996217 5.32019e-07 0 0.00990601 5.2085e-07 0 0.00990601 5.2085e-07
0 0.00985045 5.10017e-07 0 0.00985045 5.10017e-07 0 0.00979545 4.99592e-07 0
0.00979545 4.99592e-07 0 0.00974106 4.89177e-07 0 0.00974106 4.89177e-07 0 0.00968714
4.80597e-07 0 0.00968714 4.80597e-07 0 0.00963374 4.6971e-07 0 0.00963374 4.6971e-07
0 0.00958118 4.54779e-07 0 0.00958118 4.54779e-07 0 0.00952912 4.46689e-07 0
0.00952912 4.46689e-07 0 0.00947696 4.46258e-07 0 0.00947696 4.46258e-07 0 0.00942452
4.44904e-07 0 0.00942452 4.44904e-07 0 0.00937205 4.4048e-07 0 0.00937205 4.4048e-07
0 0.00931979 4.34048e-07 0 0.00931979 4.34048e-07 0 0.00926789 4.26435e-07 0
0.00926789 4.26435e-07 0 0.00921645 4.18232e-07 0 0.00921645 4.18232e-07 0 0.0091655
4.09762e-07 0 0.0091655 4.09762e-07 0 0.00911508 4.0122e-07 0 0.00911508 4.0122e-07
0 0.0090652 3.9272e-07 0 0.0090652 3.9272e-07 0 0.00901587 3.84327e-07 0
0.00901587 3.84327e-07 0 0.00896709 3.76082e-07 0 0.00896709 3.76082e-07 0 0.00891884
3.68009e-07 0 0.00891884 3.68009e-07 0 0.00887113 3.60119e-07 0 0.00887113 3.60119e-07
0 0.00882395 3.52422e-07 0 0.00882395 3.52422e-07 0 0.00877729 3.44915e-07 0
0.00877729 3.44915e-07 0 0.00873114 3.37603e-07 0 0.00873114 3.37603e-07 0 0.00868548
3.30476e-07 0 0.00868548 3.30476e-07 0 0.00864031 3.23541e-07 0 0.00864031 3.23541e-07
0 0.00859563 3.16781e-07 0 0.00859563 3.16781e-07 0 0.00855141 3.10204e-07 0
0.00855141 3.10204e-07 0 0.00850766 3.03791e-07 0 0.00850766 3.03791e-07 0 0.00846435
2.97556e-07 0 0.00846435 2.97556e-07 0 0.00842149 2.91468e-07 0 0.00842149 2.91468e-07
0 0.00837906 2.85556e-07 0 0.00837906 2.85556e-07 0 0.00833705 2.79773e-07 0
0.00833705 2.79773e-07 0 0.00829546 2.74171e-07 0 0.00829546 2.74171e-07 0 0.00825427
2.68673e-07 0 0.00825427 2.68673e-07 0 0.00821349 2.63372e-07 0 0.00821349 2.63372e-07
0 0.00817308 2.58147e-07 0 0.00817308 2.58147e-07 0 0.00813307 2.53145e-07 0
0.00813307 2.53145e-07 0 0.0080934 2.48238e-07 0 0.0080934 2.48238e-07 0 0.00805415
2.43459e-07 0 0.00805415 2.43459e-07 0 0.0080151 2.39673e-07 0 0.0080151 2.39673e-07
0 0.00797654 2.33063e-07 0 0.00797654 2.33063e-07 0 0.00793858 2.26464e-07 0
0.00793858 2.26464e-07 0 0.00790055 2.2627e-07 0 0.00790055 2.2627e-07 0 0.00786212
2.27389e-07 0 0.00786212 2.27389e-07 0 0.00782344 2.26026e-07 0 0.00782344 2.26026e-07
0 0.00778482 2.23294e-07 0 0.00778482 2.23294e-07 0 0.00774639 2.19674e-07 0
0.00774639 2.19674e-07 0 0.00770825 2.15657e-07 0 0.00770825 2.15657e-07 0 0.00767046
2.11445e-07 0 0.00767046 2.11445e-07 0 0.00763303 2.07177e-07 0 0.00763303 2.07177e-07
0 0.00759598 2.02917e-07 0 0.00759598 2.02917e-07 0 0.00755931 1.98709e-07 0
0.00755931 1.98709e-07 0 0.00752302 1.94573e-07 0 0.00752302 1.94573e-07 0 0.00748711
1.90525e-07 0 0.00748711 1.90525e-07 0 0.00745158 1.86568e-07 0 0.00745158 1.86568e-07
0 0.00741641 1.82709e-07 0 0.00741641 1.82709e-07 0 0.00738161 1.78946e-07 0
0.00738161 1.78946e-07 0 0.00734716 1.7528e-07 0 0.00734716 1.7528e-07 0 0.00731306
1.71708e-07 0 0.00731306 1.71708e-07 0 0.0072793 1.6823e-07 0 0.0072793 1.6823e-07
0 0.00724588 1.64839e-07 0 0.00724588 1.64839e-07 0 0.00721278 1.6154e-07 0
0.00721278 1.6154e-07 0 0.00718001 1.58319e-07 0 0.00718001 1.58319e-07 0 0.00714755
1.5519e-07 0 0.00714755 1.5519e-07 0 0.00711539 1.5213e-07 0 0.00711539 1.5213e-07
0 0.00708354 1.49162e-07 0 0.00708354 1.49162e-07 0 0.00705198 1.46251e-07 0
0.00705198 1.46251e-07 0 0.00702071 1.43441e-07 0 0.00702071 1.43441e-07 0 0.00698972
1.4067e-07 0 0.00698972 1.4067e-07 0 0.00695901 1.38021e-07 0 0.00695901 1.38021e-07
0 0.00692855 1.35402e-07 0 0.00692855 1.35402e-07 0 0.0068984 1.32879e-07 0
0.0068984 1.32879e-07 0 0.00686839 1.30832e-07 0 0.00686839 1.30832e-07 0 0.00683872
1.27439e-07 0 0.00683872 1.27439e-07 0 0.00680951 1.24171e-07 0 0.00680951 1.24171e-07
0 0.00678019 1.24157e-07 0 0.00678019 1.24157e-07 0 0.00675048 1.25007e-07 0
0.00675048 1.25007e-07 0 0.0067205 1.24545e-07 0 0.0067205 1.24545e-07 0 0.00669052
1.23129e-07 0 0.00669052 1.23129e-07 0 0.00666067 1.21161e-07 0 0.00666067 1.21161e-07
0 0.00663105 1.18946e-07 0 0.00663105 1.18946e-07 0 0.00660169 1.16622e-07 0
0.00660169 1.16622e-07 0 0.00657261 1.14269e-07 0 0.00657261 1.14269e-07 0 0.00654382
1.11927e-07 0 0.00654382 1.11927e-07 0 0.00651533 1.09619e-07 0 0.00651533 1.09619e-07
0 0.00648713 1.07356e-07 0 0.00648713 1.07356e-07 0 0.00645923 1.05145e-07 0
0.00645923 1.05145e-07 0 0.0064316 1.02987e-07 0 0.0064316 1.02987e-07 0 0.00640426
1.00886e-07 0 0.00640426 1.00886e-07 0 0.00637719 9.88384e-08 0 0.00637719 9.88384e-08
0 0.00635039 9.68458e-08 0 0.00635039 9.68458e-08 0 0.00632385 9.49049e-08 0
0.00632385 9.49049e-08 0 0.00629756 9.30163e-08 0 0.00629756 9.30163e-08 0 0.00627153
9.11758e-08 0 0.00627153 9.11758e-08 0 0.00624575 8.93853e-08 0 0.00624575 8.93853e-08
0 0.0062202 8.76382e-08 0 0.0062202 8.76382e-08 0 0.00619489 8.59409e-08 0
0.00619489 8.59409e-08 0 0.00616981 8.42815e-08 0 0.00616981 8.42815e-08 0 0.00614495
8.26742e-08 0 0.00614495 8.26742e-08 0 0.00612031 8.10967e-08 0 0.00612031 8.10967e-08
0 0.00609589 7.95812e-08 0 0.00609589 7.95812e-08 0 0.00607167 7.80852e-08 0
0.00607167 7.80852e-08 0 0.00604767 7.66623e-08 0 0.00604767 7.66623e-08 0 0.0060238
7.54168e-08 0 0.0060238 7.54168e-08 0 0.00600019 7.36097e-08 0 0.00600019 7.36097e-08
0 0.00597691 7.19411e-08 0 0.00597691 7.19411e-08 0 0.00595353 7.19274e-08 0
0.00595353 7.19274e-08 0 0.00592978 7.25407e-08 0 0.00592978 7.25407e-08 0 0.00590575
7.24192e-08 0 0.00590575 7.24192e-08 0 0.0058817 7.16145e-08 0 0.0058817 7.16145e-08
0 0.00585776 7.04588e-08 0 0.00585776 7.04588e-08 0 0.005834 6.91455e-08 0
0.005834 6.91455e-08 0 0.00581046 6.77726e-08 0 0.00581046 6.77726e-08 0 0.00578715
6.63877e-08 0 0.00578715 6.63877e-08 0 0.00576408 6.50148e-08 0 0.00576408 6.50148e-08
0 0.00574125 6.36665e-08 0 0.00574125 6.36665e-08 0 0.00571866 6.23486e-08 0
0.00571866 6.23486e-08 0 0.0056963 6.10637e-08 0 0.0056963 6.10637e-08 0 0.00567416
5.98126e-08 0 0.00567416 5.98126e-08 0 0.00565226 5.85953e-08 0 0.00565226 5.85953e-08
0 0.00563057 5.74121e-08 0 0.00563057 5.74121e-08 0 0.00560909 5.62603e-08 0
0.00560909 5.62603e-08 0 0.00558782 5.51411e-08 0 0.00558782 5.51411e-08 0 0.00556675
5.40508e-08 0 0.00556675 5.40508e-08 0 0.00554588 5.29913e-08 0 0.00554588 5.29913e-08
0 0.00552521 5.19579e-08 0 0.00552521 5.19579e-08 0 0.00550472 5.09544e-08 0
0.00550472 5.09544e-08 0 0.00548442 4.99744e-08 0 0.00548442 4.99744e-08 0 0.0054643
4.90255e-08 0 0.0054643 4.90255e-08 0 0.00544436 4.80955e-08 0 0.00544436 4.80955e-08
0 0.00542458 4.72038e-08 0 0.00542458 4.72038e-08 0 0.00540497 4.63209e-08 0
0.00540497 4.63209e-08 0 0.00538553 4.55291e-08 0 0.00538553 4.55291e-08 0 0.00536619
4.46586e-08 0 0.00536619 4.46586e-08 0 0.00534715 4.35426e-08 0 0.00534715 4.35426e-08
0 0.00532819 4.32196e-08 0 0.00532819 4.32196e-08 0 0.00530885 4.37659e-08 0
0.00530885 4.37659e-08 0 0.0052892 4.39441e-08 0 0.0052892 4.39441e-08 0 0.00526944
4.3536e-08 0 0.00526944 4.3536e-08 0 0.00524977 4.28547e-08 0 0.00524977 4.28547e-08
0 0.00523024 4.20474e-08 0 0.00523024 4.20474e-08 0 0.0052109 4.12001e-08 0
0.0052109 4.12001e-08 0 0.00519176 4.03434e-08 0 0.00519176 4.03434e-08 0 0.00517282
3.94967e-08 0 0.00517282 3.94967e-08 0 0.00515408 3.86666e-08 0 0.00515408 3.86666e-08
0 0.00513554 3.78572e-08 0 0.00513554 3.78572e-08 0 0.0051172 3.70697e-08 0
0.0051172 3.70697e-08 0 0.00509905 3.6304e-08 0 0.00509905 3.6304e-08 0 0.00508108
3.55611e-08 0 0.00508108 3.55611e-08 0 0.0050633 3.48381e-08 0 0.0050633 3.48381e-08
0 0.00504569 3.41366e-08 0 0.00504569 3.41366e-08 0 0.00502825 3.34542e-08 0
0.00502825 3.34542e-08 0 0.00501098 3.27912e-08 0 0.00501098 3.27912e-08 0 0.00499388
3.21462e-08 0 0.00499388 3.21462e-08 0 0.00497693 3.15185e-08 0 0.00497693 3.15185e-08
0 0.00496015 3.09073e-08 0 0.00496015 3.09073e-08 0 0.00494351 3.03137e-08 0
0.00494351 3.03137e-08 0 0.00492702 2.9735e-08 0 0.00492702 2.9735e-08 0 0.00491067
2.91771e-08 0 0.00491067 2.91771e-08 0 0.00489447 2.86301e-08 0 0.00489447 2.86301e-08
0 0.00487839 2.81377e-08 0 0.00487839 2.81377e-08 0 0.00486243 2.75593e-08 0
0.00486243 2.75593e-08 0 0.00484671 2.69491e-08 0 0.00484671 2.69491e-08 0 0.00483097
2.69343e-08 0 0.00483097 2.69343e-08 0 0.00481485 2.73231e-08 0 0.00481485 2.73231e-08
0 0.00479846 2.73789e-08 0 0.00479846 2.73789e-08 0 0.00478202 2.70676e-08 0
0.00478202 2.70676e-08 0 0.00476568 2.65984e-08 0 0.00476568 2.65984e-08 0 0.00474949
2.60651e-08 0 0.00474949 2.60651e-08 0 0.00473346 2.5515e-08 0 0.00473346 2.5515e-08
0 0.00471762 2.49666e-08 0 0.00471762 2.49666e-08 0 0.00470194 2.4427e-08 0
0.00470194 2.4427e-08 0 0.00468645 2.39013e-08 0 0.00468645 2.39013e-08 0 0.00467113
2.33901e-08 0 0.00467113 2.33901e-08 0 0.00465598 2.28927e-08 0 0.00465598 2.28927e-08
0 0.00464099 2.24109e-08 0 0.00464099 2.24109e-08 0 0.00462616 2.1942e-08 0
0.00462616 2.1942e-08 0 0.00461149 2.1487e-08 0 0.00461149 2.1487e-08 0 0.00459697
2.10453e-08 0 0.00459697 2.10453e-08 0 0.0045826 2.06146e-08 0 0.0045826 2.06146e-08
0 0.00456837 2.01968e-08 0 0.00456837 2.01968e-08 0 0.00455429 1.97884e-08 0
0.00455429 1.97884e-08 0 0.00454034 1.93921e-08 0 0.00454034 1.93921e-08 0 0.00452653
1.90044e-08 0 0.00452653 1.90044e-08 0 0.00451286 1.86301e-08 0 0.00451286 1.86301e-08
0 0.00449931 1.82594e-08 0 0.00449931 1.82594e-08 0 0.0044859 1.79177e-08 0
0.0044859 1.79177e-08 0 0.00447258 1.7578e-08 0 0.00447258 1.7578e-08 0 0.00445943
1.71505e-08 0 0.00445943 1.71505e-08 0 0.00444645 1.6932e-08 0 0.00444645 1.6932e-08
0 0.00443324 1.71141e-08 0 0.00443324 1.71141e-08 0 0.00441972 1.72922e-08 0
0.00441972 1.72922e-08 0 0.00440606 1.71941e-08 0 0.00440606 1.71941e-08 0 0.00439245
1.69133e-08 0 0.00439245 1.69133e-08 0 0.00437896 1.65587e-08 0 0.00437896 1.65587e-08
0 0.00436564 1.61809e-08 0 0.00436564 1.61809e-08 0 0.00435249 1.58011e-08 0
0.00435249 1.58011e-08 0 0.00433951 1.54243e-08 0 0.00433951 1.54243e-08 0 0.00432671
1.50558e-08 0 0.00432671 1.50558e-08 0 0.00431409 1.46959e-08 0 0.00431409 1.46959e-08
0 0.00430164 1.43434e-08 0 0.00430164 1.43434e-08 0 0.00428935 1.40007e-08 0
0.00428935 1.40007e-08 0 0.00427724 1.3664e-08 0 0.00427724 1.3664e-08 0 0.0042653
1.33343e-08 0 0.0042653 1.33343e-08 0 0.00425352 1.30127e-08 0 0.00425352 1.30127e-08
0 0.0042419 1.2695e-08 0 0.0042419 1.2695e-08 0 0.00423045 1.23835e-08 0
0.00423045 1.23835e-08 0 0.00421917 1.20764e-08 0 0.00421917 1.20764e-08 0 0.00420806
1.17738e-08 0 0.00420806 1.17738e-08 0 0.00419711 1.1475e-08 0 0.00419711 1.1475e-08
0 0.00418633 1.11847e-08 0 0.00418633 1.11847e-08 0 0.00417571 1.08869e-08 0
0.00417571 1.08869e-08 0 0.00416528 1.06189e-08 0 0.00416528 1.06189e-08 0 0.00415497
1.03233e-08 0 0.00415497 1.03233e-08 0 0.00414494 9.98279e-09 0 0.00414494 9.98279e-09
0 0.00413504 9.89309e-09 0 0.00413504 9.89309e-09 0 0.0041249 1.00108e-08 0
0.0041249 1.00108e-08 0 0.00411461 9.99512e-09 0 0.00411461 9.99512e-09 0 0.00410436
9.79533e-09 0 0.00410436 9.79533e-09 0 0.00409428 9.5019e-09 0 0.00409428 9.5019e-09
0 0.00408443 9.17413e-09 0 0.00408443 9.17413e-09 0 0.00407484 8.83948e-09 0
0.00407484 8.83948e-09 0 0.00406551 8.50139e-09 0 0.00406551 8.50139e-09 0 0.00405645
8.16435e-09 0 0.00405645 8.16435e-09 0 0.00404766 7.8339e-09 0 0.00404766 7.8339e-09
0 0.00403915 7.50615e-09 0 0.00403915 7.50615e-09 0 0.00403091 7.18184e-09 0
0.00403091 7.18184e-09 0 0.00402295 6.86435e-09 0 0.00402295 6.86435e-09 0 0.00401527
6.5501e-09 0 0.00401527 6.5501e-09 0 0.00400788 6.23907e-09 0 0.00400788 6.23907e-09
0 0.00400076 5.93539e-09 0 0.00400076 5.93539e-09 0 0.00399393 5.63413e-09 0
0.00399393 5.63413e-09 0 0.00398739 5.33687e-09 0 0.00398739 5.33687e-09 0 0.00398113
5.0474e-09 0 0.00398113 5.0474e-09 0 0.00397516 4.76091e-09 0 0.00397516 4.76091e-09
0 0.00396947 4.48111e-09 0 0.00396947 4.48111e-09 0 0.00396408 4.20714e-09 0
0.00396408 4.20714e-09 0 0.00395896 3.94132e-09 0 0.00395896 3.94132e-09 0 0.00395412
3.69078e-09 0 0.00395412 3.69078e-09 0 0.00394955 3.42191e-09 0 0.00394955 3.42191e-09
0 0.00394531 3.16982e-09 0 0.00394531 3.16982e-09 0 0.00394128 3.06232e-09 0
0.00394128 3.06232e-09 0 0.00393721 3.05428e-09 0 0.00393721 3.05428e-09 0 0.00393313
2.98212e-09 0 0.00393313 2.98212e-09 0 0.0039292 2.81308e-09 0 0.0039292 2.81308e-09
0 0.00392551 2.59858e-09 0 0.00392551 2.59858e-09 0 0.00392209 2.37149e-09 0
0.00392209 2.37149e-09 0 0.00391895 2.13937e-09 0 0.00391895 2.13937e-09 0 0.00391611
1.91011e-09 0 0.00391611 1.91011e-09 0 0.00391356 1.69365e-09 0 0.00391356 1.69365e-09
0 0.00391128 1.48745e-09 0 0.00391128 1.48745e-09 0 0.00390927 1.2871e-09 0
0.00390927 1.2871e-09 0 0.00390753 1.09663e-09 0 0.00390753 1.09663e-09 0 0.00390605
9.15009e-10 0 0.00390605 9.15009e-10 0 0.00390482 7.35716e-10 0 0.00390482 7.35716e-10
0 0.00390385 5.63271e-10 0 0.00390385 5.63271e-10 0 0.00390311 4.03419e-10 0
0.00390311 4.03419e-10 0 0.00390261 2.50518e-10 0 0.00390261 2.50518e-10 0 0.00390235
1.00817e-10 0 0.00390235 1.00817e-10 0 0.00390231 -4.06034e-11 0 0.00390231 -4.06034e-11
0 0.00390249 -1.73829e-10 0 0.00390249 -1.73829e-10 0 0.00390289 -3.06303e-10 0
0.00390289 -3.06303e-10 0 0.0039035 -4.34891e-10 0 0.0039035 -4.34891e-10 0 0.00390432
-5.50438e-10 0 0.00390432 -5.50438e-10 0 0.00390533 -6.58155e-10 0 0.00390533 -6.58155e-10
0 0.00390654 -7.68583e-10 0 0.00390654 -7.68583e-10 0 0.00390795 -8.73593e-10 0
0.00390795 -8.73593e-10 0 0.00390954 -9.76563e-10 0 0.00390954 -9.76563e-10 0 0.00391133
-1.04379e-09 0 0.00391133 -1.04379e-09 0 0.00391318 -1.02224e-09 0 0.00391318 -1.02224e-09
0 0.00391492 -9.7901e-10 0 0.00391492 -9.7901e-10 0 0.00391666 -9.85803e-10 0
0.00391666 -9.85803e-10 0 0.00391848 -1.03313e-09 0 0.00391848 -1.03313e-09 0 0.00392044
-1.10648e-09 0 0.00392044 -1.10648e-09 0 0.00392257 -1.18993e-09 0 0.00392257 -1.18993e-09
0 0.00392487 -1.26682e-09 0 0.00392487 -1.26682e-09 0 0.00392733 -1.33573e-09 0
0.00392733 -1.33573e-09 0 0.00392995 -1.407e-09 0 0.00392995 -1.407e-09 0 0.00393274
-1.48146e-09 0 0.00393274 -1.48146e-09 0 0.0039357 -1.54652e-09 0 0.0039357 -1.54652e-09
0 0.00393879 -1.59748e-09 0 0.00393879 -1.59748e-09 0 0.00394202 -1.64575e-09 0
0.00394202 -1.64575e-09 0 0.00394538 -1.70144e-09 0 0.00394538 -1.70144e-09 0 0.0039489
-1.75861e-09 0 0.0039489 -1.75861e-09 0 0.00395256 -1.80427e-09 0 0.00395256 -1.80427e-09
0 0.00395633 -1.83776e-09 0 0.00395633 -1.83776e-09 0 0.00396022 -1.87032e-09 0
0.00396022 -1.87032e-09 0 0.00396422 -1.91023e-09 0 0.00396422 -1.91023e-09 0 0.00396836
-1.95153e-09 0 0.00396836 -1.95153e-09 0 0.00397261 -1.98307e-09 0 0.00397261 -1.98307e-09
0 0.00397696 -2.00542e-09 0 0.00397696 -2.00542e-09 0 0.00398141 -2.02665e-09 0
0.00398141 -2.02665e-09 0 0.00398596 -2.05129e-09 0 0.00398596 -2.05129e-09 0 0.00399061
-2.07714e-09 0 0.00399061 -2.07714e-09 0 0.00399536 -2.09726e-09 0 0.00399536 -2.09726e-09
0 0.0040002 -2.11177e-09 0 0.0040002 -2.11177e-09 0 0.00400512 -2.12467e-09 0
0.00400512 -2.12467e-09 0 0.00401012 -2.10311e-09 0 0.00401012 -2.10311e-09 0 0.00401504
-2.03266e-09 0 0.00401504 -2.03266e-09 0 0.0040198 -1.97107e-09 0 0.0040198 -1.97107e-09
0 0.00402453 -1.94791e-09 0 0.00402453 -1.94791e-09 0 0.00402929 -1.94622e-09 0
0.00402929 -1.94622e-09 0 0.00403411 -1.95646e-09 0 0.00403411 -1.95646e-09 0 0.00403902
-1.97474e-09 0 0.00403902 -1.97474e-09 0 0.00404404 -1.99733e-09 0 0.00404404 -1.99733e-09
0 0.00404916 -2.02006e-09 0 0.00404916 -2.02006e-09 0 0.0040544 -2.04021e-09 0
0.0040544 -2.04021e-09 0 0.00405973 -2.05713e-09 0 0.00405973 -2.05713e-09 0 0.00406516
-2.07195e-09 0 0.00406516 -2.07195e-09 0 0.00407068 -2.08559e-09 0 0.00407068 -2.08559e-09
0 0.0040763 -2.09852e-09 0 0.0040763 -2.09852e-09 0 0.00408201 -2.11066e-09 0
0.00408201 -2.11066e-09 0 0.00408781 -2.12082e-09 0 0.00408781 -2.12082e-09 0 0.0040937
-2.12904e-09 0 0.0040937 -2.12904e-09 0 0.00409968 -2.13654e-09 0 0.00409968 -2.13654e-09
0 0.00410573 -2.14364e-09 0 0.00410573 -2.14364e-09 0 0.00411187 -2.15049e-09 0
0.00411187 -2.15049e-09 0 0.0041181 -2.15728e-09 0 0.0041181 -2.15728e-09 0 0.00412441
-2.16362e-09 0 0.00412441 -2.16362e-09 0 0.0041308 -2.16921e-09 0 0.0041308 -2.16921e-09
0 0.00413727 -2.17359e-09 0 0.00413727 -2.17359e-09 0 0.00414383 -2.17673e-09 0
0.00414383 -2.17673e-09 0 0.00415046 -2.17845e-09 0 0.00415046 -2.17845e-09 0 0.00415716
-2.17896e-09 0 0.00415716 -2.17896e-09 0 0.00416393 -2.17968e-09 0 0.00416393 -2.17968e-09
0 0.00417077 -2.15846e-09 0 0.00417077 -2.15846e-09 0 0.00417754 -2.09885e-09 0
0.00417754 -2.09885e-09 0 0.00418414 -2.03909e-09 0 0.00418414 -2.03909e-09 0 0.00419067
-2.00752e-09 0 0.00419067 -2.00752e-09 0 0.00419721 -1.99404e-09 0 0.00419721 -1.99404e-09
0 0.00420379 -1.98858e-09 0 0.00420379 -1.98858e-09 0 0.00421043 -1.98616e-09 0
0.00421043 -1.98616e-09 0 0.00421713 -1.98511e-09 0 0.00421713 -1.98511e-09 0 0.0042239
-1.98456e-09 0 0.0042239 -1.98456e-09 0 0.00423074 -1.98393e-09 0 0.00423074 -1.98393e-09
0 0.00423764 -1.98272e-09 0 0.00423764 -1.98272e-09 0 0.00424462 -1.98094e-09 0
0.00424462 -1.98094e-09 0 0.00425165 -1.97903e-09 0 0.00425165 -1.97903e-09 0 0.00425876
-1.97681e-09 0 0.00425876 -1.97681e-09 0 0.00426593 -1.97418e-09 0 0.00426593 -1.97418e-09
0 0.00427316 -1.97099e-09 0 0.00427316 -1.97099e-09 0 0.00428046 -1.96729e-09 0
0.00428046 -1.96729e-09 0 0.00428781 -1.96327e-09 0 0.00428781 -1.96327e-09 0 0.00429523
-1.95945e-09 0 0.00429523 -1.95945e-09 0 0.00430271 -1.95478e-09 0 0.00430271 -1.95478e-09
0 0.00431025 -1.94967e-09 0 0.00431025 -1.94967e-09 0 0.00431785 -1.94467e-09 0
0.00431785 -1.94467e-09 0 0.00432551 -1.93895e-09 0 0.00432551 -1.93895e-09 0 0.00433322
-1.93311e-09 0 0.00433322 -1.93311e-09 0 0.00434099 -1.92687e-09 0 0.00434099 -1.92687e-09
0 0.00434881 -1.92028e-09 0 0.00434881 -1.92028e-09 0 0.00435669 -1.91507e-09 0
0.00435669 -1.91507e-09 0 0.00436464 -1.89791e-09 0 0.00436464 -1.89791e-09 0 0.00437254
-1.85317e-09 0 0.00437254 -1.85317e-09 0 0.00438027 -1.80222e-09 0 0.00438027 -1.80222e-09
0 0.0043879 -1.76966e-09 0 0.0043879 -1.76966e-09 0 0.00439552 -1.75306e-09 0
0.00439552 -1.75306e-09 0 0.00440316 -1.74366e-09 0 0.00440316 -1.74366e-09 0 0.00441086
-1.73694e-09 0 0.00441086 -1.73694e-09 0 0.0044186 -1.73157e-09 0 0.0044186 -1.73157e-09
0 0.0044264 -1.72655e-09 0 0.0044264 -1.72655e-09 0 0.00443426 -1.72135e-09 0
0.00443426 -1.72135e-09 0 0.00444218 -1.71607e-09 0 0.00444218 -1.71607e-09 0 0.00445016
-1.71084e-09 0 0.00445016 -1.71084e-09 0 0.00445819 -1.70552e-09 0 0.00445819 -1.70552e-09
0 0.00446628 -1.69995e-09 0 0.00446628 -1.69995e-09 0 0.00447443 -1.69409e-09 0
0.00447443 -1.69409e-09 0 0.00448264 -1.688e-09 0 0.00448264 -1.688e-09 0 0.0044909
-1.68151e-09 0 0.0044909 -1.68151e-09 0 0.00449921 -1.67501e-09 0 0.00449921 -1.67501e-09
0 0.00450758 -1.66839e-09 0 0.00450758 -1.66839e-09 0 0.004516 -1.66141e-09 0
0.004516 -1.66141e-09 0 0.00452447 -1.65432e-09 0 0.00452447 -1.65432e-09 0 0.004533
-1.64714e-09 0 0.004533 -1.64714e-09 0 0.00454157 -1.63993e-09 0 0.00454157 -1.63993e-09
0 0.0045502 -1.63227e-09 0 0.0045502 -1.63227e-09 0 0.00455888 -1.62441e-09 0
0.00455888 -1.62441e-09 0 0.0045676 -1.61741e-09 0 0.0045676 -1.61741e-09 0 0.00457638
-1.60117e-09 0 0.00457638 -1.60117e-09 0 0.00458511 -1.56506e-09 0 0.00458511 -1.56506e-09
0 0.00459367 -1.52488e-09 0 0.00459367 -1.52488e-09 0 0.00460213 -1.49844e-09 0
0.00460213 -1.49844e-09 0 0.00461057 -1.48347e-09 0 0.00461057 -1.48347e-09 0 0.00461904
-1.47372e-09 0 0.00461904 -1.47372e-09 0 0.00462754 -1.46586e-09 0 0.00462754 -1.46586e-09
0 0.00463609 -1.45872e-09 0 0.00463609 -1.45872e-09 0 0.0046447 -1.45256e-09 0
0.0046447 -1.45256e-09 0 0.00465335 -1.44631e-09 0 0.00465335 -1.44631e-09 0 0.00466205
-1.43978e-09 0 0.00466205 -1.43978e-09 0 0.00467081 -1.43334e-09 0 0.00467081 -1.43334e-09
0 0.00467962 -1.42673e-09 0 0.00467962 -1.42673e-09 0 0.00468848 -1.42008e-09 0
0.00468848 -1.42008e-09 0 0.00469739 -1.41331e-09 0 0.00469739 -1.41331e-09 0 0.00470635
-1.40648e-09 0 0.00470635 -1.40648e-09 0 0.00471535 -1.39941e-09 0 0.00471535 -1.39941e-09
0 0.00472441 -1.39228e-09 0 0.00472441 -1.39228e-09 0 0.00473351 -1.38484e-09 0
0.00473351 -1.38484e-09 0 0.00474266 -1.37753e-09 0 0.00474266 -1.37753e-09 0 0.00475186
-1.37043e-09 0 0.00475186 -1.37043e-09 0 0.0047611 -1.36296e-09 0 0.0047611 -1.36296e-09
0 0.00477039 -1.35536e-09 0 0.00477039 -1.35536e-09 0 0.00477972 -1.34775e-09 0
0.00477972 -1.34775e-09 0 0.0047891 -1.33937e-09 0 0.0047891 -1.33937e-09 0 0.0047985
-1.32047e-09 0 0.0047985 -1.32047e-09 0 0.0048078 -1.28784e-09 0 0.0048078 -1.28784e-09
0 0.00481694 -1.25823e-09 0 0.00481694 -1.25823e-09 0 0.00482601 -1.24084e-09 0
0.00482601 -1.24084e-09 0 0.00483507 -1.22959e-09 0 0.00483507 -1.22959e-09 0 0.00484417
-1.22063e-09 0 0.00484417 -1.22063e-09 0 0.00485329 -1.21335e-09 0 0.00485329 -1.21335e-09
0 0.00486246 -1.20666e-09 0 0.00486246 -1.20666e-09 0 0.00487168 -1.20011e-09 0
0.00487168 -1.20011e-09 0 0.00488094 -1.19362e-09 0 0.00488094 -1.19362e-09 0 0.00489025
-1.18725e-09 0 0.00489025 -1.18725e-09 0 0.00489961 -1.18037e-09 0 0.00489961 -1.18037e-09
0 0.00490901 -1.17372e-09 0 0.00490901 -1.17372e-09 0 0.00491845 -1.16746e-09 0
0.00491845 -1.16746e-09 0 0.00492794 -1.16061e-09 0 0.00492794 -1.16061e-09 0 0.00493748
-1.15399e-09 0 0.00493748 -1.15399e-09 0 0.00494705 -1.14746e-09 0 0.00494705 -1.14746e-09
0 0.00495667 -1.14071e-09 0 0.00495667 -1.14071e-09 0 0.00496634 -1.13387e-09 0
0.00496634 -1.13387e-09 0 0.00497604 -1.12635e-09 0 0.00497604 -1.12635e-09 0 0.00498578
-1.11939e-09 0 0.00498578 -1.11939e-09 0 0.00499557 -1.11251e-09 0 0.00499557 -1.11251e-09
0 0.00500539 -1.1058e-09 0 0.00500539 -1.1058e-09 0 0.00501526 -1.09324e-09 0
0.00501526 -1.09324e-09 0 0.00502506 -1.06949e-09 0 0.00502506 -1.06949e-09 0 0.0050347
-1.04296e-09 0 0.0050347 -1.04296e-09 0 0.00504421 -1.02641e-09 0 0.00504421 -1.02641e-09
0 0.00505375 -1.01466e-09 0 0.00505375 -1.01466e-09 0 0.00506324 -1.00789e-09 0
0.00506324 -1.00789e-09 0 0.00507285 -9.99178e-10 0 0.00507285 -9.99178e-10 0 0.00508237
-9.94786e-10 0 0.00508237 -9.94786e-10 0 0.0050921 -9.86768e-10 0 0.0050921 -9.86768e-10
0 0.00510165 -9.82719e-10 0 0.00510165 -9.82719e-10 0 0.00511151 -9.75407e-10 0
0.00511151 -9.75407e-10 0 0.00512111 -9.69638e-10 0 0.00512111 -9.69638e-10 0 0.00513107
-9.63552e-10 0 0.00513107 -9.63552e-10 0 0.00514075 -9.56871e-10 0 0.00514075 -9.56871e-10
0 0.00515077 -9.53319e-10 0 0.00515077 -9.53319e-10 0 0.00516057 -9.43355e-10 0
0.00516057 -9.43355e-10 0 0.00517061 -9.42766e-10 0 0.00517061 -9.42766e-10 0 0.0051806
-9.27759e-10 0 0.0051806 -9.27759e-10 0 0.00519052 -9.37306e-10 0 0.00519052 -9.37306e-10
0 0.00520092 -8.9963e-10 0 0.00520092 -8.9963e-10 0 0.00521022 -9.56684e-10 0
0.00521022 -9.56684e-10 0 0.0113423 -1.55296e-09 0 0.0113423 -1.55296e-09 0 0.0174744
-2.03468e-09 0 0.0174744 -2.03468e-09 0 
