# vtk DataFile Version 2.0
sampleSurface
ASCII
DATASET POLYDATA
POINTS 1202 float
0 0 0 5.99825e-05 0 0 5.99825e-05 0 0.1 0 0
0.1 0.000120591 0 0 0.000120591 0 0.1 0.000181831 0 0
0.000181831 0 0.1 0.000243709 0 0 0.000243709 0 0.1 0.000306234
0 0 0.000306234 0 0.1 0.00036941 0 0 0.00036941 0
0.1 0.000433245 0 0 0.000433245 0 0.1 0.000497746 0 0
0.000497746 0 0.1 0.000562919 0 0 0.000562919 0 0.1 0.000628772
0 0 0.000628772 0 0.1 0.000695312 0 0 0.000695312 0
0.1 0.000762546 0 0 0.000762546 0 0.1 0.000830481 0 0
0.000830481 0 0.1 0.000899125 0 0 0.000899125 0 0.1 0.000968484
0 0 0.000968484 0 0.1 0.00103857 0 0 0.00103857 0
0.1 0.00110938 0 0 0.00110938 0 0.1 0.00118093 0 0
0.00118093 0 0.1 0.00125323 0 0 0.00125323 0 0.1 0.00132628
0 0 0.00132628 0 0.1 0.0014001 0 0 0.0014001 0
0.1 0.00147468 0 0 0.00147468 0 0.1 0.00155004 0 0
0.00155004 0 0.1 0.00162619 0 0 0.00162619 0 0.1 0.00170313
0 0 0.00170313 0 0.1 0.00178088 0 0 0.00178088 0
0.1 0.00185943 0 0 0.00185943 0 0.1 0.00193881 0 0
0.00193881 0 0.1 0.00201901 0 0 0.00201901 0 0.1 0.00210005
0 0 0.00210005 0 0.1 0.00218193 0 0 0.00218193 0
0.1 0.00226467 0 0 0.00226467 0 0.1 0.00234827 0 0
0.00234827 0 0.1 0.00243274 0 0 0.00243274 0 0.1 0.0025181
0 0 0.0025181 0 0.1 0.00260434 0 0 0.00260434 0
0.1 0.00269148 0 0 0.00269148 0 0.1 0.00277954 0 0
0.00277954 0 0.1 0.00286851 0 0 0.00286851 0 0.1 0.0029584
0 0 0.0029584 0 0.1 0.00304924 0 0 0.00304924 0
0.1 0.00314102 0 0 0.00314102 0 0.1 0.00323376 0 0
0.00323376 0 0.1 0.00332747 0 0 0.00332747 0 0.1 0.00342215
0 0 0.00342215 0 0.1 0.00351783 0 0 0.00351783 0
0.1 0.0036145 0 0 0.0036145 0 0.1 0.00371217 0 0
0.00371217 0 0.1 0.00381087 0 0 0.00381087 0 0.1 0.0039106
0 0 0.0039106 0 0.1 0.00401136 0 0 0.00401136 0
0.1 0.00411318 0 0 0.00411318 0 0.1 0.00421606 0 0
0.00421606 0 0.1 0.00432001 0 0 0.00432001 0 0.1 0.00442505
0 0 0.00442505 0 0.1 0.00453118 0 0 0.00453118 0
0.1 0.00463842 0 0 0.00463842 0 0.1 0.00474677 0 0
0.00474677 0 0.1 0.00485626 0 0 0.00485626 0 0.1 0.00496689
0 0 0.00496689 0 0.1 0.00507867 0 0 0.00507867 0
0.1 0.00519162 0 0 0.00519162 0 0.1 0.00530574 0 0
0.00530574 0 0.1 0.00542106 0 0 0.00542106 0 0.1 0.00553758
0 0 0.00553758 0 0.1 0.00565531 0 0 0.00565531 0
0.1 0.00577427 0 0 0.00577427 0 0.1 0.00589447 0 0
0.00589447 0 0.1 0.00601593 0 0 0.00601593 0 0.1 0.00613865
0 0 0.00613865 0 0.1 0.00626266 0 0 0.00626266 0
0.1 0.00638795 0 0 0.00638795 0 0.1 0.00651455 0 0
0.00651455 0 0.1 0.00664248 0 0 0.00664248 0 0.1 0.00677173
0 0 0.00677173 0 0.1 0.00690234 0 0 0.00690234 0
0.1 0.0070343 0 0 0.0070343 0 0.1 0.00716765 0 0
0.00716765 0 0.1 0.00730238 0 0 0.00730238 0 0.1 0.00743852
0 0 0.00743852 0 0.1 0.00757608 0 0 0.00757608 0
0.1 0.00771507 0 0 0.00771507 0 0.1 0.00785551 0 0
0.00785551 0 0.1 0.00799742 0 0 0.00799742 0 0.1 0.00814081
0 0 0.00814081 0 0.1 0.00828569 0 0 0.00828569 0
0.1 0.00843209 0 0 0.00843209 0 0.1 0.00858001 0 0
0.00858001 0 0.1 0.00872947 0 0 0.00872947 0 0.1 0.00888049
0 0 0.00888049 0 0.1 0.00903309 0 0 0.00903309 0
0.1 0.00918728 0 0 0.00918728 0 0.1 0.00934307 0 0
0.00934307 0 0.1 0.00950049 0 0 0.00950049 0 0.1 0.00965956
0 0 0.00965956 0 0.1 0.00982028 0 0 0.00982028 0
0.1 0.00998268 0 0 0.00998268 0 0.1 0.0101468 0 0
0.0101468 0 0.1 0.0103126 0 0 0.0103126 0 0.1 0.0104801
0 0 0.0104801 0 0.1 0.0106494 0 0 0.0106494 0
0.1 0.0108204 0 0 0.0108204 0 0.1 0.0109933 0 0
0.0109933 0 0.1 0.0111679 0 0 0.0111679 0 0.1 0.0113443
0 0 0.0113443 0 0.1 0.0115226 0 0 0.0115226 0
0.1 0.0117028 0 0 0.0117028 0 0.1 0.0118848 0 0
0.0118848 0 0.1 0.0120687 0 0 0.0120687 0 0.1 0.0122546
0 0 0.0122546 0 0.1 0.0124424 0 0 0.0124424 0
0.1 0.0126321 0 0 0.0126321 0 0.1 0.0128238 0 0
0.0128238 0 0.1 0.0130176 0 0 0.0130176 0 0.1 0.0132133
0 0 0.0132133 0 0.1 0.0134111 0 0 0.0134111 0
0.1 0.0136109 0 0 0.0136109 0 0.1 0.0138129 0 0
0.0138129 0 0.1 0.0140169 0 0 0.0140169 0 0.1 0.0142231
0 0 0.0142231 0 0.1 0.0144314 0 0 0.0144314 0
0.1 0.0146419 0 0 0.0146419 0 0.1 0.0148546 0 0
0.0148546 0 0.1 0.0150695 0 0 0.0150695 0 0.1 0.0152866
0 0 0.0152866 0 0.1 0.015506 0 0 0.015506 0
0.1 0.0157277 0 0 0.0157277 0 0.1 0.0159517 0 0
0.0159517 0 0.1 0.016178 0 0 0.016178 0 0.1 0.0164067
0 0 0.0164067 0 0.1 0.0166378 0 0 0.0166378 0
0.1 0.0168713 0 0 0.0168713 0 0.1 0.0171073 0 0
0.0171073 0 0.1 0.0173457 0 0 0.0173457 0 0.1 0.0175865
0 0 0.0175865 0 0.1 0.0178299 0 0 0.0178299 0
0.1 0.0180759 0 0 0.0180759 0 0.1 0.0183244 0 0
0.0183244 0 0.1 0.0185754 0 0 0.0185754 0 0.1 0.0188291
0 0 0.0188291 0 0.1 0.0190855 0 0 0.0190855 0
0.1 0.0193445 0 0 0.0193445 0 0.1 0.0196063 0 0
0.0196063 0 0.1 0.0198707 0 0 0.0198707 0 0.1 0.0201379
0 0 0.0201379 0 0.1 0.0204079 0 0 0.0204079 0
0.1 0.0206807 0 0 0.0206807 0 0.1 0.0209564 0 0
0.0209564 0 0.1 0.0212349 0 0 0.0212349 0 0.1 0.0215164
0 0 0.0215164 0 0.1 0.0218008 0 0 0.0218008 0
0.1 0.0220881 0 0 0.0220881 0 0.1 0.0223784 0 0
0.0223784 0 0.1 0.0226718 0 0 0.0226718 0 0.1 0.0229682
0 0 0.0229682 0 0.1 0.0232677 0 0 0.0232677 0
0.1 0.0235704 0 0 0.0235704 0 0.1 0.0238762 0 0
0.0238762 0 0.1 0.0241852 0 0 0.0241852 0 0.1 0.0244974
0 0 0.0244974 0 0.1 0.0248128 0 0 0.0248128 0
0.1 0.0251316 0 0 0.0251316 0 0.1 0.0254537 0 0
0.0254537 0 0.1 0.0257791 0 0 0.0257791 0 0.1 0.0261079
0 0 0.0261079 0 0.1 0.0264402 0 0 0.0264402 0
0.1 0.0267759 0 0 0.0267759 0 0.1 0.0271152 0 0
0.0271152 0 0.1 0.0274579 0 0 0.0274579 0 0.1 0.0278043
0 0 0.0278043 0 0.1 0.0281542 0 0 0.0281542 0
0.1 0.0285078 0 0 0.0285078 0 0.1 0.0288651 0 0
0.0288651 0 0.1 0.0292261 0 0 0.0292261 0 0.1 0.0295909
0 0 0.0295909 0 0.1 0.0299595 0 0 0.0299595 0
0.1 0.0303319 0 0 0.0303319 0 0.1 0.0307082 0 0
0.0307082 0 0.1 0.0310885 0 0 0.0310885 0 0.1 0.0314727
0 0 0.0314727 0 0.1 0.0318609 0 0 0.0318609 0
0.1 0.0322532 0 0 0.0322532 0 0.1 0.0326495 0 0
0.0326495 0 0.1 0.03305 0 0 0.03305 0 0.1 0.0334546
0 0 0.0334546 0 0.1 0.0338635 0 0 0.0338635 0
0.1 0.0342767 0 0 0.0342767 0 0.1 0.0346941 0 0
0.0346941 0 0.1 0.0351159 0 0 0.0351159 0 0.1 0.0355421
0 0 0.0355421 0 0.1 0.0359728 0 0 0.0359728 0
0.1 0.0364079 0 0 0.0364079 0 0.1 0.0368476 0 0
0.0368476 0 0.1 0.0372919 0 0 0.0372919 0 0.1 0.0377408
0 0 0.0377408 0 0.1 0.0381944 0 0 0.0381944 0
0.1 0.0386527 0 0 0.0386527 0 0.1 0.0391158 0 0
0.0391158 0 0.1 0.0395837 0 0 0.0395837 0 0.1 0.0400565
0 0 0.0400565 0 0.1 0.0405342 0 0 0.0405342 0
0.1 0.0410169 0 0 0.0410169 0 0.1 0.0415047 0 0
0.0415047 0 0.1 0.0419975 0 0 0.0419975 0 0.1 0.0424955
0 0 0.0424955 0 0.1 0.0429986 0 0 0.0429986 0
0.1 0.0435071 0 0 0.0435071 0 0.1 0.0440208 0 0
0.0440208 0 0.1 0.0445398 0 0 0.0445398 0 0.1 0.0450643
0 0 0.0450643 0 0.1 0.0455943 0 0 0.0455943 0
0.1 0.0461298 0 0 0.0461298 0 0.1 0.0466708 0 0
0.0466708 0 0.1 0.0472176 0 0 0.0472176 0 0.1 0.04777
0 0 0.04777 0 0.1 0.0483281 0 0 0.0483281 0
0.1 0.0488921 0 0 0.0488921 0 0.1 0.049462 0 0
0.049462 0 0.1 0.0500378 0 0 0.0500378 0 0.1 0.0506197
0 0 0.0506197 0 0.1 0.0512076 0 0 0.0512076 0
0.1 0.0518016 0 0 0.0518016 0 0.1 0.0524018 0 0
0.0524018 0 0.1 0.0530083 0 0 0.0530083 0 0.1 0.0536211
0 0 0.0536211 0 0.1 0.0542403 0 0 0.0542403 0
0.1 0.0548659 0 0 0.0548659 0 0.1 0.0554981 0 0
0.0554981 0 0.1 0.0561369 0 0 0.0561369 0 0.1 0.0567823
0 0 0.0567823 0 0.1 0.0574345 0 0 0.0574345 0
0.1 0.0580934 0 0 0.0580934 0 0.1 0.0587593 0 0
0.0587593 0 0.1 0.0594321 0 0 0.0594321 0 0.1 0.0601119
0 0 0.0601119 0 0.1 0.0607987 0 0 0.0607987 0
0.1 0.0614928 0 0 0.0614928 0 0.1 0.0621941 0 0
0.0621941 0 0.1 0.0629027 0 0 0.0629027 0 0.1 0.0636187
0 0 0.0636187 0 0.1 0.0643421 0 0 0.0643421 0
0.1 0.0650732 0 0 0.0650732 0 0.1 0.0658118 0 0
0.0658118 0 0.1 0.0665581 0 0 0.0665581 0 0.1 0.0673122
0 0 0.0673122 0 0.1 0.0680742 0 0 0.0680742 0
0.1 0.0688441 0 0 0.0688441 0 0.1 0.0696221 0 0
0.0696221 0 0.1 0.0704082 0 0 0.0704082 0 0.1 0.0712024
0 0 0.0712024 0 0.1 0.072005 0 0 0.072005 0
0.1 0.0728159 0 0 0.0728159 0 0.1 0.0736353 0 0
0.0736353 0 0.1 0.0744632 0 0 0.0744632 0 0.1 0.0752998
0 0 0.0752998 0 0.1 0.076145 0 0 0.076145 0
0.1 0.0769991 0 0 0.0769991 0 0.1 0.0778621 0 0
0.0778621 0 0.1 0.0787342 0 0 0.0787342 0 0.1 0.0796153
0 0 0.0796153 0 0.1 0.0805055 0 0 0.0805055 0
0.1 0.0814051 0 0 0.0814051 0 0.1 0.0823141 0 0
0.0823141 0 0.1 0.0832325 0 0 0.0832325 0 0.1 0.0841605
0 0 0.0841605 0 0.1 0.0850982 0 0 0.0850982 0
0.1 0.0860457 0 0 0.0860457 0 0.1 0.087003 0 0
0.087003 0 0.1 0.0879704 0 0 0.0879704 0 0.1 0.0889478
0 0 0.0889478 0 0.1 0.0899354 0 0 0.0899354 0
0.1 0.0909333 0 0 0.0909333 0 0.1 0.0919416 0 0
0.0919416 0 0.1 0.0929605 0 0 0.0929605 0 0.1 0.0939899
0 0 0.0939899 0 0.1 0.0950302 0 0 0.0950302 0
0.1 0.0960812 0 0 0.0960812 0 0.1 0.0971432 0 0
0.0971432 0 0.1 0.0982163 0 0 0.0982163 0 0.1 0.0993006
0 0 0.0993006 0 0.1 0.100396 0 0 0.100396 0
0.1 0.101503 0 0 0.101503 0 0.1 0.102622 0 0
0.102622 0 0.1 0.103752 0 0 0.103752 0 0.1 0.104894
0 0 0.104894 0 0.1 0.106048 0 0 0.106048 0
0.1 0.107214 0 0 0.107214 0 0.1 0.108392 0 0
0.108392 0 0.1 0.109582 0 0 0.109582 0 0.1 0.110785
0 0 0.110785 0 0.1 0.112001 0 0 0.112001 0
0.1 0.113229 0 0 0.113229 0 0.1 0.114469 0 0
0.114469 0 0.1 0.115723 0 0 0.115723 0 0.1 0.11699
0 0 0.11699 0 0.1 0.11827 0 0 0.11827 0
0.1 0.119564 0 0 0.119564 0 0.1 0.12087 0 0
0.12087 0 0.1 0.122191 0 0 0.122191 0 0.1 0.123525
0 0 0.123525 0 0.1 0.124873 0 0 0.124873 0
0.1 0.126236 0 0 0.126236 0 0.1 0.127612 0 0
0.127612 0 0.1 0.129003 0 0 0.129003 0 0.1 0.130408
0 0 0.130408 0 0.1 0.131828 0 0 0.131828 0
0.1 0.133263 0 0 0.133263 0 0.1 0.134713 0 0
0.134713 0 0.1 0.136178 0 0 0.136178 0 0.1 0.137658
0 0 0.137658 0 0.1 0.139154 0 0 0.139154 0
0.1 0.140665 0 0 0.140665 0 0.1 0.142192 0 0
0.142192 0 0.1 0.143735 0 0 0.143735 0 0.1 0.145294
0 0 0.145294 0 0.1 0.146869 0 0 0.146869 0
0.1 0.148461 0 0 0.148461 0 0.1 0.150069 0 0
0.150069 0 0.1 0.151694 0 0 0.151694 0 0.1 0.153336
0 0 0.153336 0 0.1 0.154995 0 0 0.154995 0
0.1 0.156672 0 0 0.156672 0 0.1 0.158366 0 0
0.158366 0 0.1 0.160077 0 0 0.160077 0 0.1 0.161807
0 0 0.161807 0 0.1 0.163554 0 0 0.163554 0
0.1 0.16532 0 0 0.16532 0 0.1 0.167104 0 0
0.167104 0 0.1 0.168907 0 0 0.168907 0 0.1 0.170728
0 0 0.170728 0 0.1 0.172569 0 0 0.172569 0
0.1 0.174428 0 0 0.174428 0 0.1 0.176307 0 0
0.176307 0 0.1 0.178206 0 0 0.178206 0 0.1 0.180124
0 0 0.180124 0 0.1 0.182063 0 0 0.182063 0
0.1 0.184022 0 0 0.184022 0 0.1 0.186001 0 0
0.186001 0 0.1 0.188001 0 0 0.188001 0 0.1 0.190021
0 0 0.190021 0 0.1 0.192063 0 0 0.192063 0
0.1 0.194126 0 0 0.194126 0 0.1 0.19621 0 0
0.19621 0 0.1 0.198317 0 0 0.198317 0 0.1 0.200445
0 0 0.200445 0 0.1 0.202595 0 0 0.202595 0
0.1 0.204768 0 0 0.204768 0 0.1 0.206964 0 0
0.206964 0 0.1 0.209182 0 0 0.209182 0 0.1 0.211424
0 0 0.211424 0 0.1 0.213689 0 0 0.213689 0
0.1 0.215977 0 0 0.215977 0 0.1 0.21829 0 0
0.21829 0 0.1 0.220626 0 0 0.220626 0 0.1 0.222987
0 0 0.222987 0 0.1 0.225372 0 0 0.225372 0
0.1 0.227783 0 0 0.227783 0 0.1 0.230218 0 0
0.230218 0 0.1 0.232679 0 0 0.232679 0 0.1 0.235166
0 0 0.235166 0 0.1 0.237678 0 0 0.237678 0
0.1 0.240217 0 0 0.240217 0 0.1 0.242782 0 0
0.242782 0 0.1 0.245374 0 0 0.245374 0 0.1 0.247993
0 0 0.247993 0 0.1 0.25064 0 0 0.25064 0
0.1 0.253313 0 0 0.253313 0 0.1 0.256015 0 0
0.256015 0 0.1 0.258745 0 0 0.258745 0 0.1 0.261504
0 0 0.261504 0 0.1 0.264291 0 0 0.264291 0
0.1 0.267107 0 0 0.267107 0 0.1 0.269953 0 0
0.269953 0 0.1 0.272828 0 0 0.272828 0 0.1 0.275733
0 0 0.275733 0 0.1 0.278669 0 0 0.278669 0
0.1 0.281635 0 0 0.281635 0 0.1 0.284632 0 0
0.284632 0 0.1 0.287661 0 0 0.287661 0 0.1 0.290721
0 0 0.290721 0 0.1 0.293813 0 0 0.293813 0
0.1 0.296937 0 0 0.296937 0 0.1 0.300093 0 0
0.300093 0 0.1 0.303283 0 0 0.303283 0 0.1 0.306506
0 0 0.306506 0 0.1 0.309763 0 0 0.309763 0
0.1 0.313053 0 0 0.313053 0 0.1 0.316378 0 0
0.316378 0 0.1 0.319737 0 0 0.319737 0 0.1 0.323132
0 0 0.323132 0 0.1 0.326562 0 0 0.326562 0
0.1 0.330027 0 0 0.330027 0 0.1 0.333529 0 0
0.333529 0 0.1 0.337068 0 0 0.337068 0 0.1 0.340643
0 0 0.340643 0 0.1 0.344255 0 0 0.344255 0
0.1 0.347906 0 0 0.347906 0 0.1 0.351594 0 0
0.351594 0 0.1 0.355321 0 0 0.355321 0 0.1 0.359086
0 0 0.359086 0 0.1 0.362891 0 0 0.362891 0
0.1 0.366736 0 0 0.366736 0 0.1 0.37062 0 0
0.37062 0 0.1 0.374546 0 0 0.374546 0 0.1 0.378512
0 0 0.378512 0 0.1 0.382519 0 0 0.382519 0
0.1 0.386568 0 0 0.386568 0 0.1 0.39066 0 0
0.39066 0 0.1 0.394794 0 0 0.394794 0 0.1 0.398971
0 0 0.398971 0 0.1 0.403192 0 0 0.403192 0
0.1 0.407457 0 0 0.407457 0 0.1 0.411766 0 0
0.411766 0 0.1 0.416121 0 0 0.416121 0 0.1 0.42052
0 0 0.42052 0 0.1 0.424966 0 0 0.424966 0
0.1 0.429458 0 0 0.429458 0 0.1 0.433997 0 0
0.433997 0 0.1 0.438583 0 0 0.438583 0 0.1 0.443217
0 0 0.443217 0 0.1 0.447899 0 0 0.447899 0
0.1 0.45263 0 0 0.45263 0 0.1 0.457411 0 0
0.457411 0 0.1 0.462241 0 0 0.462241 0 0.1 0.467122
0 0 0.467122 0 0.1 0.472053 0 0 0.472053 0
0.1 0.477036 0 0 0.477036 0 0.1 0.482071 0 0
0.482071 0 0.1 0.487159 0 0 0.487159 0 0.1 0.492299
0 0 0.492299 0 0.1 0.497493 0 0 0.497493 0
0.1 0.502742 0 0 0.502742 0 0.1 0.508045 0 0
0.508045 0 0.1 0.513403 0 0 0.513403 0 0.1 0.518817
0 0 0.518817 0 0.1 0.524288 0 0 0.524288 0
0.1 0.529816 0 0 0.529816 0 0.1 0.535401 0 0
0.535401 0 0.1 0.541045 0 0 0.541045 0 0.1 0.546748
0 0 0.546748 0 0.1 0.55251 0 0 0.55251 0
0.1 0.558332 0 0 0.558332 0 0.1 0.564215 0 0
0.564215 0 0.1 0.570159 0 0 0.570159 0 0.1 0.576165
0 0 0.576165 0 0.1 0.582234 0 0 0.582234 0
0.1 0.588366 0 0 0.588366 0 0.1 0.594562 0 0
0.594562 0 0.1 0.600822 0 0 0.600822 0 0.1 0.607148
0 0 0.607148 0 0.1 0.61354 0 0 0.61354 0
0.1 0.619999 0 0 0.619999 0 0.1 0.626525 0 0
0.626525 0 0.1 0.633119 0 0 0.633119 0 0.1 0.639782
0 0 0.639782 0 0.1 0.646514 0 0 0.646514 0
0.1 0.653316 0 0 0.653316 0 0.1 0.66019 0 0
0.66019 0 0.1 0.667135 0 0 0.667135 0 0.1 0.674152
0 0 0.674152 0 0.1 0.681243 0 0 0.681243 0
0.1 0.688408 0 0 0.688408 0 0.1 0.695647 0 0
0.695647 0 0.1 0.702962 0 0 0.702962 0 0.1 0.710353
0 0 0.710353 0 0.1 0.717821 0 0 0.717821 0
0.1 0.725367 0 0 0.725367 0 0.1 0.732992 0 0
0.732992 0 0.1 0.740697 0 0 0.740697 0 0.1 0.748481
0 0 0.748481 0 0.1 0.756347 0 0 0.756347 0
0.1 0.764295 0 0 0.764295 0 0.1 0.772326 0 0
0.772326 0 0.1 0.78044 0 0 0.78044 0 0.1 0.78864
0 0 0.78864 0 0.1 0.796924 0 0 0.796924 0
0.1 0.805295 0 0 0.805295 0 0.1 0.813754 0 0
0.813754 0 0.1 0.8223 0 0 0.8223 0 0.1 0.830936
0 0 0.830936 0 0.1 0.839662 0 0 0.839662 0
0.1 0.848479 0 0 0.848479 0 0.1 0.857387 0 0
0.857387 0 0.1 0.866389 0 0 0.866389 0 0.1 0.875485
0 0 0.875485 0 0.1 0.884675 0 0 0.884675 0
0.1 0.893961 0 0 0.893961 0 0.1 0.903344 0 0
0.903344 0 0.1 0.912825 0 0 0.912825 0 0.1 0.922405
0 0 0.922405 0 0.1 0.932085 0 0 0.932085 0
0.1 0.941865 0 0 0.941865 0 0.1 0.951748 0 0
0.951748 0 0.1 0.961734 0 0 0.961734 0 0.1 0.971824
0 0 0.971824 0 0.1 0.982019 0 0 0.982019 0
0.1 0.99232 0 0 0.99232 0 0.1 1.00273 0 0
1.00273 0 0.1 1.01325 0 0 1.01325 0 0.1 1.02387
0 0 1.02387 0 0.1 1.03461 0 0 1.03461 0
0.1 1.04546 0 0 1.04546 0 0.1 1.05642 0 0
1.05642 0 0.1 1.0675 0 0 1.0675 0 0.1 1.07869
0 0 1.07869 0 0.1 1.09 0 0 1.09 0
0.1 1.10143 0 0 1.10143 0 0.1 1.11298 0 0
1.11298 0 0.1 1.12465 0 0 1.12465 0 0.1 1.13644
0 0 1.13644 0 0.1 1.14835 0 0 1.14835 0
0.1 1.16038 0 0 1.16038 0 0.1 1.17254 0 0
1.17254 0 0.1 1.18483 0 0 1.18483 0 0.1 1.19725
0 0 1.19725 0 0.1 1.2098 0 0 1.2098 0
0.1 1.22247 0 0 1.22247 0 0.1 1.23528 0 0
1.23528 0 0.1 1.24822 0 0 1.24822 0 0.1 1.2613
0 0 1.2613 0 0.1 1.27452 0 0 1.27452 0
0.1 1.28787 0 0 1.28787 0 0.1 1.30136 0 0
1.30136 0 0.1 1.31499 0 0 1.31499 0 0.1 1.32877
0 0 1.32877 0 0.1 1.34268 0 0 1.34268 0
0.1 1.35675 0 0 1.35675 0 0.1 1.37095 0 0
1.37095 0 0.1 1.38531 0 0 1.38531 0 0.1 1.39982
0 0 1.39982 0 0.1 1.41448 0 0 1.41448 0
0.1 1.42929 0 0 1.42929 0 0.1 1.44426 0 0
1.44426 0 0.1 1.45938 0 0 1.45938 0 0.1 1.47466
0 0 1.47466 0 0.1 1.4901 0 0 1.4901 0
0.1 1.5057 0 0 1.5057 0 0.1 1.52146 0 0
1.52146 0 0.1 1.53739 0 0 1.53739 0 0.1 1.55348
0 0 1.55348 0 0.1 1.56974 0 0 1.56974 0
0.1 1.58617 0 0 1.58617 0 0.1 1.60278 0 0
1.60278 0 0.1 1.61955 0 0 1.61955 0 0.1 1.6365
0 0 1.6365 0 0.1 1.65363 0 0 1.65363 0
0.1 1.67093 0 0 1.67093 0 0.1 1.68842 0 0
1.68842 0 0.1 1.70609 0 0 1.70609 0 0.1 1.72394
0 0 1.72394 0 0.1 1.74198 0 0 1.74198 0
0.1 1.76021 0 0 1.76021 0 0.1 1.77862 0 0
1.77862 0 0.1 1.79723 0 0 1.79723 0 0.1 1.81604
0 0 1.81604 0 0.1 1.83504 0 0 1.83504 0
0.1 1.85423 0 0 1.85423 0 0.1 1.87363 0 0
1.87363 0 0.1 1.89323 0 0 1.89323 0 0.1 1.91304
0 0 1.91304 0 0.1 1.93305 0 0 1.93305 0
0.1 1.95327 0 0 1.95327 0 0.1 1.9737 0 0
1.9737 0 0.1 1.99434 0 0 1.99434 0 0.1 2.0152
0 0 2.0152 0 0.1 2.03628 0 0 2.03628 0
0.1 2.05757 0 0 2.05757 0 0.1 2.07909 0 0
2.07909 0 0.1 2.10083 0 0 2.10083 0 0.1 2.1228
0 0 2.1228 0 0.1 2.145 0 0 2.145 0
0.1 2.16743 0 0 2.16743 0 0.1 2.1901 0 0
2.1901 0 0.1 2.213 0 0 2.213 0 0.1 2.23614
0 0 2.23614 0 0.1 2.25952 0 0 2.25952 0
0.1 2.28314 0 0 2.28314 0 0.1 2.30701 0 0
2.30701 0 0.1 2.33113 0 0 2.33113 0 0.1 2.3555
0 0 2.3555 0 0.1 2.38013 0 0 2.38013 0
0.1 2.40501 0 0 2.40501 0 0.1 2.43015 0 0
2.43015 0 0.1 2.45556 0 0 2.45556 0 0.1 2.48122
0 0 2.48122 0 0.1 2.50716 0 0 2.50716 0
0.1 2.53337 0 0 2.53337 0 0.1 2.55985 0 0
2.55985 0 0.1 2.58661 0 0 2.58661 0 0.1 2.61364
0 0 2.61364 0 0.1 2.64096 0 0 2.64096 0
0.1 2.66856 0 0 2.66856 0 0.1 2.69645 0 0
2.69645 0 0.1 2.72463 0 0 2.72463 0 0.1 2.75311
0 0 2.75311 0 0.1 2.78188 0 0 2.78188 0
0.1 2.81095 0 0 2.81095 0 0.1 2.84033 0 0
2.84033 0 0.1 2.87001 0 0 2.87001 0 0.1 2.9
0 0 2.9 0 0.1 
POLYGONS 600 3000
4 0 1 2 3 4 1 4 5 2 4
4 6 7 5 4 6 8 9 7 4
8 10 11 9 4 10 12 13 11 4
12 14 15 13 4 14 16 17 15 4
16 18 19 17 4 18 20 21 19 4
20 22 23 21 4 22 24 25 23 4
24 26 27 25 4 26 28 29 27 4
28 30 31 29 4 30 32 33 31 4
32 34 35 33 4 34 36 37 35 4
36 38 39 37 4 38 40 41 39 4
40 42 43 41 4 42 44 45 43 4
44 46 47 45 4 46 48 49 47 4
48 50 51 49 4 50 52 53 51 4
52 54 55 53 4 54 56 57 55 4
56 58 59 57 4 58 60 61 59 4
60 62 63 61 4 62 64 65 63 4
64 66 67 65 4 66 68 69 67 4
68 70 71 69 4 70 72 73 71 4
72 74 75 73 4 74 76 77 75 4
76 78 79 77 4 78 80 81 79 4
80 82 83 81 4 82 84 85 83 4
84 86 87 85 4 86 88 89 87 4
88 90 91 89 4 90 92 93 91 4
92 94 95 93 4 94 96 97 95 4
96 98 99 97 4 98 100 101 99 4
100 102 103 101 4 102 104 105 103 4
104 106 107 105 4 106 108 109 107 4
108 110 111 109 4 110 112 113 111 4
112 114 115 113 4 114 116 117 115 4
116 118 119 117 4 118 120 121 119 4
120 122 123 121 4 122 124 125 123 4
124 126 127 125 4 126 128 129 127 4
128 130 131 129 4 130 132 133 131 4
132 134 135 133 4 134 136 137 135 4
136 138 139 137 4 138 140 141 139 4
140 142 143 141 4 142 144 145 143 4
144 146 147 145 4 146 148 149 147 4
148 150 151 149 4 150 152 153 151 4
152 154 155 153 4 154 156 157 155 4
156 158 159 157 4 158 160 161 159 4
160 162 163 161 4 162 164 165 163 4
164 166 167 165 4 166 168 169 167 4
168 170 171 169 4 170 172 173 171 4
172 174 175 173 4 174 176 177 175 4
176 178 179 177 4 178 180 181 179 4
180 182 183 181 4 182 184 185 183 4
184 186 187 185 4 186 188 189 187 4
188 190 191 189 4 190 192 193 191 4
192 194 195 193 4 194 196 197 195 4
196 198 199 197 4 198 200 201 199 4
200 202 203 201 4 202 204 205 203 4
204 206 207 205 4 206 208 209 207 4
208 210 211 209 4 210 212 213 211 4
212 214 215 213 4 214 216 217 215 4
216 218 219 217 4 218 220 221 219 4
220 222 223 221 4 222 224 225 223 4
224 226 227 225 4 226 228 229 227 4
228 230 231 229 4 230 232 233 231 4
232 234 235 233 4 234 236 237 235 4
236 238 239 237 4 238 240 241 239 4
240 242 243 241 4 242 244 245 243 4
244 246 247 245 4 246 248 249 247 4
248 250 251 249 4 250 252 253 251 4
252 254 255 253 4 254 256 257 255 4
256 258 259 257 4 258 260 261 259 4
260 262 263 261 4 262 264 265 263 4
264 266 267 265 4 266 268 269 267 4
268 270 271 269 4 270 272 273 271 4
272 274 275 273 4 274 276 277 275 4
276 278 279 277 4 278 280 281 279 4
280 282 283 281 4 282 284 285 283 4
284 286 287 285 4 286 288 289 287 4
288 290 291 289 4 290 292 293 291 4
292 294 295 293 4 294 296 297 295 4
296 298 299 297 4 298 300 301 299 4
300 302 303 301 4 302 304 305 303 4
304 306 307 305 4 306 308 309 307 4
308 310 311 309 4 310 312 313 311 4
312 314 315 313 4 314 316 317 315 4
316 318 319 317 4 318 320 321 319 4
320 322 323 321 4 322 324 325 323 4
324 326 327 325 4 326 328 329 327 4
328 330 331 329 4 330 332 333 331 4
332 334 335 333 4 334 336 337 335 4
336 338 339 337 4 338 340 341 339 4
340 342 343 341 4 342 344 345 343 4
344 346 347 345 4 346 348 349 347 4
348 350 351 349 4 350 352 353 351 4
352 354 355 353 4 354 356 357 355 4
356 358 359 357 4 358 360 361 359 4
360 362 363 361 4 362 364 365 363 4
364 366 367 365 4 366 368 369 367 4
368 370 371 369 4 370 372 373 371 4
372 374 375 373 4 374 376 377 375 4
376 378 379 377 4 378 380 381 379 4
380 382 383 381 4 382 384 385 383 4
384 386 387 385 4 386 388 389 387 4
388 390 391 389 4 390 392 393 391 4
392 394 395 393 4 394 396 397 395 4
396 398 399 397 4 398 400 401 399 4
400 402 403 401 4 402 404 405 403 4
404 406 407 405 4 406 408 409 407 4
408 410 411 409 4 410 412 413 411 4
412 414 415 413 4 414 416 417 415 4
416 418 419 417 4 418 420 421 419 4
420 422 423 421 4 422 424 425 423 4
424 426 427 425 4 426 428 429 427 4
428 430 431 429 4 430 432 433 431 4
432 434 435 433 4 434 436 437 435 4
436 438 439 437 4 438 440 441 439 4
440 442 443 441 4 442 444 445 443 4
444 446 447 445 4 446 448 449 447 4
448 450 451 449 4 450 452 453 451 4
452 454 455 453 4 454 456 457 455 4
456 458 459 457 4 458 460 461 459 4
460 462 463 461 4 462 464 465 463 4
464 466 467 465 4 466 468 469 467 4
468 470 471 469 4 470 472 473 471 4
472 474 475 473 4 474 476 477 475 4
476 478 479 477 4 478 480 481 479 4
480 482 483 481 4 482 484 485 483 4
484 486 487 485 4 486 488 489 487 4
488 490 491 489 4 490 492 493 491 4
492 494 495 493 4 494 496 497 495 4
496 498 499 497 4 498 500 501 499 4
500 502 503 501 4 502 504 505 503 4
504 506 507 505 4 506 508 509 507 4
508 510 511 509 4 510 512 513 511 4
512 514 515 513 4 514 516 517 515 4
516 518 519 517 4 518 520 521 519 4
520 522 523 521 4 522 524 525 523 4
524 526 527 525 4 526 528 529 527 4
528 530 531 529 4 530 532 533 531 4
532 534 535 533 4 534 536 537 535 4
536 538 539 537 4 538 540 541 539 4
540 542 543 541 4 542 544 545 543 4
544 546 547 545 4 546 548 549 547 4
548 550 551 549 4 550 552 553 551 4
552 554 555 553 4 554 556 557 555 4
556 558 559 557 4 558 560 561 559 4
560 562 563 561 4 562 564 565 563 4
564 566 567 565 4 566 568 569 567 4
568 570 571 569 4 570 572 573 571 4
572 574 575 573 4 574 576 577 575 4
576 578 579 577 4 578 580 581 579 4
580 582 583 581 4 582 584 585 583 4
584 586 587 585 4 586 588 589 587 4
588 590 591 589 4 590 592 593 591 4
592 594 595 593 4 594 596 597 595 4
596 598 599 597 4 598 600 601 599 4
600 602 603 601 4 602 604 605 603 4
604 606 607 605 4 606 608 609 607 4
608 610 611 609 4 610 612 613 611 4
612 614 615 613 4 614 616 617 615 4
616 618 619 617 4 618 620 621 619 4
620 622 623 621 4 622 624 625 623 4
624 626 627 625 4 626 628 629 627 4
628 630 631 629 4 630 632 633 631 4
632 634 635 633 4 634 636 637 635 4
636 638 639 637 4 638 640 641 639 4
640 642 643 641 4 642 644 645 643 4
644 646 647 645 4 646 648 649 647 4
648 650 651 649 4 650 652 653 651 4
652 654 655 653 4 654 656 657 655 4
656 658 659 657 4 658 660 661 659 4
660 662 663 661 4 662 664 665 663 4
664 666 667 665 4 666 668 669 667 4
668 670 671 669 4 670 672 673 671 4
672 674 675 673 4 674 676 677 675 4
676 678 679 677 4 678 680 681 679 4
680 682 683 681 4 682 684 685 683 4
684 686 687 685 4 686 688 689 687 4
688 690 691 689 4 690 692 693 691 4
692 694 695 693 4 694 696 697 695 4
696 698 699 697 4 698 700 701 699 4
700 702 703 701 4 702 704 705 703 4
704 706 707 705 4 706 708 709 707 4
708 710 711 709 4 710 712 713 711 4
712 714 715 713 4 714 716 717 715 4
716 718 719 717 4 718 720 721 719 4
720 722 723 721 4 722 724 725 723 4
724 726 727 725 4 726 728 729 727 4
728 730 731 729 4 730 732 733 731 4
732 734 735 733 4 734 736 737 735 4
736 738 739 737 4 738 740 741 739 4
740 742 743 741 4 742 744 745 743 4
744 746 747 745 4 746 748 749 747 4
748 750 751 749 4 750 752 753 751 4
752 754 755 753 4 754 756 757 755 4
756 758 759 757 4 758 760 761 759 4
760 762 763 761 4 762 764 765 763 4
764 766 767 765 4 766 768 769 767 4
768 770 771 769 4 770 772 773 771 4
772 774 775 773 4 774 776 777 775 4
776 778 779 777 4 778 780 781 779 4
780 782 783 781 4 782 784 785 783 4
784 786 787 785 4 786 788 789 787 4
788 790 791 789 4 790 792 793 791 4
792 794 795 793 4 794 796 797 795 4
796 798 799 797 4 798 800 801 799 4
800 802 803 801 4 802 804 805 803 4
804 806 807 805 4 806 808 809 807 4
808 810 811 809 4 810 812 813 811 4
812 814 815 813 4 814 816 817 815 4
816 818 819 817 4 818 820 821 819 4
820 822 823 821 4 822 824 825 823 4
824 826 827 825 4 826 828 829 827 4
828 830 831 829 4 830 832 833 831 4
832 834 835 833 4 834 836 837 835 4
836 838 839 837 4 838 840 841 839 4
840 842 843 841 4 842 844 845 843 4
844 846 847 845 4 846 848 849 847 4
848 850 851 849 4 850 852 853 851 4
852 854 855 853 4 854 856 857 855 4
856 858 859 857 4 858 860 861 859 4
860 862 863 861 4 862 864 865 863 4
864 866 867 865 4 866 868 869 867 4
868 870 871 869 4 870 872 873 871 4
872 874 875 873 4 874 876 877 875 4
876 878 879 877 4 878 880 881 879 4
880 882 883 881 4 882 884 885 883 4
884 886 887 885 4 886 888 889 887 4
888 890 891 889 4 890 892 893 891 4
892 894 895 893 4 894 896 897 895 4
896 898 899 897 4 898 900 901 899 4
900 902 903 901 4 902 904 905 903 4
904 906 907 905 4 906 908 909 907 4
908 910 911 909 4 910 912 913 911 4
912 914 915 913 4 914 916 917 915 4
916 918 919 917 4 918 920 921 919 4
920 922 923 921 4 922 924 925 923 4
924 926 927 925 4 926 928 929 927 4
928 930 931 929 4 930 932 933 931 4
932 934 935 933 4 934 936 937 935 4
936 938 939 937 4 938 940 941 939 4
940 942 943 941 4 942 944 945 943 4
944 946 947 945 4 946 948 949 947 4
948 950 951 949 4 950 952 953 951 4
952 954 955 953 4 954 956 957 955 4
956 958 959 957 4 958 960 961 959 4
960 962 963 961 4 962 964 965 963 4
964 966 967 965 4 966 968 969 967 4
968 970 971 969 4 970 972 973 971 4
972 974 975 973 4 974 976 977 975 4
976 978 979 977 4 978 980 981 979 4
980 982 983 981 4 982 984 985 983 4
984 986 987 985 4 986 988 989 987 4
988 990 991 989 4 990 992 993 991 4
992 994 995 993 4 994 996 997 995 4
996 998 999 997 4 998 1000 1001 999 4
1000 1002 1003 1001 4 1002 1004 1005 1003 4
1004 1006 1007 1005 4 1006 1008 1009 1007 4
1008 1010 1011 1009 4 1010 1012 1013 1011 4
1012 1014 1015 1013 4 1014 1016 1017 1015 4
1016 1018 1019 1017 4 1018 1020 1021 1019 4
1020 1022 1023 1021 4 1022 1024 1025 1023 4
1024 1026 1027 1025 4 1026 1028 1029 1027 4
1028 1030 1031 1029 4 1030 1032 1033 1031 4
1032 1034 1035 1033 4 1034 1036 1037 1035 4
1036 1038 1039 1037 4 1038 1040 1041 1039 4
1040 1042 1043 1041 4 1042 1044 1045 1043 4
1044 1046 1047 1045 4 1046 1048 1049 1047 4
1048 1050 1051 1049 4 1050 1052 1053 1051 4
1052 1054 1055 1053 4 1054 1056 1057 1055 4
1056 1058 1059 1057 4 1058 1060 1061 1059 4
1060 1062 1063 1061 4 1062 1064 1065 1063 4
1064 1066 1067 1065 4 1066 1068 1069 1067 4
1068 1070 1071 1069 4 1070 1072 1073 1071 4
1072 1074 1075 1073 4 1074 1076 1077 1075 4
1076 1078 1079 1077 4 1078 1080 1081 1079 4
1080 1082 1083 1081 4 1082 1084 1085 1083 4
1084 1086 1087 1085 4 1086 1088 1089 1087 4
1088 1090 1091 1089 4 1090 1092 1093 1091 4
1092 1094 1095 1093 4 1094 1096 1097 1095 4
1096 1098 1099 1097 4 1098 1100 1101 1099 4
1100 1102 1103 1101 4 1102 1104 1105 1103 4
1104 1106 1107 1105 4 1106 1108 1109 1107 4
1108 1110 1111 1109 4 1110 1112 1113 1111 4
1112 1114 1115 1113 4 1114 1116 1117 1115 4
1116 1118 1119 1117 4 1118 1120 1121 1119 4
1120 1122 1123 1121 4 1122 1124 1125 1123 4
1124 1126 1127 1125 4 1126 1128 1129 1127 4
1128 1130 1131 1129 4 1130 1132 1133 1131 4
1132 1134 1135 1133 4 1134 1136 1137 1135 4
1136 1138 1139 1137 4 1138 1140 1141 1139 4
1140 1142 1143 1141 4 1142 1144 1145 1143 4
1144 1146 1147 1145 4 1146 1148 1149 1147 4
1148 1150 1151 1149 4 1150 1152 1153 1151 4
1152 1154 1155 1153 4 1154 1156 1157 1155 4
1156 1158 1159 1157 4 1158 1160 1161 1159 4
1160 1162 1163 1161 4 1162 1164 1165 1163 4
1164 1166 1167 1165 4 1166 1168 1169 1167 4
1168 1170 1171 1169 4 1170 1172 1173 1171 4
1172 1174 1175 1173 4 1174 1176 1177 1175 4
1176 1178 1179 1177 4 1178 1180 1181 1179 4
1180 1182 1183 1181 4 1182 1184 1185 1183 4
1184 1186 1187 1185 4 1186 1188 1189 1187 4
1188 1190 1191 1189 4 1190 1192 1193 1191 4
1192 1194 1195 1193 4 1194 1196 1197 1195 4
1196 1198 1199 1197 4 1198 1200 1201 1199 
POINT_DATA 1202
FIELD attributes 1
U 3 1202 float
1.5454 0.0341394 0 0.86942 0.0236304 0 0.86942 0.0236304 0 1.5454 0.0341394
0 0.166204 0.00855821 0 0.166204 0.00855821 0 0.122271 0.00258394 0
0.122271 0.00258394 0 0.0963057 0.000772459 0 0.0963057 0.000772459 0 0.0817747
0.000279013 0 0.0817747 0.000279013 0 0.0730186 0.000175061 0 0.0730186 0.000175061
0 0.0668817 0.000157926 0 0.0668817 0.000157926 0 0.0621091 0.000141622 0
0.0621091 0.000141622 0 0.0582291 0.000120685 0 0.0582291 0.000120685 0 0.0550073
0.000100824 0 0.0550073 0.000100824 0 0.0522776 8.58233e-05 0 0.0522776 8.58233e-05
0 0.0499152 7.5573e-05 0 0.0499152 7.5573e-05 0 0.0478317 6.76739e-05 0
0.0478317 6.76739e-05 0 0.0459693 6.11037e-05 0 0.0459693 6.11037e-05 0 0.044289
5.5477e-05 0 0.044289 5.5477e-05 0 0.0427619 5.05769e-05 0 0.0427619 5.05769e-05
0 0.041366 4.62637e-05 0 0.041366 4.62637e-05 0 0.040084 4.24431e-05 0
0.040084 4.24431e-05 0 0.0389016 3.90454e-05 0 0.0389016 3.90454e-05 0 0.0378069
3.60145e-05 0 0.0378069 3.60145e-05 0 0.0367901 3.33035e-05 0 0.0367901 3.33035e-05
0 0.0358425 3.0873e-05 0 0.0358425 3.0873e-05 0 0.0349569 2.86888e-05 0
0.0349569 2.86888e-05 0 0.0341268 2.67214e-05 0 0.0341268 2.67214e-05 0 0.0333469
2.49448e-05 0 0.0333469 2.49448e-05 0 0.0326122 2.33367e-05 0 0.0326122 2.33367e-05
0 0.0319186 2.18774e-05 0 0.0319186 2.18774e-05 0 0.0312623 2.055e-05 0
0.0312623 2.055e-05 0 0.0306401 1.93392e-05 0 0.0306401 1.93392e-05 0 0.030049
1.82325e-05 0 0.030049 1.82325e-05 0 0.0294864 1.72182e-05 0 0.0294864 1.72182e-05
0 0.0289502 1.62863e-05 0 0.0289502 1.62863e-05 0 0.0284381 1.54297e-05 0
0.0284381 1.54297e-05 0 0.0279483 1.46375e-05 0 0.0279483 1.46375e-05 0 0.0274792
1.39131e-05 0 0.0274792 1.39131e-05 0 0.0270293 1.32328e-05 0 0.0270293 1.32328e-05
0 0.026597 1.26297e-05 0 0.026597 1.26297e-05 0 0.0261809 1.2026e-05 0
0.0261809 1.2026e-05 0 0.0257815 1.12952e-05 0 0.0257815 1.12952e-05 0 0.0253976
1.068e-05 0 0.0253976 1.068e-05 0 0.0250263 1.03006e-05 0 0.0250263 1.03006e-05
0 0.0246652 9.9857e-06 0 0.0246652 9.9857e-06 0 0.0243137 9.66255e-06 0
0.0243137 9.66255e-06 0 0.023972 9.32831e-06 0 0.023972 9.32831e-06 0 0.0236399
8.98882e-06 0 0.0236399 8.98882e-06 0 0.0233175 8.65046e-06 0 0.0233175 8.65046e-06
0 0.0230046 8.31832e-06 0 0.0230046 8.31832e-06 0 0.0227011 7.99575e-06 0
0.0227011 7.99575e-06 0 0.0224065 7.68468e-06 0 0.0224065 7.68468e-06 0 0.0221207
7.38617e-06 0 0.0221207 7.38617e-06 0 0.0218433 7.10064e-06 0 0.0218433 7.10064e-06
0 0.0215739 6.82816e-06 0 0.0215739 6.82816e-06 0 0.0213122 6.56848e-06 0
0.0213122 6.56848e-06 0 0.0210578 6.32125e-06 0 0.0210578 6.32125e-06 0 0.0208106
6.08597e-06 0 0.0208106 6.08597e-06 0 0.0205701 5.86214e-06 0 0.0205701 5.86214e-06
0 0.020336 5.64918e-06 0 0.020336 5.64918e-06 0 0.0201081 5.44655e-06 0
0.0201081 5.44655e-06 0 0.0198861 5.25368e-06 0 0.0198861 5.25368e-06 0 0.0196698
5.07005e-06 0 0.0196698 5.07005e-06 0 0.0194588 4.89512e-06 0 0.0194588 4.89512e-06
0 0.019253 4.72844e-06 0 0.019253 4.72844e-06 0 0.0190522 4.56946e-06 0
0.0190522 4.56946e-06 0 0.0188562 4.41784e-06 0 0.0188562 4.41784e-06 0 0.0186646
4.27306e-06 0 0.0186646 4.27306e-06 0 0.0184775 4.13486e-06 0 0.0184775 4.13486e-06
0 0.0182946 4.0027e-06 0 0.0182946 4.0027e-06 0 0.0181156 3.87646e-06 0
0.0181156 3.87646e-06 0 0.0179406 3.75556e-06 0 0.0179406 3.75556e-06 0 0.0177692
3.64004e-06 0 0.0177692 3.64004e-06 0 0.0176014 3.52926e-06 0 0.0176014 3.52926e-06
0 0.0174371 3.42335e-06 0 0.0174371 3.42335e-06 0 0.0172761 3.32191e-06 0
0.0172761 3.32191e-06 0 0.0171182 3.2244e-06 0 0.0171182 3.2244e-06 0 0.0169634
3.13304e-06 0 0.0169634 3.13304e-06 0 0.0168115 3.04145e-06 0 0.0168115 3.04145e-06
0 0.0166623 2.96665e-06 0 0.0166623 2.96665e-06 0 0.0165158 2.87417e-06 0
0.0165158 2.87417e-06 0 0.0163726 2.74488e-06 0 0.0163726 2.74488e-06 0 0.0162322
2.66889e-06 0 0.0162322 2.66889e-06 0 0.0160932 2.6407e-06 0 0.0160932 2.6407e-06
0 0.0159551 2.60298e-06 0 0.0159551 2.60298e-06 0 0.0158184 2.55585e-06 0
0.0158184 2.55585e-06 0 0.0156833 2.50148e-06 0 0.0156833 2.50148e-06 0 0.0155501
2.44276e-06 0 0.0155501 2.44276e-06 0 0.0154188 2.38196e-06 0 0.0154188 2.38196e-06
0 0.0152896 2.32054e-06 0 0.0152896 2.32054e-06 0 0.0151625 2.25942e-06 0
0.0151625 2.25942e-06 0 0.0150374 2.19919e-06 0 0.0150374 2.19919e-06 0 0.0149145
2.1402e-06 0 0.0149145 2.1402e-06 0 0.0147936 2.08268e-06 0 0.0147936 2.08268e-06
0 0.0146747 2.02674e-06 0 0.0146747 2.02674e-06 0 0.0145578 1.97245e-06 0
0.0145578 1.97245e-06 0 0.0144428 1.91982e-06 0 0.0144428 1.91982e-06 0 0.0143297
1.86886e-06 0 0.0143297 1.86886e-06 0 0.0142184 1.81955e-06 0 0.0142184 1.81955e-06
0 0.0141089 1.77183e-06 0 0.0141089 1.77183e-06 0 0.0140012 1.72567e-06 0
0.0140012 1.72567e-06 0 0.0138951 1.68101e-06 0 0.0138951 1.68101e-06 0 0.0137907
1.63783e-06 0 0.0137907 1.63783e-06 0 0.0136879 1.59604e-06 0 0.0136879 1.59604e-06
0 0.0135867 1.55561e-06 0 0.0135867 1.55561e-06 0 0.013487 1.51647e-06 0
0.013487 1.51647e-06 0 0.0133887 1.4786e-06 0 0.0133887 1.4786e-06 0 0.0132919
1.44191e-06 0 0.0132919 1.44191e-06 0 0.0131966 1.4064e-06 0 0.0131966 1.4064e-06
0 0.0131025 1.37196e-06 0 0.0131025 1.37196e-06 0 0.0130099 1.33863e-06 0
0.0130099 1.33863e-06 0 0.0129185 1.30627e-06 0 0.0129185 1.30627e-06 0 0.0128284
1.27498e-06 0 0.0128284 1.27498e-06 0 0.0127395 1.24455e-06 0 0.0127395 1.24455e-06
0 0.0126519 1.21515e-06 0 0.0126519 1.21515e-06 0 0.0125654 1.18658e-06 0
0.0125654 1.18658e-06 0 0.0124801 1.15888e-06 0 0.0124801 1.15888e-06 0 0.0123959
1.1325e-06 0 0.0123959 1.1325e-06 0 0.0123128 1.1058e-06 0 0.0123128 1.1058e-06
0 0.0122307 1.08431e-06 0 0.0122307 1.08431e-06 0 0.0121495 1.05727e-06 0
0.0121495 1.05727e-06 0 0.0120699 1.01887e-06 0 0.0120699 1.01887e-06 0 0.0119912
9.96716e-07 0 0.0119912 9.96716e-07 0 0.0119128 9.91501e-07 0 0.0119128 9.91501e-07
0 0.0118344 9.84188e-07 0 0.0118344 9.84188e-07 0 0.0117563 9.71713e-07 0
0.0117563 9.71713e-07 0 0.0116786 9.55454e-07 0 0.0116786 9.55454e-07 0 0.0116017
9.36915e-07 0 0.0116017 9.36915e-07 0 0.0115256 9.17177e-07 0 0.0115256 9.17177e-07
0 0.0114504 8.96905e-07 0 0.0114504 8.96905e-07 0 0.0113761 8.76506e-07 0
0.0113761 8.76506e-07 0 0.0113027 8.5623e-07 0 0.0113027 8.5623e-07 0 0.0112303
8.36231e-07 0 0.0112303 8.36231e-07 0 0.0111589 8.16602e-07 0 0.0111589 8.16602e-07
0 0.0110884 7.97402e-07 0 0.0110884 7.97402e-07 0 0.0110188 7.78664e-07 0
0.0110188 7.78664e-07 0 0.0109501 7.60407e-07 0 0.0109501 7.60407e-07 0 0.0108824
7.42637e-07 0 0.0108824 7.42637e-07 0 0.0108155 7.25358e-07 0 0.0108155 7.25358e-07
0 0.0107494 7.08561e-07 0 0.0107494 7.08561e-07 0 0.0106842 6.92244e-07 0
0.0106842 6.92244e-07 0 0.0106199 6.76393e-07 0 0.0106199 6.76393e-07 0 0.0105563
6.61003e-07 0 0.0105563 6.61003e-07 0 0.0104935 6.46055e-07 0 0.0104935 6.46055e-07
0 0.0104315 6.31545e-07 0 0.0104315 6.31545e-07 0 0.0103702 6.17452e-07 0
0.0103702 6.17452e-07 0 0.0103096 6.03774e-07 0 0.0103096 6.03774e-07 0 0.0102498
5.90483e-07 0 0.0102498 5.90483e-07 0 0.0101906 5.77592e-07 0 0.0101906 5.77592e-07
0 0.0101322 5.65056e-07 0 0.0101322 5.65056e-07 0 0.0100744 5.52906e-07 0
0.0100744 5.52906e-07 0 0.0100172 5.41081e-07 0 0.0100172 5.41081e-07 0 0.00996067
5.29638e-07 0 0.00996067 5.29638e-07 0 0.00990474 5.18496e-07 0 0.00990474 5.18496e-07
0 0.00984942 5.07713e-07 0 0.00984942 5.07713e-07 0 0.00979465 4.97347e-07 0
0.00979465 4.97347e-07 0 0.00974049 4.87015e-07 0 0.00974049 4.87015e-07 0 0.00968678
4.78517e-07 0 0.00968678 4.78517e-07 0 0.0096336 4.67741e-07 0 0.0096336 4.67741e-07
0 0.00958124 4.52954e-07 0 0.00958124 4.52954e-07 0 0.00952937 4.44955e-07 0
0.00952937 4.44955e-07 0 0.00947739 4.44607e-07 0 0.00947739 4.44607e-07 0 0.00942512
4.43369e-07 0 0.00942512 4.43369e-07 0 0.00937281 4.39075e-07 0 0.00937281 4.39075e-07
0 0.0093207 4.3278e-07 0 0.0093207 4.3278e-07 0 0.00926894 4.25307e-07 0
0.00926894 4.25307e-07 0 0.00921761 4.17239e-07 0 0.00921761 4.17239e-07 0 0.00916677
4.08898e-07 0 0.00916677 4.08898e-07 0 0.00911644 4.00479e-07 0 0.00911644 4.00479e-07
0 0.00906665 3.92092e-07 0 0.00906665 3.92092e-07 0 0.00901739 3.83803e-07 0
0.00901739 3.83803e-07 0 0.00896867 3.7565e-07 0 0.00896867 3.7565e-07 0 0.00892048
3.67658e-07 0 0.00892048 3.67658e-07 0 0.00887282 3.59837e-07 0 0.00887282 3.59837e-07
0 0.00882568 3.52196e-07 0 0.00882568 3.52196e-07 0 0.00877905 3.44734e-07 0
0.00877905 3.44734e-07 0 0.00873293 3.37455e-07 0 0.00873293 3.37455e-07 0 0.00868731
3.30351e-07 0 0.00868731 3.30351e-07 0 0.00864217 3.23428e-07 0 0.00864217 3.23428e-07
0 0.00859751 3.16672e-07 0 0.00859751 3.16672e-07 0 0.00855332 3.10093e-07 0
0.00855332 3.10093e-07 0 0.00850959 3.0367e-07 0 0.00850959 3.0367e-07 0 0.00846631
2.97422e-07 0 0.00846631 2.97422e-07 0 0.00842348 2.91317e-07 0 0.00842348 2.91317e-07
0 0.00838108 2.85388e-07 0 0.00838108 2.85388e-07 0 0.0083391 2.79587e-07 0
0.0083391 2.79587e-07 0 0.00829754 2.73969e-07 0 0.00829754 2.73969e-07 0 0.00825638
2.68457e-07 0 0.00825638 2.68457e-07 0 0.00821563 2.63146e-07 0 0.00821563 2.63146e-07
0 0.00817526 2.57912e-07 0 0.00817526 2.57912e-07 0 0.00813527 2.52909e-07 0
0.00813527 2.52909e-07 0 0.00809563 2.48005e-07 0 0.00809563 2.48005e-07 0 0.00805641
2.43209e-07 0 0.00805641 2.43209e-07 0 0.00801738 2.39489e-07 0 0.00801738 2.39489e-07
0 0.00797883 2.32903e-07 0 0.00797883 2.32903e-07 0 0.00794089 2.26198e-07 0
0.00794089 2.26198e-07 0 0.00790289 2.25992e-07 0 0.00790289 2.25992e-07 0 0.00786448
2.27174e-07 0 0.00786448 2.27174e-07 0 0.00782582 2.25853e-07 0 0.00782582 2.25853e-07
0 0.0077872 2.23152e-07 0 0.0077872 2.23152e-07 0 0.00774878 2.19549e-07 0
0.00774878 2.19549e-07 0 0.00771065 2.1554e-07 0 0.00771065 2.1554e-07 0 0.00767285
2.11331e-07 0 0.00767285 2.11331e-07 0 0.00763543 2.07057e-07 0 0.00763543 2.07057e-07
0 0.00759838 2.02786e-07 0 0.00759838 2.02786e-07 0 0.00756172 1.98563e-07 0
0.00756172 1.98563e-07 0 0.00752544 1.94407e-07 0 0.00752544 1.94407e-07 0 0.00748955
1.90338e-07 0 0.00748955 1.90338e-07 0 0.00745403 1.86359e-07 0 0.00745403 1.86359e-07
0 0.00741889 1.82479e-07 0 0.00741889 1.82479e-07 0 0.00738412 1.78697e-07 0
0.00738412 1.78697e-07 0 0.0073497 1.75016e-07 0 0.0073497 1.75016e-07 0 0.00731563
1.71437e-07 0 0.00731563 1.71437e-07 0 0.00728191 1.67957e-07 0 0.00728191 1.67957e-07
0 0.00724852 1.64576e-07 0 0.00724852 1.64576e-07 0 0.00721545 1.61292e-07 0
0.00721545 1.61292e-07 0 0.0071827 1.58097e-07 0 0.0071827 1.58097e-07 0 0.00715027
1.55e-07 0 0.00715027 1.55e-07 0 0.00711813 1.51974e-07 0 0.00711813 1.51974e-07
0 0.00708629 1.49046e-07 0 0.00708629 1.49046e-07 0 0.00705475 1.4617e-07 0
0.00705475 1.4617e-07 0 0.00702348 1.43393e-07 0 0.00702348 1.43393e-07 0 0.0069925
1.40646e-07 0 0.0069925 1.40646e-07 0 0.0069618 1.38007e-07 0 0.0069618 1.38007e-07
0 0.00693135 1.35391e-07 0 0.00693135 1.35391e-07 0 0.00690121 1.32847e-07 0
0.00690121 1.32847e-07 0 0.00687122 1.30762e-07 0 0.00687122 1.30762e-07 0 0.00684158
1.27369e-07 0 0.00684158 1.27369e-07 0 0.00681241 1.24037e-07 0 0.00681241 1.24037e-07
0 0.00678316 1.2387e-07 0 0.00678316 1.2387e-07 0 0.00675353 1.24642e-07 0
0.00675353 1.24642e-07 0 0.00672365 1.24165e-07 0 0.00672365 1.24165e-07 0 0.00669376
1.22715e-07 0 0.00669376 1.22715e-07 0 0.00666402 1.20722e-07 0 0.00666402 1.20722e-07
0 0.0066345 1.18494e-07 0 0.0066345 1.18494e-07 0 0.00660525 1.16163e-07 0
0.00660525 1.16163e-07 0 0.00657627 1.13833e-07 0 0.00657627 1.13833e-07 0 0.00654758
1.11517e-07 0 0.00654758 1.11517e-07 0 0.00651917 1.09252e-07 0 0.00651917 1.09252e-07
0 0.00649104 1.07042e-07 0 0.00649104 1.07042e-07 0 0.00646319 1.04874e-07 0
0.00646319 1.04874e-07 0 0.00643562 1.02769e-07 0 0.00643562 1.02769e-07 0 0.00640832
1.00697e-07 0 0.00640832 1.00697e-07 0 0.0063813 9.8666e-08 0 0.0063813 9.8666e-08
0 0.00635454 9.66764e-08 0 0.00635454 9.66764e-08 0 0.00632806 9.47039e-08 0
0.00632806 9.47039e-08 0 0.00630185 9.27749e-08 0 0.00630185 9.27749e-08 0 0.0062759
9.0867e-08 0 0.0062759 9.0867e-08 0 0.00625023 8.89894e-08 0 0.00625023 8.89894e-08
0 0.00622482 8.71575e-08 0 0.00622482 8.71575e-08 0 0.00619967 8.53557e-08 0
0.00619967 8.53557e-08 0 0.00617477 8.36061e-08 0 0.00617477 8.36061e-08 0 0.00615013
8.19182e-08 0 0.00615013 8.19182e-08 0 0.00612572 8.02686e-08 0 0.00612572 8.02686e-08
0 0.00610154 7.87138e-08 0 0.00610154 7.87138e-08 0 0.00607757 7.71984e-08 0
0.00607757 7.71984e-08 0 0.00605382 7.57683e-08 0 0.00605382 7.57683e-08 0 0.00603021
7.45451e-08 0 0.00603021 7.45451e-08 0 0.00600682 7.28426e-08 0 0.00600682 7.28426e-08
0 0.00598376 7.11813e-08 0 0.00598376 7.11813e-08 0 0.00596063 7.10731e-08 0
0.00596063 7.10731e-08 0 0.00593712 7.17285e-08 0 0.00593712 7.17285e-08 0 0.00591333
7.17187e-08 0 0.00591333 7.17187e-08 0 0.00588948 7.09597e-08 0 0.00588948 7.09597e-08
0 0.00586576 6.97948e-08 0 0.00586576 6.97948e-08 0 0.00584223 6.8458e-08 0
0.00584223 6.8458e-08 0 0.00581894 6.70098e-08 0 0.00581894 6.70098e-08 0 0.00579592
6.55276e-08 0 0.00579592 6.55276e-08 0 0.00577317 6.40648e-08 0 0.00577317 6.40648e-08
0 0.0057507 6.25867e-08 0 0.0057507 6.25867e-08 0 0.00572851 6.11586e-08 0
0.00572851 6.11586e-08 0 0.00570658 5.97829e-08 0 0.00570658 5.97829e-08 0 0.00568492
5.8416e-08 0 0.00568492 5.8416e-08 0 0.00566352 5.71316e-08 0 0.00566352 5.71316e-08
0 0.00564236 5.58885e-08 0 0.00564236 5.58885e-08 0 0.00562145 5.46512e-08 0
0.00562145 5.46512e-08 0 0.00560076 5.34997e-08 0 0.00560076 5.34997e-08 0 0.00558031
5.23502e-08 0 0.00558031 5.23502e-08 0 0.00556009 5.12066e-08 0 0.00556009 5.12066e-08
0 0.0055401 5.0134e-08 0 0.0055401 5.0134e-08 0 0.00552033 4.90441e-08 0
0.00552033 4.90441e-08 0 0.00550079 4.79588e-08 0 0.00550079 4.79588e-08 0 0.00548148
4.69544e-08 0 0.00548148 4.69544e-08 0 0.0054624 4.58982e-08 0 0.0054624 4.58982e-08
0 0.00544355 4.48883e-08 0 0.00544355 4.48883e-08 0 0.00542492 4.3892e-08 0
0.00542492 4.3892e-08 0 0.00540656 4.29128e-08 0 0.00540656 4.29128e-08 0 0.00538836
4.19609e-08 0 0.00538836 4.19609e-08 0 0.00537056 4.05675e-08 0 0.00537056 4.05675e-08
0 0.00535309 3.96559e-08 0 0.00535309 3.96559e-08 0 0.00533546 3.98243e-08 0
0.00533546 3.98243e-08 0 0.00531762 3.98392e-08 0 0.00531762 3.98392e-08 0 0.00529981
3.91614e-08 0 0.00529981 3.91614e-08 0 0.00528224 3.81441e-08 0 0.00528224 3.81441e-08
0 0.00526499 3.70131e-08 0 0.00526499 3.70131e-08 0 0.00524812 3.57719e-08 0
0.00524812 3.57719e-08 0 0.00523166 3.44916e-08 0 0.00523166 3.44916e-08 0 0.00521562
3.32717e-08 0 0.00521562 3.32717e-08 0 0.0052 3.20251e-08 0 0.0052 3.20251e-08
0 0.00518483 3.07445e-08 0 0.00518483 3.07445e-08 0 0.00517009 2.95515e-08 0
0.00517009 2.95515e-08 0 0.00515578 2.83836e-08 0 0.00515578 2.83836e-08 0 0.00514191
2.71666e-08 0 0.00514191 2.71666e-08 0 0.00512847 2.60522e-08 0 0.00512847 2.60522e-08
0 0.00511542 2.5048e-08 0 0.00511542 2.5048e-08 0 0.00510277 2.39908e-08 0
0.00510277 2.39908e-08 0 0.00509051 2.29941e-08 0 0.00509051 2.29941e-08 0 0.0050786
2.21683e-08 0 0.0050786 2.21683e-08 0 0.00506703 2.12975e-08 0 0.00506703 2.12975e-08
0 0.00505585 2.03468e-08 0 0.00505585 2.03468e-08 0 0.00504503 1.95408e-08 0
0.00504503 1.95408e-08 0 0.00503457 1.87369e-08 0 0.00503457 1.87369e-08 0 0.00502454
1.7707e-08 0 0.00502454 1.7707e-08 0 0.00501496 1.67342e-08 0 0.00501496 1.67342e-08
0 0.0050058 1.58921e-08 0 0.0050058 1.58921e-08 0 0.00499711 1.48569e-08 0
0.00499711 1.48569e-08 0 0.00498893 1.37982e-08 0 0.00498893 1.37982e-08 0 0.0049812
1.28626e-08 0 0.0049812 1.28626e-08 0 0.004974 1.18588e-08 0 0.004974 1.18588e-08
0 0.00496725 1.10939e-08 0 0.00496725 1.10939e-08 0 0.00496062 1.08307e-08 0
0.00496062 1.08307e-08 0 0.00495404 1.06624e-08 0 0.00495404 1.06624e-08 0 0.00494767
1.00862e-08 0 0.00494767 1.00862e-08 0 0.0049417 9.20936e-09 0 0.0049417 9.20936e-09
0 0.00493611 8.54136e-09 0 0.00493611 8.54136e-09 0 0.00493085 8.00329e-09 0
0.00493085 8.00329e-09 0 0.004926 7.18798e-09 0 0.004926 7.18798e-09 0 0.00492162
6.35667e-09 0 0.00492162 6.35667e-09 0 0.00491756 5.92327e-09 0 0.00491756 5.92327e-09
0 0.00491375 5.5532e-09 0 0.00491375 5.5532e-09 0 0.00491032 4.83979e-09 0
0.00491032 4.83979e-09 0 0.00490733 4.11131e-09 0 0.00490733 4.11131e-09 0 0.00490464
3.73691e-09 0 0.00490464 3.73691e-09 0 0.00490219 3.40913e-09 0 0.00490219 3.40913e-09
0 0.00490012 2.75377e-09 0 0.00490012 2.75377e-09 0 0.0048985 1.99999e-09 0
0.0048985 1.99999e-09 0 0.00489723 1.54567e-09 0 0.00489723 1.54567e-09 0 0.00489618
1.30976e-09 0 0.00489618 1.30976e-09 0 0.00489539 9.17853e-10 0 0.00489539 9.17853e-10
0 0.00489497 3.07402e-10 0 0.00489497 3.07402e-10 0 0.00489492 -1.84742e-10 0
0.00489492 -1.84742e-10 0 0.00489507 -3.46723e-10 0 0.00489507 -3.46723e-10 0 0.00489534
-4.40832e-10 0 0.00489534 -4.40832e-10 0 0.00489587 -8.33473e-10 0 0.00489587 -8.33473e-10
0 0.0048968 -1.42672e-09 0 0.0048968 -1.42672e-09 0 0.00489805 -1.78181e-09 0
0.00489805 -1.78181e-09 0 0.00489941 -1.79323e-09 0 0.00489941 -1.79323e-09 0 0.00490088
-1.87666e-09 0 0.00490088 -1.87666e-09 0 0.00490267 -2.36742e-09 0 0.00490267 -2.36742e-09
0 0.00490491 -3.01422e-09 0 0.00490491 -3.01422e-09 0 0.00490746 -3.3481e-09 0
0.00490746 -3.3481e-09 0 0.00491005 -3.16291e-09 0 0.00491005 -3.16291e-09 0 0.00491241
-2.64241e-09 0 0.00491241 -2.64241e-09 0 0.00491452 -2.34126e-09 0 0.00491452 -2.34126e-09
0 0.0049167 -2.56437e-09 0 0.0049167 -2.56437e-09 0 0.00491917 -2.99881e-09 0
0.00491917 -2.99881e-09 0 0.00492184 -3.18456e-09 0 0.00492184 -3.18456e-09 0 0.00492449
-3.00612e-09 0 0.00492449 -3.00612e-09 0 0.00492704 -2.76857e-09 0 0.00492704 -2.76857e-09
0 0.00492967 -2.86276e-09 0 0.00492967 -2.86276e-09 0 0.00493268 -3.37608e-09 0
0.00493268 -3.37608e-09 0 0.00493621 -4.02184e-09 0 0.00493621 -4.02184e-09 0 0.00494013
-4.41884e-09 0 0.00494013 -4.41884e-09 0 0.00494417 -4.42651e-09 0 0.00494417 -4.42651e-09
0 0.00494811 -4.20533e-09 0 0.00494811 -4.20533e-09 0 0.00495193 -3.99164e-09 0
0.00495193 -3.99164e-09 0 0.0049557 -3.88585e-09 0 0.0049557 -3.88585e-09 0 0.00495949
-3.85635e-09 0 0.00495949 -3.85635e-09 0 0.00496335 -3.86982e-09 0 0.00496335 -3.86982e-09
0 0.00496733 -3.95579e-09 0 0.00496733 -3.95579e-09 0 0.00497153 -4.15554e-09 0
0.00497153 -4.15554e-09 0 0.00497602 -4.44866e-09 0 0.00497602 -4.44866e-09 0 0.00498083
-4.74607e-09 0 0.00498083 -4.74607e-09 0 0.00498589 -4.94881e-09 0 0.00498589 -4.94881e-09
0 0.00499109 -5.01372e-09 0 0.00499109 -5.01372e-09 0 0.00499634 -4.97201e-09 0
0.00499634 -4.97201e-09 0 0.00500158 -4.89553e-09 0 0.00500158 -4.89553e-09 0 0.00500683
-4.84418e-09 0 0.00500683 -4.84418e-09 0 0.00501214 -4.83996e-09 0 0.00501214 -4.83996e-09
0 0.00501754 -4.87459e-09 0 0.00501754 -4.87459e-09 0 0.00502306 -4.92713e-09 0
0.00502306 -4.92713e-09 0 0.00502869 -4.9803e-09 0 0.00502869 -4.9803e-09 0 0.00503444
-5.02323e-09 0 0.00503444 -5.02323e-09 0 0.00504028 -5.05736e-09 0 0.00504028 -5.05736e-09
0 0.00504623 -5.0999e-09 0 0.00504623 -5.0999e-09 0 0.00505229 -5.07992e-09 0
0.00505229 -5.07992e-09 0 0.00505828 -4.92172e-09 0 0.00505828 -4.92172e-09 0 0.00506409
-4.73381e-09 0 0.00506409 -4.73381e-09 0 0.00506977 -4.62128e-09 0 0.00506977 -4.62128e-09
0 0.00507543 -4.5702e-09 0 0.00507543 -4.5702e-09 0 0.00508111 -4.55316e-09 0
0.00508111 -4.55316e-09 0 0.00508684 -4.55384e-09 0 0.00508684 -4.55384e-09 0 0.00509264
-4.56315e-09 0 0.00509264 -4.56315e-09 0 0.00509852 -4.57629e-09 0 0.00509852 -4.57629e-09
0 0.00510448 -4.591e-09 0 0.00510448 -4.591e-09 0 0.00511051 -4.60549e-09 0
0.00511051 -4.60549e-09 0 0.00511663 -4.61866e-09 0 0.00511663 -4.61866e-09 0 0.00512283
-4.62991e-09 0 0.00512283 -4.62991e-09 0 0.0051291 -4.63888e-09 0 0.0051291 -4.63888e-09
0 0.00513545 -4.64593e-09 0 0.00513545 -4.64593e-09 0 0.00514188 -4.65123e-09 0
0.00514188 -4.65123e-09 0 0.00514837 -4.65485e-09 0 0.00514837 -4.65485e-09 0 0.00515495
-4.65719e-09 0 0.00515495 -4.65719e-09 0 0.00516159 -4.6582e-09 0 0.00516159 -4.6582e-09
0 0.0051683 -4.65806e-09 0 0.0051683 -4.65806e-09 0 0.00517508 -4.65709e-09 0
0.00517508 -4.65709e-09 0 0.00518193 -4.65498e-09 0 0.00518193 -4.65498e-09 0 0.00518885
-4.65226e-09 0 0.00518885 -4.65226e-09 0 0.00519583 -4.64881e-09 0 0.00519583 -4.64881e-09
0 0.00520288 -4.64429e-09 0 0.00520288 -4.64429e-09 0 0.00521 -4.63925e-09 0
0.00521 -4.63925e-09 0 0.00521719 -4.63342e-09 0 0.00521719 -4.63342e-09 0 0.00522444
-4.62648e-09 0 0.00522444 -4.62648e-09 0 0.00523175 -4.61852e-09 0 0.00523175 -4.61852e-09
0 0.00523913 -4.60966e-09 0 0.00523913 -4.60966e-09 0 0.00524657 -4.59829e-09 0
0.00524657 -4.59829e-09 0 0.00525407 -4.59188e-09 0 0.00525407 -4.59188e-09 0 0.00526164
-4.57621e-09 0 0.00526164 -4.57621e-09 0 0.00526923 -4.49107e-09 0 0.00526923 -4.49107e-09
0 0.00527666 -4.34133e-09 0 0.00527666 -4.34133e-09 0 0.00528391 -4.21017e-09 0
0.00528391 -4.21017e-09 0 0.00529107 -4.13161e-09 0 0.00529107 -4.13161e-09 0 0.0052982
-4.08763e-09 0 0.0052982 -4.08763e-09 0 0.00530535 -4.06263e-09 0 0.00530535 -4.06263e-09
0 0.00531254 -4.04762e-09 0 0.00531254 -4.04762e-09 0 0.00531978 -4.03765e-09 0
0.00531978 -4.03765e-09 0 0.00532709 -4.0302e-09 0 0.00532709 -4.0302e-09 0 0.00533446
-4.02418e-09 0 0.00533446 -4.02418e-09 0 0.00534189 -4.01882e-09 0 0.00534189 -4.01882e-09
0 0.0053494 -4.01309e-09 0 0.0053494 -4.01309e-09 0 0.00535697 -4.00702e-09 0
0.00535697 -4.00702e-09 0 0.0053646 -4.00052e-09 0 0.0053646 -4.00052e-09 0 0.00537231
-3.99371e-09 0 0.00537231 -3.99371e-09 0 0.00538008 -3.98582e-09 0 0.00538008 -3.98582e-09
0 0.00538791 -3.97704e-09 0 0.00538791 -3.97704e-09 0 0.00539581 -3.96816e-09 0
0.00539581 -3.96816e-09 0 0.00540377 -3.95881e-09 0 0.00540377 -3.95881e-09 0 0.0054118
-3.94898e-09 0 0.0054118 -3.94898e-09 0 0.00541989 -3.93832e-09 0 0.00541989 -3.93832e-09
0 0.00542804 -3.92698e-09 0 0.00542804 -3.92698e-09 0 0.00543625 -3.91518e-09 0
0.00543625 -3.91518e-09 0 0.00544452 -3.9033e-09 0 0.00544452 -3.9033e-09 0 0.00545286
-3.89092e-09 0 0.00545286 -3.89092e-09 0 0.00546125 -3.87762e-09 0 0.00546125 -3.87762e-09
0 0.0054697 -3.86435e-09 0 0.0054697 -3.86435e-09 0 0.00547821 -3.8506e-09 0
0.00547821 -3.8506e-09 0 0.00548677 -3.83495e-09 0 0.00548677 -3.83495e-09 0 0.00549539
-3.82184e-09 0 0.00549539 -3.82184e-09 0 0.00550408 -3.80037e-09 0 0.00550408 -3.80037e-09
0 0.00551277 -3.73154e-09 0 0.00551277 -3.73154e-09 0 0.00552131 -3.6201e-09 0
0.00552131 -3.6201e-09 0 0.00552967 -3.522e-09 0 0.00552967 -3.522e-09 0 0.00553793
-3.45945e-09 0 0.00553793 -3.45945e-09 0 0.00554617 -3.42051e-09 0 0.00554617 -3.42051e-09
0 0.00555441 -3.39473e-09 0 0.00555441 -3.39473e-09 0 0.0055627 -3.3757e-09 0
0.0055627 -3.3757e-09 0 0.00557102 -3.36053e-09 0 0.00557102 -3.36053e-09 0 0.0055794
-3.34742e-09 0 0.0055794 -3.34742e-09 0 0.00558784 -3.33536e-09 0 0.00558784 -3.33536e-09
0 0.00559633 -3.32407e-09 0 0.00559633 -3.32407e-09 0 0.00560488 -3.31274e-09 0
0.00560488 -3.31274e-09 0 0.00561349 -3.30101e-09 0 0.00561349 -3.30101e-09 0 0.00562216
-3.28922e-09 0 0.00562216 -3.28922e-09 0 0.00563089 -3.27726e-09 0 0.00563089 -3.27726e-09
0 0.00563968 -3.26522e-09 0 0.00563968 -3.26522e-09 0 0.00564852 -3.25269e-09 0
0.00564852 -3.25269e-09 0 0.00565743 -3.23974e-09 0 0.00565743 -3.23974e-09 0 0.00566639
-3.22667e-09 0 0.00566639 -3.22667e-09 0 0.0056754 -3.21324e-09 0 0.0056754 -3.21324e-09
0 0.00568447 -3.19966e-09 0 0.00568447 -3.19966e-09 0 0.0056936 -3.1856e-09 0
0.0056936 -3.1856e-09 0 0.00570278 -3.17114e-09 0 0.00570278 -3.17114e-09 0 0.00571202
-3.15659e-09 0 0.00571202 -3.15659e-09 0 0.0057213 -3.14188e-09 0 0.0057213 -3.14188e-09
0 0.00573064 -3.127e-09 0 0.00573064 -3.127e-09 0 0.00574004 -3.11129e-09 0
0.00574004 -3.11129e-09 0 0.00574948 -3.09564e-09 0 0.00574948 -3.09564e-09 0 0.00575897
-3.07908e-09 0 0.00575897 -3.07908e-09 0 0.00576851 -3.0381e-09 0 0.00576851 -3.0381e-09
0 0.00577794 -2.95936e-09 0 0.00577794 -2.95936e-09 0 0.00578717 -2.87766e-09 0
0.00578717 -2.87766e-09 0 0.00579628 -2.82063e-09 0 0.00579628 -2.82063e-09 0 0.00580534
-2.7834e-09 0 0.00580534 -2.7834e-09 0 0.0058144 -2.75757e-09 0 0.0058144 -2.75757e-09
0 0.00582348 -2.73785e-09 0 0.00582348 -2.73785e-09 0 0.00583259 -2.72114e-09 0
0.00583259 -2.72114e-09 0 0.00584175 -2.70646e-09 0 0.00584175 -2.70646e-09 0 0.00585096
-2.69278e-09 0 0.00585096 -2.69278e-09 0 0.00586022 -2.67984e-09 0 0.00586022 -2.67984e-09
0 0.00586952 -2.66714e-09 0 0.00586952 -2.66714e-09 0 0.00587888 -2.65417e-09 0
0.00587888 -2.65417e-09 0 0.00588829 -2.64123e-09 0 0.00588829 -2.64123e-09 0 0.00589776
-2.6283e-09 0 0.00589776 -2.6283e-09 0 0.00590727 -2.61541e-09 0 0.00590727 -2.61541e-09
0 0.00591684 -2.60228e-09 0 0.00591684 -2.60228e-09 0 0.00592646 -2.58907e-09 0
0.00592646 -2.58907e-09 0 0.00593613 -2.57543e-09 0 0.00593613 -2.57543e-09 0 0.00594584
-2.56208e-09 0 0.00594584 -2.56208e-09 0 0.00595561 -2.54856e-09 0 0.00595561 -2.54856e-09
0 0.00596543 -2.53461e-09 0 0.00596543 -2.53461e-09 0 0.00597529 -2.52062e-09 0
0.00597529 -2.52062e-09 0 0.0059852 -2.50609e-09 0 0.0059852 -2.50609e-09 0 0.00599516
-2.4918e-09 0 0.00599516 -2.4918e-09 0 0.00600516 -2.47736e-09 0 0.00600516 -2.47736e-09
0 0.00601521 -2.46366e-09 0 0.00601521 -2.46366e-09 0 0.00602531 -2.44368e-09 0
0.00602531 -2.44368e-09 0 0.0060354 -2.39935e-09 0 0.0060354 -2.39935e-09 0 0.00604534
-2.33461e-09 0 0.00604534 -2.33461e-09 0 0.00605509 -2.27741e-09 0 0.00605509 -2.27741e-09
0 0.00606476 -2.23892e-09 0 0.00606476 -2.23892e-09 0 0.00607438 -2.21263e-09 0
0.00607438 -2.21263e-09 0 0.00608402 -2.19285e-09 0 0.00608402 -2.19285e-09 0 0.00609367
-2.1765e-09 0 0.00609367 -2.1765e-09 0 0.00610335 -2.16199e-09 0 0.00610335 -2.16199e-09
0 0.00611308 -2.14864e-09 0 0.00611308 -2.14864e-09 0 0.00612285 -2.1359e-09 0
0.00612285 -2.1359e-09 0 0.00613266 -2.12323e-09 0 0.00613266 -2.12323e-09 0 0.00614251
-2.11103e-09 0 0.00614251 -2.11103e-09 0 0.00615242 -2.09906e-09 0 0.00615242 -2.09906e-09
0 0.00616236 -2.08704e-09 0 0.00616236 -2.08704e-09 0 0.00617236 -2.07473e-09 0
0.00617236 -2.07473e-09 0 0.0061824 -2.06253e-09 0 0.0061824 -2.06253e-09 0 0.00619248
-2.05044e-09 0 0.00619248 -2.05044e-09 0 0.00620261 -2.0382e-09 0 0.00620261 -2.0382e-09
0 0.00621278 -2.02592e-09 0 0.00621278 -2.02592e-09 0 0.00622299 -2.01345e-09 0
0.00622299 -2.01345e-09 0 0.00623325 -2.00077e-09 0 0.00623325 -2.00077e-09 0 0.00624355
-1.98834e-09 0 0.00624355 -1.98834e-09 0 0.00625389 -1.97592e-09 0 0.00625389 -1.97592e-09
0 0.00626428 -1.96296e-09 0 0.00626428 -1.96296e-09 0 0.0062747 -1.95059e-09 0
0.0062747 -1.95059e-09 0 0.00628517 -1.93338e-09 0 0.00628517 -1.93338e-09 0 0.00629562
-1.89824e-09 0 0.00629562 -1.89824e-09 0 0.00630592 -1.84842e-09 0 0.00630592 -1.84842e-09
0 0.00631604 -1.80437e-09 0 0.00631604 -1.80437e-09 0 0.00632606 -1.77391e-09 0
0.00632606 -1.77391e-09 0 0.00633605 -1.75257e-09 0 0.00633605 -1.75257e-09 0 0.00634604
-1.73621e-09 0 0.00634604 -1.73621e-09 0 0.00635604 -1.72184e-09 0 0.00635604 -1.72184e-09
0 0.00636608 -1.70918e-09 0 0.00636608 -1.70918e-09 0 0.00637614 -1.69788e-09 0
0.00637614 -1.69788e-09 0 0.00638624 -1.68654e-09 0 0.00638624 -1.68654e-09 0 0.00639638
-1.6755e-09 0 0.00639638 -1.6755e-09 0 0.00640656 -1.66448e-09 0 0.00640656 -1.66448e-09
0 0.00641678 -1.65341e-09 0 0.00641678 -1.65341e-09 0 0.00642704 -1.64292e-09 0
0.00642704 -1.64292e-09 0 0.00643734 -1.63233e-09 0 0.00643734 -1.63233e-09 0 0.00644768
-1.62168e-09 0 0.00644768 -1.62168e-09 0 0.00645806 -1.61108e-09 0 0.00645806 -1.61108e-09
0 0.00646848 -1.6002e-09 0 0.00646848 -1.6002e-09 0 0.00647893 -1.58952e-09 0
0.00647893 -1.58952e-09 0 0.00648943 -1.57881e-09 0 0.00648943 -1.57881e-09 0 0.00649996
-1.56796e-09 0 0.00649996 -1.56796e-09 0 0.00651052 -1.55704e-09 0 0.00651052 -1.55704e-09
0 0.00652113 -1.54616e-09 0 0.00652113 -1.54616e-09 0 0.00653176 -1.53466e-09 0
0.00653176 -1.53466e-09 0 0.00654243 -1.51391e-09 0 0.00654243 -1.51391e-09 0 0.00655299
-1.47743e-09 0 0.00655299 -1.47743e-09 0 0.00656336 -1.43905e-09 0 0.00656336 -1.43905e-09
0 0.0065736 -1.41124e-09 0 0.0065736 -1.41124e-09 0 0.00658378 -1.39201e-09 0
0.00658378 -1.39201e-09 0 0.00659395 -1.37719e-09 0 0.00659395 -1.37719e-09 0 0.00660412
-1.36441e-09 0 0.00660412 -1.36441e-09 0 0.00661431 -1.35325e-09 0 0.00661431 -1.35325e-09
0 0.00662453 -1.34312e-09 0 0.00662453 -1.34312e-09 0 0.00663478 -1.33333e-09 0
0.00663478 -1.33333e-09 0 0.00664506 -1.32384e-09 0 0.00664506 -1.32384e-09 0 0.00665538
-1.31456e-09 0 0.00665538 -1.31456e-09 0 0.00666573 -1.30486e-09 0 0.00666573 -1.30486e-09
0 0.00667612 -1.29595e-09 0 0.00667612 -1.29595e-09 0 0.00668654 -1.28721e-09 0
0.00668654 -1.28721e-09 0 0.00669699 -1.27754e-09 0 0.00669699 -1.27754e-09 0 0.00670748
-1.2687e-09 0 0.00670748 -1.2687e-09 0 0.00671801 -1.26003e-09 0 0.00671801 -1.26003e-09
0 0.00672856 -1.25071e-09 0 0.00672856 -1.25071e-09 0 0.00673915 -1.24164e-09 0
0.00673915 -1.24164e-09 0 0.00674978 -1.23226e-09 0 0.00674978 -1.23226e-09 0 0.00676043
-1.22338e-09 0 0.00676043 -1.22338e-09 0 0.00677112 -1.21385e-09 0 0.00677112 -1.21385e-09
0 0.00678182 -1.19591e-09 0 0.00678182 -1.19591e-09 0 0.00679241 -1.16658e-09 0
0.00679241 -1.16658e-09 0 0.00680281 -1.13665e-09 0 0.00680281 -1.13665e-09 0 0.00681307
-1.11512e-09 0 0.00681307 -1.11512e-09 0 0.00682329 -1.10009e-09 0 0.00682329 -1.10009e-09
0 0.00683349 -1.08815e-09 0 0.00683349 -1.08815e-09 0 0.00684369 -1.07801e-09 0
0.00684369 -1.07801e-09 0 0.00685392 -1.06893e-09 0 0.00685392 -1.06893e-09 0 0.00686416
-1.0604e-09 0 0.00686416 -1.0604e-09 0 0.00687443 -1.0523e-09 0 0.00687443 -1.0523e-09
0 0.00688474 -1.0447e-09 0 0.00688474 -1.0447e-09 0 0.00689507 -1.03665e-09 0
0.00689507 -1.03665e-09 0 0.00690543 -1.02926e-09 0 0.00690543 -1.02926e-09 0 0.00691583
-1.02041e-09 0 0.00691583 -1.02041e-09 0 0.00692622 -1.01548e-09 0 0.00692622 -1.01548e-09
0 0.00693674 -1.0038e-09 0 0.00693674 -1.0038e-09 0 0.0069471 -1.0017e-09 0
0.0069471 -1.0017e-09 0 0.0069578 -9.89079e-10 0 0.0069578 -9.89079e-10 0 0.0069681
-9.8299e-10 0 0.0069681 -9.8299e-10 0 0.0069789 -9.84559e-10 0 0.0069789 -9.84559e-10
0 0.00698944 -9.45821e-10 0 0.00698944 -9.45821e-10 0 0.00699963 -1.01337e-09 0
0.00699963 -1.01337e-09 0 0.0152265 -1.5194e-09 0 0.0152265 -1.5194e-09 0 0.0234546
-1.93495e-09 0 0.0234546 -1.93495e-09 0 
