# vtk DataFile Version 2.0
sampleSurface
ASCII
DATASET POLYDATA
POINTS 1202 float
0 0 0 5.99825e-05 0 0 5.99825e-05 0 0.1 0 0
0.1 0.000120591 0 0 0.000120591 0 0.1 0.000181831 0 0
0.000181831 0 0.1 0.000243709 0 0 0.000243709 0 0.1 0.000306234
0 0 0.000306234 0 0.1 0.00036941 0 0 0.00036941 0
0.1 0.000433245 0 0 0.000433245 0 0.1 0.000497746 0 0
0.000497746 0 0.1 0.000562919 0 0 0.000562919 0 0.1 0.000628772
0 0 0.000628772 0 0.1 0.000695312 0 0 0.000695312 0
0.1 0.000762546 0 0 0.000762546 0 0.1 0.000830481 0 0
0.000830481 0 0.1 0.000899125 0 0 0.000899125 0 0.1 0.000968484
0 0 0.000968484 0 0.1 0.00103857 0 0 0.00103857 0
0.1 0.00110938 0 0 0.00110938 0 0.1 0.00118093 0 0
0.00118093 0 0.1 0.00125323 0 0 0.00125323 0 0.1 0.00132628
0 0 0.00132628 0 0.1 0.0014001 0 0 0.0014001 0
0.1 0.00147468 0 0 0.00147468 0 0.1 0.00155004 0 0
0.00155004 0 0.1 0.00162619 0 0 0.00162619 0 0.1 0.00170313
0 0 0.00170313 0 0.1 0.00178088 0 0 0.00178088 0
0.1 0.00185943 0 0 0.00185943 0 0.1 0.00193881 0 0
0.00193881 0 0.1 0.00201901 0 0 0.00201901 0 0.1 0.00210005
0 0 0.00210005 0 0.1 0.00218193 0 0 0.00218193 0
0.1 0.00226467 0 0 0.00226467 0 0.1 0.00234827 0 0
0.00234827 0 0.1 0.00243274 0 0 0.00243274 0 0.1 0.0025181
0 0 0.0025181 0 0.1 0.00260434 0 0 0.00260434 0
0.1 0.00269148 0 0 0.00269148 0 0.1 0.00277954 0 0
0.00277954 0 0.1 0.00286851 0 0 0.00286851 0 0.1 0.0029584
0 0 0.0029584 0 0.1 0.00304924 0 0 0.00304924 0
0.1 0.00314102 0 0 0.00314102 0 0.1 0.00323376 0 0
0.00323376 0 0.1 0.00332747 0 0 0.00332747 0 0.1 0.00342215
0 0 0.00342215 0 0.1 0.00351783 0 0 0.00351783 0
0.1 0.0036145 0 0 0.0036145 0 0.1 0.00371217 0 0
0.00371217 0 0.1 0.00381087 0 0 0.00381087 0 0.1 0.0039106
0 0 0.0039106 0 0.1 0.00401136 0 0 0.00401136 0
0.1 0.00411318 0 0 0.00411318 0 0.1 0.00421606 0 0
0.00421606 0 0.1 0.00432001 0 0 0.00432001 0 0.1 0.00442505
0 0 0.00442505 0 0.1 0.00453118 0 0 0.00453118 0
0.1 0.00463842 0 0 0.00463842 0 0.1 0.00474677 0 0
0.00474677 0 0.1 0.00485626 0 0 0.00485626 0 0.1 0.00496689
0 0 0.00496689 0 0.1 0.00507867 0 0 0.00507867 0
0.1 0.00519162 0 0 0.00519162 0 0.1 0.00530574 0 0
0.00530574 0 0.1 0.00542106 0 0 0.00542106 0 0.1 0.00553758
0 0 0.00553758 0 0.1 0.00565531 0 0 0.00565531 0
0.1 0.00577427 0 0 0.00577427 0 0.1 0.00589447 0 0
0.00589447 0 0.1 0.00601593 0 0 0.00601593 0 0.1 0.00613865
0 0 0.00613865 0 0.1 0.00626266 0 0 0.00626266 0
0.1 0.00638795 0 0 0.00638795 0 0.1 0.00651455 0 0
0.00651455 0 0.1 0.00664248 0 0 0.00664248 0 0.1 0.00677173
0 0 0.00677173 0 0.1 0.00690234 0 0 0.00690234 0
0.1 0.0070343 0 0 0.0070343 0 0.1 0.00716765 0 0
0.00716765 0 0.1 0.00730238 0 0 0.00730238 0 0.1 0.00743852
0 0 0.00743852 0 0.1 0.00757608 0 0 0.00757608 0
0.1 0.00771507 0 0 0.00771507 0 0.1 0.00785551 0 0
0.00785551 0 0.1 0.00799742 0 0 0.00799742 0 0.1 0.00814081
0 0 0.00814081 0 0.1 0.00828569 0 0 0.00828569 0
0.1 0.00843209 0 0 0.00843209 0 0.1 0.00858001 0 0
0.00858001 0 0.1 0.00872947 0 0 0.00872947 0 0.1 0.00888049
0 0 0.00888049 0 0.1 0.00903309 0 0 0.00903309 0
0.1 0.00918728 0 0 0.00918728 0 0.1 0.00934307 0 0
0.00934307 0 0.1 0.00950049 0 0 0.00950049 0 0.1 0.00965956
0 0 0.00965956 0 0.1 0.00982028 0 0 0.00982028 0
0.1 0.00998268 0 0 0.00998268 0 0.1 0.0101468 0 0
0.0101468 0 0.1 0.0103126 0 0 0.0103126 0 0.1 0.0104801
0 0 0.0104801 0 0.1 0.0106494 0 0 0.0106494 0
0.1 0.0108204 0 0 0.0108204 0 0.1 0.0109933 0 0
0.0109933 0 0.1 0.0111679 0 0 0.0111679 0 0.1 0.0113443
0 0 0.0113443 0 0.1 0.0115226 0 0 0.0115226 0
0.1 0.0117028 0 0 0.0117028 0 0.1 0.0118848 0 0
0.0118848 0 0.1 0.0120687 0 0 0.0120687 0 0.1 0.0122546
0 0 0.0122546 0 0.1 0.0124424 0 0 0.0124424 0
0.1 0.0126321 0 0 0.0126321 0 0.1 0.0128238 0 0
0.0128238 0 0.1 0.0130176 0 0 0.0130176 0 0.1 0.0132133
0 0 0.0132133 0 0.1 0.0134111 0 0 0.0134111 0
0.1 0.0136109 0 0 0.0136109 0 0.1 0.0138129 0 0
0.0138129 0 0.1 0.0140169 0 0 0.0140169 0 0.1 0.0142231
0 0 0.0142231 0 0.1 0.0144314 0 0 0.0144314 0
0.1 0.0146419 0 0 0.0146419 0 0.1 0.0148546 0 0
0.0148546 0 0.1 0.0150695 0 0 0.0150695 0 0.1 0.0152866
0 0 0.0152866 0 0.1 0.015506 0 0 0.015506 0
0.1 0.0157277 0 0 0.0157277 0 0.1 0.0159517 0 0
0.0159517 0 0.1 0.016178 0 0 0.016178 0 0.1 0.0164067
0 0 0.0164067 0 0.1 0.0166378 0 0 0.0166378 0
0.1 0.0168713 0 0 0.0168713 0 0.1 0.0171073 0 0
0.0171073 0 0.1 0.0173457 0 0 0.0173457 0 0.1 0.0175865
0 0 0.0175865 0 0.1 0.0178299 0 0 0.0178299 0
0.1 0.0180759 0 0 0.0180759 0 0.1 0.0183244 0 0
0.0183244 0 0.1 0.0185754 0 0 0.0185754 0 0.1 0.0188291
0 0 0.0188291 0 0.1 0.0190855 0 0 0.0190855 0
0.1 0.0193445 0 0 0.0193445 0 0.1 0.0196063 0 0
0.0196063 0 0.1 0.0198707 0 0 0.0198707 0 0.1 0.0201379
0 0 0.0201379 0 0.1 0.0204079 0 0 0.0204079 0
0.1 0.0206807 0 0 0.0206807 0 0.1 0.0209564 0 0
0.0209564 0 0.1 0.0212349 0 0 0.0212349 0 0.1 0.0215164
0 0 0.0215164 0 0.1 0.0218008 0 0 0.0218008 0
0.1 0.0220881 0 0 0.0220881 0 0.1 0.0223784 0 0
0.0223784 0 0.1 0.0226718 0 0 0.0226718 0 0.1 0.0229682
0 0 0.0229682 0 0.1 0.0232677 0 0 0.0232677 0
0.1 0.0235704 0 0 0.0235704 0 0.1 0.0238762 0 0
0.0238762 0 0.1 0.0241852 0 0 0.0241852 0 0.1 0.0244974
0 0 0.0244974 0 0.1 0.0248128 0 0 0.0248128 0
0.1 0.0251316 0 0 0.0251316 0 0.1 0.0254537 0 0
0.0254537 0 0.1 0.0257791 0 0 0.0257791 0 0.1 0.0261079
0 0 0.0261079 0 0.1 0.0264402 0 0 0.0264402 0
0.1 0.0267759 0 0 0.0267759 0 0.1 0.0271152 0 0
0.0271152 0 0.1 0.0274579 0 0 0.0274579 0 0.1 0.0278043
0 0 0.0278043 0 0.1 0.0281542 0 0 0.0281542 0
0.1 0.0285078 0 0 0.0285078 0 0.1 0.0288651 0 0
0.0288651 0 0.1 0.0292261 0 0 0.0292261 0 0.1 0.0295909
0 0 0.0295909 0 0.1 0.0299595 0 0 0.0299595 0
0.1 0.0303319 0 0 0.0303319 0 0.1 0.0307082 0 0
0.0307082 0 0.1 0.0310885 0 0 0.0310885 0 0.1 0.0314727
0 0 0.0314727 0 0.1 0.0318609 0 0 0.0318609 0
0.1 0.0322532 0 0 0.0322532 0 0.1 0.0326495 0 0
0.0326495 0 0.1 0.03305 0 0 0.03305 0 0.1 0.0334546
0 0 0.0334546 0 0.1 0.0338635 0 0 0.0338635 0
0.1 0.0342767 0 0 0.0342767 0 0.1 0.0346941 0 0
0.0346941 0 0.1 0.0351159 0 0 0.0351159 0 0.1 0.0355421
0 0 0.0355421 0 0.1 0.0359728 0 0 0.0359728 0
0.1 0.0364079 0 0 0.0364079 0 0.1 0.0368476 0 0
0.0368476 0 0.1 0.0372919 0 0 0.0372919 0 0.1 0.0377408
0 0 0.0377408 0 0.1 0.0381944 0 0 0.0381944 0
0.1 0.0386527 0 0 0.0386527 0 0.1 0.0391158 0 0
0.0391158 0 0.1 0.0395837 0 0 0.0395837 0 0.1 0.0400565
0 0 0.0400565 0 0.1 0.0405342 0 0 0.0405342 0
0.1 0.0410169 0 0 0.0410169 0 0.1 0.0415047 0 0
0.0415047 0 0.1 0.0419975 0 0 0.0419975 0 0.1 0.0424955
0 0 0.0424955 0 0.1 0.0429986 0 0 0.0429986 0
0.1 0.0435071 0 0 0.0435071 0 0.1 0.0440208 0 0
0.0440208 0 0.1 0.0445398 0 0 0.0445398 0 0.1 0.0450643
0 0 0.0450643 0 0.1 0.0455943 0 0 0.0455943 0
0.1 0.0461298 0 0 0.0461298 0 0.1 0.0466708 0 0
0.0466708 0 0.1 0.0472176 0 0 0.0472176 0 0.1 0.04777
0 0 0.04777 0 0.1 0.0483281 0 0 0.0483281 0
0.1 0.0488921 0 0 0.0488921 0 0.1 0.049462 0 0
0.049462 0 0.1 0.0500378 0 0 0.0500378 0 0.1 0.0506197
0 0 0.0506197 0 0.1 0.0512076 0 0 0.0512076 0
0.1 0.0518016 0 0 0.0518016 0 0.1 0.0524018 0 0
0.0524018 0 0.1 0.0530083 0 0 0.0530083 0 0.1 0.0536211
0 0 0.0536211 0 0.1 0.0542403 0 0 0.0542403 0
0.1 0.0548659 0 0 0.0548659 0 0.1 0.0554981 0 0
0.0554981 0 0.1 0.0561369 0 0 0.0561369 0 0.1 0.0567823
0 0 0.0567823 0 0.1 0.0574345 0 0 0.0574345 0
0.1 0.0580934 0 0 0.0580934 0 0.1 0.0587593 0 0
0.0587593 0 0.1 0.0594321 0 0 0.0594321 0 0.1 0.0601119
0 0 0.0601119 0 0.1 0.0607987 0 0 0.0607987 0
0.1 0.0614928 0 0 0.0614928 0 0.1 0.0621941 0 0
0.0621941 0 0.1 0.0629027 0 0 0.0629027 0 0.1 0.0636187
0 0 0.0636187 0 0.1 0.0643421 0 0 0.0643421 0
0.1 0.0650732 0 0 0.0650732 0 0.1 0.0658118 0 0
0.0658118 0 0.1 0.0665581 0 0 0.0665581 0 0.1 0.0673122
0 0 0.0673122 0 0.1 0.0680742 0 0 0.0680742 0
0.1 0.0688441 0 0 0.0688441 0 0.1 0.0696221 0 0
0.0696221 0 0.1 0.0704082 0 0 0.0704082 0 0.1 0.0712024
0 0 0.0712024 0 0.1 0.072005 0 0 0.072005 0
0.1 0.0728159 0 0 0.0728159 0 0.1 0.0736353 0 0
0.0736353 0 0.1 0.0744632 0 0 0.0744632 0 0.1 0.0752998
0 0 0.0752998 0 0.1 0.076145 0 0 0.076145 0
0.1 0.0769991 0 0 0.0769991 0 0.1 0.0778621 0 0
0.0778621 0 0.1 0.0787342 0 0 0.0787342 0 0.1 0.0796153
0 0 0.0796153 0 0.1 0.0805055 0 0 0.0805055 0
0.1 0.0814051 0 0 0.0814051 0 0.1 0.0823141 0 0
0.0823141 0 0.1 0.0832325 0 0 0.0832325 0 0.1 0.0841605
0 0 0.0841605 0 0.1 0.0850982 0 0 0.0850982 0
0.1 0.0860457 0 0 0.0860457 0 0.1 0.087003 0 0
0.087003 0 0.1 0.0879704 0 0 0.0879704 0 0.1 0.0889478
0 0 0.0889478 0 0.1 0.0899354 0 0 0.0899354 0
0.1 0.0909333 0 0 0.0909333 0 0.1 0.0919416 0 0
0.0919416 0 0.1 0.0929605 0 0 0.0929605 0 0.1 0.0939899
0 0 0.0939899 0 0.1 0.0950302 0 0 0.0950302 0
0.1 0.0960812 0 0 0.0960812 0 0.1 0.0971432 0 0
0.0971432 0 0.1 0.0982163 0 0 0.0982163 0 0.1 0.0993006
0 0 0.0993006 0 0.1 0.100396 0 0 0.100396 0
0.1 0.101503 0 0 0.101503 0 0.1 0.102622 0 0
0.102622 0 0.1 0.103752 0 0 0.103752 0 0.1 0.104894
0 0 0.104894 0 0.1 0.106048 0 0 0.106048 0
0.1 0.107214 0 0 0.107214 0 0.1 0.108392 0 0
0.108392 0 0.1 0.109582 0 0 0.109582 0 0.1 0.110785
0 0 0.110785 0 0.1 0.112001 0 0 0.112001 0
0.1 0.113229 0 0 0.113229 0 0.1 0.114469 0 0
0.114469 0 0.1 0.115723 0 0 0.115723 0 0.1 0.11699
0 0 0.11699 0 0.1 0.11827 0 0 0.11827 0
0.1 0.119564 0 0 0.119564 0 0.1 0.12087 0 0
0.12087 0 0.1 0.122191 0 0 0.122191 0 0.1 0.123525
0 0 0.123525 0 0.1 0.124873 0 0 0.124873 0
0.1 0.126236 0 0 0.126236 0 0.1 0.127612 0 0
0.127612 0 0.1 0.129003 0 0 0.129003 0 0.1 0.130408
0 0 0.130408 0 0.1 0.131828 0 0 0.131828 0
0.1 0.133263 0 0 0.133263 0 0.1 0.134713 0 0
0.134713 0 0.1 0.136178 0 0 0.136178 0 0.1 0.137658
0 0 0.137658 0 0.1 0.139154 0 0 0.139154 0
0.1 0.140665 0 0 0.140665 0 0.1 0.142192 0 0
0.142192 0 0.1 0.143735 0 0 0.143735 0 0.1 0.145294
0 0 0.145294 0 0.1 0.146869 0 0 0.146869 0
0.1 0.148461 0 0 0.148461 0 0.1 0.150069 0 0
0.150069 0 0.1 0.151694 0 0 0.151694 0 0.1 0.153336
0 0 0.153336 0 0.1 0.154995 0 0 0.154995 0
0.1 0.156672 0 0 0.156672 0 0.1 0.158366 0 0
0.158366 0 0.1 0.160077 0 0 0.160077 0 0.1 0.161807
0 0 0.161807 0 0.1 0.163554 0 0 0.163554 0
0.1 0.16532 0 0 0.16532 0 0.1 0.167104 0 0
0.167104 0 0.1 0.168907 0 0 0.168907 0 0.1 0.170728
0 0 0.170728 0 0.1 0.172569 0 0 0.172569 0
0.1 0.174428 0 0 0.174428 0 0.1 0.176307 0 0
0.176307 0 0.1 0.178206 0 0 0.178206 0 0.1 0.180124
0 0 0.180124 0 0.1 0.182063 0 0 0.182063 0
0.1 0.184022 0 0 0.184022 0 0.1 0.186001 0 0
0.186001 0 0.1 0.188001 0 0 0.188001 0 0.1 0.190021
0 0 0.190021 0 0.1 0.192063 0 0 0.192063 0
0.1 0.194126 0 0 0.194126 0 0.1 0.19621 0 0
0.19621 0 0.1 0.198317 0 0 0.198317 0 0.1 0.200445
0 0 0.200445 0 0.1 0.202595 0 0 0.202595 0
0.1 0.204768 0 0 0.204768 0 0.1 0.206964 0 0
0.206964 0 0.1 0.209182 0 0 0.209182 0 0.1 0.211424
0 0 0.211424 0 0.1 0.213689 0 0 0.213689 0
0.1 0.215977 0 0 0.215977 0 0.1 0.21829 0 0
0.21829 0 0.1 0.220626 0 0 0.220626 0 0.1 0.222987
0 0 0.222987 0 0.1 0.225372 0 0 0.225372 0
0.1 0.227783 0 0 0.227783 0 0.1 0.230218 0 0
0.230218 0 0.1 0.232679 0 0 0.232679 0 0.1 0.235166
0 0 0.235166 0 0.1 0.237678 0 0 0.237678 0
0.1 0.240217 0 0 0.240217 0 0.1 0.242782 0 0
0.242782 0 0.1 0.245374 0 0 0.245374 0 0.1 0.247993
0 0 0.247993 0 0.1 0.25064 0 0 0.25064 0
0.1 0.253313 0 0 0.253313 0 0.1 0.256015 0 0
0.256015 0 0.1 0.258745 0 0 0.258745 0 0.1 0.261504
0 0 0.261504 0 0.1 0.264291 0 0 0.264291 0
0.1 0.267107 0 0 0.267107 0 0.1 0.269953 0 0
0.269953 0 0.1 0.272828 0 0 0.272828 0 0.1 0.275733
0 0 0.275733 0 0.1 0.278669 0 0 0.278669 0
0.1 0.281635 0 0 0.281635 0 0.1 0.284632 0 0
0.284632 0 0.1 0.287661 0 0 0.287661 0 0.1 0.290721
0 0 0.290721 0 0.1 0.293813 0 0 0.293813 0
0.1 0.296937 0 0 0.296937 0 0.1 0.300093 0 0
0.300093 0 0.1 0.303283 0 0 0.303283 0 0.1 0.306506
0 0 0.306506 0 0.1 0.309763 0 0 0.309763 0
0.1 0.313053 0 0 0.313053 0 0.1 0.316378 0 0
0.316378 0 0.1 0.319737 0 0 0.319737 0 0.1 0.323132
0 0 0.323132 0 0.1 0.326562 0 0 0.326562 0
0.1 0.330027 0 0 0.330027 0 0.1 0.333529 0 0
0.333529 0 0.1 0.337068 0 0 0.337068 0 0.1 0.340643
0 0 0.340643 0 0.1 0.344255 0 0 0.344255 0
0.1 0.347906 0 0 0.347906 0 0.1 0.351594 0 0
0.351594 0 0.1 0.355321 0 0 0.355321 0 0.1 0.359086
0 0 0.359086 0 0.1 0.362891 0 0 0.362891 0
0.1 0.366736 0 0 0.366736 0 0.1 0.37062 0 0
0.37062 0 0.1 0.374546 0 0 0.374546 0 0.1 0.378512
0 0 0.378512 0 0.1 0.382519 0 0 0.382519 0
0.1 0.386568 0 0 0.386568 0 0.1 0.39066 0 0
0.39066 0 0.1 0.394794 0 0 0.394794 0 0.1 0.398971
0 0 0.398971 0 0.1 0.403192 0 0 0.403192 0
0.1 0.407457 0 0 0.407457 0 0.1 0.411766 0 0
0.411766 0 0.1 0.416121 0 0 0.416121 0 0.1 0.42052
0 0 0.42052 0 0.1 0.424966 0 0 0.424966 0
0.1 0.429458 0 0 0.429458 0 0.1 0.433997 0 0
0.433997 0 0.1 0.438583 0 0 0.438583 0 0.1 0.443217
0 0 0.443217 0 0.1 0.447899 0 0 0.447899 0
0.1 0.45263 0 0 0.45263 0 0.1 0.457411 0 0
0.457411 0 0.1 0.462241 0 0 0.462241 0 0.1 0.467122
0 0 0.467122 0 0.1 0.472053 0 0 0.472053 0
0.1 0.477036 0 0 0.477036 0 0.1 0.482071 0 0
0.482071 0 0.1 0.487159 0 0 0.487159 0 0.1 0.492299
0 0 0.492299 0 0.1 0.497493 0 0 0.497493 0
0.1 0.502742 0 0 0.502742 0 0.1 0.508045 0 0
0.508045 0 0.1 0.513403 0 0 0.513403 0 0.1 0.518817
0 0 0.518817 0 0.1 0.524288 0 0 0.524288 0
0.1 0.529816 0 0 0.529816 0 0.1 0.535401 0 0
0.535401 0 0.1 0.541045 0 0 0.541045 0 0.1 0.546748
0 0 0.546748 0 0.1 0.55251 0 0 0.55251 0
0.1 0.558332 0 0 0.558332 0 0.1 0.564215 0 0
0.564215 0 0.1 0.570159 0 0 0.570159 0 0.1 0.576165
0 0 0.576165 0 0.1 0.582234 0 0 0.582234 0
0.1 0.588366 0 0 0.588366 0 0.1 0.594562 0 0
0.594562 0 0.1 0.600822 0 0 0.600822 0 0.1 0.607148
0 0 0.607148 0 0.1 0.61354 0 0 0.61354 0
0.1 0.619999 0 0 0.619999 0 0.1 0.626525 0 0
0.626525 0 0.1 0.633119 0 0 0.633119 0 0.1 0.639782
0 0 0.639782 0 0.1 0.646514 0 0 0.646514 0
0.1 0.653316 0 0 0.653316 0 0.1 0.66019 0 0
0.66019 0 0.1 0.667135 0 0 0.667135 0 0.1 0.674152
0 0 0.674152 0 0.1 0.681243 0 0 0.681243 0
0.1 0.688408 0 0 0.688408 0 0.1 0.695647 0 0
0.695647 0 0.1 0.702962 0 0 0.702962 0 0.1 0.710353
0 0 0.710353 0 0.1 0.717821 0 0 0.717821 0
0.1 0.725367 0 0 0.725367 0 0.1 0.732992 0 0
0.732992 0 0.1 0.740697 0 0 0.740697 0 0.1 0.748481
0 0 0.748481 0 0.1 0.756347 0 0 0.756347 0
0.1 0.764295 0 0 0.764295 0 0.1 0.772326 0 0
0.772326 0 0.1 0.78044 0 0 0.78044 0 0.1 0.78864
0 0 0.78864 0 0.1 0.796924 0 0 0.796924 0
0.1 0.805295 0 0 0.805295 0 0.1 0.813754 0 0
0.813754 0 0.1 0.8223 0 0 0.8223 0 0.1 0.830936
0 0 0.830936 0 0.1 0.839662 0 0 0.839662 0
0.1 0.848479 0 0 0.848479 0 0.1 0.857387 0 0
0.857387 0 0.1 0.866389 0 0 0.866389 0 0.1 0.875485
0 0 0.875485 0 0.1 0.884675 0 0 0.884675 0
0.1 0.893961 0 0 0.893961 0 0.1 0.903344 0 0
0.903344 0 0.1 0.912825 0 0 0.912825 0 0.1 0.922405
0 0 0.922405 0 0.1 0.932085 0 0 0.932085 0
0.1 0.941865 0 0 0.941865 0 0.1 0.951748 0 0
0.951748 0 0.1 0.961734 0 0 0.961734 0 0.1 0.971824
0 0 0.971824 0 0.1 0.982019 0 0 0.982019 0
0.1 0.99232 0 0 0.99232 0 0.1 1.00273 0 0
1.00273 0 0.1 1.01325 0 0 1.01325 0 0.1 1.02387
0 0 1.02387 0 0.1 1.03461 0 0 1.03461 0
0.1 1.04546 0 0 1.04546 0 0.1 1.05642 0 0
1.05642 0 0.1 1.0675 0 0 1.0675 0 0.1 1.07869
0 0 1.07869 0 0.1 1.09 0 0 1.09 0
0.1 1.10143 0 0 1.10143 0 0.1 1.11298 0 0
1.11298 0 0.1 1.12465 0 0 1.12465 0 0.1 1.13644
0 0 1.13644 0 0.1 1.14835 0 0 1.14835 0
0.1 1.16038 0 0 1.16038 0 0.1 1.17254 0 0
1.17254 0 0.1 1.18483 0 0 1.18483 0 0.1 1.19725
0 0 1.19725 0 0.1 1.2098 0 0 1.2098 0
0.1 1.22247 0 0 1.22247 0 0.1 1.23528 0 0
1.23528 0 0.1 1.24822 0 0 1.24822 0 0.1 1.2613
0 0 1.2613 0 0.1 1.27452 0 0 1.27452 0
0.1 1.28787 0 0 1.28787 0 0.1 1.30136 0 0
1.30136 0 0.1 1.31499 0 0 1.31499 0 0.1 1.32877
0 0 1.32877 0 0.1 1.34268 0 0 1.34268 0
0.1 1.35675 0 0 1.35675 0 0.1 1.37095 0 0
1.37095 0 0.1 1.38531 0 0 1.38531 0 0.1 1.39982
0 0 1.39982 0 0.1 1.41448 0 0 1.41448 0
0.1 1.42929 0 0 1.42929 0 0.1 1.44426 0 0
1.44426 0 0.1 1.45938 0 0 1.45938 0 0.1 1.47466
0 0 1.47466 0 0.1 1.4901 0 0 1.4901 0
0.1 1.5057 0 0 1.5057 0 0.1 1.52146 0 0
1.52146 0 0.1 1.53739 0 0 1.53739 0 0.1 1.55348
0 0 1.55348 0 0.1 1.56974 0 0 1.56974 0
0.1 1.58617 0 0 1.58617 0 0.1 1.60278 0 0
1.60278 0 0.1 1.61955 0 0 1.61955 0 0.1 1.6365
0 0 1.6365 0 0.1 1.65363 0 0 1.65363 0
0.1 1.67093 0 0 1.67093 0 0.1 1.68842 0 0
1.68842 0 0.1 1.70609 0 0 1.70609 0 0.1 1.72394
0 0 1.72394 0 0.1 1.74198 0 0 1.74198 0
0.1 1.76021 0 0 1.76021 0 0.1 1.77862 0 0
1.77862 0 0.1 1.79723 0 0 1.79723 0 0.1 1.81604
0 0 1.81604 0 0.1 1.83504 0 0 1.83504 0
0.1 1.85423 0 0 1.85423 0 0.1 1.87363 0 0
1.87363 0 0.1 1.89323 0 0 1.89323 0 0.1 1.91304
0 0 1.91304 0 0.1 1.93305 0 0 1.93305 0
0.1 1.95327 0 0 1.95327 0 0.1 1.9737 0 0
1.9737 0 0.1 1.99434 0 0 1.99434 0 0.1 2.0152
0 0 2.0152 0 0.1 2.03628 0 0 2.03628 0
0.1 2.05757 0 0 2.05757 0 0.1 2.07909 0 0
2.07909 0 0.1 2.10083 0 0 2.10083 0 0.1 2.1228
0 0 2.1228 0 0.1 2.145 0 0 2.145 0
0.1 2.16743 0 0 2.16743 0 0.1 2.1901 0 0
2.1901 0 0.1 2.213 0 0 2.213 0 0.1 2.23614
0 0 2.23614 0 0.1 2.25952 0 0 2.25952 0
0.1 2.28314 0 0 2.28314 0 0.1 2.30701 0 0
2.30701 0 0.1 2.33113 0 0 2.33113 0 0.1 2.3555
0 0 2.3555 0 0.1 2.38013 0 0 2.38013 0
0.1 2.40501 0 0 2.40501 0 0.1 2.43015 0 0
2.43015 0 0.1 2.45556 0 0 2.45556 0 0.1 2.48122
0 0 2.48122 0 0.1 2.50716 0 0 2.50716 0
0.1 2.53337 0 0 2.53337 0 0.1 2.55985 0 0
2.55985 0 0.1 2.58661 0 0 2.58661 0 0.1 2.61364
0 0 2.61364 0 0.1 2.64096 0 0 2.64096 0
0.1 2.66856 0 0 2.66856 0 0.1 2.69645 0 0
2.69645 0 0.1 2.72463 0 0 2.72463 0 0.1 2.75311
0 0 2.75311 0 0.1 2.78188 0 0 2.78188 0
0.1 2.81095 0 0 2.81095 0 0.1 2.84033 0 0
2.84033 0 0.1 2.87001 0 0 2.87001 0 0.1 2.9
0 0 2.9 0 0.1 
POLYGONS 600 3000
4 0 1 2 3 4 1 4 5 2 4
4 6 7 5 4 6 8 9 7 4
8 10 11 9 4 10 12 13 11 4
12 14 15 13 4 14 16 17 15 4
16 18 19 17 4 18 20 21 19 4
20 22 23 21 4 22 24 25 23 4
24 26 27 25 4 26 28 29 27 4
28 30 31 29 4 30 32 33 31 4
32 34 35 33 4 34 36 37 35 4
36 38 39 37 4 38 40 41 39 4
40 42 43 41 4 42 44 45 43 4
44 46 47 45 4 46 48 49 47 4
48 50 51 49 4 50 52 53 51 4
52 54 55 53 4 54 56 57 55 4
56 58 59 57 4 58 60 61 59 4
60 62 63 61 4 62 64 65 63 4
64 66 67 65 4 66 68 69 67 4
68 70 71 69 4 70 72 73 71 4
72 74 75 73 4 74 76 77 75 4
76 78 79 77 4 78 80 81 79 4
80 82 83 81 4 82 84 85 83 4
84 86 87 85 4 86 88 89 87 4
88 90 91 89 4 90 92 93 91 4
92 94 95 93 4 94 96 97 95 4
96 98 99 97 4 98 100 101 99 4
100 102 103 101 4 102 104 105 103 4
104 106 107 105 4 106 108 109 107 4
108 110 111 109 4 110 112 113 111 4
112 114 115 113 4 114 116 117 115 4
116 118 119 117 4 118 120 121 119 4
120 122 123 121 4 122 124 125 123 4
124 126 127 125 4 126 128 129 127 4
128 130 131 129 4 130 132 133 131 4
132 134 135 133 4 134 136 137 135 4
136 138 139 137 4 138 140 141 139 4
140 142 143 141 4 142 144 145 143 4
144 146 147 145 4 146 148 149 147 4
148 150 151 149 4 150 152 153 151 4
152 154 155 153 4 154 156 157 155 4
156 158 159 157 4 158 160 161 159 4
160 162 163 161 4 162 164 165 163 4
164 166 167 165 4 166 168 169 167 4
168 170 171 169 4 170 172 173 171 4
172 174 175 173 4 174 176 177 175 4
176 178 179 177 4 178 180 181 179 4
180 182 183 181 4 182 184 185 183 4
184 186 187 185 4 186 188 189 187 4
188 190 191 189 4 190 192 193 191 4
192 194 195 193 4 194 196 197 195 4
196 198 199 197 4 198 200 201 199 4
200 202 203 201 4 202 204 205 203 4
204 206 207 205 4 206 208 209 207 4
208 210 211 209 4 210 212 213 211 4
212 214 215 213 4 214 216 217 215 4
216 218 219 217 4 218 220 221 219 4
220 222 223 221 4 222 224 225 223 4
224 226 227 225 4 226 228 229 227 4
228 230 231 229 4 230 232 233 231 4
232 234 235 233 4 234 236 237 235 4
236 238 239 237 4 238 240 241 239 4
240 242 243 241 4 242 244 245 243 4
244 246 247 245 4 246 248 249 247 4
248 250 251 249 4 250 252 253 251 4
252 254 255 253 4 254 256 257 255 4
256 258 259 257 4 258 260 261 259 4
260 262 263 261 4 262 264 265 263 4
264 266 267 265 4 266 268 269 267 4
268 270 271 269 4 270 272 273 271 4
272 274 275 273 4 274 276 277 275 4
276 278 279 277 4 278 280 281 279 4
280 282 283 281 4 282 284 285 283 4
284 286 287 285 4 286 288 289 287 4
288 290 291 289 4 290 292 293 291 4
292 294 295 293 4 294 296 297 295 4
296 298 299 297 4 298 300 301 299 4
300 302 303 301 4 302 304 305 303 4
304 306 307 305 4 306 308 309 307 4
308 310 311 309 4 310 312 313 311 4
312 314 315 313 4 314 316 317 315 4
316 318 319 317 4 318 320 321 319 4
320 322 323 321 4 322 324 325 323 4
324 326 327 325 4 326 328 329 327 4
328 330 331 329 4 330 332 333 331 4
332 334 335 333 4 334 336 337 335 4
336 338 339 337 4 338 340 341 339 4
340 342 343 341 4 342 344 345 343 4
344 346 347 345 4 346 348 349 347 4
348 350 351 349 4 350 352 353 351 4
352 354 355 353 4 354 356 357 355 4
356 358 359 357 4 358 360 361 359 4
360 362 363 361 4 362 364 365 363 4
364 366 367 365 4 366 368 369 367 4
368 370 371 369 4 370 372 373 371 4
372 374 375 373 4 374 376 377 375 4
376 378 379 377 4 378 380 381 379 4
380 382 383 381 4 382 384 385 383 4
384 386 387 385 4 386 388 389 387 4
388 390 391 389 4 390 392 393 391 4
392 394 395 393 4 394 396 397 395 4
396 398 399 397 4 398 400 401 399 4
400 402 403 401 4 402 404 405 403 4
404 406 407 405 4 406 408 409 407 4
408 410 411 409 4 410 412 413 411 4
412 414 415 413 4 414 416 417 415 4
416 418 419 417 4 418 420 421 419 4
420 422 423 421 4 422 424 425 423 4
424 426 427 425 4 426 428 429 427 4
428 430 431 429 4 430 432 433 431 4
432 434 435 433 4 434 436 437 435 4
436 438 439 437 4 438 440 441 439 4
440 442 443 441 4 442 444 445 443 4
444 446 447 445 4 446 448 449 447 4
448 450 451 449 4 450 452 453 451 4
452 454 455 453 4 454 456 457 455 4
456 458 459 457 4 458 460 461 459 4
460 462 463 461 4 462 464 465 463 4
464 466 467 465 4 466 468 469 467 4
468 470 471 469 4 470 472 473 471 4
472 474 475 473 4 474 476 477 475 4
476 478 479 477 4 478 480 481 479 4
480 482 483 481 4 482 484 485 483 4
484 486 487 485 4 486 488 489 487 4
488 490 491 489 4 490 492 493 491 4
492 494 495 493 4 494 496 497 495 4
496 498 499 497 4 498 500 501 499 4
500 502 503 501 4 502 504 505 503 4
504 506 507 505 4 506 508 509 507 4
508 510 511 509 4 510 512 513 511 4
512 514 515 513 4 514 516 517 515 4
516 518 519 517 4 518 520 521 519 4
520 522 523 521 4 522 524 525 523 4
524 526 527 525 4 526 528 529 527 4
528 530 531 529 4 530 532 533 531 4
532 534 535 533 4 534 536 537 535 4
536 538 539 537 4 538 540 541 539 4
540 542 543 541 4 542 544 545 543 4
544 546 547 545 4 546 548 549 547 4
548 550 551 549 4 550 552 553 551 4
552 554 555 553 4 554 556 557 555 4
556 558 559 557 4 558 560 561 559 4
560 562 563 561 4 562 564 565 563 4
564 566 567 565 4 566 568 569 567 4
568 570 571 569 4 570 572 573 571 4
572 574 575 573 4 574 576 577 575 4
576 578 579 577 4 578 580 581 579 4
580 582 583 581 4 582 584 585 583 4
584 586 587 585 4 586 588 589 587 4
588 590 591 589 4 590 592 593 591 4
592 594 595 593 4 594 596 597 595 4
596 598 599 597 4 598 600 601 599 4
600 602 603 601 4 602 604 605 603 4
604 606 607 605 4 606 608 609 607 4
608 610 611 609 4 610 612 613 611 4
612 614 615 613 4 614 616 617 615 4
616 618 619 617 4 618 620 621 619 4
620 622 623 621 4 622 624 625 623 4
624 626 627 625 4 626 628 629 627 4
628 630 631 629 4 630 632 633 631 4
632 634 635 633 4 634 636 637 635 4
636 638 639 637 4 638 640 641 639 4
640 642 643 641 4 642 644 645 643 4
644 646 647 645 4 646 648 649 647 4
648 650 651 649 4 650 652 653 651 4
652 654 655 653 4 654 656 657 655 4
656 658 659 657 4 658 660 661 659 4
660 662 663 661 4 662 664 665 663 4
664 666 667 665 4 666 668 669 667 4
668 670 671 669 4 670 672 673 671 4
672 674 675 673 4 674 676 677 675 4
676 678 679 677 4 678 680 681 679 4
680 682 683 681 4 682 684 685 683 4
684 686 687 685 4 686 688 689 687 4
688 690 691 689 4 690 692 693 691 4
692 694 695 693 4 694 696 697 695 4
696 698 699 697 4 698 700 701 699 4
700 702 703 701 4 702 704 705 703 4
704 706 707 705 4 706 708 709 707 4
708 710 711 709 4 710 712 713 711 4
712 714 715 713 4 714 716 717 715 4
716 718 719 717 4 718 720 721 719 4
720 722 723 721 4 722 724 725 723 4
724 726 727 725 4 726 728 729 727 4
728 730 731 729 4 730 732 733 731 4
732 734 735 733 4 734 736 737 735 4
736 738 739 737 4 738 740 741 739 4
740 742 743 741 4 742 744 745 743 4
744 746 747 745 4 746 748 749 747 4
748 750 751 749 4 750 752 753 751 4
752 754 755 753 4 754 756 757 755 4
756 758 759 757 4 758 760 761 759 4
760 762 763 761 4 762 764 765 763 4
764 766 767 765 4 766 768 769 767 4
768 770 771 769 4 770 772 773 771 4
772 774 775 773 4 774 776 777 775 4
776 778 779 777 4 778 780 781 779 4
780 782 783 781 4 782 784 785 783 4
784 786 787 785 4 786 788 789 787 4
788 790 791 789 4 790 792 793 791 4
792 794 795 793 4 794 796 797 795 4
796 798 799 797 4 798 800 801 799 4
800 802 803 801 4 802 804 805 803 4
804 806 807 805 4 806 808 809 807 4
808 810 811 809 4 810 812 813 811 4
812 814 815 813 4 814 816 817 815 4
816 818 819 817 4 818 820 821 819 4
820 822 823 821 4 822 824 825 823 4
824 826 827 825 4 826 828 829 827 4
828 830 831 829 4 830 832 833 831 4
832 834 835 833 4 834 836 837 835 4
836 838 839 837 4 838 840 841 839 4
840 842 843 841 4 842 844 845 843 4
844 846 847 845 4 846 848 849 847 4
848 850 851 849 4 850 852 853 851 4
852 854 855 853 4 854 856 857 855 4
856 858 859 857 4 858 860 861 859 4
860 862 863 861 4 862 864 865 863 4
864 866 867 865 4 866 868 869 867 4
868 870 871 869 4 870 872 873 871 4
872 874 875 873 4 874 876 877 875 4
876 878 879 877 4 878 880 881 879 4
880 882 883 881 4 882 884 885 883 4
884 886 887 885 4 886 888 889 887 4
888 890 891 889 4 890 892 893 891 4
892 894 895 893 4 894 896 897 895 4
896 898 899 897 4 898 900 901 899 4
900 902 903 901 4 902 904 905 903 4
904 906 907 905 4 906 908 909 907 4
908 910 911 909 4 910 912 913 911 4
912 914 915 913 4 914 916 917 915 4
916 918 919 917 4 918 920 921 919 4
920 922 923 921 4 922 924 925 923 4
924 926 927 925 4 926 928 929 927 4
928 930 931 929 4 930 932 933 931 4
932 934 935 933 4 934 936 937 935 4
936 938 939 937 4 938 940 941 939 4
940 942 943 941 4 942 944 945 943 4
944 946 947 945 4 946 948 949 947 4
948 950 951 949 4 950 952 953 951 4
952 954 955 953 4 954 956 957 955 4
956 958 959 957 4 958 960 961 959 4
960 962 963 961 4 962 964 965 963 4
964 966 967 965 4 966 968 969 967 4
968 970 971 969 4 970 972 973 971 4
972 974 975 973 4 974 976 977 975 4
976 978 979 977 4 978 980 981 979 4
980 982 983 981 4 982 984 985 983 4
984 986 987 985 4 986 988 989 987 4
988 990 991 989 4 990 992 993 991 4
992 994 995 993 4 994 996 997 995 4
996 998 999 997 4 998 1000 1001 999 4
1000 1002 1003 1001 4 1002 1004 1005 1003 4
1004 1006 1007 1005 4 1006 1008 1009 1007 4
1008 1010 1011 1009 4 1010 1012 1013 1011 4
1012 1014 1015 1013 4 1014 1016 1017 1015 4
1016 1018 1019 1017 4 1018 1020 1021 1019 4
1020 1022 1023 1021 4 1022 1024 1025 1023 4
1024 1026 1027 1025 4 1026 1028 1029 1027 4
1028 1030 1031 1029 4 1030 1032 1033 1031 4
1032 1034 1035 1033 4 1034 1036 1037 1035 4
1036 1038 1039 1037 4 1038 1040 1041 1039 4
1040 1042 1043 1041 4 1042 1044 1045 1043 4
1044 1046 1047 1045 4 1046 1048 1049 1047 4
1048 1050 1051 1049 4 1050 1052 1053 1051 4
1052 1054 1055 1053 4 1054 1056 1057 1055 4
1056 1058 1059 1057 4 1058 1060 1061 1059 4
1060 1062 1063 1061 4 1062 1064 1065 1063 4
1064 1066 1067 1065 4 1066 1068 1069 1067 4
1068 1070 1071 1069 4 1070 1072 1073 1071 4
1072 1074 1075 1073 4 1074 1076 1077 1075 4
1076 1078 1079 1077 4 1078 1080 1081 1079 4
1080 1082 1083 1081 4 1082 1084 1085 1083 4
1084 1086 1087 1085 4 1086 1088 1089 1087 4
1088 1090 1091 1089 4 1090 1092 1093 1091 4
1092 1094 1095 1093 4 1094 1096 1097 1095 4
1096 1098 1099 1097 4 1098 1100 1101 1099 4
1100 1102 1103 1101 4 1102 1104 1105 1103 4
1104 1106 1107 1105 4 1106 1108 1109 1107 4
1108 1110 1111 1109 4 1110 1112 1113 1111 4
1112 1114 1115 1113 4 1114 1116 1117 1115 4
1116 1118 1119 1117 4 1118 1120 1121 1119 4
1120 1122 1123 1121 4 1122 1124 1125 1123 4
1124 1126 1127 1125 4 1126 1128 1129 1127 4
1128 1130 1131 1129 4 1130 1132 1133 1131 4
1132 1134 1135 1133 4 1134 1136 1137 1135 4
1136 1138 1139 1137 4 1138 1140 1141 1139 4
1140 1142 1143 1141 4 1142 1144 1145 1143 4
1144 1146 1147 1145 4 1146 1148 1149 1147 4
1148 1150 1151 1149 4 1150 1152 1153 1151 4
1152 1154 1155 1153 4 1154 1156 1157 1155 4
1156 1158 1159 1157 4 1158 1160 1161 1159 4
1160 1162 1163 1161 4 1162 1164 1165 1163 4
1164 1166 1167 1165 4 1166 1168 1169 1167 4
1168 1170 1171 1169 4 1170 1172 1173 1171 4
1172 1174 1175 1173 4 1174 1176 1177 1175 4
1176 1178 1179 1177 4 1178 1180 1181 1179 4
1180 1182 1183 1181 4 1182 1184 1185 1183 4
1184 1186 1187 1185 4 1186 1188 1189 1187 4
1188 1190 1191 1189 4 1190 1192 1193 1191 4
1192 1194 1195 1193 4 1194 1196 1197 1195 4
1196 1198 1199 1197 4 1198 1200 1201 1199 
POINT_DATA 1202
FIELD attributes 1
U 3 1202 float
1.4376 0.032128 0 0.806529 0.0219864 0 0.806529 0.0219864 0 1.4376 0.032128
0 0.150728 0.00767154 0 0.150728 0.00767154 0 0.110881 0.00226244 0
0.110881 0.00226244 0 0.0875094 0.000684792 0 0.0875094 0.000684792 0 0.0745567
0.000264533 0 0.0745567 0.000264533 0 0.0667125 0.00017371 0 0.0667125 0.00017371
0 0.0611675 0.00015266 0 0.0611675 0.00015266 0 0.0568505 0.000132314 0
0.0568505 0.000132314 0 0.0533535 0.000110131 0 0.0533535 0.000110131 0 0.0504522
9.24646e-05 0 0.0504522 9.24646e-05 0 0.0479877 8.00335e-05 0 0.0479877 8.00335e-05
0 0.0458493 7.05804e-05 0 0.0458493 7.05804e-05 0 0.0439646 6.29018e-05 0
0.0439646 6.29018e-05 0 0.0422842 5.64674e-05 0 0.0422842 5.64674e-05 0 0.0407728
5.09754e-05 0 0.0407728 5.09754e-05 0 0.0394038 4.62277e-05 0 0.0394038 4.62277e-05
0 0.0381565 4.20875e-05 0 0.0381565 4.20875e-05 0 0.0370143 3.84541e-05 0
0.0370143 3.84541e-05 0 0.0359638 3.525e-05 0 0.0359638 3.525e-05 0 0.0349937
3.24127e-05 0 0.0349937 3.24127e-05 0 0.0340945 2.98912e-05 0 0.0340945 2.98912e-05
0 0.0332584 2.76424e-05 0 0.0332584 2.76424e-05 0 0.0324785 2.56303e-05 0
0.0324785 2.56303e-05 0 0.031749 2.38241e-05 0 0.031749 2.38241e-05 0 0.0310647
2.21976e-05 0 0.0310647 2.21976e-05 0 0.0304212 2.07285e-05 0 0.0304212 2.07285e-05
0 0.0298148 1.93973e-05 0 0.0298148 1.93973e-05 0 0.0292421 1.81877e-05 0
0.0292421 1.81877e-05 0 0.0287 1.70852e-05 0 0.0287 1.70852e-05 0 0.0281859
1.60781e-05 0 0.0281859 1.60781e-05 0 0.0276977 1.51557e-05 0 0.0276977 1.51557e-05
0 0.0272331 1.43084e-05 0 0.0272331 1.43084e-05 0 0.0267902 1.35336e-05 0
0.0267902 1.35336e-05 0 0.0263676 1.28139e-05 0 0.0263676 1.28139e-05 0 0.0259634
1.21718e-05 0 0.0259634 1.21718e-05 0 0.0255763 1.15385e-05 0 0.0255763 1.15385e-05
0 0.0252061 1.08138e-05 0 0.0252061 1.08138e-05 0 0.0248519 1.01818e-05 0
0.0248519 1.01818e-05 0 0.0245111 9.7536e-06 0 0.0245111 9.7536e-06 0 0.0241815
9.40128e-06 0 0.0241815 9.40128e-06 0 0.0238622 9.05317e-06 0 0.0238622 9.05317e-06
0 0.0235529 8.70265e-06 0 0.0235529 8.70265e-06 0 0.0232537 8.35299e-06 0
0.0232537 8.35299e-06 0 0.0229642 8.00872e-06 0 0.0229642 8.00872e-06 0 0.0226843
7.67402e-06 0 0.0226843 7.67402e-06 0 0.0224137 7.35168e-06 0 0.0224137 7.35168e-06
0 0.0221519 7.04312e-06 0 0.0221519 7.04312e-06 0 0.0218987 6.74878e-06 0
0.0218987 6.74878e-06 0 0.0216536 6.46859e-06 0 0.0216536 6.46859e-06 0 0.0214163
6.2023e-06 0 0.0214163 6.2023e-06 0 0.0211864 5.94963e-06 0 0.0211864 5.94963e-06
0 0.0209635 5.71023e-06 0 0.0209635 5.71023e-06 0 0.0207474 5.48368e-06 0
0.0207474 5.48368e-06 0 0.0205376 5.2695e-06 0 0.0205376 5.2695e-06 0 0.0203339
5.06713e-06 0 0.0203339 5.06713e-06 0 0.0201358 4.87599e-06 0 0.0201358 4.87599e-06
0 0.0199431 4.69553e-06 0 0.0199431 4.69553e-06 0 0.0197556 4.52515e-06 0
0.0197556 4.52515e-06 0 0.0195728 4.36435e-06 0 0.0195728 4.36435e-06 0 0.0193946
4.21257e-06 0 0.0193946 4.21257e-06 0 0.0192207 4.06937e-06 0 0.0192207 4.06937e-06
0 0.0190509 3.93419e-06 0 0.0190509 3.93419e-06 0 0.0188848 3.80668e-06 0
0.0188848 3.80668e-06 0 0.0187223 3.68631e-06 0 0.0187223 3.68631e-06 0 0.0185631
3.57283e-06 0 0.0185631 3.57283e-06 0 0.0184071 3.46577e-06 0 0.0184071 3.46577e-06
0 0.0182541 3.36495e-06 0 0.0182541 3.36495e-06 0 0.0181037 3.26993e-06 0
0.0181037 3.26993e-06 0 0.017956 3.18059e-06 0 0.017956 3.18059e-06 0 0.0178105
3.0965e-06 0 0.0178105 3.0965e-06 0 0.0176673 3.01756e-06 0 0.0176673 3.01756e-06
0 0.0175261 2.94342e-06 0 0.0175261 2.94342e-06 0 0.0173868 2.87381e-06 0
0.0173868 2.87381e-06 0 0.0172491 2.80881e-06 0 0.0172491 2.80881e-06 0 0.017113
2.74777e-06 0 0.017113 2.74777e-06 0 0.0169783 2.69154e-06 0 0.0169783 2.69154e-06
0 0.0168448 2.63995e-06 0 0.0168448 2.63995e-06 0 0.0167123 2.59336e-06 0
0.0167123 2.59336e-06 0 0.016581 2.52553e-06 0 0.016581 2.52553e-06 0 0.0164512
2.44784e-06 0 0.0164512 2.44784e-06 0 0.0163221 2.41713e-06 0 0.0163221 2.41713e-06
0 0.0161927 2.41562e-06 0 0.0161927 2.41562e-06 0 0.0160627 2.40658e-06 0
0.0160627 2.40658e-06 0 0.0159324 2.38978e-06 0 0.0159324 2.38978e-06 0 0.015802
2.36671e-06 0 0.015802 2.36671e-06 0 0.0156719 2.3395e-06 0 0.0156719 2.3395e-06
0 0.015542 2.30979e-06 0 0.015542 2.30979e-06 0 0.0154126 2.27865e-06 0
0.0154126 2.27865e-06 0 0.0152836 2.24671e-06 0 0.0152836 2.24671e-06 0 0.0151553
2.21435e-06 0 0.0151553 2.21435e-06 0 0.0150275 2.18177e-06 0 0.0150275 2.18177e-06
0 0.0149005 2.14904e-06 0 0.0149005 2.14904e-06 0 0.0147741 2.11616e-06 0
0.0147741 2.11616e-06 0 0.0146486 2.08308e-06 0 0.0146486 2.08308e-06 0 0.0145239
2.04973e-06 0 0.0145239 2.04973e-06 0 0.0144001 2.01603e-06 0 0.0144001 2.01603e-06
0 0.0142773 1.98186e-06 0 0.0142773 1.98186e-06 0 0.0141556 1.94713e-06 0
0.0141556 1.94713e-06 0 0.014035 1.91171e-06 0 0.014035 1.91171e-06 0 0.0139158
1.87551e-06 0 0.0139158 1.87551e-06 0 0.0137978 1.83837e-06 0 0.0137978 1.83837e-06
0 0.0136813 1.80023e-06 0 0.0136813 1.80023e-06 0 0.0135664 1.76094e-06 0
0.0135664 1.76094e-06 0 0.0134532 1.72051e-06 0 0.0134532 1.72051e-06 0 0.0133417
1.67884e-06 0 0.0133417 1.67884e-06 0 0.0132321 1.63602e-06 0 0.0132321 1.63602e-06
0 0.0131246 1.59205e-06 0 0.0131246 1.59205e-06 0 0.0130191 1.54707e-06 0
0.0130191 1.54707e-06 0 0.0129157 1.50119e-06 0 0.0129157 1.50119e-06 0 0.0128146
1.45463e-06 0 0.0128146 1.45463e-06 0 0.0127158 1.40756e-06 0 0.0127158 1.40756e-06
0 0.0126194 1.36031e-06 0 0.0126194 1.36031e-06 0 0.0125254 1.313e-06 0
0.0125254 1.313e-06 0 0.0124337 1.26623e-06 0 0.0124337 1.26623e-06 0 0.0123444
1.22018e-06 0 0.0123444 1.22018e-06 0 0.0122575 1.17448e-06 0 0.0122575 1.17448e-06
0 0.0121727 1.1346e-06 0 0.0121727 1.1346e-06 0 0.0120903 1.08556e-06 0
0.0120903 1.08556e-06 0 0.0120106 1.02935e-06 0 0.0120106 1.02935e-06 0 0.0119328
9.98042e-07 0 0.0119328 9.98042e-07 0 0.0118561 9.80503e-07 0 0.0118561 9.80503e-07
0 0.0117805 9.57114e-07 0 0.0117805 9.57114e-07 0 0.0117061 9.30353e-07 0
0.0117061 9.30353e-07 0 0.0116332 9.01693e-07 0 0.0116332 9.01693e-07 0 0.0115617
8.7279e-07 0 0.0115617 8.7279e-07 0 0.0114918 8.44556e-07 0 0.0114918 8.44556e-07
0 0.0114233 8.17506e-07 0 0.0114233 8.17506e-07 0 0.0113562 7.91897e-07 0
0.0113562 7.91897e-07 0 0.0112904 7.67864e-07 0 0.0112904 7.67864e-07 0 0.0112258
7.45479e-07 0 0.0112258 7.45479e-07 0 0.0111623 7.24768e-07 0 0.0111623 7.24768e-07
0 0.0110997 7.05734e-07 0 0.0110997 7.05734e-07 0 0.011038 6.8835e-07 0
0.011038 6.8835e-07 0 0.0109771 6.72561e-07 0 0.0109771 6.72561e-07 0 0.0109169
6.58304e-07 0 0.0109169 6.58304e-07 0 0.0108572 6.45491e-07 0 0.0108572 6.45491e-07
0 0.010798 6.34036e-07 0 0.010798 6.34036e-07 0 0.0107392 6.23836e-07 0
0.0107392 6.23836e-07 0 0.0106807 6.14777e-07 0 0.0106807 6.14777e-07 0 0.0106225
6.06735e-07 0 0.0106225 6.06735e-07 0 0.0105644 5.9957e-07 0 0.0105644 5.9957e-07
0 0.0105066 5.93117e-07 0 0.0105066 5.93117e-07 0 0.0104488 5.8721e-07 0
0.0104488 5.8721e-07 0 0.0103912 5.81627e-07 0 0.0103912 5.81627e-07 0 0.0103338
5.76166e-07 0 0.0103338 5.76166e-07 0 0.0102765 5.7055e-07 0 0.0102765 5.7055e-07
0 0.0102194 5.6455e-07 0 0.0102194 5.6455e-07 0 0.0101627 5.57842e-07 0
0.0101627 5.57842e-07 0 0.0101063 5.50249e-07 0 0.0101063 5.50249e-07 0 0.0100505
5.41409e-07 0 0.0100505 5.41409e-07 0 0.00999524 5.31349e-07 0 0.00999524 5.31349e-07
0 0.00994074 5.197e-07 0 0.00994074 5.197e-07 0 0.00988711 5.06818e-07 0
0.00988711 5.06818e-07 0 0.00983441 4.92562e-07 0 0.00983441 4.92562e-07 0 0.00978282
4.76998e-07 0 0.00978282 4.76998e-07 0 0.00973216 4.62947e-07 0 0.00973216 4.62947e-07
0 0.00968271 4.43424e-07 0 0.00968271 4.43424e-07 0 0.00963473 4.21097e-07 0
0.00963473 4.21097e-07 0 0.00958757 4.10042e-07 0 0.00958757 4.10042e-07 0 0.00954065
4.04294e-07 0 0.00954065 4.04294e-07 0 0.00949388 3.961e-07 0 0.00949388 3.961e-07
0 0.00944745 3.87008e-07 0 0.00944745 3.87008e-07 0 0.00940139 3.77796e-07 0
0.00940139 3.77796e-07 0 0.0093557 3.69198e-07 0 0.0093557 3.69198e-07 0 0.00931032
3.61516e-07 0 0.00931032 3.61516e-07 0 0.00926519 3.54818e-07 0 0.00926519 3.54818e-07
0 0.00922028 3.48986e-07 0 0.00922028 3.48986e-07 0 0.00917554 3.43842e-07 0
0.00917554 3.43842e-07 0 0.00913097 3.3914e-07 0 0.00913097 3.3914e-07 0 0.00908659
3.34579e-07 0 0.00908659 3.34579e-07 0 0.00904245 3.29905e-07 0 0.00904245 3.29905e-07
0 0.00899863 3.2481e-07 0 0.00899863 3.2481e-07 0 0.00895524 3.19006e-07 0
0.00895524 3.19006e-07 0 0.0089124 3.1229e-07 0 0.0089124 3.1229e-07 0 0.00887025
3.04458e-07 0 0.00887025 3.04458e-07 0 0.00882894 2.95406e-07 0 0.00882894 2.95406e-07
0 0.00878863 2.85226e-07 0 0.00878863 2.85226e-07 0 0.00874941 2.74034e-07 0
0.00874941 2.74034e-07 0 0.00871139 2.62127e-07 0 0.00871139 2.62127e-07 0 0.00867459
2.50002e-07 0 0.00867459 2.50002e-07 0 0.00863901 2.38057e-07 0 0.00863901 2.38057e-07
0 0.00860458 2.26828e-07 0 0.00860458 2.26828e-07 0 0.00857117 2.16769e-07 0
0.00857117 2.16769e-07 0 0.00853866 2.08165e-07 0 0.00853866 2.08165e-07 0 0.00850686
2.011e-07 0 0.00850686 2.011e-07 0 0.00847565 1.95582e-07 0 0.00847565 1.95582e-07
0 0.00844488 1.91329e-07 0 0.00844488 1.91329e-07 0 0.00841448 1.87807e-07 0
0.00841448 1.87807e-07 0 0.00838442 1.84896e-07 0 0.00838442 1.84896e-07 0 0.00835472
1.81645e-07 0 0.00835472 1.81645e-07 0 0.00832544 1.78191e-07 0 0.00832544 1.78191e-07
0 0.00829661 1.74461e-07 0 0.00829661 1.74461e-07 0 0.00826834 1.70149e-07 0
0.00826834 1.70149e-07 0 0.00824055 1.65969e-07 0 0.00824055 1.65969e-07 0 0.00821347
1.60216e-07 0 0.00821347 1.60216e-07 0 0.00818705 1.55772e-07 0 0.00818705 1.55772e-07
0 0.00816076 1.55921e-07 0 0.00816076 1.55921e-07 0 0.00813443 1.56506e-07 0
0.00813443 1.56506e-07 0 0.0081083 1.54533e-07 0 0.0081083 1.54533e-07 0 0.00808275
1.50233e-07 0 0.00808275 1.50233e-07 0 0.00805803 1.44355e-07 0 0.00805803 1.44355e-07
0 0.00803435 1.37286e-07 0 0.00803435 1.37286e-07 0 0.0080119 1.28755e-07 0
0.0080119 1.28755e-07 0 0.00799086 1.19049e-07 0 0.00799086 1.19049e-07 0 0.00797133
1.08816e-07 0 0.00797133 1.08816e-07 0 0.00795339 9.8183e-08 0 0.00795339 9.8183e-08
0 0.00793709 8.71991e-08 0 0.00793709 8.71991e-08 0 0.00792242 7.64292e-08 0
0.00792242 7.64292e-08 0 0.00790931 6.6425e-08 0 0.00790931 6.6425e-08 0 0.00789763
5.73644e-08 0 0.00789763 5.73644e-08 0 0.00788727 4.94093e-08 0 0.00788727 4.94093e-08
0 0.00787808 4.26547e-08 0 0.00787808 4.26547e-08 0 0.00786997 3.672e-08 0
0.00786997 3.672e-08 0 0.00786287 3.10596e-08 0 0.00786287 3.10596e-08 0 0.00785674
2.5711e-08 0 0.00785674 2.5711e-08 0 0.00785147 2.12595e-08 0 0.00785147 2.12595e-08
0 0.00784693 1.79787e-08 0 0.00784693 1.79787e-08 0 0.007843 1.53509e-08 0
0.007843 1.53509e-08 0 0.0078397 1.25086e-08 0 0.0078397 1.25086e-08 0 0.00783706
8.92397e-09 0 0.00783706 8.92397e-09 0 0.00783512 4.83666e-09 0 0.00783512 4.83666e-09
0 0.00783376 1.39728e-09 0 0.00783376 1.39728e-09 0 0.0078327 7.52315e-11 0
0.0078327 7.52315e-11 0 0.00783158 1.28511e-09 0 0.00783158 1.28511e-09 0 0.00783021
3.86057e-09 0 0.00783021 3.86057e-09 0 0.00782857 6.38992e-09 0 0.00782857 6.38992e-09
0 0.00782673 8.48782e-09 0 0.00782673 8.48782e-09 0 0.00782485 1.00385e-08 0
0.00782485 1.00385e-08 0 0.00782315 9.97957e-09 0 0.00782315 9.97957e-09 0 0.00782206
7.0342e-09 0 0.00782206 7.0342e-09 0 0.00782193 1.71033e-09 0 0.00782193 1.71033e-09
0 0.00782284 -3.84245e-09 0 0.00782284 -3.84245e-09 0 0.00782458 -7.8234e-09 0
0.00782458 -7.8234e-09 0 0.00782692 -1.0088e-08 0 0.00782692 -1.0088e-08 0 0.00782971
-1.17317e-08 0 0.00782971 -1.17317e-08 0 0.00783297 -1.36582e-08 0 0.00783297 -1.36582e-08
0 0.00783677 -1.65364e-08 0 0.00783677 -1.65364e-08 0 0.00784119 -1.96737e-08 0
0.00784119 -1.96737e-08 0 0.00784595 -2.08298e-08 0 0.00784595 -2.08298e-08 0 0.0078505
-1.94361e-08 0 0.0078505 -1.94361e-08 0 0.00785454 -1.66628e-08 0 0.00785454 -1.66628e-08
0 0.00785802 -1.37072e-08 0 0.00785802 -1.37072e-08 0 0.00786109 -1.14288e-08 0
0.00786109 -1.14288e-08 0 0.00786394 -9.96938e-09 0 0.00786394 -9.96938e-09 0 0.00786672
-9.1355e-09 0 0.00786672 -9.1355e-09 0 0.00786961 -9.06915e-09 0 0.00786961 -9.06915e-09
0 0.00787284 -1.02524e-08 0 0.00787284 -1.02524e-08 0 0.00787665 -1.28216e-08 0
0.00787665 -1.28216e-08 0 0.00788115 -1.60395e-08 0 0.00788115 -1.60395e-08 0 0.00788625
-1.86104e-08 0 0.00788625 -1.86104e-08 0 0.00789165 -1.95807e-08 0 0.00789165 -1.95807e-08
0 0.00789703 -1.89797e-08 0 0.00789703 -1.89797e-08 0 0.00790225 -1.76648e-08 0
0.00790225 -1.76648e-08 0 0.00790734 -1.66174e-08 0 0.00790734 -1.66174e-08 0 0.00791243
-1.63415e-08 0 0.00791243 -1.63415e-08 0 0.00791769 -1.67499e-08 0 0.00791769 -1.67499e-08
0 0.00792316 -1.74437e-08 0 0.00792316 -1.74437e-08 0 0.00792886 -1.80559e-08 0
0.00792886 -1.80559e-08 0 0.00793473 -1.84246e-08 0 0.00793473 -1.84246e-08 0 0.00794072
-1.85742e-08 0 0.00794072 -1.85742e-08 0 0.00794679 -1.86083e-08 0 0.00794679 -1.86083e-08
0 0.00795294 -1.86154e-08 0 0.00795294 -1.86154e-08 0 0.00795918 -1.86358e-08 0
0.00795918 -1.86358e-08 0 0.00796549 -1.86725e-08 0 0.00796549 -1.86725e-08 0 0.00797189
-1.87118e-08 0 0.00797189 -1.87118e-08 0 0.00797836 -1.8741e-08 0 0.00797836 -1.8741e-08
0 0.00798491 -1.87544e-08 0 0.00798491 -1.87544e-08 0 0.00799154 -1.87518e-08 0
0.00799154 -1.87518e-08 0 0.00799823 -1.87363e-08 0 0.00799823 -1.87363e-08 0 0.00800498
-1.87112e-08 0 0.00800498 -1.87112e-08 0 0.00801179 -1.86789e-08 0 0.00801179 -1.86789e-08
0 0.00801866 -1.86405e-08 0 0.00801866 -1.86405e-08 0 0.00802559 -1.85961e-08 0
0.00802559 -1.85961e-08 0 0.00803258 -1.85465e-08 0 0.00803258 -1.85465e-08 0 0.00803962
-1.84926e-08 0 0.00803962 -1.84926e-08 0 0.00804672 -1.84343e-08 0 0.00804672 -1.84343e-08
0 0.00805386 -1.83719e-08 0 0.00805386 -1.83719e-08 0 0.00806106 -1.83031e-08 0
0.00806106 -1.83031e-08 0 0.00806831 -1.82263e-08 0 0.00806831 -1.82263e-08 0 0.0080756
-1.81054e-08 0 0.0080756 -1.81054e-08 0 0.00808293 -1.80322e-08 0 0.00808293 -1.80322e-08
0 0.00809032 -1.81226e-08 0 0.00809032 -1.81226e-08 0 0.0080978 -1.79738e-08 0
0.0080978 -1.79738e-08 0 0.00810515 -1.72616e-08 0 0.00810515 -1.72616e-08 0 0.00811222
-1.63742e-08 0 0.00811222 -1.63742e-08 0 0.00811904 -1.56771e-08 0 0.00811904 -1.56771e-08
0 0.00812569 -1.51916e-08 0 0.00812569 -1.51916e-08 0 0.00813224 -1.48678e-08 0
0.00813224 -1.48678e-08 0 0.00813875 -1.46554e-08 0 0.00813875 -1.46554e-08 0 0.00814525
-1.45172e-08 0 0.00814525 -1.45172e-08 0 0.00815178 -1.44282e-08 0 0.00815178 -1.44282e-08
0 0.00815834 -1.4372e-08 0 0.00815834 -1.4372e-08 0 0.00816496 -1.43373e-08 0
0.00816496 -1.43373e-08 0 0.00817163 -1.43167e-08 0 0.00817163 -1.43167e-08 0 0.00817836
-1.43056e-08 0 0.00817836 -1.43056e-08 0 0.00818516 -1.43001e-08 0 0.00818516 -1.43001e-08
0 0.00819203 -1.42976e-08 0 0.00819203 -1.42976e-08 0 0.00819897 -1.4297e-08 0
0.00819897 -1.4297e-08 0 0.00820598 -1.42972e-08 0 0.00820598 -1.42972e-08 0 0.00821307
-1.42972e-08 0 0.00821307 -1.42972e-08 0 0.00822023 -1.42961e-08 0 0.00822023 -1.42961e-08
0 0.00822747 -1.42939e-08 0 0.00822747 -1.42939e-08 0 0.00823478 -1.42904e-08 0
0.00823478 -1.42904e-08 0 0.00824217 -1.42853e-08 0 0.00824217 -1.42853e-08 0 0.00824963
-1.42783e-08 0 0.00824963 -1.42783e-08 0 0.00825716 -1.42693e-08 0 0.00825716 -1.42693e-08
0 0.00826477 -1.42588e-08 0 0.00826477 -1.42588e-08 0 0.00827245 -1.42463e-08 0
0.00827245 -1.42463e-08 0 0.00828021 -1.42318e-08 0 0.00828021 -1.42318e-08 0 0.00828804
-1.42155e-08 0 0.00828804 -1.42155e-08 0 0.00829594 -1.41975e-08 0 0.00829594 -1.41975e-08
0 0.00830391 -1.41778e-08 0 0.00830391 -1.41778e-08 0 0.00831196 -1.41562e-08 0
0.00831196 -1.41562e-08 0 0.00832007 -1.41326e-08 0 0.00832007 -1.41326e-08 0 0.00832826
-1.41071e-08 0 0.00832826 -1.41071e-08 0 0.00833652 -1.40799e-08 0 0.00833652 -1.40799e-08
0 0.00834485 -1.40509e-08 0 0.00834485 -1.40509e-08 0 0.00835324 -1.40197e-08 0
0.00835324 -1.40197e-08 0 0.00836171 -1.39854e-08 0 0.00836171 -1.39854e-08 0 0.00837024
-1.39477e-08 0 0.00837024 -1.39477e-08 0 0.00837884 -1.38949e-08 0 0.00837884 -1.38949e-08
0 0.0083875 -1.38411e-08 0 0.0083875 -1.38411e-08 0 0.00839622 -1.38531e-08 0
0.00839622 -1.38531e-08 0 0.00840504 -1.37963e-08 0 0.00840504 -1.37963e-08 0 0.00841382
-1.34366e-08 0 0.00841382 -1.34366e-08 0 0.00842236 -1.28979e-08 0 0.00842236 -1.28979e-08
0 0.00843065 -1.24247e-08 0 0.00843065 -1.24247e-08 0 0.00843877 -1.2076e-08 0
0.00843877 -1.2076e-08 0 0.00844677 -1.18318e-08 0 0.00844677 -1.18318e-08 0 0.00845473
-1.1662e-08 0 0.00845473 -1.1662e-08 0 0.00846268 -1.15426e-08 0 0.00846268 -1.15426e-08
0 0.00847064 -1.14567e-08 0 0.00847064 -1.14567e-08 0 0.00847863 -1.13935e-08 0
0.00847863 -1.13935e-08 0 0.00848666 -1.13454e-08 0 0.00848666 -1.13454e-08 0 0.00849475
-1.13073e-08 0 0.00849475 -1.13073e-08 0 0.0085029 -1.12759e-08 0 0.0085029 -1.12759e-08
0 0.00851112 -1.12488e-08 0 0.00851112 -1.12488e-08 0 0.0085194 -1.12238e-08 0
0.0085194 -1.12238e-08 0 0.00852774 -1.12004e-08 0 0.00852774 -1.12004e-08 0 0.00853616
-1.11779e-08 0 0.00853616 -1.11779e-08 0 0.00854465 -1.1155e-08 0 0.00854465 -1.1155e-08
0 0.00855321 -1.1132e-08 0 0.00855321 -1.1132e-08 0 0.00856184 -1.11083e-08 0
0.00856184 -1.11083e-08 0 0.00857054 -1.10836e-08 0 0.00857054 -1.10836e-08 0 0.00857931
-1.10582e-08 0 0.00857931 -1.10582e-08 0 0.00858816 -1.10318e-08 0 0.00858816 -1.10318e-08
0 0.00859707 -1.1004e-08 0 0.00859707 -1.1004e-08 0 0.00860606 -1.09754e-08 0
0.00860606 -1.09754e-08 0 0.00861511 -1.09457e-08 0 0.00861511 -1.09457e-08 0 0.00862423
-1.09147e-08 0 0.00862423 -1.09147e-08 0 0.00863342 -1.08826e-08 0 0.00863342 -1.08826e-08
0 0.00864268 -1.0849e-08 0 0.00864268 -1.0849e-08 0 0.00865201 -1.08146e-08 0
0.00865201 -1.08146e-08 0 0.0086614 -1.07794e-08 0 0.0086614 -1.07794e-08 0 0.00867086
-1.07428e-08 0 0.00867086 -1.07428e-08 0 0.00868039 -1.07049e-08 0 0.00868039 -1.07049e-08
0 0.00868998 -1.06654e-08 0 0.00868998 -1.06654e-08 0 0.00869964 -1.06244e-08 0
0.00869964 -1.06244e-08 0 0.00870935 -1.05796e-08 0 0.00870935 -1.05796e-08 0 0.00871913
-1.05274e-08 0 0.00871913 -1.05274e-08 0 0.00872896 -1.04985e-08 0 0.00872896 -1.04985e-08
0 0.00873888 -1.04523e-08 0 0.00873888 -1.04523e-08 0 0.00874879 -1.02519e-08 0
0.00874879 -1.02519e-08 0 0.00875853 -9.91422e-09 0 0.00875853 -9.91422e-09 0 0.00876801
-9.58067e-09 0 0.00876801 -9.58067e-09 0 0.00877731 -9.31729e-09 0 0.00877731 -9.31729e-09
0 0.00878647 -9.12179e-09 0 0.00878647 -9.12179e-09 0 0.00879557 -8.97742e-09 0
0.00879557 -8.97742e-09 0 0.00880464 -8.86878e-09 0 0.00880464 -8.86878e-09 0 0.0088137
-8.78463e-09 0 0.0088137 -8.78463e-09 0 0.00882278 -8.71715e-09 0 0.00882278 -8.71715e-09
0 0.0088319 -8.66134e-09 0 0.0088319 -8.66134e-09 0 0.00884105 -8.61322e-09 0
0.00884105 -8.61322e-09 0 0.00885025 -8.57075e-09 0 0.00885025 -8.57075e-09 0 0.0088595
-8.53219e-09 0 0.0088595 -8.53219e-09 0 0.00886881 -8.49589e-09 0 0.00886881 -8.49589e-09
0 0.00887818 -8.46123e-09 0 0.00887818 -8.46123e-09 0 0.00888761 -8.42732e-09 0
0.00888761 -8.42732e-09 0 0.00889709 -8.39409e-09 0 0.00889709 -8.39409e-09 0 0.00890664
-8.3609e-09 0 0.00890664 -8.3609e-09 0 0.00891625 -8.32773e-09 0 0.00891625 -8.32773e-09
0 0.00892592 -8.29463e-09 0 0.00892592 -8.29463e-09 0 0.00893565 -8.26122e-09 0
0.00893565 -8.26122e-09 0 0.00894545 -8.22731e-09 0 0.00894545 -8.22731e-09 0 0.0089553
-8.19303e-09 0 0.0089553 -8.19303e-09 0 0.00896522 -8.15809e-09 0 0.00896522 -8.15809e-09
0 0.0089752 -8.12274e-09 0 0.0089752 -8.12274e-09 0 0.00898523 -8.08723e-09 0
0.00898523 -8.08723e-09 0 0.00899533 -8.05084e-09 0 0.00899533 -8.05084e-09 0 0.00900549
-8.01398e-09 0 0.00900549 -8.01398e-09 0 0.0090157 -7.97677e-09 0 0.0090157 -7.97677e-09
0 0.00902597 -7.93898e-09 0 0.00902597 -7.93898e-09 0 0.0090363 -7.90035e-09 0
0.0090363 -7.90035e-09 0 0.00904669 -7.86029e-09 0 0.00904669 -7.86029e-09 0 0.00905713
-7.81691e-09 0 0.00905713 -7.81691e-09 0 0.00906762 -7.77779e-09 0 0.00906762 -7.77779e-09
0 0.00907817 -7.74218e-09 0 0.00907817 -7.74218e-09 0 0.00908877 -7.64838e-09 0
0.00908877 -7.64838e-09 0 0.00909927 -7.45237e-09 0 0.00909927 -7.45237e-09 0 0.00910955
-7.21515e-09 0 0.00910955 -7.21515e-09 0 0.00911961 -7.00829e-09 0 0.00911961 -7.00829e-09
0 0.00912951 -6.84702e-09 0 0.00912951 -6.84702e-09 0 0.00913932 -6.72366e-09 0
0.00913932 -6.72366e-09 0 0.00914907 -6.62789e-09 0 0.00914907 -6.62789e-09 0 0.0091588
-6.55118e-09 0 0.0091588 -6.55118e-09 0 0.00916853 -6.48803e-09 0 0.00916853 -6.48803e-09
0 0.00917828 -6.43442e-09 0 0.00917828 -6.43442e-09 0 0.00918804 -6.38741e-09 0
0.00918804 -6.38741e-09 0 0.00919785 -6.34524e-09 0 0.00919785 -6.34524e-09 0 0.00920769
-6.30616e-09 0 0.00920769 -6.30616e-09 0 0.00921757 -6.26928e-09 0 0.00921757 -6.26928e-09
0 0.0092275 -6.23427e-09 0 0.0092275 -6.23427e-09 0 0.00923748 -6.20034e-09 0
0.00923748 -6.20034e-09 0 0.00924751 -6.16699e-09 0 0.00924751 -6.16699e-09 0 0.00925759
-6.13422e-09 0 0.00925759 -6.13422e-09 0 0.00926772 -6.10171e-09 0 0.00926772 -6.10171e-09
0 0.0092779 -6.06935e-09 0 0.0092779 -6.06935e-09 0 0.00928814 -6.03739e-09 0
0.00928814 -6.03739e-09 0 0.00929842 -6.00524e-09 0 0.00929842 -6.00524e-09 0 0.00930876
-5.97295e-09 0 0.00930876 -5.97295e-09 0 0.00931915 -5.94061e-09 0 0.00931915 -5.94061e-09
0 0.00932959 -5.90771e-09 0 0.00932959 -5.90771e-09 0 0.00934008 -5.8746e-09 0
0.00934008 -5.8746e-09 0 0.00935062 -5.84134e-09 0 0.00935062 -5.84134e-09 0 0.00936121
-5.80787e-09 0 0.00936121 -5.80787e-09 0 0.00937185 -5.77448e-09 0 0.00937185 -5.77448e-09
0 0.00938253 -5.7404e-09 0 0.00938253 -5.7404e-09 0 0.00939327 -5.70472e-09 0
0.00939327 -5.70472e-09 0 0.00940405 -5.67171e-09 0 0.00940405 -5.67171e-09 0 0.00941488
-5.63584e-09 0 0.00941488 -5.63584e-09 0 0.00942573 -5.5557e-09 0 0.00942573 -5.5557e-09
0 0.00943647 -5.41184e-09 0 0.00943647 -5.41184e-09 0 0.00944699 -5.24828e-09 0
0.00944699 -5.24828e-09 0 0.00945731 -5.10672e-09 0 0.00945731 -5.10672e-09 0 0.00946748
-4.99444e-09 0 0.00946748 -4.99444e-09 0 0.00947755 -4.90631e-09 0 0.00947755 -4.90631e-09
0 0.00948758 -4.83578e-09 0 0.00948758 -4.83578e-09 0 0.00949757 -4.7773e-09 0
0.00949757 -4.7773e-09 0 0.00950756 -4.72819e-09 0 0.00950756 -4.72819e-09 0 0.00951756
-4.68587e-09 0 0.00951756 -4.68587e-09 0 0.00952757 -4.64702e-09 0 0.00952757 -4.64702e-09
0 0.00953761 -4.61167e-09 0 0.00953761 -4.61167e-09 0 0.00954768 -4.57914e-09 0
0.00954768 -4.57914e-09 0 0.00955778 -4.5481e-09 0 0.00955778 -4.5481e-09 0 0.00956792
-4.51809e-09 0 0.00956792 -4.51809e-09 0 0.0095781 -4.48883e-09 0 0.0095781 -4.48883e-09
0 0.00958832 -4.46029e-09 0 0.00958832 -4.46029e-09 0 0.00959858 -4.43217e-09 0
0.00959858 -4.43217e-09 0 0.00960889 -4.40458e-09 0 0.00960889 -4.40458e-09 0 0.00961923
-4.37689e-09 0 0.00961923 -4.37689e-09 0 0.00962962 -4.34935e-09 0 0.00962962 -4.34935e-09
0 0.00964005 -4.32196e-09 0 0.00964005 -4.32196e-09 0 0.00965053 -4.29457e-09 0
0.00965053 -4.29457e-09 0 0.00966104 -4.26741e-09 0 0.00966104 -4.26741e-09 0 0.0096716
-4.24008e-09 0 0.0096716 -4.24008e-09 0 0.0096822 -4.21281e-09 0 0.0096822 -4.21281e-09
0 0.00969284 -4.18535e-09 0 0.00969284 -4.18535e-09 0 0.00970352 -4.15729e-09 0
0.00970352 -4.15729e-09 0 0.00971423 -4.12937e-09 0 0.00971423 -4.12937e-09 0 0.00972499
-4.10278e-09 0 0.00972499 -4.10278e-09 0 0.00973579 -4.06123e-09 0 0.00973579 -4.06123e-09
0 0.00974655 -3.97851e-09 0 0.00974655 -3.97851e-09 0 0.00975713 -3.86483e-09 0
0.00975713 -3.86483e-09 0 0.00976749 -3.7543e-09 0 0.00976749 -3.7543e-09 0 0.00977769
-3.66342e-09 0 0.00977769 -3.66342e-09 0 0.00978777 -3.59152e-09 0 0.00978777 -3.59152e-09
0 0.00979777 -3.53346e-09 0 0.00979777 -3.53346e-09 0 0.00980773 -3.48564e-09 0
0.00980773 -3.48564e-09 0 0.00981767 -3.4452e-09 0 0.00981767 -3.4452e-09 0 0.00982761
-3.40966e-09 0 0.00982761 -3.40966e-09 0 0.00983755 -3.37783e-09 0 0.00983755 -3.37783e-09
0 0.00984751 -3.34887e-09 0 0.00984751 -3.34887e-09 0 0.00985748 -3.32192e-09 0
0.00985748 -3.32192e-09 0 0.00986748 -3.29643e-09 0 0.00986748 -3.29643e-09 0 0.00987751
-3.27191e-09 0 0.00987751 -3.27191e-09 0 0.00988757 -3.24815e-09 0 0.00988757 -3.24815e-09
0 0.00989766 -3.22494e-09 0 0.00989766 -3.22494e-09 0 0.00990779 -3.2021e-09 0
0.00990779 -3.2021e-09 0 0.00991795 -3.17971e-09 0 0.00991795 -3.17971e-09 0 0.00992814
-3.1574e-09 0 0.00992814 -3.1574e-09 0 0.00993837 -3.13549e-09 0 0.00993837 -3.13549e-09
0 0.00994863 -3.11372e-09 0 0.00994863 -3.11372e-09 0 0.00995892 -3.09175e-09 0
0.00995892 -3.09175e-09 0 0.00996925 -3.07004e-09 0 0.00996925 -3.07004e-09 0 0.00997962
-3.04838e-09 0 0.00997962 -3.04838e-09 0 0.00999002 -3.0266e-09 0 0.00999002 -3.0266e-09
0 0.0100004 -3.00448e-09 0 0.0100004 -3.00448e-09 0 0.0100109 -2.98341e-09 0
0.0100109 -2.98341e-09 0 0.0100214 -2.95698e-09 0 0.0100214 -2.95698e-09 0 0.0100319
-2.90651e-09 0 0.0100319 -2.90651e-09 0 0.0100423 -2.82916e-09 0 0.0100423 -2.82916e-09
0 0.0100524 -2.74645e-09 0 0.0100524 -2.74645e-09 0 0.0100624 -2.67596e-09 0
0.0100624 -2.67596e-09 0 0.0100722 -2.61932e-09 0 0.0100722 -2.61932e-09 0 0.010082
-2.57397e-09 0 0.010082 -2.57397e-09 0 0.0100916 -2.53649e-09 0 0.0100916 -2.53649e-09
0 0.0101013 -2.50456e-09 0 0.0101013 -2.50456e-09 0 0.010111 -2.47659e-09 0
0.010111 -2.47659e-09 0 0.0101206 -2.45133e-09 0 0.0101206 -2.45133e-09 0 0.0101303
-2.42876e-09 0 0.0101303 -2.42876e-09 0 0.0101399 -2.40747e-09 0 0.0101399 -2.40747e-09
0 0.0101496 -2.38719e-09 0 0.0101496 -2.38719e-09 0 0.0101593 -2.36797e-09 0
0.0101593 -2.36797e-09 0 0.0101691 -2.34927e-09 0 0.0101691 -2.34927e-09 0 0.0101788
-2.33047e-09 0 0.0101788 -2.33047e-09 0 0.0101886 -2.31242e-09 0 0.0101886 -2.31242e-09
0 0.0101984 -2.29496e-09 0 0.0101984 -2.29496e-09 0 0.0102083 -2.27806e-09 0
0.0102083 -2.27806e-09 0 0.0102181 -2.26149e-09 0 0.0102181 -2.26149e-09 0 0.010228
-2.24439e-09 0 0.010228 -2.24439e-09 0 0.0102379 -2.22756e-09 0 0.0102379 -2.22756e-09
0 0.0102479 -2.21074e-09 0 0.0102479 -2.21074e-09 0 0.0102579 -2.19377e-09 0
0.0102579 -2.19377e-09 0 0.0102679 -2.17722e-09 0 0.0102679 -2.17722e-09 0 0.0102779
-2.15938e-09 0 0.0102779 -2.15938e-09 0 0.0102879 -2.12939e-09 0 0.0102879 -2.12939e-09
0 0.0102979 -2.07814e-09 0 0.0102979 -2.07814e-09 0 0.0103077 -2.01681e-09 0
0.0103077 -2.01681e-09 0 0.0103172 -1.9615e-09 0 0.0103172 -1.9615e-09 0 0.0103267
-1.91658e-09 0 0.0103267 -1.91658e-09 0 0.010336 -1.8804e-09 0 0.010336 -1.8804e-09
0 0.0103453 -1.85078e-09 0 0.0103453 -1.85078e-09 0 0.0103545 -1.82579e-09 0
0.0103545 -1.82579e-09 0 0.0103637 -1.80405e-09 0 0.0103637 -1.80405e-09 0 0.0103729
-1.78466e-09 0 0.0103729 -1.78466e-09 0 0.0103821 -1.76682e-09 0 0.0103821 -1.76682e-09
0 0.0103913 -1.75033e-09 0 0.0103913 -1.75033e-09 0 0.0104006 -1.73489e-09 0
0.0104006 -1.73489e-09 0 0.0104098 -1.72002e-09 0 0.0104098 -1.72002e-09 0 0.0104191
-1.70546e-09 0 0.0104191 -1.70546e-09 0 0.0104283 -1.69134e-09 0 0.0104283 -1.69134e-09
0 0.0104376 -1.67772e-09 0 0.0104376 -1.67772e-09 0 0.0104469 -1.66423e-09 0
0.0104469 -1.66423e-09 0 0.0104563 -1.65096e-09 0 0.0104563 -1.65096e-09 0 0.0104656
-1.63821e-09 0 0.0104656 -1.63821e-09 0 0.010475 -1.62534e-09 0 0.010475 -1.62534e-09
0 0.0104844 -1.61225e-09 0 0.0104844 -1.61225e-09 0 0.0104938 -1.59958e-09 0
0.0104938 -1.59958e-09 0 0.0105033 -1.58694e-09 0 0.0105033 -1.58694e-09 0 0.0105128
-1.57036e-09 0 0.0105128 -1.57036e-09 0 0.0105222 -1.54073e-09 0 0.0105222 -1.54073e-09
0 0.0105315 -1.4977e-09 0 0.0105315 -1.4977e-09 0 0.0105406 -1.45332e-09 0
0.0105406 -1.45332e-09 0 0.0105496 -1.41572e-09 0 0.0105496 -1.41572e-09 0 0.0105584
-1.38541e-09 0 0.0105584 -1.38541e-09 0 0.0105672 -1.36107e-09 0 0.0105672 -1.36107e-09
0 0.0105759 -1.34094e-09 0 0.0105759 -1.34094e-09 0 0.0105846 -1.32325e-09 0
0.0105846 -1.32325e-09 0 0.0105932 -1.30776e-09 0 0.0105932 -1.30776e-09 0 0.0106019
-1.29399e-09 0 0.0106019 -1.29399e-09 0 0.0106105 -1.28091e-09 0 0.0106105 -1.28091e-09
0 0.0106192 -1.26891e-09 0 0.0106192 -1.26891e-09 0 0.0106278 -1.2577e-09 0
0.0106278 -1.2577e-09 0 0.0106365 -1.24656e-09 0 0.0106365 -1.24656e-09 0 0.0106452
-1.23584e-09 0 0.0106452 -1.23584e-09 0 0.0106539 -1.22533e-09 0 0.0106539 -1.22533e-09
0 0.0106626 -1.21508e-09 0 0.0106626 -1.21508e-09 0 0.0106714 -1.20545e-09 0
0.0106714 -1.20545e-09 0 0.0106801 -1.19535e-09 0 0.0106801 -1.19535e-09 0 0.0106889
-1.18509e-09 0 0.0106889 -1.18509e-09 0 0.0106977 -1.17536e-09 0 0.0106977 -1.17536e-09
0 0.0107065 -1.16558e-09 0 0.0107065 -1.16558e-09 0 0.0107154 -1.15295e-09 0
0.0107154 -1.15295e-09 0 0.0107242 -1.13041e-09 0 0.0107242 -1.13041e-09 0 0.0107328
-1.09762e-09 0 0.0107328 -1.09762e-09 0 0.0107413 -1.06368e-09 0 0.0107413 -1.06368e-09
0 0.0107496 -1.03596e-09 0 0.0107496 -1.03596e-09 0 0.0107578 -1.01416e-09 0
0.0107578 -1.01416e-09 0 0.010766 -9.95742e-10 0 0.010766 -9.95742e-10 0 0.010774
-9.8074e-10 0 0.010774 -9.8074e-10 0 0.0107821 -9.68276e-10 0 0.0107821 -9.68276e-10
0 0.0107901 -9.57004e-10 0 0.0107901 -9.57004e-10 0 0.0107982 -9.46657e-10 0
0.0107982 -9.46657e-10 0 0.0108062 -9.36565e-10 0 0.0108062 -9.36565e-10 0 0.0108142
-9.27454e-10 0 0.0108142 -9.27454e-10 0 0.0108223 -9.19338e-10 0 0.0108223 -9.19338e-10
0 0.0108303 -9.11111e-10 0 0.0108303 -9.11111e-10 0 0.0108384 -9.02903e-10 0
0.0108384 -9.02903e-10 0 0.0108465 -8.94976e-10 0 0.0108465 -8.94976e-10 0 0.0108546
-8.87293e-10 0 0.0108546 -8.87293e-10 0 0.0108627 -8.79702e-10 0 0.0108627 -8.79702e-10
0 0.0108708 -8.72342e-10 0 0.0108708 -8.72342e-10 0 0.0108789 -8.64894e-10 0
0.0108789 -8.64894e-10 0 0.0108871 -8.56847e-10 0 0.0108871 -8.56847e-10 0 0.0108952
-8.43974e-10 0 0.0108952 -8.43974e-10 0 0.0109033 -8.21964e-10 0 0.0109033 -8.21964e-10
0 0.0109112 -7.95721e-10 0 0.0109112 -7.95721e-10 0 0.0109189 -7.72618e-10 0
0.0109189 -7.72618e-10 0 0.0109265 -7.53682e-10 0 0.0109265 -7.53682e-10 0 0.010934
-7.38927e-10 0 0.010934 -7.38927e-10 0 0.0109415 -7.27077e-10 0 0.0109415 -7.27077e-10
0 0.0109489 -7.16684e-10 0 0.0109489 -7.16684e-10 0 0.0109563 -7.07737e-10 0
0.0109563 -7.07737e-10 0 0.0109637 -6.99585e-10 0 0.0109637 -6.99585e-10 0 0.0109711
-6.92777e-10 0 0.0109711 -6.92777e-10 0 0.0109784 -6.84596e-10 0 0.0109784 -6.84596e-10
0 0.0109858 -6.78387e-10 0 0.0109858 -6.78387e-10 0 0.0109932 -6.96909e-10 0
0.0109932 -6.96909e-10 0 0.0238822 -9.83383e-10 0 0.0238822 -9.83383e-10 0 0.0367784
-1.25055e-09 0 0.0367784 -1.25055e-09 0 
