# vtk DataFile Version 2.0
sampleSurface
ASCII
DATASET POLYDATA
POINTS 1202 float
0 0 0 5.99825e-05 0 0 5.99825e-05 0 0.1 0 0
0.1 0.000120591 0 0 0.000120591 0 0.1 0.000181831 0 0
0.000181831 0 0.1 0.000243709 0 0 0.000243709 0 0.1 0.000306234
0 0 0.000306234 0 0.1 0.00036941 0 0 0.00036941 0
0.1 0.000433245 0 0 0.000433245 0 0.1 0.000497746 0 0
0.000497746 0 0.1 0.000562919 0 0 0.000562919 0 0.1 0.000628772
0 0 0.000628772 0 0.1 0.000695312 0 0 0.000695312 0
0.1 0.000762546 0 0 0.000762546 0 0.1 0.000830481 0 0
0.000830481 0 0.1 0.000899125 0 0 0.000899125 0 0.1 0.000968484
0 0 0.000968484 0 0.1 0.00103857 0 0 0.00103857 0
0.1 0.00110938 0 0 0.00110938 0 0.1 0.00118093 0 0
0.00118093 0 0.1 0.00125323 0 0 0.00125323 0 0.1 0.00132628
0 0 0.00132628 0 0.1 0.0014001 0 0 0.0014001 0
0.1 0.00147468 0 0 0.00147468 0 0.1 0.00155004 0 0
0.00155004 0 0.1 0.00162619 0 0 0.00162619 0 0.1 0.00170313
0 0 0.00170313 0 0.1 0.00178088 0 0 0.00178088 0
0.1 0.00185943 0 0 0.00185943 0 0.1 0.00193881 0 0
0.00193881 0 0.1 0.00201901 0 0 0.00201901 0 0.1 0.00210005
0 0 0.00210005 0 0.1 0.00218193 0 0 0.00218193 0
0.1 0.00226467 0 0 0.00226467 0 0.1 0.00234827 0 0
0.00234827 0 0.1 0.00243274 0 0 0.00243274 0 0.1 0.0025181
0 0 0.0025181 0 0.1 0.00260434 0 0 0.00260434 0
0.1 0.00269148 0 0 0.00269148 0 0.1 0.00277954 0 0
0.00277954 0 0.1 0.00286851 0 0 0.00286851 0 0.1 0.0029584
0 0 0.0029584 0 0.1 0.00304924 0 0 0.00304924 0
0.1 0.00314102 0 0 0.00314102 0 0.1 0.00323376 0 0
0.00323376 0 0.1 0.00332747 0 0 0.00332747 0 0.1 0.00342215
0 0 0.00342215 0 0.1 0.00351783 0 0 0.00351783 0
0.1 0.0036145 0 0 0.0036145 0 0.1 0.00371217 0 0
0.00371217 0 0.1 0.00381087 0 0 0.00381087 0 0.1 0.0039106
0 0 0.0039106 0 0.1 0.00401136 0 0 0.00401136 0
0.1 0.00411318 0 0 0.00411318 0 0.1 0.00421606 0 0
0.00421606 0 0.1 0.00432001 0 0 0.00432001 0 0.1 0.00442505
0 0 0.00442505 0 0.1 0.00453118 0 0 0.00453118 0
0.1 0.00463842 0 0 0.00463842 0 0.1 0.00474677 0 0
0.00474677 0 0.1 0.00485626 0 0 0.00485626 0 0.1 0.00496689
0 0 0.00496689 0 0.1 0.00507867 0 0 0.00507867 0
0.1 0.00519162 0 0 0.00519162 0 0.1 0.00530574 0 0
0.00530574 0 0.1 0.00542106 0 0 0.00542106 0 0.1 0.00553758
0 0 0.00553758 0 0.1 0.00565531 0 0 0.00565531 0
0.1 0.00577427 0 0 0.00577427 0 0.1 0.00589447 0 0
0.00589447 0 0.1 0.00601593 0 0 0.00601593 0 0.1 0.00613865
0 0 0.00613865 0 0.1 0.00626266 0 0 0.00626266 0
0.1 0.00638795 0 0 0.00638795 0 0.1 0.00651455 0 0
0.00651455 0 0.1 0.00664248 0 0 0.00664248 0 0.1 0.00677173
0 0 0.00677173 0 0.1 0.00690234 0 0 0.00690234 0
0.1 0.0070343 0 0 0.0070343 0 0.1 0.00716765 0 0
0.00716765 0 0.1 0.00730238 0 0 0.00730238 0 0.1 0.00743852
0 0 0.00743852 0 0.1 0.00757608 0 0 0.00757608 0
0.1 0.00771507 0 0 0.00771507 0 0.1 0.00785551 0 0
0.00785551 0 0.1 0.00799742 0 0 0.00799742 0 0.1 0.00814081
0 0 0.00814081 0 0.1 0.00828569 0 0 0.00828569 0
0.1 0.00843209 0 0 0.00843209 0 0.1 0.00858001 0 0
0.00858001 0 0.1 0.00872947 0 0 0.00872947 0 0.1 0.00888049
0 0 0.00888049 0 0.1 0.00903309 0 0 0.00903309 0
0.1 0.00918728 0 0 0.00918728 0 0.1 0.00934307 0 0
0.00934307 0 0.1 0.00950049 0 0 0.00950049 0 0.1 0.00965956
0 0 0.00965956 0 0.1 0.00982028 0 0 0.00982028 0
0.1 0.00998268 0 0 0.00998268 0 0.1 0.0101468 0 0
0.0101468 0 0.1 0.0103126 0 0 0.0103126 0 0.1 0.0104801
0 0 0.0104801 0 0.1 0.0106494 0 0 0.0106494 0
0.1 0.0108204 0 0 0.0108204 0 0.1 0.0109933 0 0
0.0109933 0 0.1 0.0111679 0 0 0.0111679 0 0.1 0.0113443
0 0 0.0113443 0 0.1 0.0115226 0 0 0.0115226 0
0.1 0.0117028 0 0 0.0117028 0 0.1 0.0118848 0 0
0.0118848 0 0.1 0.0120687 0 0 0.0120687 0 0.1 0.0122546
0 0 0.0122546 0 0.1 0.0124424 0 0 0.0124424 0
0.1 0.0126321 0 0 0.0126321 0 0.1 0.0128238 0 0
0.0128238 0 0.1 0.0130176 0 0 0.0130176 0 0.1 0.0132133
0 0 0.0132133 0 0.1 0.0134111 0 0 0.0134111 0
0.1 0.0136109 0 0 0.0136109 0 0.1 0.0138129 0 0
0.0138129 0 0.1 0.0140169 0 0 0.0140169 0 0.1 0.0142231
0 0 0.0142231 0 0.1 0.0144314 0 0 0.0144314 0
0.1 0.0146419 0 0 0.0146419 0 0.1 0.0148546 0 0
0.0148546 0 0.1 0.0150695 0 0 0.0150695 0 0.1 0.0152866
0 0 0.0152866 0 0.1 0.015506 0 0 0.015506 0
0.1 0.0157277 0 0 0.0157277 0 0.1 0.0159517 0 0
0.0159517 0 0.1 0.016178 0 0 0.016178 0 0.1 0.0164067
0 0 0.0164067 0 0.1 0.0166378 0 0 0.0166378 0
0.1 0.0168713 0 0 0.0168713 0 0.1 0.0171073 0 0
0.0171073 0 0.1 0.0173457 0 0 0.0173457 0 0.1 0.0175865
0 0 0.0175865 0 0.1 0.0178299 0 0 0.0178299 0
0.1 0.0180759 0 0 0.0180759 0 0.1 0.0183244 0 0
0.0183244 0 0.1 0.0185754 0 0 0.0185754 0 0.1 0.0188291
0 0 0.0188291 0 0.1 0.0190855 0 0 0.0190855 0
0.1 0.0193445 0 0 0.0193445 0 0.1 0.0196063 0 0
0.0196063 0 0.1 0.0198707 0 0 0.0198707 0 0.1 0.0201379
0 0 0.0201379 0 0.1 0.0204079 0 0 0.0204079 0
0.1 0.0206807 0 0 0.0206807 0 0.1 0.0209564 0 0
0.0209564 0 0.1 0.0212349 0 0 0.0212349 0 0.1 0.0215164
0 0 0.0215164 0 0.1 0.0218008 0 0 0.0218008 0
0.1 0.0220881 0 0 0.0220881 0 0.1 0.0223784 0 0
0.0223784 0 0.1 0.0226718 0 0 0.0226718 0 0.1 0.0229682
0 0 0.0229682 0 0.1 0.0232677 0 0 0.0232677 0
0.1 0.0235704 0 0 0.0235704 0 0.1 0.0238762 0 0
0.0238762 0 0.1 0.0241852 0 0 0.0241852 0 0.1 0.0244974
0 0 0.0244974 0 0.1 0.0248128 0 0 0.0248128 0
0.1 0.0251316 0 0 0.0251316 0 0.1 0.0254537 0 0
0.0254537 0 0.1 0.0257791 0 0 0.0257791 0 0.1 0.0261079
0 0 0.0261079 0 0.1 0.0264402 0 0 0.0264402 0
0.1 0.0267759 0 0 0.0267759 0 0.1 0.0271152 0 0
0.0271152 0 0.1 0.0274579 0 0 0.0274579 0 0.1 0.0278043
0 0 0.0278043 0 0.1 0.0281542 0 0 0.0281542 0
0.1 0.0285078 0 0 0.0285078 0 0.1 0.0288651 0 0
0.0288651 0 0.1 0.0292261 0 0 0.0292261 0 0.1 0.0295909
0 0 0.0295909 0 0.1 0.0299595 0 0 0.0299595 0
0.1 0.0303319 0 0 0.0303319 0 0.1 0.0307082 0 0
0.0307082 0 0.1 0.0310885 0 0 0.0310885 0 0.1 0.0314727
0 0 0.0314727 0 0.1 0.0318609 0 0 0.0318609 0
0.1 0.0322532 0 0 0.0322532 0 0.1 0.0326495 0 0
0.0326495 0 0.1 0.03305 0 0 0.03305 0 0.1 0.0334546
0 0 0.0334546 0 0.1 0.0338635 0 0 0.0338635 0
0.1 0.0342767 0 0 0.0342767 0 0.1 0.0346941 0 0
0.0346941 0 0.1 0.0351159 0 0 0.0351159 0 0.1 0.0355421
0 0 0.0355421 0 0.1 0.0359728 0 0 0.0359728 0
0.1 0.0364079 0 0 0.0364079 0 0.1 0.0368476 0 0
0.0368476 0 0.1 0.0372919 0 0 0.0372919 0 0.1 0.0377408
0 0 0.0377408 0 0.1 0.0381944 0 0 0.0381944 0
0.1 0.0386527 0 0 0.0386527 0 0.1 0.0391158 0 0
0.0391158 0 0.1 0.0395837 0 0 0.0395837 0 0.1 0.0400565
0 0 0.0400565 0 0.1 0.0405342 0 0 0.0405342 0
0.1 0.0410169 0 0 0.0410169 0 0.1 0.0415047 0 0
0.0415047 0 0.1 0.0419975 0 0 0.0419975 0 0.1 0.0424955
0 0 0.0424955 0 0.1 0.0429986 0 0 0.0429986 0
0.1 0.0435071 0 0 0.0435071 0 0.1 0.0440208 0 0
0.0440208 0 0.1 0.0445398 0 0 0.0445398 0 0.1 0.0450643
0 0 0.0450643 0 0.1 0.0455943 0 0 0.0455943 0
0.1 0.0461298 0 0 0.0461298 0 0.1 0.0466708 0 0
0.0466708 0 0.1 0.0472176 0 0 0.0472176 0 0.1 0.04777
0 0 0.04777 0 0.1 0.0483281 0 0 0.0483281 0
0.1 0.0488921 0 0 0.0488921 0 0.1 0.049462 0 0
0.049462 0 0.1 0.0500378 0 0 0.0500378 0 0.1 0.0506197
0 0 0.0506197 0 0.1 0.0512076 0 0 0.0512076 0
0.1 0.0518016 0 0 0.0518016 0 0.1 0.0524018 0 0
0.0524018 0 0.1 0.0530083 0 0 0.0530083 0 0.1 0.0536211
0 0 0.0536211 0 0.1 0.0542403 0 0 0.0542403 0
0.1 0.0548659 0 0 0.0548659 0 0.1 0.0554981 0 0
0.0554981 0 0.1 0.0561369 0 0 0.0561369 0 0.1 0.0567823
0 0 0.0567823 0 0.1 0.0574345 0 0 0.0574345 0
0.1 0.0580934 0 0 0.0580934 0 0.1 0.0587593 0 0
0.0587593 0 0.1 0.0594321 0 0 0.0594321 0 0.1 0.0601119
0 0 0.0601119 0 0.1 0.0607987 0 0 0.0607987 0
0.1 0.0614928 0 0 0.0614928 0 0.1 0.0621941 0 0
0.0621941 0 0.1 0.0629027 0 0 0.0629027 0 0.1 0.0636187
0 0 0.0636187 0 0.1 0.0643421 0 0 0.0643421 0
0.1 0.0650732 0 0 0.0650732 0 0.1 0.0658118 0 0
0.0658118 0 0.1 0.0665581 0 0 0.0665581 0 0.1 0.0673122
0 0 0.0673122 0 0.1 0.0680742 0 0 0.0680742 0
0.1 0.0688441 0 0 0.0688441 0 0.1 0.0696221 0 0
0.0696221 0 0.1 0.0704082 0 0 0.0704082 0 0.1 0.0712024
0 0 0.0712024 0 0.1 0.072005 0 0 0.072005 0
0.1 0.0728159 0 0 0.0728159 0 0.1 0.0736353 0 0
0.0736353 0 0.1 0.0744632 0 0 0.0744632 0 0.1 0.0752998
0 0 0.0752998 0 0.1 0.076145 0 0 0.076145 0
0.1 0.0769991 0 0 0.0769991 0 0.1 0.0778621 0 0
0.0778621 0 0.1 0.0787342 0 0 0.0787342 0 0.1 0.0796153
0 0 0.0796153 0 0.1 0.0805055 0 0 0.0805055 0
0.1 0.0814051 0 0 0.0814051 0 0.1 0.0823141 0 0
0.0823141 0 0.1 0.0832325 0 0 0.0832325 0 0.1 0.0841605
0 0 0.0841605 0 0.1 0.0850982 0 0 0.0850982 0
0.1 0.0860457 0 0 0.0860457 0 0.1 0.087003 0 0
0.087003 0 0.1 0.0879704 0 0 0.0879704 0 0.1 0.0889478
0 0 0.0889478 0 0.1 0.0899354 0 0 0.0899354 0
0.1 0.0909333 0 0 0.0909333 0 0.1 0.0919416 0 0
0.0919416 0 0.1 0.0929605 0 0 0.0929605 0 0.1 0.0939899
0 0 0.0939899 0 0.1 0.0950302 0 0 0.0950302 0
0.1 0.0960812 0 0 0.0960812 0 0.1 0.0971432 0 0
0.0971432 0 0.1 0.0982163 0 0 0.0982163 0 0.1 0.0993006
0 0 0.0993006 0 0.1 0.100396 0 0 0.100396 0
0.1 0.101503 0 0 0.101503 0 0.1 0.102622 0 0
0.102622 0 0.1 0.103752 0 0 0.103752 0 0.1 0.104894
0 0 0.104894 0 0.1 0.106048 0 0 0.106048 0
0.1 0.107214 0 0 0.107214 0 0.1 0.108392 0 0
0.108392 0 0.1 0.109582 0 0 0.109582 0 0.1 0.110785
0 0 0.110785 0 0.1 0.112001 0 0 0.112001 0
0.1 0.113229 0 0 0.113229 0 0.1 0.114469 0 0
0.114469 0 0.1 0.115723 0 0 0.115723 0 0.1 0.11699
0 0 0.11699 0 0.1 0.11827 0 0 0.11827 0
0.1 0.119564 0 0 0.119564 0 0.1 0.12087 0 0
0.12087 0 0.1 0.122191 0 0 0.122191 0 0.1 0.123525
0 0 0.123525 0 0.1 0.124873 0 0 0.124873 0
0.1 0.126236 0 0 0.126236 0 0.1 0.127612 0 0
0.127612 0 0.1 0.129003 0 0 0.129003 0 0.1 0.130408
0 0 0.130408 0 0.1 0.131828 0 0 0.131828 0
0.1 0.133263 0 0 0.133263 0 0.1 0.134713 0 0
0.134713 0 0.1 0.136178 0 0 0.136178 0 0.1 0.137658
0 0 0.137658 0 0.1 0.139154 0 0 0.139154 0
0.1 0.140665 0 0 0.140665 0 0.1 0.142192 0 0
0.142192 0 0.1 0.143735 0 0 0.143735 0 0.1 0.145294
0 0 0.145294 0 0.1 0.146869 0 0 0.146869 0
0.1 0.148461 0 0 0.148461 0 0.1 0.150069 0 0
0.150069 0 0.1 0.151694 0 0 0.151694 0 0.1 0.153336
0 0 0.153336 0 0.1 0.154995 0 0 0.154995 0
0.1 0.156672 0 0 0.156672 0 0.1 0.158366 0 0
0.158366 0 0.1 0.160077 0 0 0.160077 0 0.1 0.161807
0 0 0.161807 0 0.1 0.163554 0 0 0.163554 0
0.1 0.16532 0 0 0.16532 0 0.1 0.167104 0 0
0.167104 0 0.1 0.168907 0 0 0.168907 0 0.1 0.170728
0 0 0.170728 0 0.1 0.172569 0 0 0.172569 0
0.1 0.174428 0 0 0.174428 0 0.1 0.176307 0 0
0.176307 0 0.1 0.178206 0 0 0.178206 0 0.1 0.180124
0 0 0.180124 0 0.1 0.182063 0 0 0.182063 0
0.1 0.184022 0 0 0.184022 0 0.1 0.186001 0 0
0.186001 0 0.1 0.188001 0 0 0.188001 0 0.1 0.190021
0 0 0.190021 0 0.1 0.192063 0 0 0.192063 0
0.1 0.194126 0 0 0.194126 0 0.1 0.19621 0 0
0.19621 0 0.1 0.198317 0 0 0.198317 0 0.1 0.200445
0 0 0.200445 0 0.1 0.202595 0 0 0.202595 0
0.1 0.204768 0 0 0.204768 0 0.1 0.206964 0 0
0.206964 0 0.1 0.209182 0 0 0.209182 0 0.1 0.211424
0 0 0.211424 0 0.1 0.213689 0 0 0.213689 0
0.1 0.215977 0 0 0.215977 0 0.1 0.21829 0 0
0.21829 0 0.1 0.220626 0 0 0.220626 0 0.1 0.222987
0 0 0.222987 0 0.1 0.225372 0 0 0.225372 0
0.1 0.227783 0 0 0.227783 0 0.1 0.230218 0 0
0.230218 0 0.1 0.232679 0 0 0.232679 0 0.1 0.235166
0 0 0.235166 0 0.1 0.237678 0 0 0.237678 0
0.1 0.240217 0 0 0.240217 0 0.1 0.242782 0 0
0.242782 0 0.1 0.245374 0 0 0.245374 0 0.1 0.247993
0 0 0.247993 0 0.1 0.25064 0 0 0.25064 0
0.1 0.253313 0 0 0.253313 0 0.1 0.256015 0 0
0.256015 0 0.1 0.258745 0 0 0.258745 0 0.1 0.261504
0 0 0.261504 0 0.1 0.264291 0 0 0.264291 0
0.1 0.267107 0 0 0.267107 0 0.1 0.269953 0 0
0.269953 0 0.1 0.272828 0 0 0.272828 0 0.1 0.275733
0 0 0.275733 0 0.1 0.278669 0 0 0.278669 0
0.1 0.281635 0 0 0.281635 0 0.1 0.284632 0 0
0.284632 0 0.1 0.287661 0 0 0.287661 0 0.1 0.290721
0 0 0.290721 0 0.1 0.293813 0 0 0.293813 0
0.1 0.296937 0 0 0.296937 0 0.1 0.300093 0 0
0.300093 0 0.1 0.303283 0 0 0.303283 0 0.1 0.306506
0 0 0.306506 0 0.1 0.309763 0 0 0.309763 0
0.1 0.313053 0 0 0.313053 0 0.1 0.316378 0 0
0.316378 0 0.1 0.319737 0 0 0.319737 0 0.1 0.323132
0 0 0.323132 0 0.1 0.326562 0 0 0.326562 0
0.1 0.330027 0 0 0.330027 0 0.1 0.333529 0 0
0.333529 0 0.1 0.337068 0 0 0.337068 0 0.1 0.340643
0 0 0.340643 0 0.1 0.344255 0 0 0.344255 0
0.1 0.347906 0 0 0.347906 0 0.1 0.351594 0 0
0.351594 0 0.1 0.355321 0 0 0.355321 0 0.1 0.359086
0 0 0.359086 0 0.1 0.362891 0 0 0.362891 0
0.1 0.366736 0 0 0.366736 0 0.1 0.37062 0 0
0.37062 0 0.1 0.374546 0 0 0.374546 0 0.1 0.378512
0 0 0.378512 0 0.1 0.382519 0 0 0.382519 0
0.1 0.386568 0 0 0.386568 0 0.1 0.39066 0 0
0.39066 0 0.1 0.394794 0 0 0.394794 0 0.1 0.398971
0 0 0.398971 0 0.1 0.403192 0 0 0.403192 0
0.1 0.407457 0 0 0.407457 0 0.1 0.411766 0 0
0.411766 0 0.1 0.416121 0 0 0.416121 0 0.1 0.42052
0 0 0.42052 0 0.1 0.424966 0 0 0.424966 0
0.1 0.429458 0 0 0.429458 0 0.1 0.433997 0 0
0.433997 0 0.1 0.438583 0 0 0.438583 0 0.1 0.443217
0 0 0.443217 0 0.1 0.447899 0 0 0.447899 0
0.1 0.45263 0 0 0.45263 0 0.1 0.457411 0 0
0.457411 0 0.1 0.462241 0 0 0.462241 0 0.1 0.467122
0 0 0.467122 0 0.1 0.472053 0 0 0.472053 0
0.1 0.477036 0 0 0.477036 0 0.1 0.482071 0 0
0.482071 0 0.1 0.487159 0 0 0.487159 0 0.1 0.492299
0 0 0.492299 0 0.1 0.497493 0 0 0.497493 0
0.1 0.502742 0 0 0.502742 0 0.1 0.508045 0 0
0.508045 0 0.1 0.513403 0 0 0.513403 0 0.1 0.518817
0 0 0.518817 0 0.1 0.524288 0 0 0.524288 0
0.1 0.529816 0 0 0.529816 0 0.1 0.535401 0 0
0.535401 0 0.1 0.541045 0 0 0.541045 0 0.1 0.546748
0 0 0.546748 0 0.1 0.55251 0 0 0.55251 0
0.1 0.558332 0 0 0.558332 0 0.1 0.564215 0 0
0.564215 0 0.1 0.570159 0 0 0.570159 0 0.1 0.576165
0 0 0.576165 0 0.1 0.582234 0 0 0.582234 0
0.1 0.588366 0 0 0.588366 0 0.1 0.594562 0 0
0.594562 0 0.1 0.600822 0 0 0.600822 0 0.1 0.607148
0 0 0.607148 0 0.1 0.61354 0 0 0.61354 0
0.1 0.619999 0 0 0.619999 0 0.1 0.626525 0 0
0.626525 0 0.1 0.633119 0 0 0.633119 0 0.1 0.639782
0 0 0.639782 0 0.1 0.646514 0 0 0.646514 0
0.1 0.653316 0 0 0.653316 0 0.1 0.66019 0 0
0.66019 0 0.1 0.667135 0 0 0.667135 0 0.1 0.674152
0 0 0.674152 0 0.1 0.681243 0 0 0.681243 0
0.1 0.688408 0 0 0.688408 0 0.1 0.695647 0 0
0.695647 0 0.1 0.702962 0 0 0.702962 0 0.1 0.710353
0 0 0.710353 0 0.1 0.717821 0 0 0.717821 0
0.1 0.725367 0 0 0.725367 0 0.1 0.732992 0 0
0.732992 0 0.1 0.740697 0 0 0.740697 0 0.1 0.748481
0 0 0.748481 0 0.1 0.756347 0 0 0.756347 0
0.1 0.764295 0 0 0.764295 0 0.1 0.772326 0 0
0.772326 0 0.1 0.78044 0 0 0.78044 0 0.1 0.78864
0 0 0.78864 0 0.1 0.796924 0 0 0.796924 0
0.1 0.805295 0 0 0.805295 0 0.1 0.813754 0 0
0.813754 0 0.1 0.8223 0 0 0.8223 0 0.1 0.830936
0 0 0.830936 0 0.1 0.839662 0 0 0.839662 0
0.1 0.848479 0 0 0.848479 0 0.1 0.857387 0 0
0.857387 0 0.1 0.866389 0 0 0.866389 0 0.1 0.875485
0 0 0.875485 0 0.1 0.884675 0 0 0.884675 0
0.1 0.893961 0 0 0.893961 0 0.1 0.903344 0 0
0.903344 0 0.1 0.912825 0 0 0.912825 0 0.1 0.922405
0 0 0.922405 0 0.1 0.932085 0 0 0.932085 0
0.1 0.941865 0 0 0.941865 0 0.1 0.951748 0 0
0.951748 0 0.1 0.961734 0 0 0.961734 0 0.1 0.971824
0 0 0.971824 0 0.1 0.982019 0 0 0.982019 0
0.1 0.99232 0 0 0.99232 0 0.1 1.00273 0 0
1.00273 0 0.1 1.01325 0 0 1.01325 0 0.1 1.02387
0 0 1.02387 0 0.1 1.03461 0 0 1.03461 0
0.1 1.04546 0 0 1.04546 0 0.1 1.05642 0 0
1.05642 0 0.1 1.0675 0 0 1.0675 0 0.1 1.07869
0 0 1.07869 0 0.1 1.09 0 0 1.09 0
0.1 1.10143 0 0 1.10143 0 0.1 1.11298 0 0
1.11298 0 0.1 1.12465 0 0 1.12465 0 0.1 1.13644
0 0 1.13644 0 0.1 1.14835 0 0 1.14835 0
0.1 1.16038 0 0 1.16038 0 0.1 1.17254 0 0
1.17254 0 0.1 1.18483 0 0 1.18483 0 0.1 1.19725
0 0 1.19725 0 0.1 1.2098 0 0 1.2098 0
0.1 1.22247 0 0 1.22247 0 0.1 1.23528 0 0
1.23528 0 0.1 1.24822 0 0 1.24822 0 0.1 1.2613
0 0 1.2613 0 0.1 1.27452 0 0 1.27452 0
0.1 1.28787 0 0 1.28787 0 0.1 1.30136 0 0
1.30136 0 0.1 1.31499 0 0 1.31499 0 0.1 1.32877
0 0 1.32877 0 0.1 1.34268 0 0 1.34268 0
0.1 1.35675 0 0 1.35675 0 0.1 1.37095 0 0
1.37095 0 0.1 1.38531 0 0 1.38531 0 0.1 1.39982
0 0 1.39982 0 0.1 1.41448 0 0 1.41448 0
0.1 1.42929 0 0 1.42929 0 0.1 1.44426 0 0
1.44426 0 0.1 1.45938 0 0 1.45938 0 0.1 1.47466
0 0 1.47466 0 0.1 1.4901 0 0 1.4901 0
0.1 1.5057 0 0 1.5057 0 0.1 1.52146 0 0
1.52146 0 0.1 1.53739 0 0 1.53739 0 0.1 1.55348
0 0 1.55348 0 0.1 1.56974 0 0 1.56974 0
0.1 1.58617 0 0 1.58617 0 0.1 1.60278 0 0
1.60278 0 0.1 1.61955 0 0 1.61955 0 0.1 1.6365
0 0 1.6365 0 0.1 1.65363 0 0 1.65363 0
0.1 1.67093 0 0 1.67093 0 0.1 1.68842 0 0
1.68842 0 0.1 1.70609 0 0 1.70609 0 0.1 1.72394
0 0 1.72394 0 0.1 1.74198 0 0 1.74198 0
0.1 1.76021 0 0 1.76021 0 0.1 1.77862 0 0
1.77862 0 0.1 1.79723 0 0 1.79723 0 0.1 1.81604
0 0 1.81604 0 0.1 1.83504 0 0 1.83504 0
0.1 1.85423 0 0 1.85423 0 0.1 1.87363 0 0
1.87363 0 0.1 1.89323 0 0 1.89323 0 0.1 1.91304
0 0 1.91304 0 0.1 1.93305 0 0 1.93305 0
0.1 1.95327 0 0 1.95327 0 0.1 1.9737 0 0
1.9737 0 0.1 1.99434 0 0 1.99434 0 0.1 2.0152
0 0 2.0152 0 0.1 2.03628 0 0 2.03628 0
0.1 2.05757 0 0 2.05757 0 0.1 2.07909 0 0
2.07909 0 0.1 2.10083 0 0 2.10083 0 0.1 2.1228
0 0 2.1228 0 0.1 2.145 0 0 2.145 0
0.1 2.16743 0 0 2.16743 0 0.1 2.1901 0 0
2.1901 0 0.1 2.213 0 0 2.213 0 0.1 2.23614
0 0 2.23614 0 0.1 2.25952 0 0 2.25952 0
0.1 2.28314 0 0 2.28314 0 0.1 2.30701 0 0
2.30701 0 0.1 2.33113 0 0 2.33113 0 0.1 2.3555
0 0 2.3555 0 0.1 2.38013 0 0 2.38013 0
0.1 2.40501 0 0 2.40501 0 0.1 2.43015 0 0
2.43015 0 0.1 2.45556 0 0 2.45556 0 0.1 2.48122
0 0 2.48122 0 0.1 2.50716 0 0 2.50716 0
0.1 2.53337 0 0 2.53337 0 0.1 2.55985 0 0
2.55985 0 0.1 2.58661 0 0 2.58661 0 0.1 2.61364
0 0 2.61364 0 0.1 2.64096 0 0 2.64096 0
0.1 2.66856 0 0 2.66856 0 0.1 2.69645 0 0
2.69645 0 0.1 2.72463 0 0 2.72463 0 0.1 2.75311
0 0 2.75311 0 0.1 2.78188 0 0 2.78188 0
0.1 2.81095 0 0 2.81095 0 0.1 2.84033 0 0
2.84033 0 0.1 2.87001 0 0 2.87001 0 0.1 2.9
0 0 2.9 0 0.1 
POLYGONS 600 3000
4 0 1 2 3 4 1 4 5 2 4
4 6 7 5 4 6 8 9 7 4
8 10 11 9 4 10 12 13 11 4
12 14 15 13 4 14 16 17 15 4
16 18 19 17 4 18 20 21 19 4
20 22 23 21 4 22 24 25 23 4
24 26 27 25 4 26 28 29 27 4
28 30 31 29 4 30 32 33 31 4
32 34 35 33 4 34 36 37 35 4
36 38 39 37 4 38 40 41 39 4
40 42 43 41 4 42 44 45 43 4
44 46 47 45 4 46 48 49 47 4
48 50 51 49 4 50 52 53 51 4
52 54 55 53 4 54 56 57 55 4
56 58 59 57 4 58 60 61 59 4
60 62 63 61 4 62 64 65 63 4
64 66 67 65 4 66 68 69 67 4
68 70 71 69 4 70 72 73 71 4
72 74 75 73 4 74 76 77 75 4
76 78 79 77 4 78 80 81 79 4
80 82 83 81 4 82 84 85 83 4
84 86 87 85 4 86 88 89 87 4
88 90 91 89 4 90 92 93 91 4
92 94 95 93 4 94 96 97 95 4
96 98 99 97 4 98 100 101 99 4
100 102 103 101 4 102 104 105 103 4
104 106 107 105 4 106 108 109 107 4
108 110 111 109 4 110 112 113 111 4
112 114 115 113 4 114 116 117 115 4
116 118 119 117 4 118 120 121 119 4
120 122 123 121 4 122 124 125 123 4
124 126 127 125 4 126 128 129 127 4
128 130 131 129 4 130 132 133 131 4
132 134 135 133 4 134 136 137 135 4
136 138 139 137 4 138 140 141 139 4
140 142 143 141 4 142 144 145 143 4
144 146 147 145 4 146 148 149 147 4
148 150 151 149 4 150 152 153 151 4
152 154 155 153 4 154 156 157 155 4
156 158 159 157 4 158 160 161 159 4
160 162 163 161 4 162 164 165 163 4
164 166 167 165 4 166 168 169 167 4
168 170 171 169 4 170 172 173 171 4
172 174 175 173 4 174 176 177 175 4
176 178 179 177 4 178 180 181 179 4
180 182 183 181 4 182 184 185 183 4
184 186 187 185 4 186 188 189 187 4
188 190 191 189 4 190 192 193 191 4
192 194 195 193 4 194 196 197 195 4
196 198 199 197 4 198 200 201 199 4
200 202 203 201 4 202 204 205 203 4
204 206 207 205 4 206 208 209 207 4
208 210 211 209 4 210 212 213 211 4
212 214 215 213 4 214 216 217 215 4
216 218 219 217 4 218 220 221 219 4
220 222 223 221 4 222 224 225 223 4
224 226 227 225 4 226 228 229 227 4
228 230 231 229 4 230 232 233 231 4
232 234 235 233 4 234 236 237 235 4
236 238 239 237 4 238 240 241 239 4
240 242 243 241 4 242 244 245 243 4
244 246 247 245 4 246 248 249 247 4
248 250 251 249 4 250 252 253 251 4
252 254 255 253 4 254 256 257 255 4
256 258 259 257 4 258 260 261 259 4
260 262 263 261 4 262 264 265 263 4
264 266 267 265 4 266 268 269 267 4
268 270 271 269 4 270 272 273 271 4
272 274 275 273 4 274 276 277 275 4
276 278 279 277 4 278 280 281 279 4
280 282 283 281 4 282 284 285 283 4
284 286 287 285 4 286 288 289 287 4
288 290 291 289 4 290 292 293 291 4
292 294 295 293 4 294 296 297 295 4
296 298 299 297 4 298 300 301 299 4
300 302 303 301 4 302 304 305 303 4
304 306 307 305 4 306 308 309 307 4
308 310 311 309 4 310 312 313 311 4
312 314 315 313 4 314 316 317 315 4
316 318 319 317 4 318 320 321 319 4
320 322 323 321 4 322 324 325 323 4
324 326 327 325 4 326 328 329 327 4
328 330 331 329 4 330 332 333 331 4
332 334 335 333 4 334 336 337 335 4
336 338 339 337 4 338 340 341 339 4
340 342 343 341 4 342 344 345 343 4
344 346 347 345 4 346 348 349 347 4
348 350 351 349 4 350 352 353 351 4
352 354 355 353 4 354 356 357 355 4
356 358 359 357 4 358 360 361 359 4
360 362 363 361 4 362 364 365 363 4
364 366 367 365 4 366 368 369 367 4
368 370 371 369 4 370 372 373 371 4
372 374 375 373 4 374 376 377 375 4
376 378 379 377 4 378 380 381 379 4
380 382 383 381 4 382 384 385 383 4
384 386 387 385 4 386 388 389 387 4
388 390 391 389 4 390 392 393 391 4
392 394 395 393 4 394 396 397 395 4
396 398 399 397 4 398 400 401 399 4
400 402 403 401 4 402 404 405 403 4
404 406 407 405 4 406 408 409 407 4
408 410 411 409 4 410 412 413 411 4
412 414 415 413 4 414 416 417 415 4
416 418 419 417 4 418 420 421 419 4
420 422 423 421 4 422 424 425 423 4
424 426 427 425 4 426 428 429 427 4
428 430 431 429 4 430 432 433 431 4
432 434 435 433 4 434 436 437 435 4
436 438 439 437 4 438 440 441 439 4
440 442 443 441 4 442 444 445 443 4
444 446 447 445 4 446 448 449 447 4
448 450 451 449 4 450 452 453 451 4
452 454 455 453 4 454 456 457 455 4
456 458 459 457 4 458 460 461 459 4
460 462 463 461 4 462 464 465 463 4
464 466 467 465 4 466 468 469 467 4
468 470 471 469 4 470 472 473 471 4
472 474 475 473 4 474 476 477 475 4
476 478 479 477 4 478 480 481 479 4
480 482 483 481 4 482 484 485 483 4
484 486 487 485 4 486 488 489 487 4
488 490 491 489 4 490 492 493 491 4
492 494 495 493 4 494 496 497 495 4
496 498 499 497 4 498 500 501 499 4
500 502 503 501 4 502 504 505 503 4
504 506 507 505 4 506 508 509 507 4
508 510 511 509 4 510 512 513 511 4
512 514 515 513 4 514 516 517 515 4
516 518 519 517 4 518 520 521 519 4
520 522 523 521 4 522 524 525 523 4
524 526 527 525 4 526 528 529 527 4
528 530 531 529 4 530 532 533 531 4
532 534 535 533 4 534 536 537 535 4
536 538 539 537 4 538 540 541 539 4
540 542 543 541 4 542 544 545 543 4
544 546 547 545 4 546 548 549 547 4
548 550 551 549 4 550 552 553 551 4
552 554 555 553 4 554 556 557 555 4
556 558 559 557 4 558 560 561 559 4
560 562 563 561 4 562 564 565 563 4
564 566 567 565 4 566 568 569 567 4
568 570 571 569 4 570 572 573 571 4
572 574 575 573 4 574 576 577 575 4
576 578 579 577 4 578 580 581 579 4
580 582 583 581 4 582 584 585 583 4
584 586 587 585 4 586 588 589 587 4
588 590 591 589 4 590 592 593 591 4
592 594 595 593 4 594 596 597 595 4
596 598 599 597 4 598 600 601 599 4
600 602 603 601 4 602 604 605 603 4
604 606 607 605 4 606 608 609 607 4
608 610 611 609 4 610 612 613 611 4
612 614 615 613 4 614 616 617 615 4
616 618 619 617 4 618 620 621 619 4
620 622 623 621 4 622 624 625 623 4
624 626 627 625 4 626 628 629 627 4
628 630 631 629 4 630 632 633 631 4
632 634 635 633 4 634 636 637 635 4
636 638 639 637 4 638 640 641 639 4
640 642 643 641 4 642 644 645 643 4
644 646 647 645 4 646 648 649 647 4
648 650 651 649 4 650 652 653 651 4
652 654 655 653 4 654 656 657 655 4
656 658 659 657 4 658 660 661 659 4
660 662 663 661 4 662 664 665 663 4
664 666 667 665 4 666 668 669 667 4
668 670 671 669 4 670 672 673 671 4
672 674 675 673 4 674 676 677 675 4
676 678 679 677 4 678 680 681 679 4
680 682 683 681 4 682 684 685 683 4
684 686 687 685 4 686 688 689 687 4
688 690 691 689 4 690 692 693 691 4
692 694 695 693 4 694 696 697 695 4
696 698 699 697 4 698 700 701 699 4
700 702 703 701 4 702 704 705 703 4
704 706 707 705 4 706 708 709 707 4
708 710 711 709 4 710 712 713 711 4
712 714 715 713 4 714 716 717 715 4
716 718 719 717 4 718 720 721 719 4
720 722 723 721 4 722 724 725 723 4
724 726 727 725 4 726 728 729 727 4
728 730 731 729 4 730 732 733 731 4
732 734 735 733 4 734 736 737 735 4
736 738 739 737 4 738 740 741 739 4
740 742 743 741 4 742 744 745 743 4
744 746 747 745 4 746 748 749 747 4
748 750 751 749 4 750 752 753 751 4
752 754 755 753 4 754 756 757 755 4
756 758 759 757 4 758 760 761 759 4
760 762 763 761 4 762 764 765 763 4
764 766 767 765 4 766 768 769 767 4
768 770 771 769 4 770 772 773 771 4
772 774 775 773 4 774 776 777 775 4
776 778 779 777 4 778 780 781 779 4
780 782 783 781 4 782 784 785 783 4
784 786 787 785 4 786 788 789 787 4
788 790 791 789 4 790 792 793 791 4
792 794 795 793 4 794 796 797 795 4
796 798 799 797 4 798 800 801 799 4
800 802 803 801 4 802 804 805 803 4
804 806 807 805 4 806 808 809 807 4
808 810 811 809 4 810 812 813 811 4
812 814 815 813 4 814 816 817 815 4
816 818 819 817 4 818 820 821 819 4
820 822 823 821 4 822 824 825 823 4
824 826 827 825 4 826 828 829 827 4
828 830 831 829 4 830 832 833 831 4
832 834 835 833 4 834 836 837 835 4
836 838 839 837 4 838 840 841 839 4
840 842 843 841 4 842 844 845 843 4
844 846 847 845 4 846 848 849 847 4
848 850 851 849 4 850 852 853 851 4
852 854 855 853 4 854 856 857 855 4
856 858 859 857 4 858 860 861 859 4
860 862 863 861 4 862 864 865 863 4
864 866 867 865 4 866 868 869 867 4
868 870 871 869 4 870 872 873 871 4
872 874 875 873 4 874 876 877 875 4
876 878 879 877 4 878 880 881 879 4
880 882 883 881 4 882 884 885 883 4
884 886 887 885 4 886 888 889 887 4
888 890 891 889 4 890 892 893 891 4
892 894 895 893 4 894 896 897 895 4
896 898 899 897 4 898 900 901 899 4
900 902 903 901 4 902 904 905 903 4
904 906 907 905 4 906 908 909 907 4
908 910 911 909 4 910 912 913 911 4
912 914 915 913 4 914 916 917 915 4
916 918 919 917 4 918 920 921 919 4
920 922 923 921 4 922 924 925 923 4
924 926 927 925 4 926 928 929 927 4
928 930 931 929 4 930 932 933 931 4
932 934 935 933 4 934 936 937 935 4
936 938 939 937 4 938 940 941 939 4
940 942 943 941 4 942 944 945 943 4
944 946 947 945 4 946 948 949 947 4
948 950 951 949 4 950 952 953 951 4
952 954 955 953 4 954 956 957 955 4
956 958 959 957 4 958 960 961 959 4
960 962 963 961 4 962 964 965 963 4
964 966 967 965 4 966 968 969 967 4
968 970 971 969 4 970 972 973 971 4
972 974 975 973 4 974 976 977 975 4
976 978 979 977 4 978 980 981 979 4
980 982 983 981 4 982 984 985 983 4
984 986 987 985 4 986 988 989 987 4
988 990 991 989 4 990 992 993 991 4
992 994 995 993 4 994 996 997 995 4
996 998 999 997 4 998 1000 1001 999 4
1000 1002 1003 1001 4 1002 1004 1005 1003 4
1004 1006 1007 1005 4 1006 1008 1009 1007 4
1008 1010 1011 1009 4 1010 1012 1013 1011 4
1012 1014 1015 1013 4 1014 1016 1017 1015 4
1016 1018 1019 1017 4 1018 1020 1021 1019 4
1020 1022 1023 1021 4 1022 1024 1025 1023 4
1024 1026 1027 1025 4 1026 1028 1029 1027 4
1028 1030 1031 1029 4 1030 1032 1033 1031 4
1032 1034 1035 1033 4 1034 1036 1037 1035 4
1036 1038 1039 1037 4 1038 1040 1041 1039 4
1040 1042 1043 1041 4 1042 1044 1045 1043 4
1044 1046 1047 1045 4 1046 1048 1049 1047 4
1048 1050 1051 1049 4 1050 1052 1053 1051 4
1052 1054 1055 1053 4 1054 1056 1057 1055 4
1056 1058 1059 1057 4 1058 1060 1061 1059 4
1060 1062 1063 1061 4 1062 1064 1065 1063 4
1064 1066 1067 1065 4 1066 1068 1069 1067 4
1068 1070 1071 1069 4 1070 1072 1073 1071 4
1072 1074 1075 1073 4 1074 1076 1077 1075 4
1076 1078 1079 1077 4 1078 1080 1081 1079 4
1080 1082 1083 1081 4 1082 1084 1085 1083 4
1084 1086 1087 1085 4 1086 1088 1089 1087 4
1088 1090 1091 1089 4 1090 1092 1093 1091 4
1092 1094 1095 1093 4 1094 1096 1097 1095 4
1096 1098 1099 1097 4 1098 1100 1101 1099 4
1100 1102 1103 1101 4 1102 1104 1105 1103 4
1104 1106 1107 1105 4 1106 1108 1109 1107 4
1108 1110 1111 1109 4 1110 1112 1113 1111 4
1112 1114 1115 1113 4 1114 1116 1117 1115 4
1116 1118 1119 1117 4 1118 1120 1121 1119 4
1120 1122 1123 1121 4 1122 1124 1125 1123 4
1124 1126 1127 1125 4 1126 1128 1129 1127 4
1128 1130 1131 1129 4 1130 1132 1133 1131 4
1132 1134 1135 1133 4 1134 1136 1137 1135 4
1136 1138 1139 1137 4 1138 1140 1141 1139 4
1140 1142 1143 1141 4 1142 1144 1145 1143 4
1144 1146 1147 1145 4 1146 1148 1149 1147 4
1148 1150 1151 1149 4 1150 1152 1153 1151 4
1152 1154 1155 1153 4 1154 1156 1157 1155 4
1156 1158 1159 1157 4 1158 1160 1161 1159 4
1160 1162 1163 1161 4 1162 1164 1165 1163 4
1164 1166 1167 1165 4 1166 1168 1169 1167 4
1168 1170 1171 1169 4 1170 1172 1173 1171 4
1172 1174 1175 1173 4 1174 1176 1177 1175 4
1176 1178 1179 1177 4 1178 1180 1181 1179 4
1180 1182 1183 1181 4 1182 1184 1185 1183 4
1184 1186 1187 1185 4 1186 1188 1189 1187 4
1188 1190 1191 1189 4 1190 1192 1193 1191 4
1192 1194 1195 1193 4 1194 1196 1197 1195 4
1196 1198 1199 1197 4 1198 1200 1201 1199 
POINT_DATA 1202
FIELD attributes 1
U 3 1202 float
1.54632 0.0341547 0 0.869958 0.0236436 0 0.869958 0.0236436 0 1.54632 0.0341547
0 0.166339 0.00856603 0 0.166339 0.00856603 0 0.122372 0.00258695 0
0.122372 0.00258695 0 0.0963836 0.000773343 0 0.0963836 0.000773343 0 0.0818384
0.000279209 0 0.0818384 0.000279209 0 0.0730742 0.000175097 0 0.0730742 0.000175097
0 0.0669323 0.00015798 0 0.0669323 0.00015798 0 0.0621557 0.000141711 0
0.0621557 0.000141711 0 0.0582724 0.000120794 0 0.0582724 0.000120794 0 0.0550478
0.000100916 0 0.0550478 0.000100916 0 0.0523157 8.58866e-05 0 0.0523157 8.58866e-05
0 0.0499514 7.56268e-05 0 0.0499514 7.56268e-05 0 0.0478661 6.77253e-05 0
0.0478661 6.77253e-05 0 0.0460021 6.11537e-05 0 0.0460021 6.11537e-05 0 0.0443202
5.55259e-05 0 0.0443202 5.55259e-05 0 0.0427916 5.06245e-05 0 0.0427916 5.06245e-05
0 0.0413944 4.63098e-05 0 0.0413944 4.63098e-05 0 0.0401111 4.24877e-05 0
0.0401111 4.24877e-05 0 0.0389274 3.90883e-05 0 0.0389274 3.90883e-05 0 0.0378315
3.60556e-05 0 0.0378315 3.60556e-05 0 0.0368135 3.3343e-05 0 0.0368135 3.3343e-05
0 0.0358647 3.09109e-05 0 0.0358647 3.09109e-05 0 0.034978 2.87251e-05 0
0.034978 2.87251e-05 0 0.034147 2.67562e-05 0 0.034147 2.67562e-05 0 0.033366
2.49782e-05 0 0.033366 2.49782e-05 0 0.0326304 2.33689e-05 0 0.0326304 2.33689e-05
0 0.0319358 2.19084e-05 0 0.0319358 2.19084e-05 0 0.0312786 2.05799e-05 0
0.0312786 2.05799e-05 0 0.0306554 1.93681e-05 0 0.0306554 1.93681e-05 0 0.0300634
1.82604e-05 0 0.0300634 1.82604e-05 0 0.0295 1.72453e-05 0 0.0295 1.72453e-05
0 0.0289629 1.63127e-05 0 0.0289629 1.63127e-05 0 0.02845 1.54553e-05 0
0.02845 1.54553e-05 0 0.0279594 1.46625e-05 0 0.0279594 1.46625e-05 0 0.0274895
1.39373e-05 0 0.0274895 1.39373e-05 0 0.0270388 1.32565e-05 0 0.0270388 1.32565e-05
0 0.0266057 1.26525e-05 0 0.0266057 1.26525e-05 0 0.0261888 1.20489e-05 0
0.0261888 1.20489e-05 0 0.0257887 1.13191e-05 0 0.0257887 1.13191e-05 0 0.025404
1.07018e-05 0 0.025404 1.07018e-05 0 0.025032 1.03202e-05 0 0.025032 1.03202e-05
0 0.0246702 1.00053e-05 0 0.0246702 1.00053e-05 0 0.024318 9.68232e-06 0
0.024318 9.68232e-06 0 0.0239755 9.34811e-06 0 0.0239755 9.34811e-06 0 0.0236427
9.00848e-06 0 0.0236427 9.00848e-06 0 0.0233196 8.66986e-06 0 0.0233196 8.66986e-06
0 0.023006 8.33738e-06 0 0.023006 8.33738e-06 0 0.0227018 8.0144e-06 0
0.0227018 8.0144e-06 0 0.0224066 7.70289e-06 0 0.0224066 7.70289e-06 0 0.0221201
7.40391e-06 0 0.0221201 7.40391e-06 0 0.021842 7.11791e-06 0 0.021842 7.11791e-06
0 0.0215719 6.84493e-06 0 0.0215719 6.84493e-06 0 0.0213096 6.58475e-06 0
0.0213096 6.58475e-06 0 0.0210547 6.33701e-06 0 0.0210547 6.33701e-06 0 0.0208068
6.10123e-06 0 0.0208068 6.10123e-06 0 0.0205657 5.87688e-06 0 0.0205657 5.87688e-06
0 0.0203311 5.66341e-06 0 0.0203311 5.66341e-06 0 0.0201026 5.46027e-06 0
0.0201026 5.46027e-06 0 0.0198801 5.26688e-06 0 0.0198801 5.26688e-06 0 0.0196632
5.08274e-06 0 0.0196632 5.08274e-06 0 0.0194518 4.90729e-06 0 0.0194518 4.90729e-06
0 0.0192455 4.74009e-06 0 0.0192455 4.74009e-06 0 0.0190442 4.58059e-06 0
0.0190442 4.58059e-06 0 0.0188477 4.42844e-06 0 0.0188477 4.42844e-06 0 0.0186558
4.28313e-06 0 0.0186558 4.28313e-06 0 0.0184682 4.14439e-06 0 0.0184682 4.14439e-06
0 0.0182849 4.01171e-06 0 0.0182849 4.01171e-06 0 0.0181056 3.88493e-06 0
0.0181056 3.88493e-06 0 0.0179302 3.7635e-06 0 0.0179302 3.7635e-06 0 0.0177586
3.64744e-06 0 0.0177586 3.64744e-06 0 0.0175905 3.53612e-06 0 0.0175905 3.53612e-06
0 0.0174259 3.42967e-06 0 0.0174259 3.42967e-06 0 0.0172646 3.32767e-06 0
0.0172646 3.32767e-06 0 0.0171065 3.22972e-06 0 0.0171065 3.22972e-06 0 0.0169515
3.13763e-06 0 0.0169515 3.13763e-06 0 0.0167995 3.04606e-06 0 0.0167995 3.04606e-06
0 0.0166501 2.96996e-06 0 0.0166501 2.96996e-06 0 0.0165035 2.8752e-06 0
0.0165035 2.8752e-06 0 0.0163603 2.74728e-06 0 0.0163603 2.74728e-06 0 0.0162198
2.67265e-06 0 0.0162198 2.67265e-06 0 0.0160807 2.64353e-06 0 0.0160807 2.64353e-06
0 0.0159426 2.60483e-06 0 0.0159426 2.60483e-06 0 0.0158058 2.55679e-06 0
0.0158058 2.55679e-06 0 0.0156708 2.50162e-06 0 0.0156708 2.50162e-06 0 0.0155376
2.4422e-06 0 0.0155376 2.4422e-06 0 0.0154064 2.38078e-06 0 0.0154064 2.38078e-06
0 0.0152774 2.31879e-06 0 0.0152774 2.31879e-06 0 0.0151504 2.25714e-06 0
0.0151504 2.25714e-06 0 0.0150256 2.19642e-06 0 0.0150256 2.19642e-06 0 0.0149029
2.13697e-06 0 0.0149029 2.13697e-06 0 0.0147822 2.07902e-06 0 0.0147822 2.07902e-06
0 0.0146636 2.02267e-06 0 0.0146636 2.02267e-06 0 0.014547 1.968e-06 0
0.014547 1.968e-06 0 0.0144324 1.91503e-06 0 0.0144324 1.91503e-06 0 0.0143196
1.86374e-06 0 0.0143196 1.86374e-06 0 0.0142087 1.81412e-06 0 0.0142087 1.81412e-06
0 0.0140996 1.76612e-06 0 0.0140996 1.76612e-06 0 0.0139923 1.71971e-06 0
0.0139923 1.71971e-06 0 0.0138867 1.67483e-06 0 0.0138867 1.67483e-06 0 0.0137827
1.63144e-06 0 0.0137827 1.63144e-06 0 0.0136804 1.58948e-06 0 0.0136804 1.58948e-06
0 0.0135796 1.5489e-06 0 0.0135796 1.5489e-06 0 0.0134804 1.50965e-06 0
0.0134804 1.50965e-06 0 0.0133826 1.47168e-06 0 0.0133826 1.47168e-06 0 0.0132863
1.43493e-06 0 0.0132863 1.43493e-06 0 0.0131914 1.39938e-06 0 0.0131914 1.39938e-06
0 0.0130979 1.36493e-06 0 0.0130979 1.36493e-06 0 0.0130058 1.33162e-06 0
0.0130058 1.33162e-06 0 0.0129149 1.29931e-06 0 0.0129149 1.29931e-06 0 0.0128253
1.26809e-06 0 0.0128253 1.26809e-06 0 0.012737 1.23776e-06 0 0.012737 1.23776e-06
0 0.0126498 1.20848e-06 0 0.0126498 1.20848e-06 0 0.0125638 1.18006e-06 0
0.0125638 1.18006e-06 0 0.012479 1.15253e-06 0 0.012479 1.15253e-06 0 0.0123952
1.12634e-06 0 0.0123952 1.12634e-06 0 0.0123126 1.09988e-06 0 0.0123126 1.09988e-06
0 0.0122309 1.07857e-06 0 0.0122309 1.07857e-06 0 0.0121502 1.05184e-06 0
0.0121502 1.05184e-06 0 0.0120709 1.01389e-06 0 0.0120709 1.01389e-06 0 0.0119926
9.9185e-07 0 0.0119926 9.9185e-07 0 0.0119146 9.86741e-07 0 0.0119146 9.86741e-07
0 0.0118366 9.79732e-07 0 0.0118366 9.79732e-07 0 0.0117587 9.67602e-07 0
0.0117587 9.67602e-07 0 0.0116814 9.51719e-07 0 0.0116814 9.51719e-07 0 0.0116047
9.33561e-07 0 0.0116047 9.33561e-07 0 0.0115289 9.14209e-07 0 0.0115289 9.14209e-07
0 0.0114539 8.94321e-07 0 0.0114539 8.94321e-07 0 0.0113797 8.74305e-07 0
0.0113797 8.74305e-07 0 0.0113065 8.54406e-07 0 0.0113065 8.54406e-07 0 0.0112343
8.34775e-07 0 0.0112343 8.34775e-07 0 0.0111629 8.15506e-07 0 0.0111629 8.15506e-07
0 0.0110925 7.96655e-07 0 0.0110925 7.96655e-07 0 0.0110229 7.78254e-07 0
0.0110229 7.78254e-07 0 0.0109543 7.6032e-07 0 0.0109543 7.6032e-07 0 0.0108865
7.42858e-07 0 0.0108865 7.42858e-07 0 0.0108195 7.25869e-07 0 0.0108195 7.25869e-07
0 0.0107534 7.09343e-07 0 0.0107534 7.09343e-07 0 0.0106881 6.93278e-07 0
0.0106881 6.93278e-07 0 0.0106236 6.77657e-07 0 0.0106236 6.77657e-07 0 0.0105599
6.62475e-07 0 0.0105599 6.62475e-07 0 0.010497 6.47714e-07 0 0.010497 6.47714e-07
0 0.0104348 6.3337e-07 0 0.0104348 6.3337e-07 0 0.0103733 6.19417e-07 0
0.0103733 6.19417e-07 0 0.0103125 6.05859e-07 0 0.0103125 6.05859e-07 0 0.0102525
5.92664e-07 0 0.0102525 5.92664e-07 0 0.0101931 5.79845e-07 0 0.0101931 5.79845e-07
0 0.0101344 5.67359e-07 0 0.0101344 5.67359e-07 0 0.0100764 5.55239e-07 0
0.0100764 5.55239e-07 0 0.010019 5.43422e-07 0 0.010019 5.43422e-07 0 0.00996223
5.31967e-07 0 0.00996223 5.31967e-07 0 0.00990607 5.20797e-07 0 0.00990607 5.20797e-07
0 0.00985051 5.09965e-07 0 0.00985051 5.09965e-07 0 0.00979552 4.99539e-07 0
0.00979552 4.99539e-07 0 0.00974114 4.89125e-07 0 0.00974114 4.89125e-07 0 0.00968722
4.80545e-07 0 0.00968722 4.80545e-07 0 0.00963383 4.69662e-07 0 0.00963383 4.69662e-07
0 0.00958128 4.54737e-07 0 0.00958128 4.54737e-07 0 0.00952922 4.46642e-07 0
0.00952922 4.46642e-07 0 0.00947706 4.4621e-07 0 0.00947706 4.4621e-07 0 0.00942463
4.44861e-07 0 0.00942463 4.44861e-07 0 0.00937216 4.40441e-07 0 0.00937216 4.40441e-07
0 0.00931991 4.34013e-07 0 0.00931991 4.34013e-07 0 0.00926801 4.26404e-07 0
0.00926801 4.26404e-07 0 0.00921657 4.18204e-07 0 0.00921657 4.18204e-07 0 0.00916562
4.09737e-07 0 0.00916562 4.09737e-07 0 0.00911521 4.01199e-07 0 0.00911521 4.01199e-07
0 0.00906533 3.92702e-07 0 0.00906533 3.92702e-07 0 0.009016 3.84313e-07 0
0.009016 3.84313e-07 0 0.00896722 3.76069e-07 0 0.00896722 3.76069e-07 0 0.00891898
3.67999e-07 0 0.00891898 3.67999e-07 0 0.00887127 3.60111e-07 0 0.00887127 3.60111e-07
0 0.00882409 3.52415e-07 0 0.00882409 3.52415e-07 0 0.00877743 3.4491e-07 0
0.00877743 3.4491e-07 0 0.00873127 3.37599e-07 0 0.00873127 3.37599e-07 0 0.00868562
3.30473e-07 0 0.00868562 3.30473e-07 0 0.00864046 3.23538e-07 0 0.00864046 3.23538e-07
0 0.00859577 3.16777e-07 0 0.00859577 3.16777e-07 0 0.00855155 3.10201e-07 0
0.00855155 3.10201e-07 0 0.0085078 3.03787e-07 0 0.0085078 3.03787e-07 0 0.0084645
2.9755e-07 0 0.0084645 2.9755e-07 0 0.00842164 2.91462e-07 0 0.00842164 2.91462e-07
0 0.00837921 2.85549e-07 0 0.00837921 2.85549e-07 0 0.0083372 2.79764e-07 0
0.0083372 2.79764e-07 0 0.00829561 2.7416e-07 0 0.00829561 2.7416e-07 0 0.00825443
2.68662e-07 0 0.00825443 2.68662e-07 0 0.00821364 2.63359e-07 0 0.00821364 2.63359e-07
0 0.00817324 2.58133e-07 0 0.00817324 2.58133e-07 0 0.00813323 2.5313e-07 0
0.00813323 2.5313e-07 0 0.00809357 2.48222e-07 0 0.00809357 2.48222e-07 0 0.00805432
2.4344e-07 0 0.00805432 2.4344e-07 0 0.00801527 2.39658e-07 0 0.00801527 2.39658e-07
0 0.00797671 2.33049e-07 0 0.00797671 2.33049e-07 0 0.00793876 2.2644e-07 0
0.00793876 2.2644e-07 0 0.00790073 2.26243e-07 0 0.00790073 2.26243e-07 0 0.0078623
2.27366e-07 0 0.0078623 2.27366e-07 0 0.00782363 2.26006e-07 0 0.00782363 2.26006e-07
0 0.00778501 2.23276e-07 0 0.00778501 2.23276e-07 0 0.00774658 2.19656e-07 0
0.00774658 2.19656e-07 0 0.00770845 2.15641e-07 0 0.00770845 2.15641e-07 0 0.00767065
2.1143e-07 0 0.00767065 2.1143e-07 0 0.00763323 2.07162e-07 0 0.00763323 2.07162e-07
0 0.00759618 2.02903e-07 0 0.00759618 2.02903e-07 0 0.00755951 1.98694e-07 0
0.00755951 1.98694e-07 0 0.00752322 1.94559e-07 0 0.00752322 1.94559e-07 0 0.00748732
1.90511e-07 0 0.00748732 1.90511e-07 0 0.00745178 1.86555e-07 0 0.00745178 1.86555e-07
0 0.00741662 1.82695e-07 0 0.00741662 1.82695e-07 0 0.00738182 1.78931e-07 0
0.00738182 1.78931e-07 0 0.00734738 1.75264e-07 0 0.00734738 1.75264e-07 0 0.00731328
1.71691e-07 0 0.00731328 1.71691e-07 0 0.00727953 1.68212e-07 0 0.00727953 1.68212e-07
0 0.00724611 1.6482e-07 0 0.00724611 1.6482e-07 0 0.00721301 1.6152e-07 0
0.00721301 1.6152e-07 0 0.00718024 1.58298e-07 0 0.00718024 1.58298e-07 0 0.00714779
1.55168e-07 0 0.00714779 1.55168e-07 0 0.00711564 1.52107e-07 0 0.00711564 1.52107e-07
0 0.00708379 1.49138e-07 0 0.00708379 1.49138e-07 0 0.00705224 1.46226e-07 0
0.00705224 1.46226e-07 0 0.00702097 1.43417e-07 0 0.00702097 1.43417e-07 0 0.00698999
1.40645e-07 0 0.00698999 1.40645e-07 0 0.00695928 1.37996e-07 0 0.00695928 1.37996e-07
0 0.00692883 1.35377e-07 0 0.00692883 1.35377e-07 0 0.00689868 1.32855e-07 0
0.00689868 1.32855e-07 0 0.00686867 1.30807e-07 0 0.00686867 1.30807e-07 0 0.00683901
1.27419e-07 0 0.00683901 1.27419e-07 0 0.00680981 1.2415e-07 0 0.00680981 1.2415e-07
0 0.00678049 1.24126e-07 0 0.00678049 1.24126e-07 0 0.00675079 1.24976e-07 0
0.00675079 1.24976e-07 0 0.00672081 1.24518e-07 0 0.00672081 1.24518e-07 0 0.00669084
1.23105e-07 0 0.00669084 1.23105e-07 0 0.006661 1.21139e-07 0 0.006661 1.21139e-07
0 0.00663138 1.18924e-07 0 0.00663138 1.18924e-07 0 0.00660203 1.166e-07 0
0.00660203 1.166e-07 0 0.00657295 1.14247e-07 0 0.00657295 1.14247e-07 0 0.00654418
1.11905e-07 0 0.00654418 1.11905e-07 0 0.00651569 1.09596e-07 0 0.00651569 1.09596e-07
0 0.0064875 1.07333e-07 0 0.0064875 1.07333e-07 0 0.00645959 1.05121e-07 0
0.00645959 1.05121e-07 0 0.00643198 1.02964e-07 0 0.00643198 1.02964e-07 0 0.00640464
1.00862e-07 0 0.00640464 1.00862e-07 0 0.00637758 9.88133e-08 0 0.00637758 9.88133e-08
0 0.00635078 9.68203e-08 0 0.00635078 9.68203e-08 0 0.00632425 9.48782e-08 0
0.00632425 9.48782e-08 0 0.00629797 9.29893e-08 0 0.00629797 9.29893e-08 0 0.00627195
9.11468e-08 0 0.00627195 9.11468e-08 0 0.00624617 8.93552e-08 0 0.00624617 8.93552e-08
0 0.00622064 8.76062e-08 0 0.00622064 8.76062e-08 0 0.00619533 8.59068e-08 0
0.00619533 8.59068e-08 0 0.00617026 8.42456e-08 0 0.00617026 8.42456e-08 0 0.00614542
8.26354e-08 0 0.00614542 8.26354e-08 0 0.00612079 8.10565e-08 0 0.00612079 8.10565e-08
0 0.00609638 7.95384e-08 0 0.00609638 7.95384e-08 0 0.00607217 7.80416e-08 0
0.00607217 7.80416e-08 0 0.00604819 7.66168e-08 0 0.00604819 7.66168e-08 0 0.00602434
7.53696e-08 0 0.00602434 7.53696e-08 0 0.00600073 7.35682e-08 0 0.00600073 7.35682e-08
0 0.00597747 7.18956e-08 0 0.00597747 7.18956e-08 0 0.00595411 7.187e-08 0
0.00595411 7.187e-08 0 0.00593037 7.24835e-08 0 0.00593037 7.24835e-08 0 0.00590636
7.23687e-08 0 0.00590636 7.23687e-08 0 0.00588232 7.15671e-08 0 0.00588232 7.15671e-08
0 0.0058584 7.0413e-08 0 0.0058584 7.0413e-08 0 0.00583465 6.91001e-08 0
0.00583465 6.91001e-08 0 0.00581113 6.7726e-08 0 0.00581113 6.7726e-08 0 0.00578784
6.63405e-08 0 0.00578784 6.63405e-08 0 0.00576478 6.49656e-08 0 0.00576478 6.49656e-08
0 0.00574197 6.36153e-08 0 0.00574197 6.36153e-08 0 0.0057194 6.22948e-08 0
0.0057194 6.22948e-08 0 0.00569706 6.10072e-08 0 0.00569706 6.10072e-08 0 0.00567494
5.97548e-08 0 0.00567494 5.97548e-08 0 0.00565306 5.85349e-08 0 0.00565306 5.85349e-08
0 0.00563139 5.73507e-08 0 0.00563139 5.73507e-08 0 0.00560994 5.6197e-08 0
0.00560994 5.6197e-08 0 0.00558869 5.50765e-08 0 0.00558869 5.50765e-08 0 0.00556765
5.3985e-08 0 0.00556765 5.3985e-08 0 0.00554681 5.29233e-08 0 0.00554681 5.29233e-08
0 0.00552616 5.18891e-08 0 0.00552616 5.18891e-08 0 0.0055057 5.08829e-08 0
0.0055057 5.08829e-08 0 0.00548543 4.99008e-08 0 0.00548543 4.99008e-08 0 0.00546534
4.89493e-08 0 0.00546534 4.89493e-08 0 0.00544542 4.80154e-08 0 0.00544542 4.80154e-08
0 0.00542568 4.71224e-08 0 0.00542568 4.71224e-08 0 0.00540611 4.62342e-08 0
0.00540611 4.62342e-08 0 0.0053867 4.54397e-08 0 0.0053867 4.54397e-08 0 0.00536739
4.4574e-08 0 0.00536739 4.4574e-08 0 0.00534839 4.34455e-08 0 0.00534839 4.34455e-08
0 0.00532948 4.31014e-08 0 0.00532948 4.31014e-08 0 0.0053102 4.36466e-08 0
0.0053102 4.36466e-08 0 0.00529059 4.3833e-08 0 0.00529059 4.3833e-08 0 0.00527088
4.34251e-08 0 0.00527088 4.34251e-08 0 0.00525126 4.27428e-08 0 0.00525126 4.27428e-08
0 0.00523179 4.19332e-08 0 0.00523179 4.19332e-08 0 0.0052125 4.10806e-08 0
0.0052125 4.10806e-08 0 0.00519341 4.0221e-08 0 0.00519341 4.0221e-08 0 0.00517453
3.93679e-08 0 0.00517453 3.93679e-08 0 0.00515586 3.85328e-08 0 0.00515586 3.85328e-08
0 0.00513738 3.77181e-08 0 0.00513738 3.77181e-08 0 0.00511911 3.6923e-08 0
0.00511911 3.6923e-08 0 0.00510103 3.61526e-08 0 0.00510103 3.61526e-08 0 0.00508314
3.54015e-08 0 0.00508314 3.54015e-08 0 0.00506544 3.46724e-08 0 0.00506544 3.46724e-08
0 0.00504791 3.39646e-08 0 0.00504791 3.39646e-08 0 0.00503057 3.32737e-08 0
0.00503057 3.32737e-08 0 0.00501339 3.26053e-08 0 0.00501339 3.26053e-08 0 0.00499639
3.19514e-08 0 0.00499639 3.19514e-08 0 0.00497954 3.13171e-08 0 0.00497954 3.13171e-08
0 0.00496286 3.06991e-08 0 0.00496286 3.06991e-08 0 0.00494634 3.00961e-08 0
0.00494634 3.00961e-08 0 0.00492997 2.95086e-08 0 0.00492997 2.95086e-08 0 0.00491375
2.89414e-08 0 0.00491375 2.89414e-08 0 0.00489768 2.83795e-08 0 0.00489768 2.83795e-08
0 0.00488176 2.78772e-08 0 0.00488176 2.78772e-08 0 0.00486593 2.72989e-08 0
0.00486593 2.72989e-08 0 0.00485038 2.66484e-08 0 0.00485038 2.66484e-08 0 0.00483484
2.65811e-08 0 0.00483484 2.65811e-08 0 0.00481892 2.69633e-08 0 0.00481892 2.69633e-08
0 0.00480274 2.70256e-08 0 0.00480274 2.70256e-08 0 0.00478652 2.67048e-08 0
0.00478652 2.67048e-08 0 0.0047704 2.62197e-08 0 0.0047704 2.62197e-08 0 0.00475444
2.56702e-08 0 0.00475444 2.56702e-08 0 0.00473867 2.50963e-08 0 0.00473867 2.50963e-08
0 0.00472309 2.45265e-08 0 0.00472309 2.45265e-08 0 0.0047077 2.39641e-08 0
0.0047077 2.39641e-08 0 0.00469251 2.34095e-08 0 0.00469251 2.34095e-08 0 0.00467751
2.28757e-08 0 0.00467751 2.28757e-08 0 0.00466271 2.23487e-08 0 0.00466271 2.23487e-08
0 0.00464808 2.1836e-08 0 0.00464808 2.1836e-08 0 0.00463365 2.13401e-08 0
0.00463365 2.13401e-08 0 0.00461939 2.08474e-08 0 0.00461939 2.08474e-08 0 0.00460532
2.03693e-08 0 0.00460532 2.03693e-08 0 0.00459143 1.99023e-08 0 0.00459143 1.99023e-08
0 0.00457771 1.94354e-08 0 0.00457771 1.94354e-08 0 0.00456418 1.89846e-08 0
0.00456418 1.89846e-08 0 0.00455083 1.85379e-08 0 0.00455083 1.85379e-08 0 0.00453766
1.80924e-08 0 0.00453766 1.80924e-08 0 0.00452466 1.76641e-08 0 0.00452466 1.76641e-08
0 0.00451185 1.72343e-08 0 0.00451185 1.72343e-08 0 0.00449922 1.68137e-08 0
0.00449922 1.68137e-08 0 0.00448676 1.64216e-08 0 0.00448676 1.64216e-08 0 0.00447448
1.5955e-08 0 0.00447448 1.5955e-08 0 0.00446248 1.55528e-08 0 0.00446248 1.55528e-08
0 0.00445046 1.5553e-08 0 0.00445046 1.5553e-08 0 0.00443817 1.56932e-08 0
0.00443817 1.56932e-08 0 0.00442577 1.55789e-08 0 0.00442577 1.55789e-08 0 0.00441346
1.52434e-08 0 0.00441346 1.52434e-08 0 0.00440137 1.47991e-08 0 0.00440137 1.47991e-08
0 0.00438952 1.43294e-08 0 0.00438952 1.43294e-08 0 0.00437794 1.3851e-08 0
0.00437794 1.3851e-08 0 0.00436665 1.33561e-08 0 0.00436665 1.33561e-08 0 0.00435564
1.28776e-08 0 0.00435564 1.28776e-08 0 0.00434492 1.2404e-08 0 0.00434492 1.2404e-08
0 0.00433451 1.19215e-08 0 0.00433451 1.19215e-08 0 0.00432439 1.14588e-08 0
0.00432439 1.14588e-08 0 0.00431457 1.10001e-08 0 0.00431457 1.10001e-08 0 0.00430506
1.05306e-08 0 0.00430506 1.05306e-08 0 0.00429586 1.00834e-08 0 0.00429586 1.00834e-08
0 0.00428697 9.64215e-09 0 0.00428697 9.64215e-09 0 0.0042784 9.18658e-09 0
0.0042784 9.18658e-09 0 0.00427014 8.7551e-09 0 0.00427014 8.7551e-09 0 0.00426219
8.33184e-09 0 0.00426219 8.33184e-09 0 0.00425457 7.89671e-09 0 0.00425457 7.89671e-09
0 0.00424727 7.48253e-09 0 0.00424727 7.48253e-09 0 0.00424029 7.08498e-09 0
0.00424029 7.08498e-09 0 0.00423361 6.68298e-09 0 0.00423361 6.68298e-09 0 0.00422727
6.28432e-09 0 0.00422727 6.28432e-09 0 0.00422124 5.93027e-09 0 0.00422124 5.93027e-09
0 0.00421549 5.54022e-09 0 0.00421549 5.54022e-09 0 0.00421014 5.17869e-09 0
0.00421014 5.17869e-09 0 0.00420492 5.09235e-09 0 0.00420492 5.09235e-09 0 0.00419961
5.08495e-09 0 0.00419961 5.08495e-09 0 0.00419438 4.89569e-09 0 0.00419438 4.89569e-09
0 0.00418938 4.59839e-09 0 0.00418938 4.59839e-09 0 0.00418467 4.25985e-09 0
0.00418467 4.25985e-09 0 0.0041803 3.9016e-09 0 0.0041803 3.9016e-09 0 0.00417625
3.56823e-09 0 0.00417625 3.56823e-09 0 0.00417251 3.25915e-09 0 0.00417251 3.25915e-09
0 0.00416908 2.9409e-09 0 0.00416908 2.9409e-09 0 0.00416597 2.63044e-09 0
0.00416597 2.63044e-09 0 0.00416316 2.34976e-09 0 0.00416316 2.34976e-09 0 0.00416064
2.07208e-09 0 0.00416064 2.07208e-09 0 0.00415842 1.78783e-09 0 0.00415842 1.78783e-09
0 0.00415649 1.52822e-09 0 0.00415649 1.52822e-09 0 0.00415483 1.29292e-09 0
0.00415483 1.29292e-09 0 0.00415344 1.05293e-09 0 0.00415344 1.05293e-09 0 0.00415232
8.1692e-10 0 0.00415232 8.1692e-10 0 0.00415146 6.08843e-10 0 0.00415146 6.08843e-10
0 0.00415083 4.13177e-10 0 0.00415083 4.13177e-10 0 0.00415046 2.07878e-10 0
0.00415046 2.07878e-10 0 0.00415033 9.06847e-12 0 0.00415033 9.06847e-12 0 0.00415043
-1.64574e-10 0 0.00415043 -1.64574e-10 0 0.00415076 -3.29056e-10 0 0.00415076 -3.29056e-10
0 0.0041513 -5.001e-10 0 0.0041513 -5.001e-10 0 0.00415207 -6.61659e-10 0
0.00415207 -6.61659e-10 0 0.00415305 -7.99383e-10 0 0.00415305 -7.99383e-10 0 0.00415422
-9.34819e-10 0 0.00415422 -9.34819e-10 0 0.0041556 -1.09731e-09 0 0.0041556 -1.09731e-09
0 0.00415721 -1.1926e-09 0 0.00415721 -1.1926e-09 0 0.00415884 -1.13579e-09 0
0.00415884 -1.13579e-09 0 0.00416033 -1.06593e-09 0 0.00416033 -1.06593e-09 0 0.00416183
-1.09349e-09 0 0.00416183 -1.09349e-09 0 0.00416345 -1.17584e-09 0 0.00416345 -1.17584e-09
0 0.00416522 -1.27179e-09 0 0.00416522 -1.27179e-09 0 0.00416715 -1.37952e-09 0
0.00416715 -1.37952e-09 0 0.00416929 -1.50403e-09 0 0.00416929 -1.50403e-09 0 0.00417162
-1.62481e-09 0 0.00417162 -1.62481e-09 0 0.00417413 -1.71515e-09 0 0.00417413 -1.71515e-09
0 0.00417678 -1.78249e-09 0 0.00417678 -1.78249e-09 0 0.00417958 -1.86017e-09 0
0.00417958 -1.86017e-09 0 0.00418254 -1.95832e-09 0 0.00418254 -1.95832e-09 0 0.00418569
-2.04973e-09 0 0.00418569 -2.04973e-09 0 0.00418898 -2.11132e-09 0 0.00418898 -2.11132e-09
0 0.00419239 -2.15822e-09 0 0.00419239 -2.15822e-09 0 0.00419593 -2.22112e-09 0
0.00419593 -2.22112e-09 0 0.00419964 -2.30368e-09 0 0.00419964 -2.30368e-09 0 0.00420351
-2.37706e-09 0 0.00420351 -2.37706e-09 0 0.0042075 -2.41596e-09 0 0.0042075 -2.41596e-09
0 0.00421157 -2.43052e-09 0 0.00421157 -2.43052e-09 0 0.00421572 -2.45337e-09 0
0.00421572 -2.45337e-09 0 0.00421999 -2.50355e-09 0 0.00421999 -2.50355e-09 0 0.00422441
-2.5684e-09 0 0.00422441 -2.5684e-09 0 0.00422897 -2.61923e-09 0 0.00422897 -2.61923e-09
0 0.00423363 -2.64078e-09 0 0.00423363 -2.64078e-09 0 0.00423835 -2.643e-09 0
0.00423835 -2.643e-09 0 0.00424314 -2.64785e-09 0 0.00424314 -2.64785e-09 0 0.00424801
-2.67166e-09 0 0.00424801 -2.67166e-09 0 0.004253 -2.7137e-09 0 0.004253 -2.7137e-09
0 0.00425811 -2.71289e-09 0 0.00425811 -2.71289e-09 0 0.00426316 -2.62685e-09 0
0.00426316 -2.62685e-09 0 0.00426804 -2.53039e-09 0 0.00426804 -2.53039e-09 0 0.00427285
-2.48447e-09 0 0.00427285 -2.48447e-09 0 0.00427767 -2.47743e-09 0 0.00427767 -2.47743e-09
0 0.00428255 -2.49348e-09 0 0.00428255 -2.49348e-09 0 0.00428754 -2.52051e-09 0
0.00428754 -2.52051e-09 0 0.00429263 -2.54788e-09 0 0.00429263 -2.54788e-09 0 0.00429782
-2.57075e-09 0 0.00429782 -2.57075e-09 0 0.00430311 -2.58933e-09 0 0.00430311 -2.58933e-09
0 0.00430849 -2.60563e-09 0 0.00430849 -2.60563e-09 0 0.00431396 -2.62176e-09 0
0.00431396 -2.62176e-09 0 0.00431953 -2.63925e-09 0 0.00431953 -2.63925e-09 0 0.00432519
-2.65655e-09 0 0.00432519 -2.65655e-09 0 0.00433095 -2.6717e-09 0 0.00433095 -2.6717e-09
0 0.0043368 -2.68485e-09 0 0.0043368 -2.68485e-09 0 0.00434273 -2.6958e-09 0
0.00434273 -2.6958e-09 0 0.00434875 -2.70525e-09 0 0.00434875 -2.70525e-09 0 0.00435486
-2.71409e-09 0 0.00435486 -2.71409e-09 0 0.00436104 -2.72216e-09 0 0.00436104 -2.72216e-09
0 0.00436731 -2.72959e-09 0 0.00436731 -2.72959e-09 0 0.00437367 -2.73624e-09 0
0.00437367 -2.73624e-09 0 0.0043801 -2.74182e-09 0 0.0043801 -2.74182e-09 0 0.00438661
-2.74619e-09 0 0.00438661 -2.74619e-09 0 0.0043932 -2.74895e-09 0 0.0043932 -2.74895e-09
0 0.00439986 -2.75036e-09 0 0.00439986 -2.75036e-09 0 0.00440659 -2.75045e-09 0
0.00440659 -2.75045e-09 0 0.00441338 -2.74845e-09 0 0.00441338 -2.74845e-09 0 0.00442025
-2.74934e-09 0 0.00442025 -2.74934e-09 0 0.00442719 -2.73673e-09 0 0.00442719 -2.73673e-09
0 0.00443413 -2.67643e-09 0 0.00443413 -2.67643e-09 0 0.0044409 -2.5911e-09 0
0.0044409 -2.5911e-09 0 0.00444754 -2.53068e-09 0 0.00444754 -2.53068e-09 0 0.00445415
-2.50119e-09 0 0.00445415 -2.50119e-09 0 0.00446077 -2.48782e-09 0 0.00446077 -2.48782e-09
0 0.00446745 -2.48207e-09 0 0.00446745 -2.48207e-09 0 0.00447418 -2.47925e-09 0
0.00447418 -2.47925e-09 0 0.00448098 -2.47773e-09 0 0.00448098 -2.47773e-09 0 0.00448784
-2.47673e-09 0 0.00448784 -2.47673e-09 0 0.00449477 -2.47543e-09 0 0.00449477 -2.47543e-09
0 0.00450177 -2.47388e-09 0 0.00450177 -2.47388e-09 0 0.00450884 -2.47165e-09 0
0.00450884 -2.47165e-09 0 0.00451598 -2.46917e-09 0 0.00451598 -2.46917e-09 0 0.00452318
-2.46609e-09 0 0.00452318 -2.46609e-09 0 0.00453045 -2.46251e-09 0 0.00453045 -2.46251e-09
0 0.00453778 -2.45867e-09 0 0.00453778 -2.45867e-09 0 0.00454518 -2.45393e-09 0
0.00454518 -2.45393e-09 0 0.00455264 -2.44904e-09 0 0.00455264 -2.44904e-09 0 0.00456016
-2.44402e-09 0 0.00456016 -2.44402e-09 0 0.00456774 -2.43827e-09 0 0.00456774 -2.43827e-09
0 0.00457538 -2.43216e-09 0 0.00457538 -2.43216e-09 0 0.00458308 -2.42565e-09 0
0.00458308 -2.42565e-09 0 0.00459085 -2.41871e-09 0 0.00459085 -2.41871e-09 0 0.00459867
-2.41156e-09 0 0.00459867 -2.41156e-09 0 0.00460654 -2.40419e-09 0 0.00460654 -2.40419e-09
0 0.00461448 -2.39602e-09 0 0.00461448 -2.39602e-09 0 0.00462247 -2.38797e-09 0
0.00462247 -2.38797e-09 0 0.00463051 -2.37777e-09 0 0.00463051 -2.37777e-09 0 0.0046386
-2.34328e-09 0 0.0046386 -2.34328e-09 0 0.00464657 -2.27828e-09 0 0.00464657 -2.27828e-09
0 0.00465437 -2.21918e-09 0 0.00465437 -2.21918e-09 0 0.0046621 -2.1851e-09 0
0.0046621 -2.1851e-09 0 0.00466983 -2.16607e-09 0 0.00466983 -2.16607e-09 0 0.00467758
-2.15455e-09 0 0.00467758 -2.15455e-09 0 0.00468538 -2.14606e-09 0 0.00468538 -2.14606e-09
0 0.00469324 -2.13897e-09 0 0.00469324 -2.13897e-09 0 0.00470115 -2.13247e-09 0
0.00470115 -2.13247e-09 0 0.00470912 -2.12597e-09 0 0.00470912 -2.12597e-09 0 0.00471715
-2.12007e-09 0 0.00471715 -2.12007e-09 0 0.00472524 -2.11376e-09 0 0.00472524 -2.11376e-09
0 0.00473339 -2.10709e-09 0 0.00473339 -2.10709e-09 0 0.0047416 -2.09998e-09 0
0.0047416 -2.09998e-09 0 0.00474986 -2.09237e-09 0 0.00474986 -2.09237e-09 0 0.00475818
-2.08486e-09 0 0.00475818 -2.08486e-09 0 0.00476656 -2.07697e-09 0 0.00476656 -2.07697e-09
0 0.00477499 -2.06889e-09 0 0.00477499 -2.06889e-09 0 0.00478348 -2.06091e-09 0
0.00478348 -2.06091e-09 0 0.00479202 -2.05255e-09 0 0.00479202 -2.05255e-09 0 0.00480062
-2.04336e-09 0 0.00480062 -2.04336e-09 0 0.00480927 -2.03431e-09 0 0.00480927 -2.03431e-09
0 0.00481797 -2.0254e-09 0 0.00481797 -2.0254e-09 0 0.00482672 -2.01661e-09 0
0.00482672 -2.01661e-09 0 0.00483552 -2.00759e-09 0 0.00483552 -2.00759e-09 0 0.00484437
-1.99829e-09 0 0.00484437 -1.99829e-09 0 0.00485328 -1.98717e-09 0 0.00485328 -1.98717e-09
0 0.00486221 -1.9588e-09 0 0.00486221 -1.9588e-09 0 0.00487104 -1.90803e-09 0
0.00487104 -1.90803e-09 0 0.0048797 -1.86103e-09 0 0.0048797 -1.86103e-09 0 0.00488827
-1.83228e-09 0 0.00488827 -1.83228e-09 0 0.00489684 -1.81455e-09 0 0.00489684 -1.81455e-09
0 0.00490543 -1.80241e-09 0 0.00490543 -1.80241e-09 0 0.00491406 -1.79261e-09 0
0.00491406 -1.79261e-09 0 0.00492274 -1.78386e-09 0 0.00492274 -1.78386e-09 0 0.00493147
-1.77586e-09 0 0.00493147 -1.77586e-09 0 0.00494024 -1.76811e-09 0 0.00494024 -1.76811e-09
0 0.00494907 -1.76044e-09 0 0.00494907 -1.76044e-09 0 0.00495796 -1.75247e-09 0
0.00495796 -1.75247e-09 0 0.00496689 -1.7443e-09 0 0.00496689 -1.7443e-09 0 0.00497588
-1.73622e-09 0 0.00497588 -1.73622e-09 0 0.00498492 -1.72794e-09 0 0.00498492 -1.72794e-09
0 0.004994 -1.71946e-09 0 0.004994 -1.71946e-09 0 0.00500314 -1.71105e-09 0
0.00500314 -1.71105e-09 0 0.00501233 -1.70262e-09 0 0.00501233 -1.70262e-09 0 0.00502156
-1.69374e-09 0 0.00502156 -1.69374e-09 0 0.00503085 -1.68481e-09 0 0.00503085 -1.68481e-09
0 0.00504018 -1.67588e-09 0 0.00504018 -1.67588e-09 0 0.00504955 -1.66685e-09 0
0.00504955 -1.66685e-09 0 0.00505898 -1.65775e-09 0 0.00505898 -1.65775e-09 0 0.00506845
-1.64877e-09 0 0.00506845 -1.64877e-09 0 0.00507796 -1.6399e-09 0 0.00507796 -1.6399e-09
0 0.00508752 -1.62524e-09 0 0.00508752 -1.62524e-09 0 0.00509707 -1.59424e-09 0
0.00509707 -1.59424e-09 0 0.00510646 -1.55303e-09 0 0.00510646 -1.55303e-09 0 0.0051157
-1.52047e-09 0 0.0051157 -1.52047e-09 0 0.0051249 -1.50075e-09 0 0.0051249 -1.50075e-09
0 0.00513409 -1.48754e-09 0 0.00513409 -1.48754e-09 0 0.00514332 -1.47738e-09 0
0.00514332 -1.47738e-09 0 0.00515258 -1.46834e-09 0 0.00515258 -1.46834e-09 0 0.00516188
-1.45985e-09 0 0.00516188 -1.45985e-09 0 0.00517123 -1.45182e-09 0 0.00517123 -1.45182e-09
0 0.00518062 -1.44392e-09 0 0.00518062 -1.44392e-09 0 0.00519006 -1.43619e-09 0
0.00519006 -1.43619e-09 0 0.00519954 -1.42841e-09 0 0.00519954 -1.42841e-09 0 0.00520908
-1.42047e-09 0 0.00520908 -1.42047e-09 0 0.00521865 -1.41221e-09 0 0.00521865 -1.41221e-09
0 0.00522828 -1.40427e-09 0 0.00522828 -1.40427e-09 0 0.00523794 -1.39653e-09 0
0.00523794 -1.39653e-09 0 0.00524766 -1.38836e-09 0 0.00524766 -1.38836e-09 0 0.00525741
-1.37983e-09 0 0.00525741 -1.37983e-09 0 0.00526721 -1.37135e-09 0 0.00526721 -1.37135e-09
0 0.00527705 -1.363e-09 0 0.00527705 -1.363e-09 0 0.00528693 -1.35517e-09 0
0.00528693 -1.35517e-09 0 0.00529685 -1.34683e-09 0 0.00529685 -1.34683e-09 0 0.00530681
-1.33806e-09 0 0.00530681 -1.33806e-09 0 0.00531682 -1.32738e-09 0 0.00531682 -1.32738e-09
0 0.00532683 -1.30518e-09 0 0.00532683 -1.30518e-09 0 0.00533671 -1.27224e-09 0
0.00533671 -1.27224e-09 0 0.00534642 -1.24402e-09 0 0.00534642 -1.24402e-09 0 0.00535606
-1.22642e-09 0 0.00535606 -1.22642e-09 0 0.0053657 -1.21396e-09 0 0.0053657 -1.21396e-09
0 0.00537535 -1.20429e-09 0 0.00537535 -1.20429e-09 0 0.00538503 -1.19639e-09 0
0.00538503 -1.19639e-09 0 0.00539475 -1.18841e-09 0 0.00539475 -1.18841e-09 0 0.00540451
-1.18107e-09 0 0.00540451 -1.18107e-09 0 0.00541432 -1.17417e-09 0 0.00541432 -1.17417e-09
0 0.00542416 -1.16691e-09 0 0.00542416 -1.16691e-09 0 0.00543404 -1.1597e-09 0
0.00543404 -1.1597e-09 0 0.00544397 -1.15218e-09 0 0.00544397 -1.15218e-09 0 0.00545393
-1.14488e-09 0 0.00545393 -1.14488e-09 0 0.00546394 -1.13779e-09 0 0.00546394 -1.13779e-09
0 0.00547399 -1.13058e-09 0 0.00547399 -1.13058e-09 0 0.00548407 -1.12333e-09 0
0.00548407 -1.12333e-09 0 0.00549419 -1.11599e-09 0 0.00549419 -1.11599e-09 0 0.00550436
-1.10854e-09 0 0.00550436 -1.10854e-09 0 0.00551455 -1.10123e-09 0 0.00551455 -1.10123e-09
0 0.00552479 -1.09342e-09 0 0.00552479 -1.09342e-09 0 0.00553506 -1.08669e-09 0
0.00553506 -1.08669e-09 0 0.00554538 -1.07553e-09 0 0.00554538 -1.07553e-09 0 0.00555565
-1.05655e-09 0 0.00555565 -1.05655e-09 0 0.00556582 -1.02819e-09 0 0.00556582 -1.02819e-09
0 0.00557574 -1.00925e-09 0 0.00557574 -1.00925e-09 0 0.00558575 -9.93175e-10 0
0.00558575 -9.93175e-10 0 0.00559556 -9.86116e-10 0 0.00559556 -9.86116e-10 0 0.00560565
-9.75596e-10 0 0.00560565 -9.75596e-10 0 0.00561544 -9.70628e-10 0 0.00561544 -9.70628e-10
0 0.00562564 -9.64135e-10 0 0.00562564 -9.64135e-10 0 0.00563549 -9.55206e-10 0
0.00563549 -9.55206e-10 0 0.00564572 -9.54127e-10 0 0.00564572 -9.54127e-10 0 0.00565575
-9.3835e-10 0 0.00565575 -9.3835e-10 0 0.00566586 -9.48619e-10 0 0.00566586 -9.48619e-10
0 0.00567632 -9.09517e-10 0 0.00567632 -9.09517e-10 0 0.00568578 -9.70285e-10 0
0.00568578 -9.70285e-10 0 0.0123747 -1.55225e-09 0 0.0123747 -1.55225e-09 0 0.019064
-2.02111e-09 0 0.019064 -2.02111e-09 0 
