# vtk DataFile Version 2.0
sampleSurface
ASCII
DATASET POLYDATA
POINTS 1202 float
0 0 0 5.99825e-05 0 0 5.99825e-05 0 0.1 0 0
0.1 0.000120591 0 0 0.000120591 0 0.1 0.000181831 0 0
0.000181831 0 0.1 0.000243709 0 0 0.000243709 0 0.1 0.000306234
0 0 0.000306234 0 0.1 0.00036941 0 0 0.00036941 0
0.1 0.000433245 0 0 0.000433245 0 0.1 0.000497746 0 0
0.000497746 0 0.1 0.000562919 0 0 0.000562919 0 0.1 0.000628772
0 0 0.000628772 0 0.1 0.000695312 0 0 0.000695312 0
0.1 0.000762546 0 0 0.000762546 0 0.1 0.000830481 0 0
0.000830481 0 0.1 0.000899125 0 0 0.000899125 0 0.1 0.000968484
0 0 0.000968484 0 0.1 0.00103857 0 0 0.00103857 0
0.1 0.00110938 0 0 0.00110938 0 0.1 0.00118093 0 0
0.00118093 0 0.1 0.00125323 0 0 0.00125323 0 0.1 0.00132628
0 0 0.00132628 0 0.1 0.0014001 0 0 0.0014001 0
0.1 0.00147468 0 0 0.00147468 0 0.1 0.00155004 0 0
0.00155004 0 0.1 0.00162619 0 0 0.00162619 0 0.1 0.00170313
0 0 0.00170313 0 0.1 0.00178088 0 0 0.00178088 0
0.1 0.00185943 0 0 0.00185943 0 0.1 0.00193881 0 0
0.00193881 0 0.1 0.00201901 0 0 0.00201901 0 0.1 0.00210005
0 0 0.00210005 0 0.1 0.00218193 0 0 0.00218193 0
0.1 0.00226467 0 0 0.00226467 0 0.1 0.00234827 0 0
0.00234827 0 0.1 0.00243274 0 0 0.00243274 0 0.1 0.0025181
0 0 0.0025181 0 0.1 0.00260434 0 0 0.00260434 0
0.1 0.00269148 0 0 0.00269148 0 0.1 0.00277954 0 0
0.00277954 0 0.1 0.00286851 0 0 0.00286851 0 0.1 0.0029584
0 0 0.0029584 0 0.1 0.00304924 0 0 0.00304924 0
0.1 0.00314102 0 0 0.00314102 0 0.1 0.00323376 0 0
0.00323376 0 0.1 0.00332747 0 0 0.00332747 0 0.1 0.00342215
0 0 0.00342215 0 0.1 0.00351783 0 0 0.00351783 0
0.1 0.0036145 0 0 0.0036145 0 0.1 0.00371217 0 0
0.00371217 0 0.1 0.00381087 0 0 0.00381087 0 0.1 0.0039106
0 0 0.0039106 0 0.1 0.00401136 0 0 0.00401136 0
0.1 0.00411318 0 0 0.00411318 0 0.1 0.00421606 0 0
0.00421606 0 0.1 0.00432001 0 0 0.00432001 0 0.1 0.00442505
0 0 0.00442505 0 0.1 0.00453118 0 0 0.00453118 0
0.1 0.00463842 0 0 0.00463842 0 0.1 0.00474677 0 0
0.00474677 0 0.1 0.00485626 0 0 0.00485626 0 0.1 0.00496689
0 0 0.00496689 0 0.1 0.00507867 0 0 0.00507867 0
0.1 0.00519162 0 0 0.00519162 0 0.1 0.00530574 0 0
0.00530574 0 0.1 0.00542106 0 0 0.00542106 0 0.1 0.00553758
0 0 0.00553758 0 0.1 0.00565531 0 0 0.00565531 0
0.1 0.00577427 0 0 0.00577427 0 0.1 0.00589447 0 0
0.00589447 0 0.1 0.00601593 0 0 0.00601593 0 0.1 0.00613865
0 0 0.00613865 0 0.1 0.00626266 0 0 0.00626266 0
0.1 0.00638795 0 0 0.00638795 0 0.1 0.00651455 0 0
0.00651455 0 0.1 0.00664248 0 0 0.00664248 0 0.1 0.00677173
0 0 0.00677173 0 0.1 0.00690234 0 0 0.00690234 0
0.1 0.0070343 0 0 0.0070343 0 0.1 0.00716765 0 0
0.00716765 0 0.1 0.00730238 0 0 0.00730238 0 0.1 0.00743852
0 0 0.00743852 0 0.1 0.00757608 0 0 0.00757608 0
0.1 0.00771507 0 0 0.00771507 0 0.1 0.00785551 0 0
0.00785551 0 0.1 0.00799742 0 0 0.00799742 0 0.1 0.00814081
0 0 0.00814081 0 0.1 0.00828569 0 0 0.00828569 0
0.1 0.00843209 0 0 0.00843209 0 0.1 0.00858001 0 0
0.00858001 0 0.1 0.00872947 0 0 0.00872947 0 0.1 0.00888049
0 0 0.00888049 0 0.1 0.00903309 0 0 0.00903309 0
0.1 0.00918728 0 0 0.00918728 0 0.1 0.00934307 0 0
0.00934307 0 0.1 0.00950049 0 0 0.00950049 0 0.1 0.00965956
0 0 0.00965956 0 0.1 0.00982028 0 0 0.00982028 0
0.1 0.00998268 0 0 0.00998268 0 0.1 0.0101468 0 0
0.0101468 0 0.1 0.0103126 0 0 0.0103126 0 0.1 0.0104801
0 0 0.0104801 0 0.1 0.0106494 0 0 0.0106494 0
0.1 0.0108204 0 0 0.0108204 0 0.1 0.0109933 0 0
0.0109933 0 0.1 0.0111679 0 0 0.0111679 0 0.1 0.0113443
0 0 0.0113443 0 0.1 0.0115226 0 0 0.0115226 0
0.1 0.0117028 0 0 0.0117028 0 0.1 0.0118848 0 0
0.0118848 0 0.1 0.0120687 0 0 0.0120687 0 0.1 0.0122546
0 0 0.0122546 0 0.1 0.0124424 0 0 0.0124424 0
0.1 0.0126321 0 0 0.0126321 0 0.1 0.0128238 0 0
0.0128238 0 0.1 0.0130176 0 0 0.0130176 0 0.1 0.0132133
0 0 0.0132133 0 0.1 0.0134111 0 0 0.0134111 0
0.1 0.0136109 0 0 0.0136109 0 0.1 0.0138129 0 0
0.0138129 0 0.1 0.0140169 0 0 0.0140169 0 0.1 0.0142231
0 0 0.0142231 0 0.1 0.0144314 0 0 0.0144314 0
0.1 0.0146419 0 0 0.0146419 0 0.1 0.0148546 0 0
0.0148546 0 0.1 0.0150695 0 0 0.0150695 0 0.1 0.0152866
0 0 0.0152866 0 0.1 0.015506 0 0 0.015506 0
0.1 0.0157277 0 0 0.0157277 0 0.1 0.0159517 0 0
0.0159517 0 0.1 0.016178 0 0 0.016178 0 0.1 0.0164067
0 0 0.0164067 0 0.1 0.0166378 0 0 0.0166378 0
0.1 0.0168713 0 0 0.0168713 0 0.1 0.0171073 0 0
0.0171073 0 0.1 0.0173457 0 0 0.0173457 0 0.1 0.0175865
0 0 0.0175865 0 0.1 0.0178299 0 0 0.0178299 0
0.1 0.0180759 0 0 0.0180759 0 0.1 0.0183244 0 0
0.0183244 0 0.1 0.0185754 0 0 0.0185754 0 0.1 0.0188291
0 0 0.0188291 0 0.1 0.0190855 0 0 0.0190855 0
0.1 0.0193445 0 0 0.0193445 0 0.1 0.0196063 0 0
0.0196063 0 0.1 0.0198707 0 0 0.0198707 0 0.1 0.0201379
0 0 0.0201379 0 0.1 0.0204079 0 0 0.0204079 0
0.1 0.0206807 0 0 0.0206807 0 0.1 0.0209564 0 0
0.0209564 0 0.1 0.0212349 0 0 0.0212349 0 0.1 0.0215164
0 0 0.0215164 0 0.1 0.0218008 0 0 0.0218008 0
0.1 0.0220881 0 0 0.0220881 0 0.1 0.0223784 0 0
0.0223784 0 0.1 0.0226718 0 0 0.0226718 0 0.1 0.0229682
0 0 0.0229682 0 0.1 0.0232677 0 0 0.0232677 0
0.1 0.0235704 0 0 0.0235704 0 0.1 0.0238762 0 0
0.0238762 0 0.1 0.0241852 0 0 0.0241852 0 0.1 0.0244974
0 0 0.0244974 0 0.1 0.0248128 0 0 0.0248128 0
0.1 0.0251316 0 0 0.0251316 0 0.1 0.0254537 0 0
0.0254537 0 0.1 0.0257791 0 0 0.0257791 0 0.1 0.0261079
0 0 0.0261079 0 0.1 0.0264402 0 0 0.0264402 0
0.1 0.0267759 0 0 0.0267759 0 0.1 0.0271152 0 0
0.0271152 0 0.1 0.0274579 0 0 0.0274579 0 0.1 0.0278043
0 0 0.0278043 0 0.1 0.0281542 0 0 0.0281542 0
0.1 0.0285078 0 0 0.0285078 0 0.1 0.0288651 0 0
0.0288651 0 0.1 0.0292261 0 0 0.0292261 0 0.1 0.0295909
0 0 0.0295909 0 0.1 0.0299595 0 0 0.0299595 0
0.1 0.0303319 0 0 0.0303319 0 0.1 0.0307082 0 0
0.0307082 0 0.1 0.0310885 0 0 0.0310885 0 0.1 0.0314727
0 0 0.0314727 0 0.1 0.0318609 0 0 0.0318609 0
0.1 0.0322532 0 0 0.0322532 0 0.1 0.0326495 0 0
0.0326495 0 0.1 0.03305 0 0 0.03305 0 0.1 0.0334546
0 0 0.0334546 0 0.1 0.0338635 0 0 0.0338635 0
0.1 0.0342767 0 0 0.0342767 0 0.1 0.0346941 0 0
0.0346941 0 0.1 0.0351159 0 0 0.0351159 0 0.1 0.0355421
0 0 0.0355421 0 0.1 0.0359728 0 0 0.0359728 0
0.1 0.0364079 0 0 0.0364079 0 0.1 0.0368476 0 0
0.0368476 0 0.1 0.0372919 0 0 0.0372919 0 0.1 0.0377408
0 0 0.0377408 0 0.1 0.0381944 0 0 0.0381944 0
0.1 0.0386527 0 0 0.0386527 0 0.1 0.0391158 0 0
0.0391158 0 0.1 0.0395837 0 0 0.0395837 0 0.1 0.0400565
0 0 0.0400565 0 0.1 0.0405342 0 0 0.0405342 0
0.1 0.0410169 0 0 0.0410169 0 0.1 0.0415047 0 0
0.0415047 0 0.1 0.0419975 0 0 0.0419975 0 0.1 0.0424955
0 0 0.0424955 0 0.1 0.0429986 0 0 0.0429986 0
0.1 0.0435071 0 0 0.0435071 0 0.1 0.0440208 0 0
0.0440208 0 0.1 0.0445398 0 0 0.0445398 0 0.1 0.0450643
0 0 0.0450643 0 0.1 0.0455943 0 0 0.0455943 0
0.1 0.0461298 0 0 0.0461298 0 0.1 0.0466708 0 0
0.0466708 0 0.1 0.0472176 0 0 0.0472176 0 0.1 0.04777
0 0 0.04777 0 0.1 0.0483281 0 0 0.0483281 0
0.1 0.0488921 0 0 0.0488921 0 0.1 0.049462 0 0
0.049462 0 0.1 0.0500378 0 0 0.0500378 0 0.1 0.0506197
0 0 0.0506197 0 0.1 0.0512076 0 0 0.0512076 0
0.1 0.0518016 0 0 0.0518016 0 0.1 0.0524018 0 0
0.0524018 0 0.1 0.0530083 0 0 0.0530083 0 0.1 0.0536211
0 0 0.0536211 0 0.1 0.0542403 0 0 0.0542403 0
0.1 0.0548659 0 0 0.0548659 0 0.1 0.0554981 0 0
0.0554981 0 0.1 0.0561369 0 0 0.0561369 0 0.1 0.0567823
0 0 0.0567823 0 0.1 0.0574345 0 0 0.0574345 0
0.1 0.0580934 0 0 0.0580934 0 0.1 0.0587593 0 0
0.0587593 0 0.1 0.0594321 0 0 0.0594321 0 0.1 0.0601119
0 0 0.0601119 0 0.1 0.0607987 0 0 0.0607987 0
0.1 0.0614928 0 0 0.0614928 0 0.1 0.0621941 0 0
0.0621941 0 0.1 0.0629027 0 0 0.0629027 0 0.1 0.0636187
0 0 0.0636187 0 0.1 0.0643421 0 0 0.0643421 0
0.1 0.0650732 0 0 0.0650732 0 0.1 0.0658118 0 0
0.0658118 0 0.1 0.0665581 0 0 0.0665581 0 0.1 0.0673122
0 0 0.0673122 0 0.1 0.0680742 0 0 0.0680742 0
0.1 0.0688441 0 0 0.0688441 0 0.1 0.0696221 0 0
0.0696221 0 0.1 0.0704082 0 0 0.0704082 0 0.1 0.0712024
0 0 0.0712024 0 0.1 0.072005 0 0 0.072005 0
0.1 0.0728159 0 0 0.0728159 0 0.1 0.0736353 0 0
0.0736353 0 0.1 0.0744632 0 0 0.0744632 0 0.1 0.0752998
0 0 0.0752998 0 0.1 0.076145 0 0 0.076145 0
0.1 0.0769991 0 0 0.0769991 0 0.1 0.0778621 0 0
0.0778621 0 0.1 0.0787342 0 0 0.0787342 0 0.1 0.0796153
0 0 0.0796153 0 0.1 0.0805055 0 0 0.0805055 0
0.1 0.0814051 0 0 0.0814051 0 0.1 0.0823141 0 0
0.0823141 0 0.1 0.0832325 0 0 0.0832325 0 0.1 0.0841605
0 0 0.0841605 0 0.1 0.0850982 0 0 0.0850982 0
0.1 0.0860457 0 0 0.0860457 0 0.1 0.087003 0 0
0.087003 0 0.1 0.0879704 0 0 0.0879704 0 0.1 0.0889478
0 0 0.0889478 0 0.1 0.0899354 0 0 0.0899354 0
0.1 0.0909333 0 0 0.0909333 0 0.1 0.0919416 0 0
0.0919416 0 0.1 0.0929605 0 0 0.0929605 0 0.1 0.0939899
0 0 0.0939899 0 0.1 0.0950302 0 0 0.0950302 0
0.1 0.0960812 0 0 0.0960812 0 0.1 0.0971432 0 0
0.0971432 0 0.1 0.0982163 0 0 0.0982163 0 0.1 0.0993006
0 0 0.0993006 0 0.1 0.100396 0 0 0.100396 0
0.1 0.101503 0 0 0.101503 0 0.1 0.102622 0 0
0.102622 0 0.1 0.103752 0 0 0.103752 0 0.1 0.104894
0 0 0.104894 0 0.1 0.106048 0 0 0.106048 0
0.1 0.107214 0 0 0.107214 0 0.1 0.108392 0 0
0.108392 0 0.1 0.109582 0 0 0.109582 0 0.1 0.110785
0 0 0.110785 0 0.1 0.112001 0 0 0.112001 0
0.1 0.113229 0 0 0.113229 0 0.1 0.114469 0 0
0.114469 0 0.1 0.115723 0 0 0.115723 0 0.1 0.11699
0 0 0.11699 0 0.1 0.11827 0 0 0.11827 0
0.1 0.119564 0 0 0.119564 0 0.1 0.12087 0 0
0.12087 0 0.1 0.122191 0 0 0.122191 0 0.1 0.123525
0 0 0.123525 0 0.1 0.124873 0 0 0.124873 0
0.1 0.126236 0 0 0.126236 0 0.1 0.127612 0 0
0.127612 0 0.1 0.129003 0 0 0.129003 0 0.1 0.130408
0 0 0.130408 0 0.1 0.131828 0 0 0.131828 0
0.1 0.133263 0 0 0.133263 0 0.1 0.134713 0 0
0.134713 0 0.1 0.136178 0 0 0.136178 0 0.1 0.137658
0 0 0.137658 0 0.1 0.139154 0 0 0.139154 0
0.1 0.140665 0 0 0.140665 0 0.1 0.142192 0 0
0.142192 0 0.1 0.143735 0 0 0.143735 0 0.1 0.145294
0 0 0.145294 0 0.1 0.146869 0 0 0.146869 0
0.1 0.148461 0 0 0.148461 0 0.1 0.150069 0 0
0.150069 0 0.1 0.151694 0 0 0.151694 0 0.1 0.153336
0 0 0.153336 0 0.1 0.154995 0 0 0.154995 0
0.1 0.156672 0 0 0.156672 0 0.1 0.158366 0 0
0.158366 0 0.1 0.160077 0 0 0.160077 0 0.1 0.161807
0 0 0.161807 0 0.1 0.163554 0 0 0.163554 0
0.1 0.16532 0 0 0.16532 0 0.1 0.167104 0 0
0.167104 0 0.1 0.168907 0 0 0.168907 0 0.1 0.170728
0 0 0.170728 0 0.1 0.172569 0 0 0.172569 0
0.1 0.174428 0 0 0.174428 0 0.1 0.176307 0 0
0.176307 0 0.1 0.178206 0 0 0.178206 0 0.1 0.180124
0 0 0.180124 0 0.1 0.182063 0 0 0.182063 0
0.1 0.184022 0 0 0.184022 0 0.1 0.186001 0 0
0.186001 0 0.1 0.188001 0 0 0.188001 0 0.1 0.190021
0 0 0.190021 0 0.1 0.192063 0 0 0.192063 0
0.1 0.194126 0 0 0.194126 0 0.1 0.19621 0 0
0.19621 0 0.1 0.198317 0 0 0.198317 0 0.1 0.200445
0 0 0.200445 0 0.1 0.202595 0 0 0.202595 0
0.1 0.204768 0 0 0.204768 0 0.1 0.206964 0 0
0.206964 0 0.1 0.209182 0 0 0.209182 0 0.1 0.211424
0 0 0.211424 0 0.1 0.213689 0 0 0.213689 0
0.1 0.215977 0 0 0.215977 0 0.1 0.21829 0 0
0.21829 0 0.1 0.220626 0 0 0.220626 0 0.1 0.222987
0 0 0.222987 0 0.1 0.225372 0 0 0.225372 0
0.1 0.227783 0 0 0.227783 0 0.1 0.230218 0 0
0.230218 0 0.1 0.232679 0 0 0.232679 0 0.1 0.235166
0 0 0.235166 0 0.1 0.237678 0 0 0.237678 0
0.1 0.240217 0 0 0.240217 0 0.1 0.242782 0 0
0.242782 0 0.1 0.245374 0 0 0.245374 0 0.1 0.247993
0 0 0.247993 0 0.1 0.25064 0 0 0.25064 0
0.1 0.253313 0 0 0.253313 0 0.1 0.256015 0 0
0.256015 0 0.1 0.258745 0 0 0.258745 0 0.1 0.261504
0 0 0.261504 0 0.1 0.264291 0 0 0.264291 0
0.1 0.267107 0 0 0.267107 0 0.1 0.269953 0 0
0.269953 0 0.1 0.272828 0 0 0.272828 0 0.1 0.275733
0 0 0.275733 0 0.1 0.278669 0 0 0.278669 0
0.1 0.281635 0 0 0.281635 0 0.1 0.284632 0 0
0.284632 0 0.1 0.287661 0 0 0.287661 0 0.1 0.290721
0 0 0.290721 0 0.1 0.293813 0 0 0.293813 0
0.1 0.296937 0 0 0.296937 0 0.1 0.300093 0 0
0.300093 0 0.1 0.303283 0 0 0.303283 0 0.1 0.306506
0 0 0.306506 0 0.1 0.309763 0 0 0.309763 0
0.1 0.313053 0 0 0.313053 0 0.1 0.316378 0 0
0.316378 0 0.1 0.319737 0 0 0.319737 0 0.1 0.323132
0 0 0.323132 0 0.1 0.326562 0 0 0.326562 0
0.1 0.330027 0 0 0.330027 0 0.1 0.333529 0 0
0.333529 0 0.1 0.337068 0 0 0.337068 0 0.1 0.340643
0 0 0.340643 0 0.1 0.344255 0 0 0.344255 0
0.1 0.347906 0 0 0.347906 0 0.1 0.351594 0 0
0.351594 0 0.1 0.355321 0 0 0.355321 0 0.1 0.359086
0 0 0.359086 0 0.1 0.362891 0 0 0.362891 0
0.1 0.366736 0 0 0.366736 0 0.1 0.37062 0 0
0.37062 0 0.1 0.374546 0 0 0.374546 0 0.1 0.378512
0 0 0.378512 0 0.1 0.382519 0 0 0.382519 0
0.1 0.386568 0 0 0.386568 0 0.1 0.39066 0 0
0.39066 0 0.1 0.394794 0 0 0.394794 0 0.1 0.398971
0 0 0.398971 0 0.1 0.403192 0 0 0.403192 0
0.1 0.407457 0 0 0.407457 0 0.1 0.411766 0 0
0.411766 0 0.1 0.416121 0 0 0.416121 0 0.1 0.42052
0 0 0.42052 0 0.1 0.424966 0 0 0.424966 0
0.1 0.429458 0 0 0.429458 0 0.1 0.433997 0 0
0.433997 0 0.1 0.438583 0 0 0.438583 0 0.1 0.443217
0 0 0.443217 0 0.1 0.447899 0 0 0.447899 0
0.1 0.45263 0 0 0.45263 0 0.1 0.457411 0 0
0.457411 0 0.1 0.462241 0 0 0.462241 0 0.1 0.467122
0 0 0.467122 0 0.1 0.472053 0 0 0.472053 0
0.1 0.477036 0 0 0.477036 0 0.1 0.482071 0 0
0.482071 0 0.1 0.487159 0 0 0.487159 0 0.1 0.492299
0 0 0.492299 0 0.1 0.497493 0 0 0.497493 0
0.1 0.502742 0 0 0.502742 0 0.1 0.508045 0 0
0.508045 0 0.1 0.513403 0 0 0.513403 0 0.1 0.518817
0 0 0.518817 0 0.1 0.524288 0 0 0.524288 0
0.1 0.529816 0 0 0.529816 0 0.1 0.535401 0 0
0.535401 0 0.1 0.541045 0 0 0.541045 0 0.1 0.546748
0 0 0.546748 0 0.1 0.55251 0 0 0.55251 0
0.1 0.558332 0 0 0.558332 0 0.1 0.564215 0 0
0.564215 0 0.1 0.570159 0 0 0.570159 0 0.1 0.576165
0 0 0.576165 0 0.1 0.582234 0 0 0.582234 0
0.1 0.588366 0 0 0.588366 0 0.1 0.594562 0 0
0.594562 0 0.1 0.600822 0 0 0.600822 0 0.1 0.607148
0 0 0.607148 0 0.1 0.61354 0 0 0.61354 0
0.1 0.619999 0 0 0.619999 0 0.1 0.626525 0 0
0.626525 0 0.1 0.633119 0 0 0.633119 0 0.1 0.639782
0 0 0.639782 0 0.1 0.646514 0 0 0.646514 0
0.1 0.653316 0 0 0.653316 0 0.1 0.66019 0 0
0.66019 0 0.1 0.667135 0 0 0.667135 0 0.1 0.674152
0 0 0.674152 0 0.1 0.681243 0 0 0.681243 0
0.1 0.688408 0 0 0.688408 0 0.1 0.695647 0 0
0.695647 0 0.1 0.702962 0 0 0.702962 0 0.1 0.710353
0 0 0.710353 0 0.1 0.717821 0 0 0.717821 0
0.1 0.725367 0 0 0.725367 0 0.1 0.732992 0 0
0.732992 0 0.1 0.740697 0 0 0.740697 0 0.1 0.748481
0 0 0.748481 0 0.1 0.756347 0 0 0.756347 0
0.1 0.764295 0 0 0.764295 0 0.1 0.772326 0 0
0.772326 0 0.1 0.78044 0 0 0.78044 0 0.1 0.78864
0 0 0.78864 0 0.1 0.796924 0 0 0.796924 0
0.1 0.805295 0 0 0.805295 0 0.1 0.813754 0 0
0.813754 0 0.1 0.8223 0 0 0.8223 0 0.1 0.830936
0 0 0.830936 0 0.1 0.839662 0 0 0.839662 0
0.1 0.848479 0 0 0.848479 0 0.1 0.857387 0 0
0.857387 0 0.1 0.866389 0 0 0.866389 0 0.1 0.875485
0 0 0.875485 0 0.1 0.884675 0 0 0.884675 0
0.1 0.893961 0 0 0.893961 0 0.1 0.903344 0 0
0.903344 0 0.1 0.912825 0 0 0.912825 0 0.1 0.922405
0 0 0.922405 0 0.1 0.932085 0 0 0.932085 0
0.1 0.941865 0 0 0.941865 0 0.1 0.951748 0 0
0.951748 0 0.1 0.961734 0 0 0.961734 0 0.1 0.971824
0 0 0.971824 0 0.1 0.982019 0 0 0.982019 0
0.1 0.99232 0 0 0.99232 0 0.1 1.00273 0 0
1.00273 0 0.1 1.01325 0 0 1.01325 0 0.1 1.02387
0 0 1.02387 0 0.1 1.03461 0 0 1.03461 0
0.1 1.04546 0 0 1.04546 0 0.1 1.05642 0 0
1.05642 0 0.1 1.0675 0 0 1.0675 0 0.1 1.07869
0 0 1.07869 0 0.1 1.09 0 0 1.09 0
0.1 1.10143 0 0 1.10143 0 0.1 1.11298 0 0
1.11298 0 0.1 1.12465 0 0 1.12465 0 0.1 1.13644
0 0 1.13644 0 0.1 1.14835 0 0 1.14835 0
0.1 1.16038 0 0 1.16038 0 0.1 1.17254 0 0
1.17254 0 0.1 1.18483 0 0 1.18483 0 0.1 1.19725
0 0 1.19725 0 0.1 1.2098 0 0 1.2098 0
0.1 1.22247 0 0 1.22247 0 0.1 1.23528 0 0
1.23528 0 0.1 1.24822 0 0 1.24822 0 0.1 1.2613
0 0 1.2613 0 0.1 1.27452 0 0 1.27452 0
0.1 1.28787 0 0 1.28787 0 0.1 1.30136 0 0
1.30136 0 0.1 1.31499 0 0 1.31499 0 0.1 1.32877
0 0 1.32877 0 0.1 1.34268 0 0 1.34268 0
0.1 1.35675 0 0 1.35675 0 0.1 1.37095 0 0
1.37095 0 0.1 1.38531 0 0 1.38531 0 0.1 1.39982
0 0 1.39982 0 0.1 1.41448 0 0 1.41448 0
0.1 1.42929 0 0 1.42929 0 0.1 1.44426 0 0
1.44426 0 0.1 1.45938 0 0 1.45938 0 0.1 1.47466
0 0 1.47466 0 0.1 1.4901 0 0 1.4901 0
0.1 1.5057 0 0 1.5057 0 0.1 1.52146 0 0
1.52146 0 0.1 1.53739 0 0 1.53739 0 0.1 1.55348
0 0 1.55348 0 0.1 1.56974 0 0 1.56974 0
0.1 1.58617 0 0 1.58617 0 0.1 1.60278 0 0
1.60278 0 0.1 1.61955 0 0 1.61955 0 0.1 1.6365
0 0 1.6365 0 0.1 1.65363 0 0 1.65363 0
0.1 1.67093 0 0 1.67093 0 0.1 1.68842 0 0
1.68842 0 0.1 1.70609 0 0 1.70609 0 0.1 1.72394
0 0 1.72394 0 0.1 1.74198 0 0 1.74198 0
0.1 1.76021 0 0 1.76021 0 0.1 1.77862 0 0
1.77862 0 0.1 1.79723 0 0 1.79723 0 0.1 1.81604
0 0 1.81604 0 0.1 1.83504 0 0 1.83504 0
0.1 1.85423 0 0 1.85423 0 0.1 1.87363 0 0
1.87363 0 0.1 1.89323 0 0 1.89323 0 0.1 1.91304
0 0 1.91304 0 0.1 1.93305 0 0 1.93305 0
0.1 1.95327 0 0 1.95327 0 0.1 1.9737 0 0
1.9737 0 0.1 1.99434 0 0 1.99434 0 0.1 2.0152
0 0 2.0152 0 0.1 2.03628 0 0 2.03628 0
0.1 2.05757 0 0 2.05757 0 0.1 2.07909 0 0
2.07909 0 0.1 2.10083 0 0 2.10083 0 0.1 2.1228
0 0 2.1228 0 0.1 2.145 0 0 2.145 0
0.1 2.16743 0 0 2.16743 0 0.1 2.1901 0 0
2.1901 0 0.1 2.213 0 0 2.213 0 0.1 2.23614
0 0 2.23614 0 0.1 2.25952 0 0 2.25952 0
0.1 2.28314 0 0 2.28314 0 0.1 2.30701 0 0
2.30701 0 0.1 2.33113 0 0 2.33113 0 0.1 2.3555
0 0 2.3555 0 0.1 2.38013 0 0 2.38013 0
0.1 2.40501 0 0 2.40501 0 0.1 2.43015 0 0
2.43015 0 0.1 2.45556 0 0 2.45556 0 0.1 2.48122
0 0 2.48122 0 0.1 2.50716 0 0 2.50716 0
0.1 2.53337 0 0 2.53337 0 0.1 2.55985 0 0
2.55985 0 0.1 2.58661 0 0 2.58661 0 0.1 2.61364
0 0 2.61364 0 0.1 2.64096 0 0 2.64096 0
0.1 2.66856 0 0 2.66856 0 0.1 2.69645 0 0
2.69645 0 0.1 2.72463 0 0 2.72463 0 0.1 2.75311
0 0 2.75311 0 0.1 2.78188 0 0 2.78188 0
0.1 2.81095 0 0 2.81095 0 0.1 2.84033 0 0
2.84033 0 0.1 2.87001 0 0 2.87001 0 0.1 2.9
0 0 2.9 0 0.1 
POLYGONS 600 3000
4 0 1 2 3 4 1 4 5 2 4
4 6 7 5 4 6 8 9 7 4
8 10 11 9 4 10 12 13 11 4
12 14 15 13 4 14 16 17 15 4
16 18 19 17 4 18 20 21 19 4
20 22 23 21 4 22 24 25 23 4
24 26 27 25 4 26 28 29 27 4
28 30 31 29 4 30 32 33 31 4
32 34 35 33 4 34 36 37 35 4
36 38 39 37 4 38 40 41 39 4
40 42 43 41 4 42 44 45 43 4
44 46 47 45 4 46 48 49 47 4
48 50 51 49 4 50 52 53 51 4
52 54 55 53 4 54 56 57 55 4
56 58 59 57 4 58 60 61 59 4
60 62 63 61 4 62 64 65 63 4
64 66 67 65 4 66 68 69 67 4
68 70 71 69 4 70 72 73 71 4
72 74 75 73 4 74 76 77 75 4
76 78 79 77 4 78 80 81 79 4
80 82 83 81 4 82 84 85 83 4
84 86 87 85 4 86 88 89 87 4
88 90 91 89 4 90 92 93 91 4
92 94 95 93 4 94 96 97 95 4
96 98 99 97 4 98 100 101 99 4
100 102 103 101 4 102 104 105 103 4
104 106 107 105 4 106 108 109 107 4
108 110 111 109 4 110 112 113 111 4
112 114 115 113 4 114 116 117 115 4
116 118 119 117 4 118 120 121 119 4
120 122 123 121 4 122 124 125 123 4
124 126 127 125 4 126 128 129 127 4
128 130 131 129 4 130 132 133 131 4
132 134 135 133 4 134 136 137 135 4
136 138 139 137 4 138 140 141 139 4
140 142 143 141 4 142 144 145 143 4
144 146 147 145 4 146 148 149 147 4
148 150 151 149 4 150 152 153 151 4
152 154 155 153 4 154 156 157 155 4
156 158 159 157 4 158 160 161 159 4
160 162 163 161 4 162 164 165 163 4
164 166 167 165 4 166 168 169 167 4
168 170 171 169 4 170 172 173 171 4
172 174 175 173 4 174 176 177 175 4
176 178 179 177 4 178 180 181 179 4
180 182 183 181 4 182 184 185 183 4
184 186 187 185 4 186 188 189 187 4
188 190 191 189 4 190 192 193 191 4
192 194 195 193 4 194 196 197 195 4
196 198 199 197 4 198 200 201 199 4
200 202 203 201 4 202 204 205 203 4
204 206 207 205 4 206 208 209 207 4
208 210 211 209 4 210 212 213 211 4
212 214 215 213 4 214 216 217 215 4
216 218 219 217 4 218 220 221 219 4
220 222 223 221 4 222 224 225 223 4
224 226 227 225 4 226 228 229 227 4
228 230 231 229 4 230 232 233 231 4
232 234 235 233 4 234 236 237 235 4
236 238 239 237 4 238 240 241 239 4
240 242 243 241 4 242 244 245 243 4
244 246 247 245 4 246 248 249 247 4
248 250 251 249 4 250 252 253 251 4
252 254 255 253 4 254 256 257 255 4
256 258 259 257 4 258 260 261 259 4
260 262 263 261 4 262 264 265 263 4
264 266 267 265 4 266 268 269 267 4
268 270 271 269 4 270 272 273 271 4
272 274 275 273 4 274 276 277 275 4
276 278 279 277 4 278 280 281 279 4
280 282 283 281 4 282 284 285 283 4
284 286 287 285 4 286 288 289 287 4
288 290 291 289 4 290 292 293 291 4
292 294 295 293 4 294 296 297 295 4
296 298 299 297 4 298 300 301 299 4
300 302 303 301 4 302 304 305 303 4
304 306 307 305 4 306 308 309 307 4
308 310 311 309 4 310 312 313 311 4
312 314 315 313 4 314 316 317 315 4
316 318 319 317 4 318 320 321 319 4
320 322 323 321 4 322 324 325 323 4
324 326 327 325 4 326 328 329 327 4
328 330 331 329 4 330 332 333 331 4
332 334 335 333 4 334 336 337 335 4
336 338 339 337 4 338 340 341 339 4
340 342 343 341 4 342 344 345 343 4
344 346 347 345 4 346 348 349 347 4
348 350 351 349 4 350 352 353 351 4
352 354 355 353 4 354 356 357 355 4
356 358 359 357 4 358 360 361 359 4
360 362 363 361 4 362 364 365 363 4
364 366 367 365 4 366 368 369 367 4
368 370 371 369 4 370 372 373 371 4
372 374 375 373 4 374 376 377 375 4
376 378 379 377 4 378 380 381 379 4
380 382 383 381 4 382 384 385 383 4
384 386 387 385 4 386 388 389 387 4
388 390 391 389 4 390 392 393 391 4
392 394 395 393 4 394 396 397 395 4
396 398 399 397 4 398 400 401 399 4
400 402 403 401 4 402 404 405 403 4
404 406 407 405 4 406 408 409 407 4
408 410 411 409 4 410 412 413 411 4
412 414 415 413 4 414 416 417 415 4
416 418 419 417 4 418 420 421 419 4
420 422 423 421 4 422 424 425 423 4
424 426 427 425 4 426 428 429 427 4
428 430 431 429 4 430 432 433 431 4
432 434 435 433 4 434 436 437 435 4
436 438 439 437 4 438 440 441 439 4
440 442 443 441 4 442 444 445 443 4
444 446 447 445 4 446 448 449 447 4
448 450 451 449 4 450 452 453 451 4
452 454 455 453 4 454 456 457 455 4
456 458 459 457 4 458 460 461 459 4
460 462 463 461 4 462 464 465 463 4
464 466 467 465 4 466 468 469 467 4
468 470 471 469 4 470 472 473 471 4
472 474 475 473 4 474 476 477 475 4
476 478 479 477 4 478 480 481 479 4
480 482 483 481 4 482 484 485 483 4
484 486 487 485 4 486 488 489 487 4
488 490 491 489 4 490 492 493 491 4
492 494 495 493 4 494 496 497 495 4
496 498 499 497 4 498 500 501 499 4
500 502 503 501 4 502 504 505 503 4
504 506 507 505 4 506 508 509 507 4
508 510 511 509 4 510 512 513 511 4
512 514 515 513 4 514 516 517 515 4
516 518 519 517 4 518 520 521 519 4
520 522 523 521 4 522 524 525 523 4
524 526 527 525 4 526 528 529 527 4
528 530 531 529 4 530 532 533 531 4
532 534 535 533 4 534 536 537 535 4
536 538 539 537 4 538 540 541 539 4
540 542 543 541 4 542 544 545 543 4
544 546 547 545 4 546 548 549 547 4
548 550 551 549 4 550 552 553 551 4
552 554 555 553 4 554 556 557 555 4
556 558 559 557 4 558 560 561 559 4
560 562 563 561 4 562 564 565 563 4
564 566 567 565 4 566 568 569 567 4
568 570 571 569 4 570 572 573 571 4
572 574 575 573 4 574 576 577 575 4
576 578 579 577 4 578 580 581 579 4
580 582 583 581 4 582 584 585 583 4
584 586 587 585 4 586 588 589 587 4
588 590 591 589 4 590 592 593 591 4
592 594 595 593 4 594 596 597 595 4
596 598 599 597 4 598 600 601 599 4
600 602 603 601 4 602 604 605 603 4
604 606 607 605 4 606 608 609 607 4
608 610 611 609 4 610 612 613 611 4
612 614 615 613 4 614 616 617 615 4
616 618 619 617 4 618 620 621 619 4
620 622 623 621 4 622 624 625 623 4
624 626 627 625 4 626 628 629 627 4
628 630 631 629 4 630 632 633 631 4
632 634 635 633 4 634 636 637 635 4
636 638 639 637 4 638 640 641 639 4
640 642 643 641 4 642 644 645 643 4
644 646 647 645 4 646 648 649 647 4
648 650 651 649 4 650 652 653 651 4
652 654 655 653 4 654 656 657 655 4
656 658 659 657 4 658 660 661 659 4
660 662 663 661 4 662 664 665 663 4
664 666 667 665 4 666 668 669 667 4
668 670 671 669 4 670 672 673 671 4
672 674 675 673 4 674 676 677 675 4
676 678 679 677 4 678 680 681 679 4
680 682 683 681 4 682 684 685 683 4
684 686 687 685 4 686 688 689 687 4
688 690 691 689 4 690 692 693 691 4
692 694 695 693 4 694 696 697 695 4
696 698 699 697 4 698 700 701 699 4
700 702 703 701 4 702 704 705 703 4
704 706 707 705 4 706 708 709 707 4
708 710 711 709 4 710 712 713 711 4
712 714 715 713 4 714 716 717 715 4
716 718 719 717 4 718 720 721 719 4
720 722 723 721 4 722 724 725 723 4
724 726 727 725 4 726 728 729 727 4
728 730 731 729 4 730 732 733 731 4
732 734 735 733 4 734 736 737 735 4
736 738 739 737 4 738 740 741 739 4
740 742 743 741 4 742 744 745 743 4
744 746 747 745 4 746 748 749 747 4
748 750 751 749 4 750 752 753 751 4
752 754 755 753 4 754 756 757 755 4
756 758 759 757 4 758 760 761 759 4
760 762 763 761 4 762 764 765 763 4
764 766 767 765 4 766 768 769 767 4
768 770 771 769 4 770 772 773 771 4
772 774 775 773 4 774 776 777 775 4
776 778 779 777 4 778 780 781 779 4
780 782 783 781 4 782 784 785 783 4
784 786 787 785 4 786 788 789 787 4
788 790 791 789 4 790 792 793 791 4
792 794 795 793 4 794 796 797 795 4
796 798 799 797 4 798 800 801 799 4
800 802 803 801 4 802 804 805 803 4
804 806 807 805 4 806 808 809 807 4
808 810 811 809 4 810 812 813 811 4
812 814 815 813 4 814 816 817 815 4
816 818 819 817 4 818 820 821 819 4
820 822 823 821 4 822 824 825 823 4
824 826 827 825 4 826 828 829 827 4
828 830 831 829 4 830 832 833 831 4
832 834 835 833 4 834 836 837 835 4
836 838 839 837 4 838 840 841 839 4
840 842 843 841 4 842 844 845 843 4
844 846 847 845 4 846 848 849 847 4
848 850 851 849 4 850 852 853 851 4
852 854 855 853 4 854 856 857 855 4
856 858 859 857 4 858 860 861 859 4
860 862 863 861 4 862 864 865 863 4
864 866 867 865 4 866 868 869 867 4
868 870 871 869 4 870 872 873 871 4
872 874 875 873 4 874 876 877 875 4
876 878 879 877 4 878 880 881 879 4
880 882 883 881 4 882 884 885 883 4
884 886 887 885 4 886 888 889 887 4
888 890 891 889 4 890 892 893 891 4
892 894 895 893 4 894 896 897 895 4
896 898 899 897 4 898 900 901 899 4
900 902 903 901 4 902 904 905 903 4
904 906 907 905 4 906 908 909 907 4
908 910 911 909 4 910 912 913 911 4
912 914 915 913 4 914 916 917 915 4
916 918 919 917 4 918 920 921 919 4
920 922 923 921 4 922 924 925 923 4
924 926 927 925 4 926 928 929 927 4
928 930 931 929 4 930 932 933 931 4
932 934 935 933 4 934 936 937 935 4
936 938 939 937 4 938 940 941 939 4
940 942 943 941 4 942 944 945 943 4
944 946 947 945 4 946 948 949 947 4
948 950 951 949 4 950 952 953 951 4
952 954 955 953 4 954 956 957 955 4
956 958 959 957 4 958 960 961 959 4
960 962 963 961 4 962 964 965 963 4
964 966 967 965 4 966 968 969 967 4
968 970 971 969 4 970 972 973 971 4
972 974 975 973 4 974 976 977 975 4
976 978 979 977 4 978 980 981 979 4
980 982 983 981 4 982 984 985 983 4
984 986 987 985 4 986 988 989 987 4
988 990 991 989 4 990 992 993 991 4
992 994 995 993 4 994 996 997 995 4
996 998 999 997 4 998 1000 1001 999 4
1000 1002 1003 1001 4 1002 1004 1005 1003 4
1004 1006 1007 1005 4 1006 1008 1009 1007 4
1008 1010 1011 1009 4 1010 1012 1013 1011 4
1012 1014 1015 1013 4 1014 1016 1017 1015 4
1016 1018 1019 1017 4 1018 1020 1021 1019 4
1020 1022 1023 1021 4 1022 1024 1025 1023 4
1024 1026 1027 1025 4 1026 1028 1029 1027 4
1028 1030 1031 1029 4 1030 1032 1033 1031 4
1032 1034 1035 1033 4 1034 1036 1037 1035 4
1036 1038 1039 1037 4 1038 1040 1041 1039 4
1040 1042 1043 1041 4 1042 1044 1045 1043 4
1044 1046 1047 1045 4 1046 1048 1049 1047 4
1048 1050 1051 1049 4 1050 1052 1053 1051 4
1052 1054 1055 1053 4 1054 1056 1057 1055 4
1056 1058 1059 1057 4 1058 1060 1061 1059 4
1060 1062 1063 1061 4 1062 1064 1065 1063 4
1064 1066 1067 1065 4 1066 1068 1069 1067 4
1068 1070 1071 1069 4 1070 1072 1073 1071 4
1072 1074 1075 1073 4 1074 1076 1077 1075 4
1076 1078 1079 1077 4 1078 1080 1081 1079 4
1080 1082 1083 1081 4 1082 1084 1085 1083 4
1084 1086 1087 1085 4 1086 1088 1089 1087 4
1088 1090 1091 1089 4 1090 1092 1093 1091 4
1092 1094 1095 1093 4 1094 1096 1097 1095 4
1096 1098 1099 1097 4 1098 1100 1101 1099 4
1100 1102 1103 1101 4 1102 1104 1105 1103 4
1104 1106 1107 1105 4 1106 1108 1109 1107 4
1108 1110 1111 1109 4 1110 1112 1113 1111 4
1112 1114 1115 1113 4 1114 1116 1117 1115 4
1116 1118 1119 1117 4 1118 1120 1121 1119 4
1120 1122 1123 1121 4 1122 1124 1125 1123 4
1124 1126 1127 1125 4 1126 1128 1129 1127 4
1128 1130 1131 1129 4 1130 1132 1133 1131 4
1132 1134 1135 1133 4 1134 1136 1137 1135 4
1136 1138 1139 1137 4 1138 1140 1141 1139 4
1140 1142 1143 1141 4 1142 1144 1145 1143 4
1144 1146 1147 1145 4 1146 1148 1149 1147 4
1148 1150 1151 1149 4 1150 1152 1153 1151 4
1152 1154 1155 1153 4 1154 1156 1157 1155 4
1156 1158 1159 1157 4 1158 1160 1161 1159 4
1160 1162 1163 1161 4 1162 1164 1165 1163 4
1164 1166 1167 1165 4 1166 1168 1169 1167 4
1168 1170 1171 1169 4 1170 1172 1173 1171 4
1172 1174 1175 1173 4 1174 1176 1177 1175 4
1176 1178 1179 1177 4 1178 1180 1181 1179 4
1180 1182 1183 1181 4 1182 1184 1185 1183 4
1184 1186 1187 1185 4 1186 1188 1189 1187 4
1188 1190 1191 1189 4 1190 1192 1193 1191 4
1192 1194 1195 1193 4 1194 1196 1197 1195 4
1196 1198 1199 1197 4 1198 1200 1201 1199 
POINT_DATA 1202
FIELD attributes 1
U 3 1202 float
1.54637 0.0341555 0 0.869985 0.0236443 0 0.869985 0.0236443 0 1.54637 0.0341555
0 0.166345 0.00856641 0 0.166345 0.00856641 0 0.122377 0.00258709 0
0.122377 0.00258709 0 0.0963873 0.000773383 0 0.0963873 0.000773383 0 0.0818414
0.000279216 0 0.0818414 0.000279216 0 0.0730768 0.000175098 0 0.0730768 0.000175098
0 0.0669346 0.000157982 0 0.0669346 0.000157982 0 0.0621579 0.000141715 0
0.0621579 0.000141715 0 0.0582744 0.000120798 0 0.0582744 0.000120798 0 0.0550496
0.00010092 0 0.0550496 0.00010092 0 0.0523175 8.58894e-05 0 0.0523175 8.58894e-05
0 0.049953 7.56292e-05 0 0.049953 7.56292e-05 0 0.0478676 6.77276e-05 0
0.0478676 6.77276e-05 0 0.0460035 6.1156e-05 0 0.0460035 6.1156e-05 0 0.0443216
5.55281e-05 0 0.0443216 5.55281e-05 0 0.0427929 5.06266e-05 0 0.0427929 5.06266e-05
0 0.0413956 4.63119e-05 0 0.0413956 4.63119e-05 0 0.0401122 4.24896e-05 0
0.0401122 4.24896e-05 0 0.0389284 3.90901e-05 0 0.0389284 3.90901e-05 0 0.0378325
3.60574e-05 0 0.0378325 3.60574e-05 0 0.0368144 3.33447e-05 0 0.0368144 3.33447e-05
0 0.0358657 3.09125e-05 0 0.0358657 3.09125e-05 0 0.0349789 2.87267e-05 0
0.0349789 2.87267e-05 0 0.0341478 2.67577e-05 0 0.0341478 2.67577e-05 0 0.0333668
2.49796e-05 0 0.0333668 2.49796e-05 0 0.0326311 2.33703e-05 0 0.0326311 2.33703e-05
0 0.0319365 2.19097e-05 0 0.0319365 2.19097e-05 0 0.0312792 2.05811e-05 0
0.0312792 2.05811e-05 0 0.030656 1.93694e-05 0 0.030656 1.93694e-05 0 0.030064
1.82616e-05 0 0.030064 1.82616e-05 0 0.0295005 1.72464e-05 0 0.0295005 1.72464e-05
0 0.0289634 1.63137e-05 0 0.0289634 1.63137e-05 0 0.0284504 1.54564e-05 0
0.0284504 1.54564e-05 0 0.0279598 1.46635e-05 0 0.0279598 1.46635e-05 0 0.0274898
1.39383e-05 0 0.0274898 1.39383e-05 0 0.0270391 1.32575e-05 0 0.0270391 1.32575e-05
0 0.026606 1.26534e-05 0 0.026606 1.26534e-05 0 0.0261891 1.20498e-05 0
0.0261891 1.20498e-05 0 0.0257889 1.13201e-05 0 0.0257889 1.13201e-05 0 0.0254042
1.07026e-05 0 0.0254042 1.07026e-05 0 0.0250321 1.03209e-05 0 0.0250321 1.03209e-05
0 0.0246703 1.0006e-05 0 0.0246703 1.0006e-05 0 0.0243181 9.68309e-06 0
0.0243181 9.68309e-06 0 0.0239756 9.34886e-06 0 0.0239756 9.34886e-06 0 0.0236428
9.00922e-06 0 0.0236428 9.00922e-06 0 0.0233196 8.67059e-06 0 0.0233196 8.67059e-06
0 0.023006 8.33809e-06 0 0.023006 8.33809e-06 0 0.0227018 8.01509e-06 0
0.0227018 8.01509e-06 0 0.0224065 7.70357e-06 0 0.0224065 7.70357e-06 0 0.02212
7.40457e-06 0 0.02212 7.40457e-06 0 0.0218419 7.11854e-06 0 0.0218419 7.11854e-06
0 0.0215718 6.84554e-06 0 0.0215718 6.84554e-06 0 0.0213094 6.58534e-06 0
0.0213094 6.58534e-06 0 0.0210545 6.33758e-06 0 0.0210545 6.33758e-06 0 0.0208066
6.10177e-06 0 0.0208066 6.10177e-06 0 0.0205655 5.8774e-06 0 0.0205655 5.8774e-06
0 0.0203308 5.66391e-06 0 0.0203308 5.66391e-06 0 0.0201023 5.46074e-06 0
0.0201023 5.46074e-06 0 0.0198798 5.26734e-06 0 0.0198798 5.26734e-06 0 0.0196629
5.08317e-06 0 0.0196629 5.08317e-06 0 0.0194514 4.9077e-06 0 0.0194514 4.9077e-06
0 0.0192452 4.74047e-06 0 0.0192452 4.74047e-06 0 0.0190439 4.58096e-06 0
0.0190439 4.58096e-06 0 0.0188473 4.42879e-06 0 0.0188473 4.42879e-06 0 0.0186554
4.28346e-06 0 0.0186554 4.28346e-06 0 0.0184678 4.1447e-06 0 0.0184678 4.1447e-06
0 0.0182845 4.01199e-06 0 0.0182845 4.01199e-06 0 0.0181052 3.8852e-06 0
0.0181052 3.8852e-06 0 0.0179298 3.76375e-06 0 0.0179298 3.76375e-06 0 0.0177581
3.64766e-06 0 0.0177581 3.64766e-06 0 0.01759 3.53632e-06 0 0.01759 3.53632e-06
0 0.0174254 3.42985e-06 0 0.0174254 3.42985e-06 0 0.0172641 3.32783e-06 0
0.0172641 3.32783e-06 0 0.0171061 3.22986e-06 0 0.0171061 3.22986e-06 0 0.016951
3.13774e-06 0 0.016951 3.13774e-06 0 0.016799 3.04617e-06 0 0.016799 3.04617e-06
0 0.0166496 2.97002e-06 0 0.0166496 2.97002e-06 0 0.016503 2.87517e-06 0
0.016503 2.87517e-06 0 0.0163598 2.74732e-06 0 0.0163598 2.74732e-06 0 0.0162192
2.67274e-06 0 0.0162192 2.67274e-06 0 0.0160802 2.64358e-06 0 0.0160802 2.64358e-06
0 0.0159421 2.60485e-06 0 0.0159421 2.60485e-06 0 0.0158053 2.55678e-06 0
0.0158053 2.55678e-06 0 0.0156703 2.50158e-06 0 0.0156703 2.50158e-06 0 0.0155371
2.44214e-06 0 0.0155371 2.44214e-06 0 0.015406 2.38069e-06 0 0.015406 2.38069e-06
0 0.0152769 2.31868e-06 0 0.0152769 2.31868e-06 0 0.01515 2.25701e-06 0
0.01515 2.25701e-06 0 0.0150251 2.19627e-06 0 0.0150251 2.19627e-06 0 0.0149024
2.13681e-06 0 0.0149024 2.13681e-06 0 0.0147818 2.07884e-06 0 0.0147818 2.07884e-06
0 0.0146632 2.02248e-06 0 0.0146632 2.02248e-06 0 0.0145466 1.9678e-06 0
0.0145466 1.9678e-06 0 0.014432 1.91481e-06 0 0.014432 1.91481e-06 0 0.0143192
1.86351e-06 0 0.0143192 1.86351e-06 0 0.0142083 1.81388e-06 0 0.0142083 1.81388e-06
0 0.0140993 1.76587e-06 0 0.0140993 1.76587e-06 0 0.0139919 1.71945e-06 0
0.0139919 1.71945e-06 0 0.0138863 1.67456e-06 0 0.0138863 1.67456e-06 0 0.0137824
1.63117e-06 0 0.0137824 1.63117e-06 0 0.0136801 1.5892e-06 0 0.0136801 1.5892e-06
0 0.0135793 1.54862e-06 0 0.0135793 1.54862e-06 0 0.0134801 1.50936e-06 0
0.0134801 1.50936e-06 0 0.0133824 1.4714e-06 0 0.0133824 1.4714e-06 0 0.0132861
1.43464e-06 0 0.0132861 1.43464e-06 0 0.0131913 1.39909e-06 0 0.0131913 1.39909e-06
0 0.0130978 1.36464e-06 0 0.0130978 1.36464e-06 0 0.0130056 1.33134e-06 0
0.0130056 1.33134e-06 0 0.0129148 1.29903e-06 0 0.0129148 1.29903e-06 0 0.0128252
1.2678e-06 0 0.0128252 1.2678e-06 0 0.0127369 1.23748e-06 0 0.0127369 1.23748e-06
0 0.0126497 1.2082e-06 0 0.0126497 1.2082e-06 0 0.0125638 1.17979e-06 0
0.0125638 1.17979e-06 0 0.012479 1.15227e-06 0 0.012479 1.15227e-06 0 0.0123952
1.12608e-06 0 0.0123952 1.12608e-06 0 0.0123126 1.09964e-06 0 0.0123126 1.09964e-06
0 0.0122309 1.07833e-06 0 0.0122309 1.07833e-06 0 0.0121502 1.05161e-06 0
0.0121502 1.05161e-06 0 0.012071 1.01368e-06 0 0.012071 1.01368e-06 0 0.0119927
9.91643e-07 0 0.0119927 9.91643e-07 0 0.0119147 9.86535e-07 0 0.0119147 9.86535e-07
0 0.0118367 9.79538e-07 0 0.0118367 9.79538e-07 0 0.0117589 9.67422e-07 0
0.0117589 9.67422e-07 0 0.0116815 9.51553e-07 0 0.0116815 9.51553e-07 0 0.0116049
9.3341e-07 0 0.0116049 9.3341e-07 0 0.011529 9.1407e-07 0 0.011529 9.1407e-07
0 0.011454 8.94195e-07 0 0.011454 8.94195e-07 0 0.0113799 8.74192e-07 0
0.0113799 8.74192e-07 0 0.0113067 8.54307e-07 0 0.0113067 8.54307e-07 0 0.0112345
8.3469e-07 0 0.0112345 8.3469e-07 0 0.0111631 8.15436e-07 0 0.0111631 8.15436e-07
0 0.0110927 7.96597e-07 0 0.0110927 7.96597e-07 0 0.0110231 7.78207e-07 0
0.0110231 7.78207e-07 0 0.0109545 7.60285e-07 0 0.0109545 7.60285e-07 0 0.0108867
7.42834e-07 0 0.0108867 7.42834e-07 0 0.0108197 7.25856e-07 0 0.0108197 7.25856e-07
0 0.0107536 7.0934e-07 0 0.0107536 7.0934e-07 0 0.0106883 6.93284e-07 0
0.0106883 6.93284e-07 0 0.0106238 6.77672e-07 0 0.0106238 6.77672e-07 0 0.0105601
6.62499e-07 0 0.0105601 6.62499e-07 0 0.0104971 6.47746e-07 0 0.0104971 6.47746e-07
0 0.0104349 6.33408e-07 0 0.0104349 6.33408e-07 0 0.0103735 6.1946e-07 0
0.0103735 6.1946e-07 0 0.0103127 6.05906e-07 0 0.0103127 6.05906e-07 0 0.0102527
5.92715e-07 0 0.0102527 5.92715e-07 0 0.0101933 5.799e-07 0 0.0101933 5.799e-07
0 0.0101346 5.67417e-07 0 0.0101346 5.67417e-07 0 0.0100765 5.553e-07 0
0.0100765 5.553e-07 0 0.0100191 5.43483e-07 0 0.0100191 5.43483e-07 0 0.00996237
5.32027e-07 0 0.00996237 5.32027e-07 0 0.0099062 5.20857e-07 0 0.0099062 5.20857e-07
0 0.00985064 5.10023e-07 0 0.00985064 5.10023e-07 0 0.00979565 4.99598e-07 0
0.00979565 4.99598e-07 0 0.00974126 4.89182e-07 0 0.00974126 4.89182e-07 0 0.00968733
4.80598e-07 0 0.00968733 4.80598e-07 0 0.00963394 4.69717e-07 0 0.00963394 4.69717e-07
0 0.00958138 4.54789e-07 0 0.00958138 4.54789e-07 0 0.00952931 4.46684e-07 0
0.00952931 4.46684e-07 0 0.00947715 4.46246e-07 0 0.00947715 4.46246e-07 0 0.00942471
4.44895e-07 0 0.00942471 4.44895e-07 0 0.00937224 4.40474e-07 0 0.00937224 4.40474e-07
0 0.00931999 4.34042e-07 0 0.00931999 4.34042e-07 0 0.00926809 4.26431e-07 0
0.00926809 4.26431e-07 0 0.00921664 4.18227e-07 0 0.00921664 4.18227e-07 0 0.00916569
4.09756e-07 0 0.00916569 4.09756e-07 0 0.00911527 4.01214e-07 0 0.00911527 4.01214e-07
0 0.0090654 3.92712e-07 0 0.0090654 3.92712e-07 0 0.00901607 3.84319e-07 0
0.00901607 3.84319e-07 0 0.00896728 3.76073e-07 0 0.00896728 3.76073e-07 0 0.00891904
3.67999e-07 0 0.00891904 3.67999e-07 0 0.00887133 3.60108e-07 0 0.00887133 3.60108e-07
0 0.00882415 3.52409e-07 0 0.00882415 3.52409e-07 0 0.00877749 3.44901e-07 0
0.00877749 3.44901e-07 0 0.00873134 3.37588e-07 0 0.00873134 3.37588e-07 0 0.00868569
3.30461e-07 0 0.00868569 3.30461e-07 0 0.00864052 3.23524e-07 0 0.00864052 3.23524e-07
0 0.00859584 3.16762e-07 0 0.00859584 3.16762e-07 0 0.00855163 3.10184e-07 0
0.00855163 3.10184e-07 0 0.00850787 3.03769e-07 0 0.00850787 3.03769e-07 0 0.00846457
2.97532e-07 0 0.00846457 2.97532e-07 0 0.00842171 2.91442e-07 0 0.00842171 2.91442e-07
0 0.00837929 2.85529e-07 0 0.00837929 2.85529e-07 0 0.00833728 2.79745e-07 0
0.00833728 2.79745e-07 0 0.0082957 2.7414e-07 0 0.0082957 2.7414e-07 0 0.00825452
2.68641e-07 0 0.00825452 2.68641e-07 0 0.00821373 2.63339e-07 0 0.00821373 2.63339e-07
0 0.00817334 2.58114e-07 0 0.00817334 2.58114e-07 0 0.00813333 2.53111e-07 0
0.00813333 2.53111e-07 0 0.00809367 2.48204e-07 0 0.00809367 2.48204e-07 0 0.00805442
2.43422e-07 0 0.00805442 2.43422e-07 0 0.00801538 2.39643e-07 0 0.00801538 2.39643e-07
0 0.00797682 2.33036e-07 0 0.00797682 2.33036e-07 0 0.00793887 2.26422e-07 0
0.00793887 2.26422e-07 0 0.00790084 2.26226e-07 0 0.00790084 2.26226e-07 0 0.00786242
2.27351e-07 0 0.00786242 2.27351e-07 0 0.00782374 2.25994e-07 0 0.00782374 2.25994e-07
0 0.00778513 2.23266e-07 0 0.00778513 2.23266e-07 0 0.0077467 2.19648e-07 0
0.0077467 2.19648e-07 0 0.00770857 2.15633e-07 0 0.00770857 2.15633e-07 0 0.00767078
2.11424e-07 0 0.00767078 2.11424e-07 0 0.00763335 2.07156e-07 0 0.00763335 2.07156e-07
0 0.0075963 2.02898e-07 0 0.0075963 2.02898e-07 0 0.00755963 1.98689e-07 0
0.00755963 1.98689e-07 0 0.00752335 1.94554e-07 0 0.00752335 1.94554e-07 0 0.00748745
1.90505e-07 0 0.00748745 1.90505e-07 0 0.00745192 1.86547e-07 0 0.00745192 1.86547e-07
0 0.00741676 1.82687e-07 0 0.00741676 1.82687e-07 0 0.00738196 1.7892e-07 0
0.00738196 1.7892e-07 0 0.00734752 1.75253e-07 0 0.00734752 1.75253e-07 0 0.00731343
1.71676e-07 0 0.00731343 1.71676e-07 0 0.00727967 1.68195e-07 0 0.00727967 1.68195e-07
0 0.00724626 1.64801e-07 0 0.00724626 1.64801e-07 0 0.00721317 1.61498e-07 0
0.00721317 1.61498e-07 0 0.00718041 1.58275e-07 0 0.00718041 1.58275e-07 0 0.00714795
1.55142e-07 0 0.00714795 1.55142e-07 0 0.00711581 1.52079e-07 0 0.00711581 1.52079e-07
0 0.00708397 1.49109e-07 0 0.00708397 1.49109e-07 0 0.00705242 1.46197e-07 0
0.00705242 1.46197e-07 0 0.00702116 1.43387e-07 0 0.00702116 1.43387e-07 0 0.00699018
1.40617e-07 0 0.00699018 1.40617e-07 0 0.00695948 1.37969e-07 0 0.00695948 1.37969e-07
0 0.00692904 1.35352e-07 0 0.00692904 1.35352e-07 0 0.00689889 1.32832e-07 0
0.00689889 1.32832e-07 0 0.00686889 1.30786e-07 0 0.00686889 1.30786e-07 0 0.00683923
1.27405e-07 0 0.00683923 1.27405e-07 0 0.00681003 1.24138e-07 0 0.00681003 1.24138e-07
0 0.00678072 1.2411e-07 0 0.00678072 1.2411e-07 0 0.00675102 1.24961e-07 0
0.00675102 1.24961e-07 0 0.00672104 1.2451e-07 0 0.00672104 1.2451e-07 0 0.00669107
1.23099e-07 0 0.00669107 1.23099e-07 0 0.00666123 1.21136e-07 0 0.00666123 1.21136e-07
0 0.00663161 1.18922e-07 0 0.00663161 1.18922e-07 0 0.00660226 1.16596e-07 0
0.00660226 1.16596e-07 0 0.00657319 1.14242e-07 0 0.00657319 1.14242e-07 0 0.00654441
1.11896e-07 0 0.00654441 1.11896e-07 0 0.00651593 1.09584e-07 0 0.00651593 1.09584e-07
0 0.00648774 1.07316e-07 0 0.00648774 1.07316e-07 0 0.00645985 1.05101e-07 0
0.00645985 1.05101e-07 0 0.00643223 1.02939e-07 0 0.00643223 1.02939e-07 0 0.0064049
1.00832e-07 0 0.0064049 1.00832e-07 0 0.00637785 9.87816e-08 0 0.00637785 9.87816e-08
0 0.00635106 9.67851e-08 0 0.00635106 9.67851e-08 0 0.00632454 9.48426e-08 0
0.00632454 9.48426e-08 0 0.00629827 9.29516e-08 0 0.00629827 9.29516e-08 0 0.00627226
9.11103e-08 0 0.00627226 9.11103e-08 0 0.00624649 8.93192e-08 0 0.00624649 8.93192e-08
0 0.00622096 8.75717e-08 0 0.00622096 8.75717e-08 0 0.00619567 8.58745e-08 0
0.00619567 8.58745e-08 0 0.00617061 8.42138e-08 0 0.00617061 8.42138e-08 0 0.00614577
8.26062e-08 0 0.00614577 8.26062e-08 0 0.00612115 8.10271e-08 0 0.00612115 8.10271e-08
0 0.00609675 7.95105e-08 0 0.00609675 7.95105e-08 0 0.00607255 7.80128e-08 0
0.00607255 7.80128e-08 0 0.00604858 7.65864e-08 0 0.00604858 7.65864e-08 0 0.00602473
7.53374e-08 0 0.00602473 7.53374e-08 0 0.00600114 7.3537e-08 0 0.00600114 7.3537e-08
0 0.00597789 7.1861e-08 0 0.00597789 7.1861e-08 0 0.00595454 7.18218e-08 0
0.00595454 7.18218e-08 0 0.00593082 7.2435e-08 0 0.00593082 7.2435e-08 0 0.00590682
7.23233e-08 0 0.00590682 7.23233e-08 0 0.0058828 7.15231e-08 0 0.0058828 7.15231e-08
0 0.00585889 7.03717e-08 0 0.00585889 7.03717e-08 0 0.00583516 6.90585e-08 0
0.00583516 6.90585e-08 0 0.00581165 6.76877e-08 0 0.00581165 6.76877e-08 0 0.00578837
6.63027e-08 0 0.00578837 6.63027e-08 0 0.00576533 6.493e-08 0 0.00576533 6.493e-08
0 0.00574253 6.35817e-08 0 0.00574253 6.35817e-08 0 0.00571996 6.22609e-08 0
0.00571996 6.22609e-08 0 0.00569764 6.09752e-08 0 0.00569764 6.09752e-08 0 0.00567554
5.97206e-08 0 0.00567554 5.97206e-08 0 0.00565366 5.85008e-08 0 0.00565366 5.85008e-08
0 0.00563201 5.73141e-08 0 0.00563201 5.73141e-08 0 0.00561057 5.6157e-08 0
0.00561057 5.6157e-08 0 0.00558934 5.50341e-08 0 0.00558934 5.50341e-08 0 0.00556832
5.39365e-08 0 0.00556832 5.39365e-08 0 0.00554749 5.28721e-08 0 0.00554749 5.28721e-08
0 0.00552687 5.18319e-08 0 0.00552687 5.18319e-08 0 0.00550643 5.08203e-08 0
0.00550643 5.08203e-08 0 0.00548619 4.98334e-08 0 0.00548619 4.98334e-08 0 0.00546613
4.88748e-08 0 0.00546613 4.88748e-08 0 0.00544624 4.79372e-08 0 0.00544624 4.79372e-08
0 0.00542653 4.70388e-08 0 0.00542653 4.70388e-08 0 0.00540699 4.61457e-08 0
0.00540699 4.61457e-08 0 0.00538762 4.53483e-08 0 0.00538762 4.53483e-08 0 0.00536836
4.44855e-08 0 0.00536836 4.44855e-08 0 0.00534939 4.33494e-08 0 0.00534939 4.33494e-08
0 0.00533053 4.29869e-08 0 0.00533053 4.29869e-08 0 0.00531129 4.35344e-08 0
0.00531129 4.35344e-08 0 0.00529173 4.37294e-08 0 0.00529173 4.37294e-08 0 0.00527207
4.33231e-08 0 0.00527207 4.33231e-08 0 0.00525249 4.26436e-08 0 0.00525249 4.26436e-08
0 0.00523306 4.1832e-08 0 0.00523306 4.1832e-08 0 0.00521382 4.09769e-08 0
0.00521382 4.09769e-08 0 0.00519478 4.0116e-08 0 0.00519478 4.0116e-08 0 0.00517595
3.92576e-08 0 0.00517595 3.92576e-08 0 0.00515733 3.84204e-08 0 0.00515733 3.84204e-08
0 0.00513891 3.76018e-08 0 0.00513891 3.76018e-08 0 0.00512069 3.68015e-08 0
0.00512069 3.68015e-08 0 0.00510267 3.60284e-08 0 0.00510267 3.60284e-08 0 0.00508485
3.52697e-08 0 0.00508485 3.52697e-08 0 0.00506721 3.45338e-08 0 0.00506721 3.45338e-08
0 0.00504976 3.38187e-08 0 0.00504976 3.38187e-08 0 0.0050325 3.31152e-08 0
0.0050325 3.31152e-08 0 0.00501541 3.24368e-08 0 0.00501541 3.24368e-08 0 0.00499849
3.17694e-08 0 0.00499849 3.17694e-08 0 0.00498175 3.11194e-08 0 0.00498175 3.11194e-08
0 0.00496518 3.04895e-08 0 0.00496518 3.04895e-08 0 0.00494878 2.9871e-08 0
0.00494878 2.9871e-08 0 0.00493253 2.92692e-08 0 0.00493253 2.92692e-08 0 0.00491645
2.86925e-08 0 0.00491645 2.86925e-08 0 0.00490052 2.81121e-08 0 0.00490052 2.81121e-08
0 0.00488475 2.75998e-08 0 0.00488475 2.75998e-08 0 0.00486907 2.70233e-08 0
0.00486907 2.70233e-08 0 0.00485369 2.63312e-08 0 0.00485369 2.63312e-08 0 0.00483835
2.62183e-08 0 0.00483835 2.62183e-08 0 0.00482265 2.65929e-08 0 0.00482265 2.65929e-08
0 0.00480669 2.66553e-08 0 0.00480669 2.66553e-08 0 0.00479068 2.63289e-08 0
0.00479068 2.63289e-08 0 0.0047748 2.58226e-08 0 0.0047748 2.58226e-08 0 0.00475909
2.52533e-08 0 0.00475909 2.52533e-08 0 0.00474359 2.46583e-08 0 0.00474359 2.46583e-08
0 0.00472829 2.40552e-08 0 0.00472829 2.40552e-08 0 0.00471321 2.34685e-08 0
0.00471321 2.34685e-08 0 0.00469835 2.28831e-08 0 0.00469835 2.28831e-08 0 0.00468371
2.23077e-08 0 0.00468371 2.23077e-08 0 0.00466928 2.17528e-08 0 0.00466928 2.17528e-08
0 0.00465507 2.11958e-08 0 0.00465507 2.11958e-08 0 0.00464108 2.06545e-08 0
0.00464108 2.06545e-08 0 0.0046273 2.01274e-08 0 0.0046273 2.01274e-08 0 0.00461374
1.95953e-08 0 0.00461374 1.95953e-08 0 0.0046004 1.90802e-08 0 0.0046004 1.90802e-08
0 0.00458728 1.85726e-08 0 0.00458728 1.85726e-08 0 0.00457438 1.80586e-08 0
0.00457438 1.80586e-08 0 0.0045617 1.75597e-08 0 0.0045617 1.75597e-08 0 0.00454925
1.70677e-08 0 0.00454925 1.70677e-08 0 0.00453704 1.65592e-08 0 0.00453704 1.65592e-08
0 0.00452506 1.60828e-08 0 0.00452506 1.60828e-08 0 0.00451331 1.55842e-08 0
0.00451331 1.55842e-08 0 0.00450183 1.51211e-08 0 0.00450183 1.51211e-08 0 0.00449052
1.46359e-08 0 0.00449052 1.46359e-08 0 0.00447961 1.40396e-08 0 0.00447961 1.40396e-08
0 0.00446889 1.38446e-08 0 0.00446889 1.38446e-08 0 0.00445793 1.39893e-08 0
0.00445793 1.39893e-08 0 0.00444689 1.38696e-08 0 0.00444689 1.38696e-08 0 0.00443598
1.34686e-08 0 0.00443598 1.34686e-08 0 0.00442534 1.29836e-08 0 0.00442534 1.29836e-08
0 0.00441501 1.24498e-08 0 0.00441501 1.24498e-08 0 0.00440503 1.18832e-08 0
0.00440503 1.18832e-08 0 0.0043954 1.13417e-08 0 0.0043954 1.13417e-08 0 0.00438613
1.08019e-08 0 0.00438613 1.08019e-08 0 0.00437723 1.02438e-08 0 0.00437723 1.02438e-08
0 0.00436869 9.72301e-09 0 0.00436869 9.72301e-09 0 0.0043605 9.21956e-09 0
0.0043605 9.21956e-09 0 0.00435269 8.69828e-09 0 0.00435269 8.69828e-09 0 0.00434522
8.21352e-09 0 0.00434522 8.21352e-09 0 0.0043381 7.75861e-09 0 0.0043381 7.75861e-09
0 0.00433133 7.28054e-09 0 0.00433133 7.28054e-09 0 0.00432492 6.82407e-09 0
0.00432492 6.82407e-09 0 0.00431883 6.40625e-09 0 0.00431883 6.40625e-09 0 0.00431309
5.96321e-09 0 0.00431309 5.96321e-09 0 0.00430771 5.52559e-09 0 0.00430771 5.52559e-09
0 0.00430265 5.1394e-09 0 0.00430265 5.1394e-09 0 0.00429793 4.74233e-09 0
0.00429793 4.74233e-09 0 0.00429355 4.32901e-09 0 0.00429355 4.32901e-09 0 0.00428949
3.96805e-09 0 0.00428949 3.96805e-09 0 0.00428573 3.63805e-09 0 0.00428573 3.63805e-09
0 0.00428228 3.29169e-09 0 0.00428228 3.29169e-09 0 0.00427914 2.92174e-09 0
0.00427914 2.92174e-09 0 0.00427634 2.62878e-09 0 0.00427634 2.62878e-09 0 0.00427371
2.53759e-09 0 0.00427371 2.53759e-09 0 0.00427104 2.52379e-09 0 0.00427104 2.52379e-09
0 0.00426839 2.43858e-09 0 0.00426839 2.43858e-09 0 0.00426588 2.25873e-09 0
0.00426588 2.25873e-09 0 0.0042636 1.98584e-09 0 0.0042636 1.98584e-09 0 0.00426161
1.69928e-09 0 0.00426161 1.69928e-09 0 0.00425989 1.45063e-09 0 0.00425989 1.45063e-09
0 0.00425843 1.19136e-09 0 0.00425843 1.19136e-09 0 0.00425727 9.10173e-10 0
0.00425727 9.10173e-10 0 0.00425639 6.65302e-10 0 0.00425639 6.65302e-10 0 0.00425575
4.56213e-10 0 0.00425575 4.56213e-10 0 0.00425537 2.25232e-10 0 0.00425537 2.25232e-10
0 0.00425527 -2.02588e-11 0 0.00425527 -2.02588e-11 0 0.00425542 -2.22882e-10 0
0.00425542 -2.22882e-10 0 0.00425578 -3.87437e-10 0 0.00425578 -3.87437e-10 0 0.00425636
-5.63866e-10 0 0.00425636 -5.63866e-10 0 0.00425717 -7.51465e-10 0 0.00425717 -7.51465e-10
0 0.0042582 -9.10789e-10 0 0.0042582 -9.10789e-10 0 0.00425942 -1.04523e-09 0
0.00425942 -1.04523e-09 0 0.00426084 -1.19674e-09 0 0.00426084 -1.19674e-09 0 0.00426249
-1.37166e-09 0 0.00426249 -1.37166e-09 0 0.00426437 -1.53058e-09 0 0.00426437 -1.53058e-09
0 0.00426643 -1.65039e-09 0 0.00426643 -1.65039e-09 0 0.00426866 -1.7528e-09 0
0.00426866 -1.7528e-09 0 0.00427105 -1.86228e-09 0 0.00427105 -1.86228e-09 0 0.00427362
-1.96914e-09 0 0.00427362 -1.96914e-09 0 0.00427635 -2.05568e-09 0 0.00427635 -2.05568e-09
0 0.00427922 -2.13099e-09 0 0.00427922 -2.13099e-09 0 0.00428224 -2.2391e-09 0
0.00428224 -2.2391e-09 0 0.00428548 -2.3473e-09 0 0.00428548 -2.3473e-09 0 0.00428882
-2.32987e-09 0 0.00428882 -2.32987e-09 0 0.00429203 -2.21017e-09 0 0.00429203 -2.21017e-09
0 0.00429512 -2.13302e-09 0 0.00429512 -2.13302e-09 0 0.00429823 -2.15274e-09 0
0.00429823 -2.15274e-09 0 0.00430146 -2.23176e-09 0 0.00430146 -2.23176e-09 0 0.00430483
-2.30697e-09 0 0.00430483 -2.30697e-09 0 0.00430832 -2.34364e-09 0 0.00430832 -2.34364e-09
0 0.00431188 -2.36224e-09 0 0.00431188 -2.36224e-09 0 0.00431554 -2.40806e-09 0
0.00431554 -2.40806e-09 0 0.00431936 -2.49699e-09 0 0.00431936 -2.49699e-09 0 0.00432337
-2.59803e-09 0 0.00432337 -2.59803e-09 0 0.00432754 -2.66563e-09 0 0.00432754 -2.66563e-09
0 0.0043318 -2.68422e-09 0 0.0043318 -2.68422e-09 0 0.00433611 -2.67894e-09 0
0.00433611 -2.67894e-09 0 0.00434049 -2.68822e-09 0 0.00434049 -2.68822e-09 0 0.00434497
-2.73195e-09 0 0.00434497 -2.73195e-09 0 0.0043496 -2.79977e-09 0 0.0043496 -2.79977e-09
0 0.00435438 -2.86467e-09 0 0.00435438 -2.86467e-09 0 0.00435929 -2.90652e-09 0
0.00435929 -2.90652e-09 0 0.00436429 -2.92342e-09 0 0.00436429 -2.92342e-09 0 0.00436936
-2.92824e-09 0 0.00436936 -2.92824e-09 0 0.0043745 -2.93715e-09 0 0.0043745 -2.93715e-09
0 0.00437973 -2.95809e-09 0 0.00437973 -2.95809e-09 0 0.00438506 -2.98895e-09 0
0.00438506 -2.98895e-09 0 0.0043905 -3.02091e-09 0 0.0043905 -3.02091e-09 0 0.00439605
-3.04633e-09 0 0.00439605 -3.04633e-09 0 0.0044017 -3.06317e-09 0 0.0044017 -3.06317e-09
0 0.00440743 -3.07282e-09 0 0.00440743 -3.07282e-09 0 0.00441323 -3.08145e-09 0
0.00441323 -3.08145e-09 0 0.00441912 -3.09365e-09 0 0.00441912 -3.09365e-09 0 0.00442509
-3.06698e-09 0 0.00442509 -3.06698e-09 0 0.00443098 -2.97251e-09 0 0.00443098 -2.97251e-09
0 0.00443671 -2.87852e-09 0 0.00443671 -2.87852e-09 0 0.00444237 -2.833e-09 0
0.00444237 -2.833e-09 0 0.00444803 -2.81818e-09 0 0.00444803 -2.81818e-09 0 0.00445375
-2.81833e-09 0 0.00445375 -2.81833e-09 0 0.00445954 -2.8254e-09 0 0.00445954 -2.8254e-09
0 0.00446541 -2.83523e-09 0 0.00446541 -2.83523e-09 0 0.00447136 -2.84603e-09 0
0.00447136 -2.84603e-09 0 0.0044774 -2.85736e-09 0 0.0044774 -2.85736e-09 0 0.00448353
-2.86814e-09 0 0.00448353 -2.86814e-09 0 0.00448973 -2.87687e-09 0 0.00448973 -2.87687e-09
0 0.00449602 -2.88426e-09 0 0.00449602 -2.88426e-09 0 0.00450239 -2.89042e-09 0
0.00450239 -2.89042e-09 0 0.00450884 -2.89494e-09 0 0.00450884 -2.89494e-09 0 0.00451537
-2.89812e-09 0 0.00451537 -2.89812e-09 0 0.00452196 -2.9001e-09 0 0.00452196 -2.9001e-09
0 0.00452863 -2.90098e-09 0 0.00452863 -2.90098e-09 0 0.00453537 -2.90088e-09 0
0.00453537 -2.90088e-09 0 0.00454218 -2.90009e-09 0 0.00454218 -2.90009e-09 0 0.00454905
-2.89847e-09 0 0.00454905 -2.89847e-09 0 0.004556 -2.89607e-09 0 0.004556 -2.89607e-09
0 0.00456301 -2.89316e-09 0 0.00456301 -2.89316e-09 0 0.00457008 -2.88976e-09 0
0.00457008 -2.88976e-09 0 0.00457722 -2.88561e-09 0 0.00457722 -2.88561e-09 0 0.00458442
-2.88072e-09 0 0.00458442 -2.88072e-09 0 0.00459169 -2.87528e-09 0 0.00459169 -2.87528e-09
0 0.00459901 -2.86892e-09 0 0.00459901 -2.86892e-09 0 0.0046064 -2.86473e-09 0
0.0046064 -2.86473e-09 0 0.00461385 -2.85104e-09 0 0.00461385 -2.85104e-09 0 0.00462131
-2.7954e-09 0 0.00462131 -2.7954e-09 0 0.00462862 -2.70891e-09 0 0.00462862 -2.70891e-09
0 0.00463578 -2.64116e-09 0 0.00463578 -2.64116e-09 0 0.00464289 -2.60504e-09 0
0.00464289 -2.60504e-09 0 0.00465 -2.5864e-09 0 0.00465 -2.5864e-09 0 0.00465715
-2.57582e-09 0 0.00465715 -2.57582e-09 0 0.00466435 -2.5691e-09 0 0.00466435 -2.5691e-09
0 0.00467161 -2.56433e-09 0 0.00467161 -2.56433e-09 0 0.00467894 -2.56002e-09 0
0.00467894 -2.56002e-09 0 0.00468633 -2.55585e-09 0 0.00468633 -2.55585e-09 0 0.00469378
-2.55154e-09 0 0.00469378 -2.55154e-09 0 0.0047013 -2.54681e-09 0 0.0047013 -2.54681e-09
0 0.00470888 -2.54162e-09 0 0.00470888 -2.54162e-09 0 0.00471652 -2.53634e-09 0
0.00471652 -2.53634e-09 0 0.00472423 -2.53066e-09 0 0.00472423 -2.53066e-09 0 0.004732
-2.5244e-09 0 0.004732 -2.5244e-09 0 0.00473983 -2.51793e-09 0 0.00473983 -2.51793e-09
0 0.00474772 -2.51083e-09 0 0.00474772 -2.51083e-09 0 0.00475567 -2.50343e-09 0
0.00475567 -2.50343e-09 0 0.00476368 -2.49574e-09 0 0.00476368 -2.49574e-09 0 0.00477175
-2.48781e-09 0 0.00477175 -2.48781e-09 0 0.00477988 -2.4799e-09 0 0.00477988 -2.4799e-09
0 0.00478806 -2.47123e-09 0 0.00478806 -2.47123e-09 0 0.0047963 -2.46214e-09 0
0.0047963 -2.46214e-09 0 0.00480459 -2.45288e-09 0 0.00480459 -2.45288e-09 0 0.00481294
-2.44314e-09 0 0.00481294 -2.44314e-09 0 0.00482134 -2.43386e-09 0 0.00482134 -2.43386e-09
0 0.0048298 -2.42294e-09 0 0.0048298 -2.42294e-09 0 0.0048383 -2.38985e-09 0
0.0048383 -2.38985e-09 0 0.00484669 -2.32574e-09 0 0.00484669 -2.32574e-09 0 0.00485491
-2.26411e-09 0 0.00485491 -2.26411e-09 0 0.00486304 -2.22668e-09 0 0.00486304 -2.22668e-09
0 0.00487116 -2.20493e-09 0 0.00487116 -2.20493e-09 0 0.00487929 -2.1908e-09 0
0.00487929 -2.1908e-09 0 0.00488747 -2.18033e-09 0 0.00488747 -2.18033e-09 0 0.0048957
-2.17179e-09 0 0.0048957 -2.17179e-09 0 0.00490399 -2.16359e-09 0 0.00490399 -2.16359e-09
0 0.00491233 -2.15587e-09 0 0.00491233 -2.15587e-09 0 0.00492072 -2.14799e-09 0
0.00492072 -2.14799e-09 0 0.00492917 -2.13969e-09 0 0.00492917 -2.13969e-09 0 0.00493768
-2.13167e-09 0 0.00493768 -2.13167e-09 0 0.00494625 -2.12334e-09 0 0.00494625 -2.12334e-09
0 0.00495487 -2.11499e-09 0 0.00495487 -2.11499e-09 0 0.00496354 -2.10646e-09 0
0.00496354 -2.10646e-09 0 0.00497227 -2.09746e-09 0 0.00497227 -2.09746e-09 0 0.00498106
-2.08804e-09 0 0.00498106 -2.08804e-09 0 0.00498989 -2.07863e-09 0 0.00498989 -2.07863e-09
0 0.00499878 -2.06932e-09 0 0.00499878 -2.06932e-09 0 0.00500772 -2.06025e-09 0
0.00500772 -2.06025e-09 0 0.00501671 -2.0507e-09 0 0.00501671 -2.0507e-09 0 0.00502575
-2.04083e-09 0 0.00502575 -2.04083e-09 0 0.00503484 -2.0307e-09 0 0.00503484 -2.0307e-09
0 0.00504398 -2.02024e-09 0 0.00504398 -2.02024e-09 0 0.00505317 -2.01024e-09 0
0.00505317 -2.01024e-09 0 0.00506241 -1.99794e-09 0 0.00506241 -1.99794e-09 0 0.00507167
-1.96774e-09 0 0.00507167 -1.96774e-09 0 0.00508082 -1.91641e-09 0 0.00508082 -1.91641e-09
0 0.00508979 -1.86983e-09 0 0.00508979 -1.86983e-09 0 0.00509868 -1.84091e-09 0
0.00509868 -1.84091e-09 0 0.00510756 -1.82245e-09 0 0.00510756 -1.82245e-09 0 0.00511646
-1.80913e-09 0 0.00511646 -1.80913e-09 0 0.00512539 -1.79829e-09 0 0.00512539 -1.79829e-09
0 0.00513437 -1.78875e-09 0 0.00513437 -1.78875e-09 0 0.0051434 -1.77995e-09 0
0.0051434 -1.77995e-09 0 0.00515247 -1.77141e-09 0 0.00515247 -1.77141e-09 0 0.00516159
-1.76278e-09 0 0.00516159 -1.76278e-09 0 0.00517077 -1.75403e-09 0 0.00517077 -1.75403e-09
0 0.00517999 -1.74518e-09 0 0.00517999 -1.74518e-09 0 0.00518926 -1.73635e-09 0
0.00518926 -1.73635e-09 0 0.00519859 -1.72765e-09 0 0.00519859 -1.72765e-09 0 0.00520796
-1.71867e-09 0 0.00520796 -1.71867e-09 0 0.00521738 -1.70952e-09 0 0.00521738 -1.70952e-09
0 0.00522684 -1.70023e-09 0 0.00522684 -1.70023e-09 0 0.00523636 -1.69091e-09 0
0.00523636 -1.69091e-09 0 0.00524592 -1.68174e-09 0 0.00524592 -1.68174e-09 0 0.00525552
-1.67261e-09 0 0.00525552 -1.67261e-09 0 0.00526517 -1.66296e-09 0 0.00526517 -1.66296e-09
0 0.00527487 -1.65288e-09 0 0.00527487 -1.65288e-09 0 0.00528461 -1.64332e-09 0
0.00528461 -1.64332e-09 0 0.00529439 -1.63383e-09 0 0.00529439 -1.63383e-09 0 0.00530422
-1.61624e-09 0 0.00530422 -1.61624e-09 0 0.00531399 -1.58119e-09 0 0.00531399 -1.58119e-09
0 0.00532359 -1.54034e-09 0 0.00532359 -1.54034e-09 0 0.00533307 -1.51091e-09 0
0.00533307 -1.51091e-09 0 0.0053425 -1.49249e-09 0 0.0053425 -1.49249e-09 0 0.00535193
-1.47922e-09 0 0.00535193 -1.47922e-09 0 0.00536139 -1.4686e-09 0 0.00536139 -1.4686e-09
0 0.00537089 -1.45917e-09 0 0.00537089 -1.45917e-09 0 0.00538043 -1.45055e-09 0
0.00538043 -1.45055e-09 0 0.00539001 -1.44233e-09 0 0.00539001 -1.44233e-09 0 0.00539963
-1.43404e-09 0 0.00539963 -1.43404e-09 0 0.0054093 -1.4255e-09 0 0.0054093 -1.4255e-09
0 0.00541901 -1.41717e-09 0 0.00541901 -1.41717e-09 0 0.00542877 -1.40899e-09 0
0.00542877 -1.40899e-09 0 0.00543857 -1.40062e-09 0 0.00543857 -1.40062e-09 0 0.00544841
-1.39229e-09 0 0.00544841 -1.39229e-09 0 0.0054583 -1.38395e-09 0 0.0054583 -1.38395e-09
0 0.00546823 -1.37557e-09 0 0.00546823 -1.37557e-09 0 0.0054782 -1.36728e-09 0
0.0054782 -1.36728e-09 0 0.00548821 -1.35871e-09 0 0.00548821 -1.35871e-09 0 0.00549826
-1.34979e-09 0 0.00549826 -1.34979e-09 0 0.00550835 -1.34103e-09 0 0.00550835 -1.34103e-09
0 0.00551849 -1.33224e-09 0 0.00551849 -1.33224e-09 0 0.00552866 -1.32372e-09 0
0.00552866 -1.32372e-09 0 0.00553887 -1.30938e-09 0 0.00553887 -1.30938e-09 0 0.00554902
-1.28123e-09 0 0.00554902 -1.28123e-09 0 0.00555901 -1.24833e-09 0 0.00555901 -1.24833e-09
0 0.00556886 -1.22457e-09 0 0.00556886 -1.22457e-09 0 0.00557867 -1.20965e-09 0
0.00557867 -1.20965e-09 0 0.00558847 -1.19811e-09 0 0.00558847 -1.19811e-09 0 0.0055983
-1.1889e-09 0 0.0055983 -1.1889e-09 0 0.00560816 -1.18098e-09 0 0.00560816 -1.18098e-09
0 0.00561806 -1.1729e-09 0 0.00561806 -1.1729e-09 0 0.00562799 -1.16527e-09 0
0.00562799 -1.16527e-09 0 0.00563797 -1.15758e-09 0 0.00563797 -1.15758e-09 0 0.00564798
-1.15034e-09 0 0.00564798 -1.15034e-09 0 0.00565803 -1.14327e-09 0 0.00565803 -1.14327e-09
0 0.00566812 -1.13577e-09 0 0.00566812 -1.13577e-09 0 0.00567825 -1.12858e-09 0
0.00567825 -1.12858e-09 0 0.00568842 -1.12109e-09 0 0.00568842 -1.12109e-09 0 0.00569863
-1.11333e-09 0 0.00569863 -1.11333e-09 0 0.00570887 -1.10576e-09 0 0.00570887 -1.10576e-09
0 0.00571916 -1.09827e-09 0 0.00571916 -1.09827e-09 0 0.00572947 -1.09109e-09 0
0.00572947 -1.09109e-09 0 0.00573983 -1.08316e-09 0 0.00573983 -1.08316e-09 0 0.00575021
-1.0765e-09 0 0.00575021 -1.0765e-09 0 0.00576065 -1.06691e-09 0 0.00576065 -1.06691e-09
0 0.00577105 -1.05313e-09 0 0.00577105 -1.05313e-09 0 0.00578144 -1.02466e-09 0
0.00578144 -1.02466e-09 0 0.0057915 -1.0032e-09 0 0.0057915 -1.0032e-09 0 0.00580168
-9.83867e-10 0 0.00580168 -9.83867e-10 0 0.00581154 -9.75934e-10 0 0.00581154 -9.75934e-10
0 0.00582178 -9.65888e-10 0 0.00582178 -9.65888e-10 0 0.00583163 -9.57579e-10 0
0.00583163 -9.57579e-10 0 0.00584191 -9.55104e-10 0 0.00584191 -9.55104e-10 0 0.00585191
-9.39396e-10 0 0.00585191 -9.39396e-10 0 0.00586207 -9.49645e-10 0 0.00586207 -9.49645e-10
0 0.0058725 -9.09658e-10 0 0.0058725 -9.09658e-10 0 0.005882 -9.72227e-10 0
0.005882 -9.72227e-10 0 0.0128006 -1.54505e-09 0 0.0128006 -1.54505e-09 0 0.0197196
-2.00599e-09 0 0.0197196 -2.00599e-09 0 
