# vtk DataFile Version 2.0
sampleSurface
ASCII
DATASET POLYDATA
POINTS 1202 float
0 0 0 5.99825e-05 0 0 5.99825e-05 0 0.1 0 0
0.1 0.000120591 0 0 0.000120591 0 0.1 0.000181831 0 0
0.000181831 0 0.1 0.000243709 0 0 0.000243709 0 0.1 0.000306234
0 0 0.000306234 0 0.1 0.00036941 0 0 0.00036941 0
0.1 0.000433245 0 0 0.000433245 0 0.1 0.000497746 0 0
0.000497746 0 0.1 0.000562919 0 0 0.000562919 0 0.1 0.000628772
0 0 0.000628772 0 0.1 0.000695312 0 0 0.000695312 0
0.1 0.000762546 0 0 0.000762546 0 0.1 0.000830481 0 0
0.000830481 0 0.1 0.000899125 0 0 0.000899125 0 0.1 0.000968484
0 0 0.000968484 0 0.1 0.00103857 0 0 0.00103857 0
0.1 0.00110938 0 0 0.00110938 0 0.1 0.00118093 0 0
0.00118093 0 0.1 0.00125323 0 0 0.00125323 0 0.1 0.00132628
0 0 0.00132628 0 0.1 0.0014001 0 0 0.0014001 0
0.1 0.00147468 0 0 0.00147468 0 0.1 0.00155004 0 0
0.00155004 0 0.1 0.00162619 0 0 0.00162619 0 0.1 0.00170313
0 0 0.00170313 0 0.1 0.00178088 0 0 0.00178088 0
0.1 0.00185943 0 0 0.00185943 0 0.1 0.00193881 0 0
0.00193881 0 0.1 0.00201901 0 0 0.00201901 0 0.1 0.00210005
0 0 0.00210005 0 0.1 0.00218193 0 0 0.00218193 0
0.1 0.00226467 0 0 0.00226467 0 0.1 0.00234827 0 0
0.00234827 0 0.1 0.00243274 0 0 0.00243274 0 0.1 0.0025181
0 0 0.0025181 0 0.1 0.00260434 0 0 0.00260434 0
0.1 0.00269148 0 0 0.00269148 0 0.1 0.00277954 0 0
0.00277954 0 0.1 0.00286851 0 0 0.00286851 0 0.1 0.0029584
0 0 0.0029584 0 0.1 0.00304924 0 0 0.00304924 0
0.1 0.00314102 0 0 0.00314102 0 0.1 0.00323376 0 0
0.00323376 0 0.1 0.00332747 0 0 0.00332747 0 0.1 0.00342215
0 0 0.00342215 0 0.1 0.00351783 0 0 0.00351783 0
0.1 0.0036145 0 0 0.0036145 0 0.1 0.00371217 0 0
0.00371217 0 0.1 0.00381087 0 0 0.00381087 0 0.1 0.0039106
0 0 0.0039106 0 0.1 0.00401136 0 0 0.00401136 0
0.1 0.00411318 0 0 0.00411318 0 0.1 0.00421606 0 0
0.00421606 0 0.1 0.00432001 0 0 0.00432001 0 0.1 0.00442505
0 0 0.00442505 0 0.1 0.00453118 0 0 0.00453118 0
0.1 0.00463842 0 0 0.00463842 0 0.1 0.00474677 0 0
0.00474677 0 0.1 0.00485626 0 0 0.00485626 0 0.1 0.00496689
0 0 0.00496689 0 0.1 0.00507867 0 0 0.00507867 0
0.1 0.00519162 0 0 0.00519162 0 0.1 0.00530574 0 0
0.00530574 0 0.1 0.00542106 0 0 0.00542106 0 0.1 0.00553758
0 0 0.00553758 0 0.1 0.00565531 0 0 0.00565531 0
0.1 0.00577427 0 0 0.00577427 0 0.1 0.00589447 0 0
0.00589447 0 0.1 0.00601593 0 0 0.00601593 0 0.1 0.00613865
0 0 0.00613865 0 0.1 0.00626266 0 0 0.00626266 0
0.1 0.00638795 0 0 0.00638795 0 0.1 0.00651455 0 0
0.00651455 0 0.1 0.00664248 0 0 0.00664248 0 0.1 0.00677173
0 0 0.00677173 0 0.1 0.00690234 0 0 0.00690234 0
0.1 0.0070343 0 0 0.0070343 0 0.1 0.00716765 0 0
0.00716765 0 0.1 0.00730238 0 0 0.00730238 0 0.1 0.00743852
0 0 0.00743852 0 0.1 0.00757608 0 0 0.00757608 0
0.1 0.00771507 0 0 0.00771507 0 0.1 0.00785551 0 0
0.00785551 0 0.1 0.00799742 0 0 0.00799742 0 0.1 0.00814081
0 0 0.00814081 0 0.1 0.00828569 0 0 0.00828569 0
0.1 0.00843209 0 0 0.00843209 0 0.1 0.00858001 0 0
0.00858001 0 0.1 0.00872947 0 0 0.00872947 0 0.1 0.00888049
0 0 0.00888049 0 0.1 0.00903309 0 0 0.00903309 0
0.1 0.00918728 0 0 0.00918728 0 0.1 0.00934307 0 0
0.00934307 0 0.1 0.00950049 0 0 0.00950049 0 0.1 0.00965956
0 0 0.00965956 0 0.1 0.00982028 0 0 0.00982028 0
0.1 0.00998268 0 0 0.00998268 0 0.1 0.0101468 0 0
0.0101468 0 0.1 0.0103126 0 0 0.0103126 0 0.1 0.0104801
0 0 0.0104801 0 0.1 0.0106494 0 0 0.0106494 0
0.1 0.0108204 0 0 0.0108204 0 0.1 0.0109933 0 0
0.0109933 0 0.1 0.0111679 0 0 0.0111679 0 0.1 0.0113443
0 0 0.0113443 0 0.1 0.0115226 0 0 0.0115226 0
0.1 0.0117028 0 0 0.0117028 0 0.1 0.0118848 0 0
0.0118848 0 0.1 0.0120687 0 0 0.0120687 0 0.1 0.0122546
0 0 0.0122546 0 0.1 0.0124424 0 0 0.0124424 0
0.1 0.0126321 0 0 0.0126321 0 0.1 0.0128238 0 0
0.0128238 0 0.1 0.0130176 0 0 0.0130176 0 0.1 0.0132133
0 0 0.0132133 0 0.1 0.0134111 0 0 0.0134111 0
0.1 0.0136109 0 0 0.0136109 0 0.1 0.0138129 0 0
0.0138129 0 0.1 0.0140169 0 0 0.0140169 0 0.1 0.0142231
0 0 0.0142231 0 0.1 0.0144314 0 0 0.0144314 0
0.1 0.0146419 0 0 0.0146419 0 0.1 0.0148546 0 0
0.0148546 0 0.1 0.0150695 0 0 0.0150695 0 0.1 0.0152866
0 0 0.0152866 0 0.1 0.015506 0 0 0.015506 0
0.1 0.0157277 0 0 0.0157277 0 0.1 0.0159517 0 0
0.0159517 0 0.1 0.016178 0 0 0.016178 0 0.1 0.0164067
0 0 0.0164067 0 0.1 0.0166378 0 0 0.0166378 0
0.1 0.0168713 0 0 0.0168713 0 0.1 0.0171073 0 0
0.0171073 0 0.1 0.0173457 0 0 0.0173457 0 0.1 0.0175865
0 0 0.0175865 0 0.1 0.0178299 0 0 0.0178299 0
0.1 0.0180759 0 0 0.0180759 0 0.1 0.0183244 0 0
0.0183244 0 0.1 0.0185754 0 0 0.0185754 0 0.1 0.0188291
0 0 0.0188291 0 0.1 0.0190855 0 0 0.0190855 0
0.1 0.0193445 0 0 0.0193445 0 0.1 0.0196063 0 0
0.0196063 0 0.1 0.0198707 0 0 0.0198707 0 0.1 0.0201379
0 0 0.0201379 0 0.1 0.0204079 0 0 0.0204079 0
0.1 0.0206807 0 0 0.0206807 0 0.1 0.0209564 0 0
0.0209564 0 0.1 0.0212349 0 0 0.0212349 0 0.1 0.0215164
0 0 0.0215164 0 0.1 0.0218008 0 0 0.0218008 0
0.1 0.0220881 0 0 0.0220881 0 0.1 0.0223784 0 0
0.0223784 0 0.1 0.0226718 0 0 0.0226718 0 0.1 0.0229682
0 0 0.0229682 0 0.1 0.0232677 0 0 0.0232677 0
0.1 0.0235704 0 0 0.0235704 0 0.1 0.0238762 0 0
0.0238762 0 0.1 0.0241852 0 0 0.0241852 0 0.1 0.0244974
0 0 0.0244974 0 0.1 0.0248128 0 0 0.0248128 0
0.1 0.0251316 0 0 0.0251316 0 0.1 0.0254537 0 0
0.0254537 0 0.1 0.0257791 0 0 0.0257791 0 0.1 0.0261079
0 0 0.0261079 0 0.1 0.0264402 0 0 0.0264402 0
0.1 0.0267759 0 0 0.0267759 0 0.1 0.0271152 0 0
0.0271152 0 0.1 0.0274579 0 0 0.0274579 0 0.1 0.0278043
0 0 0.0278043 0 0.1 0.0281542 0 0 0.0281542 0
0.1 0.0285078 0 0 0.0285078 0 0.1 0.0288651 0 0
0.0288651 0 0.1 0.0292261 0 0 0.0292261 0 0.1 0.0295909
0 0 0.0295909 0 0.1 0.0299595 0 0 0.0299595 0
0.1 0.0303319 0 0 0.0303319 0 0.1 0.0307082 0 0
0.0307082 0 0.1 0.0310885 0 0 0.0310885 0 0.1 0.0314727
0 0 0.0314727 0 0.1 0.0318609 0 0 0.0318609 0
0.1 0.0322532 0 0 0.0322532 0 0.1 0.0326495 0 0
0.0326495 0 0.1 0.03305 0 0 0.03305 0 0.1 0.0334546
0 0 0.0334546 0 0.1 0.0338635 0 0 0.0338635 0
0.1 0.0342767 0 0 0.0342767 0 0.1 0.0346941 0 0
0.0346941 0 0.1 0.0351159 0 0 0.0351159 0 0.1 0.0355421
0 0 0.0355421 0 0.1 0.0359728 0 0 0.0359728 0
0.1 0.0364079 0 0 0.0364079 0 0.1 0.0368476 0 0
0.0368476 0 0.1 0.0372919 0 0 0.0372919 0 0.1 0.0377408
0 0 0.0377408 0 0.1 0.0381944 0 0 0.0381944 0
0.1 0.0386527 0 0 0.0386527 0 0.1 0.0391158 0 0
0.0391158 0 0.1 0.0395837 0 0 0.0395837 0 0.1 0.0400565
0 0 0.0400565 0 0.1 0.0405342 0 0 0.0405342 0
0.1 0.0410169 0 0 0.0410169 0 0.1 0.0415047 0 0
0.0415047 0 0.1 0.0419975 0 0 0.0419975 0 0.1 0.0424955
0 0 0.0424955 0 0.1 0.0429986 0 0 0.0429986 0
0.1 0.0435071 0 0 0.0435071 0 0.1 0.0440208 0 0
0.0440208 0 0.1 0.0445398 0 0 0.0445398 0 0.1 0.0450643
0 0 0.0450643 0 0.1 0.0455943 0 0 0.0455943 0
0.1 0.0461298 0 0 0.0461298 0 0.1 0.0466708 0 0
0.0466708 0 0.1 0.0472176 0 0 0.0472176 0 0.1 0.04777
0 0 0.04777 0 0.1 0.0483281 0 0 0.0483281 0
0.1 0.0488921 0 0 0.0488921 0 0.1 0.049462 0 0
0.049462 0 0.1 0.0500378 0 0 0.0500378 0 0.1 0.0506197
0 0 0.0506197 0 0.1 0.0512076 0 0 0.0512076 0
0.1 0.0518016 0 0 0.0518016 0 0.1 0.0524018 0 0
0.0524018 0 0.1 0.0530083 0 0 0.0530083 0 0.1 0.0536211
0 0 0.0536211 0 0.1 0.0542403 0 0 0.0542403 0
0.1 0.0548659 0 0 0.0548659 0 0.1 0.0554981 0 0
0.0554981 0 0.1 0.0561369 0 0 0.0561369 0 0.1 0.0567823
0 0 0.0567823 0 0.1 0.0574345 0 0 0.0574345 0
0.1 0.0580934 0 0 0.0580934 0 0.1 0.0587593 0 0
0.0587593 0 0.1 0.0594321 0 0 0.0594321 0 0.1 0.0601119
0 0 0.0601119 0 0.1 0.0607987 0 0 0.0607987 0
0.1 0.0614928 0 0 0.0614928 0 0.1 0.0621941 0 0
0.0621941 0 0.1 0.0629027 0 0 0.0629027 0 0.1 0.0636187
0 0 0.0636187 0 0.1 0.0643421 0 0 0.0643421 0
0.1 0.0650732 0 0 0.0650732 0 0.1 0.0658118 0 0
0.0658118 0 0.1 0.0665581 0 0 0.0665581 0 0.1 0.0673122
0 0 0.0673122 0 0.1 0.0680742 0 0 0.0680742 0
0.1 0.0688441 0 0 0.0688441 0 0.1 0.0696221 0 0
0.0696221 0 0.1 0.0704082 0 0 0.0704082 0 0.1 0.0712024
0 0 0.0712024 0 0.1 0.072005 0 0 0.072005 0
0.1 0.0728159 0 0 0.0728159 0 0.1 0.0736353 0 0
0.0736353 0 0.1 0.0744632 0 0 0.0744632 0 0.1 0.0752998
0 0 0.0752998 0 0.1 0.076145 0 0 0.076145 0
0.1 0.0769991 0 0 0.0769991 0 0.1 0.0778621 0 0
0.0778621 0 0.1 0.0787342 0 0 0.0787342 0 0.1 0.0796153
0 0 0.0796153 0 0.1 0.0805055 0 0 0.0805055 0
0.1 0.0814051 0 0 0.0814051 0 0.1 0.0823141 0 0
0.0823141 0 0.1 0.0832325 0 0 0.0832325 0 0.1 0.0841605
0 0 0.0841605 0 0.1 0.0850982 0 0 0.0850982 0
0.1 0.0860457 0 0 0.0860457 0 0.1 0.087003 0 0
0.087003 0 0.1 0.0879704 0 0 0.0879704 0 0.1 0.0889478
0 0 0.0889478 0 0.1 0.0899354 0 0 0.0899354 0
0.1 0.0909333 0 0 0.0909333 0 0.1 0.0919416 0 0
0.0919416 0 0.1 0.0929605 0 0 0.0929605 0 0.1 0.0939899
0 0 0.0939899 0 0.1 0.0950302 0 0 0.0950302 0
0.1 0.0960812 0 0 0.0960812 0 0.1 0.0971432 0 0
0.0971432 0 0.1 0.0982163 0 0 0.0982163 0 0.1 0.0993006
0 0 0.0993006 0 0.1 0.100396 0 0 0.100396 0
0.1 0.101503 0 0 0.101503 0 0.1 0.102622 0 0
0.102622 0 0.1 0.103752 0 0 0.103752 0 0.1 0.104894
0 0 0.104894 0 0.1 0.106048 0 0 0.106048 0
0.1 0.107214 0 0 0.107214 0 0.1 0.108392 0 0
0.108392 0 0.1 0.109582 0 0 0.109582 0 0.1 0.110785
0 0 0.110785 0 0.1 0.112001 0 0 0.112001 0
0.1 0.113229 0 0 0.113229 0 0.1 0.114469 0 0
0.114469 0 0.1 0.115723 0 0 0.115723 0 0.1 0.11699
0 0 0.11699 0 0.1 0.11827 0 0 0.11827 0
0.1 0.119564 0 0 0.119564 0 0.1 0.12087 0 0
0.12087 0 0.1 0.122191 0 0 0.122191 0 0.1 0.123525
0 0 0.123525 0 0.1 0.124873 0 0 0.124873 0
0.1 0.126236 0 0 0.126236 0 0.1 0.127612 0 0
0.127612 0 0.1 0.129003 0 0 0.129003 0 0.1 0.130408
0 0 0.130408 0 0.1 0.131828 0 0 0.131828 0
0.1 0.133263 0 0 0.133263 0 0.1 0.134713 0 0
0.134713 0 0.1 0.136178 0 0 0.136178 0 0.1 0.137658
0 0 0.137658 0 0.1 0.139154 0 0 0.139154 0
0.1 0.140665 0 0 0.140665 0 0.1 0.142192 0 0
0.142192 0 0.1 0.143735 0 0 0.143735 0 0.1 0.145294
0 0 0.145294 0 0.1 0.146869 0 0 0.146869 0
0.1 0.148461 0 0 0.148461 0 0.1 0.150069 0 0
0.150069 0 0.1 0.151694 0 0 0.151694 0 0.1 0.153336
0 0 0.153336 0 0.1 0.154995 0 0 0.154995 0
0.1 0.156672 0 0 0.156672 0 0.1 0.158366 0 0
0.158366 0 0.1 0.160077 0 0 0.160077 0 0.1 0.161807
0 0 0.161807 0 0.1 0.163554 0 0 0.163554 0
0.1 0.16532 0 0 0.16532 0 0.1 0.167104 0 0
0.167104 0 0.1 0.168907 0 0 0.168907 0 0.1 0.170728
0 0 0.170728 0 0.1 0.172569 0 0 0.172569 0
0.1 0.174428 0 0 0.174428 0 0.1 0.176307 0 0
0.176307 0 0.1 0.178206 0 0 0.178206 0 0.1 0.180124
0 0 0.180124 0 0.1 0.182063 0 0 0.182063 0
0.1 0.184022 0 0 0.184022 0 0.1 0.186001 0 0
0.186001 0 0.1 0.188001 0 0 0.188001 0 0.1 0.190021
0 0 0.190021 0 0.1 0.192063 0 0 0.192063 0
0.1 0.194126 0 0 0.194126 0 0.1 0.19621 0 0
0.19621 0 0.1 0.198317 0 0 0.198317 0 0.1 0.200445
0 0 0.200445 0 0.1 0.202595 0 0 0.202595 0
0.1 0.204768 0 0 0.204768 0 0.1 0.206964 0 0
0.206964 0 0.1 0.209182 0 0 0.209182 0 0.1 0.211424
0 0 0.211424 0 0.1 0.213689 0 0 0.213689 0
0.1 0.215977 0 0 0.215977 0 0.1 0.21829 0 0
0.21829 0 0.1 0.220626 0 0 0.220626 0 0.1 0.222987
0 0 0.222987 0 0.1 0.225372 0 0 0.225372 0
0.1 0.227783 0 0 0.227783 0 0.1 0.230218 0 0
0.230218 0 0.1 0.232679 0 0 0.232679 0 0.1 0.235166
0 0 0.235166 0 0.1 0.237678 0 0 0.237678 0
0.1 0.240217 0 0 0.240217 0 0.1 0.242782 0 0
0.242782 0 0.1 0.245374 0 0 0.245374 0 0.1 0.247993
0 0 0.247993 0 0.1 0.25064 0 0 0.25064 0
0.1 0.253313 0 0 0.253313 0 0.1 0.256015 0 0
0.256015 0 0.1 0.258745 0 0 0.258745 0 0.1 0.261504
0 0 0.261504 0 0.1 0.264291 0 0 0.264291 0
0.1 0.267107 0 0 0.267107 0 0.1 0.269953 0 0
0.269953 0 0.1 0.272828 0 0 0.272828 0 0.1 0.275733
0 0 0.275733 0 0.1 0.278669 0 0 0.278669 0
0.1 0.281635 0 0 0.281635 0 0.1 0.284632 0 0
0.284632 0 0.1 0.287661 0 0 0.287661 0 0.1 0.290721
0 0 0.290721 0 0.1 0.293813 0 0 0.293813 0
0.1 0.296937 0 0 0.296937 0 0.1 0.300093 0 0
0.300093 0 0.1 0.303283 0 0 0.303283 0 0.1 0.306506
0 0 0.306506 0 0.1 0.309763 0 0 0.309763 0
0.1 0.313053 0 0 0.313053 0 0.1 0.316378 0 0
0.316378 0 0.1 0.319737 0 0 0.319737 0 0.1 0.323132
0 0 0.323132 0 0.1 0.326562 0 0 0.326562 0
0.1 0.330027 0 0 0.330027 0 0.1 0.333529 0 0
0.333529 0 0.1 0.337068 0 0 0.337068 0 0.1 0.340643
0 0 0.340643 0 0.1 0.344255 0 0 0.344255 0
0.1 0.347906 0 0 0.347906 0 0.1 0.351594 0 0
0.351594 0 0.1 0.355321 0 0 0.355321 0 0.1 0.359086
0 0 0.359086 0 0.1 0.362891 0 0 0.362891 0
0.1 0.366736 0 0 0.366736 0 0.1 0.37062 0 0
0.37062 0 0.1 0.374546 0 0 0.374546 0 0.1 0.378512
0 0 0.378512 0 0.1 0.382519 0 0 0.382519 0
0.1 0.386568 0 0 0.386568 0 0.1 0.39066 0 0
0.39066 0 0.1 0.394794 0 0 0.394794 0 0.1 0.398971
0 0 0.398971 0 0.1 0.403192 0 0 0.403192 0
0.1 0.407457 0 0 0.407457 0 0.1 0.411766 0 0
0.411766 0 0.1 0.416121 0 0 0.416121 0 0.1 0.42052
0 0 0.42052 0 0.1 0.424966 0 0 0.424966 0
0.1 0.429458 0 0 0.429458 0 0.1 0.433997 0 0
0.433997 0 0.1 0.438583 0 0 0.438583 0 0.1 0.443217
0 0 0.443217 0 0.1 0.447899 0 0 0.447899 0
0.1 0.45263 0 0 0.45263 0 0.1 0.457411 0 0
0.457411 0 0.1 0.462241 0 0 0.462241 0 0.1 0.467122
0 0 0.467122 0 0.1 0.472053 0 0 0.472053 0
0.1 0.477036 0 0 0.477036 0 0.1 0.482071 0 0
0.482071 0 0.1 0.487159 0 0 0.487159 0 0.1 0.492299
0 0 0.492299 0 0.1 0.497493 0 0 0.497493 0
0.1 0.502742 0 0 0.502742 0 0.1 0.508045 0 0
0.508045 0 0.1 0.513403 0 0 0.513403 0 0.1 0.518817
0 0 0.518817 0 0.1 0.524288 0 0 0.524288 0
0.1 0.529816 0 0 0.529816 0 0.1 0.535401 0 0
0.535401 0 0.1 0.541045 0 0 0.541045 0 0.1 0.546748
0 0 0.546748 0 0.1 0.55251 0 0 0.55251 0
0.1 0.558332 0 0 0.558332 0 0.1 0.564215 0 0
0.564215 0 0.1 0.570159 0 0 0.570159 0 0.1 0.576165
0 0 0.576165 0 0.1 0.582234 0 0 0.582234 0
0.1 0.588366 0 0 0.588366 0 0.1 0.594562 0 0
0.594562 0 0.1 0.600822 0 0 0.600822 0 0.1 0.607148
0 0 0.607148 0 0.1 0.61354 0 0 0.61354 0
0.1 0.619999 0 0 0.619999 0 0.1 0.626525 0 0
0.626525 0 0.1 0.633119 0 0 0.633119 0 0.1 0.639782
0 0 0.639782 0 0.1 0.646514 0 0 0.646514 0
0.1 0.653316 0 0 0.653316 0 0.1 0.66019 0 0
0.66019 0 0.1 0.667135 0 0 0.667135 0 0.1 0.674152
0 0 0.674152 0 0.1 0.681243 0 0 0.681243 0
0.1 0.688408 0 0 0.688408 0 0.1 0.695647 0 0
0.695647 0 0.1 0.702962 0 0 0.702962 0 0.1 0.710353
0 0 0.710353 0 0.1 0.717821 0 0 0.717821 0
0.1 0.725367 0 0 0.725367 0 0.1 0.732992 0 0
0.732992 0 0.1 0.740697 0 0 0.740697 0 0.1 0.748481
0 0 0.748481 0 0.1 0.756347 0 0 0.756347 0
0.1 0.764295 0 0 0.764295 0 0.1 0.772326 0 0
0.772326 0 0.1 0.78044 0 0 0.78044 0 0.1 0.78864
0 0 0.78864 0 0.1 0.796924 0 0 0.796924 0
0.1 0.805295 0 0 0.805295 0 0.1 0.813754 0 0
0.813754 0 0.1 0.8223 0 0 0.8223 0 0.1 0.830936
0 0 0.830936 0 0.1 0.839662 0 0 0.839662 0
0.1 0.848479 0 0 0.848479 0 0.1 0.857387 0 0
0.857387 0 0.1 0.866389 0 0 0.866389 0 0.1 0.875485
0 0 0.875485 0 0.1 0.884675 0 0 0.884675 0
0.1 0.893961 0 0 0.893961 0 0.1 0.903344 0 0
0.903344 0 0.1 0.912825 0 0 0.912825 0 0.1 0.922405
0 0 0.922405 0 0.1 0.932085 0 0 0.932085 0
0.1 0.941865 0 0 0.941865 0 0.1 0.951748 0 0
0.951748 0 0.1 0.961734 0 0 0.961734 0 0.1 0.971824
0 0 0.971824 0 0.1 0.982019 0 0 0.982019 0
0.1 0.99232 0 0 0.99232 0 0.1 1.00273 0 0
1.00273 0 0.1 1.01325 0 0 1.01325 0 0.1 1.02387
0 0 1.02387 0 0.1 1.03461 0 0 1.03461 0
0.1 1.04546 0 0 1.04546 0 0.1 1.05642 0 0
1.05642 0 0.1 1.0675 0 0 1.0675 0 0.1 1.07869
0 0 1.07869 0 0.1 1.09 0 0 1.09 0
0.1 1.10143 0 0 1.10143 0 0.1 1.11298 0 0
1.11298 0 0.1 1.12465 0 0 1.12465 0 0.1 1.13644
0 0 1.13644 0 0.1 1.14835 0 0 1.14835 0
0.1 1.16038 0 0 1.16038 0 0.1 1.17254 0 0
1.17254 0 0.1 1.18483 0 0 1.18483 0 0.1 1.19725
0 0 1.19725 0 0.1 1.2098 0 0 1.2098 0
0.1 1.22247 0 0 1.22247 0 0.1 1.23528 0 0
1.23528 0 0.1 1.24822 0 0 1.24822 0 0.1 1.2613
0 0 1.2613 0 0.1 1.27452 0 0 1.27452 0
0.1 1.28787 0 0 1.28787 0 0.1 1.30136 0 0
1.30136 0 0.1 1.31499 0 0 1.31499 0 0.1 1.32877
0 0 1.32877 0 0.1 1.34268 0 0 1.34268 0
0.1 1.35675 0 0 1.35675 0 0.1 1.37095 0 0
1.37095 0 0.1 1.38531 0 0 1.38531 0 0.1 1.39982
0 0 1.39982 0 0.1 1.41448 0 0 1.41448 0
0.1 1.42929 0 0 1.42929 0 0.1 1.44426 0 0
1.44426 0 0.1 1.45938 0 0 1.45938 0 0.1 1.47466
0 0 1.47466 0 0.1 1.4901 0 0 1.4901 0
0.1 1.5057 0 0 1.5057 0 0.1 1.52146 0 0
1.52146 0 0.1 1.53739 0 0 1.53739 0 0.1 1.55348
0 0 1.55348 0 0.1 1.56974 0 0 1.56974 0
0.1 1.58617 0 0 1.58617 0 0.1 1.60278 0 0
1.60278 0 0.1 1.61955 0 0 1.61955 0 0.1 1.6365
0 0 1.6365 0 0.1 1.65363 0 0 1.65363 0
0.1 1.67093 0 0 1.67093 0 0.1 1.68842 0 0
1.68842 0 0.1 1.70609 0 0 1.70609 0 0.1 1.72394
0 0 1.72394 0 0.1 1.74198 0 0 1.74198 0
0.1 1.76021 0 0 1.76021 0 0.1 1.77862 0 0
1.77862 0 0.1 1.79723 0 0 1.79723 0 0.1 1.81604
0 0 1.81604 0 0.1 1.83504 0 0 1.83504 0
0.1 1.85423 0 0 1.85423 0 0.1 1.87363 0 0
1.87363 0 0.1 1.89323 0 0 1.89323 0 0.1 1.91304
0 0 1.91304 0 0.1 1.93305 0 0 1.93305 0
0.1 1.95327 0 0 1.95327 0 0.1 1.9737 0 0
1.9737 0 0.1 1.99434 0 0 1.99434 0 0.1 2.0152
0 0 2.0152 0 0.1 2.03628 0 0 2.03628 0
0.1 2.05757 0 0 2.05757 0 0.1 2.07909 0 0
2.07909 0 0.1 2.10083 0 0 2.10083 0 0.1 2.1228
0 0 2.1228 0 0.1 2.145 0 0 2.145 0
0.1 2.16743 0 0 2.16743 0 0.1 2.1901 0 0
2.1901 0 0.1 2.213 0 0 2.213 0 0.1 2.23614
0 0 2.23614 0 0.1 2.25952 0 0 2.25952 0
0.1 2.28314 0 0 2.28314 0 0.1 2.30701 0 0
2.30701 0 0.1 2.33113 0 0 2.33113 0 0.1 2.3555
0 0 2.3555 0 0.1 2.38013 0 0 2.38013 0
0.1 2.40501 0 0 2.40501 0 0.1 2.43015 0 0
2.43015 0 0.1 2.45556 0 0 2.45556 0 0.1 2.48122
0 0 2.48122 0 0.1 2.50716 0 0 2.50716 0
0.1 2.53337 0 0 2.53337 0 0.1 2.55985 0 0
2.55985 0 0.1 2.58661 0 0 2.58661 0 0.1 2.61364
0 0 2.61364 0 0.1 2.64096 0 0 2.64096 0
0.1 2.66856 0 0 2.66856 0 0.1 2.69645 0 0
2.69645 0 0.1 2.72463 0 0 2.72463 0 0.1 2.75311
0 0 2.75311 0 0.1 2.78188 0 0 2.78188 0
0.1 2.81095 0 0 2.81095 0 0.1 2.84033 0 0
2.84033 0 0.1 2.87001 0 0 2.87001 0 0.1 2.9
0 0 2.9 0 0.1 
POLYGONS 600 3000
4 0 1 2 3 4 1 4 5 2 4
4 6 7 5 4 6 8 9 7 4
8 10 11 9 4 10 12 13 11 4
12 14 15 13 4 14 16 17 15 4
16 18 19 17 4 18 20 21 19 4
20 22 23 21 4 22 24 25 23 4
24 26 27 25 4 26 28 29 27 4
28 30 31 29 4 30 32 33 31 4
32 34 35 33 4 34 36 37 35 4
36 38 39 37 4 38 40 41 39 4
40 42 43 41 4 42 44 45 43 4
44 46 47 45 4 46 48 49 47 4
48 50 51 49 4 50 52 53 51 4
52 54 55 53 4 54 56 57 55 4
56 58 59 57 4 58 60 61 59 4
60 62 63 61 4 62 64 65 63 4
64 66 67 65 4 66 68 69 67 4
68 70 71 69 4 70 72 73 71 4
72 74 75 73 4 74 76 77 75 4
76 78 79 77 4 78 80 81 79 4
80 82 83 81 4 82 84 85 83 4
84 86 87 85 4 86 88 89 87 4
88 90 91 89 4 90 92 93 91 4
92 94 95 93 4 94 96 97 95 4
96 98 99 97 4 98 100 101 99 4
100 102 103 101 4 102 104 105 103 4
104 106 107 105 4 106 108 109 107 4
108 110 111 109 4 110 112 113 111 4
112 114 115 113 4 114 116 117 115 4
116 118 119 117 4 118 120 121 119 4
120 122 123 121 4 122 124 125 123 4
124 126 127 125 4 126 128 129 127 4
128 130 131 129 4 130 132 133 131 4
132 134 135 133 4 134 136 137 135 4
136 138 139 137 4 138 140 141 139 4
140 142 143 141 4 142 144 145 143 4
144 146 147 145 4 146 148 149 147 4
148 150 151 149 4 150 152 153 151 4
152 154 155 153 4 154 156 157 155 4
156 158 159 157 4 158 160 161 159 4
160 162 163 161 4 162 164 165 163 4
164 166 167 165 4 166 168 169 167 4
168 170 171 169 4 170 172 173 171 4
172 174 175 173 4 174 176 177 175 4
176 178 179 177 4 178 180 181 179 4
180 182 183 181 4 182 184 185 183 4
184 186 187 185 4 186 188 189 187 4
188 190 191 189 4 190 192 193 191 4
192 194 195 193 4 194 196 197 195 4
196 198 199 197 4 198 200 201 199 4
200 202 203 201 4 202 204 205 203 4
204 206 207 205 4 206 208 209 207 4
208 210 211 209 4 210 212 213 211 4
212 214 215 213 4 214 216 217 215 4
216 218 219 217 4 218 220 221 219 4
220 222 223 221 4 222 224 225 223 4
224 226 227 225 4 226 228 229 227 4
228 230 231 229 4 230 232 233 231 4
232 234 235 233 4 234 236 237 235 4
236 238 239 237 4 238 240 241 239 4
240 242 243 241 4 242 244 245 243 4
244 246 247 245 4 246 248 249 247 4
248 250 251 249 4 250 252 253 251 4
252 254 255 253 4 254 256 257 255 4
256 258 259 257 4 258 260 261 259 4
260 262 263 261 4 262 264 265 263 4
264 266 267 265 4 266 268 269 267 4
268 270 271 269 4 270 272 273 271 4
272 274 275 273 4 274 276 277 275 4
276 278 279 277 4 278 280 281 279 4
280 282 283 281 4 282 284 285 283 4
284 286 287 285 4 286 288 289 287 4
288 290 291 289 4 290 292 293 291 4
292 294 295 293 4 294 296 297 295 4
296 298 299 297 4 298 300 301 299 4
300 302 303 301 4 302 304 305 303 4
304 306 307 305 4 306 308 309 307 4
308 310 311 309 4 310 312 313 311 4
312 314 315 313 4 314 316 317 315 4
316 318 319 317 4 318 320 321 319 4
320 322 323 321 4 322 324 325 323 4
324 326 327 325 4 326 328 329 327 4
328 330 331 329 4 330 332 333 331 4
332 334 335 333 4 334 336 337 335 4
336 338 339 337 4 338 340 341 339 4
340 342 343 341 4 342 344 345 343 4
344 346 347 345 4 346 348 349 347 4
348 350 351 349 4 350 352 353 351 4
352 354 355 353 4 354 356 357 355 4
356 358 359 357 4 358 360 361 359 4
360 362 363 361 4 362 364 365 363 4
364 366 367 365 4 366 368 369 367 4
368 370 371 369 4 370 372 373 371 4
372 374 375 373 4 374 376 377 375 4
376 378 379 377 4 378 380 381 379 4
380 382 383 381 4 382 384 385 383 4
384 386 387 385 4 386 388 389 387 4
388 390 391 389 4 390 392 393 391 4
392 394 395 393 4 394 396 397 395 4
396 398 399 397 4 398 400 401 399 4
400 402 403 401 4 402 404 405 403 4
404 406 407 405 4 406 408 409 407 4
408 410 411 409 4 410 412 413 411 4
412 414 415 413 4 414 416 417 415 4
416 418 419 417 4 418 420 421 419 4
420 422 423 421 4 422 424 425 423 4
424 426 427 425 4 426 428 429 427 4
428 430 431 429 4 430 432 433 431 4
432 434 435 433 4 434 436 437 435 4
436 438 439 437 4 438 440 441 439 4
440 442 443 441 4 442 444 445 443 4
444 446 447 445 4 446 448 449 447 4
448 450 451 449 4 450 452 453 451 4
452 454 455 453 4 454 456 457 455 4
456 458 459 457 4 458 460 461 459 4
460 462 463 461 4 462 464 465 463 4
464 466 467 465 4 466 468 469 467 4
468 470 471 469 4 470 472 473 471 4
472 474 475 473 4 474 476 477 475 4
476 478 479 477 4 478 480 481 479 4
480 482 483 481 4 482 484 485 483 4
484 486 487 485 4 486 488 489 487 4
488 490 491 489 4 490 492 493 491 4
492 494 495 493 4 494 496 497 495 4
496 498 499 497 4 498 500 501 499 4
500 502 503 501 4 502 504 505 503 4
504 506 507 505 4 506 508 509 507 4
508 510 511 509 4 510 512 513 511 4
512 514 515 513 4 514 516 517 515 4
516 518 519 517 4 518 520 521 519 4
520 522 523 521 4 522 524 525 523 4
524 526 527 525 4 526 528 529 527 4
528 530 531 529 4 530 532 533 531 4
532 534 535 533 4 534 536 537 535 4
536 538 539 537 4 538 540 541 539 4
540 542 543 541 4 542 544 545 543 4
544 546 547 545 4 546 548 549 547 4
548 550 551 549 4 550 552 553 551 4
552 554 555 553 4 554 556 557 555 4
556 558 559 557 4 558 560 561 559 4
560 562 563 561 4 562 564 565 563 4
564 566 567 565 4 566 568 569 567 4
568 570 571 569 4 570 572 573 571 4
572 574 575 573 4 574 576 577 575 4
576 578 579 577 4 578 580 581 579 4
580 582 583 581 4 582 584 585 583 4
584 586 587 585 4 586 588 589 587 4
588 590 591 589 4 590 592 593 591 4
592 594 595 593 4 594 596 597 595 4
596 598 599 597 4 598 600 601 599 4
600 602 603 601 4 602 604 605 603 4
604 606 607 605 4 606 608 609 607 4
608 610 611 609 4 610 612 613 611 4
612 614 615 613 4 614 616 617 615 4
616 618 619 617 4 618 620 621 619 4
620 622 623 621 4 622 624 625 623 4
624 626 627 625 4 626 628 629 627 4
628 630 631 629 4 630 632 633 631 4
632 634 635 633 4 634 636 637 635 4
636 638 639 637 4 638 640 641 639 4
640 642 643 641 4 642 644 645 643 4
644 646 647 645 4 646 648 649 647 4
648 650 651 649 4 650 652 653 651 4
652 654 655 653 4 654 656 657 655 4
656 658 659 657 4 658 660 661 659 4
660 662 663 661 4 662 664 665 663 4
664 666 667 665 4 666 668 669 667 4
668 670 671 669 4 670 672 673 671 4
672 674 675 673 4 674 676 677 675 4
676 678 679 677 4 678 680 681 679 4
680 682 683 681 4 682 684 685 683 4
684 686 687 685 4 686 688 689 687 4
688 690 691 689 4 690 692 693 691 4
692 694 695 693 4 694 696 697 695 4
696 698 699 697 4 698 700 701 699 4
700 702 703 701 4 702 704 705 703 4
704 706 707 705 4 706 708 709 707 4
708 710 711 709 4 710 712 713 711 4
712 714 715 713 4 714 716 717 715 4
716 718 719 717 4 718 720 721 719 4
720 722 723 721 4 722 724 725 723 4
724 726 727 725 4 726 728 729 727 4
728 730 731 729 4 730 732 733 731 4
732 734 735 733 4 734 736 737 735 4
736 738 739 737 4 738 740 741 739 4
740 742 743 741 4 742 744 745 743 4
744 746 747 745 4 746 748 749 747 4
748 750 751 749 4 750 752 753 751 4
752 754 755 753 4 754 756 757 755 4
756 758 759 757 4 758 760 761 759 4
760 762 763 761 4 762 764 765 763 4
764 766 767 765 4 766 768 769 767 4
768 770 771 769 4 770 772 773 771 4
772 774 775 773 4 774 776 777 775 4
776 778 779 777 4 778 780 781 779 4
780 782 783 781 4 782 784 785 783 4
784 786 787 785 4 786 788 789 787 4
788 790 791 789 4 790 792 793 791 4
792 794 795 793 4 794 796 797 795 4
796 798 799 797 4 798 800 801 799 4
800 802 803 801 4 802 804 805 803 4
804 806 807 805 4 806 808 809 807 4
808 810 811 809 4 810 812 813 811 4
812 814 815 813 4 814 816 817 815 4
816 818 819 817 4 818 820 821 819 4
820 822 823 821 4 822 824 825 823 4
824 826 827 825 4 826 828 829 827 4
828 830 831 829 4 830 832 833 831 4
832 834 835 833 4 834 836 837 835 4
836 838 839 837 4 838 840 841 839 4
840 842 843 841 4 842 844 845 843 4
844 846 847 845 4 846 848 849 847 4
848 850 851 849 4 850 852 853 851 4
852 854 855 853 4 854 856 857 855 4
856 858 859 857 4 858 860 861 859 4
860 862 863 861 4 862 864 865 863 4
864 866 867 865 4 866 868 869 867 4
868 870 871 869 4 870 872 873 871 4
872 874 875 873 4 874 876 877 875 4
876 878 879 877 4 878 880 881 879 4
880 882 883 881 4 882 884 885 883 4
884 886 887 885 4 886 888 889 887 4
888 890 891 889 4 890 892 893 891 4
892 894 895 893 4 894 896 897 895 4
896 898 899 897 4 898 900 901 899 4
900 902 903 901 4 902 904 905 903 4
904 906 907 905 4 906 908 909 907 4
908 910 911 909 4 910 912 913 911 4
912 914 915 913 4 914 916 917 915 4
916 918 919 917 4 918 920 921 919 4
920 922 923 921 4 922 924 925 923 4
924 926 927 925 4 926 928 929 927 4
928 930 931 929 4 930 932 933 931 4
932 934 935 933 4 934 936 937 935 4
936 938 939 937 4 938 940 941 939 4
940 942 943 941 4 942 944 945 943 4
944 946 947 945 4 946 948 949 947 4
948 950 951 949 4 950 952 953 951 4
952 954 955 953 4 954 956 957 955 4
956 958 959 957 4 958 960 961 959 4
960 962 963 961 4 962 964 965 963 4
964 966 967 965 4 966 968 969 967 4
968 970 971 969 4 970 972 973 971 4
972 974 975 973 4 974 976 977 975 4
976 978 979 977 4 978 980 981 979 4
980 982 983 981 4 982 984 985 983 4
984 986 987 985 4 986 988 989 987 4
988 990 991 989 4 990 992 993 991 4
992 994 995 993 4 994 996 997 995 4
996 998 999 997 4 998 1000 1001 999 4
1000 1002 1003 1001 4 1002 1004 1005 1003 4
1004 1006 1007 1005 4 1006 1008 1009 1007 4
1008 1010 1011 1009 4 1010 1012 1013 1011 4
1012 1014 1015 1013 4 1014 1016 1017 1015 4
1016 1018 1019 1017 4 1018 1020 1021 1019 4
1020 1022 1023 1021 4 1022 1024 1025 1023 4
1024 1026 1027 1025 4 1026 1028 1029 1027 4
1028 1030 1031 1029 4 1030 1032 1033 1031 4
1032 1034 1035 1033 4 1034 1036 1037 1035 4
1036 1038 1039 1037 4 1038 1040 1041 1039 4
1040 1042 1043 1041 4 1042 1044 1045 1043 4
1044 1046 1047 1045 4 1046 1048 1049 1047 4
1048 1050 1051 1049 4 1050 1052 1053 1051 4
1052 1054 1055 1053 4 1054 1056 1057 1055 4
1056 1058 1059 1057 4 1058 1060 1061 1059 4
1060 1062 1063 1061 4 1062 1064 1065 1063 4
1064 1066 1067 1065 4 1066 1068 1069 1067 4
1068 1070 1071 1069 4 1070 1072 1073 1071 4
1072 1074 1075 1073 4 1074 1076 1077 1075 4
1076 1078 1079 1077 4 1078 1080 1081 1079 4
1080 1082 1083 1081 4 1082 1084 1085 1083 4
1084 1086 1087 1085 4 1086 1088 1089 1087 4
1088 1090 1091 1089 4 1090 1092 1093 1091 4
1092 1094 1095 1093 4 1094 1096 1097 1095 4
1096 1098 1099 1097 4 1098 1100 1101 1099 4
1100 1102 1103 1101 4 1102 1104 1105 1103 4
1104 1106 1107 1105 4 1106 1108 1109 1107 4
1108 1110 1111 1109 4 1110 1112 1113 1111 4
1112 1114 1115 1113 4 1114 1116 1117 1115 4
1116 1118 1119 1117 4 1118 1120 1121 1119 4
1120 1122 1123 1121 4 1122 1124 1125 1123 4
1124 1126 1127 1125 4 1126 1128 1129 1127 4
1128 1130 1131 1129 4 1130 1132 1133 1131 4
1132 1134 1135 1133 4 1134 1136 1137 1135 4
1136 1138 1139 1137 4 1138 1140 1141 1139 4
1140 1142 1143 1141 4 1142 1144 1145 1143 4
1144 1146 1147 1145 4 1146 1148 1149 1147 4
1148 1150 1151 1149 4 1150 1152 1153 1151 4
1152 1154 1155 1153 4 1154 1156 1157 1155 4
1156 1158 1159 1157 4 1158 1160 1161 1159 4
1160 1162 1163 1161 4 1162 1164 1165 1163 4
1164 1166 1167 1165 4 1166 1168 1169 1167 4
1168 1170 1171 1169 4 1170 1172 1173 1171 4
1172 1174 1175 1173 4 1174 1176 1177 1175 4
1176 1178 1179 1177 4 1178 1180 1181 1179 4
1180 1182 1183 1181 4 1182 1184 1185 1183 4
1184 1186 1187 1185 4 1186 1188 1189 1187 4
1188 1190 1191 1189 4 1190 1192 1193 1191 4
1192 1194 1195 1193 4 1194 1196 1197 1195 4
1196 1198 1199 1197 4 1198 1200 1201 1199 
POINT_DATA 1202
FIELD attributes 1
U 3 1202 float
1.54633 0.0341547 0 0.86996 0.0236436 0 0.86996 0.0236436 0 1.54633 0.0341547
0 0.166339 0.00856606 0 0.166339 0.00856606 0 0.122373 0.00258696 0
0.122373 0.00258696 0 0.096384 0.000773345 0 0.096384 0.000773345 0 0.0818388
0.000279208 0 0.0818388 0.000279208 0 0.0730746 0.000175096 0 0.0730746 0.000175096
0 0.0669326 0.000157979 0 0.0669326 0.000157979 0 0.0621561 0.00014171 0
0.0621561 0.00014171 0 0.0582727 0.000120794 0 0.0582727 0.000120794 0 0.0550481
0.000100916 0 0.0550481 0.000100916 0 0.0523161 8.58865e-05 0 0.0523161 8.58865e-05
0 0.0499517 7.56267e-05 0 0.0499517 7.56267e-05 0 0.0478664 6.77252e-05 0
0.0478664 6.77252e-05 0 0.0460024 6.11537e-05 0 0.0460024 6.11537e-05 0 0.0443205
5.55259e-05 0 0.0443205 5.55259e-05 0 0.042792 5.06245e-05 0 0.042792 5.06245e-05
0 0.0413947 4.63098e-05 0 0.0413947 4.63098e-05 0 0.0401114 4.24877e-05 0
0.0401114 4.24877e-05 0 0.0389277 3.90883e-05 0 0.0389277 3.90883e-05 0 0.0378318
3.60557e-05 0 0.0378318 3.60557e-05 0 0.0368138 3.3343e-05 0 0.0368138 3.3343e-05
0 0.0358651 3.09109e-05 0 0.0358651 3.09109e-05 0 0.0349784 2.87252e-05 0
0.0349784 2.87252e-05 0 0.0341473 2.67563e-05 0 0.0341473 2.67563e-05 0 0.0333663
2.49783e-05 0 0.0333663 2.49783e-05 0 0.0326307 2.3369e-05 0 0.0326307 2.3369e-05
0 0.0319361 2.19085e-05 0 0.0319361 2.19085e-05 0 0.0312789 2.058e-05 0
0.0312789 2.058e-05 0 0.0306557 1.93683e-05 0 0.0306557 1.93683e-05 0 0.0300637
1.82606e-05 0 0.0300637 1.82606e-05 0 0.0295003 1.72454e-05 0 0.0295003 1.72454e-05
0 0.0289632 1.63128e-05 0 0.0289632 1.63128e-05 0 0.0284502 1.54555e-05 0
0.0284502 1.54555e-05 0 0.0279597 1.46626e-05 0 0.0279597 1.46626e-05 0 0.0274898
1.39375e-05 0 0.0274898 1.39375e-05 0 0.0270391 1.32567e-05 0 0.0270391 1.32567e-05
0 0.0266059 1.26527e-05 0 0.0266059 1.26527e-05 0 0.0261891 1.20491e-05 0
0.0261891 1.20491e-05 0 0.0257889 1.13194e-05 0 0.0257889 1.13194e-05 0 0.0254042
1.0702e-05 0 0.0254042 1.0702e-05 0 0.0250322 1.03203e-05 0 0.0250322 1.03203e-05
0 0.0246704 1.00054e-05 0 0.0246704 1.00054e-05 0 0.0243182 9.68248e-06 0
0.0243182 9.68248e-06 0 0.0239757 9.34827e-06 0 0.0239757 9.34827e-06 0 0.0236429
9.00866e-06 0 0.0236429 9.00866e-06 0 0.0233198 8.67005e-06 0 0.0233198 8.67005e-06
0 0.0230063 8.33758e-06 0 0.0230063 8.33758e-06 0 0.022702 8.0146e-06 0
0.022702 8.0146e-06 0 0.0224068 7.7031e-06 0 0.0224068 7.7031e-06 0 0.0221203
7.40412e-06 0 0.0221203 7.40412e-06 0 0.0218422 7.11812e-06 0 0.0218422 7.11812e-06
0 0.0215721 6.84514e-06 0 0.0215721 6.84514e-06 0 0.0213098 6.58497e-06 0
0.0213098 6.58497e-06 0 0.0210548 6.33723e-06 0 0.0210548 6.33723e-06 0 0.020807
6.10144e-06 0 0.020807 6.10144e-06 0 0.0205658 5.8771e-06 0 0.0205658 5.8771e-06
0 0.0203312 5.66362e-06 0 0.0203312 5.66362e-06 0 0.0201027 5.46048e-06 0
0.0201027 5.46048e-06 0 0.0198802 5.26709e-06 0 0.0198802 5.26709e-06 0 0.0196633
5.08295e-06 0 0.0196633 5.08295e-06 0 0.0194519 4.9075e-06 0 0.0194519 4.9075e-06
0 0.0192456 4.74029e-06 0 0.0192456 4.74029e-06 0 0.0190443 4.58079e-06 0
0.0190443 4.58079e-06 0 0.0188478 4.42864e-06 0 0.0188478 4.42864e-06 0 0.0186559
4.28333e-06 0 0.0186559 4.28333e-06 0 0.0184683 4.14459e-06 0 0.0184683 4.14459e-06
0 0.018285 4.0119e-06 0 0.018285 4.0119e-06 0 0.0181057 3.88512e-06 0
0.0181057 3.88512e-06 0 0.0179303 3.76368e-06 0 0.0179303 3.76368e-06 0 0.0177586
3.64761e-06 0 0.0177586 3.64761e-06 0 0.0175905 3.53629e-06 0 0.0175905 3.53629e-06
0 0.0174259 3.42984e-06 0 0.0174259 3.42984e-06 0 0.0172646 3.32783e-06 0
0.0172646 3.32783e-06 0 0.0171066 3.22988e-06 0 0.0171066 3.22988e-06 0 0.0169515
3.13778e-06 0 0.0169515 3.13778e-06 0 0.0167995 3.04621e-06 0 0.0167995 3.04621e-06
0 0.0166501 2.9701e-06 0 0.0166501 2.9701e-06 0 0.0165035 2.87533e-06 0
0.0165035 2.87533e-06 0 0.0163603 2.74741e-06 0 0.0163603 2.74741e-06 0 0.0162197
2.67278e-06 0 0.0162197 2.67278e-06 0 0.0160806 2.64365e-06 0 0.0160806 2.64365e-06
0 0.0159425 2.60495e-06 0 0.0159425 2.60495e-06 0 0.0158058 2.5569e-06 0
0.0158058 2.5569e-06 0 0.0156707 2.50172e-06 0 0.0156707 2.50172e-06 0 0.0155376
2.44231e-06 0 0.0155376 2.44231e-06 0 0.0154064 2.38087e-06 0 0.0154064 2.38087e-06
0 0.0152773 2.31887e-06 0 0.0152773 2.31887e-06 0 0.0151504 2.25722e-06 0
0.0151504 2.25722e-06 0 0.0150255 2.19649e-06 0 0.0150255 2.19649e-06 0 0.0149028
2.13704e-06 0 0.0149028 2.13704e-06 0 0.0147822 2.07908e-06 0 0.0147822 2.07908e-06
0 0.0146636 2.02273e-06 0 0.0146636 2.02273e-06 0 0.014547 1.96805e-06 0
0.014547 1.96805e-06 0 0.0144323 1.91507e-06 0 0.0144323 1.91507e-06 0 0.0143195
1.86377e-06 0 0.0143195 1.86377e-06 0 0.0142086 1.81414e-06 0 0.0142086 1.81414e-06
0 0.0140995 1.76614e-06 0 0.0140995 1.76614e-06 0 0.0139922 1.71972e-06 0
0.0139922 1.71972e-06 0 0.0138866 1.67484e-06 0 0.0138866 1.67484e-06 0 0.0137826
1.63145e-06 0 0.0137826 1.63145e-06 0 0.0136803 1.58948e-06 0 0.0136803 1.58948e-06
0 0.0135795 1.5489e-06 0 0.0135795 1.5489e-06 0 0.0134803 1.50964e-06 0
0.0134803 1.50964e-06 0 0.0133825 1.47167e-06 0 0.0133825 1.47167e-06 0 0.0132863
1.43491e-06 0 0.0132863 1.43491e-06 0 0.0131914 1.39936e-06 0 0.0131914 1.39936e-06
0 0.0130979 1.36491e-06 0 0.0130979 1.36491e-06 0 0.0130057 1.33159e-06 0
0.0130057 1.33159e-06 0 0.0129149 1.29928e-06 0 0.0129149 1.29928e-06 0 0.0128253
1.26805e-06 0 0.0128253 1.26805e-06 0 0.0127369 1.23772e-06 0 0.0127369 1.23772e-06
0 0.0126498 1.20844e-06 0 0.0126498 1.20844e-06 0 0.0125638 1.18002e-06 0
0.0125638 1.18002e-06 0 0.0124789 1.15249e-06 0 0.0124789 1.15249e-06 0 0.0123952
1.12629e-06 0 0.0123952 1.12629e-06 0 0.0123126 1.09984e-06 0 0.0123126 1.09984e-06
0 0.0122309 1.07853e-06 0 0.0122309 1.07853e-06 0 0.0121501 1.0518e-06 0
0.0121501 1.0518e-06 0 0.0120709 1.01385e-06 0 0.0120709 1.01385e-06 0 0.0119926
9.9181e-07 0 0.0119926 9.9181e-07 0 0.0119146 9.86701e-07 0 0.0119146 9.86701e-07
0 0.0118366 9.79693e-07 0 0.0118366 9.79693e-07 0 0.0117587 9.67565e-07 0
0.0117587 9.67565e-07 0 0.0116814 9.51683e-07 0 0.0116814 9.51683e-07 0 0.0116047
9.33529e-07 0 0.0116047 9.33529e-07 0 0.0115289 9.1418e-07 0 0.0115289 9.1418e-07
0 0.0114539 8.94295e-07 0 0.0114539 8.94295e-07 0 0.0113797 8.74283e-07 0
0.0113797 8.74283e-07 0 0.0113065 8.54388e-07 0 0.0113065 8.54388e-07 0 0.0112343
8.34762e-07 0 0.0112343 8.34762e-07 0 0.0111629 8.15498e-07 0 0.0111629 8.15498e-07
0 0.0110925 7.96652e-07 0 0.0110925 7.96652e-07 0 0.0110229 7.78255e-07 0
0.0110229 7.78255e-07 0 0.0109543 7.60326e-07 0 0.0109543 7.60326e-07 0 0.0108865
7.42867e-07 0 0.0108865 7.42867e-07 0 0.0108195 7.25883e-07 0 0.0108195 7.25883e-07
0 0.0107534 7.09362e-07 0 0.0107534 7.09362e-07 0 0.0106881 6.93301e-07 0
0.0106881 6.93301e-07 0 0.0106236 6.77685e-07 0 0.0106236 6.77685e-07 0 0.0105599
6.62508e-07 0 0.0105599 6.62508e-07 0 0.0104969 6.47751e-07 0 0.0104969 6.47751e-07
0 0.0104347 6.3341e-07 0 0.0104347 6.3341e-07 0 0.0103733 6.1946e-07 0
0.0103733 6.1946e-07 0 0.0103125 6.05905e-07 0 0.0103125 6.05905e-07 0 0.0102525
5.92711e-07 0 0.0102525 5.92711e-07 0 0.0101931 5.79896e-07 0 0.0101931 5.79896e-07
0 0.0101344 5.67412e-07 0 0.0101344 5.67412e-07 0 0.0100763 5.55294e-07 0
0.0100763 5.55294e-07 0 0.0100189 5.43479e-07 0 0.0100189 5.43479e-07 0 0.00996216
5.32022e-07 0 0.00996216 5.32022e-07 0 0.009906 5.20853e-07 0 0.009906 5.20853e-07
0 0.00985044 5.1002e-07 0 0.00985044 5.1002e-07 0 0.00979544 4.99595e-07 0
0.00979544 4.99595e-07 0 0.00974105 4.89181e-07 0 0.00974105 4.89181e-07 0 0.00968712
4.80601e-07 0 0.00968712 4.80601e-07 0 0.00963373 4.69713e-07 0 0.00963373 4.69713e-07
0 0.00958117 4.54783e-07 0 0.00958117 4.54783e-07 0 0.00952911 4.46694e-07 0
0.00952911 4.46694e-07 0 0.00947694 4.46263e-07 0 0.00947694 4.46263e-07 0 0.00942451
4.44909e-07 0 0.00942451 4.44909e-07 0 0.00937204 4.40484e-07 0 0.00937204 4.40484e-07
0 0.00931978 4.34052e-07 0 0.00931978 4.34052e-07 0 0.00926788 4.26441e-07 0
0.00926788 4.26441e-07 0 0.00921643 4.18237e-07 0 0.00921643 4.18237e-07 0 0.00916548
4.09766e-07 0 0.00916548 4.09766e-07 0 0.00911506 4.01225e-07 0 0.00911506 4.01225e-07
0 0.00906518 3.92724e-07 0 0.00906518 3.92724e-07 0 0.00901585 3.84331e-07 0
0.00901585 3.84331e-07 0 0.00896707 3.76086e-07 0 0.00896707 3.76086e-07 0 0.00891882
3.68013e-07 0 0.00891882 3.68013e-07 0 0.00887111 3.60122e-07 0 0.00887111 3.60122e-07
0 0.00882393 3.52425e-07 0 0.00882393 3.52425e-07 0 0.00877727 3.44918e-07 0
0.00877727 3.44918e-07 0 0.00873111 3.37606e-07 0 0.00873111 3.37606e-07 0 0.00868546
3.30479e-07 0 0.00868546 3.30479e-07 0 0.00864029 3.23543e-07 0 0.00864029 3.23543e-07
0 0.00859561 3.16783e-07 0 0.00859561 3.16783e-07 0 0.00855139 3.10206e-07 0
0.00855139 3.10206e-07 0 0.00850763 3.03793e-07 0 0.00850763 3.03793e-07 0 0.00846433
2.97558e-07 0 0.00846433 2.97558e-07 0 0.00842146 2.9147e-07 0 0.00842146 2.9147e-07
0 0.00837903 2.85558e-07 0 0.00837903 2.85558e-07 0 0.00833703 2.79775e-07 0
0.00833703 2.79775e-07 0 0.00829543 2.74172e-07 0 0.00829543 2.74172e-07 0 0.00825425
2.68675e-07 0 0.00825425 2.68675e-07 0 0.00821346 2.63373e-07 0 0.00821346 2.63373e-07
0 0.00817306 2.58149e-07 0 0.00817306 2.58149e-07 0 0.00813305 2.53147e-07 0
0.00813305 2.53147e-07 0 0.00809338 2.4824e-07 0 0.00809338 2.4824e-07 0 0.00805413
2.43461e-07 0 0.00805413 2.43461e-07 0 0.00801508 2.39674e-07 0 0.00801508 2.39674e-07
0 0.00797652 2.33064e-07 0 0.00797652 2.33064e-07 0 0.00793855 2.26466e-07 0
0.00793855 2.26466e-07 0 0.00790052 2.26273e-07 0 0.00790052 2.26273e-07 0 0.00786209
2.27391e-07 0 0.00786209 2.27391e-07 0 0.00782341 2.26029e-07 0 0.00782341 2.26029e-07
0 0.00778479 2.23297e-07 0 0.00778479 2.23297e-07 0 0.00774636 2.19676e-07 0
0.00774636 2.19676e-07 0 0.00770822 2.15659e-07 0 0.00770822 2.15659e-07 0 0.00767043
2.11448e-07 0 0.00767043 2.11448e-07 0 0.007633 2.0718e-07 0 0.007633 2.0718e-07
0 0.00759594 2.0292e-07 0 0.00759594 2.0292e-07 0 0.00755927 1.98712e-07 0
0.00755927 1.98712e-07 0 0.00752298 1.94576e-07 0 0.00752298 1.94576e-07 0 0.00748708
1.90527e-07 0 0.00748708 1.90527e-07 0 0.00745154 1.86571e-07 0 0.00745154 1.86571e-07
0 0.00741638 1.82712e-07 0 0.00741638 1.82712e-07 0 0.00738157 1.78948e-07 0
0.00738157 1.78948e-07 0 0.00734712 1.75283e-07 0 0.00734712 1.75283e-07 0 0.00731303
1.7171e-07 0 0.00731303 1.7171e-07 0 0.00727927 1.68232e-07 0 0.00727927 1.68232e-07
0 0.00724584 1.64841e-07 0 0.00724584 1.64841e-07 0 0.00721275 1.61542e-07 0
0.00721275 1.61542e-07 0 0.00717997 1.58322e-07 0 0.00717997 1.58322e-07 0 0.00714751
1.55192e-07 0 0.00714751 1.55192e-07 0 0.00711536 1.52132e-07 0 0.00711536 1.52132e-07
0 0.0070835 1.49164e-07 0 0.0070835 1.49164e-07 0 0.00705194 1.46253e-07 0
0.00705194 1.46253e-07 0 0.00702067 1.43443e-07 0 0.00702067 1.43443e-07 0 0.00698968
1.40672e-07 0 0.00698968 1.40672e-07 0 0.00695897 1.38024e-07 0 0.00695897 1.38024e-07
0 0.00692851 1.35405e-07 0 0.00692851 1.35405e-07 0 0.00689836 1.32882e-07 0
0.00689836 1.32882e-07 0 0.00686834 1.30836e-07 0 0.00686834 1.30836e-07 0 0.00683868
1.27442e-07 0 0.00683868 1.27442e-07 0 0.00680947 1.24173e-07 0 0.00680947 1.24173e-07
0 0.00678015 1.24161e-07 0 0.00678015 1.24161e-07 0 0.00675043 1.25012e-07 0
0.00675043 1.25012e-07 0 0.00672045 1.24549e-07 0 0.00672045 1.24549e-07 0 0.00669047
1.23133e-07 0 0.00669047 1.23133e-07 0 0.00666062 1.21166e-07 0 0.00666062 1.21166e-07
0 0.006631 1.18951e-07 0 0.006631 1.18951e-07 0 0.00660164 1.16626e-07 0
0.00660164 1.16626e-07 0 0.00657256 1.14273e-07 0 0.00657256 1.14273e-07 0 0.00654377
1.11931e-07 0 0.00654377 1.11931e-07 0 0.00651528 1.09623e-07 0 0.00651528 1.09623e-07
0 0.00648708 1.0736e-07 0 0.00648708 1.0736e-07 0 0.00645917 1.05149e-07 0
0.00645917 1.05149e-07 0 0.00643155 1.02991e-07 0 0.00643155 1.02991e-07 0 0.0064042
1.00889e-07 0 0.0064042 1.00889e-07 0 0.00637713 9.88419e-08 0 0.00637713 9.88419e-08
0 0.00635033 9.68491e-08 0 0.00635033 9.68491e-08 0 0.00632379 9.49082e-08 0
0.00632379 9.49082e-08 0 0.0062975 9.30197e-08 0 0.0062975 9.30197e-08 0 0.00627147
9.11791e-08 0 0.00627147 9.11791e-08 0 0.00624568 8.93889e-08 0 0.00624568 8.93889e-08
0 0.00622014 8.76421e-08 0 0.00622014 8.76421e-08 0 0.00619482 8.5945e-08 0
0.00619482 8.5945e-08 0 0.00616974 8.42856e-08 0 0.00616974 8.42856e-08 0 0.00614488
8.26783e-08 0 0.00614488 8.26783e-08 0 0.00612024 8.11005e-08 0 0.00612024 8.11005e-08
0 0.00609582 7.95857e-08 0 0.00609582 7.95857e-08 0 0.0060716 7.80897e-08 0
0.0060716 7.80897e-08 0 0.0060476 7.66669e-08 0 0.0060476 7.66669e-08 0 0.00602373
7.54218e-08 0 0.00602373 7.54218e-08 0 0.00600011 7.3614e-08 0 0.00600011 7.3614e-08
0 0.00597683 7.19463e-08 0 0.00597683 7.19463e-08 0 0.00595345 7.19344e-08 0
0.00595345 7.19344e-08 0 0.00592969 7.2548e-08 0 0.00592969 7.2548e-08 0 0.00590567
7.24256e-08 0 0.00590567 7.24256e-08 0 0.00588161 7.16207e-08 0 0.00588161 7.16207e-08
0 0.00585767 7.04649e-08 0 0.00585767 7.04649e-08 0 0.00583391 6.91514e-08 0
0.00583391 6.91514e-08 0 0.00581037 6.77787e-08 0 0.00581037 6.77787e-08 0 0.00578706
6.63941e-08 0 0.00578706 6.63941e-08 0 0.00576398 6.50215e-08 0 0.00576398 6.50215e-08
0 0.00574115 6.36734e-08 0 0.00574115 6.36734e-08 0 0.00571856 6.23555e-08 0
0.00571856 6.23555e-08 0 0.00569619 6.10704e-08 0 0.00569619 6.10704e-08 0 0.00567406
5.98202e-08 0 0.00567406 5.98202e-08 0 0.00565215 5.86033e-08 0 0.00565215 5.86033e-08
0 0.00563045 5.74201e-08 0 0.00563045 5.74201e-08 0 0.00560897 5.62684e-08 0
0.00560897 5.62684e-08 0 0.0055877 5.51492e-08 0 0.0055877 5.51492e-08 0 0.00556663
5.4059e-08 0 0.00556663 5.4059e-08 0 0.00554576 5.29995e-08 0 0.00554576 5.29995e-08
0 0.00552508 5.19667e-08 0 0.00552508 5.19667e-08 0 0.00550459 5.09634e-08 0
0.00550459 5.09634e-08 0 0.00548429 4.99836e-08 0 0.00548429 4.99836e-08 0 0.00546416
4.90347e-08 0 0.00546416 4.90347e-08 0 0.00544422 4.81047e-08 0 0.00544422 4.81047e-08
0 0.00542444 4.72133e-08 0 0.00542444 4.72133e-08 0 0.00540482 4.63308e-08 0
0.00540482 4.63308e-08 0 0.00538537 4.55394e-08 0 0.00538537 4.55394e-08 0 0.00536603
4.46678e-08 0 0.00536603 4.46678e-08 0 0.00534699 4.35535e-08 0 0.00534699 4.35535e-08
0 0.00532802 4.32338e-08 0 0.00532802 4.32338e-08 0 0.00530868 4.37802e-08 0
0.00530868 4.37802e-08 0 0.00528901 4.39576e-08 0 0.00528901 4.39576e-08 0 0.00526925
4.35491e-08 0 0.00526925 4.35491e-08 0 0.00524957 4.28679e-08 0 0.00524957 4.28679e-08
0 0.00523004 4.20611e-08 0 0.00523004 4.20611e-08 0 0.0052107 4.1214e-08 0
0.0052107 4.1214e-08 0 0.00519155 4.03578e-08 0 0.00519155 4.03578e-08 0 0.0051726
3.95116e-08 0 0.0051726 3.95116e-08 0 0.00515386 3.86821e-08 0 0.00515386 3.86821e-08
0 0.00513531 3.7873e-08 0 0.00513531 3.7873e-08 0 0.00511696 3.70862e-08 0
0.00511696 3.70862e-08 0 0.0050988 3.63216e-08 0 0.0050988 3.63216e-08 0 0.00508082
3.55789e-08 0 0.00508082 3.55789e-08 0 0.00506303 3.48568e-08 0 0.00506303 3.48568e-08
0 0.00504541 3.4156e-08 0 0.00504541 3.4156e-08 0 0.00502796 3.34744e-08 0
0.00502796 3.34744e-08 0 0.00501069 3.28119e-08 0 0.00501069 3.28119e-08 0 0.00499357
3.21671e-08 0 0.00499357 3.21671e-08 0 0.00497661 3.15403e-08 0 0.00497661 3.15403e-08
0 0.00495981 3.09298e-08 0 0.00495981 3.09298e-08 0 0.00494316 3.03375e-08 0
0.00494316 3.03375e-08 0 0.00492666 2.97596e-08 0 0.00492666 2.97596e-08 0 0.0049103
2.92026e-08 0 0.0049103 2.92026e-08 0 0.00489408 2.86573e-08 0 0.00489408 2.86573e-08
0 0.00487799 2.81655e-08 0 0.00487799 2.81655e-08 0 0.00486201 2.75867e-08 0
0.00486201 2.75867e-08 0 0.00484628 2.69812e-08 0 0.00484628 2.69812e-08 0 0.00483052
2.69718e-08 0 0.00483052 2.69718e-08 0 0.00481437 2.73605e-08 0 0.00481437 2.73605e-08
0 0.00479796 2.74151e-08 0 0.00479796 2.74151e-08 0 0.00478151 2.71044e-08 0
0.00478151 2.71044e-08 0 0.00476514 2.66361e-08 0 0.00476514 2.66361e-08 0 0.00474892
2.61045e-08 0 0.00474892 2.61045e-08 0 0.00473287 2.55563e-08 0 0.00473287 2.55563e-08
0 0.004717 2.50093e-08 0 0.004717 2.50093e-08 0 0.0047013 2.44722e-08 0
0.0047013 2.44722e-08 0 0.00468578 2.39486e-08 0 0.00468578 2.39486e-08 0 0.00467043
2.3439e-08 0 0.00467043 2.3439e-08 0 0.00465524 2.29447e-08 0 0.00465524 2.29447e-08
0 0.00464022 2.24652e-08 0 0.00464022 2.24652e-08 0 0.00462535 2.19994e-08 0
0.00462535 2.19994e-08 0 0.00461064 2.15475e-08 0 0.00461064 2.15475e-08 0 0.00459608
2.11082e-08 0 0.00459608 2.11082e-08 0 0.00458166 2.06812e-08 0 0.00458166 2.06812e-08
0 0.00456739 2.02664e-08 0 0.00456739 2.02664e-08 0 0.00455326 1.98614e-08 0
0.00455326 1.98614e-08 0 0.00453926 1.94693e-08 0 0.00453926 1.94693e-08 0 0.00452539
1.90851e-08 0 0.00452539 1.90851e-08 0 0.00451166 1.87164e-08 0 0.00451166 1.87164e-08
0 0.00449805 1.83498e-08 0 0.00449805 1.83498e-08 0 0.00448457 1.8014e-08 0
0.00448457 1.8014e-08 0 0.00447117 1.76795e-08 0 0.00447117 1.76795e-08 0 0.00445795
1.72535e-08 0 0.00445795 1.72535e-08 0 0.00444488 1.70522e-08 0 0.00444488 1.70522e-08
0 0.00443157 1.72518e-08 0 0.00443157 1.72518e-08 0 0.00441794 1.74315e-08 0
0.00441794 1.74315e-08 0 0.00440417 1.73352e-08 0 0.00440417 1.73352e-08 0 0.00439045
1.70588e-08 0 0.00439045 1.70588e-08 0 0.00437684 1.67112e-08 0 0.00437684 1.67112e-08
0 0.00436339 1.63429e-08 0 0.00436339 1.63429e-08 0 0.0043501 1.59713e-08 0
0.0043501 1.59713e-08 0 0.00433698 1.56053e-08 0 0.00433698 1.56053e-08 0 0.00432403
1.52482e-08 0 0.00432403 1.52482e-08 0 0.00431123 1.48993e-08 0 0.00431123 1.48993e-08
0 0.0042986 1.45604e-08 0 0.0042986 1.45604e-08 0 0.00428613 1.42303e-08 0
0.00428613 1.42303e-08 0 0.00427381 1.39082e-08 0 0.00427381 1.39082e-08 0 0.00426164
1.35948e-08 0 0.00426164 1.35948e-08 0 0.00424962 1.32882e-08 0 0.00424962 1.32882e-08
0 0.00423775 1.29884e-08 0 0.00423775 1.29884e-08 0 0.00422602 1.26963e-08 0
0.00422602 1.26963e-08 0 0.00421444 1.24077e-08 0 0.00421444 1.24077e-08 0 0.004203
1.21274e-08 0 0.004203 1.21274e-08 0 0.00419171 1.18499e-08 0 0.00419171 1.18499e-08
0 0.00418056 1.1582e-08 0 0.00418056 1.1582e-08 0 0.00416955 1.1308e-08 0
0.00416955 1.1308e-08 0 0.0041587 1.10691e-08 0 0.0041587 1.10691e-08 0 0.00414793
1.07938e-08 0 0.00414793 1.07938e-08 0 0.00413743 1.04743e-08 0 0.00413743 1.04743e-08
0 0.004127 1.04585e-08 0 0.004127 1.04585e-08 0 0.00411623 1.06398e-08 0
0.00411623 1.06398e-08 0 0.00410529 1.06322e-08 0 0.00410529 1.06322e-08 0 0.00409438
1.04375e-08 0 0.00409438 1.04375e-08 0 0.00408362 1.01662e-08 0 0.00408362 1.01662e-08
0 0.00407305 9.86877e-09 0 0.00407305 9.86877e-09 0 0.0040627 9.56344e-09 0
0.0040627 9.56344e-09 0 0.00405257 9.25874e-09 0 0.00405257 9.25874e-09 0 0.00404266
8.95701e-09 0 0.00404266 8.95701e-09 0 0.00403298 8.65766e-09 0 0.00403298 8.65766e-09
0 0.00402352 8.36329e-09 0 0.00402352 8.36329e-09 0 0.0040143 8.07214e-09 0
0.0040143 8.07214e-09 0 0.00400531 7.78335e-09 0 0.00400531 7.78335e-09 0 0.00399655
7.49871e-09 0 0.00399655 7.49871e-09 0 0.00398803 7.21705e-09 0 0.00398803 7.21705e-09
0 0.00397975 6.93605e-09 0 0.00397975 6.93605e-09 0 0.00397172 6.65941e-09 0
0.00397172 6.65941e-09 0 0.00396393 6.38481e-09 0 0.00396393 6.38481e-09 0 0.00395639
6.11063e-09 0 0.00395639 6.11063e-09 0 0.00394911 5.8431e-09 0 0.00394911 5.8431e-09
0 0.00394208 5.57458e-09 0 0.00394208 5.57458e-09 0 0.00393531 5.3113e-09 0
0.00393531 5.3113e-09 0 0.00392879 5.05591e-09 0 0.00392879 5.05591e-09 0 0.00392254
4.79577e-09 0 0.00392254 4.79577e-09 0 0.00391655 4.53071e-09 0 0.00391655 4.53071e-09
0 0.00391085 4.35281e-09 0 0.00391085 4.35281e-09 0 0.00390517 4.32693e-09 0
0.00390517 4.32693e-09 0 0.0038994 4.29622e-09 0 0.0038994 4.29622e-09 0 0.00389373
4.14548e-09 0 0.00389373 4.14548e-09 0 0.00388827 3.92078e-09 0 0.00388827 3.92078e-09
0 0.0038831 3.66796e-09 0 0.0038831 3.66796e-09 0 0.00387823 3.41157e-09 0
0.00387823 3.41157e-09 0 0.00387365 3.15996e-09 0 0.00387365 3.15996e-09 0 0.00386939
2.91377e-09 0 0.00386939 2.91377e-09 0 0.00386542 2.67807e-09 0 0.00386542 2.67807e-09
0 0.00386173 2.45357e-09 0 0.00386173 2.45357e-09 0 0.00385833 2.23496e-09 0
0.00385833 2.23496e-09 0 0.00385522 2.02343e-09 0 0.00385522 2.02343e-09 0 0.00385237
1.82135e-09 0 0.00385237 1.82135e-09 0 0.0038498 1.62446e-09 0 0.0038498 1.62446e-09
0 0.00384749 1.43317e-09 0 0.00384749 1.43317e-09 0 0.00384544 1.25229e-09 0
0.00384544 1.25229e-09 0 0.00384365 1.07837e-09 0 0.00384365 1.07837e-09 0 0.0038421
9.0763e-10 0 0.0038421 9.0763e-10 0 0.00384081 7.45024e-10 0 0.00384081 7.45024e-10
0 0.00383975 5.91036e-10 0 0.00383975 5.91036e-10 0 0.00383892 4.39444e-10 0
0.00383892 4.39444e-10 0 0.00383834 2.94444e-10 0 0.00383834 2.94444e-10 0 0.00383797
1.59079e-10 0 0.00383797 1.59079e-10 0 0.00383782 2.93253e-11 0 0.00383782 2.93253e-11
0 0.00383789 -1.01535e-10 0 0.00383789 -1.01535e-10 0 0.00383819 -2.27241e-10 0
0.00383819 -2.27241e-10 0 0.00383867 -2.77301e-10 0 0.00383867 -2.77301e-10 0 0.00383912
-2.42326e-10 0 0.00383912 -2.42326e-10 0 0.00383951 -2.37041e-10 0 0.00383951 -2.37041e-10
0 0.00383997 -3.00858e-10 0 0.00383997 -3.00858e-10 0 0.0038406 -3.91671e-10 0
0.0038406 -3.91671e-10 0 0.0038414 -4.93857e-10 0 0.0038414 -4.93857e-10 0 0.00384242
-6.02235e-10 0 0.00384242 -6.02235e-10 0 0.00384363 -7.04226e-10 0 0.00384363 -7.04226e-10
0 0.00384504 -7.96314e-10 0 0.00384504 -7.96314e-10 0 0.00384664 -8.87399e-10 0
0.00384664 -8.87399e-10 0 0.00384843 -9.77754e-10 0 0.00384843 -9.77754e-10 0 0.0038504
-1.06003e-09 0 0.0038504 -1.06003e-09 0 0.00385254 -1.134e-09 0 0.00385254 -1.134e-09
0 0.00385485 -1.20792e-09 0 0.00385485 -1.20792e-09 0 0.00385733 -1.28192e-09 0
0.00385733 -1.28192e-09 0 0.00385997 -1.34638e-09 0 0.00385997 -1.34638e-09 0 0.00386277
-1.40168e-09 0 0.00386277 -1.40168e-09 0 0.0038657 -1.4579e-09 0 0.0038657 -1.4579e-09
0 0.00386879 -1.51829e-09 0 0.00386879 -1.51829e-09 0 0.00387203 -1.57314e-09 0
0.00387203 -1.57314e-09 0 0.00387541 -1.61661e-09 0 0.00387541 -1.61661e-09 0 0.00387891
-1.65571e-09 0 0.00387891 -1.65571e-09 0 0.00388254 -1.69843e-09 0 0.00388254 -1.69843e-09
0 0.0038863 -1.74342e-09 0 0.0038863 -1.74342e-09 0 0.00389019 -1.78131e-09 0
0.00389019 -1.78131e-09 0 0.00389419 -1.80901e-09 0 0.00389419 -1.80901e-09 0 0.0038983
-1.83672e-09 0 0.0038983 -1.83672e-09 0 0.00390252 -1.8687e-09 0 0.00390252 -1.8687e-09
0 0.00390685 -1.86145e-09 0 0.00390685 -1.86145e-09 0 0.00391111 -1.79532e-09 0
0.00391111 -1.79532e-09 0 0.00391522 -1.73676e-09 0 0.00391522 -1.73676e-09 0 0.00391931
-1.72347e-09 0 0.00391931 -1.72347e-09 0 0.00392345 -1.73649e-09 0 0.00392345 -1.73649e-09
0 0.00392768 -1.75813e-09 0 0.00392768 -1.75813e-09 0 0.00393201 -1.77885e-09 0
0.00393201 -1.77885e-09 0 0.00393643 -1.79741e-09 0 0.00393643 -1.79741e-09 0 0.00394095
-1.81703e-09 0 0.00394095 -1.81703e-09 0 0.00394556 -1.83888e-09 0 0.00394556 -1.83888e-09
0 0.00395028 -1.86048e-09 0 0.00395028 -1.86048e-09 0 0.0039551 -1.87837e-09 0
0.0039551 -1.87837e-09 0 0.00396001 -1.89143e-09 0 0.00396001 -1.89143e-09 0 0.003965
-1.90278e-09 0 0.003965 -1.90278e-09 0 0.00397008 -1.91589e-09 0 0.00397008 -1.91589e-09
0 0.00397525 -1.93231e-09 0 0.00397525 -1.93231e-09 0 0.00398052 -1.95075e-09 0
0.00398052 -1.95075e-09 0 0.0039859 -1.96854e-09 0 0.0039859 -1.96854e-09 0 0.00399138
-1.98424e-09 0 0.00399138 -1.98424e-09 0 0.00399695 -1.99743e-09 0 0.00399695 -1.99743e-09
0 0.00400262 -2.00894e-09 0 0.00400262 -2.00894e-09 0 0.00400837 -2.01954e-09 0
0.00400837 -2.01954e-09 0 0.00401422 -2.029e-09 0 0.00401422 -2.029e-09 0 0.00402015
-2.03679e-09 0 0.00402015 -2.03679e-09 0 0.00402616 -2.04292e-09 0 0.00402616 -2.04292e-09
0 0.00403226 -2.04744e-09 0 0.00403226 -2.04744e-09 0 0.00403843 -2.05225e-09 0
0.00403843 -2.05225e-09 0 0.00404468 -2.05581e-09 0 0.00404468 -2.05581e-09 0 0.00405101
-2.03268e-09 0 0.00405101 -2.03268e-09 0 0.00405724 -1.97535e-09 0 0.00405724 -1.97535e-09
0 0.00406334 -1.92635e-09 0 0.00406334 -1.92635e-09 0 0.00406941 -1.9066e-09 0
0.00406941 -1.9066e-09 0 0.0040755 -1.90218e-09 0 0.0040755 -1.90218e-09 0 0.00408167
-1.90373e-09 0 0.00408167 -1.90373e-09 0 0.0040879 -1.90734e-09 0 0.0040879 -1.90734e-09
0 0.00409421 -1.91095e-09 0 0.00409421 -1.91095e-09 0 0.0041006 -1.91382e-09 0
0.0041006 -1.91382e-09 0 0.00410707 -1.91631e-09 0 0.00410707 -1.91631e-09 0 0.00411361
-1.91805e-09 0 0.00411361 -1.91805e-09 0 0.00412022 -1.91875e-09 0 0.00412022 -1.91875e-09
0 0.0041269 -1.91883e-09 0 0.0041269 -1.91883e-09 0 0.00413365 -1.91837e-09 0
0.00413365 -1.91837e-09 0 0.00414047 -1.91735e-09 0 0.00414047 -1.91735e-09 0 0.00414735
-1.91599e-09 0 0.00414735 -1.91599e-09 0 0.0041543 -1.91407e-09 0 0.0041543 -1.91407e-09
0 0.00416132 -1.9118e-09 0 0.00416132 -1.9118e-09 0 0.0041684 -1.90906e-09 0
0.0041684 -1.90906e-09 0 0.00417554 -1.90569e-09 0 0.00417554 -1.90569e-09 0 0.00418274
-1.90255e-09 0 0.00418274 -1.90255e-09 0 0.00419001 -1.89884e-09 0 0.00419001 -1.89884e-09
0 0.00419733 -1.89473e-09 0 0.00419733 -1.89473e-09 0 0.00420472 -1.89008e-09 0
0.00420472 -1.89008e-09 0 0.00421216 -1.88485e-09 0 0.00421216 -1.88485e-09 0 0.00421966
-1.87983e-09 0 0.00421966 -1.87983e-09 0 0.00422722 -1.87504e-09 0 0.00422722 -1.87504e-09
0 0.00423483 -1.85465e-09 0 0.00423483 -1.85465e-09 0 0.00424238 -1.80662e-09 0
0.00424238 -1.80662e-09 0 0.00424975 -1.75847e-09 0 0.00424975 -1.75847e-09 0 0.00425706
-1.73103e-09 0 0.00425706 -1.73103e-09 0 0.00426436 -1.71715e-09 0 0.00426436 -1.71715e-09
0 0.0042717 -1.70943e-09 0 0.0042717 -1.70943e-09 0 0.00427909 -1.70484e-09 0
0.00427909 -1.70484e-09 0 0.00428654 -1.70103e-09 0 0.00428654 -1.70103e-09 0 0.00429405
-1.69695e-09 0 0.00429405 -1.69695e-09 0 0.00430162 -1.69311e-09 0 0.00430162 -1.69311e-09
0 0.00430925 -1.68889e-09 0 0.00430925 -1.68889e-09 0 0.00431695 -1.68454e-09 0
0.00431695 -1.68454e-09 0 0.0043247 -1.68016e-09 0 0.0043247 -1.68016e-09 0 0.00433251
-1.67531e-09 0 0.00433251 -1.67531e-09 0 0.00434038 -1.67024e-09 0 0.00434038 -1.67024e-09
0 0.0043483 -1.66502e-09 0 0.0043483 -1.66502e-09 0 0.00435629 -1.65952e-09 0
0.00435629 -1.65952e-09 0 0.00436432 -1.6538e-09 0 0.00436432 -1.6538e-09 0 0.00437242
-1.64801e-09 0 0.00437242 -1.64801e-09 0 0.00438057 -1.64187e-09 0 0.00438057 -1.64187e-09
0 0.00438877 -1.63553e-09 0 0.00438877 -1.63553e-09 0 0.00439703 -1.629e-09 0
0.00439703 -1.629e-09 0 0.00440533 -1.62228e-09 0 0.00440533 -1.62228e-09 0 0.0044137
-1.61544e-09 0 0.0044137 -1.61544e-09 0 0.00442211 -1.60847e-09 0 0.00442211 -1.60847e-09
0 0.00443057 -1.60185e-09 0 0.00443057 -1.60185e-09 0 0.00443908 -1.58394e-09 0
0.00443908 -1.58394e-09 0 0.00444753 -1.54574e-09 0 0.00444753 -1.54574e-09 0 0.00445581
-1.50695e-09 0 0.00445581 -1.50695e-09 0 0.004464 -1.48314e-09 0 0.004464 -1.48314e-09
0 0.00447219 -1.46981e-09 0 0.00447219 -1.46981e-09 0 0.00448041 -1.46131e-09 0
0.00448041 -1.46131e-09 0 0.00448868 -1.45428e-09 0 0.00448868 -1.45428e-09 0 0.00449699
-1.44825e-09 0 0.00449699 -1.44825e-09 0 0.00450535 -1.4424e-09 0 0.00450535 -1.4424e-09
0 0.00451377 -1.43638e-09 0 0.00451377 -1.43638e-09 0 0.00452225 -1.4308e-09 0
0.00452225 -1.4308e-09 0 0.00453077 -1.42484e-09 0 0.00453077 -1.42484e-09 0 0.00453935
-1.41872e-09 0 0.00453935 -1.41872e-09 0 0.00454798 -1.41251e-09 0 0.00454798 -1.41251e-09
0 0.00455666 -1.40617e-09 0 0.00455666 -1.40617e-09 0 0.0045654 -1.39998e-09 0
0.0045654 -1.39998e-09 0 0.00457418 -1.39353e-09 0 0.00457418 -1.39353e-09 0 0.00458301
-1.38672e-09 0 0.00458301 -1.38672e-09 0 0.00459189 -1.37978e-09 0 0.00459189 -1.37978e-09
0 0.00460082 -1.37282e-09 0 0.00460082 -1.37282e-09 0 0.0046098 -1.36586e-09 0
0.0046098 -1.36586e-09 0 0.00461882 -1.35862e-09 0 0.00461882 -1.35862e-09 0 0.0046279
-1.35166e-09 0 0.0046279 -1.35166e-09 0 0.00463701 -1.34489e-09 0 0.00463701 -1.34489e-09
0 0.00464618 -1.33634e-09 0 0.00464618 -1.33634e-09 0 0.00465537 -1.31722e-09 0
0.00465537 -1.31722e-09 0 0.00466446 -1.28496e-09 0 0.00466446 -1.28496e-09 0 0.00467338
-1.25593e-09 0 0.00467338 -1.25593e-09 0 0.00468225 -1.23852e-09 0 0.00468225 -1.23852e-09
0 0.00469112 -1.22765e-09 0 0.00469112 -1.22765e-09 0 0.00470001 -1.21998e-09 0
0.00470001 -1.21998e-09 0 0.00470895 -1.21323e-09 0 0.00470895 -1.21323e-09 0 0.00471793
-1.20651e-09 0 0.00471793 -1.20651e-09 0 0.00472695 -1.20007e-09 0 0.00472695 -1.20007e-09
0 0.00473603 -1.19398e-09 0 0.00473603 -1.19398e-09 0 0.00474515 -1.18802e-09 0
0.00474515 -1.18802e-09 0 0.00475432 -1.18179e-09 0 0.00475432 -1.18179e-09 0 0.00476354
-1.17545e-09 0 0.00476354 -1.17545e-09 0 0.0047728 -1.16876e-09 0 0.0047728 -1.16876e-09
0 0.00478211 -1.16242e-09 0 0.00478211 -1.16242e-09 0 0.00479146 -1.15623e-09 0
0.00479146 -1.15623e-09 0 0.00480086 -1.14923e-09 0 0.00480086 -1.14923e-09 0 0.0048103
-1.14257e-09 0 0.0048103 -1.14257e-09 0 0.00481979 -1.13652e-09 0 0.00481979 -1.13652e-09
0 0.00482932 -1.13002e-09 0 0.00482932 -1.13002e-09 0 0.00483889 -1.12311e-09 0
0.00483889 -1.12311e-09 0 0.0048485 -1.11562e-09 0 0.0048485 -1.11562e-09 0 0.00485815
-1.10938e-09 0 0.00485815 -1.10938e-09 0 0.00486785 -1.09823e-09 0 0.00486785 -1.09823e-09
0 0.0048775 -1.07548e-09 0 0.0048775 -1.07548e-09 0 0.004887 -1.0489e-09 0
0.004887 -1.0489e-09 0 0.00489637 -1.03117e-09 0 0.00489637 -1.03117e-09 0 0.00490574
-1.01933e-09 0 0.00490574 -1.01933e-09 0 0.00491509 -1.01231e-09 0 0.00491509 -1.01231e-09
0 0.00492453 -1.00434e-09 0 0.00492453 -1.00434e-09 0 0.00493392 -9.99604e-10 0
0.00493392 -9.99604e-10 0 0.00494348 -9.9194e-10 0 0.00494348 -9.9194e-10 0 0.00495292
-9.87877e-10 0 0.00495292 -9.87877e-10 0 0.00496259 -9.80415e-10 0 0.00496259 -9.80415e-10
0 0.00497208 -9.75995e-10 0 0.00497208 -9.75995e-10 0 0.00498187 -9.69416e-10 0
0.00498187 -9.69416e-10 0 0.00499142 -9.63273e-10 0 0.00499142 -9.63273e-10 0 0.00500131
-9.58036e-10 0 0.00500131 -9.58036e-10 0 0.00501095 -9.50973e-10 0 0.00501095 -9.50973e-10
0 0.00502089 -9.47311e-10 0 0.00502089 -9.47311e-10 0 0.00503065 -9.37672e-10 0
0.00503065 -9.37672e-10 0 0.0050406 -9.37294e-10 0 0.0050406 -9.37294e-10 0 0.00505055
-9.22223e-10 0 0.00505055 -9.22223e-10 0 0.00506039 -9.31776e-10 0 0.00506039 -9.31776e-10
0 0.00507075 -8.94585e-10 0 0.00507075 -8.94585e-10 0 0.00507998 -9.4726e-10 0
0.00507998 -9.4726e-10 0 0.0110592 -1.53386e-09 0 0.0110592 -1.53386e-09 0 0.0170385
-2.00909e-09 0 0.0170385 -2.00909e-09 0 
