# vtk DataFile Version 2.0
sampleSurface
ASCII
DATASET POLYDATA
POINTS 1202 float
0 0 0 5.99825e-05 0 0 5.99825e-05 0 0.1 0 0
0.1 0.000120591 0 0 0.000120591 0 0.1 0.000181831 0 0
0.000181831 0 0.1 0.000243709 0 0 0.000243709 0 0.1 0.000306234
0 0 0.000306234 0 0.1 0.00036941 0 0 0.00036941 0
0.1 0.000433245 0 0 0.000433245 0 0.1 0.000497746 0 0
0.000497746 0 0.1 0.000562919 0 0 0.000562919 0 0.1 0.000628772
0 0 0.000628772 0 0.1 0.000695312 0 0 0.000695312 0
0.1 0.000762546 0 0 0.000762546 0 0.1 0.000830481 0 0
0.000830481 0 0.1 0.000899125 0 0 0.000899125 0 0.1 0.000968484
0 0 0.000968484 0 0.1 0.00103857 0 0 0.00103857 0
0.1 0.00110938 0 0 0.00110938 0 0.1 0.00118093 0 0
0.00118093 0 0.1 0.00125323 0 0 0.00125323 0 0.1 0.00132628
0 0 0.00132628 0 0.1 0.0014001 0 0 0.0014001 0
0.1 0.00147468 0 0 0.00147468 0 0.1 0.00155004 0 0
0.00155004 0 0.1 0.00162619 0 0 0.00162619 0 0.1 0.00170313
0 0 0.00170313 0 0.1 0.00178088 0 0 0.00178088 0
0.1 0.00185943 0 0 0.00185943 0 0.1 0.00193881 0 0
0.00193881 0 0.1 0.00201901 0 0 0.00201901 0 0.1 0.00210005
0 0 0.00210005 0 0.1 0.00218193 0 0 0.00218193 0
0.1 0.00226467 0 0 0.00226467 0 0.1 0.00234827 0 0
0.00234827 0 0.1 0.00243274 0 0 0.00243274 0 0.1 0.0025181
0 0 0.0025181 0 0.1 0.00260434 0 0 0.00260434 0
0.1 0.00269148 0 0 0.00269148 0 0.1 0.00277954 0 0
0.00277954 0 0.1 0.00286851 0 0 0.00286851 0 0.1 0.0029584
0 0 0.0029584 0 0.1 0.00304924 0 0 0.00304924 0
0.1 0.00314102 0 0 0.00314102 0 0.1 0.00323376 0 0
0.00323376 0 0.1 0.00332747 0 0 0.00332747 0 0.1 0.00342215
0 0 0.00342215 0 0.1 0.00351783 0 0 0.00351783 0
0.1 0.0036145 0 0 0.0036145 0 0.1 0.00371217 0 0
0.00371217 0 0.1 0.00381087 0 0 0.00381087 0 0.1 0.0039106
0 0 0.0039106 0 0.1 0.00401136 0 0 0.00401136 0
0.1 0.00411318 0 0 0.00411318 0 0.1 0.00421606 0 0
0.00421606 0 0.1 0.00432001 0 0 0.00432001 0 0.1 0.00442505
0 0 0.00442505 0 0.1 0.00453118 0 0 0.00453118 0
0.1 0.00463842 0 0 0.00463842 0 0.1 0.00474677 0 0
0.00474677 0 0.1 0.00485626 0 0 0.00485626 0 0.1 0.00496689
0 0 0.00496689 0 0.1 0.00507867 0 0 0.00507867 0
0.1 0.00519162 0 0 0.00519162 0 0.1 0.00530574 0 0
0.00530574 0 0.1 0.00542106 0 0 0.00542106 0 0.1 0.00553758
0 0 0.00553758 0 0.1 0.00565531 0 0 0.00565531 0
0.1 0.00577427 0 0 0.00577427 0 0.1 0.00589447 0 0
0.00589447 0 0.1 0.00601593 0 0 0.00601593 0 0.1 0.00613865
0 0 0.00613865 0 0.1 0.00626266 0 0 0.00626266 0
0.1 0.00638795 0 0 0.00638795 0 0.1 0.00651455 0 0
0.00651455 0 0.1 0.00664248 0 0 0.00664248 0 0.1 0.00677173
0 0 0.00677173 0 0.1 0.00690234 0 0 0.00690234 0
0.1 0.0070343 0 0 0.0070343 0 0.1 0.00716765 0 0
0.00716765 0 0.1 0.00730238 0 0 0.00730238 0 0.1 0.00743852
0 0 0.00743852 0 0.1 0.00757608 0 0 0.00757608 0
0.1 0.00771507 0 0 0.00771507 0 0.1 0.00785551 0 0
0.00785551 0 0.1 0.00799742 0 0 0.00799742 0 0.1 0.00814081
0 0 0.00814081 0 0.1 0.00828569 0 0 0.00828569 0
0.1 0.00843209 0 0 0.00843209 0 0.1 0.00858001 0 0
0.00858001 0 0.1 0.00872947 0 0 0.00872947 0 0.1 0.00888049
0 0 0.00888049 0 0.1 0.00903309 0 0 0.00903309 0
0.1 0.00918728 0 0 0.00918728 0 0.1 0.00934307 0 0
0.00934307 0 0.1 0.00950049 0 0 0.00950049 0 0.1 0.00965956
0 0 0.00965956 0 0.1 0.00982028 0 0 0.00982028 0
0.1 0.00998268 0 0 0.00998268 0 0.1 0.0101468 0 0
0.0101468 0 0.1 0.0103126 0 0 0.0103126 0 0.1 0.0104801
0 0 0.0104801 0 0.1 0.0106494 0 0 0.0106494 0
0.1 0.0108204 0 0 0.0108204 0 0.1 0.0109933 0 0
0.0109933 0 0.1 0.0111679 0 0 0.0111679 0 0.1 0.0113443
0 0 0.0113443 0 0.1 0.0115226 0 0 0.0115226 0
0.1 0.0117028 0 0 0.0117028 0 0.1 0.0118848 0 0
0.0118848 0 0.1 0.0120687 0 0 0.0120687 0 0.1 0.0122546
0 0 0.0122546 0 0.1 0.0124424 0 0 0.0124424 0
0.1 0.0126321 0 0 0.0126321 0 0.1 0.0128238 0 0
0.0128238 0 0.1 0.0130176 0 0 0.0130176 0 0.1 0.0132133
0 0 0.0132133 0 0.1 0.0134111 0 0 0.0134111 0
0.1 0.0136109 0 0 0.0136109 0 0.1 0.0138129 0 0
0.0138129 0 0.1 0.0140169 0 0 0.0140169 0 0.1 0.0142231
0 0 0.0142231 0 0.1 0.0144314 0 0 0.0144314 0
0.1 0.0146419 0 0 0.0146419 0 0.1 0.0148546 0 0
0.0148546 0 0.1 0.0150695 0 0 0.0150695 0 0.1 0.0152866
0 0 0.0152866 0 0.1 0.015506 0 0 0.015506 0
0.1 0.0157277 0 0 0.0157277 0 0.1 0.0159517 0 0
0.0159517 0 0.1 0.016178 0 0 0.016178 0 0.1 0.0164067
0 0 0.0164067 0 0.1 0.0166378 0 0 0.0166378 0
0.1 0.0168713 0 0 0.0168713 0 0.1 0.0171073 0 0
0.0171073 0 0.1 0.0173457 0 0 0.0173457 0 0.1 0.0175865
0 0 0.0175865 0 0.1 0.0178299 0 0 0.0178299 0
0.1 0.0180759 0 0 0.0180759 0 0.1 0.0183244 0 0
0.0183244 0 0.1 0.0185754 0 0 0.0185754 0 0.1 0.0188291
0 0 0.0188291 0 0.1 0.0190855 0 0 0.0190855 0
0.1 0.0193445 0 0 0.0193445 0 0.1 0.0196063 0 0
0.0196063 0 0.1 0.0198707 0 0 0.0198707 0 0.1 0.0201379
0 0 0.0201379 0 0.1 0.0204079 0 0 0.0204079 0
0.1 0.0206807 0 0 0.0206807 0 0.1 0.0209564 0 0
0.0209564 0 0.1 0.0212349 0 0 0.0212349 0 0.1 0.0215164
0 0 0.0215164 0 0.1 0.0218008 0 0 0.0218008 0
0.1 0.0220881 0 0 0.0220881 0 0.1 0.0223784 0 0
0.0223784 0 0.1 0.0226718 0 0 0.0226718 0 0.1 0.0229682
0 0 0.0229682 0 0.1 0.0232677 0 0 0.0232677 0
0.1 0.0235704 0 0 0.0235704 0 0.1 0.0238762 0 0
0.0238762 0 0.1 0.0241852 0 0 0.0241852 0 0.1 0.0244974
0 0 0.0244974 0 0.1 0.0248128 0 0 0.0248128 0
0.1 0.0251316 0 0 0.0251316 0 0.1 0.0254537 0 0
0.0254537 0 0.1 0.0257791 0 0 0.0257791 0 0.1 0.0261079
0 0 0.0261079 0 0.1 0.0264402 0 0 0.0264402 0
0.1 0.0267759 0 0 0.0267759 0 0.1 0.0271152 0 0
0.0271152 0 0.1 0.0274579 0 0 0.0274579 0 0.1 0.0278043
0 0 0.0278043 0 0.1 0.0281542 0 0 0.0281542 0
0.1 0.0285078 0 0 0.0285078 0 0.1 0.0288651 0 0
0.0288651 0 0.1 0.0292261 0 0 0.0292261 0 0.1 0.0295909
0 0 0.0295909 0 0.1 0.0299595 0 0 0.0299595 0
0.1 0.0303319 0 0 0.0303319 0 0.1 0.0307082 0 0
0.0307082 0 0.1 0.0310885 0 0 0.0310885 0 0.1 0.0314727
0 0 0.0314727 0 0.1 0.0318609 0 0 0.0318609 0
0.1 0.0322532 0 0 0.0322532 0 0.1 0.0326495 0 0
0.0326495 0 0.1 0.03305 0 0 0.03305 0 0.1 0.0334546
0 0 0.0334546 0 0.1 0.0338635 0 0 0.0338635 0
0.1 0.0342767 0 0 0.0342767 0 0.1 0.0346941 0 0
0.0346941 0 0.1 0.0351159 0 0 0.0351159 0 0.1 0.0355421
0 0 0.0355421 0 0.1 0.0359728 0 0 0.0359728 0
0.1 0.0364079 0 0 0.0364079 0 0.1 0.0368476 0 0
0.0368476 0 0.1 0.0372919 0 0 0.0372919 0 0.1 0.0377408
0 0 0.0377408 0 0.1 0.0381944 0 0 0.0381944 0
0.1 0.0386527 0 0 0.0386527 0 0.1 0.0391158 0 0
0.0391158 0 0.1 0.0395837 0 0 0.0395837 0 0.1 0.0400565
0 0 0.0400565 0 0.1 0.0405342 0 0 0.0405342 0
0.1 0.0410169 0 0 0.0410169 0 0.1 0.0415047 0 0
0.0415047 0 0.1 0.0419975 0 0 0.0419975 0 0.1 0.0424955
0 0 0.0424955 0 0.1 0.0429986 0 0 0.0429986 0
0.1 0.0435071 0 0 0.0435071 0 0.1 0.0440208 0 0
0.0440208 0 0.1 0.0445398 0 0 0.0445398 0 0.1 0.0450643
0 0 0.0450643 0 0.1 0.0455943 0 0 0.0455943 0
0.1 0.0461298 0 0 0.0461298 0 0.1 0.0466708 0 0
0.0466708 0 0.1 0.0472176 0 0 0.0472176 0 0.1 0.04777
0 0 0.04777 0 0.1 0.0483281 0 0 0.0483281 0
0.1 0.0488921 0 0 0.0488921 0 0.1 0.049462 0 0
0.049462 0 0.1 0.0500378 0 0 0.0500378 0 0.1 0.0506197
0 0 0.0506197 0 0.1 0.0512076 0 0 0.0512076 0
0.1 0.0518016 0 0 0.0518016 0 0.1 0.0524018 0 0
0.0524018 0 0.1 0.0530083 0 0 0.0530083 0 0.1 0.0536211
0 0 0.0536211 0 0.1 0.0542403 0 0 0.0542403 0
0.1 0.0548659 0 0 0.0548659 0 0.1 0.0554981 0 0
0.0554981 0 0.1 0.0561369 0 0 0.0561369 0 0.1 0.0567823
0 0 0.0567823 0 0.1 0.0574345 0 0 0.0574345 0
0.1 0.0580934 0 0 0.0580934 0 0.1 0.0587593 0 0
0.0587593 0 0.1 0.0594321 0 0 0.0594321 0 0.1 0.0601119
0 0 0.0601119 0 0.1 0.0607987 0 0 0.0607987 0
0.1 0.0614928 0 0 0.0614928 0 0.1 0.0621941 0 0
0.0621941 0 0.1 0.0629027 0 0 0.0629027 0 0.1 0.0636187
0 0 0.0636187 0 0.1 0.0643421 0 0 0.0643421 0
0.1 0.0650732 0 0 0.0650732 0 0.1 0.0658118 0 0
0.0658118 0 0.1 0.0665581 0 0 0.0665581 0 0.1 0.0673122
0 0 0.0673122 0 0.1 0.0680742 0 0 0.0680742 0
0.1 0.0688441 0 0 0.0688441 0 0.1 0.0696221 0 0
0.0696221 0 0.1 0.0704082 0 0 0.0704082 0 0.1 0.0712024
0 0 0.0712024 0 0.1 0.072005 0 0 0.072005 0
0.1 0.0728159 0 0 0.0728159 0 0.1 0.0736353 0 0
0.0736353 0 0.1 0.0744632 0 0 0.0744632 0 0.1 0.0752998
0 0 0.0752998 0 0.1 0.076145 0 0 0.076145 0
0.1 0.0769991 0 0 0.0769991 0 0.1 0.0778621 0 0
0.0778621 0 0.1 0.0787342 0 0 0.0787342 0 0.1 0.0796153
0 0 0.0796153 0 0.1 0.0805055 0 0 0.0805055 0
0.1 0.0814051 0 0 0.0814051 0 0.1 0.0823141 0 0
0.0823141 0 0.1 0.0832325 0 0 0.0832325 0 0.1 0.0841605
0 0 0.0841605 0 0.1 0.0850982 0 0 0.0850982 0
0.1 0.0860457 0 0 0.0860457 0 0.1 0.087003 0 0
0.087003 0 0.1 0.0879704 0 0 0.0879704 0 0.1 0.0889478
0 0 0.0889478 0 0.1 0.0899354 0 0 0.0899354 0
0.1 0.0909333 0 0 0.0909333 0 0.1 0.0919416 0 0
0.0919416 0 0.1 0.0929605 0 0 0.0929605 0 0.1 0.0939899
0 0 0.0939899 0 0.1 0.0950302 0 0 0.0950302 0
0.1 0.0960812 0 0 0.0960812 0 0.1 0.0971432 0 0
0.0971432 0 0.1 0.0982163 0 0 0.0982163 0 0.1 0.0993006
0 0 0.0993006 0 0.1 0.100396 0 0 0.100396 0
0.1 0.101503 0 0 0.101503 0 0.1 0.102622 0 0
0.102622 0 0.1 0.103752 0 0 0.103752 0 0.1 0.104894
0 0 0.104894 0 0.1 0.106048 0 0 0.106048 0
0.1 0.107214 0 0 0.107214 0 0.1 0.108392 0 0
0.108392 0 0.1 0.109582 0 0 0.109582 0 0.1 0.110785
0 0 0.110785 0 0.1 0.112001 0 0 0.112001 0
0.1 0.113229 0 0 0.113229 0 0.1 0.114469 0 0
0.114469 0 0.1 0.115723 0 0 0.115723 0 0.1 0.11699
0 0 0.11699 0 0.1 0.11827 0 0 0.11827 0
0.1 0.119564 0 0 0.119564 0 0.1 0.12087 0 0
0.12087 0 0.1 0.122191 0 0 0.122191 0 0.1 0.123525
0 0 0.123525 0 0.1 0.124873 0 0 0.124873 0
0.1 0.126236 0 0 0.126236 0 0.1 0.127612 0 0
0.127612 0 0.1 0.129003 0 0 0.129003 0 0.1 0.130408
0 0 0.130408 0 0.1 0.131828 0 0 0.131828 0
0.1 0.133263 0 0 0.133263 0 0.1 0.134713 0 0
0.134713 0 0.1 0.136178 0 0 0.136178 0 0.1 0.137658
0 0 0.137658 0 0.1 0.139154 0 0 0.139154 0
0.1 0.140665 0 0 0.140665 0 0.1 0.142192 0 0
0.142192 0 0.1 0.143735 0 0 0.143735 0 0.1 0.145294
0 0 0.145294 0 0.1 0.146869 0 0 0.146869 0
0.1 0.148461 0 0 0.148461 0 0.1 0.150069 0 0
0.150069 0 0.1 0.151694 0 0 0.151694 0 0.1 0.153336
0 0 0.153336 0 0.1 0.154995 0 0 0.154995 0
0.1 0.156672 0 0 0.156672 0 0.1 0.158366 0 0
0.158366 0 0.1 0.160077 0 0 0.160077 0 0.1 0.161807
0 0 0.161807 0 0.1 0.163554 0 0 0.163554 0
0.1 0.16532 0 0 0.16532 0 0.1 0.167104 0 0
0.167104 0 0.1 0.168907 0 0 0.168907 0 0.1 0.170728
0 0 0.170728 0 0.1 0.172569 0 0 0.172569 0
0.1 0.174428 0 0 0.174428 0 0.1 0.176307 0 0
0.176307 0 0.1 0.178206 0 0 0.178206 0 0.1 0.180124
0 0 0.180124 0 0.1 0.182063 0 0 0.182063 0
0.1 0.184022 0 0 0.184022 0 0.1 0.186001 0 0
0.186001 0 0.1 0.188001 0 0 0.188001 0 0.1 0.190021
0 0 0.190021 0 0.1 0.192063 0 0 0.192063 0
0.1 0.194126 0 0 0.194126 0 0.1 0.19621 0 0
0.19621 0 0.1 0.198317 0 0 0.198317 0 0.1 0.200445
0 0 0.200445 0 0.1 0.202595 0 0 0.202595 0
0.1 0.204768 0 0 0.204768 0 0.1 0.206964 0 0
0.206964 0 0.1 0.209182 0 0 0.209182 0 0.1 0.211424
0 0 0.211424 0 0.1 0.213689 0 0 0.213689 0
0.1 0.215977 0 0 0.215977 0 0.1 0.21829 0 0
0.21829 0 0.1 0.220626 0 0 0.220626 0 0.1 0.222987
0 0 0.222987 0 0.1 0.225372 0 0 0.225372 0
0.1 0.227783 0 0 0.227783 0 0.1 0.230218 0 0
0.230218 0 0.1 0.232679 0 0 0.232679 0 0.1 0.235166
0 0 0.235166 0 0.1 0.237678 0 0 0.237678 0
0.1 0.240217 0 0 0.240217 0 0.1 0.242782 0 0
0.242782 0 0.1 0.245374 0 0 0.245374 0 0.1 0.247993
0 0 0.247993 0 0.1 0.25064 0 0 0.25064 0
0.1 0.253313 0 0 0.253313 0 0.1 0.256015 0 0
0.256015 0 0.1 0.258745 0 0 0.258745 0 0.1 0.261504
0 0 0.261504 0 0.1 0.264291 0 0 0.264291 0
0.1 0.267107 0 0 0.267107 0 0.1 0.269953 0 0
0.269953 0 0.1 0.272828 0 0 0.272828 0 0.1 0.275733
0 0 0.275733 0 0.1 0.278669 0 0 0.278669 0
0.1 0.281635 0 0 0.281635 0 0.1 0.284632 0 0
0.284632 0 0.1 0.287661 0 0 0.287661 0 0.1 0.290721
0 0 0.290721 0 0.1 0.293813 0 0 0.293813 0
0.1 0.296937 0 0 0.296937 0 0.1 0.300093 0 0
0.300093 0 0.1 0.303283 0 0 0.303283 0 0.1 0.306506
0 0 0.306506 0 0.1 0.309763 0 0 0.309763 0
0.1 0.313053 0 0 0.313053 0 0.1 0.316378 0 0
0.316378 0 0.1 0.319737 0 0 0.319737 0 0.1 0.323132
0 0 0.323132 0 0.1 0.326562 0 0 0.326562 0
0.1 0.330027 0 0 0.330027 0 0.1 0.333529 0 0
0.333529 0 0.1 0.337068 0 0 0.337068 0 0.1 0.340643
0 0 0.340643 0 0.1 0.344255 0 0 0.344255 0
0.1 0.347906 0 0 0.347906 0 0.1 0.351594 0 0
0.351594 0 0.1 0.355321 0 0 0.355321 0 0.1 0.359086
0 0 0.359086 0 0.1 0.362891 0 0 0.362891 0
0.1 0.366736 0 0 0.366736 0 0.1 0.37062 0 0
0.37062 0 0.1 0.374546 0 0 0.374546 0 0.1 0.378512
0 0 0.378512 0 0.1 0.382519 0 0 0.382519 0
0.1 0.386568 0 0 0.386568 0 0.1 0.39066 0 0
0.39066 0 0.1 0.394794 0 0 0.394794 0 0.1 0.398971
0 0 0.398971 0 0.1 0.403192 0 0 0.403192 0
0.1 0.407457 0 0 0.407457 0 0.1 0.411766 0 0
0.411766 0 0.1 0.416121 0 0 0.416121 0 0.1 0.42052
0 0 0.42052 0 0.1 0.424966 0 0 0.424966 0
0.1 0.429458 0 0 0.429458 0 0.1 0.433997 0 0
0.433997 0 0.1 0.438583 0 0 0.438583 0 0.1 0.443217
0 0 0.443217 0 0.1 0.447899 0 0 0.447899 0
0.1 0.45263 0 0 0.45263 0 0.1 0.457411 0 0
0.457411 0 0.1 0.462241 0 0 0.462241 0 0.1 0.467122
0 0 0.467122 0 0.1 0.472053 0 0 0.472053 0
0.1 0.477036 0 0 0.477036 0 0.1 0.482071 0 0
0.482071 0 0.1 0.487159 0 0 0.487159 0 0.1 0.492299
0 0 0.492299 0 0.1 0.497493 0 0 0.497493 0
0.1 0.502742 0 0 0.502742 0 0.1 0.508045 0 0
0.508045 0 0.1 0.513403 0 0 0.513403 0 0.1 0.518817
0 0 0.518817 0 0.1 0.524288 0 0 0.524288 0
0.1 0.529816 0 0 0.529816 0 0.1 0.535401 0 0
0.535401 0 0.1 0.541045 0 0 0.541045 0 0.1 0.546748
0 0 0.546748 0 0.1 0.55251 0 0 0.55251 0
0.1 0.558332 0 0 0.558332 0 0.1 0.564215 0 0
0.564215 0 0.1 0.570159 0 0 0.570159 0 0.1 0.576165
0 0 0.576165 0 0.1 0.582234 0 0 0.582234 0
0.1 0.588366 0 0 0.588366 0 0.1 0.594562 0 0
0.594562 0 0.1 0.600822 0 0 0.600822 0 0.1 0.607148
0 0 0.607148 0 0.1 0.61354 0 0 0.61354 0
0.1 0.619999 0 0 0.619999 0 0.1 0.626525 0 0
0.626525 0 0.1 0.633119 0 0 0.633119 0 0.1 0.639782
0 0 0.639782 0 0.1 0.646514 0 0 0.646514 0
0.1 0.653316 0 0 0.653316 0 0.1 0.66019 0 0
0.66019 0 0.1 0.667135 0 0 0.667135 0 0.1 0.674152
0 0 0.674152 0 0.1 0.681243 0 0 0.681243 0
0.1 0.688408 0 0 0.688408 0 0.1 0.695647 0 0
0.695647 0 0.1 0.702962 0 0 0.702962 0 0.1 0.710353
0 0 0.710353 0 0.1 0.717821 0 0 0.717821 0
0.1 0.725367 0 0 0.725367 0 0.1 0.732992 0 0
0.732992 0 0.1 0.740697 0 0 0.740697 0 0.1 0.748481
0 0 0.748481 0 0.1 0.756347 0 0 0.756347 0
0.1 0.764295 0 0 0.764295 0 0.1 0.772326 0 0
0.772326 0 0.1 0.78044 0 0 0.78044 0 0.1 0.78864
0 0 0.78864 0 0.1 0.796924 0 0 0.796924 0
0.1 0.805295 0 0 0.805295 0 0.1 0.813754 0 0
0.813754 0 0.1 0.8223 0 0 0.8223 0 0.1 0.830936
0 0 0.830936 0 0.1 0.839662 0 0 0.839662 0
0.1 0.848479 0 0 0.848479 0 0.1 0.857387 0 0
0.857387 0 0.1 0.866389 0 0 0.866389 0 0.1 0.875485
0 0 0.875485 0 0.1 0.884675 0 0 0.884675 0
0.1 0.893961 0 0 0.893961 0 0.1 0.903344 0 0
0.903344 0 0.1 0.912825 0 0 0.912825 0 0.1 0.922405
0 0 0.922405 0 0.1 0.932085 0 0 0.932085 0
0.1 0.941865 0 0 0.941865 0 0.1 0.951748 0 0
0.951748 0 0.1 0.961734 0 0 0.961734 0 0.1 0.971824
0 0 0.971824 0 0.1 0.982019 0 0 0.982019 0
0.1 0.99232 0 0 0.99232 0 0.1 1.00273 0 0
1.00273 0 0.1 1.01325 0 0 1.01325 0 0.1 1.02387
0 0 1.02387 0 0.1 1.03461 0 0 1.03461 0
0.1 1.04546 0 0 1.04546 0 0.1 1.05642 0 0
1.05642 0 0.1 1.0675 0 0 1.0675 0 0.1 1.07869
0 0 1.07869 0 0.1 1.09 0 0 1.09 0
0.1 1.10143 0 0 1.10143 0 0.1 1.11298 0 0
1.11298 0 0.1 1.12465 0 0 1.12465 0 0.1 1.13644
0 0 1.13644 0 0.1 1.14835 0 0 1.14835 0
0.1 1.16038 0 0 1.16038 0 0.1 1.17254 0 0
1.17254 0 0.1 1.18483 0 0 1.18483 0 0.1 1.19725
0 0 1.19725 0 0.1 1.2098 0 0 1.2098 0
0.1 1.22247 0 0 1.22247 0 0.1 1.23528 0 0
1.23528 0 0.1 1.24822 0 0 1.24822 0 0.1 1.2613
0 0 1.2613 0 0.1 1.27452 0 0 1.27452 0
0.1 1.28787 0 0 1.28787 0 0.1 1.30136 0 0
1.30136 0 0.1 1.31499 0 0 1.31499 0 0.1 1.32877
0 0 1.32877 0 0.1 1.34268 0 0 1.34268 0
0.1 1.35675 0 0 1.35675 0 0.1 1.37095 0 0
1.37095 0 0.1 1.38531 0 0 1.38531 0 0.1 1.39982
0 0 1.39982 0 0.1 1.41448 0 0 1.41448 0
0.1 1.42929 0 0 1.42929 0 0.1 1.44426 0 0
1.44426 0 0.1 1.45938 0 0 1.45938 0 0.1 1.47466
0 0 1.47466 0 0.1 1.4901 0 0 1.4901 0
0.1 1.5057 0 0 1.5057 0 0.1 1.52146 0 0
1.52146 0 0.1 1.53739 0 0 1.53739 0 0.1 1.55348
0 0 1.55348 0 0.1 1.56974 0 0 1.56974 0
0.1 1.58617 0 0 1.58617 0 0.1 1.60278 0 0
1.60278 0 0.1 1.61955 0 0 1.61955 0 0.1 1.6365
0 0 1.6365 0 0.1 1.65363 0 0 1.65363 0
0.1 1.67093 0 0 1.67093 0 0.1 1.68842 0 0
1.68842 0 0.1 1.70609 0 0 1.70609 0 0.1 1.72394
0 0 1.72394 0 0.1 1.74198 0 0 1.74198 0
0.1 1.76021 0 0 1.76021 0 0.1 1.77862 0 0
1.77862 0 0.1 1.79723 0 0 1.79723 0 0.1 1.81604
0 0 1.81604 0 0.1 1.83504 0 0 1.83504 0
0.1 1.85423 0 0 1.85423 0 0.1 1.87363 0 0
1.87363 0 0.1 1.89323 0 0 1.89323 0 0.1 1.91304
0 0 1.91304 0 0.1 1.93305 0 0 1.93305 0
0.1 1.95327 0 0 1.95327 0 0.1 1.9737 0 0
1.9737 0 0.1 1.99434 0 0 1.99434 0 0.1 2.0152
0 0 2.0152 0 0.1 2.03628 0 0 2.03628 0
0.1 2.05757 0 0 2.05757 0 0.1 2.07909 0 0
2.07909 0 0.1 2.10083 0 0 2.10083 0 0.1 2.1228
0 0 2.1228 0 0.1 2.145 0 0 2.145 0
0.1 2.16743 0 0 2.16743 0 0.1 2.1901 0 0
2.1901 0 0.1 2.213 0 0 2.213 0 0.1 2.23614
0 0 2.23614 0 0.1 2.25952 0 0 2.25952 0
0.1 2.28314 0 0 2.28314 0 0.1 2.30701 0 0
2.30701 0 0.1 2.33113 0 0 2.33113 0 0.1 2.3555
0 0 2.3555 0 0.1 2.38013 0 0 2.38013 0
0.1 2.40501 0 0 2.40501 0 0.1 2.43015 0 0
2.43015 0 0.1 2.45556 0 0 2.45556 0 0.1 2.48122
0 0 2.48122 0 0.1 2.50716 0 0 2.50716 0
0.1 2.53337 0 0 2.53337 0 0.1 2.55985 0 0
2.55985 0 0.1 2.58661 0 0 2.58661 0 0.1 2.61364
0 0 2.61364 0 0.1 2.64096 0 0 2.64096 0
0.1 2.66856 0 0 2.66856 0 0.1 2.69645 0 0
2.69645 0 0.1 2.72463 0 0 2.72463 0 0.1 2.75311
0 0 2.75311 0 0.1 2.78188 0 0 2.78188 0
0.1 2.81095 0 0 2.81095 0 0.1 2.84033 0 0
2.84033 0 0.1 2.87001 0 0 2.87001 0 0.1 2.9
0 0 2.9 0 0.1 
POLYGONS 600 3000
4 0 1 2 3 4 1 4 5 2 4
4 6 7 5 4 6 8 9 7 4
8 10 11 9 4 10 12 13 11 4
12 14 15 13 4 14 16 17 15 4
16 18 19 17 4 18 20 21 19 4
20 22 23 21 4 22 24 25 23 4
24 26 27 25 4 26 28 29 27 4
28 30 31 29 4 30 32 33 31 4
32 34 35 33 4 34 36 37 35 4
36 38 39 37 4 38 40 41 39 4
40 42 43 41 4 42 44 45 43 4
44 46 47 45 4 46 48 49 47 4
48 50 51 49 4 50 52 53 51 4
52 54 55 53 4 54 56 57 55 4
56 58 59 57 4 58 60 61 59 4
60 62 63 61 4 62 64 65 63 4
64 66 67 65 4 66 68 69 67 4
68 70 71 69 4 70 72 73 71 4
72 74 75 73 4 74 76 77 75 4
76 78 79 77 4 78 80 81 79 4
80 82 83 81 4 82 84 85 83 4
84 86 87 85 4 86 88 89 87 4
88 90 91 89 4 90 92 93 91 4
92 94 95 93 4 94 96 97 95 4
96 98 99 97 4 98 100 101 99 4
100 102 103 101 4 102 104 105 103 4
104 106 107 105 4 106 108 109 107 4
108 110 111 109 4 110 112 113 111 4
112 114 115 113 4 114 116 117 115 4
116 118 119 117 4 118 120 121 119 4
120 122 123 121 4 122 124 125 123 4
124 126 127 125 4 126 128 129 127 4
128 130 131 129 4 130 132 133 131 4
132 134 135 133 4 134 136 137 135 4
136 138 139 137 4 138 140 141 139 4
140 142 143 141 4 142 144 145 143 4
144 146 147 145 4 146 148 149 147 4
148 150 151 149 4 150 152 153 151 4
152 154 155 153 4 154 156 157 155 4
156 158 159 157 4 158 160 161 159 4
160 162 163 161 4 162 164 165 163 4
164 166 167 165 4 166 168 169 167 4
168 170 171 169 4 170 172 173 171 4
172 174 175 173 4 174 176 177 175 4
176 178 179 177 4 178 180 181 179 4
180 182 183 181 4 182 184 185 183 4
184 186 187 185 4 186 188 189 187 4
188 190 191 189 4 190 192 193 191 4
192 194 195 193 4 194 196 197 195 4
196 198 199 197 4 198 200 201 199 4
200 202 203 201 4 202 204 205 203 4
204 206 207 205 4 206 208 209 207 4
208 210 211 209 4 210 212 213 211 4
212 214 215 213 4 214 216 217 215 4
216 218 219 217 4 218 220 221 219 4
220 222 223 221 4 222 224 225 223 4
224 226 227 225 4 226 228 229 227 4
228 230 231 229 4 230 232 233 231 4
232 234 235 233 4 234 236 237 235 4
236 238 239 237 4 238 240 241 239 4
240 242 243 241 4 242 244 245 243 4
244 246 247 245 4 246 248 249 247 4
248 250 251 249 4 250 252 253 251 4
252 254 255 253 4 254 256 257 255 4
256 258 259 257 4 258 260 261 259 4
260 262 263 261 4 262 264 265 263 4
264 266 267 265 4 266 268 269 267 4
268 270 271 269 4 270 272 273 271 4
272 274 275 273 4 274 276 277 275 4
276 278 279 277 4 278 280 281 279 4
280 282 283 281 4 282 284 285 283 4
284 286 287 285 4 286 288 289 287 4
288 290 291 289 4 290 292 293 291 4
292 294 295 293 4 294 296 297 295 4
296 298 299 297 4 298 300 301 299 4
300 302 303 301 4 302 304 305 303 4
304 306 307 305 4 306 308 309 307 4
308 310 311 309 4 310 312 313 311 4
312 314 315 313 4 314 316 317 315 4
316 318 319 317 4 318 320 321 319 4
320 322 323 321 4 322 324 325 323 4
324 326 327 325 4 326 328 329 327 4
328 330 331 329 4 330 332 333 331 4
332 334 335 333 4 334 336 337 335 4
336 338 339 337 4 338 340 341 339 4
340 342 343 341 4 342 344 345 343 4
344 346 347 345 4 346 348 349 347 4
348 350 351 349 4 350 352 353 351 4
352 354 355 353 4 354 356 357 355 4
356 358 359 357 4 358 360 361 359 4
360 362 363 361 4 362 364 365 363 4
364 366 367 365 4 366 368 369 367 4
368 370 371 369 4 370 372 373 371 4
372 374 375 373 4 374 376 377 375 4
376 378 379 377 4 378 380 381 379 4
380 382 383 381 4 382 384 385 383 4
384 386 387 385 4 386 388 389 387 4
388 390 391 389 4 390 392 393 391 4
392 394 395 393 4 394 396 397 395 4
396 398 399 397 4 398 400 401 399 4
400 402 403 401 4 402 404 405 403 4
404 406 407 405 4 406 408 409 407 4
408 410 411 409 4 410 412 413 411 4
412 414 415 413 4 414 416 417 415 4
416 418 419 417 4 418 420 421 419 4
420 422 423 421 4 422 424 425 423 4
424 426 427 425 4 426 428 429 427 4
428 430 431 429 4 430 432 433 431 4
432 434 435 433 4 434 436 437 435 4
436 438 439 437 4 438 440 441 439 4
440 442 443 441 4 442 444 445 443 4
444 446 447 445 4 446 448 449 447 4
448 450 451 449 4 450 452 453 451 4
452 454 455 453 4 454 456 457 455 4
456 458 459 457 4 458 460 461 459 4
460 462 463 461 4 462 464 465 463 4
464 466 467 465 4 466 468 469 467 4
468 470 471 469 4 470 472 473 471 4
472 474 475 473 4 474 476 477 475 4
476 478 479 477 4 478 480 481 479 4
480 482 483 481 4 482 484 485 483 4
484 486 487 485 4 486 488 489 487 4
488 490 491 489 4 490 492 493 491 4
492 494 495 493 4 494 496 497 495 4
496 498 499 497 4 498 500 501 499 4
500 502 503 501 4 502 504 505 503 4
504 506 507 505 4 506 508 509 507 4
508 510 511 509 4 510 512 513 511 4
512 514 515 513 4 514 516 517 515 4
516 518 519 517 4 518 520 521 519 4
520 522 523 521 4 522 524 525 523 4
524 526 527 525 4 526 528 529 527 4
528 530 531 529 4 530 532 533 531 4
532 534 535 533 4 534 536 537 535 4
536 538 539 537 4 538 540 541 539 4
540 542 543 541 4 542 544 545 543 4
544 546 547 545 4 546 548 549 547 4
548 550 551 549 4 550 552 553 551 4
552 554 555 553 4 554 556 557 555 4
556 558 559 557 4 558 560 561 559 4
560 562 563 561 4 562 564 565 563 4
564 566 567 565 4 566 568 569 567 4
568 570 571 569 4 570 572 573 571 4
572 574 575 573 4 574 576 577 575 4
576 578 579 577 4 578 580 581 579 4
580 582 583 581 4 582 584 585 583 4
584 586 587 585 4 586 588 589 587 4
588 590 591 589 4 590 592 593 591 4
592 594 595 593 4 594 596 597 595 4
596 598 599 597 4 598 600 601 599 4
600 602 603 601 4 602 604 605 603 4
604 606 607 605 4 606 608 609 607 4
608 610 611 609 4 610 612 613 611 4
612 614 615 613 4 614 616 617 615 4
616 618 619 617 4 618 620 621 619 4
620 622 623 621 4 622 624 625 623 4
624 626 627 625 4 626 628 629 627 4
628 630 631 629 4 630 632 633 631 4
632 634 635 633 4 634 636 637 635 4
636 638 639 637 4 638 640 641 639 4
640 642 643 641 4 642 644 645 643 4
644 646 647 645 4 646 648 649 647 4
648 650 651 649 4 650 652 653 651 4
652 654 655 653 4 654 656 657 655 4
656 658 659 657 4 658 660 661 659 4
660 662 663 661 4 662 664 665 663 4
664 666 667 665 4 666 668 669 667 4
668 670 671 669 4 670 672 673 671 4
672 674 675 673 4 674 676 677 675 4
676 678 679 677 4 678 680 681 679 4
680 682 683 681 4 682 684 685 683 4
684 686 687 685 4 686 688 689 687 4
688 690 691 689 4 690 692 693 691 4
692 694 695 693 4 694 696 697 695 4
696 698 699 697 4 698 700 701 699 4
700 702 703 701 4 702 704 705 703 4
704 706 707 705 4 706 708 709 707 4
708 710 711 709 4 710 712 713 711 4
712 714 715 713 4 714 716 717 715 4
716 718 719 717 4 718 720 721 719 4
720 722 723 721 4 722 724 725 723 4
724 726 727 725 4 726 728 729 727 4
728 730 731 729 4 730 732 733 731 4
732 734 735 733 4 734 736 737 735 4
736 738 739 737 4 738 740 741 739 4
740 742 743 741 4 742 744 745 743 4
744 746 747 745 4 746 748 749 747 4
748 750 751 749 4 750 752 753 751 4
752 754 755 753 4 754 756 757 755 4
756 758 759 757 4 758 760 761 759 4
760 762 763 761 4 762 764 765 763 4
764 766 767 765 4 766 768 769 767 4
768 770 771 769 4 770 772 773 771 4
772 774 775 773 4 774 776 777 775 4
776 778 779 777 4 778 780 781 779 4
780 782 783 781 4 782 784 785 783 4
784 786 787 785 4 786 788 789 787 4
788 790 791 789 4 790 792 793 791 4
792 794 795 793 4 794 796 797 795 4
796 798 799 797 4 798 800 801 799 4
800 802 803 801 4 802 804 805 803 4
804 806 807 805 4 806 808 809 807 4
808 810 811 809 4 810 812 813 811 4
812 814 815 813 4 814 816 817 815 4
816 818 819 817 4 818 820 821 819 4
820 822 823 821 4 822 824 825 823 4
824 826 827 825 4 826 828 829 827 4
828 830 831 829 4 830 832 833 831 4
832 834 835 833 4 834 836 837 835 4
836 838 839 837 4 838 840 841 839 4
840 842 843 841 4 842 844 845 843 4
844 846 847 845 4 846 848 849 847 4
848 850 851 849 4 850 852 853 851 4
852 854 855 853 4 854 856 857 855 4
856 858 859 857 4 858 860 861 859 4
860 862 863 861 4 862 864 865 863 4
864 866 867 865 4 866 868 869 867 4
868 870 871 869 4 870 872 873 871 4
872 874 875 873 4 874 876 877 875 4
876 878 879 877 4 878 880 881 879 4
880 882 883 881 4 882 884 885 883 4
884 886 887 885 4 886 888 889 887 4
888 890 891 889 4 890 892 893 891 4
892 894 895 893 4 894 896 897 895 4
896 898 899 897 4 898 900 901 899 4
900 902 903 901 4 902 904 905 903 4
904 906 907 905 4 906 908 909 907 4
908 910 911 909 4 910 912 913 911 4
912 914 915 913 4 914 916 917 915 4
916 918 919 917 4 918 920 921 919 4
920 922 923 921 4 922 924 925 923 4
924 926 927 925 4 926 928 929 927 4
928 930 931 929 4 930 932 933 931 4
932 934 935 933 4 934 936 937 935 4
936 938 939 937 4 938 940 941 939 4
940 942 943 941 4 942 944 945 943 4
944 946 947 945 4 946 948 949 947 4
948 950 951 949 4 950 952 953 951 4
952 954 955 953 4 954 956 957 955 4
956 958 959 957 4 958 960 961 959 4
960 962 963 961 4 962 964 965 963 4
964 966 967 965 4 966 968 969 967 4
968 970 971 969 4 970 972 973 971 4
972 974 975 973 4 974 976 977 975 4
976 978 979 977 4 978 980 981 979 4
980 982 983 981 4 982 984 985 983 4
984 986 987 985 4 986 988 989 987 4
988 990 991 989 4 990 992 993 991 4
992 994 995 993 4 994 996 997 995 4
996 998 999 997 4 998 1000 1001 999 4
1000 1002 1003 1001 4 1002 1004 1005 1003 4
1004 1006 1007 1005 4 1006 1008 1009 1007 4
1008 1010 1011 1009 4 1010 1012 1013 1011 4
1012 1014 1015 1013 4 1014 1016 1017 1015 4
1016 1018 1019 1017 4 1018 1020 1021 1019 4
1020 1022 1023 1021 4 1022 1024 1025 1023 4
1024 1026 1027 1025 4 1026 1028 1029 1027 4
1028 1030 1031 1029 4 1030 1032 1033 1031 4
1032 1034 1035 1033 4 1034 1036 1037 1035 4
1036 1038 1039 1037 4 1038 1040 1041 1039 4
1040 1042 1043 1041 4 1042 1044 1045 1043 4
1044 1046 1047 1045 4 1046 1048 1049 1047 4
1048 1050 1051 1049 4 1050 1052 1053 1051 4
1052 1054 1055 1053 4 1054 1056 1057 1055 4
1056 1058 1059 1057 4 1058 1060 1061 1059 4
1060 1062 1063 1061 4 1062 1064 1065 1063 4
1064 1066 1067 1065 4 1066 1068 1069 1067 4
1068 1070 1071 1069 4 1070 1072 1073 1071 4
1072 1074 1075 1073 4 1074 1076 1077 1075 4
1076 1078 1079 1077 4 1078 1080 1081 1079 4
1080 1082 1083 1081 4 1082 1084 1085 1083 4
1084 1086 1087 1085 4 1086 1088 1089 1087 4
1088 1090 1091 1089 4 1090 1092 1093 1091 4
1092 1094 1095 1093 4 1094 1096 1097 1095 4
1096 1098 1099 1097 4 1098 1100 1101 1099 4
1100 1102 1103 1101 4 1102 1104 1105 1103 4
1104 1106 1107 1105 4 1106 1108 1109 1107 4
1108 1110 1111 1109 4 1110 1112 1113 1111 4
1112 1114 1115 1113 4 1114 1116 1117 1115 4
1116 1118 1119 1117 4 1118 1120 1121 1119 4
1120 1122 1123 1121 4 1122 1124 1125 1123 4
1124 1126 1127 1125 4 1126 1128 1129 1127 4
1128 1130 1131 1129 4 1130 1132 1133 1131 4
1132 1134 1135 1133 4 1134 1136 1137 1135 4
1136 1138 1139 1137 4 1138 1140 1141 1139 4
1140 1142 1143 1141 4 1142 1144 1145 1143 4
1144 1146 1147 1145 4 1146 1148 1149 1147 4
1148 1150 1151 1149 4 1150 1152 1153 1151 4
1152 1154 1155 1153 4 1154 1156 1157 1155 4
1156 1158 1159 1157 4 1158 1160 1161 1159 4
1160 1162 1163 1161 4 1162 1164 1165 1163 4
1164 1166 1167 1165 4 1166 1168 1169 1167 4
1168 1170 1171 1169 4 1170 1172 1173 1171 4
1172 1174 1175 1173 4 1174 1176 1177 1175 4
1176 1178 1179 1177 4 1178 1180 1181 1179 4
1180 1182 1183 1181 4 1182 1184 1185 1183 4
1184 1186 1187 1185 4 1186 1188 1189 1187 4
1188 1190 1191 1189 4 1190 1192 1193 1191 4
1192 1194 1195 1193 4 1194 1196 1197 1195 4
1196 1198 1199 1197 4 1198 1200 1201 1199 
POINT_DATA 1202
FIELD attributes 1
U 3 1202 float
1.54633 0.0341547 0 0.86996 0.0236436 0 0.86996 0.0236436 0 1.54633 0.0341547
0 0.166339 0.00856605 0 0.166339 0.00856605 0 0.122373 0.00258696 0
0.122373 0.00258696 0 0.0963839 0.000773344 0 0.0963839 0.000773344 0 0.0818387
0.000279208 0 0.0818387 0.000279208 0 0.0730745 0.000175096 0 0.0730745 0.000175096
0 0.0669326 0.000157979 0 0.0669326 0.000157979 0 0.0621561 0.00014171 0
0.0621561 0.00014171 0 0.0582727 0.000120793 0 0.0582727 0.000120793 0 0.0550481
0.000100916 0 0.0550481 0.000100916 0 0.0523161 8.58864e-05 0 0.0523161 8.58864e-05
0 0.0499517 7.56266e-05 0 0.0499517 7.56266e-05 0 0.0478664 6.77251e-05 0
0.0478664 6.77251e-05 0 0.0460024 6.11536e-05 0 0.0460024 6.11536e-05 0 0.0443205
5.55258e-05 0 0.0443205 5.55258e-05 0 0.042792 5.06244e-05 0 0.042792 5.06244e-05
0 0.0413947 4.63098e-05 0 0.0413947 4.63098e-05 0 0.0401114 4.24876e-05 0
0.0401114 4.24876e-05 0 0.0389277 3.90882e-05 0 0.0389277 3.90882e-05 0 0.0378318
3.60556e-05 0 0.0378318 3.60556e-05 0 0.0368138 3.3343e-05 0 0.0368138 3.3343e-05
0 0.0358651 3.09109e-05 0 0.0358651 3.09109e-05 0 0.0349784 2.87251e-05 0
0.0349784 2.87251e-05 0 0.0341473 2.67562e-05 0 0.0341473 2.67562e-05 0 0.0333663
2.49783e-05 0 0.0333663 2.49783e-05 0 0.0326307 2.3369e-05 0 0.0326307 2.3369e-05
0 0.0319361 2.19085e-05 0 0.0319361 2.19085e-05 0 0.0312789 2.058e-05 0
0.0312789 2.058e-05 0 0.0306558 1.93682e-05 0 0.0306558 1.93682e-05 0 0.0300638
1.82605e-05 0 0.0300638 1.82605e-05 0 0.0295004 1.72454e-05 0 0.0295004 1.72454e-05
0 0.0289632 1.63128e-05 0 0.0289632 1.63128e-05 0 0.0284503 1.54555e-05 0
0.0284503 1.54555e-05 0 0.0279597 1.46626e-05 0 0.0279597 1.46626e-05 0 0.0274898
1.39375e-05 0 0.0274898 1.39375e-05 0 0.0270391 1.32567e-05 0 0.0270391 1.32567e-05
0 0.026606 1.26527e-05 0 0.026606 1.26527e-05 0 0.0261891 1.20491e-05 0
0.0261891 1.20491e-05 0 0.025789 1.13194e-05 0 0.025789 1.13194e-05 0 0.0254043
1.0702e-05 0 0.0254043 1.0702e-05 0 0.0250322 1.03203e-05 0 0.0250322 1.03203e-05
0 0.0246704 1.00054e-05 0 0.0246704 1.00054e-05 0 0.0243183 9.68248e-06 0
0.0243183 9.68248e-06 0 0.0239758 9.34827e-06 0 0.0239758 9.34827e-06 0 0.023643
9.00865e-06 0 0.023643 9.00865e-06 0 0.0233199 8.67004e-06 0 0.0233199 8.67004e-06
0 0.0230063 8.33758e-06 0 0.0230063 8.33758e-06 0 0.022702 8.01461e-06 0
0.022702 8.01461e-06 0 0.0224068 7.7031e-06 0 0.0224068 7.7031e-06 0 0.0221203
7.40413e-06 0 0.0221203 7.40413e-06 0 0.0218422 7.11813e-06 0 0.0218422 7.11813e-06
0 0.0215722 6.84515e-06 0 0.0215722 6.84515e-06 0 0.0213098 6.58497e-06 0
0.0213098 6.58497e-06 0 0.0210549 6.33723e-06 0 0.0210549 6.33723e-06 0 0.020807
6.10145e-06 0 0.020807 6.10145e-06 0 0.0205659 5.8771e-06 0 0.0205659 5.8771e-06
0 0.0203312 5.66363e-06 0 0.0203312 5.66363e-06 0 0.0201028 5.46049e-06 0
0.0201028 5.46049e-06 0 0.0198802 5.2671e-06 0 0.0198802 5.2671e-06 0 0.0196634
5.08296e-06 0 0.0196634 5.08296e-06 0 0.0194519 4.90751e-06 0 0.0194519 4.90751e-06
0 0.0192456 4.74029e-06 0 0.0192456 4.74029e-06 0 0.0190444 4.5808e-06 0
0.0190444 4.5808e-06 0 0.0188478 4.42865e-06 0 0.0188478 4.42865e-06 0 0.0186559
4.28334e-06 0 0.0186559 4.28334e-06 0 0.0184683 4.14459e-06 0 0.0184683 4.14459e-06
0 0.018285 4.0119e-06 0 0.018285 4.0119e-06 0 0.0181057 3.88512e-06 0
0.0181057 3.88512e-06 0 0.0179303 3.76369e-06 0 0.0179303 3.76369e-06 0 0.0177586
3.64762e-06 0 0.0177586 3.64762e-06 0 0.0175906 3.5363e-06 0 0.0175906 3.5363e-06
0 0.0174259 3.42985e-06 0 0.0174259 3.42985e-06 0 0.0172646 3.32784e-06 0
0.0172646 3.32784e-06 0 0.0171066 3.22989e-06 0 0.0171066 3.22989e-06 0 0.0169515
3.13779e-06 0 0.0169515 3.13779e-06 0 0.0167995 3.04621e-06 0 0.0167995 3.04621e-06
0 0.0166501 2.97011e-06 0 0.0166501 2.97011e-06 0 0.0165035 2.87534e-06 0
0.0165035 2.87534e-06 0 0.0163603 2.74742e-06 0 0.0163603 2.74742e-06 0 0.0162198
2.67278e-06 0 0.0162198 2.67278e-06 0 0.0160807 2.64366e-06 0 0.0160807 2.64366e-06
0 0.0159426 2.60496e-06 0 0.0159426 2.60496e-06 0 0.0158058 2.55691e-06 0
0.0158058 2.55691e-06 0 0.0156708 2.50173e-06 0 0.0156708 2.50173e-06 0 0.0155376
2.44231e-06 0 0.0155376 2.44231e-06 0 0.0154064 2.38088e-06 0 0.0154064 2.38088e-06
0 0.0152773 2.31889e-06 0 0.0152773 2.31889e-06 0 0.0151504 2.25723e-06 0
0.0151504 2.25723e-06 0 0.0150256 2.19651e-06 0 0.0150256 2.19651e-06 0 0.0149028
2.13705e-06 0 0.0149028 2.13705e-06 0 0.0147822 2.07909e-06 0 0.0147822 2.07909e-06
0 0.0146636 2.02274e-06 0 0.0146636 2.02274e-06 0 0.014547 1.96806e-06 0
0.014547 1.96806e-06 0 0.0144323 1.91508e-06 0 0.0144323 1.91508e-06 0 0.0143196
1.86378e-06 0 0.0143196 1.86378e-06 0 0.0142087 1.81415e-06 0 0.0142087 1.81415e-06
0 0.0140996 1.76615e-06 0 0.0140996 1.76615e-06 0 0.0139922 1.71973e-06 0
0.0139922 1.71973e-06 0 0.0138866 1.67485e-06 0 0.0138866 1.67485e-06 0 0.0137826
1.63146e-06 0 0.0137826 1.63146e-06 0 0.0136803 1.58949e-06 0 0.0136803 1.58949e-06
0 0.0135795 1.54891e-06 0 0.0135795 1.54891e-06 0 0.0134803 1.50965e-06 0
0.0134803 1.50965e-06 0 0.0133826 1.47168e-06 0 0.0133826 1.47168e-06 0 0.0132863
1.43492e-06 0 0.0132863 1.43492e-06 0 0.0131914 1.39937e-06 0 0.0131914 1.39937e-06
0 0.0130979 1.36492e-06 0 0.0130979 1.36492e-06 0 0.0130057 1.3316e-06 0
0.0130057 1.3316e-06 0 0.0129149 1.29929e-06 0 0.0129149 1.29929e-06 0 0.0128253
1.26806e-06 0 0.0128253 1.26806e-06 0 0.0127369 1.23773e-06 0 0.0127369 1.23773e-06
0 0.0126498 1.20845e-06 0 0.0126498 1.20845e-06 0 0.0125638 1.18003e-06 0
0.0125638 1.18003e-06 0 0.012479 1.1525e-06 0 0.012479 1.1525e-06 0 0.0123952
1.1263e-06 0 0.0123952 1.1263e-06 0 0.0123126 1.09985e-06 0 0.0123126 1.09985e-06
0 0.0122309 1.07853e-06 0 0.0122309 1.07853e-06 0 0.0121501 1.05181e-06 0
0.0121501 1.05181e-06 0 0.0120709 1.01386e-06 0 0.0120709 1.01386e-06 0 0.0119926
9.91818e-07 0 0.0119926 9.91818e-07 0 0.0119146 9.8671e-07 0 0.0119146 9.8671e-07
0 0.0118366 9.79701e-07 0 0.0118366 9.79701e-07 0 0.0117587 9.67572e-07 0
0.0117587 9.67572e-07 0 0.0116814 9.51692e-07 0 0.0116814 9.51692e-07 0 0.0116047
9.33537e-07 0 0.0116047 9.33537e-07 0 0.0115289 9.14186e-07 0 0.0115289 9.14186e-07
0 0.0114538 8.94302e-07 0 0.0114538 8.94302e-07 0 0.0113797 8.74289e-07 0
0.0113797 8.74289e-07 0 0.0113065 8.54394e-07 0 0.0113065 8.54394e-07 0 0.0112343
8.34767e-07 0 0.0112343 8.34767e-07 0 0.0111629 8.15502e-07 0 0.0111629 8.15502e-07
0 0.0110925 7.96657e-07 0 0.0110925 7.96657e-07 0 0.0110229 7.78259e-07 0
0.0110229 7.78259e-07 0 0.0109542 7.6033e-07 0 0.0109542 7.6033e-07 0 0.0108864
7.42871e-07 0 0.0108864 7.42871e-07 0 0.0108195 7.25885e-07 0 0.0108195 7.25885e-07
0 0.0107534 7.09364e-07 0 0.0107534 7.09364e-07 0 0.0106881 6.93303e-07 0
0.0106881 6.93303e-07 0 0.0106236 6.77687e-07 0 0.0106236 6.77687e-07 0 0.0105599
6.62512e-07 0 0.0105599 6.62512e-07 0 0.0104969 6.47753e-07 0 0.0104969 6.47753e-07
0 0.0104347 6.33413e-07 0 0.0104347 6.33413e-07 0 0.0103732 6.19463e-07 0
0.0103732 6.19463e-07 0 0.0103125 6.05906e-07 0 0.0103125 6.05906e-07 0 0.0102524
5.92713e-07 0 0.0102524 5.92713e-07 0 0.0101931 5.79897e-07 0 0.0101931 5.79897e-07
0 0.0101344 5.67413e-07 0 0.0101344 5.67413e-07 0 0.0100763 5.55296e-07 0
0.0100763 5.55296e-07 0 0.0100189 5.43479e-07 0 0.0100189 5.43479e-07 0 0.00996215
5.32024e-07 0 0.00996215 5.32024e-07 0 0.00990598 5.20854e-07 0 0.00990598 5.20854e-07
0 0.00985042 5.10021e-07 0 0.00985042 5.10021e-07 0 0.00979543 4.99596e-07 0
0.00979543 4.99596e-07 0 0.00974104 4.89183e-07 0 0.00974104 4.89183e-07 0 0.00968711
4.80602e-07 0 0.00968711 4.80602e-07 0 0.00963372 4.69714e-07 0 0.00963372 4.69714e-07
0 0.00958116 4.54784e-07 0 0.00958116 4.54784e-07 0 0.0095291 4.46694e-07 0
0.0095291 4.46694e-07 0 0.00947693 4.46265e-07 0 0.00947693 4.46265e-07 0 0.00942449
4.4491e-07 0 0.00942449 4.4491e-07 0 0.00937202 4.40486e-07 0 0.00937202 4.40486e-07
0 0.00931976 4.34054e-07 0 0.00931976 4.34054e-07 0 0.00926786 4.26442e-07 0
0.00926786 4.26442e-07 0 0.00921642 4.18238e-07 0 0.00921642 4.18238e-07 0 0.00916547
4.09768e-07 0 0.00916547 4.09768e-07 0 0.00911505 4.01226e-07 0 0.00911505 4.01226e-07
0 0.00906517 3.92725e-07 0 0.00906517 3.92725e-07 0 0.00901584 3.84333e-07 0
0.00901584 3.84333e-07 0 0.00896705 3.76088e-07 0 0.00896705 3.76088e-07 0 0.00891881
3.68014e-07 0 0.00891881 3.68014e-07 0 0.0088711 3.60124e-07 0 0.0088711 3.60124e-07
0 0.00882392 3.52427e-07 0 0.00882392 3.52427e-07 0 0.00877725 3.4492e-07 0
0.00877725 3.4492e-07 0 0.0087311 3.37608e-07 0 0.0087311 3.37608e-07 0 0.00868544
3.30482e-07 0 0.00868544 3.30482e-07 0 0.00864028 3.23545e-07 0 0.00864028 3.23545e-07
0 0.00859559 3.16785e-07 0 0.00859559 3.16785e-07 0 0.00855137 3.10209e-07 0
0.00855137 3.10209e-07 0 0.00850762 3.03796e-07 0 0.00850762 3.03796e-07 0 0.00846431
2.9756e-07 0 0.00846431 2.9756e-07 0 0.00842145 2.91472e-07 0 0.00842145 2.91472e-07
0 0.00837902 2.8556e-07 0 0.00837902 2.8556e-07 0 0.00833701 2.79777e-07 0
0.00833701 2.79777e-07 0 0.00829542 2.74174e-07 0 0.00829542 2.74174e-07 0 0.00825423
2.68677e-07 0 0.00825423 2.68677e-07 0 0.00821344 2.63375e-07 0 0.00821344 2.63375e-07
0 0.00817304 2.58151e-07 0 0.00817304 2.58151e-07 0 0.00813303 2.53149e-07 0
0.00813303 2.53149e-07 0 0.00809336 2.48241e-07 0 0.00809336 2.48241e-07 0 0.00805411
2.43463e-07 0 0.00805411 2.43463e-07 0 0.00801506 2.39676e-07 0 0.00801506 2.39676e-07
0 0.00797649 2.33066e-07 0 0.00797649 2.33066e-07 0 0.00793853 2.26469e-07 0
0.00793853 2.26469e-07 0 0.0079005 2.26276e-07 0 0.0079005 2.26276e-07 0 0.00786207
2.27393e-07 0 0.00786207 2.27393e-07 0 0.00782339 2.26031e-07 0 0.00782339 2.26031e-07
0 0.00778477 2.23299e-07 0 0.00778477 2.23299e-07 0 0.00774634 2.19678e-07 0
0.00774634 2.19678e-07 0 0.0077082 2.15661e-07 0 0.0077082 2.15661e-07 0 0.00767041
2.1145e-07 0 0.00767041 2.1145e-07 0 0.00763297 2.07181e-07 0 0.00763297 2.07181e-07
0 0.00759592 2.02921e-07 0 0.00759592 2.02921e-07 0 0.00755925 1.98713e-07 0
0.00755925 1.98713e-07 0 0.00752296 1.94577e-07 0 0.00752296 1.94577e-07 0 0.00748705
1.90529e-07 0 0.00748705 1.90529e-07 0 0.00745152 1.86573e-07 0 0.00745152 1.86573e-07
0 0.00741635 1.82714e-07 0 0.00741635 1.82714e-07 0 0.00738155 1.7895e-07 0
0.00738155 1.7895e-07 0 0.0073471 1.75285e-07 0 0.0073471 1.75285e-07 0 0.007313
1.71712e-07 0 0.007313 1.71712e-07 0 0.00727924 1.68234e-07 0 0.00727924 1.68234e-07
0 0.00724582 1.64843e-07 0 0.00724582 1.64843e-07 0 0.00721272 1.61544e-07 0
0.00721272 1.61544e-07 0 0.00717995 1.58323e-07 0 0.00717995 1.58323e-07 0 0.00714748
1.55194e-07 0 0.00714748 1.55194e-07 0 0.00711533 1.52133e-07 0 0.00711533 1.52133e-07
0 0.00708347 1.49166e-07 0 0.00708347 1.49166e-07 0 0.00705191 1.46255e-07 0
0.00705191 1.46255e-07 0 0.00702064 1.43445e-07 0 0.00702064 1.43445e-07 0 0.00698965
1.40674e-07 0 0.00698965 1.40674e-07 0 0.00695894 1.38026e-07 0 0.00695894 1.38026e-07
0 0.00692848 1.35406e-07 0 0.00692848 1.35406e-07 0 0.00689833 1.32884e-07 0
0.00689833 1.32884e-07 0 0.00686831 1.30838e-07 0 0.00686831 1.30838e-07 0 0.00683865
1.27444e-07 0 0.00683865 1.27444e-07 0 0.00680944 1.24176e-07 0 0.00680944 1.24176e-07
0 0.00678011 1.24164e-07 0 0.00678011 1.24164e-07 0 0.0067504 1.25014e-07 0
0.0067504 1.25014e-07 0 0.00672042 1.24552e-07 0 0.00672042 1.24552e-07 0 0.00669043
1.23136e-07 0 0.00669043 1.23136e-07 0 0.00666059 1.21168e-07 0 0.00666059 1.21168e-07
0 0.00663096 1.18953e-07 0 0.00663096 1.18953e-07 0 0.0066016 1.16628e-07 0
0.0066016 1.16628e-07 0 0.00657252 1.14276e-07 0 0.00657252 1.14276e-07 0 0.00654373
1.11933e-07 0 0.00654373 1.11933e-07 0 0.00651524 1.09625e-07 0 0.00651524 1.09625e-07
0 0.00648704 1.07362e-07 0 0.00648704 1.07362e-07 0 0.00645913 1.05151e-07 0
0.00645913 1.05151e-07 0 0.00643151 1.02994e-07 0 0.00643151 1.02994e-07 0 0.00640416
1.00892e-07 0 0.00640416 1.00892e-07 0 0.00637709 9.88447e-08 0 0.00637709 9.88447e-08
0 0.00635028 9.68522e-08 0 0.00635028 9.68522e-08 0 0.00632374 9.49112e-08 0
0.00632374 9.49112e-08 0 0.00629746 9.30229e-08 0 0.00629746 9.30229e-08 0 0.00627143
9.11824e-08 0 0.00627143 9.11824e-08 0 0.00624564 8.9392e-08 0 0.00624564 8.9392e-08
0 0.00622009 8.76448e-08 0 0.00622009 8.76448e-08 0 0.00619478 8.59478e-08 0
0.00619478 8.59478e-08 0 0.00616969 8.42883e-08 0 0.00616969 8.42883e-08 0 0.00614483
8.26812e-08 0 0.00614483 8.26812e-08 0 0.00612019 8.11037e-08 0 0.00612019 8.11037e-08
0 0.00609577 7.95891e-08 0 0.00609577 7.95891e-08 0 0.00607155 7.80931e-08 0
0.00607155 7.80931e-08 0 0.00604755 7.66701e-08 0 0.00604755 7.66701e-08 0 0.00602368
7.54251e-08 0 0.00602368 7.54251e-08 0 0.00600006 7.36167e-08 0 0.00600006 7.36167e-08
0 0.00597678 7.19497e-08 0 0.00597678 7.19497e-08 0 0.0059534 7.19391e-08 0
0.0059534 7.19391e-08 0 0.00592964 7.25527e-08 0 0.00592964 7.25527e-08 0 0.00590561
7.24299e-08 0 0.00590561 7.24299e-08 0 0.00588155 7.16246e-08 0 0.00588155 7.16246e-08
0 0.00585761 7.04686e-08 0 0.00585761 7.04686e-08 0 0.00583385 6.91553e-08 0
0.00583385 6.91553e-08 0 0.0058103 6.77829e-08 0 0.0058103 6.77829e-08 0 0.00578699
6.63981e-08 0 0.00578699 6.63981e-08 0 0.00576392 6.50256e-08 0 0.00576392 6.50256e-08
0 0.00574108 6.36777e-08 0 0.00574108 6.36777e-08 0 0.00571849 6.236e-08 0
0.00571849 6.236e-08 0 0.00569612 6.10753e-08 0 0.00569612 6.10753e-08 0 0.00567398
5.98247e-08 0 0.00567398 5.98247e-08 0 0.00565207 5.86075e-08 0 0.00565207 5.86075e-08
0 0.00563038 5.74247e-08 0 0.00563038 5.74247e-08 0 0.0056089 5.62734e-08 0
0.0056089 5.62734e-08 0 0.00558762 5.5154e-08 0 0.00558762 5.5154e-08 0 0.00556655
5.40643e-08 0 0.00556655 5.40643e-08 0 0.00554568 5.30052e-08 0 0.00554568 5.30052e-08
0 0.005525 5.19723e-08 0 0.005525 5.19723e-08 0 0.0055045 5.09693e-08 0
0.0055045 5.09693e-08 0 0.0054842 4.99893e-08 0 0.0054842 4.99893e-08 0 0.00546407
4.90405e-08 0 0.00546407 4.90405e-08 0 0.00544412 4.8111e-08 0 0.00544412 4.8111e-08
0 0.00542434 4.72198e-08 0 0.00542434 4.72198e-08 0 0.00540472 4.63375e-08 0
0.00540472 4.63375e-08 0 0.00538527 4.55463e-08 0 0.00538527 4.55463e-08 0 0.00536592
4.46745e-08 0 0.00536592 4.46745e-08 0 0.00534688 4.35613e-08 0 0.00534688 4.35613e-08
0 0.00532791 4.32434e-08 0 0.00532791 4.32434e-08 0 0.00530856 4.37895e-08 0
0.00530856 4.37895e-08 0 0.00528889 4.39663e-08 0 0.00528889 4.39663e-08 0 0.00526913
4.35577e-08 0 0.00526913 4.35577e-08 0 0.00524945 4.28762e-08 0 0.00524945 4.28762e-08
0 0.00522991 4.20696e-08 0 0.00522991 4.20696e-08 0 0.00521056 4.12228e-08 0
0.00521056 4.12228e-08 0 0.00519141 4.03671e-08 0 0.00519141 4.03671e-08 0 0.00517246
3.95211e-08 0 0.00517246 3.95211e-08 0 0.00515371 3.86918e-08 0 0.00515371 3.86918e-08
0 0.00513516 3.78833e-08 0 0.00513516 3.78833e-08 0 0.0051168 3.70965e-08 0
0.0051168 3.70965e-08 0 0.00509863 3.63321e-08 0 0.00509863 3.63321e-08 0 0.00508065
3.55896e-08 0 0.00508065 3.55896e-08 0 0.00506285 3.48684e-08 0 0.00506285 3.48684e-08
0 0.00504523 3.41681e-08 0 0.00504523 3.41681e-08 0 0.00502778 3.34866e-08 0
0.00502778 3.34866e-08 0 0.00501049 3.28248e-08 0 0.00501049 3.28248e-08 0 0.00499337
3.21805e-08 0 0.00499337 3.21805e-08 0 0.00497641 3.15543e-08 0 0.00497641 3.15543e-08
0 0.0049596 3.09445e-08 0 0.0049596 3.09445e-08 0 0.00494294 3.03527e-08 0
0.00494294 3.03527e-08 0 0.00492643 2.97755e-08 0 0.00492643 2.97755e-08 0 0.00491006
2.92187e-08 0 0.00491006 2.92187e-08 0 0.00489384 2.86746e-08 0 0.00489384 2.86746e-08
0 0.00487773 2.81829e-08 0 0.00487773 2.81829e-08 0 0.00486174 2.76039e-08 0
0.00486174 2.76039e-08 0 0.004846 2.70013e-08 0 0.004846 2.70013e-08 0 0.00483022
2.69951e-08 0 0.00483022 2.69951e-08 0 0.00481406 2.7384e-08 0 0.00481406 2.7384e-08
0 0.00479764 2.74375e-08 0 0.00479764 2.74375e-08 0 0.00478117 2.71272e-08 0
0.00478117 2.71272e-08 0 0.0047648 2.66596e-08 0 0.0047648 2.66596e-08 0 0.00474856
2.61284e-08 0 0.00474856 2.61284e-08 0 0.0047325 2.55814e-08 0 0.0047325 2.55814e-08
0 0.00471661 2.50354e-08 0 0.00471661 2.50354e-08 0 0.00470089 2.44995e-08 0
0.00470089 2.44995e-08 0 0.00468535 2.3977e-08 0 0.00468535 2.3977e-08 0 0.00466998
2.34689e-08 0 0.00466998 2.34689e-08 0 0.00465477 2.29762e-08 0 0.00465477 2.29762e-08
0 0.00463973 2.24979e-08 0 0.00463973 2.24979e-08 0 0.00462484 2.2034e-08 0
0.00462484 2.2034e-08 0 0.00461011 2.15836e-08 0 0.00461011 2.15836e-08 0 0.00459552
2.11463e-08 0 0.00459552 2.11463e-08 0 0.00458108 2.07213e-08 0 0.00458108 2.07213e-08
0 0.00456678 2.03082e-08 0 0.00456678 2.03082e-08 0 0.00455261 1.99057e-08 0
0.00455261 1.99057e-08 0 0.00453858 1.95157e-08 0 0.00453858 1.95157e-08 0 0.00452469
1.91339e-08 0 0.00452469 1.91339e-08 0 0.00451091 1.8768e-08 0 0.00451091 1.8768e-08
0 0.00449726 1.84032e-08 0 0.00449726 1.84032e-08 0 0.00448375 1.80712e-08 0
0.00448375 1.80712e-08 0 0.0044703 1.77393e-08 0 0.0044703 1.77393e-08 0 0.00445704
1.73143e-08 0 0.00445704 1.73143e-08 0 0.00444392 1.71232e-08 0 0.00444392 1.71232e-08
0 0.00443055 1.73325e-08 0 0.00443055 1.73325e-08 0 0.00441686 1.75132e-08 0
0.00441686 1.75132e-08 0 0.00440303 1.74168e-08 0 0.00440303 1.74168e-08 0 0.00438923
1.71427e-08 0 0.00438923 1.71427e-08 0 0.00437556 1.68e-08 0 0.00437556 1.68e-08
0 0.00436203 1.64358e-08 0 0.00436203 1.64358e-08 0 0.00434867 1.60699e-08 0
0.00434867 1.60699e-08 0 0.00433546 1.57102e-08 0 0.00433546 1.57102e-08 0 0.00432242
1.53586e-08 0 0.00432242 1.53586e-08 0 0.00430953 1.50168e-08 0 0.00430953 1.50168e-08
0 0.00429679 1.46849e-08 0 0.00429679 1.46849e-08 0 0.00428421 1.43619e-08 0
0.00428421 1.43619e-08 0 0.00427177 1.40485e-08 0 0.00427177 1.40485e-08 0 0.00425947
1.37433e-08 0 0.00425947 1.37433e-08 0 0.00424732 1.34465e-08 0 0.00424732 1.34465e-08
0 0.0042353 1.31572e-08 0 0.0042353 1.31572e-08 0 0.00422341 1.28748e-08 0
0.00422341 1.28748e-08 0 0.00421167 1.25976e-08 0 0.00421167 1.25976e-08 0 0.00420005
1.23291e-08 0 0.00420005 1.23291e-08 0 0.00418856 1.20639e-08 0 0.00418856 1.20639e-08
0 0.0041772 1.18112e-08 0 0.0041772 1.18112e-08 0 0.00416596 1.15511e-08 0
0.00416596 1.15511e-08 0 0.00415487 1.13279e-08 0 0.00415487 1.13279e-08 0 0.00414383
1.10682e-08 0 0.00414383 1.10682e-08 0 0.00413305 1.07674e-08 0 0.00413305 1.07674e-08
0 0.00412231 1.07918e-08 0 0.00412231 1.07918e-08 0 0.00411118 1.10046e-08 0
0.00411118 1.10046e-08 0 0.00409986 1.10047e-08 0 0.00409986 1.10047e-08 0 0.00408856
1.08209e-08 0 0.00408856 1.08209e-08 0 0.00407739 1.05658e-08 0 0.00407739 1.05658e-08
0 0.00406639 1.02879e-08 0 0.00406639 1.02879e-08 0 0.00405557 1.00067e-08 0
0.00405557 1.00067e-08 0 0.00404495 9.72588e-09 0 0.00404495 9.72588e-09 0 0.00403451
9.44939e-09 0 0.00403451 9.44939e-09 0 0.00402427 9.17783e-09 0 0.00402427 9.17783e-09
0 0.00401422 8.90984e-09 0 0.00401422 8.90984e-09 0 0.00400436 8.647e-09 0
0.00400436 8.647e-09 0 0.0039947 8.38756e-09 0 0.0039947 8.38756e-09 0 0.00398523
8.13097e-09 0 0.00398523 8.13097e-09 0 0.00397596 7.87726e-09 0 0.00397596 7.87726e-09
0 0.00396688 7.62634e-09 0 0.00396688 7.62634e-09 0 0.00395801 7.37632e-09 0
0.00395801 7.37632e-09 0 0.00394935 7.1294e-09 0 0.00394935 7.1294e-09 0 0.00394089
6.88402e-09 0 0.00394089 6.88402e-09 0 0.00393264 6.63909e-09 0 0.00393264 6.63909e-09
0 0.0039246 6.39926e-09 0 0.0039246 6.39926e-09 0 0.00391679 6.15426e-09 0
0.00391679 6.15426e-09 0 0.0039092 5.93013e-09 0 0.0039092 5.93013e-09 0 0.00390179
5.67627e-09 0 0.00390179 5.67627e-09 0 0.00389472 5.41958e-09 0 0.00389472 5.41958e-09
0 0.00388777 5.36339e-09 0 0.00388777 5.36339e-09 0 0.00388065 5.40406e-09 0
0.00388065 5.40406e-09 0 0.00387351 5.317e-09 0 0.00387351 5.317e-09 0 0.00386651
5.11734e-09 0 0.00386651 5.11734e-09 0 0.00385976 4.87315e-09 0 0.00385976 4.87315e-09
0 0.00385329 4.6144e-09 0 0.00385329 4.6144e-09 0 0.00384711 4.35469e-09 0
0.00384711 4.35469e-09 0 0.00384122 4.10049e-09 0 0.00384122 4.10049e-09 0 0.00383562
3.85116e-09 0 0.00383562 3.85116e-09 0 0.00383032 3.6079e-09 0 0.00383032 3.6079e-09
0 0.00382531 3.3729e-09 0 0.00382531 3.3729e-09 0 0.00382058 3.14273e-09 0
0.00382058 3.14273e-09 0 0.00381614 2.91776e-09 0 0.00381614 2.91776e-09 0 0.00381197
2.70142e-09 0 0.00381197 2.70142e-09 0 0.00380809 2.4911e-09 0 0.00380809 2.4911e-09
0 0.00380447 2.28649e-09 0 0.00380447 2.28649e-09 0 0.00380113 2.09077e-09 0
0.00380113 2.09077e-09 0 0.00379805 1.90137e-09 0 0.00379805 1.90137e-09 0 0.00379523
1.71511e-09 0 0.00379523 1.71511e-09 0 0.00379267 1.53692e-09 0 0.00379267 1.53692e-09
0 0.00379036 1.36576e-09 0 0.00379036 1.36576e-09 0 0.0037883 1.19753e-09 0
0.0037883 1.19753e-09 0 0.00378649 1.03752e-09 0 0.00378649 1.03752e-09 0 0.00378491
8.8717e-10 0 0.00378491 8.8717e-10 0 0.00378357 7.28888e-10 0 0.00378357 7.28888e-10
0 0.00378249 5.90356e-10 0 0.00378249 5.90356e-10 0 0.00378157 5.4951e-10 0
0.00378157 5.4951e-10 0 0.0037806 5.67953e-10 0 0.0037806 5.67953e-10 0 0.00377961
5.36708e-10 0 0.00377961 5.36708e-10 0 0.00377874 4.42274e-10 0 0.00377874 4.42274e-10
0 0.00377807 3.21412e-10 0 0.00377807 3.21412e-10 0 0.00377762 1.91449e-10 0
0.00377762 1.91449e-10 0 0.0037774 6.04719e-11 0 0.0037774 6.04719e-11 0 0.00377742
-6.26195e-11 0 0.00377742 -6.26195e-11 0 0.00377765 -1.77765e-10 0 0.00377765 -1.77765e-10
0 0.00377809 -2.91314e-10 0 0.00377809 -2.91314e-10 0 0.00377876 -4.02309e-10 0
0.00377876 -4.02309e-10 0 0.00377963 -5.03884e-10 0 0.00377963 -5.03884e-10 0 0.0037807
-5.98309e-10 0 0.0037807 -5.98309e-10 0 0.00378196 -6.91794e-10 0 0.00378196 -6.91794e-10
0 0.00378342 -7.81833e-10 0 0.00378342 -7.81833e-10 0 0.00378506 -8.63623e-10 0
0.00378506 -8.63623e-10 0 0.00378688 -9.40654e-10 0 0.00378688 -9.40654e-10 0 0.00378887
-1.01832e-09 0 0.00378887 -1.01832e-09 0 0.00379105 -1.09169e-09 0 0.00379105 -1.09169e-09
0 0.00379338 -1.15566e-09 0 0.00379338 -1.15566e-09 0 0.00379587 -1.21583e-09 0
0.00379587 -1.21583e-09 0 0.00379851 -1.27905e-09 0 0.00379851 -1.27905e-09 0 0.00380132
-1.34022e-09 0 0.00380132 -1.34022e-09 0 0.00380427 -1.39126e-09 0 0.00380427 -1.39126e-09
0 0.00380736 -1.43639e-09 0 0.00380736 -1.43639e-09 0 0.00381059 -1.48347e-09 0
0.00381059 -1.48347e-09 0 0.00381396 -1.53682e-09 0 0.00381396 -1.53682e-09 0 0.00381748
-1.55288e-09 0 0.00381748 -1.55288e-09 0 0.00382097 -1.49873e-09 0 0.00382097 -1.49873e-09
0 0.00382432 -1.44543e-09 0 0.00382432 -1.44543e-09 0 0.00382766 -1.44266e-09 0
0.00382766 -1.44266e-09 0 0.00383107 -1.46685e-09 0 0.00383107 -1.46685e-09 0 0.00383459
-1.49684e-09 0 0.00383459 -1.49684e-09 0 0.00383821 -1.5282e-09 0 0.00383821 -1.5282e-09
0 0.00384196 -1.56277e-09 0 0.00384196 -1.56277e-09 0 0.00384583 -1.59798e-09 0
0.00384583 -1.59798e-09 0 0.00384982 -1.62887e-09 0 0.00384982 -1.62887e-09 0 0.00385393
-1.65455e-09 0 0.00385393 -1.65455e-09 0 0.00385814 -1.67924e-09 0 0.00385814 -1.67924e-09
0 0.00386246 -1.70523e-09 0 0.00386246 -1.70523e-09 0 0.00386689 -1.72965e-09 0
0.00386689 -1.72965e-09 0 0.00387142 -1.74888e-09 0 0.00387142 -1.74888e-09 0 0.00387604
-1.76344e-09 0 0.00387604 -1.76344e-09 0 0.00388075 -1.77773e-09 0 0.00388075 -1.77773e-09
0 0.00388555 -1.79453e-09 0 0.00388555 -1.79453e-09 0 0.00389045 -1.8122e-09 0
0.00389045 -1.8122e-09 0 0.00389544 -1.827e-09 0 0.00389544 -1.827e-09 0 0.00390052
-1.83718e-09 0 0.00390052 -1.83718e-09 0 0.00390567 -1.84472e-09 0 0.00390567 -1.84472e-09
0 0.0039109 -1.853e-09 0 0.0039109 -1.853e-09 0 0.00391621 -1.8638e-09 0
0.00391621 -1.8638e-09 0 0.00392162 -1.87729e-09 0 0.00392162 -1.87729e-09 0 0.00392712
-1.89109e-09 0 0.00392712 -1.89109e-09 0 0.00393272 -1.90448e-09 0 0.00393272 -1.90448e-09
0 0.00393842 -1.91594e-09 0 0.00393842 -1.91594e-09 0 0.00394419 -1.89851e-09 0
0.00394419 -1.89851e-09 0 0.00394989 -1.84397e-09 0 0.00394989 -1.84397e-09 0 0.00395546
-1.7976e-09 0 0.00395546 -1.7976e-09 0 0.00396099 -1.78075e-09 0 0.00396099 -1.78075e-09
0 0.00396657 -1.77892e-09 0 0.00396657 -1.77892e-09 0 0.00397222 -1.78331e-09 0
0.00397222 -1.78331e-09 0 0.00397794 -1.7903e-09 0 0.00397794 -1.7903e-09 0 0.00398376
-1.79845e-09 0 0.00398376 -1.79845e-09 0 0.00398966 -1.80698e-09 0 0.00398966 -1.80698e-09
0 0.00399565 -1.816e-09 0 0.00399565 -1.816e-09 0 0.00400174 -1.82464e-09 0
0.00400174 -1.82464e-09 0 0.00400791 -1.83228e-09 0 0.00400791 -1.83228e-09 0 0.00401418
-1.83879e-09 0 0.00401418 -1.83879e-09 0 0.00402052 -1.84381e-09 0 0.00402052 -1.84381e-09
0 0.00402695 -1.84759e-09 0 0.00402695 -1.84759e-09 0 0.00403346 -1.84991e-09 0
0.00403346 -1.84991e-09 0 0.00404004 -1.85132e-09 0 0.00404004 -1.85132e-09 0 0.00404669
-1.85175e-09 0 0.00404669 -1.85175e-09 0 0.00405341 -1.8513e-09 0 0.00405341 -1.8513e-09
0 0.0040602 -1.85044e-09 0 0.0040602 -1.85044e-09 0 0.00406705 -1.84887e-09 0
0.00406705 -1.84887e-09 0 0.00407397 -1.84681e-09 0 0.00407397 -1.84681e-09 0 0.00408095
-1.84465e-09 0 0.00408095 -1.84465e-09 0 0.004088 -1.84153e-09 0 0.004088 -1.84153e-09
0 0.0040951 -1.83817e-09 0 0.0040951 -1.83817e-09 0 0.00410227 -1.83448e-09 0
0.00410227 -1.83448e-09 0 0.00410949 -1.83043e-09 0 0.00410949 -1.83043e-09 0 0.00411678
-1.81013e-09 0 0.00411678 -1.81013e-09 0 0.00412399 -1.76168e-09 0 0.00412399 -1.76168e-09
0 0.00413103 -1.71497e-09 0 0.00413103 -1.71497e-09 0 0.00413801 -1.69053e-09 0
0.00413801 -1.69053e-09 0 0.004145 -1.67894e-09 0 0.004145 -1.67894e-09 0 0.00415203
-1.67242e-09 0 0.00415203 -1.67242e-09 0 0.00415911 -1.66841e-09 0 0.00415911 -1.66841e-09
0 0.00416626 -1.66561e-09 0 0.00416626 -1.66561e-09 0 0.00417347 -1.66327e-09 0
0.00417347 -1.66327e-09 0 0.00418074 -1.66078e-09 0 0.00418074 -1.66078e-09 0 0.00418807
-1.65801e-09 0 0.00418807 -1.65801e-09 0 0.00419547 -1.65473e-09 0 0.00419547 -1.65473e-09
0 0.00420293 -1.65117e-09 0 0.00420293 -1.65117e-09 0 0.00421045 -1.64755e-09 0
0.00421045 -1.64755e-09 0 0.00421803 -1.64316e-09 0 0.00421803 -1.64316e-09 0 0.00422567
-1.63865e-09 0 0.00422567 -1.63865e-09 0 0.00423337 -1.63435e-09 0 0.00423337 -1.63435e-09
0 0.00424113 -1.62948e-09 0 0.00424113 -1.62948e-09 0 0.00424894 -1.62428e-09 0
0.00424894 -1.62428e-09 0 0.00425681 -1.61903e-09 0 0.00425681 -1.61903e-09 0 0.00426473
-1.61369e-09 0 0.00426473 -1.61369e-09 0 0.00427271 -1.60803e-09 0 0.00427271 -1.60803e-09
0 0.00428075 -1.60214e-09 0 0.00428075 -1.60214e-09 0 0.00428883 -1.5961e-09 0
0.00428883 -1.5961e-09 0 0.00429697 -1.58961e-09 0 0.00429697 -1.58961e-09 0 0.00430517
-1.58345e-09 0 0.00430517 -1.58345e-09 0 0.00431341 -1.56627e-09 0 0.00431341 -1.56627e-09
0 0.00432159 -1.52847e-09 0 0.00432159 -1.52847e-09 0 0.00432961 -1.48968e-09 0
0.00432961 -1.48968e-09 0 0.00433755 -1.46691e-09 0 0.00433755 -1.46691e-09 0 0.00434548
-1.45467e-09 0 0.00434548 -1.45467e-09 0 0.00435345 -1.44665e-09 0 0.00435345 -1.44665e-09
0 0.00436147 -1.44066e-09 0 0.00436147 -1.44066e-09 0 0.00436953 -1.43534e-09 0
0.00436953 -1.43534e-09 0 0.00437765 -1.43022e-09 0 0.00437765 -1.43022e-09 0 0.00438583
-1.42519e-09 0 0.00438583 -1.42519e-09 0 0.00439406 -1.41978e-09 0 0.00439406 -1.41978e-09
0 0.00440235 -1.41415e-09 0 0.00440235 -1.41415e-09 0 0.00441069 -1.40885e-09 0
0.00441069 -1.40885e-09 0 0.00441908 -1.40316e-09 0 0.00441908 -1.40316e-09 0 0.00442753
-1.39694e-09 0 0.00442753 -1.39694e-09 0 0.00443603 -1.39086e-09 0 0.00443603 -1.39086e-09
0 0.00444458 -1.38504e-09 0 0.00444458 -1.38504e-09 0 0.00445319 -1.37894e-09 0
0.00445319 -1.37894e-09 0 0.00446184 -1.3726e-09 0 0.00446184 -1.3726e-09 0 0.00447054
-1.36607e-09 0 0.00447054 -1.36607e-09 0 0.00447929 -1.35962e-09 0 0.00447929 -1.35962e-09
0 0.00448809 -1.35301e-09 0 0.00448809 -1.35301e-09 0 0.00449694 -1.34606e-09 0
0.00449694 -1.34606e-09 0 0.00450583 -1.33918e-09 0 0.00450583 -1.33918e-09 0 0.00451478
-1.3319e-09 0 0.00451478 -1.3319e-09 0 0.00452376 -1.31485e-09 0 0.00452376 -1.31485e-09
0 0.00453265 -1.28288e-09 0 0.00453265 -1.28288e-09 0 0.00454138 -1.25275e-09 0
0.00454138 -1.25275e-09 0 0.00455004 -1.23518e-09 0 0.00455004 -1.23518e-09 0 0.0045587
-1.22485e-09 0 0.0045587 -1.22485e-09 0 0.0045674 -1.21714e-09 0 0.0045674 -1.21714e-09
0 0.00457613 -1.21039e-09 0 0.00457613 -1.21039e-09 0 0.00458491 -1.20476e-09 0
0.00458491 -1.20476e-09 0 0.00459374 -1.19929e-09 0 0.00459374 -1.19929e-09 0 0.00460262
-1.1932e-09 0 0.00460262 -1.1932e-09 0 0.00461155 -1.18729e-09 0 0.00461155 -1.18729e-09
0 0.00462052 -1.18131e-09 0 0.00462052 -1.18131e-09 0 0.00462955 -1.17527e-09 0
0.00462955 -1.17527e-09 0 0.00463862 -1.16923e-09 0 0.00463862 -1.16923e-09 0 0.00464774
-1.16316e-09 0 0.00464774 -1.16316e-09 0 0.0046569 -1.1564e-09 0 0.0046569 -1.1564e-09
0 0.00466612 -1.15001e-09 0 0.00466612 -1.15001e-09 0 0.00467537 -1.1443e-09 0
0.00467537 -1.1443e-09 0 0.00468467 -1.13755e-09 0 0.00468467 -1.13755e-09 0 0.00469402
-1.13093e-09 0 0.00469402 -1.13093e-09 0 0.00470341 -1.12474e-09 0 0.00470341 -1.12474e-09
0 0.00471284 -1.11802e-09 0 0.00471284 -1.11802e-09 0 0.00472231 -1.11189e-09 0
0.00472231 -1.11189e-09 0 0.00473183 -1.10194e-09 0 0.00473183 -1.10194e-09 0 0.00474133
-1.08202e-09 0 0.00474133 -1.08202e-09 0 0.00475071 -1.05545e-09 0 0.00475071 -1.05545e-09
0 0.00475993 -1.03558e-09 0 0.00475993 -1.03558e-09 0 0.00476914 -1.02318e-09 0
0.00476914 -1.02318e-09 0 0.00477834 -1.01559e-09 0 0.00477834 -1.01559e-09 0 0.00478761
-1.00802e-09 0 0.00478761 -1.00802e-09 0 0.00479686 -1.00337e-09 0 0.00479686 -1.00337e-09
0 0.00480623 -9.96458e-10 0 0.00480623 -9.96458e-10 0 0.00481554 -9.92287e-10 0
0.00481554 -9.92287e-10 0 0.00482503 -9.84979e-10 0 0.00482503 -9.84979e-10 0 0.00483439
-9.80688e-10 0 0.00483439 -9.80688e-10 0 0.00484401 -9.73847e-10 0 0.00484401 -9.73847e-10
0 0.00485342 -9.69012e-10 0 0.00485342 -9.69012e-10 0 0.00486315 -9.62894e-10 0
0.00486315 -9.62894e-10 0 0.00487264 -9.56373e-10 0 0.00487264 -9.56373e-10 0 0.00488244
-9.51368e-10 0 0.00488244 -9.51368e-10 0 0.00489203 -9.44218e-10 0 0.00489203 -9.44218e-10
0 0.00490189 -9.40715e-10 0 0.00490189 -9.40715e-10 0 0.00491159 -9.31293e-10 0
0.00491159 -9.31293e-10 0 0.00492146 -9.31106e-10 0 0.00492146 -9.31106e-10 0 0.00493136
-9.15886e-10 0 0.00493136 -9.15886e-10 0 0.00494112 -9.24491e-10 0 0.00494112 -9.24491e-10
0 0.00495141 -8.79726e-10 0 0.00495141 -8.79726e-10 0 0.00496038 -9.17851e-10 0
0.00496038 -9.17851e-10 0 0.0107986 -1.49095e-09 0 0.0107986 -1.49095e-09 0 0.0166369
-1.95895e-09 0 0.0166369 -1.95895e-09 0 
