# vtk DataFile Version 2.0
sampleSurface
ASCII
DATASET POLYDATA
POINTS 1202 float
0 0 0 5.99825e-05 0 0 5.99825e-05 0 0.1 0 0
0.1 0.000120591 0 0 0.000120591 0 0.1 0.000181831 0 0
0.000181831 0 0.1 0.000243709 0 0 0.000243709 0 0.1 0.000306234
0 0 0.000306234 0 0.1 0.00036941 0 0 0.00036941 0
0.1 0.000433245 0 0 0.000433245 0 0.1 0.000497746 0 0
0.000497746 0 0.1 0.000562919 0 0 0.000562919 0 0.1 0.000628772
0 0 0.000628772 0 0.1 0.000695312 0 0 0.000695312 0
0.1 0.000762546 0 0 0.000762546 0 0.1 0.000830481 0 0
0.000830481 0 0.1 0.000899125 0 0 0.000899125 0 0.1 0.000968484
0 0 0.000968484 0 0.1 0.00103857 0 0 0.00103857 0
0.1 0.00110938 0 0 0.00110938 0 0.1 0.00118093 0 0
0.00118093 0 0.1 0.00125323 0 0 0.00125323 0 0.1 0.00132628
0 0 0.00132628 0 0.1 0.0014001 0 0 0.0014001 0
0.1 0.00147468 0 0 0.00147468 0 0.1 0.00155004 0 0
0.00155004 0 0.1 0.00162619 0 0 0.00162619 0 0.1 0.00170313
0 0 0.00170313 0 0.1 0.00178088 0 0 0.00178088 0
0.1 0.00185943 0 0 0.00185943 0 0.1 0.00193881 0 0
0.00193881 0 0.1 0.00201901 0 0 0.00201901 0 0.1 0.00210005
0 0 0.00210005 0 0.1 0.00218193 0 0 0.00218193 0
0.1 0.00226467 0 0 0.00226467 0 0.1 0.00234827 0 0
0.00234827 0 0.1 0.00243274 0 0 0.00243274 0 0.1 0.0025181
0 0 0.0025181 0 0.1 0.00260434 0 0 0.00260434 0
0.1 0.00269148 0 0 0.00269148 0 0.1 0.00277954 0 0
0.00277954 0 0.1 0.00286851 0 0 0.00286851 0 0.1 0.0029584
0 0 0.0029584 0 0.1 0.00304924 0 0 0.00304924 0
0.1 0.00314102 0 0 0.00314102 0 0.1 0.00323376 0 0
0.00323376 0 0.1 0.00332747 0 0 0.00332747 0 0.1 0.00342215
0 0 0.00342215 0 0.1 0.00351783 0 0 0.00351783 0
0.1 0.0036145 0 0 0.0036145 0 0.1 0.00371217 0 0
0.00371217 0 0.1 0.00381087 0 0 0.00381087 0 0.1 0.0039106
0 0 0.0039106 0 0.1 0.00401136 0 0 0.00401136 0
0.1 0.00411318 0 0 0.00411318 0 0.1 0.00421606 0 0
0.00421606 0 0.1 0.00432001 0 0 0.00432001 0 0.1 0.00442505
0 0 0.00442505 0 0.1 0.00453118 0 0 0.00453118 0
0.1 0.00463842 0 0 0.00463842 0 0.1 0.00474677 0 0
0.00474677 0 0.1 0.00485626 0 0 0.00485626 0 0.1 0.00496689
0 0 0.00496689 0 0.1 0.00507867 0 0 0.00507867 0
0.1 0.00519162 0 0 0.00519162 0 0.1 0.00530574 0 0
0.00530574 0 0.1 0.00542106 0 0 0.00542106 0 0.1 0.00553758
0 0 0.00553758 0 0.1 0.00565531 0 0 0.00565531 0
0.1 0.00577427 0 0 0.00577427 0 0.1 0.00589447 0 0
0.00589447 0 0.1 0.00601593 0 0 0.00601593 0 0.1 0.00613865
0 0 0.00613865 0 0.1 0.00626266 0 0 0.00626266 0
0.1 0.00638795 0 0 0.00638795 0 0.1 0.00651455 0 0
0.00651455 0 0.1 0.00664248 0 0 0.00664248 0 0.1 0.00677173
0 0 0.00677173 0 0.1 0.00690234 0 0 0.00690234 0
0.1 0.0070343 0 0 0.0070343 0 0.1 0.00716765 0 0
0.00716765 0 0.1 0.00730238 0 0 0.00730238 0 0.1 0.00743852
0 0 0.00743852 0 0.1 0.00757608 0 0 0.00757608 0
0.1 0.00771507 0 0 0.00771507 0 0.1 0.00785551 0 0
0.00785551 0 0.1 0.00799742 0 0 0.00799742 0 0.1 0.00814081
0 0 0.00814081 0 0.1 0.00828569 0 0 0.00828569 0
0.1 0.00843209 0 0 0.00843209 0 0.1 0.00858001 0 0
0.00858001 0 0.1 0.00872947 0 0 0.00872947 0 0.1 0.00888049
0 0 0.00888049 0 0.1 0.00903309 0 0 0.00903309 0
0.1 0.00918728 0 0 0.00918728 0 0.1 0.00934307 0 0
0.00934307 0 0.1 0.00950049 0 0 0.00950049 0 0.1 0.00965956
0 0 0.00965956 0 0.1 0.00982028 0 0 0.00982028 0
0.1 0.00998268 0 0 0.00998268 0 0.1 0.0101468 0 0
0.0101468 0 0.1 0.0103126 0 0 0.0103126 0 0.1 0.0104801
0 0 0.0104801 0 0.1 0.0106494 0 0 0.0106494 0
0.1 0.0108204 0 0 0.0108204 0 0.1 0.0109933 0 0
0.0109933 0 0.1 0.0111679 0 0 0.0111679 0 0.1 0.0113443
0 0 0.0113443 0 0.1 0.0115226 0 0 0.0115226 0
0.1 0.0117028 0 0 0.0117028 0 0.1 0.0118848 0 0
0.0118848 0 0.1 0.0120687 0 0 0.0120687 0 0.1 0.0122546
0 0 0.0122546 0 0.1 0.0124424 0 0 0.0124424 0
0.1 0.0126321 0 0 0.0126321 0 0.1 0.0128238 0 0
0.0128238 0 0.1 0.0130176 0 0 0.0130176 0 0.1 0.0132133
0 0 0.0132133 0 0.1 0.0134111 0 0 0.0134111 0
0.1 0.0136109 0 0 0.0136109 0 0.1 0.0138129 0 0
0.0138129 0 0.1 0.0140169 0 0 0.0140169 0 0.1 0.0142231
0 0 0.0142231 0 0.1 0.0144314 0 0 0.0144314 0
0.1 0.0146419 0 0 0.0146419 0 0.1 0.0148546 0 0
0.0148546 0 0.1 0.0150695 0 0 0.0150695 0 0.1 0.0152866
0 0 0.0152866 0 0.1 0.015506 0 0 0.015506 0
0.1 0.0157277 0 0 0.0157277 0 0.1 0.0159517 0 0
0.0159517 0 0.1 0.016178 0 0 0.016178 0 0.1 0.0164067
0 0 0.0164067 0 0.1 0.0166378 0 0 0.0166378 0
0.1 0.0168713 0 0 0.0168713 0 0.1 0.0171073 0 0
0.0171073 0 0.1 0.0173457 0 0 0.0173457 0 0.1 0.0175865
0 0 0.0175865 0 0.1 0.0178299 0 0 0.0178299 0
0.1 0.0180759 0 0 0.0180759 0 0.1 0.0183244 0 0
0.0183244 0 0.1 0.0185754 0 0 0.0185754 0 0.1 0.0188291
0 0 0.0188291 0 0.1 0.0190855 0 0 0.0190855 0
0.1 0.0193445 0 0 0.0193445 0 0.1 0.0196063 0 0
0.0196063 0 0.1 0.0198707 0 0 0.0198707 0 0.1 0.0201379
0 0 0.0201379 0 0.1 0.0204079 0 0 0.0204079 0
0.1 0.0206807 0 0 0.0206807 0 0.1 0.0209564 0 0
0.0209564 0 0.1 0.0212349 0 0 0.0212349 0 0.1 0.0215164
0 0 0.0215164 0 0.1 0.0218008 0 0 0.0218008 0
0.1 0.0220881 0 0 0.0220881 0 0.1 0.0223784 0 0
0.0223784 0 0.1 0.0226718 0 0 0.0226718 0 0.1 0.0229682
0 0 0.0229682 0 0.1 0.0232677 0 0 0.0232677 0
0.1 0.0235704 0 0 0.0235704 0 0.1 0.0238762 0 0
0.0238762 0 0.1 0.0241852 0 0 0.0241852 0 0.1 0.0244974
0 0 0.0244974 0 0.1 0.0248128 0 0 0.0248128 0
0.1 0.0251316 0 0 0.0251316 0 0.1 0.0254537 0 0
0.0254537 0 0.1 0.0257791 0 0 0.0257791 0 0.1 0.0261079
0 0 0.0261079 0 0.1 0.0264402 0 0 0.0264402 0
0.1 0.0267759 0 0 0.0267759 0 0.1 0.0271152 0 0
0.0271152 0 0.1 0.0274579 0 0 0.0274579 0 0.1 0.0278043
0 0 0.0278043 0 0.1 0.0281542 0 0 0.0281542 0
0.1 0.0285078 0 0 0.0285078 0 0.1 0.0288651 0 0
0.0288651 0 0.1 0.0292261 0 0 0.0292261 0 0.1 0.0295909
0 0 0.0295909 0 0.1 0.0299595 0 0 0.0299595 0
0.1 0.0303319 0 0 0.0303319 0 0.1 0.0307082 0 0
0.0307082 0 0.1 0.0310885 0 0 0.0310885 0 0.1 0.0314727
0 0 0.0314727 0 0.1 0.0318609 0 0 0.0318609 0
0.1 0.0322532 0 0 0.0322532 0 0.1 0.0326495 0 0
0.0326495 0 0.1 0.03305 0 0 0.03305 0 0.1 0.0334546
0 0 0.0334546 0 0.1 0.0338635 0 0 0.0338635 0
0.1 0.0342767 0 0 0.0342767 0 0.1 0.0346941 0 0
0.0346941 0 0.1 0.0351159 0 0 0.0351159 0 0.1 0.0355421
0 0 0.0355421 0 0.1 0.0359728 0 0 0.0359728 0
0.1 0.0364079 0 0 0.0364079 0 0.1 0.0368476 0 0
0.0368476 0 0.1 0.0372919 0 0 0.0372919 0 0.1 0.0377408
0 0 0.0377408 0 0.1 0.0381944 0 0 0.0381944 0
0.1 0.0386527 0 0 0.0386527 0 0.1 0.0391158 0 0
0.0391158 0 0.1 0.0395837 0 0 0.0395837 0 0.1 0.0400565
0 0 0.0400565 0 0.1 0.0405342 0 0 0.0405342 0
0.1 0.0410169 0 0 0.0410169 0 0.1 0.0415047 0 0
0.0415047 0 0.1 0.0419975 0 0 0.0419975 0 0.1 0.0424955
0 0 0.0424955 0 0.1 0.0429986 0 0 0.0429986 0
0.1 0.0435071 0 0 0.0435071 0 0.1 0.0440208 0 0
0.0440208 0 0.1 0.0445398 0 0 0.0445398 0 0.1 0.0450643
0 0 0.0450643 0 0.1 0.0455943 0 0 0.0455943 0
0.1 0.0461298 0 0 0.0461298 0 0.1 0.0466708 0 0
0.0466708 0 0.1 0.0472176 0 0 0.0472176 0 0.1 0.04777
0 0 0.04777 0 0.1 0.0483281 0 0 0.0483281 0
0.1 0.0488921 0 0 0.0488921 0 0.1 0.049462 0 0
0.049462 0 0.1 0.0500378 0 0 0.0500378 0 0.1 0.0506197
0 0 0.0506197 0 0.1 0.0512076 0 0 0.0512076 0
0.1 0.0518016 0 0 0.0518016 0 0.1 0.0524018 0 0
0.0524018 0 0.1 0.0530083 0 0 0.0530083 0 0.1 0.0536211
0 0 0.0536211 0 0.1 0.0542403 0 0 0.0542403 0
0.1 0.0548659 0 0 0.0548659 0 0.1 0.0554981 0 0
0.0554981 0 0.1 0.0561369 0 0 0.0561369 0 0.1 0.0567823
0 0 0.0567823 0 0.1 0.0574345 0 0 0.0574345 0
0.1 0.0580934 0 0 0.0580934 0 0.1 0.0587593 0 0
0.0587593 0 0.1 0.0594321 0 0 0.0594321 0 0.1 0.0601119
0 0 0.0601119 0 0.1 0.0607987 0 0 0.0607987 0
0.1 0.0614928 0 0 0.0614928 0 0.1 0.0621941 0 0
0.0621941 0 0.1 0.0629027 0 0 0.0629027 0 0.1 0.0636187
0 0 0.0636187 0 0.1 0.0643421 0 0 0.0643421 0
0.1 0.0650732 0 0 0.0650732 0 0.1 0.0658118 0 0
0.0658118 0 0.1 0.0665581 0 0 0.0665581 0 0.1 0.0673122
0 0 0.0673122 0 0.1 0.0680742 0 0 0.0680742 0
0.1 0.0688441 0 0 0.0688441 0 0.1 0.0696221 0 0
0.0696221 0 0.1 0.0704082 0 0 0.0704082 0 0.1 0.0712024
0 0 0.0712024 0 0.1 0.072005 0 0 0.072005 0
0.1 0.0728159 0 0 0.0728159 0 0.1 0.0736353 0 0
0.0736353 0 0.1 0.0744632 0 0 0.0744632 0 0.1 0.0752998
0 0 0.0752998 0 0.1 0.076145 0 0 0.076145 0
0.1 0.0769991 0 0 0.0769991 0 0.1 0.0778621 0 0
0.0778621 0 0.1 0.0787342 0 0 0.0787342 0 0.1 0.0796153
0 0 0.0796153 0 0.1 0.0805055 0 0 0.0805055 0
0.1 0.0814051 0 0 0.0814051 0 0.1 0.0823141 0 0
0.0823141 0 0.1 0.0832325 0 0 0.0832325 0 0.1 0.0841605
0 0 0.0841605 0 0.1 0.0850982 0 0 0.0850982 0
0.1 0.0860457 0 0 0.0860457 0 0.1 0.087003 0 0
0.087003 0 0.1 0.0879704 0 0 0.0879704 0 0.1 0.0889478
0 0 0.0889478 0 0.1 0.0899354 0 0 0.0899354 0
0.1 0.0909333 0 0 0.0909333 0 0.1 0.0919416 0 0
0.0919416 0 0.1 0.0929605 0 0 0.0929605 0 0.1 0.0939899
0 0 0.0939899 0 0.1 0.0950302 0 0 0.0950302 0
0.1 0.0960812 0 0 0.0960812 0 0.1 0.0971432 0 0
0.0971432 0 0.1 0.0982163 0 0 0.0982163 0 0.1 0.0993006
0 0 0.0993006 0 0.1 0.100396 0 0 0.100396 0
0.1 0.101503 0 0 0.101503 0 0.1 0.102622 0 0
0.102622 0 0.1 0.103752 0 0 0.103752 0 0.1 0.104894
0 0 0.104894 0 0.1 0.106048 0 0 0.106048 0
0.1 0.107214 0 0 0.107214 0 0.1 0.108392 0 0
0.108392 0 0.1 0.109582 0 0 0.109582 0 0.1 0.110785
0 0 0.110785 0 0.1 0.112001 0 0 0.112001 0
0.1 0.113229 0 0 0.113229 0 0.1 0.114469 0 0
0.114469 0 0.1 0.115723 0 0 0.115723 0 0.1 0.11699
0 0 0.11699 0 0.1 0.11827 0 0 0.11827 0
0.1 0.119564 0 0 0.119564 0 0.1 0.12087 0 0
0.12087 0 0.1 0.122191 0 0 0.122191 0 0.1 0.123525
0 0 0.123525 0 0.1 0.124873 0 0 0.124873 0
0.1 0.126236 0 0 0.126236 0 0.1 0.127612 0 0
0.127612 0 0.1 0.129003 0 0 0.129003 0 0.1 0.130408
0 0 0.130408 0 0.1 0.131828 0 0 0.131828 0
0.1 0.133263 0 0 0.133263 0 0.1 0.134713 0 0
0.134713 0 0.1 0.136178 0 0 0.136178 0 0.1 0.137658
0 0 0.137658 0 0.1 0.139154 0 0 0.139154 0
0.1 0.140665 0 0 0.140665 0 0.1 0.142192 0 0
0.142192 0 0.1 0.143735 0 0 0.143735 0 0.1 0.145294
0 0 0.145294 0 0.1 0.146869 0 0 0.146869 0
0.1 0.148461 0 0 0.148461 0 0.1 0.150069 0 0
0.150069 0 0.1 0.151694 0 0 0.151694 0 0.1 0.153336
0 0 0.153336 0 0.1 0.154995 0 0 0.154995 0
0.1 0.156672 0 0 0.156672 0 0.1 0.158366 0 0
0.158366 0 0.1 0.160077 0 0 0.160077 0 0.1 0.161807
0 0 0.161807 0 0.1 0.163554 0 0 0.163554 0
0.1 0.16532 0 0 0.16532 0 0.1 0.167104 0 0
0.167104 0 0.1 0.168907 0 0 0.168907 0 0.1 0.170728
0 0 0.170728 0 0.1 0.172569 0 0 0.172569 0
0.1 0.174428 0 0 0.174428 0 0.1 0.176307 0 0
0.176307 0 0.1 0.178206 0 0 0.178206 0 0.1 0.180124
0 0 0.180124 0 0.1 0.182063 0 0 0.182063 0
0.1 0.184022 0 0 0.184022 0 0.1 0.186001 0 0
0.186001 0 0.1 0.188001 0 0 0.188001 0 0.1 0.190021
0 0 0.190021 0 0.1 0.192063 0 0 0.192063 0
0.1 0.194126 0 0 0.194126 0 0.1 0.19621 0 0
0.19621 0 0.1 0.198317 0 0 0.198317 0 0.1 0.200445
0 0 0.200445 0 0.1 0.202595 0 0 0.202595 0
0.1 0.204768 0 0 0.204768 0 0.1 0.206964 0 0
0.206964 0 0.1 0.209182 0 0 0.209182 0 0.1 0.211424
0 0 0.211424 0 0.1 0.213689 0 0 0.213689 0
0.1 0.215977 0 0 0.215977 0 0.1 0.21829 0 0
0.21829 0 0.1 0.220626 0 0 0.220626 0 0.1 0.222987
0 0 0.222987 0 0.1 0.225372 0 0 0.225372 0
0.1 0.227783 0 0 0.227783 0 0.1 0.230218 0 0
0.230218 0 0.1 0.232679 0 0 0.232679 0 0.1 0.235166
0 0 0.235166 0 0.1 0.237678 0 0 0.237678 0
0.1 0.240217 0 0 0.240217 0 0.1 0.242782 0 0
0.242782 0 0.1 0.245374 0 0 0.245374 0 0.1 0.247993
0 0 0.247993 0 0.1 0.25064 0 0 0.25064 0
0.1 0.253313 0 0 0.253313 0 0.1 0.256015 0 0
0.256015 0 0.1 0.258745 0 0 0.258745 0 0.1 0.261504
0 0 0.261504 0 0.1 0.264291 0 0 0.264291 0
0.1 0.267107 0 0 0.267107 0 0.1 0.269953 0 0
0.269953 0 0.1 0.272828 0 0 0.272828 0 0.1 0.275733
0 0 0.275733 0 0.1 0.278669 0 0 0.278669 0
0.1 0.281635 0 0 0.281635 0 0.1 0.284632 0 0
0.284632 0 0.1 0.287661 0 0 0.287661 0 0.1 0.290721
0 0 0.290721 0 0.1 0.293813 0 0 0.293813 0
0.1 0.296937 0 0 0.296937 0 0.1 0.300093 0 0
0.300093 0 0.1 0.303283 0 0 0.303283 0 0.1 0.306506
0 0 0.306506 0 0.1 0.309763 0 0 0.309763 0
0.1 0.313053 0 0 0.313053 0 0.1 0.316378 0 0
0.316378 0 0.1 0.319737 0 0 0.319737 0 0.1 0.323132
0 0 0.323132 0 0.1 0.326562 0 0 0.326562 0
0.1 0.330027 0 0 0.330027 0 0.1 0.333529 0 0
0.333529 0 0.1 0.337068 0 0 0.337068 0 0.1 0.340643
0 0 0.340643 0 0.1 0.344255 0 0 0.344255 0
0.1 0.347906 0 0 0.347906 0 0.1 0.351594 0 0
0.351594 0 0.1 0.355321 0 0 0.355321 0 0.1 0.359086
0 0 0.359086 0 0.1 0.362891 0 0 0.362891 0
0.1 0.366736 0 0 0.366736 0 0.1 0.37062 0 0
0.37062 0 0.1 0.374546 0 0 0.374546 0 0.1 0.378512
0 0 0.378512 0 0.1 0.382519 0 0 0.382519 0
0.1 0.386568 0 0 0.386568 0 0.1 0.39066 0 0
0.39066 0 0.1 0.394794 0 0 0.394794 0 0.1 0.398971
0 0 0.398971 0 0.1 0.403192 0 0 0.403192 0
0.1 0.407457 0 0 0.407457 0 0.1 0.411766 0 0
0.411766 0 0.1 0.416121 0 0 0.416121 0 0.1 0.42052
0 0 0.42052 0 0.1 0.424966 0 0 0.424966 0
0.1 0.429458 0 0 0.429458 0 0.1 0.433997 0 0
0.433997 0 0.1 0.438583 0 0 0.438583 0 0.1 0.443217
0 0 0.443217 0 0.1 0.447899 0 0 0.447899 0
0.1 0.45263 0 0 0.45263 0 0.1 0.457411 0 0
0.457411 0 0.1 0.462241 0 0 0.462241 0 0.1 0.467122
0 0 0.467122 0 0.1 0.472053 0 0 0.472053 0
0.1 0.477036 0 0 0.477036 0 0.1 0.482071 0 0
0.482071 0 0.1 0.487159 0 0 0.487159 0 0.1 0.492299
0 0 0.492299 0 0.1 0.497493 0 0 0.497493 0
0.1 0.502742 0 0 0.502742 0 0.1 0.508045 0 0
0.508045 0 0.1 0.513403 0 0 0.513403 0 0.1 0.518817
0 0 0.518817 0 0.1 0.524288 0 0 0.524288 0
0.1 0.529816 0 0 0.529816 0 0.1 0.535401 0 0
0.535401 0 0.1 0.541045 0 0 0.541045 0 0.1 0.546748
0 0 0.546748 0 0.1 0.55251 0 0 0.55251 0
0.1 0.558332 0 0 0.558332 0 0.1 0.564215 0 0
0.564215 0 0.1 0.570159 0 0 0.570159 0 0.1 0.576165
0 0 0.576165 0 0.1 0.582234 0 0 0.582234 0
0.1 0.588366 0 0 0.588366 0 0.1 0.594562 0 0
0.594562 0 0.1 0.600822 0 0 0.600822 0 0.1 0.607148
0 0 0.607148 0 0.1 0.61354 0 0 0.61354 0
0.1 0.619999 0 0 0.619999 0 0.1 0.626525 0 0
0.626525 0 0.1 0.633119 0 0 0.633119 0 0.1 0.639782
0 0 0.639782 0 0.1 0.646514 0 0 0.646514 0
0.1 0.653316 0 0 0.653316 0 0.1 0.66019 0 0
0.66019 0 0.1 0.667135 0 0 0.667135 0 0.1 0.674152
0 0 0.674152 0 0.1 0.681243 0 0 0.681243 0
0.1 0.688408 0 0 0.688408 0 0.1 0.695647 0 0
0.695647 0 0.1 0.702962 0 0 0.702962 0 0.1 0.710353
0 0 0.710353 0 0.1 0.717821 0 0 0.717821 0
0.1 0.725367 0 0 0.725367 0 0.1 0.732992 0 0
0.732992 0 0.1 0.740697 0 0 0.740697 0 0.1 0.748481
0 0 0.748481 0 0.1 0.756347 0 0 0.756347 0
0.1 0.764295 0 0 0.764295 0 0.1 0.772326 0 0
0.772326 0 0.1 0.78044 0 0 0.78044 0 0.1 0.78864
0 0 0.78864 0 0.1 0.796924 0 0 0.796924 0
0.1 0.805295 0 0 0.805295 0 0.1 0.813754 0 0
0.813754 0 0.1 0.8223 0 0 0.8223 0 0.1 0.830936
0 0 0.830936 0 0.1 0.839662 0 0 0.839662 0
0.1 0.848479 0 0 0.848479 0 0.1 0.857387 0 0
0.857387 0 0.1 0.866389 0 0 0.866389 0 0.1 0.875485
0 0 0.875485 0 0.1 0.884675 0 0 0.884675 0
0.1 0.893961 0 0 0.893961 0 0.1 0.903344 0 0
0.903344 0 0.1 0.912825 0 0 0.912825 0 0.1 0.922405
0 0 0.922405 0 0.1 0.932085 0 0 0.932085 0
0.1 0.941865 0 0 0.941865 0 0.1 0.951748 0 0
0.951748 0 0.1 0.961734 0 0 0.961734 0 0.1 0.971824
0 0 0.971824 0 0.1 0.982019 0 0 0.982019 0
0.1 0.99232 0 0 0.99232 0 0.1 1.00273 0 0
1.00273 0 0.1 1.01325 0 0 1.01325 0 0.1 1.02387
0 0 1.02387 0 0.1 1.03461 0 0 1.03461 0
0.1 1.04546 0 0 1.04546 0 0.1 1.05642 0 0
1.05642 0 0.1 1.0675 0 0 1.0675 0 0.1 1.07869
0 0 1.07869 0 0.1 1.09 0 0 1.09 0
0.1 1.10143 0 0 1.10143 0 0.1 1.11298 0 0
1.11298 0 0.1 1.12465 0 0 1.12465 0 0.1 1.13644
0 0 1.13644 0 0.1 1.14835 0 0 1.14835 0
0.1 1.16038 0 0 1.16038 0 0.1 1.17254 0 0
1.17254 0 0.1 1.18483 0 0 1.18483 0 0.1 1.19725
0 0 1.19725 0 0.1 1.2098 0 0 1.2098 0
0.1 1.22247 0 0 1.22247 0 0.1 1.23528 0 0
1.23528 0 0.1 1.24822 0 0 1.24822 0 0.1 1.2613
0 0 1.2613 0 0.1 1.27452 0 0 1.27452 0
0.1 1.28787 0 0 1.28787 0 0.1 1.30136 0 0
1.30136 0 0.1 1.31499 0 0 1.31499 0 0.1 1.32877
0 0 1.32877 0 0.1 1.34268 0 0 1.34268 0
0.1 1.35675 0 0 1.35675 0 0.1 1.37095 0 0
1.37095 0 0.1 1.38531 0 0 1.38531 0 0.1 1.39982
0 0 1.39982 0 0.1 1.41448 0 0 1.41448 0
0.1 1.42929 0 0 1.42929 0 0.1 1.44426 0 0
1.44426 0 0.1 1.45938 0 0 1.45938 0 0.1 1.47466
0 0 1.47466 0 0.1 1.4901 0 0 1.4901 0
0.1 1.5057 0 0 1.5057 0 0.1 1.52146 0 0
1.52146 0 0.1 1.53739 0 0 1.53739 0 0.1 1.55348
0 0 1.55348 0 0.1 1.56974 0 0 1.56974 0
0.1 1.58617 0 0 1.58617 0 0.1 1.60278 0 0
1.60278 0 0.1 1.61955 0 0 1.61955 0 0.1 1.6365
0 0 1.6365 0 0.1 1.65363 0 0 1.65363 0
0.1 1.67093 0 0 1.67093 0 0.1 1.68842 0 0
1.68842 0 0.1 1.70609 0 0 1.70609 0 0.1 1.72394
0 0 1.72394 0 0.1 1.74198 0 0 1.74198 0
0.1 1.76021 0 0 1.76021 0 0.1 1.77862 0 0
1.77862 0 0.1 1.79723 0 0 1.79723 0 0.1 1.81604
0 0 1.81604 0 0.1 1.83504 0 0 1.83504 0
0.1 1.85423 0 0 1.85423 0 0.1 1.87363 0 0
1.87363 0 0.1 1.89323 0 0 1.89323 0 0.1 1.91304
0 0 1.91304 0 0.1 1.93305 0 0 1.93305 0
0.1 1.95327 0 0 1.95327 0 0.1 1.9737 0 0
1.9737 0 0.1 1.99434 0 0 1.99434 0 0.1 2.0152
0 0 2.0152 0 0.1 2.03628 0 0 2.03628 0
0.1 2.05757 0 0 2.05757 0 0.1 2.07909 0 0
2.07909 0 0.1 2.10083 0 0 2.10083 0 0.1 2.1228
0 0 2.1228 0 0.1 2.145 0 0 2.145 0
0.1 2.16743 0 0 2.16743 0 0.1 2.1901 0 0
2.1901 0 0.1 2.213 0 0 2.213 0 0.1 2.23614
0 0 2.23614 0 0.1 2.25952 0 0 2.25952 0
0.1 2.28314 0 0 2.28314 0 0.1 2.30701 0 0
2.30701 0 0.1 2.33113 0 0 2.33113 0 0.1 2.3555
0 0 2.3555 0 0.1 2.38013 0 0 2.38013 0
0.1 2.40501 0 0 2.40501 0 0.1 2.43015 0 0
2.43015 0 0.1 2.45556 0 0 2.45556 0 0.1 2.48122
0 0 2.48122 0 0.1 2.50716 0 0 2.50716 0
0.1 2.53337 0 0 2.53337 0 0.1 2.55985 0 0
2.55985 0 0.1 2.58661 0 0 2.58661 0 0.1 2.61364
0 0 2.61364 0 0.1 2.64096 0 0 2.64096 0
0.1 2.66856 0 0 2.66856 0 0.1 2.69645 0 0
2.69645 0 0.1 2.72463 0 0 2.72463 0 0.1 2.75311
0 0 2.75311 0 0.1 2.78188 0 0 2.78188 0
0.1 2.81095 0 0 2.81095 0 0.1 2.84033 0 0
2.84033 0 0.1 2.87001 0 0 2.87001 0 0.1 2.9
0 0 2.9 0 0.1 
POLYGONS 600 3000
4 0 1 2 3 4 1 4 5 2 4
4 6 7 5 4 6 8 9 7 4
8 10 11 9 4 10 12 13 11 4
12 14 15 13 4 14 16 17 15 4
16 18 19 17 4 18 20 21 19 4
20 22 23 21 4 22 24 25 23 4
24 26 27 25 4 26 28 29 27 4
28 30 31 29 4 30 32 33 31 4
32 34 35 33 4 34 36 37 35 4
36 38 39 37 4 38 40 41 39 4
40 42 43 41 4 42 44 45 43 4
44 46 47 45 4 46 48 49 47 4
48 50 51 49 4 50 52 53 51 4
52 54 55 53 4 54 56 57 55 4
56 58 59 57 4 58 60 61 59 4
60 62 63 61 4 62 64 65 63 4
64 66 67 65 4 66 68 69 67 4
68 70 71 69 4 70 72 73 71 4
72 74 75 73 4 74 76 77 75 4
76 78 79 77 4 78 80 81 79 4
80 82 83 81 4 82 84 85 83 4
84 86 87 85 4 86 88 89 87 4
88 90 91 89 4 90 92 93 91 4
92 94 95 93 4 94 96 97 95 4
96 98 99 97 4 98 100 101 99 4
100 102 103 101 4 102 104 105 103 4
104 106 107 105 4 106 108 109 107 4
108 110 111 109 4 110 112 113 111 4
112 114 115 113 4 114 116 117 115 4
116 118 119 117 4 118 120 121 119 4
120 122 123 121 4 122 124 125 123 4
124 126 127 125 4 126 128 129 127 4
128 130 131 129 4 130 132 133 131 4
132 134 135 133 4 134 136 137 135 4
136 138 139 137 4 138 140 141 139 4
140 142 143 141 4 142 144 145 143 4
144 146 147 145 4 146 148 149 147 4
148 150 151 149 4 150 152 153 151 4
152 154 155 153 4 154 156 157 155 4
156 158 159 157 4 158 160 161 159 4
160 162 163 161 4 162 164 165 163 4
164 166 167 165 4 166 168 169 167 4
168 170 171 169 4 170 172 173 171 4
172 174 175 173 4 174 176 177 175 4
176 178 179 177 4 178 180 181 179 4
180 182 183 181 4 182 184 185 183 4
184 186 187 185 4 186 188 189 187 4
188 190 191 189 4 190 192 193 191 4
192 194 195 193 4 194 196 197 195 4
196 198 199 197 4 198 200 201 199 4
200 202 203 201 4 202 204 205 203 4
204 206 207 205 4 206 208 209 207 4
208 210 211 209 4 210 212 213 211 4
212 214 215 213 4 214 216 217 215 4
216 218 219 217 4 218 220 221 219 4
220 222 223 221 4 222 224 225 223 4
224 226 227 225 4 226 228 229 227 4
228 230 231 229 4 230 232 233 231 4
232 234 235 233 4 234 236 237 235 4
236 238 239 237 4 238 240 241 239 4
240 242 243 241 4 242 244 245 243 4
244 246 247 245 4 246 248 249 247 4
248 250 251 249 4 250 252 253 251 4
252 254 255 253 4 254 256 257 255 4
256 258 259 257 4 258 260 261 259 4
260 262 263 261 4 262 264 265 263 4
264 266 267 265 4 266 268 269 267 4
268 270 271 269 4 270 272 273 271 4
272 274 275 273 4 274 276 277 275 4
276 278 279 277 4 278 280 281 279 4
280 282 283 281 4 282 284 285 283 4
284 286 287 285 4 286 288 289 287 4
288 290 291 289 4 290 292 293 291 4
292 294 295 293 4 294 296 297 295 4
296 298 299 297 4 298 300 301 299 4
300 302 303 301 4 302 304 305 303 4
304 306 307 305 4 306 308 309 307 4
308 310 311 309 4 310 312 313 311 4
312 314 315 313 4 314 316 317 315 4
316 318 319 317 4 318 320 321 319 4
320 322 323 321 4 322 324 325 323 4
324 326 327 325 4 326 328 329 327 4
328 330 331 329 4 330 332 333 331 4
332 334 335 333 4 334 336 337 335 4
336 338 339 337 4 338 340 341 339 4
340 342 343 341 4 342 344 345 343 4
344 346 347 345 4 346 348 349 347 4
348 350 351 349 4 350 352 353 351 4
352 354 355 353 4 354 356 357 355 4
356 358 359 357 4 358 360 361 359 4
360 362 363 361 4 362 364 365 363 4
364 366 367 365 4 366 368 369 367 4
368 370 371 369 4 370 372 373 371 4
372 374 375 373 4 374 376 377 375 4
376 378 379 377 4 378 380 381 379 4
380 382 383 381 4 382 384 385 383 4
384 386 387 385 4 386 388 389 387 4
388 390 391 389 4 390 392 393 391 4
392 394 395 393 4 394 396 397 395 4
396 398 399 397 4 398 400 401 399 4
400 402 403 401 4 402 404 405 403 4
404 406 407 405 4 406 408 409 407 4
408 410 411 409 4 410 412 413 411 4
412 414 415 413 4 414 416 417 415 4
416 418 419 417 4 418 420 421 419 4
420 422 423 421 4 422 424 425 423 4
424 426 427 425 4 426 428 429 427 4
428 430 431 429 4 430 432 433 431 4
432 434 435 433 4 434 436 437 435 4
436 438 439 437 4 438 440 441 439 4
440 442 443 441 4 442 444 445 443 4
444 446 447 445 4 446 448 449 447 4
448 450 451 449 4 450 452 453 451 4
452 454 455 453 4 454 456 457 455 4
456 458 459 457 4 458 460 461 459 4
460 462 463 461 4 462 464 465 463 4
464 466 467 465 4 466 468 469 467 4
468 470 471 469 4 470 472 473 471 4
472 474 475 473 4 474 476 477 475 4
476 478 479 477 4 478 480 481 479 4
480 482 483 481 4 482 484 485 483 4
484 486 487 485 4 486 488 489 487 4
488 490 491 489 4 490 492 493 491 4
492 494 495 493 4 494 496 497 495 4
496 498 499 497 4 498 500 501 499 4
500 502 503 501 4 502 504 505 503 4
504 506 507 505 4 506 508 509 507 4
508 510 511 509 4 510 512 513 511 4
512 514 515 513 4 514 516 517 515 4
516 518 519 517 4 518 520 521 519 4
520 522 523 521 4 522 524 525 523 4
524 526 527 525 4 526 528 529 527 4
528 530 531 529 4 530 532 533 531 4
532 534 535 533 4 534 536 537 535 4
536 538 539 537 4 538 540 541 539 4
540 542 543 541 4 542 544 545 543 4
544 546 547 545 4 546 548 549 547 4
548 550 551 549 4 550 552 553 551 4
552 554 555 553 4 554 556 557 555 4
556 558 559 557 4 558 560 561 559 4
560 562 563 561 4 562 564 565 563 4
564 566 567 565 4 566 568 569 567 4
568 570 571 569 4 570 572 573 571 4
572 574 575 573 4 574 576 577 575 4
576 578 579 577 4 578 580 581 579 4
580 582 583 581 4 582 584 585 583 4
584 586 587 585 4 586 588 589 587 4
588 590 591 589 4 590 592 593 591 4
592 594 595 593 4 594 596 597 595 4
596 598 599 597 4 598 600 601 599 4
600 602 603 601 4 602 604 605 603 4
604 606 607 605 4 606 608 609 607 4
608 610 611 609 4 610 612 613 611 4
612 614 615 613 4 614 616 617 615 4
616 618 619 617 4 618 620 621 619 4
620 622 623 621 4 622 624 625 623 4
624 626 627 625 4 626 628 629 627 4
628 630 631 629 4 630 632 633 631 4
632 634 635 633 4 634 636 637 635 4
636 638 639 637 4 638 640 641 639 4
640 642 643 641 4 642 644 645 643 4
644 646 647 645 4 646 648 649 647 4
648 650 651 649 4 650 652 653 651 4
652 654 655 653 4 654 656 657 655 4
656 658 659 657 4 658 660 661 659 4
660 662 663 661 4 662 664 665 663 4
664 666 667 665 4 666 668 669 667 4
668 670 671 669 4 670 672 673 671 4
672 674 675 673 4 674 676 677 675 4
676 678 679 677 4 678 680 681 679 4
680 682 683 681 4 682 684 685 683 4
684 686 687 685 4 686 688 689 687 4
688 690 691 689 4 690 692 693 691 4
692 694 695 693 4 694 696 697 695 4
696 698 699 697 4 698 700 701 699 4
700 702 703 701 4 702 704 705 703 4
704 706 707 705 4 706 708 709 707 4
708 710 711 709 4 710 712 713 711 4
712 714 715 713 4 714 716 717 715 4
716 718 719 717 4 718 720 721 719 4
720 722 723 721 4 722 724 725 723 4
724 726 727 725 4 726 728 729 727 4
728 730 731 729 4 730 732 733 731 4
732 734 735 733 4 734 736 737 735 4
736 738 739 737 4 738 740 741 739 4
740 742 743 741 4 742 744 745 743 4
744 746 747 745 4 746 748 749 747 4
748 750 751 749 4 750 752 753 751 4
752 754 755 753 4 754 756 757 755 4
756 758 759 757 4 758 760 761 759 4
760 762 763 761 4 762 764 765 763 4
764 766 767 765 4 766 768 769 767 4
768 770 771 769 4 770 772 773 771 4
772 774 775 773 4 774 776 777 775 4
776 778 779 777 4 778 780 781 779 4
780 782 783 781 4 782 784 785 783 4
784 786 787 785 4 786 788 789 787 4
788 790 791 789 4 790 792 793 791 4
792 794 795 793 4 794 796 797 795 4
796 798 799 797 4 798 800 801 799 4
800 802 803 801 4 802 804 805 803 4
804 806 807 805 4 806 808 809 807 4
808 810 811 809 4 810 812 813 811 4
812 814 815 813 4 814 816 817 815 4
816 818 819 817 4 818 820 821 819 4
820 822 823 821 4 822 824 825 823 4
824 826 827 825 4 826 828 829 827 4
828 830 831 829 4 830 832 833 831 4
832 834 835 833 4 834 836 837 835 4
836 838 839 837 4 838 840 841 839 4
840 842 843 841 4 842 844 845 843 4
844 846 847 845 4 846 848 849 847 4
848 850 851 849 4 850 852 853 851 4
852 854 855 853 4 854 856 857 855 4
856 858 859 857 4 858 860 861 859 4
860 862 863 861 4 862 864 865 863 4
864 866 867 865 4 866 868 869 867 4
868 870 871 869 4 870 872 873 871 4
872 874 875 873 4 874 876 877 875 4
876 878 879 877 4 878 880 881 879 4
880 882 883 881 4 882 884 885 883 4
884 886 887 885 4 886 888 889 887 4
888 890 891 889 4 890 892 893 891 4
892 894 895 893 4 894 896 897 895 4
896 898 899 897 4 898 900 901 899 4
900 902 903 901 4 902 904 905 903 4
904 906 907 905 4 906 908 909 907 4
908 910 911 909 4 910 912 913 911 4
912 914 915 913 4 914 916 917 915 4
916 918 919 917 4 918 920 921 919 4
920 922 923 921 4 922 924 925 923 4
924 926 927 925 4 926 928 929 927 4
928 930 931 929 4 930 932 933 931 4
932 934 935 933 4 934 936 937 935 4
936 938 939 937 4 938 940 941 939 4
940 942 943 941 4 942 944 945 943 4
944 946 947 945 4 946 948 949 947 4
948 950 951 949 4 950 952 953 951 4
952 954 955 953 4 954 956 957 955 4
956 958 959 957 4 958 960 961 959 4
960 962 963 961 4 962 964 965 963 4
964 966 967 965 4 966 968 969 967 4
968 970 971 969 4 970 972 973 971 4
972 974 975 973 4 974 976 977 975 4
976 978 979 977 4 978 980 981 979 4
980 982 983 981 4 982 984 985 983 4
984 986 987 985 4 986 988 989 987 4
988 990 991 989 4 990 992 993 991 4
992 994 995 993 4 994 996 997 995 4
996 998 999 997 4 998 1000 1001 999 4
1000 1002 1003 1001 4 1002 1004 1005 1003 4
1004 1006 1007 1005 4 1006 1008 1009 1007 4
1008 1010 1011 1009 4 1010 1012 1013 1011 4
1012 1014 1015 1013 4 1014 1016 1017 1015 4
1016 1018 1019 1017 4 1018 1020 1021 1019 4
1020 1022 1023 1021 4 1022 1024 1025 1023 4
1024 1026 1027 1025 4 1026 1028 1029 1027 4
1028 1030 1031 1029 4 1030 1032 1033 1031 4
1032 1034 1035 1033 4 1034 1036 1037 1035 4
1036 1038 1039 1037 4 1038 1040 1041 1039 4
1040 1042 1043 1041 4 1042 1044 1045 1043 4
1044 1046 1047 1045 4 1046 1048 1049 1047 4
1048 1050 1051 1049 4 1050 1052 1053 1051 4
1052 1054 1055 1053 4 1054 1056 1057 1055 4
1056 1058 1059 1057 4 1058 1060 1061 1059 4
1060 1062 1063 1061 4 1062 1064 1065 1063 4
1064 1066 1067 1065 4 1066 1068 1069 1067 4
1068 1070 1071 1069 4 1070 1072 1073 1071 4
1072 1074 1075 1073 4 1074 1076 1077 1075 4
1076 1078 1079 1077 4 1078 1080 1081 1079 4
1080 1082 1083 1081 4 1082 1084 1085 1083 4
1084 1086 1087 1085 4 1086 1088 1089 1087 4
1088 1090 1091 1089 4 1090 1092 1093 1091 4
1092 1094 1095 1093 4 1094 1096 1097 1095 4
1096 1098 1099 1097 4 1098 1100 1101 1099 4
1100 1102 1103 1101 4 1102 1104 1105 1103 4
1104 1106 1107 1105 4 1106 1108 1109 1107 4
1108 1110 1111 1109 4 1110 1112 1113 1111 4
1112 1114 1115 1113 4 1114 1116 1117 1115 4
1116 1118 1119 1117 4 1118 1120 1121 1119 4
1120 1122 1123 1121 4 1122 1124 1125 1123 4
1124 1126 1127 1125 4 1126 1128 1129 1127 4
1128 1130 1131 1129 4 1130 1132 1133 1131 4
1132 1134 1135 1133 4 1134 1136 1137 1135 4
1136 1138 1139 1137 4 1138 1140 1141 1139 4
1140 1142 1143 1141 4 1142 1144 1145 1143 4
1144 1146 1147 1145 4 1146 1148 1149 1147 4
1148 1150 1151 1149 4 1150 1152 1153 1151 4
1152 1154 1155 1153 4 1154 1156 1157 1155 4
1156 1158 1159 1157 4 1158 1160 1161 1159 4
1160 1162 1163 1161 4 1162 1164 1165 1163 4
1164 1166 1167 1165 4 1166 1168 1169 1167 4
1168 1170 1171 1169 4 1170 1172 1173 1171 4
1172 1174 1175 1173 4 1174 1176 1177 1175 4
1176 1178 1179 1177 4 1178 1180 1181 1179 4
1180 1182 1183 1181 4 1182 1184 1185 1183 4
1184 1186 1187 1185 4 1186 1188 1189 1187 4
1188 1190 1191 1189 4 1190 1192 1193 1191 4
1192 1194 1195 1193 4 1194 1196 1197 1195 4
1196 1198 1199 1197 4 1198 1200 1201 1199 
POINT_DATA 1202
FIELD attributes 1
U 3 1202 float
1.54633 0.0341548 0 0.869961 0.0236437 0 0.869961 0.0236437 0 1.54633 0.0341548
0 0.16634 0.00856608 0 0.16634 0.00856608 0 0.122373 0.00258697 0
0.122373 0.00258697 0 0.0963839 0.000773348 0 0.0963839 0.000773348 0 0.0818387
0.00027921 0 0.0818387 0.00027921 0 0.0730744 0.000175098 0 0.0730744 0.000175098
0 0.0669324 0.000157981 0 0.0669324 0.000157981 0 0.0621559 0.000141711 0
0.0621559 0.000141711 0 0.0582725 0.000120794 0 0.0582725 0.000120794 0 0.0550478
0.000100917 0 0.0550478 0.000100917 0 0.0523158 8.58872e-05 0 0.0523158 8.58872e-05
0 0.0499514 7.56274e-05 0 0.0499514 7.56274e-05 0 0.0478661 6.77258e-05 0
0.0478661 6.77258e-05 0 0.0460021 6.11543e-05 0 0.0460021 6.11543e-05 0 0.0443202
5.55264e-05 0 0.0443202 5.55264e-05 0 0.0427916 5.0625e-05 0 0.0427916 5.0625e-05
0 0.0413944 4.63103e-05 0 0.0413944 4.63103e-05 0 0.040111 4.24881e-05 0
0.040111 4.24881e-05 0 0.0389273 3.90887e-05 0 0.0389273 3.90887e-05 0 0.0378314
3.6056e-05 0 0.0378314 3.6056e-05 0 0.0368133 3.33434e-05 0 0.0368133 3.33434e-05
0 0.0358646 3.09112e-05 0 0.0358646 3.09112e-05 0 0.0349779 2.87255e-05 0
0.0349779 2.87255e-05 0 0.0341468 2.67565e-05 0 0.0341468 2.67565e-05 0 0.0333658
2.49785e-05 0 0.0333658 2.49785e-05 0 0.0326302 2.33692e-05 0 0.0326302 2.33692e-05
0 0.0319356 2.19087e-05 0 0.0319356 2.19087e-05 0 0.0312784 2.05802e-05 0
0.0312784 2.05802e-05 0 0.0306552 1.93684e-05 0 0.0306552 1.93684e-05 0 0.0300632
1.82607e-05 0 0.0300632 1.82607e-05 0 0.0294998 1.72456e-05 0 0.0294998 1.72456e-05
0 0.0289627 1.63129e-05 0 0.0289627 1.63129e-05 0 0.0284497 1.54556e-05 0
0.0284497 1.54556e-05 0 0.0279592 1.46627e-05 0 0.0279592 1.46627e-05 0 0.0274892
1.39376e-05 0 0.0274892 1.39376e-05 0 0.0270385 1.32568e-05 0 0.0270385 1.32568e-05
0 0.0266054 1.26528e-05 0 0.0266054 1.26528e-05 0 0.0261886 1.20491e-05 0
0.0261886 1.20491e-05 0 0.0257884 1.13193e-05 0 0.0257884 1.13193e-05 0 0.0254037
1.07019e-05 0 0.0254037 1.07019e-05 0 0.0250316 1.03204e-05 0 0.0250316 1.03204e-05
0 0.0246698 1.00055e-05 0 0.0246698 1.00055e-05 0 0.0243177 9.68256e-06 0
0.0243177 9.68256e-06 0 0.0239751 9.34832e-06 0 0.0239751 9.34832e-06 0 0.0236423
9.00867e-06 0 0.0236423 9.00867e-06 0 0.0233192 8.67003e-06 0 0.0233192 8.67003e-06
0 0.0230057 8.33754e-06 0 0.0230057 8.33754e-06 0 0.0227014 8.01455e-06 0
0.0227014 8.01455e-06 0 0.0224062 7.70303e-06 0 0.0224062 7.70303e-06 0 0.0221197
7.40404e-06 0 0.0221197 7.40404e-06 0 0.0218416 7.11802e-06 0 0.0218416 7.11802e-06
0 0.0215715 6.84503e-06 0 0.0215715 6.84503e-06 0 0.0213092 6.58484e-06 0
0.0213092 6.58484e-06 0 0.0210543 6.33709e-06 0 0.0210543 6.33709e-06 0 0.0208064
6.10129e-06 0 0.0208064 6.10129e-06 0 0.0205653 5.87694e-06 0 0.0205653 5.87694e-06
0 0.0203306 5.66345e-06 0 0.0203306 5.66345e-06 0 0.0201022 5.4603e-06 0
0.0201022 5.4603e-06 0 0.0198796 5.2669e-06 0 0.0198796 5.2669e-06 0 0.0196628
5.08275e-06 0 0.0196628 5.08275e-06 0 0.0194513 4.90729e-06 0 0.0194513 4.90729e-06
0 0.0192451 4.74007e-06 0 0.0192451 4.74007e-06 0 0.0190438 4.58057e-06 0
0.0190438 4.58057e-06 0 0.0188473 4.42841e-06 0 0.0188473 4.42841e-06 0 0.0186554
4.28308e-06 0 0.0186554 4.28308e-06 0 0.0184678 4.14433e-06 0 0.0184678 4.14433e-06
0 0.0182845 4.01163e-06 0 0.0182845 4.01163e-06 0 0.0181052 3.88484e-06 0
0.0181052 3.88484e-06 0 0.0179298 3.7634e-06 0 0.0179298 3.7634e-06 0 0.0177582
3.64732e-06 0 0.0177582 3.64732e-06 0 0.0175901 3.53599e-06 0 0.0175901 3.53599e-06
0 0.0174255 3.42953e-06 0 0.0174255 3.42953e-06 0 0.0172642 3.32752e-06 0
0.0172642 3.32752e-06 0 0.0171062 3.22956e-06 0 0.0171062 3.22956e-06 0 0.0169511
3.13744e-06 0 0.0169511 3.13744e-06 0 0.0167992 3.04587e-06 0 0.0167992 3.04587e-06
0 0.0166498 2.96974e-06 0 0.0166498 2.96974e-06 0 0.0165032 2.87493e-06 0
0.0165032 2.87493e-06 0 0.01636 2.74705e-06 0 0.01636 2.74705e-06 0 0.0162194
2.67246e-06 0 0.0162194 2.67246e-06 0 0.0160804 2.6433e-06 0 0.0160804 2.6433e-06
0 0.0159423 2.60458e-06 0 0.0159423 2.60458e-06 0 0.0158056 2.55652e-06 0
0.0158056 2.55652e-06 0 0.0156705 2.50133e-06 0 0.0156705 2.50133e-06 0 0.0155374
2.4419e-06 0 0.0155374 2.4419e-06 0 0.0154062 2.38047e-06 0 0.0154062 2.38047e-06
0 0.0152772 2.31847e-06 0 0.0152772 2.31847e-06 0 0.0151503 2.25681e-06 0
0.0151503 2.25681e-06 0 0.0150254 2.19608e-06 0 0.0150254 2.19608e-06 0 0.0149028
2.13663e-06 0 0.0149028 2.13663e-06 0 0.0147821 2.07867e-06 0 0.0147821 2.07867e-06
0 0.0146636 2.02232e-06 0 0.0146636 2.02232e-06 0 0.014547 1.96765e-06 0
0.014547 1.96765e-06 0 0.0144323 1.91467e-06 0 0.0144323 1.91467e-06 0 0.0143196
1.86338e-06 0 0.0143196 1.86338e-06 0 0.0142087 1.81375e-06 0 0.0142087 1.81375e-06
0 0.0140996 1.76576e-06 0 0.0140996 1.76576e-06 0 0.0139923 1.71935e-06 0
0.0139923 1.71935e-06 0 0.0138867 1.67447e-06 0 0.0138867 1.67447e-06 0 0.0137828
1.63109e-06 0 0.0137828 1.63109e-06 0 0.0136805 1.58913e-06 0 0.0136805 1.58913e-06
0 0.0135797 1.54856e-06 0 0.0135797 1.54856e-06 0 0.0134805 1.50931e-06 0
0.0134805 1.50931e-06 0 0.0133828 1.47136e-06 0 0.0133828 1.47136e-06 0 0.0132865
1.43461e-06 0 0.0132865 1.43461e-06 0 0.0131917 1.39908e-06 0 0.0131917 1.39908e-06
0 0.0130982 1.36464e-06 0 0.0130982 1.36464e-06 0 0.013006 1.33135e-06 0
0.013006 1.33135e-06 0 0.0129152 1.29905e-06 0 0.0129152 1.29905e-06 0 0.0128256
1.26784e-06 0 0.0128256 1.26784e-06 0 0.0127373 1.23753e-06 0 0.0127373 1.23753e-06
0 0.0126501 1.20826e-06 0 0.0126501 1.20826e-06 0 0.0125642 1.17986e-06 0
0.0125642 1.17986e-06 0 0.0124793 1.15235e-06 0 0.0124793 1.15235e-06 0 0.0123956
1.12617e-06 0 0.0123956 1.12617e-06 0 0.012313 1.09974e-06 0 0.012313 1.09974e-06
0 0.0122313 1.07844e-06 0 0.0122313 1.07844e-06 0 0.0121506 1.05175e-06 0
0.0121506 1.05175e-06 0 0.0120713 1.01384e-06 0 0.0120713 1.01384e-06 0 0.011993
9.91776e-07 0 0.011993 9.91776e-07 0 0.011915 9.86661e-07 0 0.011915 9.86661e-07
0 0.011837 9.79685e-07 0 0.011837 9.79685e-07 0 0.0117591 9.67584e-07 0
0.0117591 9.67584e-07 0 0.0116818 9.5173e-07 0 0.0116818 9.5173e-07 0 0.0116051
9.33597e-07 0 0.0116051 9.33597e-07 0 0.0115292 9.14266e-07 0 0.0115292 9.14266e-07
0 0.0114542 8.94399e-07 0 0.0114542 8.94399e-07 0 0.0113801 8.744e-07 0
0.0113801 8.744e-07 0 0.0113069 8.54518e-07 0 0.0113069 8.54518e-07 0 0.0112346
8.34904e-07 0 0.0112346 8.34904e-07 0 0.0111632 8.15651e-07 0 0.0111632 8.15651e-07
0 0.0110928 7.96813e-07 0 0.0110928 7.96813e-07 0 0.0110232 7.78422e-07 0
0.0110232 7.78422e-07 0 0.0109545 7.60498e-07 0 0.0109545 7.60498e-07 0 0.0108867
7.43042e-07 0 0.0108867 7.43042e-07 0 0.0108198 7.26059e-07 0 0.0108198 7.26059e-07
0 0.0107536 7.09538e-07 0 0.0107536 7.09538e-07 0 0.0106883 6.93475e-07 0
0.0106883 6.93475e-07 0 0.0106238 6.77856e-07 0 0.0106238 6.77856e-07 0 0.0105601
6.62674e-07 0 0.0105601 6.62674e-07 0 0.0104971 6.4791e-07 0 0.0104971 6.4791e-07
0 0.0104349 6.3356e-07 0 0.0104349 6.3356e-07 0 0.0103734 6.19601e-07 0
0.0103734 6.19601e-07 0 0.0103126 6.06034e-07 0 0.0103126 6.06034e-07 0 0.0102526
5.92828e-07 0 0.0102526 5.92828e-07 0 0.0101932 5.79998e-07 0 0.0101932 5.79998e-07
0 0.0101345 5.675e-07 0 0.0101345 5.675e-07 0 0.0100764 5.55366e-07 0
0.0100764 5.55366e-07 0 0.010019 5.43533e-07 0 0.010019 5.43533e-07 0 0.00996225
5.32061e-07 0 0.00996225 5.32061e-07 0 0.00990609 5.20873e-07 0 0.00990609 5.20873e-07
0 0.00985053 5.10024e-07 0 0.00985053 5.10024e-07 0 0.00979553 4.99582e-07 0
0.00979553 4.99582e-07 0 0.00974115 4.8915e-07 0 0.00974115 4.8915e-07 0 0.00968723
4.80552e-07 0 0.00968723 4.80552e-07 0 0.00963384 4.69651e-07 0 0.00963384 4.69651e-07
0 0.00958129 4.54708e-07 0 0.00958129 4.54708e-07 0 0.00952924 4.46597e-07 0
0.00952924 4.46597e-07 0 0.00947709 4.46149e-07 0 0.00947709 4.46149e-07 0 0.00942466
4.44785e-07 0 0.00942466 4.44785e-07 0 0.00937221 4.40351e-07 0 0.00937221 4.40351e-07
0 0.00931996 4.33911e-07 0 0.00931996 4.33911e-07 0 0.00926808 4.26292e-07 0
0.00926808 4.26292e-07 0 0.00921665 4.18084e-07 0 0.00921665 4.18084e-07 0 0.00916572
4.09611e-07 0 0.00916572 4.09611e-07 0 0.00911532 4.01069e-07 0 0.00911532 4.01069e-07
0 0.00906546 3.92569e-07 0 0.00906546 3.92569e-07 0 0.00901614 3.84179e-07 0
0.00901614 3.84179e-07 0 0.00896737 3.75938e-07 0 0.00896737 3.75938e-07 0 0.00891914
3.67872e-07 0 0.00891914 3.67872e-07 0 0.00887145 3.59989e-07 0 0.00887145 3.59989e-07
0 0.00882428 3.52301e-07 0 0.00882428 3.52301e-07 0 0.00877763 3.44803e-07 0
0.00877763 3.44803e-07 0 0.00873149 3.37502e-07 0 0.00873149 3.37502e-07 0 0.00868585
3.30387e-07 0 0.00868585 3.30387e-07 0 0.00864069 3.23462e-07 0 0.00864069 3.23462e-07
0 0.00859601 3.16713e-07 0 0.00859601 3.16713e-07 0 0.0085518 3.10148e-07 0
0.0085518 3.10148e-07 0 0.00850805 3.03745e-07 0 0.00850805 3.03745e-07 0 0.00846475
2.97519e-07 0 0.00846475 2.97519e-07 0 0.00842189 2.9144e-07 0 0.00842189 2.9144e-07
0 0.00837946 2.85535e-07 0 0.00837946 2.85535e-07 0 0.00833746 2.79758e-07 0
0.00833746 2.79758e-07 0 0.00829587 2.7416e-07 0 0.00829587 2.7416e-07 0 0.00825469
2.68665e-07 0 0.00825469 2.68665e-07 0 0.0082139 2.63365e-07 0 0.0082139 2.63365e-07
0 0.00817351 2.5814e-07 0 0.00817351 2.5814e-07 0 0.0081335 2.53136e-07 0
0.0081335 2.53136e-07 0 0.00809383 2.48226e-07 0 0.00809383 2.48226e-07 0 0.00805459
2.43438e-07 0 0.00805459 2.43438e-07 0 0.00801554 2.39659e-07 0 0.00801554 2.39659e-07
0 0.00797699 2.33046e-07 0 0.00797699 2.33046e-07 0 0.00793904 2.26417e-07 0
0.00793904 2.26417e-07 0 0.00790101 2.2621e-07 0 0.00790101 2.2621e-07 0 0.0078626
2.27331e-07 0 0.0078626 2.27331e-07 0 0.00782393 2.25968e-07 0 0.00782393 2.25968e-07
0 0.00778532 2.23235e-07 0 0.00778532 2.23235e-07 0 0.00774691 2.19613e-07 0
0.00774691 2.19613e-07 0 0.00770878 2.15594e-07 0 0.00770878 2.15594e-07 0 0.007671
2.11382e-07 0 0.007671 2.11382e-07 0 0.00763358 2.07113e-07 0 0.00763358 2.07113e-07
0 0.00759654 2.02854e-07 0 0.00759654 2.02854e-07 0 0.00755988 1.98648e-07 0
0.00755988 1.98648e-07 0 0.0075236 1.94515e-07 0 0.0075236 1.94515e-07 0 0.0074877
1.90471e-07 0 0.0074877 1.90471e-07 0 0.00745218 1.86519e-07 0 0.00745218 1.86519e-07
0 0.00741702 1.82665e-07 0 0.00741702 1.82665e-07 0 0.00738223 1.78905e-07 0
0.00738223 1.78905e-07 0 0.00734779 1.75245e-07 0 0.00734779 1.75245e-07 0 0.00731369
1.71675e-07 0 0.00731369 1.71675e-07 0 0.00727994 1.682e-07 0 0.00727994 1.682e-07
0 0.00724652 1.6481e-07 0 0.00724652 1.6481e-07 0 0.00721343 1.61512e-07 0
0.00721343 1.61512e-07 0 0.00718066 1.5829e-07 0 0.00718066 1.5829e-07 0 0.00714821
1.55158e-07 0 0.00714821 1.55158e-07 0 0.00711606 1.52095e-07 0 0.00711606 1.52095e-07
0 0.00708421 1.49121e-07 0 0.00708421 1.49121e-07 0 0.00705266 1.46205e-07 0
0.00705266 1.46205e-07 0 0.0070214 1.43388e-07 0 0.0070214 1.43388e-07 0 0.00699042
1.40611e-07 0 0.00699042 1.40611e-07 0 0.00695973 1.37954e-07 0 0.00695973 1.37954e-07
0 0.00692928 1.35328e-07 0 0.00692928 1.35328e-07 0 0.00689915 1.32799e-07 0
0.00689915 1.32799e-07 0 0.00686915 1.30741e-07 0 0.00686915 1.30741e-07 0 0.00683951
1.27357e-07 0 0.00683951 1.27357e-07 0 0.00681031 1.2408e-07 0 0.00681031 1.2408e-07
0 0.00678101 1.24037e-07 0 0.00678101 1.24037e-07 0 0.00675133 1.2488e-07 0
0.00675133 1.2488e-07 0 0.00672138 1.2443e-07 0 0.00672138 1.2443e-07 0 0.00669142
1.2302e-07 0 0.00669142 1.2302e-07 0 0.00666159 1.21057e-07 0 0.00666159 1.21057e-07
0 0.006632 1.18846e-07 0 0.006632 1.18846e-07 0 0.00660266 1.16523e-07 0
0.00660266 1.16523e-07 0 0.0065736 1.14175e-07 0 0.0065736 1.14175e-07 0 0.00654484
1.11834e-07 0 0.00654484 1.11834e-07 0 0.00651637 1.0953e-07 0 0.00651637 1.0953e-07
0 0.0064882 1.07269e-07 0 0.0064882 1.07269e-07 0 0.00646031 1.0506e-07 0
0.00646031 1.0506e-07 0 0.00643271 1.02905e-07 0 0.00643271 1.02905e-07 0 0.00640538
1.00804e-07 0 0.00640538 1.00804e-07 0 0.00637834 9.87609e-08 0 0.00637834 9.87609e-08
0 0.00635156 9.6768e-08 0 0.00635156 9.6768e-08 0 0.00632504 9.48304e-08 0
0.00632504 9.48304e-08 0 0.00629878 9.29425e-08 0 0.00629878 9.29425e-08 0 0.00627277
9.1103e-08 0 0.00627277 9.1103e-08 0 0.006247 8.93139e-08 0 0.006247 8.93139e-08
0 0.00622148 8.75651e-08 0 0.00622148 8.75651e-08 0 0.00619619 8.58685e-08 0
0.00619619 8.58685e-08 0 0.00617113 8.42047e-08 0 0.00617113 8.42047e-08 0 0.0061463
8.25947e-08 0 0.0061463 8.25947e-08 0 0.00612169 8.10113e-08 0 0.00612169 8.10113e-08
0 0.0060973 7.94877e-08 0 0.0060973 7.94877e-08 0 0.0060731 7.79858e-08 0
0.0060731 7.79858e-08 0 0.00604914 7.65496e-08 0 0.00604914 7.65496e-08 0 0.00602531
7.52933e-08 0 0.00602531 7.52933e-08 0 0.00600174 7.34909e-08 0 0.00600174 7.34909e-08
0 0.0059785 7.18032e-08 0 0.0059785 7.18032e-08 0 0.00595518 7.17438e-08 0
0.00595518 7.17438e-08 0 0.00593148 7.23487e-08 0 0.00593148 7.23487e-08 0 0.00590751
7.22412e-08 0 0.00590751 7.22412e-08 0 0.00588351 7.14388e-08 0 0.00588351 7.14388e-08
0 0.00585963 7.02886e-08 0 0.00585963 7.02886e-08 0 0.00583592 6.89763e-08 0
0.00583592 6.89763e-08 0 0.00581244 6.76034e-08 0 0.00581244 6.76034e-08 0 0.00578918
6.62215e-08 0 0.00578918 6.62215e-08 0 0.00576617 6.48455e-08 0 0.00576617 6.48455e-08
0 0.0057434 6.34978e-08 0 0.0057434 6.34978e-08 0 0.00572086 6.21744e-08 0
0.00572086 6.21744e-08 0 0.00569857 6.08829e-08 0 0.00569857 6.08829e-08 0 0.0056765
5.96273e-08 0 0.0056765 5.96273e-08 0 0.00565466 5.83985e-08 0 0.00565466 5.83985e-08
0 0.00563304 5.72094e-08 0 0.00563304 5.72094e-08 0 0.00561164 5.60478e-08 0
0.00561164 5.60478e-08 0 0.00559046 5.49209e-08 0 0.00559046 5.49209e-08 0 0.00556947
5.38267e-08 0 0.00556947 5.38267e-08 0 0.00554869 5.27588e-08 0 0.00554869 5.27588e-08
0 0.00552811 5.17246e-08 0 0.00552811 5.17246e-08 0 0.00550771 5.07167e-08 0
0.00550771 5.07167e-08 0 0.00548751 4.97314e-08 0 0.00548751 4.97314e-08 0 0.00546748
4.87813e-08 0 0.00546748 4.87813e-08 0 0.00544764 4.78394e-08 0 0.00544764 4.78394e-08
0 0.00542797 4.69445e-08 0 0.00542797 4.69445e-08 0 0.00540847 4.6046e-08 0
0.00540847 4.6046e-08 0 0.00538915 4.52374e-08 0 0.00538915 4.52374e-08 0 0.00536992
4.43833e-08 0 0.00536992 4.43833e-08 0 0.00535101 4.3218e-08 0 0.00535101 4.3218e-08
0 0.00533222 4.28213e-08 0 0.00533222 4.28213e-08 0 0.00531306 4.33619e-08 0
0.00531306 4.33619e-08 0 0.00529357 4.35521e-08 0 0.00529357 4.35521e-08 0 0.00527399
4.31485e-08 0 0.00527399 4.31485e-08 0 0.00525449 4.24566e-08 0 0.00525449 4.24566e-08
0 0.00523515 4.16379e-08 0 0.00523515 4.16379e-08 0 0.005216 4.07798e-08 0
0.005216 4.07798e-08 0 0.00519705 3.99019e-08 0 0.00519705 3.99019e-08 0 0.00517832
3.90411e-08 0 0.00517832 3.90411e-08 0 0.00515981 3.81907e-08 0 0.00515981 3.81907e-08
0 0.0051415 3.73554e-08 0 0.0051415 3.73554e-08 0 0.0051234 3.655e-08 0
0.0051234 3.655e-08 0 0.00510552 3.57533e-08 0 0.00510552 3.57533e-08 0 0.00508783
3.49816e-08 0 0.00508783 3.49816e-08 0 0.00507034 3.42317e-08 0 0.00507034 3.42317e-08
0 0.00505305 3.34896e-08 0 0.00505305 3.34896e-08 0 0.00503595 3.27753e-08 0
0.00503595 3.27753e-08 0 0.00501904 3.20754e-08 0 0.00501904 3.20754e-08 0 0.00500233
3.13823e-08 0 0.00500233 3.13823e-08 0 0.00498579 3.07222e-08 0 0.00498579 3.07222e-08
0 0.00496944 3.0062e-08 0 0.00496944 3.0062e-08 0 0.00495327 2.94228e-08 0
0.00495327 2.94228e-08 0 0.00493728 2.88028e-08 0 0.00493728 2.88028e-08 0 0.00492146
2.81916e-08 0 0.00492146 2.81916e-08 0 0.00490581 2.75841e-08 0 0.00490581 2.75841e-08
0 0.00489035 2.70441e-08 0 0.00489035 2.70441e-08 0 0.004875 2.64518e-08 0
0.004875 2.64518e-08 0 0.00485996 2.56863e-08 0 0.00485996 2.56863e-08 0 0.00484504
2.54673e-08 0 0.00484504 2.54673e-08 0 0.00482979 2.58142e-08 0 0.00482979 2.58142e-08
0 0.00481429 2.58791e-08 0 0.00481429 2.58791e-08 0 0.00479877 2.55193e-08 0
0.00479877 2.55193e-08 0 0.00478339 2.49679e-08 0 0.00478339 2.49679e-08 0 0.00476822
2.43572e-08 0 0.00476822 2.43572e-08 0 0.0047533 2.36989e-08 0 0.0047533 2.36989e-08
0 0.00473863 2.30281e-08 0 0.00473863 2.30281e-08 0 0.00472423 2.23783e-08 0
0.00472423 2.23783e-08 0 0.00471011 2.17094e-08 0 0.00471011 2.17094e-08 0 0.00469626
2.10505e-08 0 0.00469626 2.10505e-08 0 0.00468268 2.04208e-08 0 0.00468268 2.04208e-08
0 0.00466939 1.97754e-08 0 0.00466939 1.97754e-08 0 0.00465639 1.91448e-08 0
0.00465639 1.91448e-08 0 0.00464366 1.85452e-08 0 0.00464366 1.85452e-08 0 0.00463121
1.79248e-08 0 0.00463121 1.79248e-08 0 0.00461906 1.73209e-08 0 0.00461906 1.73209e-08
0 0.0046072 1.6742e-08 0 0.0046072 1.6742e-08 0 0.00459563 1.6138e-08 0
0.00459563 1.6138e-08 0 0.00458437 1.55462e-08 0 0.00458437 1.55462e-08 0 0.00457342
1.49725e-08 0 0.00457342 1.49725e-08 0 0.00456277 1.43805e-08 0 0.00456277 1.43805e-08
0 0.00455246 1.37821e-08 0 0.00455246 1.37821e-08 0 0.00454247 1.32192e-08 0
0.00454247 1.32192e-08 0 0.0045328 1.26459e-08 0 0.0045328 1.26459e-08 0 0.00452348
1.20548e-08 0 0.00452348 1.20548e-08 0 0.00451449 1.14684e-08 0 0.00451449 1.14684e-08
0 0.00450589 1.09587e-08 0 0.00450589 1.09587e-08 0 0.00449743 1.07596e-08 0
0.00449743 1.07596e-08 0 0.00448891 1.07116e-08 0 0.00448891 1.07116e-08 0 0.00448045
1.04414e-08 0 0.00448045 1.04414e-08 0 0.00447224 9.96467e-09 0 0.00447224 9.96467e-09
0 0.00446435 9.45137e-09 0 0.00446435 9.45137e-09 0 0.00445682 8.91728e-09 0
0.00445682 8.91728e-09 0 0.00444969 8.33504e-09 0 0.00444969 8.33504e-09 0 0.00444295
7.78697e-09 0 0.00444295 7.78697e-09 0 0.00443658 7.28652e-09 0 0.00443658 7.28652e-09
0 0.00443059 6.75201e-09 0 0.00443059 6.75201e-09 0 0.004425 6.22681e-09 0
0.004425 6.22681e-09 0 0.00441977 5.77702e-09 0 0.00441977 5.77702e-09 0 0.00441488
5.31966e-09 0 0.00441488 5.31966e-09 0 0.00441038 4.82925e-09 0 0.00441038 4.82925e-09
0 0.00440622 4.40812e-09 0 0.00440622 4.40812e-09 0 0.00440238 4.03365e-09 0
0.00440238 4.03365e-09 0 0.00439888 3.61345e-09 0 0.00439888 3.61345e-09 0 0.00439571
3.21776e-09 0 0.00439571 3.21776e-09 0 0.00439283 2.90445e-09 0 0.00439283 2.90445e-09
0 0.00439025 2.56176e-09 0 0.00439025 2.56176e-09 0 0.004388 2.16673e-09 0
0.004388 2.16673e-09 0 0.00438606 1.85154e-09 0 0.00438606 1.85154e-09 0 0.00438436
1.60492e-09 0 0.00438436 1.60492e-09 0 0.00438293 1.29206e-09 0 0.00438293 1.29206e-09
0 0.00438182 9.62248e-10 0 0.00438182 9.62248e-10 0 0.00438095 7.39927e-10 0
0.00438095 7.39927e-10 0 0.00438029 5.54157e-10 0 0.00438029 5.54157e-10 0 0.00437987
2.61054e-10 0 0.00437987 2.61054e-10 0 0.00437979 -1.25708e-11 0 0.00437979 -1.25708e-11
0 0.00437985 -2.96731e-11 0 0.00437985 -2.96731e-11 0 0.00437981 5.06169e-11 0
0.00437981 5.06169e-11 0 0.00437979 -3.32262e-11 0 0.00437979 -3.32262e-11 0 0.00437992
-2.10465e-10 0 0.00437992 -2.10465e-10 0 0.00438021 -3.50086e-10 0 0.00438021 -3.50086e-10
0 0.00438068 -4.9818e-10 0 0.00438068 -4.9818e-10 0 0.00438137 -7.15786e-10 0
0.00438137 -7.15786e-10 0 0.00438231 -9.28829e-10 0 0.00438231 -9.28829e-10 0 0.00438344
-1.06031e-09 0 0.00438344 -1.06031e-09 0 0.00438472 -1.1671e-09 0 0.00438472 -1.1671e-09
0 0.0043862 -1.33777e-09 0 0.0043862 -1.33777e-09 0 0.00438794 -1.55386e-09 0
0.00438794 -1.55386e-09 0 0.00438992 -1.73447e-09 0 0.00438992 -1.73447e-09 0 0.00439209
-1.85901e-09 0 0.00439209 -1.85901e-09 0 0.00439443 -1.97589e-09 0 0.00439443 -1.97589e-09
0 0.00439696 -2.11551e-09 0 0.00439696 -2.11551e-09 0 0.00439968 -2.25124e-09 0
0.00439968 -2.25124e-09 0 0.00440257 -2.34813e-09 0 0.00440257 -2.34813e-09 0 0.00440559
-2.41569e-09 0 0.00440559 -2.41569e-09 0 0.00440875 -2.49495e-09 0 0.00440875 -2.49495e-09
0 0.00441207 -2.60507e-09 0 0.00441207 -2.60507e-09 0 0.00441557 -2.71774e-09 0
0.00441557 -2.71774e-09 0 0.00441922 -2.79019e-09 0 0.00441922 -2.79019e-09 0 0.00442297
-2.81891e-09 0 0.00442297 -2.81891e-09 0 0.0044268 -2.84915e-09 0 0.0044268 -2.84915e-09
0 0.00443077 -2.92777e-09 0 0.00443077 -2.92777e-09 0 0.00443493 -3.04922e-09 0
0.00443493 -3.04922e-09 0 0.00443927 -3.15604e-09 0 0.00443927 -3.15604e-09 0 0.00444374
-3.191e-09 0 0.00444374 -3.191e-09 0 0.00444823 -3.17074e-09 0 0.00444823 -3.17074e-09
0 0.00445277 -3.13015e-09 0 0.00445277 -3.13015e-09 0 0.0044573 -3.04711e-09 0
0.0044573 -3.04711e-09 0 0.00446174 -2.96012e-09 0 0.00446174 -2.96012e-09 0 0.00446613
-2.94238e-09 0 0.00446613 -2.94238e-09 0 0.00447057 -2.97081e-09 0 0.00447057 -2.97081e-09
0 0.00447507 -2.98865e-09 0 0.00447507 -2.98865e-09 0 0.00447963 -2.98204e-09 0
0.00447963 -2.98204e-09 0 0.00448421 -2.96957e-09 0 0.00448421 -2.96957e-09 0 0.00448885
-2.97398e-09 0 0.00448885 -2.97398e-09 0 0.00449359 -3.00463e-09 0 0.00449359 -3.00463e-09
0 0.00449844 -3.05515e-09 0 0.00449844 -3.05515e-09 0 0.00450343 -3.11099e-09 0
0.00450343 -3.11099e-09 0 0.00450855 -3.15897e-09 0 0.00450855 -3.15897e-09 0 0.00451379
-3.19292e-09 0 0.00451379 -3.19292e-09 0 0.00451912 -3.2147e-09 0 0.00451912 -3.2147e-09
0 0.00452454 -3.23035e-09 0 0.00452454 -3.23035e-09 0 0.00453004 -3.24513e-09 0
0.00453004 -3.24513e-09 0 0.00453563 -3.26221e-09 0 0.00453563 -3.26221e-09 0 0.00454132
-3.28163e-09 0 0.00454132 -3.28163e-09 0 0.0045471 -3.30123e-09 0 0.0045471 -3.30123e-09
0 0.00455297 -3.31906e-09 0 0.00455297 -3.31906e-09 0 0.00455893 -3.33385e-09 0
0.00455893 -3.33385e-09 0 0.00456498 -3.34512e-09 0 0.00456498 -3.34512e-09 0 0.00457111
-3.3544e-09 0 0.00457111 -3.3544e-09 0 0.00457733 -3.3626e-09 0 0.00457733 -3.3626e-09
0 0.00458362 -3.36957e-09 0 0.00458362 -3.36957e-09 0 0.00458999 -3.37591e-09 0
0.00458999 -3.37591e-09 0 0.00459643 -3.38149e-09 0 0.00459643 -3.38149e-09 0 0.00460295
-3.38574e-09 0 0.00460295 -3.38574e-09 0 0.00460955 -3.38664e-09 0 0.00460955 -3.38664e-09
0 0.00461622 -3.39206e-09 0 0.00461622 -3.39206e-09 0 0.00462297 -3.37715e-09 0
0.00462297 -3.37715e-09 0 0.0046297 -3.29516e-09 0 0.0046297 -3.29516e-09 0 0.00463626
-3.18349e-09 0 0.00463626 -3.18349e-09 0 0.00464268 -3.10641e-09 0 0.00464268 -3.10641e-09
0 0.00464907 -3.0682e-09 0 0.00464907 -3.0682e-09 0 0.00465547 -3.05096e-09 0
0.00465547 -3.05096e-09 0 0.00466192 -3.04438e-09 0 0.00466192 -3.04438e-09 0 0.00466842
-3.04272e-09 0 0.00466842 -3.04272e-09 0 0.004675 -3.0422e-09 0 0.004675 -3.0422e-09
0 0.00468164 -3.04293e-09 0 0.00468164 -3.04293e-09 0 0.00468835 -3.044e-09 0
0.00468835 -3.044e-09 0 0.00469514 -3.04426e-09 0 0.00469514 -3.04426e-09 0 0.00470199
-3.04396e-09 0 0.00470199 -3.04396e-09 0 0.00470892 -3.04294e-09 0 0.00470892 -3.04294e-09
0 0.00471591 -3.04133e-09 0 0.00471591 -3.04133e-09 0 0.00472297 -3.03911e-09 0
0.00472297 -3.03911e-09 0 0.0047301 -3.03622e-09 0 0.0047301 -3.03622e-09 0 0.0047373
-3.03274e-09 0 0.0047373 -3.03274e-09 0 0.00474456 -3.02882e-09 0 0.00474456 -3.02882e-09
0 0.00475189 -3.02418e-09 0 0.00475189 -3.02418e-09 0 0.00475928 -3.0188e-09 0
0.00475928 -3.0188e-09 0 0.00476674 -3.01296e-09 0 0.00476674 -3.01296e-09 0 0.00477426
-3.00669e-09 0 0.00477426 -3.00669e-09 0 0.00478184 -2.99996e-09 0 0.00478184 -2.99996e-09
0 0.00478948 -2.99272e-09 0 0.00478948 -2.99272e-09 0 0.00479718 -2.98516e-09 0
0.00479718 -2.98516e-09 0 0.00480494 -2.97699e-09 0 0.00480494 -2.97699e-09 0 0.00481277
-2.96786e-09 0 0.00481277 -2.96786e-09 0 0.00482064 -2.95864e-09 0 0.00482064 -2.95864e-09
0 0.00482858 -2.94994e-09 0 0.00482858 -2.94994e-09 0 0.00483657 -2.91554e-09 0
0.00483657 -2.91554e-09 0 0.00484448 -2.83605e-09 0 0.00484448 -2.83605e-09 0 0.0048522
-2.75368e-09 0 0.0048522 -2.75368e-09 0 0.00485981 -2.70227e-09 0 0.00485981 -2.70227e-09
0 0.00486741 -2.67354e-09 0 0.00486741 -2.67354e-09 0 0.00487502 -2.65663e-09 0
0.00487502 -2.65663e-09 0 0.00488268 -2.64526e-09 0 0.00488268 -2.64526e-09 0 0.00489038
-2.6365e-09 0 0.00489038 -2.6365e-09 0 0.00489815 -2.6291e-09 0 0.00489815 -2.6291e-09
0 0.00490597 -2.62224e-09 0 0.00490597 -2.62224e-09 0 0.00491386 -2.61539e-09 0
0.00491386 -2.61539e-09 0 0.0049218 -2.60826e-09 0 0.0049218 -2.60826e-09 0 0.00492981
-2.6012e-09 0 0.00492981 -2.6012e-09 0 0.00493788 -2.59391e-09 0 0.00493788 -2.59391e-09
0 0.00494601 -2.58623e-09 0 0.00494601 -2.58623e-09 0 0.0049542 -2.57825e-09 0
0.0049542 -2.57825e-09 0 0.00496245 -2.56971e-09 0 0.00496245 -2.56971e-09 0 0.00497075
-2.56113e-09 0 0.00497075 -2.56113e-09 0 0.00497912 -2.55235e-09 0 0.00497912 -2.55235e-09
0 0.00498754 -2.54295e-09 0 0.00498754 -2.54295e-09 0 0.00499601 -2.5334e-09 0
0.00499601 -2.5334e-09 0 0.00500455 -2.5236e-09 0 0.00500455 -2.5236e-09 0 0.00501314
-2.51349e-09 0 0.00501314 -2.51349e-09 0 0.00502178 -2.50326e-09 0 0.00502178 -2.50326e-09
0 0.00503047 -2.49251e-09 0 0.00503047 -2.49251e-09 0 0.00503922 -2.48143e-09 0
0.00503922 -2.48143e-09 0 0.00504802 -2.46999e-09 0 0.00504802 -2.46999e-09 0 0.00505688
-2.45984e-09 0 0.00505688 -2.45984e-09 0 0.00506579 -2.43622e-09 0 0.00506579 -2.43622e-09
0 0.00507464 -2.38033e-09 0 0.00507464 -2.38033e-09 0 0.00508332 -2.31418e-09 0
0.00508332 -2.31418e-09 0 0.00509188 -2.26699e-09 0 0.00509188 -2.26699e-09 0 0.00510039
-2.23912e-09 0 0.00510039 -2.23912e-09 0 0.0051089 -2.22073e-09 0 0.0051089 -2.22073e-09
0 0.00511745 -2.20725e-09 0 0.00511745 -2.20725e-09 0 0.00512604 -2.19629e-09 0
0.00512604 -2.19629e-09 0 0.00513467 -2.18603e-09 0 0.00513467 -2.18603e-09 0 0.00514336
-2.17671e-09 0 0.00514336 -2.17671e-09 0 0.00515211 -2.16748e-09 0 0.00515211 -2.16748e-09
0 0.00516091 -2.15825e-09 0 0.00516091 -2.15825e-09 0 0.00516976 -2.14903e-09 0
0.00516976 -2.14903e-09 0 0.00517866 -2.13985e-09 0 0.00517866 -2.13985e-09 0 0.00518762
-2.13002e-09 0 0.00518762 -2.13002e-09 0 0.00519663 -2.11998e-09 0 0.00519663 -2.11998e-09
0 0.0052057 -2.11029e-09 0 0.0052057 -2.11029e-09 0 0.00521482 -2.10074e-09 0
0.00521482 -2.10074e-09 0 0.00522398 -2.09094e-09 0 0.00522398 -2.09094e-09 0 0.0052332
-2.08074e-09 0 0.0052332 -2.08074e-09 0 0.00524247 -2.07035e-09 0 0.00524247 -2.07035e-09
0 0.00525179 -2.0597e-09 0 0.00525179 -2.0597e-09 0 0.00526115 -2.04886e-09 0
0.00526115 -2.04886e-09 0 0.00527057 -2.03804e-09 0 0.00527057 -2.03804e-09 0 0.00528003
-2.02701e-09 0 0.00528003 -2.02701e-09 0 0.00528954 -2.01594e-09 0 0.00528954 -2.01594e-09
0 0.00529909 -2.00452e-09 0 0.00529909 -2.00452e-09 0 0.00530869 -1.97885e-09 0
0.00530869 -1.97885e-09 0 0.00531819 -1.93023e-09 0 0.00531819 -1.93023e-09 0 0.00532751
-1.88057e-09 0 0.00532751 -1.88057e-09 0 0.00533672 -1.8473e-09 0 0.00533672 -1.8473e-09
0 0.00534591 -1.82612e-09 0 0.00534591 -1.82612e-09 0 0.0053551 -1.81099e-09 0
0.0053551 -1.81099e-09 0 0.00536432 -1.79889e-09 0 0.00536432 -1.79889e-09 0 0.00537358
-1.7883e-09 0 0.00537358 -1.7883e-09 0 0.00538288 -1.77821e-09 0 0.00538288 -1.77821e-09
0 0.00539223 -1.7687e-09 0 0.00539223 -1.7687e-09 0 0.00540163 -1.75942e-09 0
0.00540163 -1.75942e-09 0 0.00541108 -1.75017e-09 0 0.00541108 -1.75017e-09 0 0.00542057
-1.74113e-09 0 0.00542057 -1.74113e-09 0 0.00543011 -1.73153e-09 0 0.00543011 -1.73153e-09
0 0.0054397 -1.72195e-09 0 0.0054397 -1.72195e-09 0 0.00544933 -1.71262e-09 0
0.00544933 -1.71262e-09 0 0.00545901 -1.70277e-09 0 0.00545901 -1.70277e-09 0 0.00546874
-1.69306e-09 0 0.00546874 -1.69306e-09 0 0.00547851 -1.6836e-09 0 0.00547851 -1.6836e-09
0 0.00548833 -1.67376e-09 0 0.00548833 -1.67376e-09 0 0.00549819 -1.66404e-09 0
0.00549819 -1.66404e-09 0 0.0055081 -1.65389e-09 0 0.0055081 -1.65389e-09 0 0.00551804
-1.64367e-09 0 0.00551804 -1.64367e-09 0 0.00552803 -1.63346e-09 0 0.00552803 -1.63346e-09
0 0.00553806 -1.62353e-09 0 0.00553806 -1.62353e-09 0 0.00554814 -1.60627e-09 0
0.00554814 -1.60627e-09 0 0.00555815 -1.57122e-09 0 0.00555815 -1.57122e-09 0 0.00556799
-1.53071e-09 0 0.00556799 -1.53071e-09 0 0.0055777 -1.50058e-09 0 0.0055777 -1.50058e-09
0 0.00558736 -1.48104e-09 0 0.00558736 -1.48104e-09 0 0.00559702 -1.46737e-09 0
0.00559702 -1.46737e-09 0 0.0056067 -1.45634e-09 0 0.0056067 -1.45634e-09 0 0.00561641
-1.44644e-09 0 0.00561641 -1.44644e-09 0 0.00562616 -1.437e-09 0 0.00562616 -1.437e-09
0 0.00563595 -1.42822e-09 0 0.00563595 -1.42822e-09 0 0.00564578 -1.41945e-09 0
0.00564578 -1.41945e-09 0 0.00565565 -1.41099e-09 0 0.00565565 -1.41099e-09 0 0.00566557
-1.40257e-09 0 0.00566557 -1.40257e-09 0 0.00567553 -1.39372e-09 0 0.00567553 -1.39372e-09
0 0.00568553 -1.38499e-09 0 0.00568553 -1.38499e-09 0 0.00569557 -1.37681e-09 0
0.00569557 -1.37681e-09 0 0.00570565 -1.36822e-09 0 0.00570565 -1.36822e-09 0 0.00571577
-1.35899e-09 0 0.00571577 -1.35899e-09 0 0.00572593 -1.35019e-09 0 0.00572593 -1.35019e-09
0 0.00573614 -1.3416e-09 0 0.00573614 -1.3416e-09 0 0.00574638 -1.33272e-09 0
0.00574638 -1.33272e-09 0 0.00575666 -1.32365e-09 0 0.00575666 -1.32365e-09 0 0.00576697
-1.31488e-09 0 0.00576697 -1.31488e-09 0 0.00577733 -1.30544e-09 0 0.00577733 -1.30544e-09
0 0.00578771 -1.28845e-09 0 0.00578771 -1.28845e-09 0 0.00579801 -1.25851e-09 0
0.00579801 -1.25851e-09 0 0.00580812 -1.22681e-09 0 0.00580812 -1.22681e-09 0 0.00581812
-1.20514e-09 0 0.00581812 -1.20514e-09 0 0.00582808 -1.1908e-09 0 0.00582808 -1.1908e-09
0 0.00583804 -1.17966e-09 0 0.00583804 -1.17966e-09 0 0.00584802 -1.17059e-09 0
0.00584802 -1.17059e-09 0 0.00585803 -1.16174e-09 0 0.00585803 -1.16174e-09 0 0.00586807
-1.15351e-09 0 0.00586807 -1.15351e-09 0 0.00587815 -1.146e-09 0 0.00587815 -1.146e-09
0 0.00588827 -1.13854e-09 0 0.00588827 -1.13854e-09 0 0.00589843 -1.1311e-09 0
0.00589843 -1.1311e-09 0 0.00590862 -1.12356e-09 0 0.00590862 -1.12356e-09 0 0.00591885
-1.11606e-09 0 0.00591885 -1.11606e-09 0 0.00592912 -1.10841e-09 0 0.00592912 -1.10841e-09
0 0.00593942 -1.10073e-09 0 0.00593942 -1.10073e-09 0 0.00594976 -1.09317e-09 0
0.00594976 -1.09317e-09 0 0.00596013 -1.08542e-09 0 0.00596013 -1.08542e-09 0 0.00597054
-1.07834e-09 0 0.00597054 -1.07834e-09 0 0.00598099 -1.07008e-09 0 0.00598099 -1.07008e-09
0 0.00599145 -1.06379e-09 0 0.00599145 -1.06379e-09 0 0.006002 -1.05404e-09 0
0.006002 -1.05404e-09 0 0.00601249 -1.04579e-09 0 0.00601249 -1.04579e-09 0 0.0060231
-1.02146e-09 0 0.0060231 -1.02146e-09 0 0.0060333 -9.99395e-10 0 0.0060333 -9.99395e-10
0 0.00604368 -9.75601e-10 0 0.00604368 -9.75601e-10 0 0.00605359 -9.6284e-10 0
0.00605359 -9.6284e-10 0 0.00606392 -9.55915e-10 0 0.00606392 -9.55915e-10 0 0.00607389
-9.39705e-10 0 0.00607389 -9.39705e-10 0 0.00608409 -9.48938e-10 0 0.00608409 -9.48938e-10
0 0.00609446 -9.08064e-10 0 0.00609446 -9.08064e-10 0 0.00610398 -9.72392e-10 0
0.00610398 -9.72392e-10 0 0.0132822 -1.5327e-09 0 0.0132822 -1.5327e-09 0 0.0204611
-1.98335e-09 0 0.0204611 -1.98335e-09 0 
