# vtk DataFile Version 2.0
sampleSurface
ASCII
DATASET POLYDATA
POINTS 1202 float
0 0 0 5.99825e-05 0 0 5.99825e-05 0 0.1 0 0
0.1 0.000120591 0 0 0.000120591 0 0.1 0.000181831 0 0
0.000181831 0 0.1 0.000243709 0 0 0.000243709 0 0.1 0.000306234
0 0 0.000306234 0 0.1 0.00036941 0 0 0.00036941 0
0.1 0.000433245 0 0 0.000433245 0 0.1 0.000497746 0 0
0.000497746 0 0.1 0.000562919 0 0 0.000562919 0 0.1 0.000628772
0 0 0.000628772 0 0.1 0.000695312 0 0 0.000695312 0
0.1 0.000762546 0 0 0.000762546 0 0.1 0.000830481 0 0
0.000830481 0 0.1 0.000899125 0 0 0.000899125 0 0.1 0.000968484
0 0 0.000968484 0 0.1 0.00103857 0 0 0.00103857 0
0.1 0.00110938 0 0 0.00110938 0 0.1 0.00118093 0 0
0.00118093 0 0.1 0.00125323 0 0 0.00125323 0 0.1 0.00132628
0 0 0.00132628 0 0.1 0.0014001 0 0 0.0014001 0
0.1 0.00147468 0 0 0.00147468 0 0.1 0.00155004 0 0
0.00155004 0 0.1 0.00162619 0 0 0.00162619 0 0.1 0.00170313
0 0 0.00170313 0 0.1 0.00178088 0 0 0.00178088 0
0.1 0.00185943 0 0 0.00185943 0 0.1 0.00193881 0 0
0.00193881 0 0.1 0.00201901 0 0 0.00201901 0 0.1 0.00210005
0 0 0.00210005 0 0.1 0.00218193 0 0 0.00218193 0
0.1 0.00226467 0 0 0.00226467 0 0.1 0.00234827 0 0
0.00234827 0 0.1 0.00243274 0 0 0.00243274 0 0.1 0.0025181
0 0 0.0025181 0 0.1 0.00260434 0 0 0.00260434 0
0.1 0.00269148 0 0 0.00269148 0 0.1 0.00277954 0 0
0.00277954 0 0.1 0.00286851 0 0 0.00286851 0 0.1 0.0029584
0 0 0.0029584 0 0.1 0.00304924 0 0 0.00304924 0
0.1 0.00314102 0 0 0.00314102 0 0.1 0.00323376 0 0
0.00323376 0 0.1 0.00332747 0 0 0.00332747 0 0.1 0.00342215
0 0 0.00342215 0 0.1 0.00351783 0 0 0.00351783 0
0.1 0.0036145 0 0 0.0036145 0 0.1 0.00371217 0 0
0.00371217 0 0.1 0.00381087 0 0 0.00381087 0 0.1 0.0039106
0 0 0.0039106 0 0.1 0.00401136 0 0 0.00401136 0
0.1 0.00411318 0 0 0.00411318 0 0.1 0.00421606 0 0
0.00421606 0 0.1 0.00432001 0 0 0.00432001 0 0.1 0.00442505
0 0 0.00442505 0 0.1 0.00453118 0 0 0.00453118 0
0.1 0.00463842 0 0 0.00463842 0 0.1 0.00474677 0 0
0.00474677 0 0.1 0.00485626 0 0 0.00485626 0 0.1 0.00496689
0 0 0.00496689 0 0.1 0.00507867 0 0 0.00507867 0
0.1 0.00519162 0 0 0.00519162 0 0.1 0.00530574 0 0
0.00530574 0 0.1 0.00542106 0 0 0.00542106 0 0.1 0.00553758
0 0 0.00553758 0 0.1 0.00565531 0 0 0.00565531 0
0.1 0.00577427 0 0 0.00577427 0 0.1 0.00589447 0 0
0.00589447 0 0.1 0.00601593 0 0 0.00601593 0 0.1 0.00613865
0 0 0.00613865 0 0.1 0.00626266 0 0 0.00626266 0
0.1 0.00638795 0 0 0.00638795 0 0.1 0.00651455 0 0
0.00651455 0 0.1 0.00664248 0 0 0.00664248 0 0.1 0.00677173
0 0 0.00677173 0 0.1 0.00690234 0 0 0.00690234 0
0.1 0.0070343 0 0 0.0070343 0 0.1 0.00716765 0 0
0.00716765 0 0.1 0.00730238 0 0 0.00730238 0 0.1 0.00743852
0 0 0.00743852 0 0.1 0.00757608 0 0 0.00757608 0
0.1 0.00771507 0 0 0.00771507 0 0.1 0.00785551 0 0
0.00785551 0 0.1 0.00799742 0 0 0.00799742 0 0.1 0.00814081
0 0 0.00814081 0 0.1 0.00828569 0 0 0.00828569 0
0.1 0.00843209 0 0 0.00843209 0 0.1 0.00858001 0 0
0.00858001 0 0.1 0.00872947 0 0 0.00872947 0 0.1 0.00888049
0 0 0.00888049 0 0.1 0.00903309 0 0 0.00903309 0
0.1 0.00918728 0 0 0.00918728 0 0.1 0.00934307 0 0
0.00934307 0 0.1 0.00950049 0 0 0.00950049 0 0.1 0.00965956
0 0 0.00965956 0 0.1 0.00982028 0 0 0.00982028 0
0.1 0.00998268 0 0 0.00998268 0 0.1 0.0101468 0 0
0.0101468 0 0.1 0.0103126 0 0 0.0103126 0 0.1 0.0104801
0 0 0.0104801 0 0.1 0.0106494 0 0 0.0106494 0
0.1 0.0108204 0 0 0.0108204 0 0.1 0.0109933 0 0
0.0109933 0 0.1 0.0111679 0 0 0.0111679 0 0.1 0.0113443
0 0 0.0113443 0 0.1 0.0115226 0 0 0.0115226 0
0.1 0.0117028 0 0 0.0117028 0 0.1 0.0118848 0 0
0.0118848 0 0.1 0.0120687 0 0 0.0120687 0 0.1 0.0122546
0 0 0.0122546 0 0.1 0.0124424 0 0 0.0124424 0
0.1 0.0126321 0 0 0.0126321 0 0.1 0.0128238 0 0
0.0128238 0 0.1 0.0130176 0 0 0.0130176 0 0.1 0.0132133
0 0 0.0132133 0 0.1 0.0134111 0 0 0.0134111 0
0.1 0.0136109 0 0 0.0136109 0 0.1 0.0138129 0 0
0.0138129 0 0.1 0.0140169 0 0 0.0140169 0 0.1 0.0142231
0 0 0.0142231 0 0.1 0.0144314 0 0 0.0144314 0
0.1 0.0146419 0 0 0.0146419 0 0.1 0.0148546 0 0
0.0148546 0 0.1 0.0150695 0 0 0.0150695 0 0.1 0.0152866
0 0 0.0152866 0 0.1 0.015506 0 0 0.015506 0
0.1 0.0157277 0 0 0.0157277 0 0.1 0.0159517 0 0
0.0159517 0 0.1 0.016178 0 0 0.016178 0 0.1 0.0164067
0 0 0.0164067 0 0.1 0.0166378 0 0 0.0166378 0
0.1 0.0168713 0 0 0.0168713 0 0.1 0.0171073 0 0
0.0171073 0 0.1 0.0173457 0 0 0.0173457 0 0.1 0.0175865
0 0 0.0175865 0 0.1 0.0178299 0 0 0.0178299 0
0.1 0.0180759 0 0 0.0180759 0 0.1 0.0183244 0 0
0.0183244 0 0.1 0.0185754 0 0 0.0185754 0 0.1 0.0188291
0 0 0.0188291 0 0.1 0.0190855 0 0 0.0190855 0
0.1 0.0193445 0 0 0.0193445 0 0.1 0.0196063 0 0
0.0196063 0 0.1 0.0198707 0 0 0.0198707 0 0.1 0.0201379
0 0 0.0201379 0 0.1 0.0204079 0 0 0.0204079 0
0.1 0.0206807 0 0 0.0206807 0 0.1 0.0209564 0 0
0.0209564 0 0.1 0.0212349 0 0 0.0212349 0 0.1 0.0215164
0 0 0.0215164 0 0.1 0.0218008 0 0 0.0218008 0
0.1 0.0220881 0 0 0.0220881 0 0.1 0.0223784 0 0
0.0223784 0 0.1 0.0226718 0 0 0.0226718 0 0.1 0.0229682
0 0 0.0229682 0 0.1 0.0232677 0 0 0.0232677 0
0.1 0.0235704 0 0 0.0235704 0 0.1 0.0238762 0 0
0.0238762 0 0.1 0.0241852 0 0 0.0241852 0 0.1 0.0244974
0 0 0.0244974 0 0.1 0.0248128 0 0 0.0248128 0
0.1 0.0251316 0 0 0.0251316 0 0.1 0.0254537 0 0
0.0254537 0 0.1 0.0257791 0 0 0.0257791 0 0.1 0.0261079
0 0 0.0261079 0 0.1 0.0264402 0 0 0.0264402 0
0.1 0.0267759 0 0 0.0267759 0 0.1 0.0271152 0 0
0.0271152 0 0.1 0.0274579 0 0 0.0274579 0 0.1 0.0278043
0 0 0.0278043 0 0.1 0.0281542 0 0 0.0281542 0
0.1 0.0285078 0 0 0.0285078 0 0.1 0.0288651 0 0
0.0288651 0 0.1 0.0292261 0 0 0.0292261 0 0.1 0.0295909
0 0 0.0295909 0 0.1 0.0299595 0 0 0.0299595 0
0.1 0.0303319 0 0 0.0303319 0 0.1 0.0307082 0 0
0.0307082 0 0.1 0.0310885 0 0 0.0310885 0 0.1 0.0314727
0 0 0.0314727 0 0.1 0.0318609 0 0 0.0318609 0
0.1 0.0322532 0 0 0.0322532 0 0.1 0.0326495 0 0
0.0326495 0 0.1 0.03305 0 0 0.03305 0 0.1 0.0334546
0 0 0.0334546 0 0.1 0.0338635 0 0 0.0338635 0
0.1 0.0342767 0 0 0.0342767 0 0.1 0.0346941 0 0
0.0346941 0 0.1 0.0351159 0 0 0.0351159 0 0.1 0.0355421
0 0 0.0355421 0 0.1 0.0359728 0 0 0.0359728 0
0.1 0.0364079 0 0 0.0364079 0 0.1 0.0368476 0 0
0.0368476 0 0.1 0.0372919 0 0 0.0372919 0 0.1 0.0377408
0 0 0.0377408 0 0.1 0.0381944 0 0 0.0381944 0
0.1 0.0386527 0 0 0.0386527 0 0.1 0.0391158 0 0
0.0391158 0 0.1 0.0395837 0 0 0.0395837 0 0.1 0.0400565
0 0 0.0400565 0 0.1 0.0405342 0 0 0.0405342 0
0.1 0.0410169 0 0 0.0410169 0 0.1 0.0415047 0 0
0.0415047 0 0.1 0.0419975 0 0 0.0419975 0 0.1 0.0424955
0 0 0.0424955 0 0.1 0.0429986 0 0 0.0429986 0
0.1 0.0435071 0 0 0.0435071 0 0.1 0.0440208 0 0
0.0440208 0 0.1 0.0445398 0 0 0.0445398 0 0.1 0.0450643
0 0 0.0450643 0 0.1 0.0455943 0 0 0.0455943 0
0.1 0.0461298 0 0 0.0461298 0 0.1 0.0466708 0 0
0.0466708 0 0.1 0.0472176 0 0 0.0472176 0 0.1 0.04777
0 0 0.04777 0 0.1 0.0483281 0 0 0.0483281 0
0.1 0.0488921 0 0 0.0488921 0 0.1 0.049462 0 0
0.049462 0 0.1 0.0500378 0 0 0.0500378 0 0.1 0.0506197
0 0 0.0506197 0 0.1 0.0512076 0 0 0.0512076 0
0.1 0.0518016 0 0 0.0518016 0 0.1 0.0524018 0 0
0.0524018 0 0.1 0.0530083 0 0 0.0530083 0 0.1 0.0536211
0 0 0.0536211 0 0.1 0.0542403 0 0 0.0542403 0
0.1 0.0548659 0 0 0.0548659 0 0.1 0.0554981 0 0
0.0554981 0 0.1 0.0561369 0 0 0.0561369 0 0.1 0.0567823
0 0 0.0567823 0 0.1 0.0574345 0 0 0.0574345 0
0.1 0.0580934 0 0 0.0580934 0 0.1 0.0587593 0 0
0.0587593 0 0.1 0.0594321 0 0 0.0594321 0 0.1 0.0601119
0 0 0.0601119 0 0.1 0.0607987 0 0 0.0607987 0
0.1 0.0614928 0 0 0.0614928 0 0.1 0.0621941 0 0
0.0621941 0 0.1 0.0629027 0 0 0.0629027 0 0.1 0.0636187
0 0 0.0636187 0 0.1 0.0643421 0 0 0.0643421 0
0.1 0.0650732 0 0 0.0650732 0 0.1 0.0658118 0 0
0.0658118 0 0.1 0.0665581 0 0 0.0665581 0 0.1 0.0673122
0 0 0.0673122 0 0.1 0.0680742 0 0 0.0680742 0
0.1 0.0688441 0 0 0.0688441 0 0.1 0.0696221 0 0
0.0696221 0 0.1 0.0704082 0 0 0.0704082 0 0.1 0.0712024
0 0 0.0712024 0 0.1 0.072005 0 0 0.072005 0
0.1 0.0728159 0 0 0.0728159 0 0.1 0.0736353 0 0
0.0736353 0 0.1 0.0744632 0 0 0.0744632 0 0.1 0.0752998
0 0 0.0752998 0 0.1 0.076145 0 0 0.076145 0
0.1 0.0769991 0 0 0.0769991 0 0.1 0.0778621 0 0
0.0778621 0 0.1 0.0787342 0 0 0.0787342 0 0.1 0.0796153
0 0 0.0796153 0 0.1 0.0805055 0 0 0.0805055 0
0.1 0.0814051 0 0 0.0814051 0 0.1 0.0823141 0 0
0.0823141 0 0.1 0.0832325 0 0 0.0832325 0 0.1 0.0841605
0 0 0.0841605 0 0.1 0.0850982 0 0 0.0850982 0
0.1 0.0860457 0 0 0.0860457 0 0.1 0.087003 0 0
0.087003 0 0.1 0.0879704 0 0 0.0879704 0 0.1 0.0889478
0 0 0.0889478 0 0.1 0.0899354 0 0 0.0899354 0
0.1 0.0909333 0 0 0.0909333 0 0.1 0.0919416 0 0
0.0919416 0 0.1 0.0929605 0 0 0.0929605 0 0.1 0.0939899
0 0 0.0939899 0 0.1 0.0950302 0 0 0.0950302 0
0.1 0.0960812 0 0 0.0960812 0 0.1 0.0971432 0 0
0.0971432 0 0.1 0.0982163 0 0 0.0982163 0 0.1 0.0993006
0 0 0.0993006 0 0.1 0.100396 0 0 0.100396 0
0.1 0.101503 0 0 0.101503 0 0.1 0.102622 0 0
0.102622 0 0.1 0.103752 0 0 0.103752 0 0.1 0.104894
0 0 0.104894 0 0.1 0.106048 0 0 0.106048 0
0.1 0.107214 0 0 0.107214 0 0.1 0.108392 0 0
0.108392 0 0.1 0.109582 0 0 0.109582 0 0.1 0.110785
0 0 0.110785 0 0.1 0.112001 0 0 0.112001 0
0.1 0.113229 0 0 0.113229 0 0.1 0.114469 0 0
0.114469 0 0.1 0.115723 0 0 0.115723 0 0.1 0.11699
0 0 0.11699 0 0.1 0.11827 0 0 0.11827 0
0.1 0.119564 0 0 0.119564 0 0.1 0.12087 0 0
0.12087 0 0.1 0.122191 0 0 0.122191 0 0.1 0.123525
0 0 0.123525 0 0.1 0.124873 0 0 0.124873 0
0.1 0.126236 0 0 0.126236 0 0.1 0.127612 0 0
0.127612 0 0.1 0.129003 0 0 0.129003 0 0.1 0.130408
0 0 0.130408 0 0.1 0.131828 0 0 0.131828 0
0.1 0.133263 0 0 0.133263 0 0.1 0.134713 0 0
0.134713 0 0.1 0.136178 0 0 0.136178 0 0.1 0.137658
0 0 0.137658 0 0.1 0.139154 0 0 0.139154 0
0.1 0.140665 0 0 0.140665 0 0.1 0.142192 0 0
0.142192 0 0.1 0.143735 0 0 0.143735 0 0.1 0.145294
0 0 0.145294 0 0.1 0.146869 0 0 0.146869 0
0.1 0.148461 0 0 0.148461 0 0.1 0.150069 0 0
0.150069 0 0.1 0.151694 0 0 0.151694 0 0.1 0.153336
0 0 0.153336 0 0.1 0.154995 0 0 0.154995 0
0.1 0.156672 0 0 0.156672 0 0.1 0.158366 0 0
0.158366 0 0.1 0.160077 0 0 0.160077 0 0.1 0.161807
0 0 0.161807 0 0.1 0.163554 0 0 0.163554 0
0.1 0.16532 0 0 0.16532 0 0.1 0.167104 0 0
0.167104 0 0.1 0.168907 0 0 0.168907 0 0.1 0.170728
0 0 0.170728 0 0.1 0.172569 0 0 0.172569 0
0.1 0.174428 0 0 0.174428 0 0.1 0.176307 0 0
0.176307 0 0.1 0.178206 0 0 0.178206 0 0.1 0.180124
0 0 0.180124 0 0.1 0.182063 0 0 0.182063 0
0.1 0.184022 0 0 0.184022 0 0.1 0.186001 0 0
0.186001 0 0.1 0.188001 0 0 0.188001 0 0.1 0.190021
0 0 0.190021 0 0.1 0.192063 0 0 0.192063 0
0.1 0.194126 0 0 0.194126 0 0.1 0.19621 0 0
0.19621 0 0.1 0.198317 0 0 0.198317 0 0.1 0.200445
0 0 0.200445 0 0.1 0.202595 0 0 0.202595 0
0.1 0.204768 0 0 0.204768 0 0.1 0.206964 0 0
0.206964 0 0.1 0.209182 0 0 0.209182 0 0.1 0.211424
0 0 0.211424 0 0.1 0.213689 0 0 0.213689 0
0.1 0.215977 0 0 0.215977 0 0.1 0.21829 0 0
0.21829 0 0.1 0.220626 0 0 0.220626 0 0.1 0.222987
0 0 0.222987 0 0.1 0.225372 0 0 0.225372 0
0.1 0.227783 0 0 0.227783 0 0.1 0.230218 0 0
0.230218 0 0.1 0.232679 0 0 0.232679 0 0.1 0.235166
0 0 0.235166 0 0.1 0.237678 0 0 0.237678 0
0.1 0.240217 0 0 0.240217 0 0.1 0.242782 0 0
0.242782 0 0.1 0.245374 0 0 0.245374 0 0.1 0.247993
0 0 0.247993 0 0.1 0.25064 0 0 0.25064 0
0.1 0.253313 0 0 0.253313 0 0.1 0.256015 0 0
0.256015 0 0.1 0.258745 0 0 0.258745 0 0.1 0.261504
0 0 0.261504 0 0.1 0.264291 0 0 0.264291 0
0.1 0.267107 0 0 0.267107 0 0.1 0.269953 0 0
0.269953 0 0.1 0.272828 0 0 0.272828 0 0.1 0.275733
0 0 0.275733 0 0.1 0.278669 0 0 0.278669 0
0.1 0.281635 0 0 0.281635 0 0.1 0.284632 0 0
0.284632 0 0.1 0.287661 0 0 0.287661 0 0.1 0.290721
0 0 0.290721 0 0.1 0.293813 0 0 0.293813 0
0.1 0.296937 0 0 0.296937 0 0.1 0.300093 0 0
0.300093 0 0.1 0.303283 0 0 0.303283 0 0.1 0.306506
0 0 0.306506 0 0.1 0.309763 0 0 0.309763 0
0.1 0.313053 0 0 0.313053 0 0.1 0.316378 0 0
0.316378 0 0.1 0.319737 0 0 0.319737 0 0.1 0.323132
0 0 0.323132 0 0.1 0.326562 0 0 0.326562 0
0.1 0.330027 0 0 0.330027 0 0.1 0.333529 0 0
0.333529 0 0.1 0.337068 0 0 0.337068 0 0.1 0.340643
0 0 0.340643 0 0.1 0.344255 0 0 0.344255 0
0.1 0.347906 0 0 0.347906 0 0.1 0.351594 0 0
0.351594 0 0.1 0.355321 0 0 0.355321 0 0.1 0.359086
0 0 0.359086 0 0.1 0.362891 0 0 0.362891 0
0.1 0.366736 0 0 0.366736 0 0.1 0.37062 0 0
0.37062 0 0.1 0.374546 0 0 0.374546 0 0.1 0.378512
0 0 0.378512 0 0.1 0.382519 0 0 0.382519 0
0.1 0.386568 0 0 0.386568 0 0.1 0.39066 0 0
0.39066 0 0.1 0.394794 0 0 0.394794 0 0.1 0.398971
0 0 0.398971 0 0.1 0.403192 0 0 0.403192 0
0.1 0.407457 0 0 0.407457 0 0.1 0.411766 0 0
0.411766 0 0.1 0.416121 0 0 0.416121 0 0.1 0.42052
0 0 0.42052 0 0.1 0.424966 0 0 0.424966 0
0.1 0.429458 0 0 0.429458 0 0.1 0.433997 0 0
0.433997 0 0.1 0.438583 0 0 0.438583 0 0.1 0.443217
0 0 0.443217 0 0.1 0.447899 0 0 0.447899 0
0.1 0.45263 0 0 0.45263 0 0.1 0.457411 0 0
0.457411 0 0.1 0.462241 0 0 0.462241 0 0.1 0.467122
0 0 0.467122 0 0.1 0.472053 0 0 0.472053 0
0.1 0.477036 0 0 0.477036 0 0.1 0.482071 0 0
0.482071 0 0.1 0.487159 0 0 0.487159 0 0.1 0.492299
0 0 0.492299 0 0.1 0.497493 0 0 0.497493 0
0.1 0.502742 0 0 0.502742 0 0.1 0.508045 0 0
0.508045 0 0.1 0.513403 0 0 0.513403 0 0.1 0.518817
0 0 0.518817 0 0.1 0.524288 0 0 0.524288 0
0.1 0.529816 0 0 0.529816 0 0.1 0.535401 0 0
0.535401 0 0.1 0.541045 0 0 0.541045 0 0.1 0.546748
0 0 0.546748 0 0.1 0.55251 0 0 0.55251 0
0.1 0.558332 0 0 0.558332 0 0.1 0.564215 0 0
0.564215 0 0.1 0.570159 0 0 0.570159 0 0.1 0.576165
0 0 0.576165 0 0.1 0.582234 0 0 0.582234 0
0.1 0.588366 0 0 0.588366 0 0.1 0.594562 0 0
0.594562 0 0.1 0.600822 0 0 0.600822 0 0.1 0.607148
0 0 0.607148 0 0.1 0.61354 0 0 0.61354 0
0.1 0.619999 0 0 0.619999 0 0.1 0.626525 0 0
0.626525 0 0.1 0.633119 0 0 0.633119 0 0.1 0.639782
0 0 0.639782 0 0.1 0.646514 0 0 0.646514 0
0.1 0.653316 0 0 0.653316 0 0.1 0.66019 0 0
0.66019 0 0.1 0.667135 0 0 0.667135 0 0.1 0.674152
0 0 0.674152 0 0.1 0.681243 0 0 0.681243 0
0.1 0.688408 0 0 0.688408 0 0.1 0.695647 0 0
0.695647 0 0.1 0.702962 0 0 0.702962 0 0.1 0.710353
0 0 0.710353 0 0.1 0.717821 0 0 0.717821 0
0.1 0.725367 0 0 0.725367 0 0.1 0.732992 0 0
0.732992 0 0.1 0.740697 0 0 0.740697 0 0.1 0.748481
0 0 0.748481 0 0.1 0.756347 0 0 0.756347 0
0.1 0.764295 0 0 0.764295 0 0.1 0.772326 0 0
0.772326 0 0.1 0.78044 0 0 0.78044 0 0.1 0.78864
0 0 0.78864 0 0.1 0.796924 0 0 0.796924 0
0.1 0.805295 0 0 0.805295 0 0.1 0.813754 0 0
0.813754 0 0.1 0.8223 0 0 0.8223 0 0.1 0.830936
0 0 0.830936 0 0.1 0.839662 0 0 0.839662 0
0.1 0.848479 0 0 0.848479 0 0.1 0.857387 0 0
0.857387 0 0.1 0.866389 0 0 0.866389 0 0.1 0.875485
0 0 0.875485 0 0.1 0.884675 0 0 0.884675 0
0.1 0.893961 0 0 0.893961 0 0.1 0.903344 0 0
0.903344 0 0.1 0.912825 0 0 0.912825 0 0.1 0.922405
0 0 0.922405 0 0.1 0.932085 0 0 0.932085 0
0.1 0.941865 0 0 0.941865 0 0.1 0.951748 0 0
0.951748 0 0.1 0.961734 0 0 0.961734 0 0.1 0.971824
0 0 0.971824 0 0.1 0.982019 0 0 0.982019 0
0.1 0.99232 0 0 0.99232 0 0.1 1.00273 0 0
1.00273 0 0.1 1.01325 0 0 1.01325 0 0.1 1.02387
0 0 1.02387 0 0.1 1.03461 0 0 1.03461 0
0.1 1.04546 0 0 1.04546 0 0.1 1.05642 0 0
1.05642 0 0.1 1.0675 0 0 1.0675 0 0.1 1.07869
0 0 1.07869 0 0.1 1.09 0 0 1.09 0
0.1 1.10143 0 0 1.10143 0 0.1 1.11298 0 0
1.11298 0 0.1 1.12465 0 0 1.12465 0 0.1 1.13644
0 0 1.13644 0 0.1 1.14835 0 0 1.14835 0
0.1 1.16038 0 0 1.16038 0 0.1 1.17254 0 0
1.17254 0 0.1 1.18483 0 0 1.18483 0 0.1 1.19725
0 0 1.19725 0 0.1 1.2098 0 0 1.2098 0
0.1 1.22247 0 0 1.22247 0 0.1 1.23528 0 0
1.23528 0 0.1 1.24822 0 0 1.24822 0 0.1 1.2613
0 0 1.2613 0 0.1 1.27452 0 0 1.27452 0
0.1 1.28787 0 0 1.28787 0 0.1 1.30136 0 0
1.30136 0 0.1 1.31499 0 0 1.31499 0 0.1 1.32877
0 0 1.32877 0 0.1 1.34268 0 0 1.34268 0
0.1 1.35675 0 0 1.35675 0 0.1 1.37095 0 0
1.37095 0 0.1 1.38531 0 0 1.38531 0 0.1 1.39982
0 0 1.39982 0 0.1 1.41448 0 0 1.41448 0
0.1 1.42929 0 0 1.42929 0 0.1 1.44426 0 0
1.44426 0 0.1 1.45938 0 0 1.45938 0 0.1 1.47466
0 0 1.47466 0 0.1 1.4901 0 0 1.4901 0
0.1 1.5057 0 0 1.5057 0 0.1 1.52146 0 0
1.52146 0 0.1 1.53739 0 0 1.53739 0 0.1 1.55348
0 0 1.55348 0 0.1 1.56974 0 0 1.56974 0
0.1 1.58617 0 0 1.58617 0 0.1 1.60278 0 0
1.60278 0 0.1 1.61955 0 0 1.61955 0 0.1 1.6365
0 0 1.6365 0 0.1 1.65363 0 0 1.65363 0
0.1 1.67093 0 0 1.67093 0 0.1 1.68842 0 0
1.68842 0 0.1 1.70609 0 0 1.70609 0 0.1 1.72394
0 0 1.72394 0 0.1 1.74198 0 0 1.74198 0
0.1 1.76021 0 0 1.76021 0 0.1 1.77862 0 0
1.77862 0 0.1 1.79723 0 0 1.79723 0 0.1 1.81604
0 0 1.81604 0 0.1 1.83504 0 0 1.83504 0
0.1 1.85423 0 0 1.85423 0 0.1 1.87363 0 0
1.87363 0 0.1 1.89323 0 0 1.89323 0 0.1 1.91304
0 0 1.91304 0 0.1 1.93305 0 0 1.93305 0
0.1 1.95327 0 0 1.95327 0 0.1 1.9737 0 0
1.9737 0 0.1 1.99434 0 0 1.99434 0 0.1 2.0152
0 0 2.0152 0 0.1 2.03628 0 0 2.03628 0
0.1 2.05757 0 0 2.05757 0 0.1 2.07909 0 0
2.07909 0 0.1 2.10083 0 0 2.10083 0 0.1 2.1228
0 0 2.1228 0 0.1 2.145 0 0 2.145 0
0.1 2.16743 0 0 2.16743 0 0.1 2.1901 0 0
2.1901 0 0.1 2.213 0 0 2.213 0 0.1 2.23614
0 0 2.23614 0 0.1 2.25952 0 0 2.25952 0
0.1 2.28314 0 0 2.28314 0 0.1 2.30701 0 0
2.30701 0 0.1 2.33113 0 0 2.33113 0 0.1 2.3555
0 0 2.3555 0 0.1 2.38013 0 0 2.38013 0
0.1 2.40501 0 0 2.40501 0 0.1 2.43015 0 0
2.43015 0 0.1 2.45556 0 0 2.45556 0 0.1 2.48122
0 0 2.48122 0 0.1 2.50716 0 0 2.50716 0
0.1 2.53337 0 0 2.53337 0 0.1 2.55985 0 0
2.55985 0 0.1 2.58661 0 0 2.58661 0 0.1 2.61364
0 0 2.61364 0 0.1 2.64096 0 0 2.64096 0
0.1 2.66856 0 0 2.66856 0 0.1 2.69645 0 0
2.69645 0 0.1 2.72463 0 0 2.72463 0 0.1 2.75311
0 0 2.75311 0 0.1 2.78188 0 0 2.78188 0
0.1 2.81095 0 0 2.81095 0 0.1 2.84033 0 0
2.84033 0 0.1 2.87001 0 0 2.87001 0 0.1 2.9
0 0 2.9 0 0.1 
POLYGONS 600 3000
4 0 1 2 3 4 1 4 5 2 4
4 6 7 5 4 6 8 9 7 4
8 10 11 9 4 10 12 13 11 4
12 14 15 13 4 14 16 17 15 4
16 18 19 17 4 18 20 21 19 4
20 22 23 21 4 22 24 25 23 4
24 26 27 25 4 26 28 29 27 4
28 30 31 29 4 30 32 33 31 4
32 34 35 33 4 34 36 37 35 4
36 38 39 37 4 38 40 41 39 4
40 42 43 41 4 42 44 45 43 4
44 46 47 45 4 46 48 49 47 4
48 50 51 49 4 50 52 53 51 4
52 54 55 53 4 54 56 57 55 4
56 58 59 57 4 58 60 61 59 4
60 62 63 61 4 62 64 65 63 4
64 66 67 65 4 66 68 69 67 4
68 70 71 69 4 70 72 73 71 4
72 74 75 73 4 74 76 77 75 4
76 78 79 77 4 78 80 81 79 4
80 82 83 81 4 82 84 85 83 4
84 86 87 85 4 86 88 89 87 4
88 90 91 89 4 90 92 93 91 4
92 94 95 93 4 94 96 97 95 4
96 98 99 97 4 98 100 101 99 4
100 102 103 101 4 102 104 105 103 4
104 106 107 105 4 106 108 109 107 4
108 110 111 109 4 110 112 113 111 4
112 114 115 113 4 114 116 117 115 4
116 118 119 117 4 118 120 121 119 4
120 122 123 121 4 122 124 125 123 4
124 126 127 125 4 126 128 129 127 4
128 130 131 129 4 130 132 133 131 4
132 134 135 133 4 134 136 137 135 4
136 138 139 137 4 138 140 141 139 4
140 142 143 141 4 142 144 145 143 4
144 146 147 145 4 146 148 149 147 4
148 150 151 149 4 150 152 153 151 4
152 154 155 153 4 154 156 157 155 4
156 158 159 157 4 158 160 161 159 4
160 162 163 161 4 162 164 165 163 4
164 166 167 165 4 166 168 169 167 4
168 170 171 169 4 170 172 173 171 4
172 174 175 173 4 174 176 177 175 4
176 178 179 177 4 178 180 181 179 4
180 182 183 181 4 182 184 185 183 4
184 186 187 185 4 186 188 189 187 4
188 190 191 189 4 190 192 193 191 4
192 194 195 193 4 194 196 197 195 4
196 198 199 197 4 198 200 201 199 4
200 202 203 201 4 202 204 205 203 4
204 206 207 205 4 206 208 209 207 4
208 210 211 209 4 210 212 213 211 4
212 214 215 213 4 214 216 217 215 4
216 218 219 217 4 218 220 221 219 4
220 222 223 221 4 222 224 225 223 4
224 226 227 225 4 226 228 229 227 4
228 230 231 229 4 230 232 233 231 4
232 234 235 233 4 234 236 237 235 4
236 238 239 237 4 238 240 241 239 4
240 242 243 241 4 242 244 245 243 4
244 246 247 245 4 246 248 249 247 4
248 250 251 249 4 250 252 253 251 4
252 254 255 253 4 254 256 257 255 4
256 258 259 257 4 258 260 261 259 4
260 262 263 261 4 262 264 265 263 4
264 266 267 265 4 266 268 269 267 4
268 270 271 269 4 270 272 273 271 4
272 274 275 273 4 274 276 277 275 4
276 278 279 277 4 278 280 281 279 4
280 282 283 281 4 282 284 285 283 4
284 286 287 285 4 286 288 289 287 4
288 290 291 289 4 290 292 293 291 4
292 294 295 293 4 294 296 297 295 4
296 298 299 297 4 298 300 301 299 4
300 302 303 301 4 302 304 305 303 4
304 306 307 305 4 306 308 309 307 4
308 310 311 309 4 310 312 313 311 4
312 314 315 313 4 314 316 317 315 4
316 318 319 317 4 318 320 321 319 4
320 322 323 321 4 322 324 325 323 4
324 326 327 325 4 326 328 329 327 4
328 330 331 329 4 330 332 333 331 4
332 334 335 333 4 334 336 337 335 4
336 338 339 337 4 338 340 341 339 4
340 342 343 341 4 342 344 345 343 4
344 346 347 345 4 346 348 349 347 4
348 350 351 349 4 350 352 353 351 4
352 354 355 353 4 354 356 357 355 4
356 358 359 357 4 358 360 361 359 4
360 362 363 361 4 362 364 365 363 4
364 366 367 365 4 366 368 369 367 4
368 370 371 369 4 370 372 373 371 4
372 374 375 373 4 374 376 377 375 4
376 378 379 377 4 378 380 381 379 4
380 382 383 381 4 382 384 385 383 4
384 386 387 385 4 386 388 389 387 4
388 390 391 389 4 390 392 393 391 4
392 394 395 393 4 394 396 397 395 4
396 398 399 397 4 398 400 401 399 4
400 402 403 401 4 402 404 405 403 4
404 406 407 405 4 406 408 409 407 4
408 410 411 409 4 410 412 413 411 4
412 414 415 413 4 414 416 417 415 4
416 418 419 417 4 418 420 421 419 4
420 422 423 421 4 422 424 425 423 4
424 426 427 425 4 426 428 429 427 4
428 430 431 429 4 430 432 433 431 4
432 434 435 433 4 434 436 437 435 4
436 438 439 437 4 438 440 441 439 4
440 442 443 441 4 442 444 445 443 4
444 446 447 445 4 446 448 449 447 4
448 450 451 449 4 450 452 453 451 4
452 454 455 453 4 454 456 457 455 4
456 458 459 457 4 458 460 461 459 4
460 462 463 461 4 462 464 465 463 4
464 466 467 465 4 466 468 469 467 4
468 470 471 469 4 470 472 473 471 4
472 474 475 473 4 474 476 477 475 4
476 478 479 477 4 478 480 481 479 4
480 482 483 481 4 482 484 485 483 4
484 486 487 485 4 486 488 489 487 4
488 490 491 489 4 490 492 493 491 4
492 494 495 493 4 494 496 497 495 4
496 498 499 497 4 498 500 501 499 4
500 502 503 501 4 502 504 505 503 4
504 506 507 505 4 506 508 509 507 4
508 510 511 509 4 510 512 513 511 4
512 514 515 513 4 514 516 517 515 4
516 518 519 517 4 518 520 521 519 4
520 522 523 521 4 522 524 525 523 4
524 526 527 525 4 526 528 529 527 4
528 530 531 529 4 530 532 533 531 4
532 534 535 533 4 534 536 537 535 4
536 538 539 537 4 538 540 541 539 4
540 542 543 541 4 542 544 545 543 4
544 546 547 545 4 546 548 549 547 4
548 550 551 549 4 550 552 553 551 4
552 554 555 553 4 554 556 557 555 4
556 558 559 557 4 558 560 561 559 4
560 562 563 561 4 562 564 565 563 4
564 566 567 565 4 566 568 569 567 4
568 570 571 569 4 570 572 573 571 4
572 574 575 573 4 574 576 577 575 4
576 578 579 577 4 578 580 581 579 4
580 582 583 581 4 582 584 585 583 4
584 586 587 585 4 586 588 589 587 4
588 590 591 589 4 590 592 593 591 4
592 594 595 593 4 594 596 597 595 4
596 598 599 597 4 598 600 601 599 4
600 602 603 601 4 602 604 605 603 4
604 606 607 605 4 606 608 609 607 4
608 610 611 609 4 610 612 613 611 4
612 614 615 613 4 614 616 617 615 4
616 618 619 617 4 618 620 621 619 4
620 622 623 621 4 622 624 625 623 4
624 626 627 625 4 626 628 629 627 4
628 630 631 629 4 630 632 633 631 4
632 634 635 633 4 634 636 637 635 4
636 638 639 637 4 638 640 641 639 4
640 642 643 641 4 642 644 645 643 4
644 646 647 645 4 646 648 649 647 4
648 650 651 649 4 650 652 653 651 4
652 654 655 653 4 654 656 657 655 4
656 658 659 657 4 658 660 661 659 4
660 662 663 661 4 662 664 665 663 4
664 666 667 665 4 666 668 669 667 4
668 670 671 669 4 670 672 673 671 4
672 674 675 673 4 674 676 677 675 4
676 678 679 677 4 678 680 681 679 4
680 682 683 681 4 682 684 685 683 4
684 686 687 685 4 686 688 689 687 4
688 690 691 689 4 690 692 693 691 4
692 694 695 693 4 694 696 697 695 4
696 698 699 697 4 698 700 701 699 4
700 702 703 701 4 702 704 705 703 4
704 706 707 705 4 706 708 709 707 4
708 710 711 709 4 710 712 713 711 4
712 714 715 713 4 714 716 717 715 4
716 718 719 717 4 718 720 721 719 4
720 722 723 721 4 722 724 725 723 4
724 726 727 725 4 726 728 729 727 4
728 730 731 729 4 730 732 733 731 4
732 734 735 733 4 734 736 737 735 4
736 738 739 737 4 738 740 741 739 4
740 742 743 741 4 742 744 745 743 4
744 746 747 745 4 746 748 749 747 4
748 750 751 749 4 750 752 753 751 4
752 754 755 753 4 754 756 757 755 4
756 758 759 757 4 758 760 761 759 4
760 762 763 761 4 762 764 765 763 4
764 766 767 765 4 766 768 769 767 4
768 770 771 769 4 770 772 773 771 4
772 774 775 773 4 774 776 777 775 4
776 778 779 777 4 778 780 781 779 4
780 782 783 781 4 782 784 785 783 4
784 786 787 785 4 786 788 789 787 4
788 790 791 789 4 790 792 793 791 4
792 794 795 793 4 794 796 797 795 4
796 798 799 797 4 798 800 801 799 4
800 802 803 801 4 802 804 805 803 4
804 806 807 805 4 806 808 809 807 4
808 810 811 809 4 810 812 813 811 4
812 814 815 813 4 814 816 817 815 4
816 818 819 817 4 818 820 821 819 4
820 822 823 821 4 822 824 825 823 4
824 826 827 825 4 826 828 829 827 4
828 830 831 829 4 830 832 833 831 4
832 834 835 833 4 834 836 837 835 4
836 838 839 837 4 838 840 841 839 4
840 842 843 841 4 842 844 845 843 4
844 846 847 845 4 846 848 849 847 4
848 850 851 849 4 850 852 853 851 4
852 854 855 853 4 854 856 857 855 4
856 858 859 857 4 858 860 861 859 4
860 862 863 861 4 862 864 865 863 4
864 866 867 865 4 866 868 869 867 4
868 870 871 869 4 870 872 873 871 4
872 874 875 873 4 874 876 877 875 4
876 878 879 877 4 878 880 881 879 4
880 882 883 881 4 882 884 885 883 4
884 886 887 885 4 886 888 889 887 4
888 890 891 889 4 890 892 893 891 4
892 894 895 893 4 894 896 897 895 4
896 898 899 897 4 898 900 901 899 4
900 902 903 901 4 902 904 905 903 4
904 906 907 905 4 906 908 909 907 4
908 910 911 909 4 910 912 913 911 4
912 914 915 913 4 914 916 917 915 4
916 918 919 917 4 918 920 921 919 4
920 922 923 921 4 922 924 925 923 4
924 926 927 925 4 926 928 929 927 4
928 930 931 929 4 930 932 933 931 4
932 934 935 933 4 934 936 937 935 4
936 938 939 937 4 938 940 941 939 4
940 942 943 941 4 942 944 945 943 4
944 946 947 945 4 946 948 949 947 4
948 950 951 949 4 950 952 953 951 4
952 954 955 953 4 954 956 957 955 4
956 958 959 957 4 958 960 961 959 4
960 962 963 961 4 962 964 965 963 4
964 966 967 965 4 966 968 969 967 4
968 970 971 969 4 970 972 973 971 4
972 974 975 973 4 974 976 977 975 4
976 978 979 977 4 978 980 981 979 4
980 982 983 981 4 982 984 985 983 4
984 986 987 985 4 986 988 989 987 4
988 990 991 989 4 990 992 993 991 4
992 994 995 993 4 994 996 997 995 4
996 998 999 997 4 998 1000 1001 999 4
1000 1002 1003 1001 4 1002 1004 1005 1003 4
1004 1006 1007 1005 4 1006 1008 1009 1007 4
1008 1010 1011 1009 4 1010 1012 1013 1011 4
1012 1014 1015 1013 4 1014 1016 1017 1015 4
1016 1018 1019 1017 4 1018 1020 1021 1019 4
1020 1022 1023 1021 4 1022 1024 1025 1023 4
1024 1026 1027 1025 4 1026 1028 1029 1027 4
1028 1030 1031 1029 4 1030 1032 1033 1031 4
1032 1034 1035 1033 4 1034 1036 1037 1035 4
1036 1038 1039 1037 4 1038 1040 1041 1039 4
1040 1042 1043 1041 4 1042 1044 1045 1043 4
1044 1046 1047 1045 4 1046 1048 1049 1047 4
1048 1050 1051 1049 4 1050 1052 1053 1051 4
1052 1054 1055 1053 4 1054 1056 1057 1055 4
1056 1058 1059 1057 4 1058 1060 1061 1059 4
1060 1062 1063 1061 4 1062 1064 1065 1063 4
1064 1066 1067 1065 4 1066 1068 1069 1067 4
1068 1070 1071 1069 4 1070 1072 1073 1071 4
1072 1074 1075 1073 4 1074 1076 1077 1075 4
1076 1078 1079 1077 4 1078 1080 1081 1079 4
1080 1082 1083 1081 4 1082 1084 1085 1083 4
1084 1086 1087 1085 4 1086 1088 1089 1087 4
1088 1090 1091 1089 4 1090 1092 1093 1091 4
1092 1094 1095 1093 4 1094 1096 1097 1095 4
1096 1098 1099 1097 4 1098 1100 1101 1099 4
1100 1102 1103 1101 4 1102 1104 1105 1103 4
1104 1106 1107 1105 4 1106 1108 1109 1107 4
1108 1110 1111 1109 4 1110 1112 1113 1111 4
1112 1114 1115 1113 4 1114 1116 1117 1115 4
1116 1118 1119 1117 4 1118 1120 1121 1119 4
1120 1122 1123 1121 4 1122 1124 1125 1123 4
1124 1126 1127 1125 4 1126 1128 1129 1127 4
1128 1130 1131 1129 4 1130 1132 1133 1131 4
1132 1134 1135 1133 4 1134 1136 1137 1135 4
1136 1138 1139 1137 4 1138 1140 1141 1139 4
1140 1142 1143 1141 4 1142 1144 1145 1143 4
1144 1146 1147 1145 4 1146 1148 1149 1147 4
1148 1150 1151 1149 4 1150 1152 1153 1151 4
1152 1154 1155 1153 4 1154 1156 1157 1155 4
1156 1158 1159 1157 4 1158 1160 1161 1159 4
1160 1162 1163 1161 4 1162 1164 1165 1163 4
1164 1166 1167 1165 4 1166 1168 1169 1167 4
1168 1170 1171 1169 4 1170 1172 1173 1171 4
1172 1174 1175 1173 4 1174 1176 1177 1175 4
1176 1178 1179 1177 4 1178 1180 1181 1179 4
1180 1182 1183 1181 4 1182 1184 1185 1183 4
1184 1186 1187 1185 4 1186 1188 1189 1187 4
1188 1190 1191 1189 4 1190 1192 1193 1191 4
1192 1194 1195 1193 4 1194 1196 1197 1195 4
1196 1198 1199 1197 4 1198 1200 1201 1199 
POINT_DATA 1202
FIELD attributes 1
U 3 1202 float
1.54632 0.0341547 0 0.869959 0.0236436 0 0.869959 0.0236436 0 1.54632 0.0341547
0 0.166339 0.00856605 0 0.166339 0.00856605 0 0.122373 0.00258695 0
0.122373 0.00258695 0 0.0963839 0.000773344 0 0.0963839 0.000773344 0 0.0818387
0.000279208 0 0.0818387 0.000279208 0 0.0730745 0.000175096 0 0.0730745 0.000175096
0 0.0669326 0.000157979 0 0.0669326 0.000157979 0 0.0621561 0.00014171 0
0.0621561 0.00014171 0 0.0582727 0.000120793 0 0.0582727 0.000120793 0 0.0550481
0.000100916 0 0.0550481 0.000100916 0 0.0523161 8.58864e-05 0 0.0523161 8.58864e-05
0 0.0499517 7.56266e-05 0 0.0499517 7.56266e-05 0 0.0478664 6.77251e-05 0
0.0478664 6.77251e-05 0 0.0460025 6.11536e-05 0 0.0460025 6.11536e-05 0 0.0443206
5.55258e-05 0 0.0443206 5.55258e-05 0 0.042792 5.06244e-05 0 0.042792 5.06244e-05
0 0.0413948 4.63097e-05 0 0.0413948 4.63097e-05 0 0.0401114 4.24876e-05 0
0.0401114 4.24876e-05 0 0.0389277 3.90882e-05 0 0.0389277 3.90882e-05 0 0.0378319
3.60556e-05 0 0.0378319 3.60556e-05 0 0.0368138 3.3343e-05 0 0.0368138 3.3343e-05
0 0.0358651 3.09109e-05 0 0.0358651 3.09109e-05 0 0.0349784 2.87251e-05 0
0.0349784 2.87251e-05 0 0.0341473 2.67562e-05 0 0.0341473 2.67562e-05 0 0.0333664
2.49783e-05 0 0.0333664 2.49783e-05 0 0.0326307 2.3369e-05 0 0.0326307 2.3369e-05
0 0.0319362 2.19085e-05 0 0.0319362 2.19085e-05 0 0.0312789 2.058e-05 0
0.0312789 2.058e-05 0 0.0306558 1.93682e-05 0 0.0306558 1.93682e-05 0 0.0300638
1.82605e-05 0 0.0300638 1.82605e-05 0 0.0295004 1.72454e-05 0 0.0295004 1.72454e-05
0 0.0289632 1.63128e-05 0 0.0289632 1.63128e-05 0 0.0284503 1.54555e-05 0
0.0284503 1.54555e-05 0 0.0279598 1.46626e-05 0 0.0279598 1.46626e-05 0 0.0274898
1.39375e-05 0 0.0274898 1.39375e-05 0 0.0270392 1.32567e-05 0 0.0270392 1.32567e-05
0 0.026606 1.26527e-05 0 0.026606 1.26527e-05 0 0.0261892 1.20491e-05 0
0.0261892 1.20491e-05 0 0.025789 1.13194e-05 0 0.025789 1.13194e-05 0 0.0254043
1.0702e-05 0 0.0254043 1.0702e-05 0 0.0250323 1.03203e-05 0 0.0250323 1.03203e-05
0 0.0246705 1.00054e-05 0 0.0246705 1.00054e-05 0 0.0243183 9.68248e-06 0
0.0243183 9.68248e-06 0 0.0239758 9.34828e-06 0 0.0239758 9.34828e-06 0 0.023643
9.00867e-06 0 0.023643 9.00867e-06 0 0.0233199 8.67006e-06 0 0.0233199 8.67006e-06
0 0.0230063 8.33759e-06 0 0.0230063 8.33759e-06 0 0.0227021 8.01461e-06 0
0.0227021 8.01461e-06 0 0.0224069 7.70311e-06 0 0.0224069 7.70311e-06 0 0.0221204
7.40414e-06 0 0.0221204 7.40414e-06 0 0.0218422 7.11814e-06 0 0.0218422 7.11814e-06
0 0.0215722 6.84516e-06 0 0.0215722 6.84516e-06 0 0.0213098 6.58498e-06 0
0.0213098 6.58498e-06 0 0.0210549 6.33724e-06 0 0.0210549 6.33724e-06 0 0.020807
6.10146e-06 0 0.020807 6.10146e-06 0 0.0205659 5.87711e-06 0 0.0205659 5.87711e-06
0 0.0203313 5.66364e-06 0 0.0203313 5.66364e-06 0 0.0201028 5.4605e-06 0
0.0201028 5.4605e-06 0 0.0198803 5.26711e-06 0 0.0198803 5.26711e-06 0 0.0196634
5.08297e-06 0 0.0196634 5.08297e-06 0 0.0194519 4.90752e-06 0 0.0194519 4.90752e-06
0 0.0192457 4.74031e-06 0 0.0192457 4.74031e-06 0 0.0190444 4.58081e-06 0
0.0190444 4.58081e-06 0 0.0188479 4.42866e-06 0 0.0188479 4.42866e-06 0 0.0186559
4.28335e-06 0 0.0186559 4.28335e-06 0 0.0184684 4.14461e-06 0 0.0184684 4.14461e-06
0 0.018285 4.01192e-06 0 0.018285 4.01192e-06 0 0.0181057 3.88514e-06 0
0.0181057 3.88514e-06 0 0.0179303 3.76371e-06 0 0.0179303 3.76371e-06 0 0.0177587
3.64763e-06 0 0.0177587 3.64763e-06 0 0.0175906 3.53631e-06 0 0.0175906 3.53631e-06
0 0.017426 3.42986e-06 0 0.017426 3.42986e-06 0 0.0172647 3.32785e-06 0
0.0172647 3.32785e-06 0 0.0171066 3.2299e-06 0 0.0171066 3.2299e-06 0 0.0169516
3.1378e-06 0 0.0169516 3.1378e-06 0 0.0167996 3.04622e-06 0 0.0167996 3.04622e-06
0 0.0166502 2.97012e-06 0 0.0166502 2.97012e-06 0 0.0165035 2.87536e-06 0
0.0165035 2.87536e-06 0 0.0163603 2.74743e-06 0 0.0163603 2.74743e-06 0 0.0162198
2.67279e-06 0 0.0162198 2.67279e-06 0 0.0160807 2.64367e-06 0 0.0160807 2.64367e-06
0 0.0159426 2.60497e-06 0 0.0159426 2.60497e-06 0 0.0158058 2.55692e-06 0
0.0158058 2.55692e-06 0 0.0156708 2.50175e-06 0 0.0156708 2.50175e-06 0 0.0155376
2.44233e-06 0 0.0155376 2.44233e-06 0 0.0154064 2.38089e-06 0 0.0154064 2.38089e-06
0 0.0152774 2.31889e-06 0 0.0152774 2.31889e-06 0 0.0151504 2.25724e-06 0
0.0151504 2.25724e-06 0 0.0150256 2.19651e-06 0 0.0150256 2.19651e-06 0 0.0149029
2.13706e-06 0 0.0149029 2.13706e-06 0 0.0147822 2.0791e-06 0 0.0147822 2.0791e-06
0 0.0146636 2.02275e-06 0 0.0146636 2.02275e-06 0 0.014547 1.96807e-06 0
0.014547 1.96807e-06 0 0.0144323 1.91509e-06 0 0.0144323 1.91509e-06 0 0.0143196
1.86379e-06 0 0.0143196 1.86379e-06 0 0.0142087 1.81416e-06 0 0.0142087 1.81416e-06
0 0.0140996 1.76616e-06 0 0.0140996 1.76616e-06 0 0.0139922 1.71974e-06 0
0.0139922 1.71974e-06 0 0.0138866 1.67486e-06 0 0.0138866 1.67486e-06 0 0.0137826
1.63146e-06 0 0.0137826 1.63146e-06 0 0.0136803 1.58949e-06 0 0.0136803 1.58949e-06
0 0.0135795 1.54892e-06 0 0.0135795 1.54892e-06 0 0.0134803 1.50965e-06 0
0.0134803 1.50965e-06 0 0.0133826 1.47168e-06 0 0.0133826 1.47168e-06 0 0.0132863
1.43492e-06 0 0.0132863 1.43492e-06 0 0.0131914 1.39937e-06 0 0.0131914 1.39937e-06
0 0.0130979 1.36492e-06 0 0.0130979 1.36492e-06 0 0.0130057 1.33161e-06 0
0.0130057 1.33161e-06 0 0.0129149 1.29929e-06 0 0.0129149 1.29929e-06 0 0.0128253
1.26807e-06 0 0.0128253 1.26807e-06 0 0.0127369 1.23774e-06 0 0.0127369 1.23774e-06
0 0.0126498 1.20845e-06 0 0.0126498 1.20845e-06 0 0.0125638 1.18003e-06 0
0.0125638 1.18003e-06 0 0.012479 1.1525e-06 0 0.012479 1.1525e-06 0 0.0123952
1.12631e-06 0 0.0123952 1.12631e-06 0 0.0123126 1.09985e-06 0 0.0123126 1.09985e-06
0 0.0122309 1.07854e-06 0 0.0122309 1.07854e-06 0 0.0121502 1.05181e-06 0
0.0121502 1.05181e-06 0 0.0120709 1.01386e-06 0 0.0120709 1.01386e-06 0 0.0119926
9.91821e-07 0 0.0119926 9.91821e-07 0 0.0119146 9.86713e-07 0 0.0119146 9.86713e-07
0 0.0118366 9.79705e-07 0 0.0118366 9.79705e-07 0 0.0117587 9.67577e-07 0
0.0117587 9.67577e-07 0 0.0116814 9.51695e-07 0 0.0116814 9.51695e-07 0 0.0116047
9.33541e-07 0 0.0116047 9.33541e-07 0 0.0115289 9.14191e-07 0 0.0115289 9.14191e-07
0 0.0114538 8.94306e-07 0 0.0114538 8.94306e-07 0 0.0113797 8.74293e-07 0
0.0113797 8.74293e-07 0 0.0113065 8.54398e-07 0 0.0113065 8.54398e-07 0 0.0112343
8.34771e-07 0 0.0112343 8.34771e-07 0 0.0111629 8.15507e-07 0 0.0111629 8.15507e-07
0 0.0110925 7.96661e-07 0 0.0110925 7.96661e-07 0 0.0110229 7.78263e-07 0
0.0110229 7.78263e-07 0 0.0109542 7.60333e-07 0 0.0109542 7.60333e-07 0 0.0108864
7.42875e-07 0 0.0108864 7.42875e-07 0 0.0108195 7.25889e-07 0 0.0108195 7.25889e-07
0 0.0107534 7.09367e-07 0 0.0107534 7.09367e-07 0 0.0106881 6.93307e-07 0
0.0106881 6.93307e-07 0 0.0106236 6.7769e-07 0 0.0106236 6.7769e-07 0 0.0105599
6.62513e-07 0 0.0105599 6.62513e-07 0 0.0104969 6.47757e-07 0 0.0104969 6.47757e-07
0 0.0104347 6.33414e-07 0 0.0104347 6.33414e-07 0 0.0103732 6.19465e-07 0
0.0103732 6.19465e-07 0 0.0103125 6.0591e-07 0 0.0103125 6.0591e-07 0 0.0102524
5.92716e-07 0 0.0102524 5.92716e-07 0 0.0101931 5.79901e-07 0 0.0101931 5.79901e-07
0 0.0101344 5.67417e-07 0 0.0101344 5.67417e-07 0 0.0100763 5.55298e-07 0
0.0100763 5.55298e-07 0 0.0100189 5.43482e-07 0 0.0100189 5.43482e-07 0 0.00996214
5.32027e-07 0 0.00996214 5.32027e-07 0 0.00990598 5.20857e-07 0 0.00990598 5.20857e-07
0 0.00985042 5.10024e-07 0 0.00985042 5.10024e-07 0 0.00979542 4.99599e-07 0
0.00979542 4.99599e-07 0 0.00974103 4.89184e-07 0 0.00974103 4.89184e-07 0 0.00968711
4.80604e-07 0 0.00968711 4.80604e-07 0 0.00963371 4.69716e-07 0 0.00963371 4.69716e-07
0 0.00958115 4.54785e-07 0 0.00958115 4.54785e-07 0 0.00952909 4.46697e-07 0
0.00952909 4.46697e-07 0 0.00947692 4.46267e-07 0 0.00947692 4.46267e-07 0 0.00942449
4.44912e-07 0 0.00942449 4.44912e-07 0 0.00937201 4.40487e-07 0 0.00937201 4.40487e-07
0 0.00931976 4.34055e-07 0 0.00931976 4.34055e-07 0 0.00926786 4.26443e-07 0
0.00926786 4.26443e-07 0 0.00921641 4.18239e-07 0 0.00921641 4.18239e-07 0 0.00916546
4.09768e-07 0 0.00916546 4.09768e-07 0 0.00911504 4.01227e-07 0 0.00911504 4.01227e-07
0 0.00906516 3.92726e-07 0 0.00906516 3.92726e-07 0 0.00901583 3.84334e-07 0
0.00901583 3.84334e-07 0 0.00896704 3.76089e-07 0 0.00896704 3.76089e-07 0 0.0089188
3.68016e-07 0 0.0089188 3.68016e-07 0 0.00887109 3.60126e-07 0 0.00887109 3.60126e-07
0 0.00882391 3.52428e-07 0 0.00882391 3.52428e-07 0 0.00877724 3.44921e-07 0
0.00877724 3.44921e-07 0 0.00873109 3.37609e-07 0 0.00873109 3.37609e-07 0 0.00868543
3.30483e-07 0 0.00868543 3.30483e-07 0 0.00864026 3.23546e-07 0 0.00864026 3.23546e-07
0 0.00859558 3.16786e-07 0 0.00859558 3.16786e-07 0 0.00855136 3.1021e-07 0
0.00855136 3.1021e-07 0 0.0085076 3.03796e-07 0 0.0085076 3.03796e-07 0 0.0084643
2.97561e-07 0 0.0084643 2.97561e-07 0 0.00842144 2.91473e-07 0 0.00842144 2.91473e-07
0 0.008379 2.85561e-07 0 0.008379 2.85561e-07 0 0.008337 2.79778e-07 0
0.008337 2.79778e-07 0 0.0082954 2.74175e-07 0 0.0082954 2.74175e-07 0 0.00825422
2.68678e-07 0 0.00825422 2.68678e-07 0 0.00821343 2.63377e-07 0 0.00821343 2.63377e-07
0 0.00817303 2.58152e-07 0 0.00817303 2.58152e-07 0 0.00813301 2.53151e-07 0
0.00813301 2.53151e-07 0 0.00809334 2.48243e-07 0 0.00809334 2.48243e-07 0 0.00805409
2.43464e-07 0 0.00805409 2.43464e-07 0 0.00801504 2.39677e-07 0 0.00801504 2.39677e-07
0 0.00797648 2.33067e-07 0 0.00797648 2.33067e-07 0 0.00793852 2.2647e-07 0
0.00793852 2.2647e-07 0 0.00790048 2.26277e-07 0 0.00790048 2.26277e-07 0 0.00786205
2.27395e-07 0 0.00786205 2.27395e-07 0 0.00782338 2.26032e-07 0 0.00782338 2.26032e-07
0 0.00778475 2.233e-07 0 0.00778475 2.233e-07 0 0.00774632 2.19679e-07 0
0.00774632 2.19679e-07 0 0.00770819 2.15662e-07 0 0.00770819 2.15662e-07 0 0.00767039
2.11451e-07 0 0.00767039 2.11451e-07 0 0.00763296 2.07182e-07 0 0.00763296 2.07182e-07
0 0.0075959 2.02922e-07 0 0.0075959 2.02922e-07 0 0.00755923 1.98714e-07 0
0.00755923 1.98714e-07 0 0.00752294 1.94578e-07 0 0.00752294 1.94578e-07 0 0.00748703
1.9053e-07 0 0.00748703 1.9053e-07 0 0.0074515 1.86574e-07 0 0.0074515 1.86574e-07
0 0.00741633 1.82715e-07 0 0.00741633 1.82715e-07 0 0.00738153 1.78951e-07 0
0.00738153 1.78951e-07 0 0.00734708 1.75286e-07 0 0.00734708 1.75286e-07 0 0.00731298
1.71713e-07 0 0.00731298 1.71713e-07 0 0.00727922 1.68235e-07 0 0.00727922 1.68235e-07
0 0.0072458 1.64844e-07 0 0.0072458 1.64844e-07 0 0.0072127 1.61545e-07 0
0.0072127 1.61545e-07 0 0.00717993 1.58324e-07 0 0.00717993 1.58324e-07 0 0.00714746
1.55195e-07 0 0.00714746 1.55195e-07 0 0.00711531 1.52135e-07 0 0.00711531 1.52135e-07
0 0.00708345 1.49167e-07 0 0.00708345 1.49167e-07 0 0.00705189 1.46256e-07 0
0.00705189 1.46256e-07 0 0.00702062 1.43446e-07 0 0.00702062 1.43446e-07 0 0.00698963
1.40675e-07 0 0.00698963 1.40675e-07 0 0.00695892 1.38027e-07 0 0.00695892 1.38027e-07
0 0.00692846 1.35408e-07 0 0.00692846 1.35408e-07 0 0.00689831 1.32886e-07 0
0.00689831 1.32886e-07 0 0.00686829 1.30839e-07 0 0.00686829 1.30839e-07 0 0.00683863
1.27445e-07 0 0.00683863 1.27445e-07 0 0.00680941 1.24177e-07 0 0.00680941 1.24177e-07
0 0.00678009 1.24167e-07 0 0.00678009 1.24167e-07 0 0.00675038 1.25017e-07 0
0.00675038 1.25017e-07 0 0.00672039 1.24554e-07 0 0.00672039 1.24554e-07 0 0.00669041
1.23137e-07 0 0.00669041 1.23137e-07 0 0.00666056 1.21169e-07 0 0.00666056 1.21169e-07
0 0.00663094 1.18954e-07 0 0.00663094 1.18954e-07 0 0.00660157 1.1663e-07 0
0.00660157 1.1663e-07 0 0.0065725 1.14277e-07 0 0.0065725 1.14277e-07 0 0.00654371
1.11934e-07 0 0.00654371 1.11934e-07 0 0.00651521 1.09626e-07 0 0.00651521 1.09626e-07
0 0.00648701 1.07364e-07 0 0.00648701 1.07364e-07 0 0.0064591 1.05152e-07 0
0.0064591 1.05152e-07 0 0.00643148 1.02995e-07 0 0.00643148 1.02995e-07 0 0.00640413
1.00894e-07 0 0.00640413 1.00894e-07 0 0.00637706 9.88462e-08 0 0.00637706 9.88462e-08
0 0.00635026 9.68536e-08 0 0.00635026 9.68536e-08 0 0.00632371 9.4913e-08 0
0.00632371 9.4913e-08 0 0.00629743 9.30244e-08 0 0.00629743 9.30244e-08 0 0.00627139
9.11839e-08 0 0.00627139 9.11839e-08 0 0.00624561 8.93937e-08 0 0.00624561 8.93937e-08
0 0.00622006 8.76467e-08 0 0.00622006 8.76467e-08 0 0.00619474 8.59498e-08 0
0.00619474 8.59498e-08 0 0.00616966 8.42904e-08 0 0.00616966 8.42904e-08 0 0.0061448
8.26834e-08 0 0.0061448 8.26834e-08 0 0.00612016 8.11056e-08 0 0.00612016 8.11056e-08
0 0.00609574 7.95906e-08 0 0.00609574 7.95906e-08 0 0.00607151 7.8095e-08 0
0.00607151 7.8095e-08 0 0.00604751 7.66723e-08 0 0.00604751 7.66723e-08 0 0.00602364
7.54276e-08 0 0.00602364 7.54276e-08 0 0.00600002 7.36188e-08 0 0.00600002 7.36188e-08
0 0.00597674 7.1952e-08 0 0.00597674 7.1952e-08 0 0.00595336 7.19425e-08 0
0.00595336 7.19425e-08 0 0.0059296 7.25559e-08 0 0.0059296 7.25559e-08 0 0.00590557
7.24327e-08 0 0.00590557 7.24327e-08 0 0.00588151 7.16273e-08 0 0.00588151 7.16273e-08
0 0.00585756 7.04713e-08 0 0.00585756 7.04713e-08 0 0.0058338 6.9158e-08 0
0.0058338 6.9158e-08 0 0.00581026 6.77856e-08 0 0.00581026 6.77856e-08 0 0.00578694
6.64009e-08 0 0.00578694 6.64009e-08 0 0.00576387 6.50285e-08 0 0.00576387 6.50285e-08
0 0.00574104 6.36807e-08 0 0.00574104 6.36807e-08 0 0.00571844 6.23628e-08 0
0.00571844 6.23628e-08 0 0.00569607 6.10779e-08 0 0.00569607 6.10779e-08 0 0.00567393
5.98275e-08 0 0.00567393 5.98275e-08 0 0.00565202 5.86107e-08 0 0.00565202 5.86107e-08
0 0.00563032 5.74278e-08 0 0.00563032 5.74278e-08 0 0.00560884 5.62767e-08 0
0.00560884 5.62767e-08 0 0.00558756 5.51577e-08 0 0.00558756 5.51577e-08 0 0.00556649
5.40679e-08 0 0.00556649 5.40679e-08 0 0.00554562 5.30085e-08 0 0.00554562 5.30085e-08
0 0.00552494 5.19756e-08 0 0.00552494 5.19756e-08 0 0.00550444 5.09729e-08 0
0.00550444 5.09729e-08 0 0.00548414 4.99932e-08 0 0.00548414 4.99932e-08 0 0.00546401
4.90445e-08 0 0.00546401 4.90445e-08 0 0.00544405 4.81148e-08 0 0.00544405 4.81148e-08
0 0.00542427 4.72239e-08 0 0.00542427 4.72239e-08 0 0.00540465 4.6342e-08 0
0.00540465 4.6342e-08 0 0.0053852 4.55511e-08 0 0.0053852 4.55511e-08 0 0.00536585
4.46789e-08 0 0.00536585 4.46789e-08 0 0.0053468 4.35662e-08 0 0.0053468 4.35662e-08
0 0.00532783 4.32497e-08 0 0.00532783 4.32497e-08 0 0.00530848 4.37957e-08 0
0.00530848 4.37957e-08 0 0.00528881 4.3972e-08 0 0.00528881 4.3972e-08 0 0.00526904
4.3563e-08 0 0.00526904 4.3563e-08 0 0.00524936 4.28818e-08 0 0.00524936 4.28818e-08
0 0.00522982 4.20756e-08 0 0.00522982 4.20756e-08 0 0.00521047 4.12287e-08 0
0.00521047 4.12287e-08 0 0.00519131 4.03731e-08 0 0.00519131 4.03731e-08 0 0.00517236
3.95272e-08 0 0.00517236 3.95272e-08 0 0.00515361 3.86981e-08 0 0.00515361 3.86981e-08
0 0.00513505 3.78898e-08 0 0.00513505 3.78898e-08 0 0.00511669 3.71037e-08 0
0.00511669 3.71037e-08 0 0.00509852 3.63392e-08 0 0.00509852 3.63392e-08 0 0.00508054
3.55969e-08 0 0.00508054 3.55969e-08 0 0.00506274 3.4876e-08 0 0.00506274 3.4876e-08
0 0.00504511 3.41755e-08 0 0.00504511 3.41755e-08 0 0.00502765 3.34945e-08 0
0.00502765 3.34945e-08 0 0.00501036 3.28328e-08 0 0.00501036 3.28328e-08 0 0.00499324
3.21888e-08 0 0.00499324 3.21888e-08 0 0.00497627 3.15632e-08 0 0.00497627 3.15632e-08
0 0.00495946 3.09535e-08 0 0.00495946 3.09535e-08 0 0.00494279 3.03622e-08 0
0.00494279 3.03622e-08 0 0.00492628 2.97852e-08 0 0.00492628 2.97852e-08 0 0.0049099
2.92289e-08 0 0.0049099 2.92289e-08 0 0.00489367 2.86855e-08 0 0.00489367 2.86855e-08
0 0.00487756 2.81945e-08 0 0.00487756 2.81945e-08 0 0.00486157 2.76152e-08 0
0.00486157 2.76152e-08 0 0.00484581 2.70139e-08 0 0.00484581 2.70139e-08 0 0.00483003
2.70104e-08 0 0.00483003 2.70104e-08 0 0.00481386 2.73991e-08 0 0.00481386 2.73991e-08
0 0.00479743 2.74521e-08 0 0.00479743 2.74521e-08 0 0.00478095 2.71418e-08 0
0.00478095 2.71418e-08 0 0.00476457 2.66742e-08 0 0.00476457 2.66742e-08 0 0.00474833
2.61437e-08 0 0.00474833 2.61437e-08 0 0.00473225 2.55972e-08 0 0.00473225 2.55972e-08
0 0.00471635 2.50518e-08 0 0.00471635 2.50518e-08 0 0.00470063 2.45166e-08 0
0.00470063 2.45166e-08 0 0.00468507 2.39948e-08 0 0.00468507 2.39948e-08 0 0.00466969
2.34879e-08 0 0.00466969 2.34879e-08 0 0.00465447 2.29957e-08 0 0.00465447 2.29957e-08
0 0.00463942 2.25184e-08 0 0.00463942 2.25184e-08 0 0.00462451 2.20557e-08 0
0.00462451 2.20557e-08 0 0.00460976 2.16062e-08 0 0.00460976 2.16062e-08 0 0.00459516
2.117e-08 0 0.00459516 2.117e-08 0 0.0045807 2.07456e-08 0 0.0045807 2.07456e-08
0 0.00456639 2.03338e-08 0 0.00456639 2.03338e-08 0 0.0045522 1.99326e-08 0
0.0045522 1.99326e-08 0 0.00453815 1.9544e-08 0 0.00453815 1.9544e-08 0 0.00452424
1.91638e-08 0 0.00452424 1.91638e-08 0 0.00451044 1.8799e-08 0 0.00451044 1.8799e-08
0 0.00449677 1.84359e-08 0 0.00449677 1.84359e-08 0 0.00448323 1.81063e-08 0
0.00448323 1.81063e-08 0 0.00446975 1.77756e-08 0 0.00446975 1.77756e-08 0 0.00445647
1.73512e-08 0 0.00445647 1.73512e-08 0 0.00444331 1.7166e-08 0 0.00444331 1.7166e-08
0 0.00442991 1.73815e-08 0 0.00442991 1.73815e-08 0 0.00441618 1.75623e-08 0
0.00441618 1.75623e-08 0 0.00440231 1.74658e-08 0 0.00440231 1.74658e-08 0 0.00438848
1.71939e-08 0 0.00438848 1.71939e-08 0 0.00437476 1.68531e-08 0 0.00437476 1.68531e-08
0 0.00436119 1.64914e-08 0 0.00436119 1.64914e-08 0 0.00434778 1.61285e-08 0
0.00434778 1.61285e-08 0 0.00433453 1.57714e-08 0 0.00433453 1.57714e-08 0 0.00432143
1.54238e-08 0 0.00432143 1.54238e-08 0 0.00430848 1.50856e-08 0 0.00430848 1.50856e-08
0 0.00429568 1.4758e-08 0 0.00429568 1.4758e-08 0 0.00428303 1.44399e-08 0
0.00428303 1.44399e-08 0 0.00427052 1.41311e-08 0 0.00427052 1.41311e-08 0 0.00425815
1.38314e-08 0 0.00425815 1.38314e-08 0 0.00424592 1.35398e-08 0 0.00424592 1.35398e-08
0 0.00423381 1.32561e-08 0 0.00423381 1.32561e-08 0 0.00422184 1.29798e-08 0
0.00422184 1.29798e-08 0 0.00420999 1.27091e-08 0 0.00420999 1.27091e-08 0 0.00419826
1.24476e-08 0 0.00419826 1.24476e-08 0 0.00418666 1.21903e-08 0 0.00418666 1.21903e-08
0 0.00417517 1.19443e-08 0 0.00417517 1.19443e-08 0 0.0041638 1.16953e-08 0
0.0041638 1.16953e-08 0 0.00415256 1.14793e-08 0 0.00415256 1.14793e-08 0 0.00414138
1.12256e-08 0 0.00414138 1.12256e-08 0 0.00413044 1.09515e-08 0 0.00413044 1.09515e-08
0 0.00411948 1.09977e-08 0 0.00411948 1.09977e-08 0 0.00410815 1.12138e-08 0
0.00410815 1.12138e-08 0 0.00409662 1.12181e-08 0 0.00409662 1.12181e-08 0 0.00408509
1.10436e-08 0 0.00408509 1.10436e-08 0 0.00407368 1.0802e-08 0 0.00407368 1.0802e-08
0 0.00406242 1.05387e-08 0 0.00406242 1.05387e-08 0 0.00405133 1.02726e-08 0
0.00405133 1.02726e-08 0 0.00404041 1.00091e-08 0 0.00404041 1.00091e-08 0 0.00402965
9.74955e-09 0 0.00402965 9.74955e-09 0 0.00401907 9.4961e-09 0 0.00401907 9.4961e-09
0 0.00400865 9.24751e-09 0 0.00400865 9.24751e-09 0 0.0039984 9.00415e-09 0
0.0039984 9.00415e-09 0 0.00398832 8.76539e-09 0 0.00398832 8.76539e-09 0 0.00397841
8.53033e-09 0 0.00397841 8.53033e-09 0 0.00396865 8.29891e-09 0 0.00396865 8.29891e-09
0 0.00395907 8.0708e-09 0 0.00395907 8.0708e-09 0 0.00394966 7.84504e-09 0
0.00394966 7.84504e-09 0 0.00394041 7.62138e-09 0 0.00394041 7.62138e-09 0 0.00393134
7.40167e-09 0 0.00393134 7.40167e-09 0 0.00392244 7.18047e-09 0 0.00392244 7.18047e-09
0 0.00391372 6.96563e-09 0 0.00391372 6.96563e-09 0 0.00390518 6.7488e-09 0
0.00390518 6.7488e-09 0 0.00389682 6.54289e-09 0 0.00389682 6.54289e-09 0 0.00388862
6.3137e-09 0 0.00388862 6.3137e-09 0 0.0038807 6.11278e-09 0 0.0038807 6.11278e-09
0 0.0038728 6.11754e-09 0 0.0038728 6.11754e-09 0 0.00386466 6.17754e-09 0
0.00386466 6.17754e-09 0 0.00385649 6.08305e-09 0 0.00385649 6.08305e-09 0 0.00384847
5.88229e-09 0 0.00384847 5.88229e-09 0 0.00384068 5.64431e-09 0 0.00384068 5.64431e-09
0 0.00383314 5.39478e-09 0 0.00383314 5.39478e-09 0 0.00382587 5.14414e-09 0
0.00382587 5.14414e-09 0 0.00381887 4.89775e-09 0 0.00381887 4.89775e-09 0 0.00381214
4.65483e-09 0 0.00381214 4.65483e-09 0 0.00380569 4.41656e-09 0 0.00380569 4.41656e-09
0 0.00379951 4.1844e-09 0 0.00379951 4.1844e-09 0 0.00379359 3.95576e-09 0
0.00379359 3.95576e-09 0 0.00378795 3.73116e-09 0 0.00378795 3.73116e-09 0 0.00378258
3.5128e-09 0 0.00378258 3.5128e-09 0 0.00377748 3.29881e-09 0 0.00377748 3.29881e-09
0 0.00377265 3.08865e-09 0 0.00377265 3.08865e-09 0 0.00376808 2.88534e-09 0
0.00376808 2.88534e-09 0 0.00376377 2.68588e-09 0 0.00376377 2.68588e-09 0 0.00375973
2.49078e-09 0 0.00375973 2.49078e-09 0 0.00375595 2.30277e-09 0 0.00375595 2.30277e-09
0 0.00375243 2.11872e-09 0 0.00375243 2.11872e-09 0 0.00374916 1.9412e-09 0
0.00374916 1.9412e-09 0 0.00374615 1.77218e-09 0 0.00374615 1.77218e-09 0 0.00374337
1.59632e-09 0 0.00374337 1.59632e-09 0 0.00374088 1.43761e-09 0 0.00374088 1.43761e-09
0 0.00373856 1.37449e-09 0 0.00373856 1.37449e-09 0 0.00373621 1.37984e-09 0
0.00373621 1.37984e-09 0 0.00373384 1.33943e-09 0 0.00373384 1.33943e-09 0 0.0037316
1.22893e-09 0 0.0037316 1.22893e-09 0 0.00372958 1.0879e-09 0 0.00372958 1.0879e-09
0 0.00372779 9.37226e-10 0 0.00372779 9.37226e-10 0 0.00372626 7.83905e-10 0
0.00372626 7.83905e-10 0 0.00372499 6.37232e-10 0 0.00372499 6.37232e-10 0 0.00372396
5.00706e-10 0 0.00372396 5.00706e-10 0 0.00372317 3.68038e-10 0 0.00372317 3.68038e-10
0 0.00372261 2.38179e-10 0 0.00372261 2.38179e-10 0 0.00372229 1.16528e-10 0
0.00372229 1.16528e-10 0 0.00372219 1.07954e-12 0 0.00372219 1.07954e-12 0 0.0037223
-1.12676e-10 0 0.0037223 -1.12676e-10 0 0.00372264 -2.20292e-10 0 0.00372264 -2.20292e-10
0 0.00372317 -3.19656e-10 0 0.00372317 -3.19656e-10 0 0.00372391 -4.16229e-10 0
0.00372391 -4.16229e-10 0 0.00372485 -5.1117e-10 0 0.00372485 -5.1117e-10 0 0.00372599
-5.99503e-10 0 0.00372599 -5.99503e-10 0 0.00372731 -6.81649e-10 0 0.00372731 -6.81649e-10
0 0.00372881 -7.63225e-10 0 0.00372881 -7.63225e-10 0 0.0037305 -8.4175e-10 0
0.0037305 -8.4175e-10 0 0.00373236 -9.12474e-10 0 0.00373236 -9.12474e-10 0 0.00373439
-9.7899e-10 0 0.00373439 -9.7899e-10 0 0.00373658 -1.04391e-09 0 0.00373658 -1.04391e-09
0 0.00373894 -1.11241e-09 0 0.00373894 -1.11241e-09 0 0.00374148 -1.16318e-09 0
0.00374148 -1.16318e-09 0 0.00374409 -1.1502e-09 0 0.00374409 -1.1502e-09 0 0.00374662
-1.10363e-09 0 0.00374662 -1.10363e-09 0 0.00374909 -1.09218e-09 0 0.00374909 -1.09218e-09
0 0.00375162 -1.11885e-09 0 0.00375162 -1.11885e-09 0 0.00375427 -1.16007e-09 0
0.00375427 -1.16007e-09 0 0.00375705 -1.2089e-09 0 0.00375705 -1.2089e-09 0 0.00375999
-1.26002e-09 0 0.00375999 -1.26002e-09 0 0.00376307 -1.30657e-09 0 0.00376307 -1.30657e-09
0 0.00376629 -1.34809e-09 0 0.00376629 -1.34809e-09 0 0.00376964 -1.3887e-09 0
0.00376964 -1.3887e-09 0 0.00377313 -1.42946e-09 0 0.00377313 -1.42946e-09 0 0.00377675
-1.46664e-09 0 0.00377675 -1.46664e-09 0 0.00378049 -1.49813e-09 0 0.00378049 -1.49813e-09
0 0.00378435 -1.52742e-09 0 0.00378435 -1.52742e-09 0 0.00378833 -1.55726e-09 0
0.00378833 -1.55726e-09 0 0.00379243 -1.58551e-09 0 0.00379243 -1.58551e-09 0 0.00379663
-1.60914e-09 0 0.00379663 -1.60914e-09 0 0.00380094 -1.62909e-09 0 0.00380094 -1.62909e-09
0 0.00380535 -1.64977e-09 0 0.00380535 -1.64977e-09 0 0.00380986 -1.67199e-09 0
0.00380986 -1.67199e-09 0 0.00381448 -1.69184e-09 0 0.00381448 -1.69184e-09 0 0.00381919
-1.70641e-09 0 0.00381919 -1.70641e-09 0 0.00382398 -1.71705e-09 0 0.00382398 -1.71705e-09
0 0.00382885 -1.72786e-09 0 0.00382885 -1.72786e-09 0 0.00383381 -1.74092e-09 0
0.00383381 -1.74092e-09 0 0.00383886 -1.75476e-09 0 0.00383886 -1.75476e-09 0 0.00384401
-1.76837e-09 0 0.00384401 -1.76837e-09 0 0.00384924 -1.75469e-09 0 0.00384924 -1.75469e-09
0 0.0038544 -1.69631e-09 0 0.0038544 -1.69631e-09 0 0.00385939 -1.64128e-09 0
0.00385939 -1.64128e-09 0 0.00386433 -1.62243e-09 0 0.00386433 -1.62243e-09 0 0.00386932
-1.62571e-09 0 0.00386932 -1.62571e-09 0 0.00387439 -1.63819e-09 0 0.00387439 -1.63819e-09
0 0.00387956 -1.65395e-09 0 0.00387956 -1.65395e-09 0 0.00388483 -1.67003e-09 0
0.00388483 -1.67003e-09 0 0.00389021 -1.68548e-09 0 0.00389021 -1.68548e-09 0 0.00389569
-1.69988e-09 0 0.00389569 -1.69988e-09 0 0.00390127 -1.71223e-09 0 0.00390127 -1.71223e-09
0 0.00390694 -1.72209e-09 0 0.00390694 -1.72209e-09 0 0.00391271 -1.72989e-09 0
0.00391271 -1.72989e-09 0 0.00391856 -1.73647e-09 0 0.00391856 -1.73647e-09 0 0.00392449
-1.74256e-09 0 0.00392449 -1.74256e-09 0 0.0039305 -1.74869e-09 0 0.0039305 -1.74869e-09
0 0.00393661 -1.75516e-09 0 0.00393661 -1.75516e-09 0 0.0039428 -1.7619e-09 0
0.0039428 -1.7619e-09 0 0.00394908 -1.7684e-09 0 0.00394908 -1.7684e-09 0 0.00395545
-1.77393e-09 0 0.00395545 -1.77393e-09 0 0.0039619 -1.77793e-09 0 0.0039619 -1.77793e-09
0 0.00396842 -1.78083e-09 0 0.00396842 -1.78083e-09 0 0.00397503 -1.78265e-09 0
0.00397503 -1.78265e-09 0 0.00398171 -1.78315e-09 0 0.00398171 -1.78315e-09 0 0.00398845
-1.78307e-09 0 0.00398845 -1.78307e-09 0 0.00399526 -1.78158e-09 0 0.00399526 -1.78158e-09
0 0.00400214 -1.78068e-09 0 0.00400214 -1.78068e-09 0 0.00400909 -1.76417e-09 0
0.00400909 -1.76417e-09 0 0.00401597 -1.71771e-09 0 0.00401597 -1.71771e-09 0 0.0040227
-1.6708e-09 0 0.0040227 -1.6708e-09 0 0.00402936 -1.64586e-09 0 0.00402936 -1.64586e-09
0 0.00403602 -1.63533e-09 0 0.00403602 -1.63533e-09 0 0.00404273 -1.63085e-09 0
0.00404273 -1.63085e-09 0 0.0040495 -1.62846e-09 0 0.0040495 -1.62846e-09 0 0.00405633
-1.62646e-09 0 0.00405633 -1.62646e-09 0 0.00406323 -1.62488e-09 0 0.00406323 -1.62488e-09
0 0.00407019 -1.62358e-09 0 0.00407019 -1.62358e-09 0 0.00407722 -1.62235e-09 0
0.00407722 -1.62235e-09 0 0.00408432 -1.62076e-09 0 0.00408432 -1.62076e-09 0 0.00409148
-1.61834e-09 0 0.00409148 -1.61834e-09 0 0.0040987 -1.61543e-09 0 0.0040987 -1.61543e-09
0 0.00410598 -1.61235e-09 0 0.00410598 -1.61235e-09 0 0.00411332 -1.60911e-09 0
0.00411332 -1.60911e-09 0 0.00412073 -1.60554e-09 0 0.00412073 -1.60554e-09 0 0.00412819
-1.60155e-09 0 0.00412819 -1.60155e-09 0 0.00413572 -1.59721e-09 0 0.00413572 -1.59721e-09
0 0.0041433 -1.593e-09 0 0.0041433 -1.593e-09 0 0.00415094 -1.58853e-09 0
0.00415094 -1.58853e-09 0 0.00415864 -1.58361e-09 0 0.00415864 -1.58361e-09 0 0.00416639
-1.57858e-09 0 0.00416639 -1.57858e-09 0 0.0041742 -1.5733e-09 0 0.0041742 -1.5733e-09
0 0.00418206 -1.56762e-09 0 0.00418206 -1.56762e-09 0 0.00418997 -1.5628e-09 0
0.00418997 -1.5628e-09 0 0.00419795 -1.54818e-09 0 0.00419795 -1.54818e-09 0 0.00420588
-1.51251e-09 0 0.00420588 -1.51251e-09 0 0.00421365 -1.47348e-09 0 0.00421365 -1.47348e-09
0 0.00422133 -1.44928e-09 0 0.00422133 -1.44928e-09 0 0.00422901 -1.43675e-09 0
0.00422901 -1.43675e-09 0 0.00423672 -1.42946e-09 0 0.00423672 -1.42946e-09 0 0.00424448
-1.42406e-09 0 0.00424448 -1.42406e-09 0 0.00425229 -1.41943e-09 0 0.00425229 -1.41943e-09
0 0.00426016 -1.415e-09 0 0.00426016 -1.415e-09 0 0.00426809 -1.41016e-09 0
0.00426809 -1.41016e-09 0 0.00427607 -1.40585e-09 0 0.00427607 -1.40585e-09 0 0.00428411
-1.40173e-09 0 0.00428411 -1.40173e-09 0 0.00429221 -1.39654e-09 0 0.00429221 -1.39654e-09
0 0.00430036 -1.39093e-09 0 0.00430036 -1.39093e-09 0 0.00430857 -1.38606e-09 0
0.00430857 -1.38606e-09 0 0.00431683 -1.38101e-09 0 0.00431683 -1.38101e-09 0 0.00432514
-1.37513e-09 0 0.00432514 -1.37513e-09 0 0.00433351 -1.36946e-09 0 0.00433351 -1.36946e-09
0 0.00434193 -1.36365e-09 0 0.00434193 -1.36365e-09 0 0.00435039 -1.35759e-09 0
0.00435039 -1.35759e-09 0 0.00435891 -1.35147e-09 0 0.00435891 -1.35147e-09 0 0.00436748
-1.34517e-09 0 0.00436748 -1.34517e-09 0 0.0043761 -1.33877e-09 0 0.0043761 -1.33877e-09
0 0.00438477 -1.33221e-09 0 0.00438477 -1.33221e-09 0 0.00439348 -1.32646e-09 0
0.00439348 -1.32646e-09 0 0.00440225 -1.31234e-09 0 0.00440225 -1.31234e-09 0 0.00441095
-1.28206e-09 0 0.00441095 -1.28206e-09 0 0.00441949 -1.25075e-09 0 0.00441949 -1.25075e-09
0 0.00442796 -1.2314e-09 0 0.00442796 -1.2314e-09 0 0.00443641 -1.2204e-09 0
0.00443641 -1.2204e-09 0 0.0044449 -1.21279e-09 0 0.0044449 -1.21279e-09 0 0.00445342
-1.20665e-09 0 0.00445342 -1.20665e-09 0 0.004462 -1.20107e-09 0 0.004462 -1.20107e-09
0 0.00447062 -1.19571e-09 0 0.00447062 -1.19571e-09 0 0.0044793 -1.19068e-09 0
0.0044793 -1.19068e-09 0 0.00448802 -1.18494e-09 0 0.00448802 -1.18494e-09 0 0.0044968
-1.17906e-09 0 0.0044968 -1.17906e-09 0 0.00450562 -1.17359e-09 0 0.00450562 -1.17359e-09
0 0.0045145 -1.16783e-09 0 0.0045145 -1.16783e-09 0 0.00452342 -1.16207e-09 0
0.00452342 -1.16207e-09 0 0.00453239 -1.15595e-09 0 0.00453239 -1.15595e-09 0 0.00454141
-1.14983e-09 0 0.00454141 -1.14983e-09 0 0.00455047 -1.14354e-09 0 0.00455047 -1.14354e-09
0 0.00455958 -1.13746e-09 0 0.00455958 -1.13746e-09 0 0.00456873 -1.1315e-09 0
0.00456873 -1.1315e-09 0 0.00457793 -1.12496e-09 0 0.00457793 -1.12496e-09 0 0.00458718
-1.1186e-09 0 0.00458718 -1.1186e-09 0 0.00459646 -1.11275e-09 0 0.00459646 -1.11275e-09
0 0.00460579 -1.10562e-09 0 0.00460579 -1.10562e-09 0 0.00461515 -1.08984e-09 0
0.00461515 -1.08984e-09 0 0.0046244 -1.06266e-09 0 0.0046244 -1.06266e-09 0 0.00463349
-1.03985e-09 0 0.00463349 -1.03985e-09 0 0.00464254 -1.02637e-09 0 0.00464254 -1.02637e-09
0 0.00465158 -1.01821e-09 0 0.00465158 -1.01821e-09 0 0.00466067 -1.01078e-09 0
0.00466067 -1.01078e-09 0 0.00466976 -1.00588e-09 0 0.00466976 -1.00588e-09 0 0.00467896
-9.9939e-10 0 0.00467896 -9.9939e-10 0 0.00468811 -9.95081e-10 0 0.00468811 -9.95081e-10
0 0.00469743 -9.88254e-10 0 0.00469743 -9.88254e-10 0 0.00470664 -9.84285e-10 0
0.00470664 -9.84285e-10 0 0.00471608 -9.77482e-10 0 0.00471608 -9.77482e-10 0 0.00472535
-9.73019e-10 0 0.00472535 -9.73019e-10 0 0.0047349 -9.6664e-10 0 0.0047349 -9.6664e-10
0 0.00474424 -9.6122e-10 0 0.00474424 -9.6122e-10 0 0.00475389 -9.5565e-10 0
0.00475389 -9.5565e-10 0 0.00476331 -9.49029e-10 0 0.00476331 -9.49029e-10 0 0.00477303
-9.44194e-10 0 0.00477303 -9.44194e-10 0 0.00478256 -9.37114e-10 0 0.00478256 -9.37114e-10
0 0.00479233 -9.33661e-10 0 0.00479233 -9.33661e-10 0 0.00480198 -9.24144e-10 0
0.00480198 -9.24144e-10 0 0.00481176 -9.24173e-10 0 0.00481176 -9.24173e-10 0 0.0048216
-9.05297e-10 0 0.0048216 -9.05297e-10 0 0.00483119 -9.01387e-10 0 0.00483119 -9.01387e-10
0 0.00484114 -8.49095e-10 0 0.00484114 -8.49095e-10 0 0.00484978 -8.93726e-10 0
0.00484978 -8.93726e-10 0 0.0105581 -1.47478e-09 0 0.0105581 -1.47478e-09 0 0.0162665
-1.94395e-09 0 0.0162665 -1.94395e-09 0 
