# vtk DataFile Version 2.0
sampleSurface
ASCII
DATASET POLYDATA
POINTS 1202 float
0 0 0 5.99825e-05 0 0 5.99825e-05 0 0.1 0 0
0.1 0.000120591 0 0 0.000120591 0 0.1 0.000181831 0 0
0.000181831 0 0.1 0.000243709 0 0 0.000243709 0 0.1 0.000306234
0 0 0.000306234 0 0.1 0.00036941 0 0 0.00036941 0
0.1 0.000433245 0 0 0.000433245 0 0.1 0.000497746 0 0
0.000497746 0 0.1 0.000562919 0 0 0.000562919 0 0.1 0.000628772
0 0 0.000628772 0 0.1 0.000695312 0 0 0.000695312 0
0.1 0.000762546 0 0 0.000762546 0 0.1 0.000830481 0 0
0.000830481 0 0.1 0.000899125 0 0 0.000899125 0 0.1 0.000968484
0 0 0.000968484 0 0.1 0.00103857 0 0 0.00103857 0
0.1 0.00110938 0 0 0.00110938 0 0.1 0.00118093 0 0
0.00118093 0 0.1 0.00125323 0 0 0.00125323 0 0.1 0.00132628
0 0 0.00132628 0 0.1 0.0014001 0 0 0.0014001 0
0.1 0.00147468 0 0 0.00147468 0 0.1 0.00155004 0 0
0.00155004 0 0.1 0.00162619 0 0 0.00162619 0 0.1 0.00170313
0 0 0.00170313 0 0.1 0.00178088 0 0 0.00178088 0
0.1 0.00185943 0 0 0.00185943 0 0.1 0.00193881 0 0
0.00193881 0 0.1 0.00201901 0 0 0.00201901 0 0.1 0.00210005
0 0 0.00210005 0 0.1 0.00218193 0 0 0.00218193 0
0.1 0.00226467 0 0 0.00226467 0 0.1 0.00234827 0 0
0.00234827 0 0.1 0.00243274 0 0 0.00243274 0 0.1 0.0025181
0 0 0.0025181 0 0.1 0.00260434 0 0 0.00260434 0
0.1 0.00269148 0 0 0.00269148 0 0.1 0.00277954 0 0
0.00277954 0 0.1 0.00286851 0 0 0.00286851 0 0.1 0.0029584
0 0 0.0029584 0 0.1 0.00304924 0 0 0.00304924 0
0.1 0.00314102 0 0 0.00314102 0 0.1 0.00323376 0 0
0.00323376 0 0.1 0.00332747 0 0 0.00332747 0 0.1 0.00342215
0 0 0.00342215 0 0.1 0.00351783 0 0 0.00351783 0
0.1 0.0036145 0 0 0.0036145 0 0.1 0.00371217 0 0
0.00371217 0 0.1 0.00381087 0 0 0.00381087 0 0.1 0.0039106
0 0 0.0039106 0 0.1 0.00401136 0 0 0.00401136 0
0.1 0.00411318 0 0 0.00411318 0 0.1 0.00421606 0 0
0.00421606 0 0.1 0.00432001 0 0 0.00432001 0 0.1 0.00442505
0 0 0.00442505 0 0.1 0.00453118 0 0 0.00453118 0
0.1 0.00463842 0 0 0.00463842 0 0.1 0.00474677 0 0
0.00474677 0 0.1 0.00485626 0 0 0.00485626 0 0.1 0.00496689
0 0 0.00496689 0 0.1 0.00507867 0 0 0.00507867 0
0.1 0.00519162 0 0 0.00519162 0 0.1 0.00530574 0 0
0.00530574 0 0.1 0.00542106 0 0 0.00542106 0 0.1 0.00553758
0 0 0.00553758 0 0.1 0.00565531 0 0 0.00565531 0
0.1 0.00577427 0 0 0.00577427 0 0.1 0.00589447 0 0
0.00589447 0 0.1 0.00601593 0 0 0.00601593 0 0.1 0.00613865
0 0 0.00613865 0 0.1 0.00626266 0 0 0.00626266 0
0.1 0.00638795 0 0 0.00638795 0 0.1 0.00651455 0 0
0.00651455 0 0.1 0.00664248 0 0 0.00664248 0 0.1 0.00677173
0 0 0.00677173 0 0.1 0.00690234 0 0 0.00690234 0
0.1 0.0070343 0 0 0.0070343 0 0.1 0.00716765 0 0
0.00716765 0 0.1 0.00730238 0 0 0.00730238 0 0.1 0.00743852
0 0 0.00743852 0 0.1 0.00757608 0 0 0.00757608 0
0.1 0.00771507 0 0 0.00771507 0 0.1 0.00785551 0 0
0.00785551 0 0.1 0.00799742 0 0 0.00799742 0 0.1 0.00814081
0 0 0.00814081 0 0.1 0.00828569 0 0 0.00828569 0
0.1 0.00843209 0 0 0.00843209 0 0.1 0.00858001 0 0
0.00858001 0 0.1 0.00872947 0 0 0.00872947 0 0.1 0.00888049
0 0 0.00888049 0 0.1 0.00903309 0 0 0.00903309 0
0.1 0.00918728 0 0 0.00918728 0 0.1 0.00934307 0 0
0.00934307 0 0.1 0.00950049 0 0 0.00950049 0 0.1 0.00965956
0 0 0.00965956 0 0.1 0.00982028 0 0 0.00982028 0
0.1 0.00998268 0 0 0.00998268 0 0.1 0.0101468 0 0
0.0101468 0 0.1 0.0103126 0 0 0.0103126 0 0.1 0.0104801
0 0 0.0104801 0 0.1 0.0106494 0 0 0.0106494 0
0.1 0.0108204 0 0 0.0108204 0 0.1 0.0109933 0 0
0.0109933 0 0.1 0.0111679 0 0 0.0111679 0 0.1 0.0113443
0 0 0.0113443 0 0.1 0.0115226 0 0 0.0115226 0
0.1 0.0117028 0 0 0.0117028 0 0.1 0.0118848 0 0
0.0118848 0 0.1 0.0120687 0 0 0.0120687 0 0.1 0.0122546
0 0 0.0122546 0 0.1 0.0124424 0 0 0.0124424 0
0.1 0.0126321 0 0 0.0126321 0 0.1 0.0128238 0 0
0.0128238 0 0.1 0.0130176 0 0 0.0130176 0 0.1 0.0132133
0 0 0.0132133 0 0.1 0.0134111 0 0 0.0134111 0
0.1 0.0136109 0 0 0.0136109 0 0.1 0.0138129 0 0
0.0138129 0 0.1 0.0140169 0 0 0.0140169 0 0.1 0.0142231
0 0 0.0142231 0 0.1 0.0144314 0 0 0.0144314 0
0.1 0.0146419 0 0 0.0146419 0 0.1 0.0148546 0 0
0.0148546 0 0.1 0.0150695 0 0 0.0150695 0 0.1 0.0152866
0 0 0.0152866 0 0.1 0.015506 0 0 0.015506 0
0.1 0.0157277 0 0 0.0157277 0 0.1 0.0159517 0 0
0.0159517 0 0.1 0.016178 0 0 0.016178 0 0.1 0.0164067
0 0 0.0164067 0 0.1 0.0166378 0 0 0.0166378 0
0.1 0.0168713 0 0 0.0168713 0 0.1 0.0171073 0 0
0.0171073 0 0.1 0.0173457 0 0 0.0173457 0 0.1 0.0175865
0 0 0.0175865 0 0.1 0.0178299 0 0 0.0178299 0
0.1 0.0180759 0 0 0.0180759 0 0.1 0.0183244 0 0
0.0183244 0 0.1 0.0185754 0 0 0.0185754 0 0.1 0.0188291
0 0 0.0188291 0 0.1 0.0190855 0 0 0.0190855 0
0.1 0.0193445 0 0 0.0193445 0 0.1 0.0196063 0 0
0.0196063 0 0.1 0.0198707 0 0 0.0198707 0 0.1 0.0201379
0 0 0.0201379 0 0.1 0.0204079 0 0 0.0204079 0
0.1 0.0206807 0 0 0.0206807 0 0.1 0.0209564 0 0
0.0209564 0 0.1 0.0212349 0 0 0.0212349 0 0.1 0.0215164
0 0 0.0215164 0 0.1 0.0218008 0 0 0.0218008 0
0.1 0.0220881 0 0 0.0220881 0 0.1 0.0223784 0 0
0.0223784 0 0.1 0.0226718 0 0 0.0226718 0 0.1 0.0229682
0 0 0.0229682 0 0.1 0.0232677 0 0 0.0232677 0
0.1 0.0235704 0 0 0.0235704 0 0.1 0.0238762 0 0
0.0238762 0 0.1 0.0241852 0 0 0.0241852 0 0.1 0.0244974
0 0 0.0244974 0 0.1 0.0248128 0 0 0.0248128 0
0.1 0.0251316 0 0 0.0251316 0 0.1 0.0254537 0 0
0.0254537 0 0.1 0.0257791 0 0 0.0257791 0 0.1 0.0261079
0 0 0.0261079 0 0.1 0.0264402 0 0 0.0264402 0
0.1 0.0267759 0 0 0.0267759 0 0.1 0.0271152 0 0
0.0271152 0 0.1 0.0274579 0 0 0.0274579 0 0.1 0.0278043
0 0 0.0278043 0 0.1 0.0281542 0 0 0.0281542 0
0.1 0.0285078 0 0 0.0285078 0 0.1 0.0288651 0 0
0.0288651 0 0.1 0.0292261 0 0 0.0292261 0 0.1 0.0295909
0 0 0.0295909 0 0.1 0.0299595 0 0 0.0299595 0
0.1 0.0303319 0 0 0.0303319 0 0.1 0.0307082 0 0
0.0307082 0 0.1 0.0310885 0 0 0.0310885 0 0.1 0.0314727
0 0 0.0314727 0 0.1 0.0318609 0 0 0.0318609 0
0.1 0.0322532 0 0 0.0322532 0 0.1 0.0326495 0 0
0.0326495 0 0.1 0.03305 0 0 0.03305 0 0.1 0.0334546
0 0 0.0334546 0 0.1 0.0338635 0 0 0.0338635 0
0.1 0.0342767 0 0 0.0342767 0 0.1 0.0346941 0 0
0.0346941 0 0.1 0.0351159 0 0 0.0351159 0 0.1 0.0355421
0 0 0.0355421 0 0.1 0.0359728 0 0 0.0359728 0
0.1 0.0364079 0 0 0.0364079 0 0.1 0.0368476 0 0
0.0368476 0 0.1 0.0372919 0 0 0.0372919 0 0.1 0.0377408
0 0 0.0377408 0 0.1 0.0381944 0 0 0.0381944 0
0.1 0.0386527 0 0 0.0386527 0 0.1 0.0391158 0 0
0.0391158 0 0.1 0.0395837 0 0 0.0395837 0 0.1 0.0400565
0 0 0.0400565 0 0.1 0.0405342 0 0 0.0405342 0
0.1 0.0410169 0 0 0.0410169 0 0.1 0.0415047 0 0
0.0415047 0 0.1 0.0419975 0 0 0.0419975 0 0.1 0.0424955
0 0 0.0424955 0 0.1 0.0429986 0 0 0.0429986 0
0.1 0.0435071 0 0 0.0435071 0 0.1 0.0440208 0 0
0.0440208 0 0.1 0.0445398 0 0 0.0445398 0 0.1 0.0450643
0 0 0.0450643 0 0.1 0.0455943 0 0 0.0455943 0
0.1 0.0461298 0 0 0.0461298 0 0.1 0.0466708 0 0
0.0466708 0 0.1 0.0472176 0 0 0.0472176 0 0.1 0.04777
0 0 0.04777 0 0.1 0.0483281 0 0 0.0483281 0
0.1 0.0488921 0 0 0.0488921 0 0.1 0.049462 0 0
0.049462 0 0.1 0.0500378 0 0 0.0500378 0 0.1 0.0506197
0 0 0.0506197 0 0.1 0.0512076 0 0 0.0512076 0
0.1 0.0518016 0 0 0.0518016 0 0.1 0.0524018 0 0
0.0524018 0 0.1 0.0530083 0 0 0.0530083 0 0.1 0.0536211
0 0 0.0536211 0 0.1 0.0542403 0 0 0.0542403 0
0.1 0.0548659 0 0 0.0548659 0 0.1 0.0554981 0 0
0.0554981 0 0.1 0.0561369 0 0 0.0561369 0 0.1 0.0567823
0 0 0.0567823 0 0.1 0.0574345 0 0 0.0574345 0
0.1 0.0580934 0 0 0.0580934 0 0.1 0.0587593 0 0
0.0587593 0 0.1 0.0594321 0 0 0.0594321 0 0.1 0.0601119
0 0 0.0601119 0 0.1 0.0607987 0 0 0.0607987 0
0.1 0.0614928 0 0 0.0614928 0 0.1 0.0621941 0 0
0.0621941 0 0.1 0.0629027 0 0 0.0629027 0 0.1 0.0636187
0 0 0.0636187 0 0.1 0.0643421 0 0 0.0643421 0
0.1 0.0650732 0 0 0.0650732 0 0.1 0.0658118 0 0
0.0658118 0 0.1 0.0665581 0 0 0.0665581 0 0.1 0.0673122
0 0 0.0673122 0 0.1 0.0680742 0 0 0.0680742 0
0.1 0.0688441 0 0 0.0688441 0 0.1 0.0696221 0 0
0.0696221 0 0.1 0.0704082 0 0 0.0704082 0 0.1 0.0712024
0 0 0.0712024 0 0.1 0.072005 0 0 0.072005 0
0.1 0.0728159 0 0 0.0728159 0 0.1 0.0736353 0 0
0.0736353 0 0.1 0.0744632 0 0 0.0744632 0 0.1 0.0752998
0 0 0.0752998 0 0.1 0.076145 0 0 0.076145 0
0.1 0.0769991 0 0 0.0769991 0 0.1 0.0778621 0 0
0.0778621 0 0.1 0.0787342 0 0 0.0787342 0 0.1 0.0796153
0 0 0.0796153 0 0.1 0.0805055 0 0 0.0805055 0
0.1 0.0814051 0 0 0.0814051 0 0.1 0.0823141 0 0
0.0823141 0 0.1 0.0832325 0 0 0.0832325 0 0.1 0.0841605
0 0 0.0841605 0 0.1 0.0850982 0 0 0.0850982 0
0.1 0.0860457 0 0 0.0860457 0 0.1 0.087003 0 0
0.087003 0 0.1 0.0879704 0 0 0.0879704 0 0.1 0.0889478
0 0 0.0889478 0 0.1 0.0899354 0 0 0.0899354 0
0.1 0.0909333 0 0 0.0909333 0 0.1 0.0919416 0 0
0.0919416 0 0.1 0.0929605 0 0 0.0929605 0 0.1 0.0939899
0 0 0.0939899 0 0.1 0.0950302 0 0 0.0950302 0
0.1 0.0960812 0 0 0.0960812 0 0.1 0.0971432 0 0
0.0971432 0 0.1 0.0982163 0 0 0.0982163 0 0.1 0.0993006
0 0 0.0993006 0 0.1 0.100396 0 0 0.100396 0
0.1 0.101503 0 0 0.101503 0 0.1 0.102622 0 0
0.102622 0 0.1 0.103752 0 0 0.103752 0 0.1 0.104894
0 0 0.104894 0 0.1 0.106048 0 0 0.106048 0
0.1 0.107214 0 0 0.107214 0 0.1 0.108392 0 0
0.108392 0 0.1 0.109582 0 0 0.109582 0 0.1 0.110785
0 0 0.110785 0 0.1 0.112001 0 0 0.112001 0
0.1 0.113229 0 0 0.113229 0 0.1 0.114469 0 0
0.114469 0 0.1 0.115723 0 0 0.115723 0 0.1 0.11699
0 0 0.11699 0 0.1 0.11827 0 0 0.11827 0
0.1 0.119564 0 0 0.119564 0 0.1 0.12087 0 0
0.12087 0 0.1 0.122191 0 0 0.122191 0 0.1 0.123525
0 0 0.123525 0 0.1 0.124873 0 0 0.124873 0
0.1 0.126236 0 0 0.126236 0 0.1 0.127612 0 0
0.127612 0 0.1 0.129003 0 0 0.129003 0 0.1 0.130408
0 0 0.130408 0 0.1 0.131828 0 0 0.131828 0
0.1 0.133263 0 0 0.133263 0 0.1 0.134713 0 0
0.134713 0 0.1 0.136178 0 0 0.136178 0 0.1 0.137658
0 0 0.137658 0 0.1 0.139154 0 0 0.139154 0
0.1 0.140665 0 0 0.140665 0 0.1 0.142192 0 0
0.142192 0 0.1 0.143735 0 0 0.143735 0 0.1 0.145294
0 0 0.145294 0 0.1 0.146869 0 0 0.146869 0
0.1 0.148461 0 0 0.148461 0 0.1 0.150069 0 0
0.150069 0 0.1 0.151694 0 0 0.151694 0 0.1 0.153336
0 0 0.153336 0 0.1 0.154995 0 0 0.154995 0
0.1 0.156672 0 0 0.156672 0 0.1 0.158366 0 0
0.158366 0 0.1 0.160077 0 0 0.160077 0 0.1 0.161807
0 0 0.161807 0 0.1 0.163554 0 0 0.163554 0
0.1 0.16532 0 0 0.16532 0 0.1 0.167104 0 0
0.167104 0 0.1 0.168907 0 0 0.168907 0 0.1 0.170728
0 0 0.170728 0 0.1 0.172569 0 0 0.172569 0
0.1 0.174428 0 0 0.174428 0 0.1 0.176307 0 0
0.176307 0 0.1 0.178206 0 0 0.178206 0 0.1 0.180124
0 0 0.180124 0 0.1 0.182063 0 0 0.182063 0
0.1 0.184022 0 0 0.184022 0 0.1 0.186001 0 0
0.186001 0 0.1 0.188001 0 0 0.188001 0 0.1 0.190021
0 0 0.190021 0 0.1 0.192063 0 0 0.192063 0
0.1 0.194126 0 0 0.194126 0 0.1 0.19621 0 0
0.19621 0 0.1 0.198317 0 0 0.198317 0 0.1 0.200445
0 0 0.200445 0 0.1 0.202595 0 0 0.202595 0
0.1 0.204768 0 0 0.204768 0 0.1 0.206964 0 0
0.206964 0 0.1 0.209182 0 0 0.209182 0 0.1 0.211424
0 0 0.211424 0 0.1 0.213689 0 0 0.213689 0
0.1 0.215977 0 0 0.215977 0 0.1 0.21829 0 0
0.21829 0 0.1 0.220626 0 0 0.220626 0 0.1 0.222987
0 0 0.222987 0 0.1 0.225372 0 0 0.225372 0
0.1 0.227783 0 0 0.227783 0 0.1 0.230218 0 0
0.230218 0 0.1 0.232679 0 0 0.232679 0 0.1 0.235166
0 0 0.235166 0 0.1 0.237678 0 0 0.237678 0
0.1 0.240217 0 0 0.240217 0 0.1 0.242782 0 0
0.242782 0 0.1 0.245374 0 0 0.245374 0 0.1 0.247993
0 0 0.247993 0 0.1 0.25064 0 0 0.25064 0
0.1 0.253313 0 0 0.253313 0 0.1 0.256015 0 0
0.256015 0 0.1 0.258745 0 0 0.258745 0 0.1 0.261504
0 0 0.261504 0 0.1 0.264291 0 0 0.264291 0
0.1 0.267107 0 0 0.267107 0 0.1 0.269953 0 0
0.269953 0 0.1 0.272828 0 0 0.272828 0 0.1 0.275733
0 0 0.275733 0 0.1 0.278669 0 0 0.278669 0
0.1 0.281635 0 0 0.281635 0 0.1 0.284632 0 0
0.284632 0 0.1 0.287661 0 0 0.287661 0 0.1 0.290721
0 0 0.290721 0 0.1 0.293813 0 0 0.293813 0
0.1 0.296937 0 0 0.296937 0 0.1 0.300093 0 0
0.300093 0 0.1 0.303283 0 0 0.303283 0 0.1 0.306506
0 0 0.306506 0 0.1 0.309763 0 0 0.309763 0
0.1 0.313053 0 0 0.313053 0 0.1 0.316378 0 0
0.316378 0 0.1 0.319737 0 0 0.319737 0 0.1 0.323132
0 0 0.323132 0 0.1 0.326562 0 0 0.326562 0
0.1 0.330027 0 0 0.330027 0 0.1 0.333529 0 0
0.333529 0 0.1 0.337068 0 0 0.337068 0 0.1 0.340643
0 0 0.340643 0 0.1 0.344255 0 0 0.344255 0
0.1 0.347906 0 0 0.347906 0 0.1 0.351594 0 0
0.351594 0 0.1 0.355321 0 0 0.355321 0 0.1 0.359086
0 0 0.359086 0 0.1 0.362891 0 0 0.362891 0
0.1 0.366736 0 0 0.366736 0 0.1 0.37062 0 0
0.37062 0 0.1 0.374546 0 0 0.374546 0 0.1 0.378512
0 0 0.378512 0 0.1 0.382519 0 0 0.382519 0
0.1 0.386568 0 0 0.386568 0 0.1 0.39066 0 0
0.39066 0 0.1 0.394794 0 0 0.394794 0 0.1 0.398971
0 0 0.398971 0 0.1 0.403192 0 0 0.403192 0
0.1 0.407457 0 0 0.407457 0 0.1 0.411766 0 0
0.411766 0 0.1 0.416121 0 0 0.416121 0 0.1 0.42052
0 0 0.42052 0 0.1 0.424966 0 0 0.424966 0
0.1 0.429458 0 0 0.429458 0 0.1 0.433997 0 0
0.433997 0 0.1 0.438583 0 0 0.438583 0 0.1 0.443217
0 0 0.443217 0 0.1 0.447899 0 0 0.447899 0
0.1 0.45263 0 0 0.45263 0 0.1 0.457411 0 0
0.457411 0 0.1 0.462241 0 0 0.462241 0 0.1 0.467122
0 0 0.467122 0 0.1 0.472053 0 0 0.472053 0
0.1 0.477036 0 0 0.477036 0 0.1 0.482071 0 0
0.482071 0 0.1 0.487159 0 0 0.487159 0 0.1 0.492299
0 0 0.492299 0 0.1 0.497493 0 0 0.497493 0
0.1 0.502742 0 0 0.502742 0 0.1 0.508045 0 0
0.508045 0 0.1 0.513403 0 0 0.513403 0 0.1 0.518817
0 0 0.518817 0 0.1 0.524288 0 0 0.524288 0
0.1 0.529816 0 0 0.529816 0 0.1 0.535401 0 0
0.535401 0 0.1 0.541045 0 0 0.541045 0 0.1 0.546748
0 0 0.546748 0 0.1 0.55251 0 0 0.55251 0
0.1 0.558332 0 0 0.558332 0 0.1 0.564215 0 0
0.564215 0 0.1 0.570159 0 0 0.570159 0 0.1 0.576165
0 0 0.576165 0 0.1 0.582234 0 0 0.582234 0
0.1 0.588366 0 0 0.588366 0 0.1 0.594562 0 0
0.594562 0 0.1 0.600822 0 0 0.600822 0 0.1 0.607148
0 0 0.607148 0 0.1 0.61354 0 0 0.61354 0
0.1 0.619999 0 0 0.619999 0 0.1 0.626525 0 0
0.626525 0 0.1 0.633119 0 0 0.633119 0 0.1 0.639782
0 0 0.639782 0 0.1 0.646514 0 0 0.646514 0
0.1 0.653316 0 0 0.653316 0 0.1 0.66019 0 0
0.66019 0 0.1 0.667135 0 0 0.667135 0 0.1 0.674152
0 0 0.674152 0 0.1 0.681243 0 0 0.681243 0
0.1 0.688408 0 0 0.688408 0 0.1 0.695647 0 0
0.695647 0 0.1 0.702962 0 0 0.702962 0 0.1 0.710353
0 0 0.710353 0 0.1 0.717821 0 0 0.717821 0
0.1 0.725367 0 0 0.725367 0 0.1 0.732992 0 0
0.732992 0 0.1 0.740697 0 0 0.740697 0 0.1 0.748481
0 0 0.748481 0 0.1 0.756347 0 0 0.756347 0
0.1 0.764295 0 0 0.764295 0 0.1 0.772326 0 0
0.772326 0 0.1 0.78044 0 0 0.78044 0 0.1 0.78864
0 0 0.78864 0 0.1 0.796924 0 0 0.796924 0
0.1 0.805295 0 0 0.805295 0 0.1 0.813754 0 0
0.813754 0 0.1 0.8223 0 0 0.8223 0 0.1 0.830936
0 0 0.830936 0 0.1 0.839662 0 0 0.839662 0
0.1 0.848479 0 0 0.848479 0 0.1 0.857387 0 0
0.857387 0 0.1 0.866389 0 0 0.866389 0 0.1 0.875485
0 0 0.875485 0 0.1 0.884675 0 0 0.884675 0
0.1 0.893961 0 0 0.893961 0 0.1 0.903344 0 0
0.903344 0 0.1 0.912825 0 0 0.912825 0 0.1 0.922405
0 0 0.922405 0 0.1 0.932085 0 0 0.932085 0
0.1 0.941865 0 0 0.941865 0 0.1 0.951748 0 0
0.951748 0 0.1 0.961734 0 0 0.961734 0 0.1 0.971824
0 0 0.971824 0 0.1 0.982019 0 0 0.982019 0
0.1 0.99232 0 0 0.99232 0 0.1 1.00273 0 0
1.00273 0 0.1 1.01325 0 0 1.01325 0 0.1 1.02387
0 0 1.02387 0 0.1 1.03461 0 0 1.03461 0
0.1 1.04546 0 0 1.04546 0 0.1 1.05642 0 0
1.05642 0 0.1 1.0675 0 0 1.0675 0 0.1 1.07869
0 0 1.07869 0 0.1 1.09 0 0 1.09 0
0.1 1.10143 0 0 1.10143 0 0.1 1.11298 0 0
1.11298 0 0.1 1.12465 0 0 1.12465 0 0.1 1.13644
0 0 1.13644 0 0.1 1.14835 0 0 1.14835 0
0.1 1.16038 0 0 1.16038 0 0.1 1.17254 0 0
1.17254 0 0.1 1.18483 0 0 1.18483 0 0.1 1.19725
0 0 1.19725 0 0.1 1.2098 0 0 1.2098 0
0.1 1.22247 0 0 1.22247 0 0.1 1.23528 0 0
1.23528 0 0.1 1.24822 0 0 1.24822 0 0.1 1.2613
0 0 1.2613 0 0.1 1.27452 0 0 1.27452 0
0.1 1.28787 0 0 1.28787 0 0.1 1.30136 0 0
1.30136 0 0.1 1.31499 0 0 1.31499 0 0.1 1.32877
0 0 1.32877 0 0.1 1.34268 0 0 1.34268 0
0.1 1.35675 0 0 1.35675 0 0.1 1.37095 0 0
1.37095 0 0.1 1.38531 0 0 1.38531 0 0.1 1.39982
0 0 1.39982 0 0.1 1.41448 0 0 1.41448 0
0.1 1.42929 0 0 1.42929 0 0.1 1.44426 0 0
1.44426 0 0.1 1.45938 0 0 1.45938 0 0.1 1.47466
0 0 1.47466 0 0.1 1.4901 0 0 1.4901 0
0.1 1.5057 0 0 1.5057 0 0.1 1.52146 0 0
1.52146 0 0.1 1.53739 0 0 1.53739 0 0.1 1.55348
0 0 1.55348 0 0.1 1.56974 0 0 1.56974 0
0.1 1.58617 0 0 1.58617 0 0.1 1.60278 0 0
1.60278 0 0.1 1.61955 0 0 1.61955 0 0.1 1.6365
0 0 1.6365 0 0.1 1.65363 0 0 1.65363 0
0.1 1.67093 0 0 1.67093 0 0.1 1.68842 0 0
1.68842 0 0.1 1.70609 0 0 1.70609 0 0.1 1.72394
0 0 1.72394 0 0.1 1.74198 0 0 1.74198 0
0.1 1.76021 0 0 1.76021 0 0.1 1.77862 0 0
1.77862 0 0.1 1.79723 0 0 1.79723 0 0.1 1.81604
0 0 1.81604 0 0.1 1.83504 0 0 1.83504 0
0.1 1.85423 0 0 1.85423 0 0.1 1.87363 0 0
1.87363 0 0.1 1.89323 0 0 1.89323 0 0.1 1.91304
0 0 1.91304 0 0.1 1.93305 0 0 1.93305 0
0.1 1.95327 0 0 1.95327 0 0.1 1.9737 0 0
1.9737 0 0.1 1.99434 0 0 1.99434 0 0.1 2.0152
0 0 2.0152 0 0.1 2.03628 0 0 2.03628 0
0.1 2.05757 0 0 2.05757 0 0.1 2.07909 0 0
2.07909 0 0.1 2.10083 0 0 2.10083 0 0.1 2.1228
0 0 2.1228 0 0.1 2.145 0 0 2.145 0
0.1 2.16743 0 0 2.16743 0 0.1 2.1901 0 0
2.1901 0 0.1 2.213 0 0 2.213 0 0.1 2.23614
0 0 2.23614 0 0.1 2.25952 0 0 2.25952 0
0.1 2.28314 0 0 2.28314 0 0.1 2.30701 0 0
2.30701 0 0.1 2.33113 0 0 2.33113 0 0.1 2.3555
0 0 2.3555 0 0.1 2.38013 0 0 2.38013 0
0.1 2.40501 0 0 2.40501 0 0.1 2.43015 0 0
2.43015 0 0.1 2.45556 0 0 2.45556 0 0.1 2.48122
0 0 2.48122 0 0.1 2.50716 0 0 2.50716 0
0.1 2.53337 0 0 2.53337 0 0.1 2.55985 0 0
2.55985 0 0.1 2.58661 0 0 2.58661 0 0.1 2.61364
0 0 2.61364 0 0.1 2.64096 0 0 2.64096 0
0.1 2.66856 0 0 2.66856 0 0.1 2.69645 0 0
2.69645 0 0.1 2.72463 0 0 2.72463 0 0.1 2.75311
0 0 2.75311 0 0.1 2.78188 0 0 2.78188 0
0.1 2.81095 0 0 2.81095 0 0.1 2.84033 0 0
2.84033 0 0.1 2.87001 0 0 2.87001 0 0.1 2.9
0 0 2.9 0 0.1 
POLYGONS 600 3000
4 0 1 2 3 4 1 4 5 2 4
4 6 7 5 4 6 8 9 7 4
8 10 11 9 4 10 12 13 11 4
12 14 15 13 4 14 16 17 15 4
16 18 19 17 4 18 20 21 19 4
20 22 23 21 4 22 24 25 23 4
24 26 27 25 4 26 28 29 27 4
28 30 31 29 4 30 32 33 31 4
32 34 35 33 4 34 36 37 35 4
36 38 39 37 4 38 40 41 39 4
40 42 43 41 4 42 44 45 43 4
44 46 47 45 4 46 48 49 47 4
48 50 51 49 4 50 52 53 51 4
52 54 55 53 4 54 56 57 55 4
56 58 59 57 4 58 60 61 59 4
60 62 63 61 4 62 64 65 63 4
64 66 67 65 4 66 68 69 67 4
68 70 71 69 4 70 72 73 71 4
72 74 75 73 4 74 76 77 75 4
76 78 79 77 4 78 80 81 79 4
80 82 83 81 4 82 84 85 83 4
84 86 87 85 4 86 88 89 87 4
88 90 91 89 4 90 92 93 91 4
92 94 95 93 4 94 96 97 95 4
96 98 99 97 4 98 100 101 99 4
100 102 103 101 4 102 104 105 103 4
104 106 107 105 4 106 108 109 107 4
108 110 111 109 4 110 112 113 111 4
112 114 115 113 4 114 116 117 115 4
116 118 119 117 4 118 120 121 119 4
120 122 123 121 4 122 124 125 123 4
124 126 127 125 4 126 128 129 127 4
128 130 131 129 4 130 132 133 131 4
132 134 135 133 4 134 136 137 135 4
136 138 139 137 4 138 140 141 139 4
140 142 143 141 4 142 144 145 143 4
144 146 147 145 4 146 148 149 147 4
148 150 151 149 4 150 152 153 151 4
152 154 155 153 4 154 156 157 155 4
156 158 159 157 4 158 160 161 159 4
160 162 163 161 4 162 164 165 163 4
164 166 167 165 4 166 168 169 167 4
168 170 171 169 4 170 172 173 171 4
172 174 175 173 4 174 176 177 175 4
176 178 179 177 4 178 180 181 179 4
180 182 183 181 4 182 184 185 183 4
184 186 187 185 4 186 188 189 187 4
188 190 191 189 4 190 192 193 191 4
192 194 195 193 4 194 196 197 195 4
196 198 199 197 4 198 200 201 199 4
200 202 203 201 4 202 204 205 203 4
204 206 207 205 4 206 208 209 207 4
208 210 211 209 4 210 212 213 211 4
212 214 215 213 4 214 216 217 215 4
216 218 219 217 4 218 220 221 219 4
220 222 223 221 4 222 224 225 223 4
224 226 227 225 4 226 228 229 227 4
228 230 231 229 4 230 232 233 231 4
232 234 235 233 4 234 236 237 235 4
236 238 239 237 4 238 240 241 239 4
240 242 243 241 4 242 244 245 243 4
244 246 247 245 4 246 248 249 247 4
248 250 251 249 4 250 252 253 251 4
252 254 255 253 4 254 256 257 255 4
256 258 259 257 4 258 260 261 259 4
260 262 263 261 4 262 264 265 263 4
264 266 267 265 4 266 268 269 267 4
268 270 271 269 4 270 272 273 271 4
272 274 275 273 4 274 276 277 275 4
276 278 279 277 4 278 280 281 279 4
280 282 283 281 4 282 284 285 283 4
284 286 287 285 4 286 288 289 287 4
288 290 291 289 4 290 292 293 291 4
292 294 295 293 4 294 296 297 295 4
296 298 299 297 4 298 300 301 299 4
300 302 303 301 4 302 304 305 303 4
304 306 307 305 4 306 308 309 307 4
308 310 311 309 4 310 312 313 311 4
312 314 315 313 4 314 316 317 315 4
316 318 319 317 4 318 320 321 319 4
320 322 323 321 4 322 324 325 323 4
324 326 327 325 4 326 328 329 327 4
328 330 331 329 4 330 332 333 331 4
332 334 335 333 4 334 336 337 335 4
336 338 339 337 4 338 340 341 339 4
340 342 343 341 4 342 344 345 343 4
344 346 347 345 4 346 348 349 347 4
348 350 351 349 4 350 352 353 351 4
352 354 355 353 4 354 356 357 355 4
356 358 359 357 4 358 360 361 359 4
360 362 363 361 4 362 364 365 363 4
364 366 367 365 4 366 368 369 367 4
368 370 371 369 4 370 372 373 371 4
372 374 375 373 4 374 376 377 375 4
376 378 379 377 4 378 380 381 379 4
380 382 383 381 4 382 384 385 383 4
384 386 387 385 4 386 388 389 387 4
388 390 391 389 4 390 392 393 391 4
392 394 395 393 4 394 396 397 395 4
396 398 399 397 4 398 400 401 399 4
400 402 403 401 4 402 404 405 403 4
404 406 407 405 4 406 408 409 407 4
408 410 411 409 4 410 412 413 411 4
412 414 415 413 4 414 416 417 415 4
416 418 419 417 4 418 420 421 419 4
420 422 423 421 4 422 424 425 423 4
424 426 427 425 4 426 428 429 427 4
428 430 431 429 4 430 432 433 431 4
432 434 435 433 4 434 436 437 435 4
436 438 439 437 4 438 440 441 439 4
440 442 443 441 4 442 444 445 443 4
444 446 447 445 4 446 448 449 447 4
448 450 451 449 4 450 452 453 451 4
452 454 455 453 4 454 456 457 455 4
456 458 459 457 4 458 460 461 459 4
460 462 463 461 4 462 464 465 463 4
464 466 467 465 4 466 468 469 467 4
468 470 471 469 4 470 472 473 471 4
472 474 475 473 4 474 476 477 475 4
476 478 479 477 4 478 480 481 479 4
480 482 483 481 4 482 484 485 483 4
484 486 487 485 4 486 488 489 487 4
488 490 491 489 4 490 492 493 491 4
492 494 495 493 4 494 496 497 495 4
496 498 499 497 4 498 500 501 499 4
500 502 503 501 4 502 504 505 503 4
504 506 507 505 4 506 508 509 507 4
508 510 511 509 4 510 512 513 511 4
512 514 515 513 4 514 516 517 515 4
516 518 519 517 4 518 520 521 519 4
520 522 523 521 4 522 524 525 523 4
524 526 527 525 4 526 528 529 527 4
528 530 531 529 4 530 532 533 531 4
532 534 535 533 4 534 536 537 535 4
536 538 539 537 4 538 540 541 539 4
540 542 543 541 4 542 544 545 543 4
544 546 547 545 4 546 548 549 547 4
548 550 551 549 4 550 552 553 551 4
552 554 555 553 4 554 556 557 555 4
556 558 559 557 4 558 560 561 559 4
560 562 563 561 4 562 564 565 563 4
564 566 567 565 4 566 568 569 567 4
568 570 571 569 4 570 572 573 571 4
572 574 575 573 4 574 576 577 575 4
576 578 579 577 4 578 580 581 579 4
580 582 583 581 4 582 584 585 583 4
584 586 587 585 4 586 588 589 587 4
588 590 591 589 4 590 592 593 591 4
592 594 595 593 4 594 596 597 595 4
596 598 599 597 4 598 600 601 599 4
600 602 603 601 4 602 604 605 603 4
604 606 607 605 4 606 608 609 607 4
608 610 611 609 4 610 612 613 611 4
612 614 615 613 4 614 616 617 615 4
616 618 619 617 4 618 620 621 619 4
620 622 623 621 4 622 624 625 623 4
624 626 627 625 4 626 628 629 627 4
628 630 631 629 4 630 632 633 631 4
632 634 635 633 4 634 636 637 635 4
636 638 639 637 4 638 640 641 639 4
640 642 643 641 4 642 644 645 643 4
644 646 647 645 4 646 648 649 647 4
648 650 651 649 4 650 652 653 651 4
652 654 655 653 4 654 656 657 655 4
656 658 659 657 4 658 660 661 659 4
660 662 663 661 4 662 664 665 663 4
664 666 667 665 4 666 668 669 667 4
668 670 671 669 4 670 672 673 671 4
672 674 675 673 4 674 676 677 675 4
676 678 679 677 4 678 680 681 679 4
680 682 683 681 4 682 684 685 683 4
684 686 687 685 4 686 688 689 687 4
688 690 691 689 4 690 692 693 691 4
692 694 695 693 4 694 696 697 695 4
696 698 699 697 4 698 700 701 699 4
700 702 703 701 4 702 704 705 703 4
704 706 707 705 4 706 708 709 707 4
708 710 711 709 4 710 712 713 711 4
712 714 715 713 4 714 716 717 715 4
716 718 719 717 4 718 720 721 719 4
720 722 723 721 4 722 724 725 723 4
724 726 727 725 4 726 728 729 727 4
728 730 731 729 4 730 732 733 731 4
732 734 735 733 4 734 736 737 735 4
736 738 739 737 4 738 740 741 739 4
740 742 743 741 4 742 744 745 743 4
744 746 747 745 4 746 748 749 747 4
748 750 751 749 4 750 752 753 751 4
752 754 755 753 4 754 756 757 755 4
756 758 759 757 4 758 760 761 759 4
760 762 763 761 4 762 764 765 763 4
764 766 767 765 4 766 768 769 767 4
768 770 771 769 4 770 772 773 771 4
772 774 775 773 4 774 776 777 775 4
776 778 779 777 4 778 780 781 779 4
780 782 783 781 4 782 784 785 783 4
784 786 787 785 4 786 788 789 787 4
788 790 791 789 4 790 792 793 791 4
792 794 795 793 4 794 796 797 795 4
796 798 799 797 4 798 800 801 799 4
800 802 803 801 4 802 804 805 803 4
804 806 807 805 4 806 808 809 807 4
808 810 811 809 4 810 812 813 811 4
812 814 815 813 4 814 816 817 815 4
816 818 819 817 4 818 820 821 819 4
820 822 823 821 4 822 824 825 823 4
824 826 827 825 4 826 828 829 827 4
828 830 831 829 4 830 832 833 831 4
832 834 835 833 4 834 836 837 835 4
836 838 839 837 4 838 840 841 839 4
840 842 843 841 4 842 844 845 843 4
844 846 847 845 4 846 848 849 847 4
848 850 851 849 4 850 852 853 851 4
852 854 855 853 4 854 856 857 855 4
856 858 859 857 4 858 860 861 859 4
860 862 863 861 4 862 864 865 863 4
864 866 867 865 4 866 868 869 867 4
868 870 871 869 4 870 872 873 871 4
872 874 875 873 4 874 876 877 875 4
876 878 879 877 4 878 880 881 879 4
880 882 883 881 4 882 884 885 883 4
884 886 887 885 4 886 888 889 887 4
888 890 891 889 4 890 892 893 891 4
892 894 895 893 4 894 896 897 895 4
896 898 899 897 4 898 900 901 899 4
900 902 903 901 4 902 904 905 903 4
904 906 907 905 4 906 908 909 907 4
908 910 911 909 4 910 912 913 911 4
912 914 915 913 4 914 916 917 915 4
916 918 919 917 4 918 920 921 919 4
920 922 923 921 4 922 924 925 923 4
924 926 927 925 4 926 928 929 927 4
928 930 931 929 4 930 932 933 931 4
932 934 935 933 4 934 936 937 935 4
936 938 939 937 4 938 940 941 939 4
940 942 943 941 4 942 944 945 943 4
944 946 947 945 4 946 948 949 947 4
948 950 951 949 4 950 952 953 951 4
952 954 955 953 4 954 956 957 955 4
956 958 959 957 4 958 960 961 959 4
960 962 963 961 4 962 964 965 963 4
964 966 967 965 4 966 968 969 967 4
968 970 971 969 4 970 972 973 971 4
972 974 975 973 4 974 976 977 975 4
976 978 979 977 4 978 980 981 979 4
980 982 983 981 4 982 984 985 983 4
984 986 987 985 4 986 988 989 987 4
988 990 991 989 4 990 992 993 991 4
992 994 995 993 4 994 996 997 995 4
996 998 999 997 4 998 1000 1001 999 4
1000 1002 1003 1001 4 1002 1004 1005 1003 4
1004 1006 1007 1005 4 1006 1008 1009 1007 4
1008 1010 1011 1009 4 1010 1012 1013 1011 4
1012 1014 1015 1013 4 1014 1016 1017 1015 4
1016 1018 1019 1017 4 1018 1020 1021 1019 4
1020 1022 1023 1021 4 1022 1024 1025 1023 4
1024 1026 1027 1025 4 1026 1028 1029 1027 4
1028 1030 1031 1029 4 1030 1032 1033 1031 4
1032 1034 1035 1033 4 1034 1036 1037 1035 4
1036 1038 1039 1037 4 1038 1040 1041 1039 4
1040 1042 1043 1041 4 1042 1044 1045 1043 4
1044 1046 1047 1045 4 1046 1048 1049 1047 4
1048 1050 1051 1049 4 1050 1052 1053 1051 4
1052 1054 1055 1053 4 1054 1056 1057 1055 4
1056 1058 1059 1057 4 1058 1060 1061 1059 4
1060 1062 1063 1061 4 1062 1064 1065 1063 4
1064 1066 1067 1065 4 1066 1068 1069 1067 4
1068 1070 1071 1069 4 1070 1072 1073 1071 4
1072 1074 1075 1073 4 1074 1076 1077 1075 4
1076 1078 1079 1077 4 1078 1080 1081 1079 4
1080 1082 1083 1081 4 1082 1084 1085 1083 4
1084 1086 1087 1085 4 1086 1088 1089 1087 4
1088 1090 1091 1089 4 1090 1092 1093 1091 4
1092 1094 1095 1093 4 1094 1096 1097 1095 4
1096 1098 1099 1097 4 1098 1100 1101 1099 4
1100 1102 1103 1101 4 1102 1104 1105 1103 4
1104 1106 1107 1105 4 1106 1108 1109 1107 4
1108 1110 1111 1109 4 1110 1112 1113 1111 4
1112 1114 1115 1113 4 1114 1116 1117 1115 4
1116 1118 1119 1117 4 1118 1120 1121 1119 4
1120 1122 1123 1121 4 1122 1124 1125 1123 4
1124 1126 1127 1125 4 1126 1128 1129 1127 4
1128 1130 1131 1129 4 1130 1132 1133 1131 4
1132 1134 1135 1133 4 1134 1136 1137 1135 4
1136 1138 1139 1137 4 1138 1140 1141 1139 4
1140 1142 1143 1141 4 1142 1144 1145 1143 4
1144 1146 1147 1145 4 1146 1148 1149 1147 4
1148 1150 1151 1149 4 1150 1152 1153 1151 4
1152 1154 1155 1153 4 1154 1156 1157 1155 4
1156 1158 1159 1157 4 1158 1160 1161 1159 4
1160 1162 1163 1161 4 1162 1164 1165 1163 4
1164 1166 1167 1165 4 1166 1168 1169 1167 4
1168 1170 1171 1169 4 1170 1172 1173 1171 4
1172 1174 1175 1173 4 1174 1176 1177 1175 4
1176 1178 1179 1177 4 1178 1180 1181 1179 4
1180 1182 1183 1181 4 1182 1184 1185 1183 4
1184 1186 1187 1185 4 1186 1188 1189 1187 4
1188 1190 1191 1189 4 1190 1192 1193 1191 4
1192 1194 1195 1193 4 1194 1196 1197 1195 4
1196 1198 1199 1197 4 1198 1200 1201 1199 
POINT_DATA 1202
FIELD attributes 1
U 3 1202 float
1.54601 0.0341629 0 0.86977 0.0236462 0 0.86977 0.0236462 0 1.54601 0.0341629
0 0.166275 0.00856305 0 0.166275 0.00856305 0 0.122306 0.002585 0
0.122306 0.002585 0 0.0963241 0.000772466 0 0.0963241 0.000772466 0 0.0817842
0.000278757 0 0.0817842 0.000278757 0 0.0730207 0.000174979 0 0.0730207 0.000174979
0 0.0668775 0.000157968 0 0.0668775 0.000157968 0 0.0620994 0.000141684 0
0.0620994 0.000141684 0 0.0582146 0.000120733 0 0.0582146 0.000120733 0 0.0549884
0.000100866 0 0.0549884 0.000100866 0 0.0522548 8.58694e-05 0 0.0522548 8.58694e-05
0 0.0498887 7.56202e-05 0 0.0498887 7.56202e-05 0 0.0478016 6.77203e-05 0
0.0478016 6.77203e-05 0 0.0459359 6.11493e-05 0 0.0459359 6.11493e-05 0 0.0442524
5.55223e-05 0 0.0442524 5.55223e-05 0 0.0427223 5.06221e-05 0 0.0427223 5.06221e-05
0 0.0413236 4.63084e-05 0 0.0413236 4.63084e-05 0 0.0400389 4.24868e-05 0
0.0400389 4.24868e-05 0 0.038854 3.90874e-05 0 0.038854 3.90874e-05 0 0.0377569
3.60544e-05 0 0.0377569 3.60544e-05 0 0.0367378 3.33412e-05 0 0.0367378 3.33412e-05
0 0.0357881 3.09086e-05 0 0.0357881 3.09086e-05 0 0.0349004 2.87223e-05 0
0.0349004 2.87223e-05 0 0.0340685 2.67529e-05 0 0.0340685 2.67529e-05 0 0.0332867
2.49745e-05 0 0.0332867 2.49745e-05 0 0.0325503 2.33648e-05 0 0.0325503 2.33648e-05
0 0.0318551 2.19038e-05 0 0.0318551 2.19038e-05 0 0.0311973 2.05748e-05 0
0.0311973 2.05748e-05 0 0.0305736 1.93624e-05 0 0.0305736 1.93624e-05 0 0.0299811
1.8254e-05 0 0.0299811 1.8254e-05 0 0.0294172 1.72381e-05 0 0.0294172 1.72381e-05
0 0.0288798 1.63046e-05 0 0.0288798 1.63046e-05 0 0.0283665 1.54466e-05 0
0.0283665 1.54466e-05 0 0.0278757 1.46524e-05 0 0.0278757 1.46524e-05 0 0.0274056
1.39275e-05 0 0.0274056 1.39275e-05 0 0.0269549 1.32438e-05 0 0.0269549 1.32438e-05
0 0.0265216 1.26434e-05 0 0.0265216 1.26434e-05 0 0.0261048 1.20306e-05 0
0.0261048 1.20306e-05 0 0.0257049 1.12764e-05 0 0.0257049 1.12764e-05 0 0.0253205
1.06757e-05 0 0.0253205 1.06757e-05 0 0.0249486 1.03187e-05 0 0.0249486 1.03187e-05
0 0.0245868 1.0001e-05 0 0.0245868 1.0001e-05 0 0.0242348 9.67164e-06 0
0.0242348 9.67164e-06 0 0.0238926 9.33165e-06 0 0.0238926 9.33165e-06 0 0.0235603
8.98715e-06 0 0.0235603 8.98715e-06 0 0.0232378 8.64461e-06 0 0.0232378 8.64461e-06
0 0.022925 8.30896e-06 0 0.022925 8.30896e-06 0 0.0226216 7.98334e-06 0
0.0226216 7.98334e-06 0 0.0223274 7.66959e-06 0 0.0223274 7.66959e-06 0 0.022042
7.36864e-06 0 0.022042 7.36864e-06 0 0.0217651 7.08088e-06 0 0.0217651 7.08088e-06
0 0.0214963 6.8063e-06 0 0.0214963 6.8063e-06 0 0.0212353 6.54465e-06 0
0.0212353 6.54465e-06 0 0.0209818 6.29554e-06 0 0.0209818 6.29554e-06 0 0.0207355
6.05846e-06 0 0.0207355 6.05846e-06 0 0.0204959 5.8329e-06 0 0.0204959 5.8329e-06
0 0.020263 5.61827e-06 0 0.020263 5.61827e-06 0 0.0200363 5.41403e-06 0
0.0200363 5.41403e-06 0 0.0198156 5.2196e-06 0 0.0198156 5.2196e-06 0 0.0196006
5.03447e-06 0 0.0196006 5.03447e-06 0 0.0193911 4.85808e-06 0 0.0193911 4.85808e-06
0 0.0191869 4.68999e-06 0 0.0191869 4.68999e-06 0 0.0189877 4.52966e-06 0
0.0189877 4.52966e-06 0 0.0187933 4.37674e-06 0 0.0187933 4.37674e-06 0 0.0186036
4.23071e-06 0 0.0186036 4.23071e-06 0 0.0184183 4.0913e-06 0 0.0184183 4.0913e-06
0 0.0182373 3.95802e-06 0 0.0182373 3.95802e-06 0 0.0180604 3.8307e-06 0
0.0180604 3.8307e-06 0 0.0178875 3.70881e-06 0 0.0178875 3.70881e-06 0 0.0177183
3.59231e-06 0 0.0177183 3.59231e-06 0 0.0175527 3.48069e-06 0 0.0175527 3.48069e-06
0 0.0173907 3.37395e-06 0 0.0173907 3.37395e-06 0 0.017232 3.27179e-06 0
0.017232 3.27179e-06 0 0.0170766 3.17378e-06 0 0.0170766 3.17378e-06 0 0.0169242
3.0815e-06 0 0.0169242 3.0815e-06 0 0.0167749 2.99067e-06 0 0.0167749 2.99067e-06
0 0.0166282 2.91348e-06 0 0.0166282 2.91348e-06 0 0.0164843 2.81746e-06 0
0.0164843 2.81746e-06 0 0.0163439 2.69286e-06 0 0.0163439 2.69286e-06 0 0.016206
2.62031e-06 0 0.016206 2.62031e-06 0 0.0160697 2.59018e-06 0 0.0160697 2.59018e-06
0 0.0159343 2.55095e-06 0 0.0159343 2.55095e-06 0 0.0158003 2.50287e-06 0
0.0158003 2.50287e-06 0 0.015668 2.44808e-06 0 0.015668 2.44808e-06 0 0.0155376
2.38936e-06 0 0.0155376 2.38936e-06 0 0.0154092 2.32888e-06 0 0.0154092 2.32888e-06
0 0.0152828 2.26802e-06 0 0.0152828 2.26802e-06 0 0.0151584 2.20767e-06 0
0.0151584 2.20767e-06 0 0.0150362 2.14836e-06 0 0.0150362 2.14836e-06 0 0.014916
2.09042e-06 0 0.014916 2.09042e-06 0 0.0147978 2.03405e-06 0 0.0147978 2.03405e-06
0 0.0146816 1.97936e-06 0 0.0146816 1.97936e-06 0 0.0145672 1.92642e-06 0
0.0145672 1.92642e-06 0 0.0144548 1.87524e-06 0 0.0144548 1.87524e-06 0 0.0143441
1.82582e-06 0 0.0143441 1.82582e-06 0 0.0142352 1.77813e-06 0 0.0142352 1.77813e-06
0 0.014128 1.73213e-06 0 0.014128 1.73213e-06 0 0.0140224 1.68778e-06 0
0.0140224 1.68778e-06 0 0.0139185 1.645e-06 0 0.0139185 1.645e-06 0 0.0138161
1.60377e-06 0 0.0138161 1.60377e-06 0 0.0137151 1.56399e-06 0 0.0137151 1.56399e-06
0 0.0136156 1.52564e-06 0 0.0136156 1.52564e-06 0 0.0135175 1.48863e-06 0
0.0135175 1.48863e-06 0 0.0134208 1.45293e-06 0 0.0134208 1.45293e-06 0 0.0133253
1.41846e-06 0 0.0133253 1.41846e-06 0 0.0132312 1.3852e-06 0 0.0132312 1.3852e-06
0 0.0131382 1.35305e-06 0 0.0131382 1.35305e-06 0 0.0130465 1.32201e-06 0
0.0130465 1.32201e-06 0 0.0129558 1.29198e-06 0 0.0129558 1.29198e-06 0 0.0128663
1.26298e-06 0 0.0128663 1.26298e-06 0 0.0127779 1.23489e-06 0 0.0127779 1.23489e-06
0 0.0126906 1.20775e-06 0 0.0126906 1.20775e-06 0 0.0126042 1.18149e-06 0
0.0126042 1.18149e-06 0 0.0125188 1.15602e-06 0 0.0125188 1.15602e-06 0 0.0124344
1.13177e-06 0 0.0124344 1.13177e-06 0 0.012351 1.10748e-06 0 0.012351 1.10748e-06
0 0.0122683 1.0871e-06 0 0.0122683 1.0871e-06 0 0.0121865 1.06375e-06 0
0.0121865 1.06375e-06 0 0.0121059 1.02922e-06 0 0.0121059 1.02922e-06 0 0.0120263
1.00507e-06 0 0.0120263 1.00507e-06 0 0.0119469 9.99491e-07 0 0.0119469 9.99491e-07
0 0.0118674 9.95246e-07 0 0.0118674 9.95246e-07 0 0.0117879 9.85341e-07 0
0.0117879 9.85341e-07 0 0.0117088 9.71302e-07 0 0.0117088 9.71302e-07 0 0.0116302
9.54561e-07 0 0.0116302 9.54561e-07 0 0.0115523 9.36307e-07 0 0.0115523 9.36307e-07
0 0.0114752 9.17261e-07 0 0.0114752 9.17261e-07 0 0.0113989 8.97867e-07 0
0.0113989 8.97867e-07 0 0.0113235 8.78395e-07 0 0.0113235 8.78395e-07 0 0.011249
8.59011e-07 0 0.011249 8.59011e-07 0 0.0111754 8.39819e-07 0 0.0111754 8.39819e-07
0 0.0111027 8.20882e-07 0 0.0111027 8.20882e-07 0 0.0110309 8.02239e-07 0
0.0110309 8.02239e-07 0 0.0109601 7.83916e-07 0 0.0109601 7.83916e-07 0 0.0108901
7.65922e-07 0 0.0108901 7.65922e-07 0 0.010821 7.48268e-07 0 0.010821 7.48268e-07
0 0.0107528 7.30952e-07 0 0.0107528 7.30952e-07 0 0.0106855 7.13981e-07 0
0.0106855 7.13981e-07 0 0.0106191 6.97345e-07 0 0.0106191 6.97345e-07 0 0.0105536
6.81053e-07 0 0.0105536 6.81053e-07 0 0.0104889 6.65091e-07 0 0.0104889 6.65091e-07
0 0.0104251 6.49473e-07 0 0.0104251 6.49473e-07 0 0.0103621 6.34176e-07 0
0.0103621 6.34176e-07 0 0.0103 6.19228e-07 0 0.0103 6.19228e-07 0 0.0102387
6.04593e-07 0 0.0102387 6.04593e-07 0 0.0101783 5.90317e-07 0 0.0101783 5.90317e-07
0 0.0101186 5.76343e-07 0 0.0101186 5.76343e-07 0 0.0100598 5.62748e-07 0
0.0100598 5.62748e-07 0 0.0100017 5.49443e-07 0 0.0100017 5.49443e-07 0 0.00994439
5.36546e-07 0 0.00994439 5.36546e-07 0 0.00988784 5.23939e-07 0 0.00988784 5.23939e-07
0 0.00983203 5.11742e-07 0 0.00983203 5.11742e-07 0 0.00977692 5.00006e-07 0
0.00977692 5.00006e-07 0 0.00972256 4.88276e-07 0 0.00972256 4.88276e-07 0 0.00966875
4.7881e-07 0 0.00966875 4.7881e-07 0 0.00961563 4.66208e-07 0 0.00961563 4.66208e-07
0 0.00956349 4.49891e-07 0 0.00956349 4.49891e-07 0 0.00951187 4.42233e-07 0
0.00951187 4.42233e-07 0 0.00946019 4.4146e-07 0 0.00946019 4.4146e-07 0 0.00940832
4.38845e-07 0 0.00940832 4.38845e-07 0 0.00935655 4.33455e-07 0 0.00935655 4.33455e-07
0 0.00930508 4.26256e-07 0 0.00930508 4.26256e-07 0 0.00925403 4.18101e-07 0
0.00925403 4.18101e-07 0 0.00920349 4.09521e-07 0 0.00920349 4.09521e-07 0 0.00915349
4.00825e-07 0 0.00915349 4.00825e-07 0 0.00910403 3.9219e-07 0 0.00910403 3.9219e-07
0 0.00905512 3.83714e-07 0 0.00905512 3.83714e-07 0 0.00900676 3.75457e-07 0
0.00900676 3.75457e-07 0 0.00895892 3.67444e-07 0 0.00895892 3.67444e-07 0 0.0089116
3.59693e-07 0 0.0089116 3.59693e-07 0 0.00886479 3.52198e-07 0 0.00886479 3.52198e-07
0 0.00881846 3.44962e-07 0 0.00881846 3.44962e-07 0 0.0087726 3.37964e-07 0
0.0087726 3.37964e-07 0 0.0087272 3.31199e-07 0 0.0087272 3.31199e-07 0 0.00868225
3.2464e-07 0 0.00868225 3.2464e-07 0 0.00863774 3.18276e-07 0 0.00863774 3.18276e-07
0 0.00859365 3.1208e-07 0 0.00859365 3.1208e-07 0 0.00854998 3.06041e-07 0
0.00854998 3.06041e-07 0 0.00850672 3.00128e-07 0 0.00850672 3.00128e-07 0 0.00846388
2.94341e-07 0 0.00846388 2.94341e-07 0 0.00842144 2.88637e-07 0 0.00842144 2.88637e-07
0 0.00837942 2.83043e-07 0 0.00837942 2.83043e-07 0 0.0083378 2.77497e-07 0
0.0083378 2.77497e-07 0 0.00829658 2.72063e-07 0 0.00829658 2.72063e-07 0 0.00825577
2.66649e-07 0 0.00825577 2.66649e-07 0 0.00821536 2.61376e-07 0 0.00821536 2.61376e-07
0 0.00817535 2.56112e-07 0 0.00817535 2.56112e-07 0 0.00813575 2.51026e-07 0
0.00813575 2.51026e-07 0 0.0080965 2.46029e-07 0 0.0080965 2.46029e-07 0 0.00805769
2.41064e-07 0 0.00805769 2.41064e-07 0 0.00801909 2.37304e-07 0 0.00801909 2.37304e-07
0 0.00798097 2.30682e-07 0 0.00798097 2.30682e-07 0 0.00794349 2.23745e-07 0
0.00794349 2.23745e-07 0 0.00790594 2.23435e-07 0 0.00790594 2.23435e-07 0 0.00786797
2.24703e-07 0 0.00786797 2.24703e-07 0 0.00782972 2.23554e-07 0 0.00782972 2.23554e-07
0 0.00779146 2.21088e-07 0 0.00779146 2.21088e-07 0 0.00775335 2.17781e-07 0
0.00775335 2.17781e-07 0 0.00771546 2.14116e-07 0 0.00771546 2.14116e-07 0 0.00767785
2.1028e-07 0 0.00767785 2.1028e-07 0 0.00764053 2.06408e-07 0 0.00764053 2.06408e-07
0 0.00760351 2.02528e-07 0 0.00760351 2.02528e-07 0 0.00756682 1.98687e-07 0
0.00756682 1.98687e-07 0 0.00753045 1.94873e-07 0 0.00753045 1.94873e-07 0 0.0074944
1.91091e-07 0 0.0074944 1.91091e-07 0 0.00745869 1.87345e-07 0 0.00745869 1.87345e-07
0 0.00742331 1.83614e-07 0 0.00742331 1.83614e-07 0 0.00738828 1.79916e-07 0
0.00738828 1.79916e-07 0 0.00735359 1.76243e-07 0 0.00735359 1.76243e-07 0 0.00731925
1.72598e-07 0 0.00731925 1.72598e-07 0 0.00728526 1.69008e-07 0 0.00728526 1.69008e-07
0 0.00725162 1.65452e-07 0 0.00725162 1.65452e-07 0 0.00721833 1.61978e-07 0
0.00721833 1.61978e-07 0 0.00718538 1.58572e-07 0 0.00718538 1.58572e-07 0 0.00715277
1.55259e-07 0 0.00715277 1.55259e-07 0 0.00712048 1.52051e-07 0 0.00712048 1.52051e-07
0 0.00708851 1.48956e-07 0 0.00708851 1.48956e-07 0 0.00705684 1.45968e-07 0
0.00705684 1.45968e-07 0 0.00702546 1.43129e-07 0 0.00702546 1.43129e-07 0 0.00699435
1.40374e-07 0 0.00699435 1.40374e-07 0 0.0069635 1.37791e-07 0 0.0069635 1.37791e-07
0 0.00693289 1.35286e-07 0 0.00693289 1.35286e-07 0 0.00690255 1.32896e-07 0
0.00690255 1.32896e-07 0 0.00687233 1.31007e-07 0 0.00687233 1.31007e-07 0 0.00684243
1.27831e-07 0 0.00684243 1.27831e-07 0 0.00681295 1.24688e-07 0 0.00681295 1.24688e-07
0 0.00678336 1.24727e-07 0 0.00678336 1.24727e-07 0 0.00675336 1.25703e-07 0
0.00675336 1.25703e-07 0 0.00672308 1.25355e-07 0 0.00672308 1.25355e-07 0 0.00669279
1.23965e-07 0 0.00669279 1.23965e-07 0 0.00666266 1.2196e-07 0 0.00666266 1.2196e-07
0 0.00663277 1.19654e-07 0 0.00663277 1.19654e-07 0 0.00660317 1.17211e-07 0
0.00660317 1.17211e-07 0 0.00657388 1.1474e-07 0 0.00657388 1.1474e-07 0 0.00654491
1.12289e-07 0 0.00654491 1.12289e-07 0 0.00651626 1.09914e-07 0 0.00651626 1.09914e-07
0 0.0064879 1.07626e-07 0 0.0064879 1.07626e-07 0 0.00645984 1.05422e-07 0
0.00645984 1.05422e-07 0 0.00643207 1.03309e-07 0 0.00643207 1.03309e-07 0 0.00640457
1.01247e-07 0 0.00640457 1.01247e-07 0 0.00637735 9.92189e-08 0 0.00637735 9.92189e-08
0 0.00635043 9.71882e-08 0 0.00635043 9.71882e-08 0 0.00632382 9.51305e-08 0
0.00632382 9.51305e-08 0 0.00629753 9.30134e-08 0 0.00629753 9.30134e-08 0 0.0062716
9.08301e-08 0 0.0062716 9.08301e-08 0 0.00624606 8.85722e-08 0 0.00624606 8.85722e-08
0 0.00622094 8.6235e-08 0 0.00622094 8.6235e-08 0 0.00619626 8.38166e-08 0
0.00619626 8.38166e-08 0 0.00617206 8.13422e-08 0 0.00617206 8.13422e-08 0 0.00614835
7.8807e-08 0 0.00614835 7.8807e-08 0 0.00612517 7.62001e-08 0 0.00612517 7.62001e-08
0 0.00610254 7.36023e-08 0 0.00610254 7.36023e-08 0 0.00608045 7.09794e-08 0
0.00608045 7.09794e-08 0 0.00605892 6.83811e-08 0 0.00605892 6.83811e-08 0 0.00603792
6.59834e-08 0 0.00603792 6.59834e-08 0 0.00601741 6.34348e-08 0 0.00601741 6.34348e-08
0 0.00599752 6.07633e-08 0 0.00599752 6.07633e-08 0 0.00597795 5.94481e-08 0
0.00597795 5.94481e-08 0 0.00595825 5.94974e-08 0 0.00595825 5.94974e-08 0 0.00593839
5.92933e-08 0 0.00593839 5.92933e-08 0 0.00591853 5.85047e-08 0 0.00591853 5.85047e-08
0 0.00589882 5.7472e-08 0 0.00589882 5.7472e-08 0 0.00587932 5.62832e-08 0
0.00587932 5.62832e-08 0 0.00586011 5.49383e-08 0 0.00586011 5.49383e-08 0 0.00584121
5.35019e-08 0 0.00584121 5.35019e-08 0 0.00582269 5.19874e-08 0 0.00582269 5.19874e-08
0 0.0058046 5.0231e-08 0 0.0058046 5.0231e-08 0 0.00578701 4.83097e-08 0
0.00578701 4.83097e-08 0 0.00576995 4.64133e-08 0 0.00576995 4.64133e-08 0 0.00575345
4.43859e-08 0 0.00575345 4.43859e-08 0 0.00573755 4.22057e-08 0 0.00573755 4.22057e-08
0 0.00572225 4.01773e-08 0 0.00572225 4.01773e-08 0 0.00570753 3.82628e-08 0
0.00570753 3.82628e-08 0 0.00569339 3.62628e-08 0 0.00569339 3.62628e-08 0 0.00567983
3.43462e-08 0 0.00567983 3.43462e-08 0 0.00566682 3.26125e-08 0 0.00566682 3.26125e-08
0 0.00565436 3.08877e-08 0 0.00565436 3.08877e-08 0 0.00564244 2.91526e-08 0
0.00564244 2.91526e-08 0 0.00563108 2.74617e-08 0 0.00563108 2.74617e-08 0 0.00562026
2.58271e-08 0 0.00562026 2.58271e-08 0 0.00560997 2.43376e-08 0 0.00560997 2.43376e-08
0 0.00560019 2.28584e-08 0 0.00560019 2.28584e-08 0 0.00559097 2.11831e-08 0
0.00559097 2.11831e-08 0 0.00558231 1.96341e-08 0 0.00558231 1.96341e-08 0 0.00557408
1.85581e-08 0 0.00557408 1.85581e-08 0 0.00556625 1.7535e-08 0 0.00556625 1.7535e-08
0 0.0055589 1.61819e-08 0 0.0055589 1.61819e-08 0 0.00555201 1.48894e-08 0
0.00555201 1.48894e-08 0 0.00554552 1.41033e-08 0 0.00554552 1.41033e-08 0 0.00553932
1.37429e-08 0 0.00553932 1.37429e-08 0 0.0055333 1.32228e-08 0 0.0055333 1.32228e-08
0 0.00552755 1.23005e-08 0 0.00552755 1.23005e-08 0 0.00552209 1.14636e-08 0
0.00552209 1.14636e-08 0 0.00551694 1.08392e-08 0 0.00551694 1.08392e-08 0 0.00551218
9.91812e-09 0 0.00551218 9.91812e-09 0 0.00550802 8.35295e-09 0 0.00550802 8.35295e-09
0 0.0055046 6.44231e-09 0 0.0055046 6.44231e-09 0 0.00550183 4.97962e-09 0
0.00550183 4.97962e-09 0 0.00549943 4.42133e-09 0 0.00549943 4.42133e-09 0 0.00549725
4.1936e-09 0 0.00549725 4.1936e-09 0 0.00549547 3.30001e-09 0 0.00549547 3.30001e-09
0 0.00549436 1.60109e-09 0 0.00549436 1.60109e-09 0 0.00549394 -2.70932e-11 0
0.00549394 -2.70932e-11 0 0.00549395 -7.44888e-10 0 0.00549395 -7.44888e-10 0 0.00549402
-4.96991e-10 0 0.00549402 -4.96991e-10 0 0.005494 8.74688e-11 0 0.005494 8.74688e-11
0 0.00549405 5.12554e-11 0 0.00549405 5.12554e-11 0 0.00549461 -1.27864e-09 0
0.00549461 -1.27864e-09 0 0.005496 -3.41809e-09 0 0.005496 -3.41809e-09 0 0.00549801
-4.76417e-09 0 0.00549801 -4.76417e-09 0 0.0054999 -4.15876e-09 0 0.0054999 -4.15876e-09
0 0.00550109 -2.1946e-09 0 0.00550109 -2.1946e-09 0 0.00550155 -4.29654e-10 0
0.00550155 -4.29654e-10 0 0.00550167 2.95291e-10 0 0.00550167 2.95291e-10 0 0.00550186
2.11858e-10 0 0.00550186 2.11858e-10 0 0.00550232 -2.59573e-10 0 0.00550232 -2.59573e-10
0 0.00550324 -1.09193e-09 0 0.00550324 -1.09193e-09 0 0.00550482 -2.42336e-09 0
0.00550482 -2.42336e-09 0 0.00550724 -4.13184e-09 0 0.00550724 -4.13184e-09 0 0.00551048
-5.73588e-09 0 0.00551048 -5.73588e-09 0 0.00551428 -6.67852e-09 0 0.00551428 -6.67852e-09
0 0.00551825 -6.76428e-09 0 0.00551825 -6.76428e-09 0 0.00552211 -6.32627e-09 0
0.00552211 -6.32627e-09 0 0.00552585 -5.99846e-09 0 0.00552585 -5.99846e-09 0 0.00552968
-6.10795e-09 0 0.00552968 -6.10795e-09 0 0.00553369 -6.28032e-09 0 0.00553369 -6.28032e-09
0 0.00553769 -6.13952e-09 0 0.00553769 -6.13952e-09 0 0.00554151 -5.84685e-09 0
0.00554151 -5.84685e-09 0 0.0055452 -5.63162e-09 0 0.0055452 -5.63162e-09 0 0.00554881
-5.48455e-09 0 0.00554881 -5.48455e-09 0 0.00555235 -5.26246e-09 0 0.00555235 -5.26246e-09
0 0.00555575 -4.89142e-09 0 0.00555575 -4.89142e-09 0 0.00555901 -4.52416e-09 0
0.00555901 -4.52416e-09 0 0.00556228 -4.43877e-09 0 0.00556228 -4.43877e-09 0 0.00556578
-4.78401e-09 0 0.00556578 -4.78401e-09 0 0.00556971 -5.44389e-09 0 0.00556971 -5.44389e-09
0 0.00557409 -6.12718e-09 0 0.00557409 -6.12718e-09 0 0.00557883 -6.57421e-09 0
0.00557883 -6.57421e-09 0 0.00558375 -6.70842e-09 0 0.00558375 -6.70842e-09 0 0.00558871
-6.63373e-09 0 0.00558871 -6.63373e-09 0 0.00559367 -6.51828e-09 0 0.00559367 -6.51828e-09
0 0.00559867 -6.47869e-09 0 0.00559867 -6.47869e-09 0 0.00560377 -6.53895e-09 0
0.00560377 -6.53895e-09 0 0.005609 -6.65966e-09 0 0.005609 -6.65966e-09 0 0.00561439
-6.78947e-09 0 0.00561439 -6.78947e-09 0 0.00561992 -6.89669e-09 0 0.00561992 -6.89669e-09
0 0.00562558 -6.97377e-09 0 0.00562558 -6.97377e-09 0 0.00563134 -7.02772e-09 0
0.00563134 -7.02772e-09 0 0.00563721 -7.06814e-09 0 0.00563721 -7.06814e-09 0 0.00564316
-7.10198e-09 0 0.00564316 -7.10198e-09 0 0.0056492 -7.13217e-09 0 0.0056492 -7.13217e-09
0 0.00565534 -7.15859e-09 0 0.00565534 -7.15859e-09 0 0.00566155 -7.18114e-09 0
0.00566155 -7.18114e-09 0 0.00566785 -7.19952e-09 0 0.00566785 -7.19952e-09 0 0.00567423
-7.21352e-09 0 0.00567423 -7.21352e-09 0 0.00568069 -7.22294e-09 0 0.00568069 -7.22294e-09
0 0.00568722 -7.22743e-09 0 0.00568722 -7.22743e-09 0 0.00569382 -7.22787e-09 0
0.00569382 -7.22787e-09 0 0.00570049 -7.21885e-09 0 0.00570049 -7.21885e-09 0 0.00570721
-7.22054e-09 0 0.00570721 -7.22054e-09 0 0.00571403 -7.22733e-09 0 0.00571403 -7.22733e-09
0 0.00572088 -7.11036e-09 0 0.00572088 -7.11036e-09 0 0.00572758 -6.83697e-09 0
0.00572758 -6.83697e-09 0 0.00573406 -6.56922e-09 0 0.00573406 -6.56922e-09 0 0.0057404
-6.39895e-09 0 0.0057404 -6.39895e-09 0 0.00574669 -6.30239e-09 0 0.00574669 -6.30239e-09
0 0.00575298 -6.24954e-09 0 0.00575298 -6.24954e-09 0 0.00575929 -6.22163e-09 0
0.00575929 -6.22163e-09 0 0.00576565 -6.20793e-09 0 0.00576565 -6.20793e-09 0 0.00577207
-6.20211e-09 0 0.00577207 -6.20211e-09 0 0.00577856 -6.20082e-09 0 0.00577856 -6.20082e-09
0 0.00578511 -6.20186e-09 0 0.00578511 -6.20186e-09 0 0.00579173 -6.20332e-09 0
0.00579173 -6.20332e-09 0 0.00579842 -6.20521e-09 0 0.00579842 -6.20521e-09 0 0.00580519
-6.20728e-09 0 0.00580519 -6.20728e-09 0 0.00581203 -6.20807e-09 0 0.00581203 -6.20807e-09
0 0.00581894 -6.20793e-09 0 0.00581894 -6.20793e-09 0 0.00582592 -6.2071e-09 0
0.00582592 -6.2071e-09 0 0.00583297 -6.20496e-09 0 0.00583297 -6.20496e-09 0 0.00584009
-6.20172e-09 0 0.00584009 -6.20172e-09 0 0.00584729 -6.19764e-09 0 0.00584729 -6.19764e-09
0 0.00585455 -6.19228e-09 0 0.00585455 -6.19228e-09 0 0.00586188 -6.18573e-09 0
0.00586188 -6.18573e-09 0 0.00586928 -6.17838e-09 0 0.00586928 -6.17838e-09 0 0.00587675
-6.17011e-09 0 0.00587675 -6.17011e-09 0 0.00588428 -6.16064e-09 0 0.00588428 -6.16064e-09
0 0.00589189 -6.15031e-09 0 0.00589189 -6.15031e-09 0 0.00589955 -6.13915e-09 0
0.00589955 -6.13915e-09 0 0.00590729 -6.12695e-09 0 0.00590729 -6.12695e-09 0 0.00591509
-6.11373e-09 0 0.00591509 -6.11373e-09 0 0.00592295 -6.09965e-09 0 0.00592295 -6.09965e-09
0 0.00593087 -6.08449e-09 0 0.00593087 -6.08449e-09 0 0.00593886 -6.06623e-09 0
0.00593886 -6.06623e-09 0 0.00594691 -6.0471e-09 0 0.00594691 -6.0471e-09 0 0.00595501
-6.03744e-09 0 0.00595501 -6.03744e-09 0 0.00596319 -5.98056e-09 0 0.00596319 -5.98056e-09
0 0.00597129 -5.81215e-09 0 0.00597129 -5.81215e-09 0 0.00597918 -5.60912e-09 0
0.00597918 -5.60912e-09 0 0.0059869 -5.46116e-09 0 0.0059869 -5.46116e-09 0 0.00599454
-5.3685e-09 0 0.00599454 -5.3685e-09 0 0.00600216 -5.31135e-09 0 0.00600216 -5.31135e-09
0 0.00600979 -5.27487e-09 0 0.00600979 -5.27487e-09 0 0.00601746 -5.24999e-09 0
0.00601746 -5.24999e-09 0 0.00602519 -5.23214e-09 0 0.00602519 -5.23214e-09 0 0.00603297
-5.21797e-09 0 0.00603297 -5.21797e-09 0 0.00604081 -5.20547e-09 0 0.00604081 -5.20547e-09
0 0.00604871 -5.19397e-09 0 0.00604871 -5.19397e-09 0 0.00605668 -5.18303e-09 0
0.00605668 -5.18303e-09 0 0.00606472 -5.17214e-09 0 0.00606472 -5.17214e-09 0 0.00607282
-5.16071e-09 0 0.00607282 -5.16071e-09 0 0.00608099 -5.14888e-09 0 0.00608099 -5.14888e-09
0 0.00608923 -5.13649e-09 0 0.00608923 -5.13649e-09 0 0.00609753 -5.1233e-09 0
0.00609753 -5.1233e-09 0 0.00610589 -5.1099e-09 0 0.00610589 -5.1099e-09 0 0.00611432
-5.09574e-09 0 0.00611432 -5.09574e-09 0 0.00612281 -5.08097e-09 0 0.00612281 -5.08097e-09
0 0.00613137 -5.06549e-09 0 0.00613137 -5.06549e-09 0 0.00613999 -5.04938e-09 0
0.00613999 -5.04938e-09 0 0.00614867 -5.03293e-09 0 0.00614867 -5.03293e-09 0 0.00615741
-5.0159e-09 0 0.00615741 -5.0159e-09 0 0.00616621 -4.99836e-09 0 0.00616621 -4.99836e-09
0 0.00617507 -4.98011e-09 0 0.00617507 -4.98011e-09 0 0.00618399 -4.96129e-09 0
0.00618399 -4.96129e-09 0 0.00619297 -4.94196e-09 0 0.00619297 -4.94196e-09 0 0.00620201
-4.9217e-09 0 0.00620201 -4.9217e-09 0 0.0062111 -4.89965e-09 0 0.0062111 -4.89965e-09
0 0.00622025 -4.88208e-09 0 0.00622025 -4.88208e-09 0 0.00622947 -4.85149e-09 0
0.00622947 -4.85149e-09 0 0.00623868 -4.75796e-09 0 0.00623868 -4.75796e-09 0 0.00624772
-4.61308e-09 0 0.00624772 -4.61308e-09 0 0.00625656 -4.48335e-09 0 0.00625656 -4.48335e-09
0 0.00626529 -4.3948e-09 0 0.00626529 -4.3948e-09 0 0.00627398 -4.3364e-09 0
0.00627398 -4.3364e-09 0 0.00628265 -4.29583e-09 0 0.00628265 -4.29583e-09 0 0.00629135
-4.26575e-09 0 0.00629135 -4.26575e-09 0 0.00630009 -4.2418e-09 0 0.00630009 -4.2418e-09
0 0.00630887 -4.22147e-09 0 0.00630887 -4.22147e-09 0 0.0063177 -4.20269e-09 0
0.0063177 -4.20269e-09 0 0.00632659 -4.18569e-09 0 0.00632659 -4.18569e-09 0 0.00633554
-4.16958e-09 0 0.00633554 -4.16958e-09 0 0.00634454 -4.15283e-09 0 0.00634454 -4.15283e-09
0 0.0063536 -4.13668e-09 0 0.0063536 -4.13668e-09 0 0.00636272 -4.1207e-09 0
0.00636272 -4.1207e-09 0 0.0063719 -4.10418e-09 0 0.0063719 -4.10418e-09 0 0.00638113
-4.08741e-09 0 0.00638113 -4.08741e-09 0 0.00639043 -4.07005e-09 0 0.00639043 -4.07005e-09
0 0.00639978 -4.05271e-09 0 0.00639978 -4.05271e-09 0 0.00640919 -4.03522e-09 0
0.00640919 -4.03522e-09 0 0.00641865 -4.0172e-09 0 0.00641865 -4.0172e-09 0 0.00642817
-3.99892e-09 0 0.00642817 -3.99892e-09 0 0.00643774 -3.98031e-09 0 0.00643774 -3.98031e-09
0 0.00644737 -3.96136e-09 0 0.00644737 -3.96136e-09 0 0.00645705 -3.94225e-09 0
0.00645705 -3.94225e-09 0 0.00646679 -3.92291e-09 0 0.00646679 -3.92291e-09 0 0.00647658
-3.90313e-09 0 0.00647658 -3.90313e-09 0 0.00648642 -3.88258e-09 0 0.00648642 -3.88258e-09
0 0.00649631 -3.86207e-09 0 0.00649631 -3.86207e-09 0 0.00650625 -3.84192e-09 0
0.00650625 -3.84192e-09 0 0.00651624 -3.79655e-09 0 0.00651624 -3.79655e-09 0 0.00652614
-3.70302e-09 0 0.00652614 -3.70302e-09 0 0.00653584 -3.59574e-09 0 0.00653584 -3.59574e-09
0 0.00654538 -3.51337e-09 0 0.00654538 -3.51337e-09 0 0.00655484 -3.45643e-09 0
0.00655484 -3.45643e-09 0 0.00656427 -3.41579e-09 0 0.00656427 -3.41579e-09 0 0.0065737
-3.38501e-09 0 0.0065737 -3.38501e-09 0 0.00658315 -3.36014e-09 0 0.00658315 -3.36014e-09
0 0.00659264 -3.33873e-09 0 0.00659264 -3.33873e-09 0 0.00660217 -3.31915e-09 0
0.00660217 -3.31915e-09 0 0.00661175 -3.30106e-09 0 0.00661175 -3.30106e-09 0 0.00662137
-3.28378e-09 0 0.00662137 -3.28378e-09 0 0.00663104 -3.26672e-09 0 0.00663104 -3.26672e-09
0 0.00664076 -3.24981e-09 0 0.00664076 -3.24981e-09 0 0.00665054 -3.23324e-09 0
0.00665054 -3.23324e-09 0 0.00666036 -3.21674e-09 0 0.00666036 -3.21674e-09 0 0.00667024
-3.19971e-09 0 0.00667024 -3.19971e-09 0 0.00668016 -3.18289e-09 0 0.00668016 -3.18289e-09
0 0.00669014 -3.16611e-09 0 0.00669014 -3.16611e-09 0 0.00670017 -3.14888e-09 0
0.00670017 -3.14888e-09 0 0.00671024 -3.13151e-09 0 0.00671024 -3.13151e-09 0 0.00672037
-3.11395e-09 0 0.00672037 -3.11395e-09 0 0.00673054 -3.09638e-09 0 0.00673054 -3.09638e-09
0 0.00674076 -3.07881e-09 0 0.00674076 -3.07881e-09 0 0.00675103 -3.06093e-09 0
0.00675103 -3.06093e-09 0 0.00676134 -3.04271e-09 0 0.00676134 -3.04271e-09 0 0.0067717
-3.02446e-09 0 0.0067717 -3.02446e-09 0 0.00678211 -3.00674e-09 0 0.00678211 -3.00674e-09
0 0.00679256 -2.98412e-09 0 0.00679256 -2.98412e-09 0 0.00680302 -2.93574e-09 0
0.00680302 -2.93574e-09 0 0.00681334 -2.85814e-09 0 0.00681334 -2.85814e-09 0 0.00682347
-2.78225e-09 0 0.00682347 -2.78225e-09 0 0.00683346 -2.72654e-09 0 0.00683346 -2.72654e-09
0 0.00684338 -2.68674e-09 0 0.00684338 -2.68674e-09 0 0.00685329 -2.65684e-09 0
0.00685329 -2.65684e-09 0 0.0068632 -2.63272e-09 0 0.0068632 -2.63272e-09 0 0.00687313
-2.6126e-09 0 0.00687313 -2.6126e-09 0 0.00688309 -2.59439e-09 0 0.00688309 -2.59439e-09
0 0.00689309 -2.57732e-09 0 0.00689309 -2.57732e-09 0 0.00690313 -2.56094e-09 0
0.00690313 -2.56094e-09 0 0.00691321 -2.54486e-09 0 0.00691321 -2.54486e-09 0 0.00692333
-2.52942e-09 0 0.00692333 -2.52942e-09 0 0.0069335 -2.5141e-09 0 0.0069335 -2.5141e-09
0 0.00694371 -2.49915e-09 0 0.00694371 -2.49915e-09 0 0.00695396 -2.48401e-09 0
0.00695396 -2.48401e-09 0 0.00696426 -2.46868e-09 0 0.00696426 -2.46868e-09 0 0.00697461
-2.45311e-09 0 0.00697461 -2.45311e-09 0 0.00698499 -2.43767e-09 0 0.00698499 -2.43767e-09
0 0.00699542 -2.4225e-09 0 0.00699542 -2.4225e-09 0 0.00700589 -2.40746e-09 0
0.00700589 -2.40746e-09 0 0.0070164 -2.39249e-09 0 0.0070164 -2.39249e-09 0 0.00702696
-2.37695e-09 0 0.00702696 -2.37695e-09 0 0.00703755 -2.3614e-09 0 0.00703755 -2.3614e-09
0 0.00704819 -2.34577e-09 0 0.00704819 -2.34577e-09 0 0.00705886 -2.3304e-09 0
0.00705886 -2.3304e-09 0 0.00706958 -2.30996e-09 0 0.00706958 -2.30996e-09 0 0.00708029
-2.26853e-09 0 0.00708029 -2.26853e-09 0 0.00709084 -2.20804e-09 0 0.00709084 -2.20804e-09
0 0.00710119 -2.15191e-09 0 0.00710119 -2.15191e-09 0 0.00711143 -2.1109e-09 0
0.00711143 -2.1109e-09 0 0.0071216 -2.08108e-09 0 0.0071216 -2.08108e-09 0 0.00713176
-2.05804e-09 0 0.00713176 -2.05804e-09 0 0.00714191 -2.03889e-09 0 0.00714191 -2.03889e-09
0 0.00715209 -2.02196e-09 0 0.00715209 -2.02196e-09 0 0.00716229 -2.0067e-09 0
0.00716229 -2.0067e-09 0 0.00717252 -1.99221e-09 0 0.00717252 -1.99221e-09 0 0.00718279
-1.97823e-09 0 0.00718279 -1.97823e-09 0 0.00719309 -1.96481e-09 0 0.00719309 -1.96481e-09
0 0.00720343 -1.95155e-09 0 0.00720343 -1.95155e-09 0 0.0072138 -1.93855e-09 0
0.0072138 -1.93855e-09 0 0.00722422 -1.92551e-09 0 0.00722422 -1.92551e-09 0 0.00723467
-1.91266e-09 0 0.00723467 -1.91266e-09 0 0.00724516 -1.89993e-09 0 0.00724516 -1.89993e-09
0 0.00725569 -1.88701e-09 0 0.00725569 -1.88701e-09 0 0.00726625 -1.874e-09 0
0.00726625 -1.874e-09 0 0.00727686 -1.861e-09 0 0.00727686 -1.861e-09 0 0.00728749
-1.84821e-09 0 0.00728749 -1.84821e-09 0 0.00729817 -1.83522e-09 0 0.00729817 -1.83522e-09
0 0.00730888 -1.82201e-09 0 0.00730888 -1.82201e-09 0 0.00731962 -1.80947e-09 0
0.00731962 -1.80947e-09 0 0.0073304 -1.79401e-09 0 0.0073304 -1.79401e-09 0 0.00734118
-1.76461e-09 0 0.00734118 -1.76461e-09 0 0.00735183 -1.71964e-09 0 0.00735183 -1.71964e-09
0 0.00736228 -1.67481e-09 0 0.00736228 -1.67481e-09 0 0.0073726 -1.641e-09 0
0.0073726 -1.641e-09 0 0.00738284 -1.61632e-09 0 0.00738284 -1.61632e-09 0 0.00739306
-1.59747e-09 0 0.00739306 -1.59747e-09 0 0.00740328 -1.5818e-09 0 0.00740328 -1.5818e-09
0 0.00741351 -1.56772e-09 0 0.00741351 -1.56772e-09 0 0.00742375 -1.55489e-09 0
0.00742375 -1.55489e-09 0 0.00743403 -1.54287e-09 0 0.00743403 -1.54287e-09 0 0.00744433
-1.53134e-09 0 0.00744433 -1.53134e-09 0 0.00745466 -1.51989e-09 0 0.00745466 -1.51989e-09
0 0.00746502 -1.50885e-09 0 0.00746502 -1.50885e-09 0 0.00747542 -1.49803e-09 0
0.00747542 -1.49803e-09 0 0.00748584 -1.4872e-09 0 0.00748584 -1.4872e-09 0 0.0074963
-1.47652e-09 0 0.0074963 -1.47652e-09 0 0.0075068 -1.4656e-09 0 0.0075068 -1.4656e-09
0 0.00751732 -1.45501e-09 0 0.00751732 -1.45501e-09 0 0.00752788 -1.4449e-09 0
0.00752788 -1.4449e-09 0 0.00753846 -1.43419e-09 0 0.00753846 -1.43419e-09 0 0.00754908
-1.42303e-09 0 0.00754908 -1.42303e-09 0 0.00755973 -1.41205e-09 0 0.00755973 -1.41205e-09
0 0.00757041 -1.40163e-09 0 0.00757041 -1.40163e-09 0 0.00758112 -1.38618e-09 0
0.00758112 -1.38618e-09 0 0.00759178 -1.35711e-09 0 0.00759178 -1.35711e-09 0 0.00760226
-1.32014e-09 0 0.00760226 -1.32014e-09 0 0.00761256 -1.28824e-09 0 0.00761256 -1.28824e-09
0 0.00762276 -1.26541e-09 0 0.00762276 -1.26541e-09 0 0.0076329 -1.24832e-09 0
0.0076329 -1.24832e-09 0 0.00764303 -1.23393e-09 0 0.00764303 -1.23393e-09 0 0.00765316
-1.22207e-09 0 0.00765316 -1.22207e-09 0 0.0076633 -1.21159e-09 0 0.0076633 -1.21159e-09
0 0.00767346 -1.20152e-09 0 0.00767346 -1.20152e-09 0 0.00768364 -1.19187e-09 0
0.00768364 -1.19187e-09 0 0.00769385 -1.18219e-09 0 0.00769385 -1.18219e-09 0 0.00770409
-1.17331e-09 0 0.00770409 -1.17331e-09 0 0.00771435 -1.16473e-09 0 0.00771435 -1.16473e-09
0 0.00772464 -1.15576e-09 0 0.00772464 -1.15576e-09 0 0.00773495 -1.14705e-09 0
0.00773495 -1.14705e-09 0 0.0077453 -1.13816e-09 0 0.0077453 -1.13816e-09 0 0.00775567
-1.12933e-09 0 0.00775567 -1.12933e-09 0 0.00776607 -1.12068e-09 0 0.00776607 -1.12068e-09
0 0.0077765 -1.11176e-09 0 0.0077765 -1.11176e-09 0 0.00778695 -1.10301e-09 0
0.00778695 -1.10301e-09 0 0.00779743 -1.09472e-09 0 0.00779743 -1.09472e-09 0 0.00780793
-1.0829e-09 0 0.00780793 -1.0829e-09 0 0.0078184 -1.06103e-09 0 0.0078184 -1.06103e-09
0 0.00782871 -1.03222e-09 0 0.00782871 -1.03222e-09 0 0.00783882 -1.00663e-09 0
0.00783882 -1.00663e-09 0 0.00784882 -9.87743e-10 0 0.00784882 -9.87743e-10 0 0.00785877
-9.73741e-10 0 0.00785877 -9.73741e-10 0 0.0078687 -9.63272e-10 0 0.0078687 -9.63272e-10
0 0.00787863 -9.52351e-10 0 0.00787863 -9.52351e-10 0 0.00788854 -9.46183e-10 0
0.00788854 -9.46183e-10 0 0.00789855 -9.3335e-10 0 0.00789855 -9.3335e-10 0 0.00790839
-9.3206e-10 0 0.00790839 -9.3206e-10 0 0.00791859 -9.21761e-10 0 0.00791859 -9.21761e-10
0 0.00792839 -8.98007e-10 0 0.00792839 -8.98007e-10 0 0.0079383 -9.62903e-10 0
0.0079383 -9.62903e-10 0 0.0172615 -1.4016e-09 0 0.0172615 -1.4016e-09 0 0.026587
-1.77406e-09 0 0.026587 -1.77406e-09 0 
