# vtk DataFile Version 2.0
sampleSurface
ASCII
DATASET POLYDATA
POINTS 1202 float
0 0 0 5.99825e-05 0 0 5.99825e-05 0 0.1 0 0
0.1 0.000120591 0 0 0.000120591 0 0.1 0.000181831 0 0
0.000181831 0 0.1 0.000243709 0 0 0.000243709 0 0.1 0.000306234
0 0 0.000306234 0 0.1 0.00036941 0 0 0.00036941 0
0.1 0.000433245 0 0 0.000433245 0 0.1 0.000497746 0 0
0.000497746 0 0.1 0.000562919 0 0 0.000562919 0 0.1 0.000628772
0 0 0.000628772 0 0.1 0.000695312 0 0 0.000695312 0
0.1 0.000762546 0 0 0.000762546 0 0.1 0.000830481 0 0
0.000830481 0 0.1 0.000899125 0 0 0.000899125 0 0.1 0.000968484
0 0 0.000968484 0 0.1 0.00103857 0 0 0.00103857 0
0.1 0.00110938 0 0 0.00110938 0 0.1 0.00118093 0 0
0.00118093 0 0.1 0.00125323 0 0 0.00125323 0 0.1 0.00132628
0 0 0.00132628 0 0.1 0.0014001 0 0 0.0014001 0
0.1 0.00147468 0 0 0.00147468 0 0.1 0.00155004 0 0
0.00155004 0 0.1 0.00162619 0 0 0.00162619 0 0.1 0.00170313
0 0 0.00170313 0 0.1 0.00178088 0 0 0.00178088 0
0.1 0.00185943 0 0 0.00185943 0 0.1 0.00193881 0 0
0.00193881 0 0.1 0.00201901 0 0 0.00201901 0 0.1 0.00210005
0 0 0.00210005 0 0.1 0.00218193 0 0 0.00218193 0
0.1 0.00226467 0 0 0.00226467 0 0.1 0.00234827 0 0
0.00234827 0 0.1 0.00243274 0 0 0.00243274 0 0.1 0.0025181
0 0 0.0025181 0 0.1 0.00260434 0 0 0.00260434 0
0.1 0.00269148 0 0 0.00269148 0 0.1 0.00277954 0 0
0.00277954 0 0.1 0.00286851 0 0 0.00286851 0 0.1 0.0029584
0 0 0.0029584 0 0.1 0.00304924 0 0 0.00304924 0
0.1 0.00314102 0 0 0.00314102 0 0.1 0.00323376 0 0
0.00323376 0 0.1 0.00332747 0 0 0.00332747 0 0.1 0.00342215
0 0 0.00342215 0 0.1 0.00351783 0 0 0.00351783 0
0.1 0.0036145 0 0 0.0036145 0 0.1 0.00371217 0 0
0.00371217 0 0.1 0.00381087 0 0 0.00381087 0 0.1 0.0039106
0 0 0.0039106 0 0.1 0.00401136 0 0 0.00401136 0
0.1 0.00411318 0 0 0.00411318 0 0.1 0.00421606 0 0
0.00421606 0 0.1 0.00432001 0 0 0.00432001 0 0.1 0.00442505
0 0 0.00442505 0 0.1 0.00453118 0 0 0.00453118 0
0.1 0.00463842 0 0 0.00463842 0 0.1 0.00474677 0 0
0.00474677 0 0.1 0.00485626 0 0 0.00485626 0 0.1 0.00496689
0 0 0.00496689 0 0.1 0.00507867 0 0 0.00507867 0
0.1 0.00519162 0 0 0.00519162 0 0.1 0.00530574 0 0
0.00530574 0 0.1 0.00542106 0 0 0.00542106 0 0.1 0.00553758
0 0 0.00553758 0 0.1 0.00565531 0 0 0.00565531 0
0.1 0.00577427 0 0 0.00577427 0 0.1 0.00589447 0 0
0.00589447 0 0.1 0.00601593 0 0 0.00601593 0 0.1 0.00613865
0 0 0.00613865 0 0.1 0.00626266 0 0 0.00626266 0
0.1 0.00638795 0 0 0.00638795 0 0.1 0.00651455 0 0
0.00651455 0 0.1 0.00664248 0 0 0.00664248 0 0.1 0.00677173
0 0 0.00677173 0 0.1 0.00690234 0 0 0.00690234 0
0.1 0.0070343 0 0 0.0070343 0 0.1 0.00716765 0 0
0.00716765 0 0.1 0.00730238 0 0 0.00730238 0 0.1 0.00743852
0 0 0.00743852 0 0.1 0.00757608 0 0 0.00757608 0
0.1 0.00771507 0 0 0.00771507 0 0.1 0.00785551 0 0
0.00785551 0 0.1 0.00799742 0 0 0.00799742 0 0.1 0.00814081
0 0 0.00814081 0 0.1 0.00828569 0 0 0.00828569 0
0.1 0.00843209 0 0 0.00843209 0 0.1 0.00858001 0 0
0.00858001 0 0.1 0.00872947 0 0 0.00872947 0 0.1 0.00888049
0 0 0.00888049 0 0.1 0.00903309 0 0 0.00903309 0
0.1 0.00918728 0 0 0.00918728 0 0.1 0.00934307 0 0
0.00934307 0 0.1 0.00950049 0 0 0.00950049 0 0.1 0.00965956
0 0 0.00965956 0 0.1 0.00982028 0 0 0.00982028 0
0.1 0.00998268 0 0 0.00998268 0 0.1 0.0101468 0 0
0.0101468 0 0.1 0.0103126 0 0 0.0103126 0 0.1 0.0104801
0 0 0.0104801 0 0.1 0.0106494 0 0 0.0106494 0
0.1 0.0108204 0 0 0.0108204 0 0.1 0.0109933 0 0
0.0109933 0 0.1 0.0111679 0 0 0.0111679 0 0.1 0.0113443
0 0 0.0113443 0 0.1 0.0115226 0 0 0.0115226 0
0.1 0.0117028 0 0 0.0117028 0 0.1 0.0118848 0 0
0.0118848 0 0.1 0.0120687 0 0 0.0120687 0 0.1 0.0122546
0 0 0.0122546 0 0.1 0.0124424 0 0 0.0124424 0
0.1 0.0126321 0 0 0.0126321 0 0.1 0.0128238 0 0
0.0128238 0 0.1 0.0130176 0 0 0.0130176 0 0.1 0.0132133
0 0 0.0132133 0 0.1 0.0134111 0 0 0.0134111 0
0.1 0.0136109 0 0 0.0136109 0 0.1 0.0138129 0 0
0.0138129 0 0.1 0.0140169 0 0 0.0140169 0 0.1 0.0142231
0 0 0.0142231 0 0.1 0.0144314 0 0 0.0144314 0
0.1 0.0146419 0 0 0.0146419 0 0.1 0.0148546 0 0
0.0148546 0 0.1 0.0150695 0 0 0.0150695 0 0.1 0.0152866
0 0 0.0152866 0 0.1 0.015506 0 0 0.015506 0
0.1 0.0157277 0 0 0.0157277 0 0.1 0.0159517 0 0
0.0159517 0 0.1 0.016178 0 0 0.016178 0 0.1 0.0164067
0 0 0.0164067 0 0.1 0.0166378 0 0 0.0166378 0
0.1 0.0168713 0 0 0.0168713 0 0.1 0.0171073 0 0
0.0171073 0 0.1 0.0173457 0 0 0.0173457 0 0.1 0.0175865
0 0 0.0175865 0 0.1 0.0178299 0 0 0.0178299 0
0.1 0.0180759 0 0 0.0180759 0 0.1 0.0183244 0 0
0.0183244 0 0.1 0.0185754 0 0 0.0185754 0 0.1 0.0188291
0 0 0.0188291 0 0.1 0.0190855 0 0 0.0190855 0
0.1 0.0193445 0 0 0.0193445 0 0.1 0.0196063 0 0
0.0196063 0 0.1 0.0198707 0 0 0.0198707 0 0.1 0.0201379
0 0 0.0201379 0 0.1 0.0204079 0 0 0.0204079 0
0.1 0.0206807 0 0 0.0206807 0 0.1 0.0209564 0 0
0.0209564 0 0.1 0.0212349 0 0 0.0212349 0 0.1 0.0215164
0 0 0.0215164 0 0.1 0.0218008 0 0 0.0218008 0
0.1 0.0220881 0 0 0.0220881 0 0.1 0.0223784 0 0
0.0223784 0 0.1 0.0226718 0 0 0.0226718 0 0.1 0.0229682
0 0 0.0229682 0 0.1 0.0232677 0 0 0.0232677 0
0.1 0.0235704 0 0 0.0235704 0 0.1 0.0238762 0 0
0.0238762 0 0.1 0.0241852 0 0 0.0241852 0 0.1 0.0244974
0 0 0.0244974 0 0.1 0.0248128 0 0 0.0248128 0
0.1 0.0251316 0 0 0.0251316 0 0.1 0.0254537 0 0
0.0254537 0 0.1 0.0257791 0 0 0.0257791 0 0.1 0.0261079
0 0 0.0261079 0 0.1 0.0264402 0 0 0.0264402 0
0.1 0.0267759 0 0 0.0267759 0 0.1 0.0271152 0 0
0.0271152 0 0.1 0.0274579 0 0 0.0274579 0 0.1 0.0278043
0 0 0.0278043 0 0.1 0.0281542 0 0 0.0281542 0
0.1 0.0285078 0 0 0.0285078 0 0.1 0.0288651 0 0
0.0288651 0 0.1 0.0292261 0 0 0.0292261 0 0.1 0.0295909
0 0 0.0295909 0 0.1 0.0299595 0 0 0.0299595 0
0.1 0.0303319 0 0 0.0303319 0 0.1 0.0307082 0 0
0.0307082 0 0.1 0.0310885 0 0 0.0310885 0 0.1 0.0314727
0 0 0.0314727 0 0.1 0.0318609 0 0 0.0318609 0
0.1 0.0322532 0 0 0.0322532 0 0.1 0.0326495 0 0
0.0326495 0 0.1 0.03305 0 0 0.03305 0 0.1 0.0334546
0 0 0.0334546 0 0.1 0.0338635 0 0 0.0338635 0
0.1 0.0342767 0 0 0.0342767 0 0.1 0.0346941 0 0
0.0346941 0 0.1 0.0351159 0 0 0.0351159 0 0.1 0.0355421
0 0 0.0355421 0 0.1 0.0359728 0 0 0.0359728 0
0.1 0.0364079 0 0 0.0364079 0 0.1 0.0368476 0 0
0.0368476 0 0.1 0.0372919 0 0 0.0372919 0 0.1 0.0377408
0 0 0.0377408 0 0.1 0.0381944 0 0 0.0381944 0
0.1 0.0386527 0 0 0.0386527 0 0.1 0.0391158 0 0
0.0391158 0 0.1 0.0395837 0 0 0.0395837 0 0.1 0.0400565
0 0 0.0400565 0 0.1 0.0405342 0 0 0.0405342 0
0.1 0.0410169 0 0 0.0410169 0 0.1 0.0415047 0 0
0.0415047 0 0.1 0.0419975 0 0 0.0419975 0 0.1 0.0424955
0 0 0.0424955 0 0.1 0.0429986 0 0 0.0429986 0
0.1 0.0435071 0 0 0.0435071 0 0.1 0.0440208 0 0
0.0440208 0 0.1 0.0445398 0 0 0.0445398 0 0.1 0.0450643
0 0 0.0450643 0 0.1 0.0455943 0 0 0.0455943 0
0.1 0.0461298 0 0 0.0461298 0 0.1 0.0466708 0 0
0.0466708 0 0.1 0.0472176 0 0 0.0472176 0 0.1 0.04777
0 0 0.04777 0 0.1 0.0483281 0 0 0.0483281 0
0.1 0.0488921 0 0 0.0488921 0 0.1 0.049462 0 0
0.049462 0 0.1 0.0500378 0 0 0.0500378 0 0.1 0.0506197
0 0 0.0506197 0 0.1 0.0512076 0 0 0.0512076 0
0.1 0.0518016 0 0 0.0518016 0 0.1 0.0524018 0 0
0.0524018 0 0.1 0.0530083 0 0 0.0530083 0 0.1 0.0536211
0 0 0.0536211 0 0.1 0.0542403 0 0 0.0542403 0
0.1 0.0548659 0 0 0.0548659 0 0.1 0.0554981 0 0
0.0554981 0 0.1 0.0561369 0 0 0.0561369 0 0.1 0.0567823
0 0 0.0567823 0 0.1 0.0574345 0 0 0.0574345 0
0.1 0.0580934 0 0 0.0580934 0 0.1 0.0587593 0 0
0.0587593 0 0.1 0.0594321 0 0 0.0594321 0 0.1 0.0601119
0 0 0.0601119 0 0.1 0.0607987 0 0 0.0607987 0
0.1 0.0614928 0 0 0.0614928 0 0.1 0.0621941 0 0
0.0621941 0 0.1 0.0629027 0 0 0.0629027 0 0.1 0.0636187
0 0 0.0636187 0 0.1 0.0643421 0 0 0.0643421 0
0.1 0.0650732 0 0 0.0650732 0 0.1 0.0658118 0 0
0.0658118 0 0.1 0.0665581 0 0 0.0665581 0 0.1 0.0673122
0 0 0.0673122 0 0.1 0.0680742 0 0 0.0680742 0
0.1 0.0688441 0 0 0.0688441 0 0.1 0.0696221 0 0
0.0696221 0 0.1 0.0704082 0 0 0.0704082 0 0.1 0.0712024
0 0 0.0712024 0 0.1 0.072005 0 0 0.072005 0
0.1 0.0728159 0 0 0.0728159 0 0.1 0.0736353 0 0
0.0736353 0 0.1 0.0744632 0 0 0.0744632 0 0.1 0.0752998
0 0 0.0752998 0 0.1 0.076145 0 0 0.076145 0
0.1 0.0769991 0 0 0.0769991 0 0.1 0.0778621 0 0
0.0778621 0 0.1 0.0787342 0 0 0.0787342 0 0.1 0.0796153
0 0 0.0796153 0 0.1 0.0805055 0 0 0.0805055 0
0.1 0.0814051 0 0 0.0814051 0 0.1 0.0823141 0 0
0.0823141 0 0.1 0.0832325 0 0 0.0832325 0 0.1 0.0841605
0 0 0.0841605 0 0.1 0.0850982 0 0 0.0850982 0
0.1 0.0860457 0 0 0.0860457 0 0.1 0.087003 0 0
0.087003 0 0.1 0.0879704 0 0 0.0879704 0 0.1 0.0889478
0 0 0.0889478 0 0.1 0.0899354 0 0 0.0899354 0
0.1 0.0909333 0 0 0.0909333 0 0.1 0.0919416 0 0
0.0919416 0 0.1 0.0929605 0 0 0.0929605 0 0.1 0.0939899
0 0 0.0939899 0 0.1 0.0950302 0 0 0.0950302 0
0.1 0.0960812 0 0 0.0960812 0 0.1 0.0971432 0 0
0.0971432 0 0.1 0.0982163 0 0 0.0982163 0 0.1 0.0993006
0 0 0.0993006 0 0.1 0.100396 0 0 0.100396 0
0.1 0.101503 0 0 0.101503 0 0.1 0.102622 0 0
0.102622 0 0.1 0.103752 0 0 0.103752 0 0.1 0.104894
0 0 0.104894 0 0.1 0.106048 0 0 0.106048 0
0.1 0.107214 0 0 0.107214 0 0.1 0.108392 0 0
0.108392 0 0.1 0.109582 0 0 0.109582 0 0.1 0.110785
0 0 0.110785 0 0.1 0.112001 0 0 0.112001 0
0.1 0.113229 0 0 0.113229 0 0.1 0.114469 0 0
0.114469 0 0.1 0.115723 0 0 0.115723 0 0.1 0.11699
0 0 0.11699 0 0.1 0.11827 0 0 0.11827 0
0.1 0.119564 0 0 0.119564 0 0.1 0.12087 0 0
0.12087 0 0.1 0.122191 0 0 0.122191 0 0.1 0.123525
0 0 0.123525 0 0.1 0.124873 0 0 0.124873 0
0.1 0.126236 0 0 0.126236 0 0.1 0.127612 0 0
0.127612 0 0.1 0.129003 0 0 0.129003 0 0.1 0.130408
0 0 0.130408 0 0.1 0.131828 0 0 0.131828 0
0.1 0.133263 0 0 0.133263 0 0.1 0.134713 0 0
0.134713 0 0.1 0.136178 0 0 0.136178 0 0.1 0.137658
0 0 0.137658 0 0.1 0.139154 0 0 0.139154 0
0.1 0.140665 0 0 0.140665 0 0.1 0.142192 0 0
0.142192 0 0.1 0.143735 0 0 0.143735 0 0.1 0.145294
0 0 0.145294 0 0.1 0.146869 0 0 0.146869 0
0.1 0.148461 0 0 0.148461 0 0.1 0.150069 0 0
0.150069 0 0.1 0.151694 0 0 0.151694 0 0.1 0.153336
0 0 0.153336 0 0.1 0.154995 0 0 0.154995 0
0.1 0.156672 0 0 0.156672 0 0.1 0.158366 0 0
0.158366 0 0.1 0.160077 0 0 0.160077 0 0.1 0.161807
0 0 0.161807 0 0.1 0.163554 0 0 0.163554 0
0.1 0.16532 0 0 0.16532 0 0.1 0.167104 0 0
0.167104 0 0.1 0.168907 0 0 0.168907 0 0.1 0.170728
0 0 0.170728 0 0.1 0.172569 0 0 0.172569 0
0.1 0.174428 0 0 0.174428 0 0.1 0.176307 0 0
0.176307 0 0.1 0.178206 0 0 0.178206 0 0.1 0.180124
0 0 0.180124 0 0.1 0.182063 0 0 0.182063 0
0.1 0.184022 0 0 0.184022 0 0.1 0.186001 0 0
0.186001 0 0.1 0.188001 0 0 0.188001 0 0.1 0.190021
0 0 0.190021 0 0.1 0.192063 0 0 0.192063 0
0.1 0.194126 0 0 0.194126 0 0.1 0.19621 0 0
0.19621 0 0.1 0.198317 0 0 0.198317 0 0.1 0.200445
0 0 0.200445 0 0.1 0.202595 0 0 0.202595 0
0.1 0.204768 0 0 0.204768 0 0.1 0.206964 0 0
0.206964 0 0.1 0.209182 0 0 0.209182 0 0.1 0.211424
0 0 0.211424 0 0.1 0.213689 0 0 0.213689 0
0.1 0.215977 0 0 0.215977 0 0.1 0.21829 0 0
0.21829 0 0.1 0.220626 0 0 0.220626 0 0.1 0.222987
0 0 0.222987 0 0.1 0.225372 0 0 0.225372 0
0.1 0.227783 0 0 0.227783 0 0.1 0.230218 0 0
0.230218 0 0.1 0.232679 0 0 0.232679 0 0.1 0.235166
0 0 0.235166 0 0.1 0.237678 0 0 0.237678 0
0.1 0.240217 0 0 0.240217 0 0.1 0.242782 0 0
0.242782 0 0.1 0.245374 0 0 0.245374 0 0.1 0.247993
0 0 0.247993 0 0.1 0.25064 0 0 0.25064 0
0.1 0.253313 0 0 0.253313 0 0.1 0.256015 0 0
0.256015 0 0.1 0.258745 0 0 0.258745 0 0.1 0.261504
0 0 0.261504 0 0.1 0.264291 0 0 0.264291 0
0.1 0.267107 0 0 0.267107 0 0.1 0.269953 0 0
0.269953 0 0.1 0.272828 0 0 0.272828 0 0.1 0.275733
0 0 0.275733 0 0.1 0.278669 0 0 0.278669 0
0.1 0.281635 0 0 0.281635 0 0.1 0.284632 0 0
0.284632 0 0.1 0.287661 0 0 0.287661 0 0.1 0.290721
0 0 0.290721 0 0.1 0.293813 0 0 0.293813 0
0.1 0.296937 0 0 0.296937 0 0.1 0.300093 0 0
0.300093 0 0.1 0.303283 0 0 0.303283 0 0.1 0.306506
0 0 0.306506 0 0.1 0.309763 0 0 0.309763 0
0.1 0.313053 0 0 0.313053 0 0.1 0.316378 0 0
0.316378 0 0.1 0.319737 0 0 0.319737 0 0.1 0.323132
0 0 0.323132 0 0.1 0.326562 0 0 0.326562 0
0.1 0.330027 0 0 0.330027 0 0.1 0.333529 0 0
0.333529 0 0.1 0.337068 0 0 0.337068 0 0.1 0.340643
0 0 0.340643 0 0.1 0.344255 0 0 0.344255 0
0.1 0.347906 0 0 0.347906 0 0.1 0.351594 0 0
0.351594 0 0.1 0.355321 0 0 0.355321 0 0.1 0.359086
0 0 0.359086 0 0.1 0.362891 0 0 0.362891 0
0.1 0.366736 0 0 0.366736 0 0.1 0.37062 0 0
0.37062 0 0.1 0.374546 0 0 0.374546 0 0.1 0.378512
0 0 0.378512 0 0.1 0.382519 0 0 0.382519 0
0.1 0.386568 0 0 0.386568 0 0.1 0.39066 0 0
0.39066 0 0.1 0.394794 0 0 0.394794 0 0.1 0.398971
0 0 0.398971 0 0.1 0.403192 0 0 0.403192 0
0.1 0.407457 0 0 0.407457 0 0.1 0.411766 0 0
0.411766 0 0.1 0.416121 0 0 0.416121 0 0.1 0.42052
0 0 0.42052 0 0.1 0.424966 0 0 0.424966 0
0.1 0.429458 0 0 0.429458 0 0.1 0.433997 0 0
0.433997 0 0.1 0.438583 0 0 0.438583 0 0.1 0.443217
0 0 0.443217 0 0.1 0.447899 0 0 0.447899 0
0.1 0.45263 0 0 0.45263 0 0.1 0.457411 0 0
0.457411 0 0.1 0.462241 0 0 0.462241 0 0.1 0.467122
0 0 0.467122 0 0.1 0.472053 0 0 0.472053 0
0.1 0.477036 0 0 0.477036 0 0.1 0.482071 0 0
0.482071 0 0.1 0.487159 0 0 0.487159 0 0.1 0.492299
0 0 0.492299 0 0.1 0.497493 0 0 0.497493 0
0.1 0.502742 0 0 0.502742 0 0.1 0.508045 0 0
0.508045 0 0.1 0.513403 0 0 0.513403 0 0.1 0.518817
0 0 0.518817 0 0.1 0.524288 0 0 0.524288 0
0.1 0.529816 0 0 0.529816 0 0.1 0.535401 0 0
0.535401 0 0.1 0.541045 0 0 0.541045 0 0.1 0.546748
0 0 0.546748 0 0.1 0.55251 0 0 0.55251 0
0.1 0.558332 0 0 0.558332 0 0.1 0.564215 0 0
0.564215 0 0.1 0.570159 0 0 0.570159 0 0.1 0.576165
0 0 0.576165 0 0.1 0.582234 0 0 0.582234 0
0.1 0.588366 0 0 0.588366 0 0.1 0.594562 0 0
0.594562 0 0.1 0.600822 0 0 0.600822 0 0.1 0.607148
0 0 0.607148 0 0.1 0.61354 0 0 0.61354 0
0.1 0.619999 0 0 0.619999 0 0.1 0.626525 0 0
0.626525 0 0.1 0.633119 0 0 0.633119 0 0.1 0.639782
0 0 0.639782 0 0.1 0.646514 0 0 0.646514 0
0.1 0.653316 0 0 0.653316 0 0.1 0.66019 0 0
0.66019 0 0.1 0.667135 0 0 0.667135 0 0.1 0.674152
0 0 0.674152 0 0.1 0.681243 0 0 0.681243 0
0.1 0.688408 0 0 0.688408 0 0.1 0.695647 0 0
0.695647 0 0.1 0.702962 0 0 0.702962 0 0.1 0.710353
0 0 0.710353 0 0.1 0.717821 0 0 0.717821 0
0.1 0.725367 0 0 0.725367 0 0.1 0.732992 0 0
0.732992 0 0.1 0.740697 0 0 0.740697 0 0.1 0.748481
0 0 0.748481 0 0.1 0.756347 0 0 0.756347 0
0.1 0.764295 0 0 0.764295 0 0.1 0.772326 0 0
0.772326 0 0.1 0.78044 0 0 0.78044 0 0.1 0.78864
0 0 0.78864 0 0.1 0.796924 0 0 0.796924 0
0.1 0.805295 0 0 0.805295 0 0.1 0.813754 0 0
0.813754 0 0.1 0.8223 0 0 0.8223 0 0.1 0.830936
0 0 0.830936 0 0.1 0.839662 0 0 0.839662 0
0.1 0.848479 0 0 0.848479 0 0.1 0.857387 0 0
0.857387 0 0.1 0.866389 0 0 0.866389 0 0.1 0.875485
0 0 0.875485 0 0.1 0.884675 0 0 0.884675 0
0.1 0.893961 0 0 0.893961 0 0.1 0.903344 0 0
0.903344 0 0.1 0.912825 0 0 0.912825 0 0.1 0.922405
0 0 0.922405 0 0.1 0.932085 0 0 0.932085 0
0.1 0.941865 0 0 0.941865 0 0.1 0.951748 0 0
0.951748 0 0.1 0.961734 0 0 0.961734 0 0.1 0.971824
0 0 0.971824 0 0.1 0.982019 0 0 0.982019 0
0.1 0.99232 0 0 0.99232 0 0.1 1.00273 0 0
1.00273 0 0.1 1.01325 0 0 1.01325 0 0.1 1.02387
0 0 1.02387 0 0.1 1.03461 0 0 1.03461 0
0.1 1.04546 0 0 1.04546 0 0.1 1.05642 0 0
1.05642 0 0.1 1.0675 0 0 1.0675 0 0.1 1.07869
0 0 1.07869 0 0.1 1.09 0 0 1.09 0
0.1 1.10143 0 0 1.10143 0 0.1 1.11298 0 0
1.11298 0 0.1 1.12465 0 0 1.12465 0 0.1 1.13644
0 0 1.13644 0 0.1 1.14835 0 0 1.14835 0
0.1 1.16038 0 0 1.16038 0 0.1 1.17254 0 0
1.17254 0 0.1 1.18483 0 0 1.18483 0 0.1 1.19725
0 0 1.19725 0 0.1 1.2098 0 0 1.2098 0
0.1 1.22247 0 0 1.22247 0 0.1 1.23528 0 0
1.23528 0 0.1 1.24822 0 0 1.24822 0 0.1 1.2613
0 0 1.2613 0 0.1 1.27452 0 0 1.27452 0
0.1 1.28787 0 0 1.28787 0 0.1 1.30136 0 0
1.30136 0 0.1 1.31499 0 0 1.31499 0 0.1 1.32877
0 0 1.32877 0 0.1 1.34268 0 0 1.34268 0
0.1 1.35675 0 0 1.35675 0 0.1 1.37095 0 0
1.37095 0 0.1 1.38531 0 0 1.38531 0 0.1 1.39982
0 0 1.39982 0 0.1 1.41448 0 0 1.41448 0
0.1 1.42929 0 0 1.42929 0 0.1 1.44426 0 0
1.44426 0 0.1 1.45938 0 0 1.45938 0 0.1 1.47466
0 0 1.47466 0 0.1 1.4901 0 0 1.4901 0
0.1 1.5057 0 0 1.5057 0 0.1 1.52146 0 0
1.52146 0 0.1 1.53739 0 0 1.53739 0 0.1 1.55348
0 0 1.55348 0 0.1 1.56974 0 0 1.56974 0
0.1 1.58617 0 0 1.58617 0 0.1 1.60278 0 0
1.60278 0 0.1 1.61955 0 0 1.61955 0 0.1 1.6365
0 0 1.6365 0 0.1 1.65363 0 0 1.65363 0
0.1 1.67093 0 0 1.67093 0 0.1 1.68842 0 0
1.68842 0 0.1 1.70609 0 0 1.70609 0 0.1 1.72394
0 0 1.72394 0 0.1 1.74198 0 0 1.74198 0
0.1 1.76021 0 0 1.76021 0 0.1 1.77862 0 0
1.77862 0 0.1 1.79723 0 0 1.79723 0 0.1 1.81604
0 0 1.81604 0 0.1 1.83504 0 0 1.83504 0
0.1 1.85423 0 0 1.85423 0 0.1 1.87363 0 0
1.87363 0 0.1 1.89323 0 0 1.89323 0 0.1 1.91304
0 0 1.91304 0 0.1 1.93305 0 0 1.93305 0
0.1 1.95327 0 0 1.95327 0 0.1 1.9737 0 0
1.9737 0 0.1 1.99434 0 0 1.99434 0 0.1 2.0152
0 0 2.0152 0 0.1 2.03628 0 0 2.03628 0
0.1 2.05757 0 0 2.05757 0 0.1 2.07909 0 0
2.07909 0 0.1 2.10083 0 0 2.10083 0 0.1 2.1228
0 0 2.1228 0 0.1 2.145 0 0 2.145 0
0.1 2.16743 0 0 2.16743 0 0.1 2.1901 0 0
2.1901 0 0.1 2.213 0 0 2.213 0 0.1 2.23614
0 0 2.23614 0 0.1 2.25952 0 0 2.25952 0
0.1 2.28314 0 0 2.28314 0 0.1 2.30701 0 0
2.30701 0 0.1 2.33113 0 0 2.33113 0 0.1 2.3555
0 0 2.3555 0 0.1 2.38013 0 0 2.38013 0
0.1 2.40501 0 0 2.40501 0 0.1 2.43015 0 0
2.43015 0 0.1 2.45556 0 0 2.45556 0 0.1 2.48122
0 0 2.48122 0 0.1 2.50716 0 0 2.50716 0
0.1 2.53337 0 0 2.53337 0 0.1 2.55985 0 0
2.55985 0 0.1 2.58661 0 0 2.58661 0 0.1 2.61364
0 0 2.61364 0 0.1 2.64096 0 0 2.64096 0
0.1 2.66856 0 0 2.66856 0 0.1 2.69645 0 0
2.69645 0 0.1 2.72463 0 0 2.72463 0 0.1 2.75311
0 0 2.75311 0 0.1 2.78188 0 0 2.78188 0
0.1 2.81095 0 0 2.81095 0 0.1 2.84033 0 0
2.84033 0 0.1 2.87001 0 0 2.87001 0 0.1 2.9
0 0 2.9 0 0.1 
POLYGONS 600 3000
4 0 1 2 3 4 1 4 5 2 4
4 6 7 5 4 6 8 9 7 4
8 10 11 9 4 10 12 13 11 4
12 14 15 13 4 14 16 17 15 4
16 18 19 17 4 18 20 21 19 4
20 22 23 21 4 22 24 25 23 4
24 26 27 25 4 26 28 29 27 4
28 30 31 29 4 30 32 33 31 4
32 34 35 33 4 34 36 37 35 4
36 38 39 37 4 38 40 41 39 4
40 42 43 41 4 42 44 45 43 4
44 46 47 45 4 46 48 49 47 4
48 50 51 49 4 50 52 53 51 4
52 54 55 53 4 54 56 57 55 4
56 58 59 57 4 58 60 61 59 4
60 62 63 61 4 62 64 65 63 4
64 66 67 65 4 66 68 69 67 4
68 70 71 69 4 70 72 73 71 4
72 74 75 73 4 74 76 77 75 4
76 78 79 77 4 78 80 81 79 4
80 82 83 81 4 82 84 85 83 4
84 86 87 85 4 86 88 89 87 4
88 90 91 89 4 90 92 93 91 4
92 94 95 93 4 94 96 97 95 4
96 98 99 97 4 98 100 101 99 4
100 102 103 101 4 102 104 105 103 4
104 106 107 105 4 106 108 109 107 4
108 110 111 109 4 110 112 113 111 4
112 114 115 113 4 114 116 117 115 4
116 118 119 117 4 118 120 121 119 4
120 122 123 121 4 122 124 125 123 4
124 126 127 125 4 126 128 129 127 4
128 130 131 129 4 130 132 133 131 4
132 134 135 133 4 134 136 137 135 4
136 138 139 137 4 138 140 141 139 4
140 142 143 141 4 142 144 145 143 4
144 146 147 145 4 146 148 149 147 4
148 150 151 149 4 150 152 153 151 4
152 154 155 153 4 154 156 157 155 4
156 158 159 157 4 158 160 161 159 4
160 162 163 161 4 162 164 165 163 4
164 166 167 165 4 166 168 169 167 4
168 170 171 169 4 170 172 173 171 4
172 174 175 173 4 174 176 177 175 4
176 178 179 177 4 178 180 181 179 4
180 182 183 181 4 182 184 185 183 4
184 186 187 185 4 186 188 189 187 4
188 190 191 189 4 190 192 193 191 4
192 194 195 193 4 194 196 197 195 4
196 198 199 197 4 198 200 201 199 4
200 202 203 201 4 202 204 205 203 4
204 206 207 205 4 206 208 209 207 4
208 210 211 209 4 210 212 213 211 4
212 214 215 213 4 214 216 217 215 4
216 218 219 217 4 218 220 221 219 4
220 222 223 221 4 222 224 225 223 4
224 226 227 225 4 226 228 229 227 4
228 230 231 229 4 230 232 233 231 4
232 234 235 233 4 234 236 237 235 4
236 238 239 237 4 238 240 241 239 4
240 242 243 241 4 242 244 245 243 4
244 246 247 245 4 246 248 249 247 4
248 250 251 249 4 250 252 253 251 4
252 254 255 253 4 254 256 257 255 4
256 258 259 257 4 258 260 261 259 4
260 262 263 261 4 262 264 265 263 4
264 266 267 265 4 266 268 269 267 4
268 270 271 269 4 270 272 273 271 4
272 274 275 273 4 274 276 277 275 4
276 278 279 277 4 278 280 281 279 4
280 282 283 281 4 282 284 285 283 4
284 286 287 285 4 286 288 289 287 4
288 290 291 289 4 290 292 293 291 4
292 294 295 293 4 294 296 297 295 4
296 298 299 297 4 298 300 301 299 4
300 302 303 301 4 302 304 305 303 4
304 306 307 305 4 306 308 309 307 4
308 310 311 309 4 310 312 313 311 4
312 314 315 313 4 314 316 317 315 4
316 318 319 317 4 318 320 321 319 4
320 322 323 321 4 322 324 325 323 4
324 326 327 325 4 326 328 329 327 4
328 330 331 329 4 330 332 333 331 4
332 334 335 333 4 334 336 337 335 4
336 338 339 337 4 338 340 341 339 4
340 342 343 341 4 342 344 345 343 4
344 346 347 345 4 346 348 349 347 4
348 350 351 349 4 350 352 353 351 4
352 354 355 353 4 354 356 357 355 4
356 358 359 357 4 358 360 361 359 4
360 362 363 361 4 362 364 365 363 4
364 366 367 365 4 366 368 369 367 4
368 370 371 369 4 370 372 373 371 4
372 374 375 373 4 374 376 377 375 4
376 378 379 377 4 378 380 381 379 4
380 382 383 381 4 382 384 385 383 4
384 386 387 385 4 386 388 389 387 4
388 390 391 389 4 390 392 393 391 4
392 394 395 393 4 394 396 397 395 4
396 398 399 397 4 398 400 401 399 4
400 402 403 401 4 402 404 405 403 4
404 406 407 405 4 406 408 409 407 4
408 410 411 409 4 410 412 413 411 4
412 414 415 413 4 414 416 417 415 4
416 418 419 417 4 418 420 421 419 4
420 422 423 421 4 422 424 425 423 4
424 426 427 425 4 426 428 429 427 4
428 430 431 429 4 430 432 433 431 4
432 434 435 433 4 434 436 437 435 4
436 438 439 437 4 438 440 441 439 4
440 442 443 441 4 442 444 445 443 4
444 446 447 445 4 446 448 449 447 4
448 450 451 449 4 450 452 453 451 4
452 454 455 453 4 454 456 457 455 4
456 458 459 457 4 458 460 461 459 4
460 462 463 461 4 462 464 465 463 4
464 466 467 465 4 466 468 469 467 4
468 470 471 469 4 470 472 473 471 4
472 474 475 473 4 474 476 477 475 4
476 478 479 477 4 478 480 481 479 4
480 482 483 481 4 482 484 485 483 4
484 486 487 485 4 486 488 489 487 4
488 490 491 489 4 490 492 493 491 4
492 494 495 493 4 494 496 497 495 4
496 498 499 497 4 498 500 501 499 4
500 502 503 501 4 502 504 505 503 4
504 506 507 505 4 506 508 509 507 4
508 510 511 509 4 510 512 513 511 4
512 514 515 513 4 514 516 517 515 4
516 518 519 517 4 518 520 521 519 4
520 522 523 521 4 522 524 525 523 4
524 526 527 525 4 526 528 529 527 4
528 530 531 529 4 530 532 533 531 4
532 534 535 533 4 534 536 537 535 4
536 538 539 537 4 538 540 541 539 4
540 542 543 541 4 542 544 545 543 4
544 546 547 545 4 546 548 549 547 4
548 550 551 549 4 550 552 553 551 4
552 554 555 553 4 554 556 557 555 4
556 558 559 557 4 558 560 561 559 4
560 562 563 561 4 562 564 565 563 4
564 566 567 565 4 566 568 569 567 4
568 570 571 569 4 570 572 573 571 4
572 574 575 573 4 574 576 577 575 4
576 578 579 577 4 578 580 581 579 4
580 582 583 581 4 582 584 585 583 4
584 586 587 585 4 586 588 589 587 4
588 590 591 589 4 590 592 593 591 4
592 594 595 593 4 594 596 597 595 4
596 598 599 597 4 598 600 601 599 4
600 602 603 601 4 602 604 605 603 4
604 606 607 605 4 606 608 609 607 4
608 610 611 609 4 610 612 613 611 4
612 614 615 613 4 614 616 617 615 4
616 618 619 617 4 618 620 621 619 4
620 622 623 621 4 622 624 625 623 4
624 626 627 625 4 626 628 629 627 4
628 630 631 629 4 630 632 633 631 4
632 634 635 633 4 634 636 637 635 4
636 638 639 637 4 638 640 641 639 4
640 642 643 641 4 642 644 645 643 4
644 646 647 645 4 646 648 649 647 4
648 650 651 649 4 650 652 653 651 4
652 654 655 653 4 654 656 657 655 4
656 658 659 657 4 658 660 661 659 4
660 662 663 661 4 662 664 665 663 4
664 666 667 665 4 666 668 669 667 4
668 670 671 669 4 670 672 673 671 4
672 674 675 673 4 674 676 677 675 4
676 678 679 677 4 678 680 681 679 4
680 682 683 681 4 682 684 685 683 4
684 686 687 685 4 686 688 689 687 4
688 690 691 689 4 690 692 693 691 4
692 694 695 693 4 694 696 697 695 4
696 698 699 697 4 698 700 701 699 4
700 702 703 701 4 702 704 705 703 4
704 706 707 705 4 706 708 709 707 4
708 710 711 709 4 710 712 713 711 4
712 714 715 713 4 714 716 717 715 4
716 718 719 717 4 718 720 721 719 4
720 722 723 721 4 722 724 725 723 4
724 726 727 725 4 726 728 729 727 4
728 730 731 729 4 730 732 733 731 4
732 734 735 733 4 734 736 737 735 4
736 738 739 737 4 738 740 741 739 4
740 742 743 741 4 742 744 745 743 4
744 746 747 745 4 746 748 749 747 4
748 750 751 749 4 750 752 753 751 4
752 754 755 753 4 754 756 757 755 4
756 758 759 757 4 758 760 761 759 4
760 762 763 761 4 762 764 765 763 4
764 766 767 765 4 766 768 769 767 4
768 770 771 769 4 770 772 773 771 4
772 774 775 773 4 774 776 777 775 4
776 778 779 777 4 778 780 781 779 4
780 782 783 781 4 782 784 785 783 4
784 786 787 785 4 786 788 789 787 4
788 790 791 789 4 790 792 793 791 4
792 794 795 793 4 794 796 797 795 4
796 798 799 797 4 798 800 801 799 4
800 802 803 801 4 802 804 805 803 4
804 806 807 805 4 806 808 809 807 4
808 810 811 809 4 810 812 813 811 4
812 814 815 813 4 814 816 817 815 4
816 818 819 817 4 818 820 821 819 4
820 822 823 821 4 822 824 825 823 4
824 826 827 825 4 826 828 829 827 4
828 830 831 829 4 830 832 833 831 4
832 834 835 833 4 834 836 837 835 4
836 838 839 837 4 838 840 841 839 4
840 842 843 841 4 842 844 845 843 4
844 846 847 845 4 846 848 849 847 4
848 850 851 849 4 850 852 853 851 4
852 854 855 853 4 854 856 857 855 4
856 858 859 857 4 858 860 861 859 4
860 862 863 861 4 862 864 865 863 4
864 866 867 865 4 866 868 869 867 4
868 870 871 869 4 870 872 873 871 4
872 874 875 873 4 874 876 877 875 4
876 878 879 877 4 878 880 881 879 4
880 882 883 881 4 882 884 885 883 4
884 886 887 885 4 886 888 889 887 4
888 890 891 889 4 890 892 893 891 4
892 894 895 893 4 894 896 897 895 4
896 898 899 897 4 898 900 901 899 4
900 902 903 901 4 902 904 905 903 4
904 906 907 905 4 906 908 909 907 4
908 910 911 909 4 910 912 913 911 4
912 914 915 913 4 914 916 917 915 4
916 918 919 917 4 918 920 921 919 4
920 922 923 921 4 922 924 925 923 4
924 926 927 925 4 926 928 929 927 4
928 930 931 929 4 930 932 933 931 4
932 934 935 933 4 934 936 937 935 4
936 938 939 937 4 938 940 941 939 4
940 942 943 941 4 942 944 945 943 4
944 946 947 945 4 946 948 949 947 4
948 950 951 949 4 950 952 953 951 4
952 954 955 953 4 954 956 957 955 4
956 958 959 957 4 958 960 961 959 4
960 962 963 961 4 962 964 965 963 4
964 966 967 965 4 966 968 969 967 4
968 970 971 969 4 970 972 973 971 4
972 974 975 973 4 974 976 977 975 4
976 978 979 977 4 978 980 981 979 4
980 982 983 981 4 982 984 985 983 4
984 986 987 985 4 986 988 989 987 4
988 990 991 989 4 990 992 993 991 4
992 994 995 993 4 994 996 997 995 4
996 998 999 997 4 998 1000 1001 999 4
1000 1002 1003 1001 4 1002 1004 1005 1003 4
1004 1006 1007 1005 4 1006 1008 1009 1007 4
1008 1010 1011 1009 4 1010 1012 1013 1011 4
1012 1014 1015 1013 4 1014 1016 1017 1015 4
1016 1018 1019 1017 4 1018 1020 1021 1019 4
1020 1022 1023 1021 4 1022 1024 1025 1023 4
1024 1026 1027 1025 4 1026 1028 1029 1027 4
1028 1030 1031 1029 4 1030 1032 1033 1031 4
1032 1034 1035 1033 4 1034 1036 1037 1035 4
1036 1038 1039 1037 4 1038 1040 1041 1039 4
1040 1042 1043 1041 4 1042 1044 1045 1043 4
1044 1046 1047 1045 4 1046 1048 1049 1047 4
1048 1050 1051 1049 4 1050 1052 1053 1051 4
1052 1054 1055 1053 4 1054 1056 1057 1055 4
1056 1058 1059 1057 4 1058 1060 1061 1059 4
1060 1062 1063 1061 4 1062 1064 1065 1063 4
1064 1066 1067 1065 4 1066 1068 1069 1067 4
1068 1070 1071 1069 4 1070 1072 1073 1071 4
1072 1074 1075 1073 4 1074 1076 1077 1075 4
1076 1078 1079 1077 4 1078 1080 1081 1079 4
1080 1082 1083 1081 4 1082 1084 1085 1083 4
1084 1086 1087 1085 4 1086 1088 1089 1087 4
1088 1090 1091 1089 4 1090 1092 1093 1091 4
1092 1094 1095 1093 4 1094 1096 1097 1095 4
1096 1098 1099 1097 4 1098 1100 1101 1099 4
1100 1102 1103 1101 4 1102 1104 1105 1103 4
1104 1106 1107 1105 4 1106 1108 1109 1107 4
1108 1110 1111 1109 4 1110 1112 1113 1111 4
1112 1114 1115 1113 4 1114 1116 1117 1115 4
1116 1118 1119 1117 4 1118 1120 1121 1119 4
1120 1122 1123 1121 4 1122 1124 1125 1123 4
1124 1126 1127 1125 4 1126 1128 1129 1127 4
1128 1130 1131 1129 4 1130 1132 1133 1131 4
1132 1134 1135 1133 4 1134 1136 1137 1135 4
1136 1138 1139 1137 4 1138 1140 1141 1139 4
1140 1142 1143 1141 4 1142 1144 1145 1143 4
1144 1146 1147 1145 4 1146 1148 1149 1147 4
1148 1150 1151 1149 4 1150 1152 1153 1151 4
1152 1154 1155 1153 4 1154 1156 1157 1155 4
1156 1158 1159 1157 4 1158 1160 1161 1159 4
1160 1162 1163 1161 4 1162 1164 1165 1163 4
1164 1166 1167 1165 4 1166 1168 1169 1167 4
1168 1170 1171 1169 4 1170 1172 1173 1171 4
1172 1174 1175 1173 4 1174 1176 1177 1175 4
1176 1178 1179 1177 4 1178 1180 1181 1179 4
1180 1182 1183 1181 4 1182 1184 1185 1183 4
1184 1186 1187 1185 4 1186 1188 1189 1187 4
1188 1190 1191 1189 4 1190 1192 1193 1191 4
1192 1194 1195 1193 4 1194 1196 1197 1195 4
1196 1198 1199 1197 4 1198 1200 1201 1199 
POINT_DATA 1202
FIELD attributes 1
U 3 1202 float
1.55723 0.0343597 0 0.876366 0.0238125 0 0.876366 0.0238125 0 1.55723 0.0343597
0 0.167987 0.00865844 0 0.167987 0.00865844 0 0.123597 0.00262055 0
0.123597 0.00262055 0 0.0973442 0.00078207 0 0.0973442 0.00078207 0 0.0826388
0.00028001 0 0.0826388 0.00028001 0 0.0737826 0.000174574 0 0.0737826 0.000174574
0 0.0675821 0.000158042 0 0.0675821 0.000158042 0 0.0627615 0.000142316 0
0.0627615 0.000142316 0 0.0588406 0.000121697 0 0.0588406 0.000121697 0 0.0555837
0.000101751 0 0.0555837 0.000101751 0 0.0528248 8.64269e-05 0 0.0528248 8.64269e-05
0 0.050438 7.6017e-05 0 0.050438 7.6017e-05 0 0.0483328 6.8097e-05 0
0.0483328 6.8097e-05 0 0.0464505 6.15369e-05 0 0.0464505 6.15369e-05 0 0.0447511
5.59219e-05 0 0.0447511 5.59219e-05 0 0.0432057 5.10299e-05 0 0.0432057 5.10299e-05
0 0.0417921 4.672e-05 0 0.0417921 4.672e-05 0 0.0404928 4.28984e-05 0
0.0404928 4.28984e-05 0 0.0392937 3.94965e-05 0 0.0392937 3.94965e-05 0 0.0381827
3.64591e-05 0 0.0381827 3.64591e-05 0 0.03715 3.37405e-05 0 0.03715 3.37405e-05
0 0.0361869 3.13015e-05 0 0.0361869 3.13015e-05 0 0.035286 2.91087e-05 0
0.035286 2.91087e-05 0 0.0344411 2.71327e-05 0 0.0344411 2.71327e-05 0 0.0336466
2.53478e-05 0 0.0336466 2.53478e-05 0 0.0328976 2.3732e-05 0 0.0328976 2.3732e-05
0 0.0321898 2.22654e-05 0 0.0321898 2.22654e-05 0 0.0315196 2.09311e-05 0
0.0315196 2.09311e-05 0 0.0308835 1.97142e-05 0 0.0308835 1.97142e-05 0 0.0302788
1.86015e-05 0 0.0302788 1.86015e-05 0 0.0297027 1.7582e-05 0 0.0297027 1.7582e-05
0 0.0291531 1.66452e-05 0 0.0291531 1.66452e-05 0 0.0286276 1.5784e-05 0
0.0286276 1.5784e-05 0 0.0281247 1.49877e-05 0 0.0281247 1.49877e-05 0 0.0276424
1.4258e-05 0 0.0276424 1.4258e-05 0 0.0271795 1.35756e-05 0 0.0271795 1.35756e-05
0 0.0267342 1.29628e-05 0 0.0267342 1.29628e-05 0 0.0263053 1.23662e-05 0
0.0263053 1.23662e-05 0 0.0258928 1.1654e-05 0 0.0258928 1.1654e-05 0 0.0254961
1.10078e-05 0 0.0254961 1.10078e-05 0 0.0251123 1.05972e-05 0 0.0251123 1.05972e-05
0 0.0247389 1.02863e-05 0 0.0247389 1.02863e-05 0 0.0243751 9.96904e-06 0
0.0243751 9.96904e-06 0 0.0240208 9.63754e-06 0 0.0240208 9.63754e-06 0 0.0236763
9.29797e-06 0 0.0236763 9.29797e-06 0 0.0233415 8.95719e-06 0 0.0233415 8.95719e-06
0 0.0230163 8.62091e-06 0 0.0230163 8.62091e-06 0 0.0227006 8.29293e-06 0
0.0227006 8.29293e-06 0 0.0223941 7.97553e-06 0 0.0223941 7.97553e-06 0 0.0220966
7.66999e-06 0 0.0220966 7.66999e-06 0 0.0218076 7.37688e-06 0 0.0218076 7.37688e-06
0 0.021527 7.09635e-06 0 0.021527 7.09635e-06 0 0.0212543 6.82828e-06 0
0.0212543 6.82828e-06 0 0.0209894 6.57234e-06 0 0.0209894 6.57234e-06 0 0.0207318
6.32812e-06 0 0.0207318 6.32812e-06 0 0.0204812 6.09511e-06 0 0.0204812 6.09511e-06
0 0.0202375 5.87276e-06 0 0.0202375 5.87276e-06 0 0.0200003 5.66051e-06 0
0.0200003 5.66051e-06 0 0.0197694 5.45783e-06 0 0.0197694 5.45783e-06 0 0.0195445
5.26416e-06 0 0.0195445 5.26416e-06 0 0.0193255 5.07903e-06 0 0.0193255 5.07903e-06
0 0.019112 4.90195e-06 0 0.019112 4.90195e-06 0 0.018904 4.7325e-06 0
0.018904 4.7325e-06 0 0.0187011 4.57024e-06 0 0.0187011 4.57024e-06 0 0.0185032
4.41483e-06 0 0.0185032 4.41483e-06 0 0.0183102 4.26582e-06 0 0.0183102 4.26582e-06
0 0.0181218 4.12298e-06 0 0.0181218 4.12298e-06 0 0.017938 3.98585e-06 0
0.017938 3.98585e-06 0 0.0177585 3.85429e-06 0 0.0177585 3.85429e-06 0 0.0175832
3.72787e-06 0 0.0175832 3.72787e-06 0 0.017412 3.60648e-06 0 0.017412 3.60648e-06
0 0.0172447 3.48994e-06 0 0.0172447 3.48994e-06 0 0.0170813 3.37765e-06 0
0.0170813 3.37765e-06 0 0.0169215 3.27119e-06 0 0.0169215 3.27119e-06 0 0.0167653
3.16649e-06 0 0.0167653 3.16649e-06 0 0.0166124 3.07355e-06 0 0.0166124 3.07355e-06
0 0.0164627 2.97643e-06 0 0.0164627 2.97643e-06 0 0.0163168 2.84731e-06 0
0.0163168 2.84731e-06 0 0.0161744 2.73938e-06 0 0.0161744 2.73938e-06 0 0.0160345
2.68335e-06 0 0.0160345 2.68335e-06 0 0.0158962 2.63868e-06 0 0.0158962 2.63868e-06
0 0.0157597 2.58448e-06 0 0.0157597 2.58448e-06 0 0.0156252 2.52243e-06 0
0.0156252 2.52243e-06 0 0.015493 2.45535e-06 0 0.015493 2.45535e-06 0 0.0153632
2.38582e-06 0 0.0153632 2.38582e-06 0 0.015236 2.31565e-06 0 0.015236 2.31565e-06
0 0.0151113 2.24599e-06 0 0.0151113 2.24599e-06 0 0.0149891 2.17755e-06 0
0.0149891 2.17755e-06 0 0.0148695 2.1108e-06 0 0.0148695 2.1108e-06 0 0.0147523
2.04598e-06 0 0.0147523 2.04598e-06 0 0.0146375 1.98328e-06 0 0.0146375 1.98328e-06
0 0.014525 1.92276e-06 0 0.014525 1.92276e-06 0 0.0144147 1.86445e-06 0
0.0144147 1.86445e-06 0 0.0143067 1.80837e-06 0 0.0143067 1.80837e-06 0 0.0142008
1.75448e-06 0 0.0142008 1.75448e-06 0 0.0140969 1.70273e-06 0 0.0140969 1.70273e-06
0 0.013995 1.65309e-06 0 0.013995 1.65309e-06 0 0.0138949 1.60549e-06 0
0.0138949 1.60549e-06 0 0.0137967 1.55987e-06 0 0.0137967 1.55987e-06 0 0.0137002
1.51616e-06 0 0.0137002 1.51616e-06 0 0.0136055 1.4743e-06 0 0.0136055 1.4743e-06
0 0.0135123 1.43421e-06 0 0.0135123 1.43421e-06 0 0.0134206 1.39584e-06 0
0.0134206 1.39584e-06 0 0.0133305 1.35912e-06 0 0.0133305 1.35912e-06 0 0.0132417
1.32399e-06 0 0.0132417 1.32399e-06 0 0.0131543 1.29037e-06 0 0.0131543 1.29037e-06
0 0.0130682 1.25821e-06 0 0.0130682 1.25821e-06 0 0.0129833 1.22745e-06 0
0.0129833 1.22745e-06 0 0.0128995 1.19803e-06 0 0.0128995 1.19803e-06 0 0.0128169
1.1699e-06 0 0.0128169 1.1699e-06 0 0.0127353 1.14298e-06 0 0.0127353 1.14298e-06
0 0.0126547 1.11732e-06 0 0.0126547 1.11732e-06 0 0.012575 1.09275e-06 0
0.012575 1.09275e-06 0 0.0124963 1.06939e-06 0 0.0124963 1.06939e-06 0 0.0124183
1.04724e-06 0 0.0124183 1.04724e-06 0 0.0123411 1.02586e-06 0 0.0123411 1.02586e-06
0 0.0122646 1.00777e-06 0 0.0122646 1.00777e-06 0 0.0121887 9.88052e-07 0
0.0121887 9.88052e-07 0 0.0121136 9.59052e-07 0 0.0121136 9.59052e-07 0 0.0120394
9.36903e-07 0 0.0120394 9.36903e-07 0 0.0119651 9.32849e-07 0 0.0119651 9.32849e-07
0 0.0118905 9.32427e-07 0 0.0118905 9.32427e-07 0 0.0118155 9.27167e-07 0
0.0118155 9.27167e-07 0 0.0117404 9.18436e-07 0 0.0117404 9.18436e-07 0 0.0116654
9.07363e-07 0 0.0116654 9.07363e-07 0 0.0115906 8.95089e-07 0 0.0115906 8.95089e-07
0 0.011516 8.8228e-07 0 0.011516 8.8228e-07 0 0.0114417 8.69373e-07 0
0.0114417 8.69373e-07 0 0.0113676 8.56613e-07 0 0.0113676 8.56613e-07 0 0.0112938
8.44153e-07 0 0.0112938 8.44153e-07 0 0.0112202 8.32079e-07 0 0.0112202 8.32079e-07
0 0.0111469 8.20429e-07 0 0.0111469 8.20429e-07 0 0.0110737 8.0922e-07 0
0.0110737 8.0922e-07 0 0.0110007 7.98441e-07 0 0.0110007 7.98441e-07 0 0.0109279
7.88068e-07 0 0.0109279 7.88068e-07 0 0.0108553 7.78078e-07 0 0.0108553 7.78078e-07
0 0.0107827 7.68412e-07 0 0.0107827 7.68412e-07 0 0.0107104 7.59052e-07 0
0.0107104 7.59052e-07 0 0.0106381 7.4992e-07 0 0.0106381 7.4992e-07 0 0.010566
7.40994e-07 0 0.010566 7.40994e-07 0 0.010494 7.32199e-07 0 0.010494 7.32199e-07
0 0.0104222 7.23484e-07 0 0.0104222 7.23484e-07 0 0.0103506 7.14805e-07 0
0.0103506 7.14805e-07 0 0.0102791 7.06045e-07 0 0.0102791 7.06045e-07 0 0.010208
6.97234e-07 0 0.010208 6.97234e-07 0 0.0101371 6.8815e-07 0 0.0101371 6.8815e-07
0 0.0100666 6.78951e-07 0 0.0100666 6.78951e-07 0 0.00999648 6.69235e-07 0
0.00999648 6.69235e-07 0 0.00992683 6.59395e-07 0 0.00992683 6.59395e-07 0 0.00985773
6.48743e-07 0 0.00985773 6.48743e-07 0 0.00978925 6.37893e-07 0 0.00978925 6.37893e-07
0 0.00972145 6.26377e-07 0 0.00972145 6.26377e-07 0 0.00965454 6.13333e-07 0
0.00965454 6.13333e-07 0 0.00958833 6.02873e-07 0 0.00958833 6.02873e-07 0 0.00952322
5.86014e-07 0 0.00952322 5.86014e-07 0 0.00945966 5.63403e-07 0 0.00945966 5.63403e-07
0 0.0093971 5.51775e-07 0 0.0093971 5.51775e-07 0 0.00933503 5.46253e-07 0
0.00933503 5.46253e-07 0 0.00927352 5.36076e-07 0 0.00927352 5.36076e-07 0 0.00921306
5.2119e-07 0 0.00921306 5.2119e-07 0 0.00915397 5.03329e-07 0 0.00915397 5.03329e-07
0 0.00909645 4.8395e-07 0 0.00909645 4.8395e-07 0 0.00904059 4.63909e-07 0
0.00904059 4.63909e-07 0 0.00898643 4.43843e-07 0 0.00898643 4.43843e-07 0 0.00893395
4.24213e-07 0 0.00893395 4.24213e-07 0 0.0088831 4.05347e-07 0 0.0088831 4.05347e-07
0 0.00883379 3.87517e-07 0 0.00883379 3.87517e-07 0 0.00878594 3.70849e-07 0
0.00878594 3.70849e-07 0 0.00873945 3.55431e-07 0 0.00873945 3.55431e-07 0 0.00869419
3.41246e-07 0 0.00869419 3.41246e-07 0 0.00865009 3.28219e-07 0 0.00865009 3.28219e-07
0 0.00860704 3.16258e-07 0 0.00860704 3.16258e-07 0 0.00856498 3.05203e-07 0
0.00856498 3.05203e-07 0 0.00852382 2.94945e-07 0 0.00852382 2.94945e-07 0 0.00848352
2.85335e-07 0 0.00848352 2.85335e-07 0 0.00844402 2.76292e-07 0 0.00844402 2.76292e-07
0 0.00840529 2.67733e-07 0 0.00840529 2.67733e-07 0 0.00836729 2.59629e-07 0
0.00836729 2.59629e-07 0 0.00832999 2.51945e-07 0 0.00832999 2.51945e-07 0 0.00829335
2.44728e-07 0 0.00829335 2.44728e-07 0 0.00825733 2.37919e-07 0 0.00825733 2.37919e-07
0 0.00822189 2.31623e-07 0 0.00822189 2.31623e-07 0 0.00818699 2.25773e-07 0
0.00818699 2.25773e-07 0 0.0081526 2.20373e-07 0 0.0081526 2.20373e-07 0 0.00811869
2.15502e-07 0 0.00811869 2.15502e-07 0 0.00808521 2.10901e-07 0 0.00808521 2.10901e-07
0 0.00805213 2.0684e-07 0 0.00805213 2.0684e-07 0 0.00801946 2.02896e-07 0
0.00801946 2.02896e-07 0 0.00798717 1.99257e-07 0 0.00798717 1.99257e-07 0 0.00795521
1.96272e-07 0 0.00795521 1.96272e-07 0 0.00792365 1.91752e-07 0 0.00792365 1.91752e-07
0 0.0078927 1.86238e-07 0 0.0078927 1.86238e-07 0 0.00786207 1.83908e-07 0
0.00786207 1.83908e-07 0 0.0078314 1.84125e-07 0 0.0078314 1.84125e-07 0 0.00780067
1.83209e-07 0 0.00780067 1.83209e-07 0 0.0077701 1.80524e-07 0 0.0077701 1.80524e-07
0 0.00773988 1.7677e-07 0 0.00773988 1.7677e-07 0 0.00771009 1.72417e-07 0
0.00771009 1.72417e-07 0 0.00768078 1.6781e-07 0 0.00768078 1.6781e-07 0 0.00765193
1.63205e-07 0 0.00765193 1.63205e-07 0 0.00762352 1.5878e-07 0 0.00762352 1.5878e-07
0 0.00759547 1.54768e-07 0 0.00759547 1.54768e-07 0 0.00756768 1.51462e-07 0
0.00756768 1.51462e-07 0 0.00754002 1.49052e-07 0 0.00754002 1.49052e-07 0 0.00751237
1.47775e-07 0 0.00751237 1.47775e-07 0 0.00748456 1.47694e-07 0 0.00748456 1.47694e-07
0 0.0074565 1.48544e-07 0 0.0074565 1.48544e-07 0 0.00742814 1.49958e-07 0
0.00742814 1.49958e-07 0 0.00739953 1.51274e-07 0 0.00739953 1.51274e-07 0 0.00737079
1.51652e-07 0 0.00737079 1.51652e-07 0 0.00734216 1.50526e-07 0 0.00734216 1.50526e-07
0 0.00731391 1.47405e-07 0 0.00731391 1.47405e-07 0 0.00728634 1.4215e-07 0
0.00728634 1.4215e-07 0 0.00725971 1.35139e-07 0 0.00725971 1.35139e-07 0 0.00723419
1.26868e-07 0 0.00723419 1.26868e-07 0 0.00720988 1.17988e-07 0 0.00720988 1.17988e-07
0 0.00718676 1.09323e-07 0 0.00718676 1.09323e-07 0 0.00716475 1.01383e-07 0
0.00716475 1.01383e-07 0 0.00714369 9.44726e-08 0 0.00714369 9.44726e-08 0 0.00712339
8.90204e-08 0 0.00712339 8.90204e-08 0 0.00710365 8.48066e-08 0 0.00710365 8.48066e-08
0 0.00708431 8.17384e-08 0 0.00708431 8.17384e-08 0 0.00706521 7.97421e-08 0
0.00706521 7.97421e-08 0 0.00704628 7.82585e-08 0 0.00704628 7.82585e-08 0 0.00702746
7.7343e-08 0 0.00702746 7.7343e-08 0 0.00700872 7.65179e-08 0 0.00700872 7.65179e-08
0 0.0069902 7.46642e-08 0 0.0069902 7.46642e-08 0 0.00697205 7.26469e-08 0
0.00697205 7.26469e-08 0 0.00695403 7.21665e-08 0 0.00695403 7.21665e-08 0 0.00693597
7.21646e-08 0 0.00693597 7.21646e-08 0 0.00691801 7.09939e-08 0 0.00691801 7.09939e-08
0 0.00690037 6.88119e-08 0 0.00690037 6.88119e-08 0 0.00688324 6.60758e-08 0
0.00688324 6.60758e-08 0 0.00686671 6.3032e-08 0 0.00686671 6.3032e-08 0 0.00685082
5.99078e-08 0 0.00685082 5.99078e-08 0 0.00683561 5.67769e-08 0 0.00683561 5.67769e-08
0 0.00682109 5.36069e-08 0 0.00682109 5.36069e-08 0 0.00680725 5.0534e-08 0
0.00680725 5.0534e-08 0 0.00679409 4.76716e-08 0 0.00679409 4.76716e-08 0 0.00678161
4.48301e-08 0 0.00678161 4.48301e-08 0 0.00676983 4.18627e-08 0 0.00676983 4.18627e-08
0 0.00675878 3.87973e-08 0 0.00675878 3.87973e-08 0 0.00674848 3.55179e-08 0
0.00674848 3.55179e-08 0 0.00673893 3.20814e-08 0 0.00673893 3.20814e-08 0 0.00673005
2.91885e-08 0 0.00673005 2.91885e-08 0 0.00672161 2.75692e-08 0 0.00672161 2.75692e-08
0 0.0067134 2.71889e-08 0 0.0067134 2.71889e-08 0 0.00670529 2.74198e-08 0
0.00670529 2.74198e-08 0 0.00669731 2.75238e-08 0 0.00669731 2.75238e-08 0 0.00668959
2.69674e-08 0 0.00668959 2.69674e-08 0 0.00668229 2.56936e-08 0 0.00668229 2.56936e-08
0 0.00667558 2.38025e-08 0 0.00667558 2.38025e-08 0 0.00666963 2.09389e-08 0
0.00666963 2.09389e-08 0 0.00666468 1.68418e-08 0 0.00666468 1.68418e-08 0 0.00666082
1.24091e-08 0 0.00666082 1.24091e-08 0 0.00665789 8.99048e-09 0 0.00665789 8.99048e-09
0 0.00665568 6.62368e-09 0 0.00665568 6.62368e-09 0 0.00665415 4.2027e-09 0
0.00665415 4.2027e-09 0 0.00665334 1.33108e-09 0 0.00665334 1.33108e-09 0 0.00665321
-1.18442e-09 0 0.00665321 -1.18442e-09 0 0.00665354 -2.66802e-09 0 0.00665354 -2.66802e-09
0 0.00665414 -3.25841e-09 0 0.00665414 -3.25841e-09 0 0.00665486 -3.31968e-09 0
0.00665486 -3.31968e-09 0 0.00665567 -3.0754e-09 0 0.00665567 -3.0754e-09 0 0.0066566
-3.26145e-09 0 0.0066566 -3.26145e-09 0 0.00665793 -4.63186e-09 0 0.00665793 -4.63186e-09
0 0.0066598 -6.44941e-09 0 0.0066598 -6.44941e-09 0 0.00666192 -7.49945e-09 0
0.00666192 -7.49945e-09 0 0.0066639 -7.09679e-09 0 0.0066639 -7.09679e-09 0 0.00666539
-5.07672e-09 0 0.00666539 -5.07672e-09 0 0.00666623 -2.35739e-09 0 0.00666623 -2.35739e-09
0 0.00666662 -4.73367e-10 0 0.00666662 -4.73367e-10 0 0.00666699 -2.82309e-10 0
0.00666699 -2.82309e-10 0 0.0066677 -1.36734e-09 0 0.0066677 -1.36734e-09 0 0.00666887
-2.73652e-09 0 0.00666887 -2.73652e-09 0 0.0066705 -3.87597e-09 0 0.0066705 -3.87597e-09
0 0.00667257 -4.98058e-09 0 0.00667257 -4.98058e-09 0 0.00667514 -6.36446e-09 0
0.00667514 -6.36446e-09 0 0.00667827 -7.97262e-09 0 0.00667827 -7.97262e-09 0 0.00668195
-9.51416e-09 0 0.00668195 -9.51416e-09 0 0.00668609 -1.08087e-08 0 0.00668609 -1.08087e-08
0 0.0066906 -1.17873e-08 0 0.0066906 -1.17873e-08 0 0.00669532 -1.22639e-08 0
0.00669532 -1.22639e-08 0 0.00670004 -1.19744e-08 0 0.00670004 -1.19744e-08 0 0.00670454
-1.09423e-08 0 0.00670454 -1.09423e-08 0 0.00670876 -9.68685e-09 0 0.00670876 -9.68685e-09
0 0.00671282 -8.94004e-09 0 0.00671282 -8.94004e-09 0 0.00671699 -9.124e-09 0
0.00671699 -9.124e-09 0 0.00672154 -1.00876e-08 0 0.00672154 -1.00876e-08 0 0.00672655
-1.12871e-08 0 0.00672655 -1.12871e-08 0 0.00673195 -1.21909e-08 0 0.00673195 -1.21909e-08
0 0.00673759 -1.25753e-08 0 0.00673759 -1.25753e-08 0 0.00674331 -1.25479e-08 0
0.00674331 -1.25479e-08 0 0.00674906 -1.23661e-08 0 0.00674906 -1.23661e-08 0 0.00675483
-1.22392e-08 0 0.00675483 -1.22392e-08 0 0.00676068 -1.22426e-08 0 0.00676068 -1.22426e-08
0 0.00676663 -1.23441e-08 0 0.00676663 -1.23441e-08 0 0.00677271 -1.24766e-08 0
0.00677271 -1.24766e-08 0 0.0067789 -1.259e-08 0 0.0067789 -1.259e-08 0 0.0067852
-1.26664e-08 0 0.0067852 -1.26664e-08 0 0.00679159 -1.27101e-08 0 0.00679159 -1.27101e-08
0 0.00679806 -1.27318e-08 0 0.00679806 -1.27318e-08 0 0.00680461 -1.27406e-08 0
0.00680461 -1.27406e-08 0 0.00681124 -1.27336e-08 0 0.00681124 -1.27336e-08 0 0.00681792
-1.26994e-08 0 0.00681792 -1.26994e-08 0 0.00682467 -1.27489e-08 0 0.00682467 -1.27489e-08
0 0.00683152 -1.27837e-08 0 0.00683152 -1.27837e-08 0 0.00683836 -1.24432e-08 0
0.00683836 -1.24432e-08 0 0.00684498 -1.18448e-08 0 0.00684498 -1.18448e-08 0 0.00685136
-1.13412e-08 0 0.00685136 -1.13412e-08 0 0.00685758 -1.10054e-08 0 0.00685758 -1.10054e-08
0 0.00686372 -1.07958e-08 0 0.00686372 -1.07958e-08 0 0.00686984 -1.06681e-08 0
0.00686984 -1.06681e-08 0 0.00687597 -1.05916e-08 0 0.00687597 -1.05916e-08 0 0.00688213
-1.05458e-08 0 0.00688213 -1.05458e-08 0 0.00688833 -1.05187e-08 0 0.00688833 -1.05187e-08
0 0.00689458 -1.05029e-08 0 0.00689458 -1.05029e-08 0 0.0069009 -1.04934e-08 0
0.0069009 -1.04934e-08 0 0.00690727 -1.04878e-08 0 0.00690727 -1.04878e-08 0 0.00691372
-1.04842e-08 0 0.00691372 -1.04842e-08 0 0.00692022 -1.04819e-08 0 0.00692022 -1.04819e-08
0 0.0069268 -1.04802e-08 0 0.0069268 -1.04802e-08 0 0.00693344 -1.04787e-08 0
0.00693344 -1.04787e-08 0 0.00694016 -1.04775e-08 0 0.00694016 -1.04775e-08 0 0.00694694
-1.0476e-08 0 0.00694694 -1.0476e-08 0 0.0069538 -1.0474e-08 0 0.0069538 -1.0474e-08
0 0.00696072 -1.04714e-08 0 0.00696072 -1.04714e-08 0 0.00696772 -1.04678e-08 0
0.00696772 -1.04678e-08 0 0.00697479 -1.0463e-08 0 0.00697479 -1.0463e-08 0 0.00698192
-1.0457e-08 0 0.00698192 -1.0457e-08 0 0.00698913 -1.04497e-08 0 0.00698913 -1.04497e-08
0 0.00699641 -1.04411e-08 0 0.00699641 -1.04411e-08 0 0.00700376 -1.04313e-08 0
0.00700376 -1.04313e-08 0 0.00701118 -1.04199e-08 0 0.00701118 -1.04199e-08 0 0.00701867
-1.0407e-08 0 0.00701867 -1.0407e-08 0 0.00702623 -1.03931e-08 0 0.00702623 -1.03931e-08
0 0.00703385 -1.03781e-08 0 0.00703385 -1.03781e-08 0 0.00704155 -1.03612e-08 0
0.00704155 -1.03612e-08 0 0.00704931 -1.03431e-08 0 0.00704931 -1.03431e-08 0 0.00705714
-1.03233e-08 0 0.00705714 -1.03233e-08 0 0.00706503 -1.03011e-08 0 0.00706503 -1.03011e-08
0 0.00707299 -1.02765e-08 0 0.00707299 -1.02765e-08 0 0.00708102 -1.02418e-08 0
0.00708102 -1.02418e-08 0 0.0070891 -1.02126e-08 0 0.0070891 -1.02126e-08 0 0.00709725
-1.02172e-08 0 0.00709725 -1.02172e-08 0 0.00710548 -1.01274e-08 0 0.00710548 -1.01274e-08
0 0.00711362 -9.81432e-09 0 0.00711362 -9.81432e-09 0 0.00712151 -9.42464e-09 0
0.00712151 -9.42464e-09 0 0.00712921 -9.12388e-09 0 0.00712921 -9.12388e-09 0 0.00713678
-8.9223e-09 0 0.00713678 -8.9223e-09 0 0.00714429 -8.79114e-09 0 0.00714429 -8.79114e-09
0 0.0071518 -8.70525e-09 0 0.0071518 -8.70525e-09 0 0.00715933 -8.64834e-09 0
0.00715933 -8.64834e-09 0 0.00716689 -8.60957e-09 0 0.00716689 -8.60957e-09 0 0.0071745
-8.58175e-09 0 0.0071745 -8.58175e-09 0 0.00718218 -8.56053e-09 0 0.00718218 -8.56053e-09
0 0.00718991 -8.54312e-09 0 0.00718991 -8.54312e-09 0 0.00719771 -8.52834e-09 0
0.00719771 -8.52834e-09 0 0.00720558 -8.51535e-09 0 0.00720558 -8.51535e-09 0 0.00721352
-8.50209e-09 0 0.00721352 -8.50209e-09 0 0.00722153 -8.48842e-09 0 0.00722153 -8.48842e-09
0 0.00722961 -8.47461e-09 0 0.00722961 -8.47461e-09 0 0.00723776 -8.46011e-09 0
0.00723776 -8.46011e-09 0 0.00724598 -8.44467e-09 0 0.00724598 -8.44467e-09 0 0.00725428
-8.42824e-09 0 0.00725428 -8.42824e-09 0 0.00726264 -8.41097e-09 0 0.00726264 -8.41097e-09
0 0.00727107 -8.39249e-09 0 0.00727107 -8.39249e-09 0 0.00727957 -8.3731e-09 0
0.00727957 -8.3731e-09 0 0.00728814 -8.35272e-09 0 0.00728814 -8.35272e-09 0 0.00729677
-8.33135e-09 0 0.00729677 -8.33135e-09 0 0.00730547 -8.30897e-09 0 0.00730547 -8.30897e-09
0 0.00731424 -8.28556e-09 0 0.00731424 -8.28556e-09 0 0.00732308 -8.26084e-09 0
0.00732308 -8.26084e-09 0 0.00733198 -8.23553e-09 0 0.00733198 -8.23553e-09 0 0.00734095
-8.20969e-09 0 0.00734095 -8.20969e-09 0 0.00734998 -8.18244e-09 0 0.00734998 -8.18244e-09
0 0.00735907 -8.15418e-09 0 0.00735907 -8.15418e-09 0 0.00736823 -8.12473e-09 0
0.00736823 -8.12473e-09 0 0.00737745 -8.09093e-09 0 0.00737745 -8.09093e-09 0 0.00738672
-8.05643e-09 0 0.00738672 -8.05643e-09 0 0.00739606 -8.03659e-09 0 0.00739606 -8.03659e-09
0 0.00740546 -7.9696e-09 0 0.00740546 -7.9696e-09 0 0.00741481 -7.76957e-09 0
0.00741481 -7.76957e-09 0 0.00742394 -7.50402e-09 0 0.00742394 -7.50402e-09 0 0.00743286
-7.28176e-09 0 0.00743286 -7.28176e-09 0 0.00744165 -7.12314e-09 0 0.00744165 -7.12314e-09
0 0.00745037 -7.01268e-09 0 0.00745037 -7.01268e-09 0 0.00745906 -6.93394e-09 0
0.00745906 -6.93394e-09 0 0.00746777 -6.87564e-09 0 0.00746777 -6.87564e-09 0 0.0074765
-6.83073e-09 0 0.0074765 -6.83073e-09 0 0.00748527 -6.79405e-09 0 0.00748527 -6.79405e-09
0 0.00749409 -6.76262e-09 0 0.00749409 -6.76262e-09 0 0.00750296 -6.73495e-09 0
0.00750296 -6.73495e-09 0 0.00751189 -6.70924e-09 0 0.00751189 -6.70924e-09 0 0.00752087
-6.68459e-09 0 0.00752087 -6.68459e-09 0 0.00752992 -6.66087e-09 0 0.00752992 -6.66087e-09
0 0.00753903 -6.6374e-09 0 0.00753903 -6.6374e-09 0 0.00754821 -6.61383e-09 0
0.00754821 -6.61383e-09 0 0.00755744 -6.58997e-09 0 0.00755744 -6.58997e-09 0 0.00756674
-6.56569e-09 0 0.00756674 -6.56569e-09 0 0.0075761 -6.54153e-09 0 0.0075761 -6.54153e-09
0 0.00758552 -6.51679e-09 0 0.00758552 -6.51679e-09 0 0.00759501 -6.49126e-09 0
0.00759501 -6.49126e-09 0 0.00760455 -6.46536e-09 0 0.00760455 -6.46536e-09 0 0.00761416
-6.43911e-09 0 0.00761416 -6.43911e-09 0 0.00762383 -6.41231e-09 0 0.00762383 -6.41231e-09
0 0.00763355 -6.38481e-09 0 0.00763355 -6.38481e-09 0 0.00764334 -6.35705e-09 0
0.00764334 -6.35705e-09 0 0.00765318 -6.32869e-09 0 0.00765318 -6.32869e-09 0 0.00766308
-6.29973e-09 0 0.00766308 -6.29973e-09 0 0.00767304 -6.27025e-09 0 0.00767304 -6.27025e-09
0 0.00768305 -6.24009e-09 0 0.00768305 -6.24009e-09 0 0.00769312 -6.20765e-09 0
0.00769312 -6.20765e-09 0 0.00770325 -6.17706e-09 0 0.00770325 -6.17706e-09 0 0.00771343
-6.14794e-09 0 0.00771343 -6.14794e-09 0 0.00772365 -6.07124e-09 0 0.00772365 -6.07124e-09
0 0.00773377 -5.91235e-09 0 0.00773377 -5.91235e-09 0 0.00774368 -5.72845e-09 0
0.00774368 -5.72845e-09 0 0.00775339 -5.57934e-09 0 0.00775339 -5.57934e-09 0 0.00776299
-5.4697e-09 0 0.00776299 -5.4697e-09 0 0.00777252 -5.38914e-09 0 0.00777252 -5.38914e-09
0 0.00778203 -5.32855e-09 0 0.00778203 -5.32855e-09 0 0.00779155 -5.28039e-09 0
0.00779155 -5.28039e-09 0 0.00780108 -5.24041e-09 0 0.00780108 -5.24041e-09 0 0.00781065
-5.20605e-09 0 0.00781065 -5.20605e-09 0 0.00782026 -5.1754e-09 0 0.00782026 -5.1754e-09
0 0.00782991 -5.14679e-09 0 0.00782991 -5.14679e-09 0 0.00783962 -5.1195e-09 0
0.00783962 -5.1195e-09 0 0.00784937 -5.09349e-09 0 0.00784937 -5.09349e-09 0 0.00785917
-5.0687e-09 0 0.00785917 -5.0687e-09 0 0.00786903 -5.04372e-09 0 0.00786903 -5.04372e-09
0 0.00787894 -5.01833e-09 0 0.00787894 -5.01833e-09 0 0.00788891 -4.99332e-09 0
0.00788891 -4.99332e-09 0 0.00789893 -4.96836e-09 0 0.00789893 -4.96836e-09 0 0.007909
-4.94336e-09 0 0.007909 -4.94336e-09 0 0.00791913 -4.91796e-09 0 0.00791913 -4.91796e-09
0 0.0079293 -4.89246e-09 0 0.0079293 -4.89246e-09 0 0.00793954 -4.86644e-09 0
0.00793954 -4.86644e-09 0 0.00794982 -4.84058e-09 0 0.00794982 -4.84058e-09 0 0.00796015
-4.81509e-09 0 0.00796015 -4.81509e-09 0 0.00797054 -4.78859e-09 0 0.00797054 -4.78859e-09
0 0.00798098 -4.76215e-09 0 0.00798098 -4.76215e-09 0 0.00799147 -4.73559e-09 0
0.00799147 -4.73559e-09 0 0.008002 -4.70793e-09 0 0.008002 -4.70793e-09 0 0.00801259
-4.6796e-09 0 0.00801259 -4.6796e-09 0 0.00802322 -4.65409e-09 0 0.00802322 -4.65409e-09
0 0.0080339 -4.61536e-09 0 0.0080339 -4.61536e-09 0 0.00804457 -4.52656e-09 0
0.00804457 -4.52656e-09 0 0.00805506 -4.39704e-09 0 0.00805506 -4.39704e-09 0 0.00806533
-4.27433e-09 0 0.00806533 -4.27433e-09 0 0.00807546 -4.17958e-09 0 0.00807546 -4.17958e-09
0 0.00808549 -4.10876e-09 0 0.00808549 -4.10876e-09 0 0.00809549 -4.05418e-09 0
0.00809549 -4.05418e-09 0 0.00810546 -4.01041e-09 0 0.00810546 -4.01041e-09 0 0.00811544
-3.97387e-09 0 0.00811544 -3.97387e-09 0 0.00812544 -3.94217e-09 0 0.00812544 -3.94217e-09
0 0.00813547 -3.91366e-09 0 0.00813547 -3.91366e-09 0 0.00814554 -3.88725e-09 0
0.00814554 -3.88725e-09 0 0.00815564 -3.86236e-09 0 0.00815564 -3.86236e-09 0 0.00816578
-3.83842e-09 0 0.00816578 -3.83842e-09 0 0.00817596 -3.81506e-09 0 0.00817596 -3.81506e-09
0 0.00818619 -3.79206e-09 0 0.00818619 -3.79206e-09 0 0.00819647 -3.76943e-09 0
0.00819647 -3.76943e-09 0 0.00820679 -3.74701e-09 0 0.00820679 -3.74701e-09 0 0.00821715
-3.72474e-09 0 0.00821715 -3.72474e-09 0 0.00822756 -3.70243e-09 0 0.00822756 -3.70243e-09
0 0.00823802 -3.68012e-09 0 0.00823802 -3.68012e-09 0 0.00824852 -3.65776e-09 0
0.00824852 -3.65776e-09 0 0.00825907 -3.6354e-09 0 0.00825907 -3.6354e-09 0 0.00826966
-3.61296e-09 0 0.00826966 -3.61296e-09 0 0.00828029 -3.5901e-09 0 0.00828029 -3.5901e-09
0 0.00829097 -3.56737e-09 0 0.00829097 -3.56737e-09 0 0.00830169 -3.54471e-09 0
0.00830169 -3.54471e-09 0 0.00831246 -3.52149e-09 0 0.00831246 -3.52149e-09 0 0.00832326
-3.49908e-09 0 0.00832326 -3.49908e-09 0 0.00833411 -3.47333e-09 0 0.00833411 -3.47333e-09
0 0.00834497 -3.4219e-09 0 0.00834497 -3.4219e-09 0 0.00835572 -3.33472e-09 0
0.00835572 -3.33472e-09 0 0.00836625 -3.23986e-09 0 0.00836625 -3.23986e-09 0 0.00837661
-3.16242e-09 0 0.00837661 -3.16242e-09 0 0.00838686 -3.10315e-09 0 0.00838686 -3.10315e-09
0 0.00839704 -3.05722e-09 0 0.00839704 -3.05722e-09 0 0.0084072 -3.02047e-09 0
0.0084072 -3.02047e-09 0 0.00841734 -2.98933e-09 0 0.00841734 -2.98933e-09 0 0.0084275
-2.96237e-09 0 0.0084275 -2.96237e-09 0 0.00843768 -2.93805e-09 0 0.00843768 -2.93805e-09
0 0.00844788 -2.91532e-09 0 0.00844788 -2.91532e-09 0 0.00845811 -2.89427e-09 0
0.00845811 -2.89427e-09 0 0.00846837 -2.87416e-09 0 0.00846837 -2.87416e-09 0 0.00847867
-2.8544e-09 0 0.00847867 -2.8544e-09 0 0.00848901 -2.83512e-09 0 0.00848901 -2.83512e-09
0 0.00849938 -2.81589e-09 0 0.00849938 -2.81589e-09 0 0.00850979 -2.7967e-09 0
0.00850979 -2.7967e-09 0 0.00852024 -2.77791e-09 0 0.00852024 -2.77791e-09 0 0.00853072
-2.75968e-09 0 0.00853072 -2.75968e-09 0 0.00854125 -2.74129e-09 0 0.00854125 -2.74129e-09
0 0.00855181 -2.7229e-09 0 0.00855181 -2.7229e-09 0 0.00856241 -2.70417e-09 0
0.00856241 -2.70417e-09 0 0.00857305 -2.6849e-09 0 0.00857305 -2.6849e-09 0 0.00858372
-2.66628e-09 0 0.00858372 -2.66628e-09 0 0.00859443 -2.64766e-09 0 0.00859443 -2.64766e-09
0 0.00860518 -2.62911e-09 0 0.00860518 -2.62911e-09 0 0.00861596 -2.61057e-09 0
0.00861596 -2.61057e-09 0 0.00862677 -2.58067e-09 0 0.00862677 -2.58067e-09 0 0.00863753
-2.52401e-09 0 0.00863753 -2.52401e-09 0 0.00864809 -2.45233e-09 0 0.00864809 -2.45233e-09
0 0.00865846 -2.38878e-09 0 0.00865846 -2.38878e-09 0 0.0086687 -2.33984e-09 0
0.0086687 -2.33984e-09 0 0.00867885 -2.30205e-09 0 0.00867885 -2.30205e-09 0 0.00868896
-2.27136e-09 0 0.00868896 -2.27136e-09 0 0.00869906 -2.24573e-09 0 0.00869906 -2.24573e-09
0 0.00870915 -2.22348e-09 0 0.00870915 -2.22348e-09 0 0.00871925 -2.20343e-09 0
0.00871925 -2.20343e-09 0 0.00872937 -2.18495e-09 0 0.00872937 -2.18495e-09 0 0.00873952
-2.16757e-09 0 0.00873952 -2.16757e-09 0 0.00874968 -2.1508e-09 0 0.00874968 -2.1508e-09
0 0.00875988 -2.1346e-09 0 0.00875988 -2.1346e-09 0 0.00877011 -2.11879e-09 0
0.00877011 -2.11879e-09 0 0.00878036 -2.10331e-09 0 0.00878036 -2.10331e-09 0 0.00879065
-2.08809e-09 0 0.00879065 -2.08809e-09 0 0.00880097 -2.07268e-09 0 0.00880097 -2.07268e-09
0 0.00881132 -2.05755e-09 0 0.00881132 -2.05755e-09 0 0.0088217 -2.0427e-09 0
0.0088217 -2.0427e-09 0 0.00883212 -2.02796e-09 0 0.00883212 -2.02796e-09 0 0.00884256
-2.01308e-09 0 0.00884256 -2.01308e-09 0 0.00885304 -1.998e-09 0 0.00885304 -1.998e-09
0 0.00886355 -1.98304e-09 0 0.00886355 -1.98304e-09 0 0.00887409 -1.96843e-09 0
0.00887409 -1.96843e-09 0 0.00888466 -1.95147e-09 0 0.00888466 -1.95147e-09 0 0.00889523
-1.92046e-09 0 0.00889523 -1.92046e-09 0 0.00890568 -1.87096e-09 0 0.00890568 -1.87096e-09
0 0.00891592 -1.81841e-09 0 0.00891592 -1.81841e-09 0 0.008926 -1.77524e-09 0
0.008926 -1.77524e-09 0 0.00893597 -1.74181e-09 0 0.00893597 -1.74181e-09 0 0.00894587
-1.71595e-09 0 0.00894587 -1.71595e-09 0 0.00895575 -1.69437e-09 0 0.00895575 -1.69437e-09
0 0.00896561 -1.67534e-09 0 0.00896561 -1.67534e-09 0 0.00897547 -1.65895e-09 0
0.00897547 -1.65895e-09 0 0.00898535 -1.64401e-09 0 0.00898535 -1.64401e-09 0 0.00899523
-1.6297e-09 0 0.00899523 -1.6297e-09 0 0.00900514 -1.61625e-09 0 0.00900514 -1.61625e-09
0 0.00901507 -1.60344e-09 0 0.00901507 -1.60344e-09 0 0.00902502 -1.59067e-09 0
0.00902502 -1.59067e-09 0 0.00903499 -1.57807e-09 0 0.00903499 -1.57807e-09 0 0.009045
-1.56589e-09 0 0.009045 -1.56589e-09 0 0.00905502 -1.55375e-09 0 0.00905502 -1.55375e-09
0 0.00906508 -1.54165e-09 0 0.00906508 -1.54165e-09 0 0.00907516 -1.52981e-09 0
0.00907516 -1.52981e-09 0 0.00908527 -1.518e-09 0 0.00908527 -1.518e-09 0 0.0090954
-1.50613e-09 0 0.0090954 -1.50613e-09 0 0.00910556 -1.49422e-09 0 0.00910556 -1.49422e-09
0 0.00911574 -1.4827e-09 0 0.00911574 -1.4827e-09 0 0.00912595 -1.46872e-09 0
0.00912595 -1.46872e-09 0 0.00913615 -1.44333e-09 0 0.00913615 -1.44333e-09 0 0.00914622
-1.40494e-09 0 0.00914622 -1.40494e-09 0 0.00915608 -1.36526e-09 0 0.00915608 -1.36526e-09
0 0.00916579 -1.33314e-09 0 0.00916579 -1.33314e-09 0 0.0091754 -1.30904e-09 0
0.0091754 -1.30904e-09 0 0.00918495 -1.28951e-09 0 0.00918495 -1.28951e-09 0 0.00919446
-1.27271e-09 0 0.00919446 -1.27271e-09 0 0.00920397 -1.25876e-09 0 0.00920397 -1.25876e-09
0 0.00921347 -1.24616e-09 0 0.00921347 -1.24616e-09 0 0.00922298 -1.23448e-09 0
0.00922298 -1.23448e-09 0 0.0092325 -1.22344e-09 0 0.0092325 -1.22344e-09 0 0.00924204
-1.21288e-09 0 0.00924204 -1.21288e-09 0 0.0092516 -1.20237e-09 0 0.0092516 -1.20237e-09
0 0.00926117 -1.19248e-09 0 0.00926117 -1.19248e-09 0 0.00927077 -1.1832e-09 0
0.00927077 -1.1832e-09 0 0.00928039 -1.17324e-09 0 0.00928039 -1.17324e-09 0 0.00929003
-1.1638e-09 0 0.00929003 -1.1638e-09 0 0.00929969 -1.15491e-09 0 0.00929969 -1.15491e-09
0 0.00930937 -1.14544e-09 0 0.00930937 -1.14544e-09 0 0.00931908 -1.136e-09 0
0.00931908 -1.136e-09 0 0.0093288 -1.12636e-09 0 0.0093288 -1.12636e-09 0 0.00933855
-1.11675e-09 0 0.00933855 -1.11675e-09 0 0.00934831 -1.10167e-09 0 0.00934831 -1.10167e-09
0 0.00935798 -1.07483e-09 0 0.00935798 -1.07483e-09 0 0.00936746 -1.04318e-09 0
0.00936746 -1.04318e-09 0 0.00937677 -1.01638e-09 0 0.00937677 -1.01638e-09 0 0.00938596
-9.95767e-10 0 0.00938596 -9.95767e-10 0 0.00939508 -9.79584e-10 0 0.00939508 -9.79584e-10
0 0.00940416 -9.66497e-10 0 0.00940416 -9.66497e-10 0 0.00941322 -9.54949e-10 0
0.00941322 -9.54949e-10 0 0.00942228 -9.44891e-10 0 0.00942228 -9.44891e-10 0 0.00943134
-9.35867e-10 0 0.00943134 -9.35867e-10 0 0.00944041 -9.26992e-10 0 0.00944041 -9.26992e-10
0 0.00944948 -9.18573e-10 0 0.00944948 -9.18573e-10 0 0.00945857 -9.10726e-10 0
0.00945857 -9.10726e-10 0 0.00946768 -9.02717e-10 0 0.00946768 -9.02717e-10 0 0.00947681
-8.95084e-10 0 0.00947681 -8.95084e-10 0 0.00948595 -8.88007e-10 0 0.00948595 -8.88007e-10
0 0.00949511 -8.80423e-10 0 0.00949511 -8.80423e-10 0 0.00950428 -8.73019e-10 0
0.00950428 -8.73019e-10 0 0.00951348 -8.6505e-10 0 0.00951348 -8.6505e-10 0 0.00952268
-8.60227e-10 0 0.00952268 -8.60227e-10 0 0.00953197 -8.48609e-10 0 0.00953197 -8.48609e-10
0 0.0095411 -8.35699e-10 0 0.0095411 -8.35699e-10 0 0.00955031 -8.55992e-10 0
0.00955031 -8.55992e-10 0 0.0207555 -1.18806e-09 0 0.0207555 -1.18806e-09 0 0.0319654
-1.49848e-09 0 0.0319654 -1.49848e-09 0 
