# vtk DataFile Version 2.0
sampleSurface
ASCII
DATASET POLYDATA
POINTS 1202 float
0 0 0 5.99825e-05 0 0 5.99825e-05 0 0.1 0 0
0.1 0.000120591 0 0 0.000120591 0 0.1 0.000181831 0 0
0.000181831 0 0.1 0.000243709 0 0 0.000243709 0 0.1 0.000306234
0 0 0.000306234 0 0.1 0.00036941 0 0 0.00036941 0
0.1 0.000433245 0 0 0.000433245 0 0.1 0.000497746 0 0
0.000497746 0 0.1 0.000562919 0 0 0.000562919 0 0.1 0.000628772
0 0 0.000628772 0 0.1 0.000695312 0 0 0.000695312 0
0.1 0.000762546 0 0 0.000762546 0 0.1 0.000830481 0 0
0.000830481 0 0.1 0.000899125 0 0 0.000899125 0 0.1 0.000968484
0 0 0.000968484 0 0.1 0.00103857 0 0 0.00103857 0
0.1 0.00110938 0 0 0.00110938 0 0.1 0.00118093 0 0
0.00118093 0 0.1 0.00125323 0 0 0.00125323 0 0.1 0.00132628
0 0 0.00132628 0 0.1 0.0014001 0 0 0.0014001 0
0.1 0.00147468 0 0 0.00147468 0 0.1 0.00155004 0 0
0.00155004 0 0.1 0.00162619 0 0 0.00162619 0 0.1 0.00170313
0 0 0.00170313 0 0.1 0.00178088 0 0 0.00178088 0
0.1 0.00185943 0 0 0.00185943 0 0.1 0.00193881 0 0
0.00193881 0 0.1 0.00201901 0 0 0.00201901 0 0.1 0.00210005
0 0 0.00210005 0 0.1 0.00218193 0 0 0.00218193 0
0.1 0.00226467 0 0 0.00226467 0 0.1 0.00234827 0 0
0.00234827 0 0.1 0.00243274 0 0 0.00243274 0 0.1 0.0025181
0 0 0.0025181 0 0.1 0.00260434 0 0 0.00260434 0
0.1 0.00269148 0 0 0.00269148 0 0.1 0.00277954 0 0
0.00277954 0 0.1 0.00286851 0 0 0.00286851 0 0.1 0.0029584
0 0 0.0029584 0 0.1 0.00304924 0 0 0.00304924 0
0.1 0.00314102 0 0 0.00314102 0 0.1 0.00323376 0 0
0.00323376 0 0.1 0.00332747 0 0 0.00332747 0 0.1 0.00342215
0 0 0.00342215 0 0.1 0.00351783 0 0 0.00351783 0
0.1 0.0036145 0 0 0.0036145 0 0.1 0.00371217 0 0
0.00371217 0 0.1 0.00381087 0 0 0.00381087 0 0.1 0.0039106
0 0 0.0039106 0 0.1 0.00401136 0 0 0.00401136 0
0.1 0.00411318 0 0 0.00411318 0 0.1 0.00421606 0 0
0.00421606 0 0.1 0.00432001 0 0 0.00432001 0 0.1 0.00442505
0 0 0.00442505 0 0.1 0.00453118 0 0 0.00453118 0
0.1 0.00463842 0 0 0.00463842 0 0.1 0.00474677 0 0
0.00474677 0 0.1 0.00485626 0 0 0.00485626 0 0.1 0.00496689
0 0 0.00496689 0 0.1 0.00507867 0 0 0.00507867 0
0.1 0.00519162 0 0 0.00519162 0 0.1 0.00530574 0 0
0.00530574 0 0.1 0.00542106 0 0 0.00542106 0 0.1 0.00553758
0 0 0.00553758 0 0.1 0.00565531 0 0 0.00565531 0
0.1 0.00577427 0 0 0.00577427 0 0.1 0.00589447 0 0
0.00589447 0 0.1 0.00601593 0 0 0.00601593 0 0.1 0.00613865
0 0 0.00613865 0 0.1 0.00626266 0 0 0.00626266 0
0.1 0.00638795 0 0 0.00638795 0 0.1 0.00651455 0 0
0.00651455 0 0.1 0.00664248 0 0 0.00664248 0 0.1 0.00677173
0 0 0.00677173 0 0.1 0.00690234 0 0 0.00690234 0
0.1 0.0070343 0 0 0.0070343 0 0.1 0.00716765 0 0
0.00716765 0 0.1 0.00730238 0 0 0.00730238 0 0.1 0.00743852
0 0 0.00743852 0 0.1 0.00757608 0 0 0.00757608 0
0.1 0.00771507 0 0 0.00771507 0 0.1 0.00785551 0 0
0.00785551 0 0.1 0.00799742 0 0 0.00799742 0 0.1 0.00814081
0 0 0.00814081 0 0.1 0.00828569 0 0 0.00828569 0
0.1 0.00843209 0 0 0.00843209 0 0.1 0.00858001 0 0
0.00858001 0 0.1 0.00872947 0 0 0.00872947 0 0.1 0.00888049
0 0 0.00888049 0 0.1 0.00903309 0 0 0.00903309 0
0.1 0.00918728 0 0 0.00918728 0 0.1 0.00934307 0 0
0.00934307 0 0.1 0.00950049 0 0 0.00950049 0 0.1 0.00965956
0 0 0.00965956 0 0.1 0.00982028 0 0 0.00982028 0
0.1 0.00998268 0 0 0.00998268 0 0.1 0.0101468 0 0
0.0101468 0 0.1 0.0103126 0 0 0.0103126 0 0.1 0.0104801
0 0 0.0104801 0 0.1 0.0106494 0 0 0.0106494 0
0.1 0.0108204 0 0 0.0108204 0 0.1 0.0109933 0 0
0.0109933 0 0.1 0.0111679 0 0 0.0111679 0 0.1 0.0113443
0 0 0.0113443 0 0.1 0.0115226 0 0 0.0115226 0
0.1 0.0117028 0 0 0.0117028 0 0.1 0.0118848 0 0
0.0118848 0 0.1 0.0120687 0 0 0.0120687 0 0.1 0.0122546
0 0 0.0122546 0 0.1 0.0124424 0 0 0.0124424 0
0.1 0.0126321 0 0 0.0126321 0 0.1 0.0128238 0 0
0.0128238 0 0.1 0.0130176 0 0 0.0130176 0 0.1 0.0132133
0 0 0.0132133 0 0.1 0.0134111 0 0 0.0134111 0
0.1 0.0136109 0 0 0.0136109 0 0.1 0.0138129 0 0
0.0138129 0 0.1 0.0140169 0 0 0.0140169 0 0.1 0.0142231
0 0 0.0142231 0 0.1 0.0144314 0 0 0.0144314 0
0.1 0.0146419 0 0 0.0146419 0 0.1 0.0148546 0 0
0.0148546 0 0.1 0.0150695 0 0 0.0150695 0 0.1 0.0152866
0 0 0.0152866 0 0.1 0.015506 0 0 0.015506 0
0.1 0.0157277 0 0 0.0157277 0 0.1 0.0159517 0 0
0.0159517 0 0.1 0.016178 0 0 0.016178 0 0.1 0.0164067
0 0 0.0164067 0 0.1 0.0166378 0 0 0.0166378 0
0.1 0.0168713 0 0 0.0168713 0 0.1 0.0171073 0 0
0.0171073 0 0.1 0.0173457 0 0 0.0173457 0 0.1 0.0175865
0 0 0.0175865 0 0.1 0.0178299 0 0 0.0178299 0
0.1 0.0180759 0 0 0.0180759 0 0.1 0.0183244 0 0
0.0183244 0 0.1 0.0185754 0 0 0.0185754 0 0.1 0.0188291
0 0 0.0188291 0 0.1 0.0190855 0 0 0.0190855 0
0.1 0.0193445 0 0 0.0193445 0 0.1 0.0196063 0 0
0.0196063 0 0.1 0.0198707 0 0 0.0198707 0 0.1 0.0201379
0 0 0.0201379 0 0.1 0.0204079 0 0 0.0204079 0
0.1 0.0206807 0 0 0.0206807 0 0.1 0.0209564 0 0
0.0209564 0 0.1 0.0212349 0 0 0.0212349 0 0.1 0.0215164
0 0 0.0215164 0 0.1 0.0218008 0 0 0.0218008 0
0.1 0.0220881 0 0 0.0220881 0 0.1 0.0223784 0 0
0.0223784 0 0.1 0.0226718 0 0 0.0226718 0 0.1 0.0229682
0 0 0.0229682 0 0.1 0.0232677 0 0 0.0232677 0
0.1 0.0235704 0 0 0.0235704 0 0.1 0.0238762 0 0
0.0238762 0 0.1 0.0241852 0 0 0.0241852 0 0.1 0.0244974
0 0 0.0244974 0 0.1 0.0248128 0 0 0.0248128 0
0.1 0.0251316 0 0 0.0251316 0 0.1 0.0254537 0 0
0.0254537 0 0.1 0.0257791 0 0 0.0257791 0 0.1 0.0261079
0 0 0.0261079 0 0.1 0.0264402 0 0 0.0264402 0
0.1 0.0267759 0 0 0.0267759 0 0.1 0.0271152 0 0
0.0271152 0 0.1 0.0274579 0 0 0.0274579 0 0.1 0.0278043
0 0 0.0278043 0 0.1 0.0281542 0 0 0.0281542 0
0.1 0.0285078 0 0 0.0285078 0 0.1 0.0288651 0 0
0.0288651 0 0.1 0.0292261 0 0 0.0292261 0 0.1 0.0295909
0 0 0.0295909 0 0.1 0.0299595 0 0 0.0299595 0
0.1 0.0303319 0 0 0.0303319 0 0.1 0.0307082 0 0
0.0307082 0 0.1 0.0310885 0 0 0.0310885 0 0.1 0.0314727
0 0 0.0314727 0 0.1 0.0318609 0 0 0.0318609 0
0.1 0.0322532 0 0 0.0322532 0 0.1 0.0326495 0 0
0.0326495 0 0.1 0.03305 0 0 0.03305 0 0.1 0.0334546
0 0 0.0334546 0 0.1 0.0338635 0 0 0.0338635 0
0.1 0.0342767 0 0 0.0342767 0 0.1 0.0346941 0 0
0.0346941 0 0.1 0.0351159 0 0 0.0351159 0 0.1 0.0355421
0 0 0.0355421 0 0.1 0.0359728 0 0 0.0359728 0
0.1 0.0364079 0 0 0.0364079 0 0.1 0.0368476 0 0
0.0368476 0 0.1 0.0372919 0 0 0.0372919 0 0.1 0.0377408
0 0 0.0377408 0 0.1 0.0381944 0 0 0.0381944 0
0.1 0.0386527 0 0 0.0386527 0 0.1 0.0391158 0 0
0.0391158 0 0.1 0.0395837 0 0 0.0395837 0 0.1 0.0400565
0 0 0.0400565 0 0.1 0.0405342 0 0 0.0405342 0
0.1 0.0410169 0 0 0.0410169 0 0.1 0.0415047 0 0
0.0415047 0 0.1 0.0419975 0 0 0.0419975 0 0.1 0.0424955
0 0 0.0424955 0 0.1 0.0429986 0 0 0.0429986 0
0.1 0.0435071 0 0 0.0435071 0 0.1 0.0440208 0 0
0.0440208 0 0.1 0.0445398 0 0 0.0445398 0 0.1 0.0450643
0 0 0.0450643 0 0.1 0.0455943 0 0 0.0455943 0
0.1 0.0461298 0 0 0.0461298 0 0.1 0.0466708 0 0
0.0466708 0 0.1 0.0472176 0 0 0.0472176 0 0.1 0.04777
0 0 0.04777 0 0.1 0.0483281 0 0 0.0483281 0
0.1 0.0488921 0 0 0.0488921 0 0.1 0.049462 0 0
0.049462 0 0.1 0.0500378 0 0 0.0500378 0 0.1 0.0506197
0 0 0.0506197 0 0.1 0.0512076 0 0 0.0512076 0
0.1 0.0518016 0 0 0.0518016 0 0.1 0.0524018 0 0
0.0524018 0 0.1 0.0530083 0 0 0.0530083 0 0.1 0.0536211
0 0 0.0536211 0 0.1 0.0542403 0 0 0.0542403 0
0.1 0.0548659 0 0 0.0548659 0 0.1 0.0554981 0 0
0.0554981 0 0.1 0.0561369 0 0 0.0561369 0 0.1 0.0567823
0 0 0.0567823 0 0.1 0.0574345 0 0 0.0574345 0
0.1 0.0580934 0 0 0.0580934 0 0.1 0.0587593 0 0
0.0587593 0 0.1 0.0594321 0 0 0.0594321 0 0.1 0.0601119
0 0 0.0601119 0 0.1 0.0607987 0 0 0.0607987 0
0.1 0.0614928 0 0 0.0614928 0 0.1 0.0621941 0 0
0.0621941 0 0.1 0.0629027 0 0 0.0629027 0 0.1 0.0636187
0 0 0.0636187 0 0.1 0.0643421 0 0 0.0643421 0
0.1 0.0650732 0 0 0.0650732 0 0.1 0.0658118 0 0
0.0658118 0 0.1 0.0665581 0 0 0.0665581 0 0.1 0.0673122
0 0 0.0673122 0 0.1 0.0680742 0 0 0.0680742 0
0.1 0.0688441 0 0 0.0688441 0 0.1 0.0696221 0 0
0.0696221 0 0.1 0.0704082 0 0 0.0704082 0 0.1 0.0712024
0 0 0.0712024 0 0.1 0.072005 0 0 0.072005 0
0.1 0.0728159 0 0 0.0728159 0 0.1 0.0736353 0 0
0.0736353 0 0.1 0.0744632 0 0 0.0744632 0 0.1 0.0752998
0 0 0.0752998 0 0.1 0.076145 0 0 0.076145 0
0.1 0.0769991 0 0 0.0769991 0 0.1 0.0778621 0 0
0.0778621 0 0.1 0.0787342 0 0 0.0787342 0 0.1 0.0796153
0 0 0.0796153 0 0.1 0.0805055 0 0 0.0805055 0
0.1 0.0814051 0 0 0.0814051 0 0.1 0.0823141 0 0
0.0823141 0 0.1 0.0832325 0 0 0.0832325 0 0.1 0.0841605
0 0 0.0841605 0 0.1 0.0850982 0 0 0.0850982 0
0.1 0.0860457 0 0 0.0860457 0 0.1 0.087003 0 0
0.087003 0 0.1 0.0879704 0 0 0.0879704 0 0.1 0.0889478
0 0 0.0889478 0 0.1 0.0899354 0 0 0.0899354 0
0.1 0.0909333 0 0 0.0909333 0 0.1 0.0919416 0 0
0.0919416 0 0.1 0.0929605 0 0 0.0929605 0 0.1 0.0939899
0 0 0.0939899 0 0.1 0.0950302 0 0 0.0950302 0
0.1 0.0960812 0 0 0.0960812 0 0.1 0.0971432 0 0
0.0971432 0 0.1 0.0982163 0 0 0.0982163 0 0.1 0.0993006
0 0 0.0993006 0 0.1 0.100396 0 0 0.100396 0
0.1 0.101503 0 0 0.101503 0 0.1 0.102622 0 0
0.102622 0 0.1 0.103752 0 0 0.103752 0 0.1 0.104894
0 0 0.104894 0 0.1 0.106048 0 0 0.106048 0
0.1 0.107214 0 0 0.107214 0 0.1 0.108392 0 0
0.108392 0 0.1 0.109582 0 0 0.109582 0 0.1 0.110785
0 0 0.110785 0 0.1 0.112001 0 0 0.112001 0
0.1 0.113229 0 0 0.113229 0 0.1 0.114469 0 0
0.114469 0 0.1 0.115723 0 0 0.115723 0 0.1 0.11699
0 0 0.11699 0 0.1 0.11827 0 0 0.11827 0
0.1 0.119564 0 0 0.119564 0 0.1 0.12087 0 0
0.12087 0 0.1 0.122191 0 0 0.122191 0 0.1 0.123525
0 0 0.123525 0 0.1 0.124873 0 0 0.124873 0
0.1 0.126236 0 0 0.126236 0 0.1 0.127612 0 0
0.127612 0 0.1 0.129003 0 0 0.129003 0 0.1 0.130408
0 0 0.130408 0 0.1 0.131828 0 0 0.131828 0
0.1 0.133263 0 0 0.133263 0 0.1 0.134713 0 0
0.134713 0 0.1 0.136178 0 0 0.136178 0 0.1 0.137658
0 0 0.137658 0 0.1 0.139154 0 0 0.139154 0
0.1 0.140665 0 0 0.140665 0 0.1 0.142192 0 0
0.142192 0 0.1 0.143735 0 0 0.143735 0 0.1 0.145294
0 0 0.145294 0 0.1 0.146869 0 0 0.146869 0
0.1 0.148461 0 0 0.148461 0 0.1 0.150069 0 0
0.150069 0 0.1 0.151694 0 0 0.151694 0 0.1 0.153336
0 0 0.153336 0 0.1 0.154995 0 0 0.154995 0
0.1 0.156672 0 0 0.156672 0 0.1 0.158366 0 0
0.158366 0 0.1 0.160077 0 0 0.160077 0 0.1 0.161807
0 0 0.161807 0 0.1 0.163554 0 0 0.163554 0
0.1 0.16532 0 0 0.16532 0 0.1 0.167104 0 0
0.167104 0 0.1 0.168907 0 0 0.168907 0 0.1 0.170728
0 0 0.170728 0 0.1 0.172569 0 0 0.172569 0
0.1 0.174428 0 0 0.174428 0 0.1 0.176307 0 0
0.176307 0 0.1 0.178206 0 0 0.178206 0 0.1 0.180124
0 0 0.180124 0 0.1 0.182063 0 0 0.182063 0
0.1 0.184022 0 0 0.184022 0 0.1 0.186001 0 0
0.186001 0 0.1 0.188001 0 0 0.188001 0 0.1 0.190021
0 0 0.190021 0 0.1 0.192063 0 0 0.192063 0
0.1 0.194126 0 0 0.194126 0 0.1 0.19621 0 0
0.19621 0 0.1 0.198317 0 0 0.198317 0 0.1 0.200445
0 0 0.200445 0 0.1 0.202595 0 0 0.202595 0
0.1 0.204768 0 0 0.204768 0 0.1 0.206964 0 0
0.206964 0 0.1 0.209182 0 0 0.209182 0 0.1 0.211424
0 0 0.211424 0 0.1 0.213689 0 0 0.213689 0
0.1 0.215977 0 0 0.215977 0 0.1 0.21829 0 0
0.21829 0 0.1 0.220626 0 0 0.220626 0 0.1 0.222987
0 0 0.222987 0 0.1 0.225372 0 0 0.225372 0
0.1 0.227783 0 0 0.227783 0 0.1 0.230218 0 0
0.230218 0 0.1 0.232679 0 0 0.232679 0 0.1 0.235166
0 0 0.235166 0 0.1 0.237678 0 0 0.237678 0
0.1 0.240217 0 0 0.240217 0 0.1 0.242782 0 0
0.242782 0 0.1 0.245374 0 0 0.245374 0 0.1 0.247993
0 0 0.247993 0 0.1 0.25064 0 0 0.25064 0
0.1 0.253313 0 0 0.253313 0 0.1 0.256015 0 0
0.256015 0 0.1 0.258745 0 0 0.258745 0 0.1 0.261504
0 0 0.261504 0 0.1 0.264291 0 0 0.264291 0
0.1 0.267107 0 0 0.267107 0 0.1 0.269953 0 0
0.269953 0 0.1 0.272828 0 0 0.272828 0 0.1 0.275733
0 0 0.275733 0 0.1 0.278669 0 0 0.278669 0
0.1 0.281635 0 0 0.281635 0 0.1 0.284632 0 0
0.284632 0 0.1 0.287661 0 0 0.287661 0 0.1 0.290721
0 0 0.290721 0 0.1 0.293813 0 0 0.293813 0
0.1 0.296937 0 0 0.296937 0 0.1 0.300093 0 0
0.300093 0 0.1 0.303283 0 0 0.303283 0 0.1 0.306506
0 0 0.306506 0 0.1 0.309763 0 0 0.309763 0
0.1 0.313053 0 0 0.313053 0 0.1 0.316378 0 0
0.316378 0 0.1 0.319737 0 0 0.319737 0 0.1 0.323132
0 0 0.323132 0 0.1 0.326562 0 0 0.326562 0
0.1 0.330027 0 0 0.330027 0 0.1 0.333529 0 0
0.333529 0 0.1 0.337068 0 0 0.337068 0 0.1 0.340643
0 0 0.340643 0 0.1 0.344255 0 0 0.344255 0
0.1 0.347906 0 0 0.347906 0 0.1 0.351594 0 0
0.351594 0 0.1 0.355321 0 0 0.355321 0 0.1 0.359086
0 0 0.359086 0 0.1 0.362891 0 0 0.362891 0
0.1 0.366736 0 0 0.366736 0 0.1 0.37062 0 0
0.37062 0 0.1 0.374546 0 0 0.374546 0 0.1 0.378512
0 0 0.378512 0 0.1 0.382519 0 0 0.382519 0
0.1 0.386568 0 0 0.386568 0 0.1 0.39066 0 0
0.39066 0 0.1 0.394794 0 0 0.394794 0 0.1 0.398971
0 0 0.398971 0 0.1 0.403192 0 0 0.403192 0
0.1 0.407457 0 0 0.407457 0 0.1 0.411766 0 0
0.411766 0 0.1 0.416121 0 0 0.416121 0 0.1 0.42052
0 0 0.42052 0 0.1 0.424966 0 0 0.424966 0
0.1 0.429458 0 0 0.429458 0 0.1 0.433997 0 0
0.433997 0 0.1 0.438583 0 0 0.438583 0 0.1 0.443217
0 0 0.443217 0 0.1 0.447899 0 0 0.447899 0
0.1 0.45263 0 0 0.45263 0 0.1 0.457411 0 0
0.457411 0 0.1 0.462241 0 0 0.462241 0 0.1 0.467122
0 0 0.467122 0 0.1 0.472053 0 0 0.472053 0
0.1 0.477036 0 0 0.477036 0 0.1 0.482071 0 0
0.482071 0 0.1 0.487159 0 0 0.487159 0 0.1 0.492299
0 0 0.492299 0 0.1 0.497493 0 0 0.497493 0
0.1 0.502742 0 0 0.502742 0 0.1 0.508045 0 0
0.508045 0 0.1 0.513403 0 0 0.513403 0 0.1 0.518817
0 0 0.518817 0 0.1 0.524288 0 0 0.524288 0
0.1 0.529816 0 0 0.529816 0 0.1 0.535401 0 0
0.535401 0 0.1 0.541045 0 0 0.541045 0 0.1 0.546748
0 0 0.546748 0 0.1 0.55251 0 0 0.55251 0
0.1 0.558332 0 0 0.558332 0 0.1 0.564215 0 0
0.564215 0 0.1 0.570159 0 0 0.570159 0 0.1 0.576165
0 0 0.576165 0 0.1 0.582234 0 0 0.582234 0
0.1 0.588366 0 0 0.588366 0 0.1 0.594562 0 0
0.594562 0 0.1 0.600822 0 0 0.600822 0 0.1 0.607148
0 0 0.607148 0 0.1 0.61354 0 0 0.61354 0
0.1 0.619999 0 0 0.619999 0 0.1 0.626525 0 0
0.626525 0 0.1 0.633119 0 0 0.633119 0 0.1 0.639782
0 0 0.639782 0 0.1 0.646514 0 0 0.646514 0
0.1 0.653316 0 0 0.653316 0 0.1 0.66019 0 0
0.66019 0 0.1 0.667135 0 0 0.667135 0 0.1 0.674152
0 0 0.674152 0 0.1 0.681243 0 0 0.681243 0
0.1 0.688408 0 0 0.688408 0 0.1 0.695647 0 0
0.695647 0 0.1 0.702962 0 0 0.702962 0 0.1 0.710353
0 0 0.710353 0 0.1 0.717821 0 0 0.717821 0
0.1 0.725367 0 0 0.725367 0 0.1 0.732992 0 0
0.732992 0 0.1 0.740697 0 0 0.740697 0 0.1 0.748481
0 0 0.748481 0 0.1 0.756347 0 0 0.756347 0
0.1 0.764295 0 0 0.764295 0 0.1 0.772326 0 0
0.772326 0 0.1 0.78044 0 0 0.78044 0 0.1 0.78864
0 0 0.78864 0 0.1 0.796924 0 0 0.796924 0
0.1 0.805295 0 0 0.805295 0 0.1 0.813754 0 0
0.813754 0 0.1 0.8223 0 0 0.8223 0 0.1 0.830936
0 0 0.830936 0 0.1 0.839662 0 0 0.839662 0
0.1 0.848479 0 0 0.848479 0 0.1 0.857387 0 0
0.857387 0 0.1 0.866389 0 0 0.866389 0 0.1 0.875485
0 0 0.875485 0 0.1 0.884675 0 0 0.884675 0
0.1 0.893961 0 0 0.893961 0 0.1 0.903344 0 0
0.903344 0 0.1 0.912825 0 0 0.912825 0 0.1 0.922405
0 0 0.922405 0 0.1 0.932085 0 0 0.932085 0
0.1 0.941865 0 0 0.941865 0 0.1 0.951748 0 0
0.951748 0 0.1 0.961734 0 0 0.961734 0 0.1 0.971824
0 0 0.971824 0 0.1 0.982019 0 0 0.982019 0
0.1 0.99232 0 0 0.99232 0 0.1 1.00273 0 0
1.00273 0 0.1 1.01325 0 0 1.01325 0 0.1 1.02387
0 0 1.02387 0 0.1 1.03461 0 0 1.03461 0
0.1 1.04546 0 0 1.04546 0 0.1 1.05642 0 0
1.05642 0 0.1 1.0675 0 0 1.0675 0 0.1 1.07869
0 0 1.07869 0 0.1 1.09 0 0 1.09 0
0.1 1.10143 0 0 1.10143 0 0.1 1.11298 0 0
1.11298 0 0.1 1.12465 0 0 1.12465 0 0.1 1.13644
0 0 1.13644 0 0.1 1.14835 0 0 1.14835 0
0.1 1.16038 0 0 1.16038 0 0.1 1.17254 0 0
1.17254 0 0.1 1.18483 0 0 1.18483 0 0.1 1.19725
0 0 1.19725 0 0.1 1.2098 0 0 1.2098 0
0.1 1.22247 0 0 1.22247 0 0.1 1.23528 0 0
1.23528 0 0.1 1.24822 0 0 1.24822 0 0.1 1.2613
0 0 1.2613 0 0.1 1.27452 0 0 1.27452 0
0.1 1.28787 0 0 1.28787 0 0.1 1.30136 0 0
1.30136 0 0.1 1.31499 0 0 1.31499 0 0.1 1.32877
0 0 1.32877 0 0.1 1.34268 0 0 1.34268 0
0.1 1.35675 0 0 1.35675 0 0.1 1.37095 0 0
1.37095 0 0.1 1.38531 0 0 1.38531 0 0.1 1.39982
0 0 1.39982 0 0.1 1.41448 0 0 1.41448 0
0.1 1.42929 0 0 1.42929 0 0.1 1.44426 0 0
1.44426 0 0.1 1.45938 0 0 1.45938 0 0.1 1.47466
0 0 1.47466 0 0.1 1.4901 0 0 1.4901 0
0.1 1.5057 0 0 1.5057 0 0.1 1.52146 0 0
1.52146 0 0.1 1.53739 0 0 1.53739 0 0.1 1.55348
0 0 1.55348 0 0.1 1.56974 0 0 1.56974 0
0.1 1.58617 0 0 1.58617 0 0.1 1.60278 0 0
1.60278 0 0.1 1.61955 0 0 1.61955 0 0.1 1.6365
0 0 1.6365 0 0.1 1.65363 0 0 1.65363 0
0.1 1.67093 0 0 1.67093 0 0.1 1.68842 0 0
1.68842 0 0.1 1.70609 0 0 1.70609 0 0.1 1.72394
0 0 1.72394 0 0.1 1.74198 0 0 1.74198 0
0.1 1.76021 0 0 1.76021 0 0.1 1.77862 0 0
1.77862 0 0.1 1.79723 0 0 1.79723 0 0.1 1.81604
0 0 1.81604 0 0.1 1.83504 0 0 1.83504 0
0.1 1.85423 0 0 1.85423 0 0.1 1.87363 0 0
1.87363 0 0.1 1.89323 0 0 1.89323 0 0.1 1.91304
0 0 1.91304 0 0.1 1.93305 0 0 1.93305 0
0.1 1.95327 0 0 1.95327 0 0.1 1.9737 0 0
1.9737 0 0.1 1.99434 0 0 1.99434 0 0.1 2.0152
0 0 2.0152 0 0.1 2.03628 0 0 2.03628 0
0.1 2.05757 0 0 2.05757 0 0.1 2.07909 0 0
2.07909 0 0.1 2.10083 0 0 2.10083 0 0.1 2.1228
0 0 2.1228 0 0.1 2.145 0 0 2.145 0
0.1 2.16743 0 0 2.16743 0 0.1 2.1901 0 0
2.1901 0 0.1 2.213 0 0 2.213 0 0.1 2.23614
0 0 2.23614 0 0.1 2.25952 0 0 2.25952 0
0.1 2.28314 0 0 2.28314 0 0.1 2.30701 0 0
2.30701 0 0.1 2.33113 0 0 2.33113 0 0.1 2.3555
0 0 2.3555 0 0.1 2.38013 0 0 2.38013 0
0.1 2.40501 0 0 2.40501 0 0.1 2.43015 0 0
2.43015 0 0.1 2.45556 0 0 2.45556 0 0.1 2.48122
0 0 2.48122 0 0.1 2.50716 0 0 2.50716 0
0.1 2.53337 0 0 2.53337 0 0.1 2.55985 0 0
2.55985 0 0.1 2.58661 0 0 2.58661 0 0.1 2.61364
0 0 2.61364 0 0.1 2.64096 0 0 2.64096 0
0.1 2.66856 0 0 2.66856 0 0.1 2.69645 0 0
2.69645 0 0.1 2.72463 0 0 2.72463 0 0.1 2.75311
0 0 2.75311 0 0.1 2.78188 0 0 2.78188 0
0.1 2.81095 0 0 2.81095 0 0.1 2.84033 0 0
2.84033 0 0.1 2.87001 0 0 2.87001 0 0.1 2.9
0 0 2.9 0 0.1 
POLYGONS 600 3000
4 0 1 2 3 4 1 4 5 2 4
4 6 7 5 4 6 8 9 7 4
8 10 11 9 4 10 12 13 11 4
12 14 15 13 4 14 16 17 15 4
16 18 19 17 4 18 20 21 19 4
20 22 23 21 4 22 24 25 23 4
24 26 27 25 4 26 28 29 27 4
28 30 31 29 4 30 32 33 31 4
32 34 35 33 4 34 36 37 35 4
36 38 39 37 4 38 40 41 39 4
40 42 43 41 4 42 44 45 43 4
44 46 47 45 4 46 48 49 47 4
48 50 51 49 4 50 52 53 51 4
52 54 55 53 4 54 56 57 55 4
56 58 59 57 4 58 60 61 59 4
60 62 63 61 4 62 64 65 63 4
64 66 67 65 4 66 68 69 67 4
68 70 71 69 4 70 72 73 71 4
72 74 75 73 4 74 76 77 75 4
76 78 79 77 4 78 80 81 79 4
80 82 83 81 4 82 84 85 83 4
84 86 87 85 4 86 88 89 87 4
88 90 91 89 4 90 92 93 91 4
92 94 95 93 4 94 96 97 95 4
96 98 99 97 4 98 100 101 99 4
100 102 103 101 4 102 104 105 103 4
104 106 107 105 4 106 108 109 107 4
108 110 111 109 4 110 112 113 111 4
112 114 115 113 4 114 116 117 115 4
116 118 119 117 4 118 120 121 119 4
120 122 123 121 4 122 124 125 123 4
124 126 127 125 4 126 128 129 127 4
128 130 131 129 4 130 132 133 131 4
132 134 135 133 4 134 136 137 135 4
136 138 139 137 4 138 140 141 139 4
140 142 143 141 4 142 144 145 143 4
144 146 147 145 4 146 148 149 147 4
148 150 151 149 4 150 152 153 151 4
152 154 155 153 4 154 156 157 155 4
156 158 159 157 4 158 160 161 159 4
160 162 163 161 4 162 164 165 163 4
164 166 167 165 4 166 168 169 167 4
168 170 171 169 4 170 172 173 171 4
172 174 175 173 4 174 176 177 175 4
176 178 179 177 4 178 180 181 179 4
180 182 183 181 4 182 184 185 183 4
184 186 187 185 4 186 188 189 187 4
188 190 191 189 4 190 192 193 191 4
192 194 195 193 4 194 196 197 195 4
196 198 199 197 4 198 200 201 199 4
200 202 203 201 4 202 204 205 203 4
204 206 207 205 4 206 208 209 207 4
208 210 211 209 4 210 212 213 211 4
212 214 215 213 4 214 216 217 215 4
216 218 219 217 4 218 220 221 219 4
220 222 223 221 4 222 224 225 223 4
224 226 227 225 4 226 228 229 227 4
228 230 231 229 4 230 232 233 231 4
232 234 235 233 4 234 236 237 235 4
236 238 239 237 4 238 240 241 239 4
240 242 243 241 4 242 244 245 243 4
244 246 247 245 4 246 248 249 247 4
248 250 251 249 4 250 252 253 251 4
252 254 255 253 4 254 256 257 255 4
256 258 259 257 4 258 260 261 259 4
260 262 263 261 4 262 264 265 263 4
264 266 267 265 4 266 268 269 267 4
268 270 271 269 4 270 272 273 271 4
272 274 275 273 4 274 276 277 275 4
276 278 279 277 4 278 280 281 279 4
280 282 283 281 4 282 284 285 283 4
284 286 287 285 4 286 288 289 287 4
288 290 291 289 4 290 292 293 291 4
292 294 295 293 4 294 296 297 295 4
296 298 299 297 4 298 300 301 299 4
300 302 303 301 4 302 304 305 303 4
304 306 307 305 4 306 308 309 307 4
308 310 311 309 4 310 312 313 311 4
312 314 315 313 4 314 316 317 315 4
316 318 319 317 4 318 320 321 319 4
320 322 323 321 4 322 324 325 323 4
324 326 327 325 4 326 328 329 327 4
328 330 331 329 4 330 332 333 331 4
332 334 335 333 4 334 336 337 335 4
336 338 339 337 4 338 340 341 339 4
340 342 343 341 4 342 344 345 343 4
344 346 347 345 4 346 348 349 347 4
348 350 351 349 4 350 352 353 351 4
352 354 355 353 4 354 356 357 355 4
356 358 359 357 4 358 360 361 359 4
360 362 363 361 4 362 364 365 363 4
364 366 367 365 4 366 368 369 367 4
368 370 371 369 4 370 372 373 371 4
372 374 375 373 4 374 376 377 375 4
376 378 379 377 4 378 380 381 379 4
380 382 383 381 4 382 384 385 383 4
384 386 387 385 4 386 388 389 387 4
388 390 391 389 4 390 392 393 391 4
392 394 395 393 4 394 396 397 395 4
396 398 399 397 4 398 400 401 399 4
400 402 403 401 4 402 404 405 403 4
404 406 407 405 4 406 408 409 407 4
408 410 411 409 4 410 412 413 411 4
412 414 415 413 4 414 416 417 415 4
416 418 419 417 4 418 420 421 419 4
420 422 423 421 4 422 424 425 423 4
424 426 427 425 4 426 428 429 427 4
428 430 431 429 4 430 432 433 431 4
432 434 435 433 4 434 436 437 435 4
436 438 439 437 4 438 440 441 439 4
440 442 443 441 4 442 444 445 443 4
444 446 447 445 4 446 448 449 447 4
448 450 451 449 4 450 452 453 451 4
452 454 455 453 4 454 456 457 455 4
456 458 459 457 4 458 460 461 459 4
460 462 463 461 4 462 464 465 463 4
464 466 467 465 4 466 468 469 467 4
468 470 471 469 4 470 472 473 471 4
472 474 475 473 4 474 476 477 475 4
476 478 479 477 4 478 480 481 479 4
480 482 483 481 4 482 484 485 483 4
484 486 487 485 4 486 488 489 487 4
488 490 491 489 4 490 492 493 491 4
492 494 495 493 4 494 496 497 495 4
496 498 499 497 4 498 500 501 499 4
500 502 503 501 4 502 504 505 503 4
504 506 507 505 4 506 508 509 507 4
508 510 511 509 4 510 512 513 511 4
512 514 515 513 4 514 516 517 515 4
516 518 519 517 4 518 520 521 519 4
520 522 523 521 4 522 524 525 523 4
524 526 527 525 4 526 528 529 527 4
528 530 531 529 4 530 532 533 531 4
532 534 535 533 4 534 536 537 535 4
536 538 539 537 4 538 540 541 539 4
540 542 543 541 4 542 544 545 543 4
544 546 547 545 4 546 548 549 547 4
548 550 551 549 4 550 552 553 551 4
552 554 555 553 4 554 556 557 555 4
556 558 559 557 4 558 560 561 559 4
560 562 563 561 4 562 564 565 563 4
564 566 567 565 4 566 568 569 567 4
568 570 571 569 4 570 572 573 571 4
572 574 575 573 4 574 576 577 575 4
576 578 579 577 4 578 580 581 579 4
580 582 583 581 4 582 584 585 583 4
584 586 587 585 4 586 588 589 587 4
588 590 591 589 4 590 592 593 591 4
592 594 595 593 4 594 596 597 595 4
596 598 599 597 4 598 600 601 599 4
600 602 603 601 4 602 604 605 603 4
604 606 607 605 4 606 608 609 607 4
608 610 611 609 4 610 612 613 611 4
612 614 615 613 4 614 616 617 615 4
616 618 619 617 4 618 620 621 619 4
620 622 623 621 4 622 624 625 623 4
624 626 627 625 4 626 628 629 627 4
628 630 631 629 4 630 632 633 631 4
632 634 635 633 4 634 636 637 635 4
636 638 639 637 4 638 640 641 639 4
640 642 643 641 4 642 644 645 643 4
644 646 647 645 4 646 648 649 647 4
648 650 651 649 4 650 652 653 651 4
652 654 655 653 4 654 656 657 655 4
656 658 659 657 4 658 660 661 659 4
660 662 663 661 4 662 664 665 663 4
664 666 667 665 4 666 668 669 667 4
668 670 671 669 4 670 672 673 671 4
672 674 675 673 4 674 676 677 675 4
676 678 679 677 4 678 680 681 679 4
680 682 683 681 4 682 684 685 683 4
684 686 687 685 4 686 688 689 687 4
688 690 691 689 4 690 692 693 691 4
692 694 695 693 4 694 696 697 695 4
696 698 699 697 4 698 700 701 699 4
700 702 703 701 4 702 704 705 703 4
704 706 707 705 4 706 708 709 707 4
708 710 711 709 4 710 712 713 711 4
712 714 715 713 4 714 716 717 715 4
716 718 719 717 4 718 720 721 719 4
720 722 723 721 4 722 724 725 723 4
724 726 727 725 4 726 728 729 727 4
728 730 731 729 4 730 732 733 731 4
732 734 735 733 4 734 736 737 735 4
736 738 739 737 4 738 740 741 739 4
740 742 743 741 4 742 744 745 743 4
744 746 747 745 4 746 748 749 747 4
748 750 751 749 4 750 752 753 751 4
752 754 755 753 4 754 756 757 755 4
756 758 759 757 4 758 760 761 759 4
760 762 763 761 4 762 764 765 763 4
764 766 767 765 4 766 768 769 767 4
768 770 771 769 4 770 772 773 771 4
772 774 775 773 4 774 776 777 775 4
776 778 779 777 4 778 780 781 779 4
780 782 783 781 4 782 784 785 783 4
784 786 787 785 4 786 788 789 787 4
788 790 791 789 4 790 792 793 791 4
792 794 795 793 4 794 796 797 795 4
796 798 799 797 4 798 800 801 799 4
800 802 803 801 4 802 804 805 803 4
804 806 807 805 4 806 808 809 807 4
808 810 811 809 4 810 812 813 811 4
812 814 815 813 4 814 816 817 815 4
816 818 819 817 4 818 820 821 819 4
820 822 823 821 4 822 824 825 823 4
824 826 827 825 4 826 828 829 827 4
828 830 831 829 4 830 832 833 831 4
832 834 835 833 4 834 836 837 835 4
836 838 839 837 4 838 840 841 839 4
840 842 843 841 4 842 844 845 843 4
844 846 847 845 4 846 848 849 847 4
848 850 851 849 4 850 852 853 851 4
852 854 855 853 4 854 856 857 855 4
856 858 859 857 4 858 860 861 859 4
860 862 863 861 4 862 864 865 863 4
864 866 867 865 4 866 868 869 867 4
868 870 871 869 4 870 872 873 871 4
872 874 875 873 4 874 876 877 875 4
876 878 879 877 4 878 880 881 879 4
880 882 883 881 4 882 884 885 883 4
884 886 887 885 4 886 888 889 887 4
888 890 891 889 4 890 892 893 891 4
892 894 895 893 4 894 896 897 895 4
896 898 899 897 4 898 900 901 899 4
900 902 903 901 4 902 904 905 903 4
904 906 907 905 4 906 908 909 907 4
908 910 911 909 4 910 912 913 911 4
912 914 915 913 4 914 916 917 915 4
916 918 919 917 4 918 920 921 919 4
920 922 923 921 4 922 924 925 923 4
924 926 927 925 4 926 928 929 927 4
928 930 931 929 4 930 932 933 931 4
932 934 935 933 4 934 936 937 935 4
936 938 939 937 4 938 940 941 939 4
940 942 943 941 4 942 944 945 943 4
944 946 947 945 4 946 948 949 947 4
948 950 951 949 4 950 952 953 951 4
952 954 955 953 4 954 956 957 955 4
956 958 959 957 4 958 960 961 959 4
960 962 963 961 4 962 964 965 963 4
964 966 967 965 4 966 968 969 967 4
968 970 971 969 4 970 972 973 971 4
972 974 975 973 4 974 976 977 975 4
976 978 979 977 4 978 980 981 979 4
980 982 983 981 4 982 984 985 983 4
984 986 987 985 4 986 988 989 987 4
988 990 991 989 4 990 992 993 991 4
992 994 995 993 4 994 996 997 995 4
996 998 999 997 4 998 1000 1001 999 4
1000 1002 1003 1001 4 1002 1004 1005 1003 4
1004 1006 1007 1005 4 1006 1008 1009 1007 4
1008 1010 1011 1009 4 1010 1012 1013 1011 4
1012 1014 1015 1013 4 1014 1016 1017 1015 4
1016 1018 1019 1017 4 1018 1020 1021 1019 4
1020 1022 1023 1021 4 1022 1024 1025 1023 4
1024 1026 1027 1025 4 1026 1028 1029 1027 4
1028 1030 1031 1029 4 1030 1032 1033 1031 4
1032 1034 1035 1033 4 1034 1036 1037 1035 4
1036 1038 1039 1037 4 1038 1040 1041 1039 4
1040 1042 1043 1041 4 1042 1044 1045 1043 4
1044 1046 1047 1045 4 1046 1048 1049 1047 4
1048 1050 1051 1049 4 1050 1052 1053 1051 4
1052 1054 1055 1053 4 1054 1056 1057 1055 4
1056 1058 1059 1057 4 1058 1060 1061 1059 4
1060 1062 1063 1061 4 1062 1064 1065 1063 4
1064 1066 1067 1065 4 1066 1068 1069 1067 4
1068 1070 1071 1069 4 1070 1072 1073 1071 4
1072 1074 1075 1073 4 1074 1076 1077 1075 4
1076 1078 1079 1077 4 1078 1080 1081 1079 4
1080 1082 1083 1081 4 1082 1084 1085 1083 4
1084 1086 1087 1085 4 1086 1088 1089 1087 4
1088 1090 1091 1089 4 1090 1092 1093 1091 4
1092 1094 1095 1093 4 1094 1096 1097 1095 4
1096 1098 1099 1097 4 1098 1100 1101 1099 4
1100 1102 1103 1101 4 1102 1104 1105 1103 4
1104 1106 1107 1105 4 1106 1108 1109 1107 4
1108 1110 1111 1109 4 1110 1112 1113 1111 4
1112 1114 1115 1113 4 1114 1116 1117 1115 4
1116 1118 1119 1117 4 1118 1120 1121 1119 4
1120 1122 1123 1121 4 1122 1124 1125 1123 4
1124 1126 1127 1125 4 1126 1128 1129 1127 4
1128 1130 1131 1129 4 1130 1132 1133 1131 4
1132 1134 1135 1133 4 1134 1136 1137 1135 4
1136 1138 1139 1137 4 1138 1140 1141 1139 4
1140 1142 1143 1141 4 1142 1144 1145 1143 4
1144 1146 1147 1145 4 1146 1148 1149 1147 4
1148 1150 1151 1149 4 1150 1152 1153 1151 4
1152 1154 1155 1153 4 1154 1156 1157 1155 4
1156 1158 1159 1157 4 1158 1160 1161 1159 4
1160 1162 1163 1161 4 1162 1164 1165 1163 4
1164 1166 1167 1165 4 1166 1168 1169 1167 4
1168 1170 1171 1169 4 1170 1172 1173 1171 4
1172 1174 1175 1173 4 1174 1176 1177 1175 4
1176 1178 1179 1177 4 1178 1180 1181 1179 4
1180 1182 1183 1181 4 1182 1184 1185 1183 4
1184 1186 1187 1185 4 1186 1188 1189 1187 4
1188 1190 1191 1189 4 1190 1192 1193 1191 4
1192 1194 1195 1193 4 1194 1196 1197 1195 4
1196 1198 1199 1197 4 1198 1200 1201 1199 
POINT_DATA 1202
FIELD attributes 1
U 3 1202 float
1.54806 0.0341907 0 0.871003 0.0236723 0 0.871003 0.0236723 0 1.54806 0.0341907
0 0.166655 0.00858046 0 0.166655 0.00858046 0 0.122626 0.00259151 0
0.122626 0.00259151 0 0.0966024 0.000773932 0 0.0966024 0.000773932 0 0.0820385
0.000278555 0 0.0820385 0.000278555 0 0.0732657 0.000174377 0 0.0732657 0.000174377
0 0.0671205 0.000157502 0 0.0671205 0.000157502 0 0.0623427 0.000141439 0
0.0623427 0.000141439 0 0.0584585 0.000120684 0 0.0584585 0.000120684 0 0.0552335
0.000100809 0 0.0552335 0.000100809 0 0.0525021 8.57025e-05 0 0.0525021 8.57025e-05
0 0.0501391 7.54345e-05 0 0.0501391 7.54345e-05 0 0.0480553 6.75508e-05 0
0.0480553 6.75508e-05 0 0.0461928 6.09999e-05 0 0.0461928 6.09999e-05 0 0.0445123
5.53916e-05 0 0.0445123 5.53916e-05 0 0.0429849 5.0508e-05 0 0.0429849 5.0508e-05
0 0.0415887 4.6209e-05 0 0.0415887 4.6209e-05 0 0.0403062 4.24005e-05 0
0.0403062 4.24005e-05 0 0.0391231 3.90129e-05 0 0.0391231 3.90129e-05 0 0.0380278
3.59907e-05 0 0.0380278 3.59907e-05 0 0.0370101 3.32874e-05 0 0.0370101 3.32874e-05
0 0.0360616 3.08635e-05 0 0.0360616 3.08635e-05 0 0.035175 2.86852e-05 0
0.035175 2.86852e-05 0 0.0343439 2.6723e-05 0 0.0343439 2.6723e-05 0 0.0335628
2.49513e-05 0 0.0335628 2.49513e-05 0 0.0328268 2.33478e-05 0 0.0328268 2.33478e-05
0 0.0321318 2.18929e-05 0 0.0321318 2.18929e-05 0 0.0314741 2.05696e-05 0
0.0314741 2.05696e-05 0 0.0308503 1.9363e-05 0 0.0308503 1.9363e-05 0 0.0302575
1.82601e-05 0 0.0302575 1.82601e-05 0 0.0296931 1.72497e-05 0 0.0296931 1.72497e-05
0 0.0291549 1.63218e-05 0 0.0291549 1.63218e-05 0 0.0286408 1.54686e-05 0
0.0286408 1.54686e-05 0 0.0281489 1.46809e-05 0 0.0281489 1.46809e-05 0 0.0276776
1.39573e-05 0 0.0276776 1.39573e-05 0 0.0272253 1.32848e-05 0 0.0272253 1.32848e-05
0 0.0267905 1.26745e-05 0 0.0267905 1.26745e-05 0 0.0263718 1.20925e-05 0
0.0263718 1.20925e-05 0 0.0259692 1.14166e-05 0 0.0259692 1.14166e-05 0 0.0255822
1.07638e-05 0 0.0255822 1.07638e-05 0 0.0252082 1.033e-05 0 0.0252082 1.033e-05
0 0.0248447 1.00225e-05 0 0.0248447 1.00225e-05 0 0.0244904 9.71447e-06 0
0.0244904 9.71447e-06 0 0.0241455 9.39343e-06 0 0.0241455 9.39343e-06 0 0.0238099
9.06477e-06 0 0.0238099 9.06477e-06 0 0.0234837 8.73487e-06 0 0.0234837 8.73487e-06
0 0.0231668 8.40929e-06 0 0.0231668 8.40929e-06 0 0.0228591 8.09188e-06 0
0.0228591 8.09188e-06 0 0.0225601 7.78494e-06 0 0.0225601 7.78494e-06 0 0.0222697
7.48979e-06 0 0.0222697 7.48979e-06 0 0.0219876 7.20704e-06 0 0.0219876 7.20704e-06
0 0.0217134 6.93682e-06 0 0.0217134 6.93682e-06 0 0.0214467 6.67903e-06 0
0.0214467 6.67903e-06 0 0.0211874 6.43335e-06 0 0.0211874 6.43335e-06 0 0.020935
6.19932e-06 0 0.020935 6.19932e-06 0 0.0206893 5.97646e-06 0 0.0206893 5.97646e-06
0 0.02045 5.76425e-06 0 0.02045 5.76425e-06 0 0.0202168 5.56212e-06 0
0.0202168 5.56212e-06 0 0.0199895 5.36954e-06 0 0.0199895 5.36954e-06 0 0.0197677
5.18598e-06 0 0.0197677 5.18598e-06 0 0.0195514 5.01091e-06 0 0.0195514 5.01091e-06
0 0.0193402 4.84388e-06 0 0.0193402 4.84388e-06 0 0.0191339 4.68436e-06 0
0.0191339 4.68436e-06 0 0.0189324 4.53197e-06 0 0.0189324 4.53197e-06 0 0.0187355
4.38623e-06 0 0.0187355 4.38623e-06 0 0.018543 4.24686e-06 0 0.018543 4.24686e-06
0 0.0183546 4.11332e-06 0 0.0183546 4.11332e-06 0 0.0181704 3.98552e-06 0
0.0181704 3.98552e-06 0 0.0179901 3.86284e-06 0 0.0179901 3.86284e-06 0 0.0178135
3.74535e-06 0 0.0178135 3.74535e-06 0 0.0176406 3.63237e-06 0 0.0176406 3.63237e-06
0 0.0174713 3.52414e-06 0 0.0174713 3.52414e-06 0 0.0173053 3.42006e-06 0
0.0173053 3.42006e-06 0 0.0171426 3.31994e-06 0 0.0171426 3.31994e-06 0 0.0169831
3.22551e-06 0 0.0169831 3.22551e-06 0 0.0168267 3.1308e-06 0 0.0168267 3.1308e-06
0 0.016673 3.05318e-06 0 0.016673 3.05318e-06 0 0.0165222 2.95636e-06 0
0.0165222 2.95636e-06 0 0.016375 2.82267e-06 0 0.016375 2.82267e-06 0 0.0162306
2.744e-06 0 0.0162306 2.744e-06 0 0.0160878 2.71335e-06 0 0.0160878 2.71335e-06
0 0.0159462 2.67236e-06 0 0.0159462 2.67236e-06 0 0.015806 2.62135e-06 0
0.015806 2.62135e-06 0 0.0156677 2.5627e-06 0 0.0156677 2.5627e-06 0 0.0155314
2.49949e-06 0 0.0155314 2.49949e-06 0 0.0153974 2.43407e-06 0 0.0153974 2.43407e-06
0 0.0152657 2.36796e-06 0 0.0152657 2.36796e-06 0 0.0151363 2.30213e-06 0
0.0151363 2.30213e-06 0 0.0150092 2.2372e-06 0 0.0150092 2.2372e-06 0 0.0148845
2.17355e-06 0 0.0148845 2.17355e-06 0 0.0147621 2.11142e-06 0 0.0147621 2.11142e-06
0 0.014642 2.05097e-06 0 0.014642 2.05097e-06 0 0.014524 1.99225e-06 0
0.014524 1.99225e-06 0 0.0144083 1.93532e-06 0 0.0144083 1.93532e-06 0 0.0142946
1.88018e-06 0 0.0142946 1.88018e-06 0 0.0141831 1.82683e-06 0 0.0141831 1.82683e-06
0 0.0140735 1.77524e-06 0 0.0140735 1.77524e-06 0 0.013966 1.7254e-06 0
0.013966 1.7254e-06 0 0.0138603 1.67724e-06 0 0.0138603 1.67724e-06 0 0.0137565
1.63074e-06 0 0.0137565 1.63074e-06 0 0.0136544 1.58586e-06 0 0.0136544 1.58586e-06
0 0.0135542 1.54256e-06 0 0.0135542 1.54256e-06 0 0.0134556 1.50078e-06 0
0.0134556 1.50078e-06 0 0.0133586 1.4605e-06 0 0.0133586 1.4605e-06 0 0.0132633
1.42165e-06 0 0.0132633 1.42165e-06 0 0.0131695 1.38421e-06 0 0.0131695 1.38421e-06
0 0.0130771 1.34811e-06 0 0.0130771 1.34811e-06 0 0.0129862 1.31337e-06 0
0.0129862 1.31337e-06 0 0.0128967 1.27984e-06 0 0.0128967 1.27984e-06 0 0.0128085
1.24763e-06 0 0.0128085 1.24763e-06 0 0.0127217 1.21653e-06 0 0.0127217 1.21653e-06
0 0.012636 1.1867e-06 0 0.012636 1.1867e-06 0 0.0125516 1.15793e-06 0
0.0125516 1.15793e-06 0 0.0124684 1.13029e-06 0 0.0124684 1.13029e-06 0 0.0123862
1.10411e-06 0 0.0123862 1.10411e-06 0 0.0123051 1.07794e-06 0 0.0123051 1.07794e-06
0 0.0122249 1.05704e-06 0 0.0122249 1.05704e-06 0 0.0121457 1.03079e-06 0
0.0121457 1.03079e-06 0 0.0120679 9.93779e-07 0 0.0120679 9.93779e-07 0 0.0119911
9.72735e-07 0 0.0119911 9.72735e-07 0 0.0119144 9.68336e-07 0 0.0119144 9.68336e-07
0 0.0118376 9.62113e-07 0 0.0118376 9.62113e-07 0 0.011761 9.51033e-07 0
0.011761 9.51033e-07 0 0.0116848 9.36387e-07 0 0.0116848 9.36387e-07 0 0.0116092
9.1958e-07 0 0.0116092 9.1958e-07 0 0.0115343 9.01643e-07 0 0.0115343 9.01643e-07
0 0.0114601 8.83202e-07 0 0.0114601 8.83202e-07 0 0.0113867 8.64637e-07 0
0.0113867 8.64637e-07 0 0.0113142 8.46169e-07 0 0.0113142 8.46169e-07 0 0.0112424
8.27933e-07 0 0.0112424 8.27933e-07 0 0.0111715 8.10003e-07 0 0.0111715 8.10003e-07
0 0.0111014 7.92422e-07 0 0.0111014 7.92422e-07 0 0.011032 7.75206e-07 0
0.011032 7.75206e-07 0 0.0109635 7.58362e-07 0 0.0109635 7.58362e-07 0 0.0108958
7.41884e-07 0 0.0108958 7.41884e-07 0 0.0108289 7.25766e-07 0 0.0108289 7.25766e-07
0 0.0107627 7.09997e-07 0 0.0107627 7.09997e-07 0 0.0106973 6.94566e-07 0
0.0106973 6.94566e-07 0 0.0106327 6.79461e-07 0 0.0106327 6.79461e-07 0 0.0105688
6.64672e-07 0 0.0105688 6.64672e-07 0 0.0105056 6.50189e-07 0 0.0105056 6.50189e-07
0 0.0104432 6.36009e-07 0 0.0104432 6.36009e-07 0 0.0103815 6.22119e-07 0
0.0103815 6.22119e-07 0 0.0103205 6.08525e-07 0 0.0103205 6.08525e-07 0 0.0102602
5.95212e-07 0 0.0102602 5.95212e-07 0 0.0102006 5.82199e-07 0 0.0102006 5.82199e-07
0 0.0101417 5.69461e-07 0 0.0101417 5.69461e-07 0 0.0100835 5.57036e-07 0
0.0100835 5.57036e-07 0 0.010026 5.44882e-07 0 0.010026 5.44882e-07 0 0.00996905
5.3306e-07 0 0.00996905 5.3306e-07 0 0.00991277 5.21522e-07 0 0.00991277 5.21522e-07
0 0.00985712 5.10317e-07 0 0.00985712 5.10317e-07 0 0.00980205 4.99536e-07 0
0.00980205 4.99536e-07 0 0.00974761 4.88817e-07 0 0.00974761 4.88817e-07 0 0.00969365
4.79846e-07 0 0.00969365 4.79846e-07 0 0.00964023 4.68942e-07 0 0.00964023 4.68942e-07
0 0.00958763 4.53971e-07 0 0.00958763 4.53971e-07 0 0.00953554 4.45275e-07 0
0.00953554 4.45275e-07 0 0.00948337 4.44623e-07 0 0.00948337 4.44623e-07 0 0.00943089
4.43497e-07 0 0.00943089 4.43497e-07 0 0.00937834 4.39318e-07 0 0.00937834 4.39318e-07
0 0.00932596 4.33192e-07 0 0.00932596 4.33192e-07 0 0.00927388 4.25937e-07 0
0.00927388 4.25937e-07 0 0.00922219 4.18164e-07 0 0.00922219 4.18164e-07 0 0.00917094
4.10199e-07 0 0.00917094 4.10199e-07 0 0.00912014 4.02238e-07 0 0.00912014 4.02238e-07
0 0.00906981 3.94391e-07 0 0.00906981 3.94391e-07 0 0.00901994 3.8671e-07 0
0.00901994 3.8671e-07 0 0.00897053 3.79226e-07 0 0.00897053 3.79226e-07 0 0.00892157
3.71942e-07 0 0.00892157 3.71942e-07 0 0.00887307 3.64851e-07 0 0.00887307 3.64851e-07
0 0.00882501 3.57936e-07 0 0.00882501 3.57936e-07 0 0.0087774 3.5117e-07 0
0.0087774 3.5117e-07 0 0.00873022 3.4453e-07 0 0.00873022 3.4453e-07 0 0.0086835
3.37976e-07 0 0.0086835 3.37976e-07 0 0.00863723 3.31488e-07 0 0.00863723 3.31488e-07
0 0.00859142 3.25029e-07 0 0.00859142 3.25029e-07 0 0.00854609 3.18587e-07 0
0.00854609 3.18587e-07 0 0.00850123 3.12136e-07 0 0.00850123 3.12136e-07 0 0.00845686
3.05681e-07 0 0.00845686 3.05681e-07 0 0.00841299 2.99214e-07 0 0.00841299 2.99214e-07
0 0.00836963 2.92769e-07 0 0.00836963 2.92769e-07 0 0.00832678 2.86345e-07 0
0.00832678 2.86345e-07 0 0.00828443 2.80017e-07 0 0.00828443 2.80017e-07 0 0.00824257
2.73771e-07 0 0.00824257 2.73771e-07 0 0.0082012 2.67733e-07 0 0.0082012 2.67733e-07
0 0.00816028 2.61846e-07 0 0.00816028 2.61846e-07 0 0.0081198 2.56296e-07 0
0.0081198 2.56296e-07 0 0.0080797 2.50959e-07 0 0.0080797 2.50959e-07 0 0.00804
2.46105e-07 0 0.00804 2.46105e-07 0 0.00800051 2.41901e-07 0 0.00800051 2.41901e-07
0 0.00796148 2.35281e-07 0 0.00796148 2.35281e-07 0 0.00792289 2.29854e-07 0
0.00792289 2.29854e-07 0 0.00788406 2.30417e-07 0 0.00788406 2.30417e-07 0 0.00784473
2.31863e-07 0 0.00784473 2.31863e-07 0 0.00780505 2.31028e-07 0 0.00780505 2.31028e-07
0 0.0077653 2.28902e-07 0 0.0077653 2.28902e-07 0 0.00772561 2.25957e-07 0
0.00772561 2.25957e-07 0 0.00768608 2.22601e-07 0 0.00768608 2.22601e-07 0 0.00764675
2.19015e-07 0 0.00764675 2.19015e-07 0 0.00760768 2.15302e-07 0 0.00760768 2.15302e-07
0 0.00756888 2.11505e-07 0 0.00756888 2.11505e-07 0 0.00753038 2.0767e-07 0
0.00753038 2.0767e-07 0 0.0074922 2.03796e-07 0 0.0074922 2.03796e-07 0 0.00745436
1.99903e-07 0 0.00745436 1.99903e-07 0 0.00741688 1.95995e-07 0 0.00741688 1.95995e-07
0 0.00737977 1.9206e-07 0 0.00737977 1.9206e-07 0 0.00734307 1.88102e-07 0
0.00734307 1.88102e-07 0 0.0073068 1.84104e-07 0 0.0073068 1.84104e-07 0 0.00727099
1.8003e-07 0 0.00727099 1.8003e-07 0 0.00723567 1.75881e-07 0 0.00723567 1.75881e-07
0 0.00720089 1.71587e-07 0 0.00720089 1.71587e-07 0 0.0071667 1.67142e-07 0
0.0071667 1.67142e-07 0 0.00713313 1.62489e-07 0 0.00713313 1.62489e-07 0 0.00710025
1.57622e-07 0 0.00710025 1.57622e-07 0 0.00706812 1.52519e-07 0 0.00706812 1.52519e-07
0 0.00703675 1.47229e-07 0 0.00703675 1.47229e-07 0 0.00700621 1.41774e-07 0
0.00700621 1.41774e-07 0 0.0069765 1.36303e-07 0 0.0069765 1.36303e-07 0 0.00694761
1.30871e-07 0 0.00694761 1.30871e-07 0 0.0069195 1.25732e-07 0 0.0069195 1.25732e-07
0 0.0068921 1.20913e-07 0 0.0068921 1.20913e-07 0 0.00686538 1.16649e-07 0
0.00686538 1.16649e-07 0 0.00683905 1.13419e-07 0 0.00683905 1.13419e-07 0 0.00681327
1.09196e-07 0 0.00681327 1.09196e-07 0 0.00678799 1.06069e-07 0 0.00678799 1.06069e-07
0 0.00676246 1.06982e-07 0 0.00676246 1.06982e-07 0 0.00673642 1.08583e-07 0
0.00673642 1.08583e-07 0 0.00670999 1.08978e-07 0 0.00670999 1.08978e-07 0 0.00668341
1.08662e-07 0 0.00668341 1.08662e-07 0 0.0066568 1.07812e-07 0 0.0066568 1.07812e-07
0 0.00663028 1.06615e-07 0 0.00663028 1.06615e-07 0 0.00660393 1.0502e-07 0
0.00660393 1.0502e-07 0 0.00657783 1.03078e-07 0 0.00657783 1.03078e-07 0 0.00655209
1.00804e-07 0 0.00655209 1.00804e-07 0 0.00652676 9.81517e-08 0 0.00652676 9.81517e-08
0 0.00650194 9.52171e-08 0 0.00650194 9.52171e-08 0 0.00647768 9.20393e-08 0
0.00647768 9.20393e-08 0 0.00645404 8.86206e-08 0 0.00645404 8.86206e-08 0 0.00643105
8.51102e-08 0 0.00643105 8.51102e-08 0 0.00640873 8.15661e-08 0 0.00640873 8.15661e-08
0 0.00638708 7.80292e-08 0 0.00638708 7.80292e-08 0 0.00636609 7.46718e-08 0
0.00636609 7.46718e-08 0 0.00634573 7.14861e-08 0 0.00634573 7.14861e-08 0 0.00632596
6.84746e-08 0 0.00632596 6.84746e-08 0 0.00630675 6.57838e-08 0 0.00630675 6.57838e-08
0 0.00628805 6.32756e-08 0 0.00628805 6.32756e-08 0 0.00626987 6.08067e-08 0
0.00626987 6.08067e-08 0 0.0062522 5.84804e-08 0 0.0062522 5.84804e-08 0 0.00623506
5.6197e-08 0 0.00623506 5.6197e-08 0 0.00621849 5.36863e-08 0 0.00621849 5.36863e-08
0 0.00620254 5.108e-08 0 0.00620254 5.108e-08 0 0.00618726 4.84491e-08 0
0.00618726 4.84491e-08 0 0.0061727 4.55488e-08 0 0.0061727 4.55488e-08 0 0.00615887
4.26931e-08 0 0.00615887 4.26931e-08 0 0.00614579 3.99671e-08 0 0.00614579 3.99671e-08
0 0.00613346 3.71319e-08 0 0.00613346 3.71319e-08 0 0.00612188 3.41893e-08 0
0.00612188 3.41893e-08 0 0.00611108 3.15445e-08 0 0.00611108 3.15445e-08 0 0.00610081
3.00536e-08 0 0.00610081 3.00536e-08 0 0.00609079 2.9161e-08 0 0.00609079 2.9161e-08
0 0.00608106 2.78522e-08 0 0.00608106 2.78522e-08 0 0.00607171 2.63151e-08 0
0.00607171 2.63151e-08 0 0.00606279 2.48582e-08 0 0.00606279 2.48582e-08 0 0.00605429
2.3586e-08 0 0.00605429 2.3586e-08 0 0.0060462 2.2313e-08 0 0.0060462 2.2313e-08
0 0.00603862 2.04926e-08 0 0.00603862 2.04926e-08 0 0.00603167 1.80991e-08 0
0.00603167 1.80991e-08 0 0.00602527 1.60262e-08 0 0.00602527 1.60262e-08 0 0.00601915
1.51771e-08 0 0.00601915 1.51771e-08 0 0.00601294 1.57893e-08 0 0.00601294 1.57893e-08
0 0.00600637 1.75373e-08 0 0.00600637 1.75373e-08 0 0.00599937 1.95578e-08 0
0.00599937 1.95578e-08 0 0.00599212 2.07327e-08 0 0.00599212 2.07327e-08 0 0.00598502
2.0467e-08 0 0.00598502 2.0467e-08 0 0.00597846 1.8846e-08 0 0.00597846 1.8846e-08
0 0.00597277 1.61452e-08 0 0.00597277 1.61452e-08 0 0.00596817 1.27829e-08 0
0.00596817 1.27829e-08 0 0.00596471 9.32329e-09 0 0.00596471 9.32329e-09 0 0.00596238
5.88052e-09 0 0.00596238 5.88052e-09 0 0.0059612 2.20162e-09 0 0.0059612 2.20162e-09
0 0.00596108 -1.17759e-09 0 0.00596108 -1.17759e-09 0 0.00596164 -3.02223e-09 0
0.00596164 -3.02223e-09 0 0.00596238 -3.1411e-09 0 0.00596238 -3.1411e-09 0 0.00596309
-2.80658e-09 0 0.00596309 -2.80658e-09 0 0.00596387 -3.01083e-09 0 0.00596387 -3.01083e-09
0 0.00596482 -3.43005e-09 0 0.00596482 -3.43005e-09 0 0.00596584 -3.44072e-09 0
0.00596584 -3.44072e-09 0 0.00596683 -3.10311e-09 0 0.00596683 -3.10311e-09 0 0.00596778
-2.75381e-09 0 0.00596778 -2.75381e-09 0 0.00596871 -2.46955e-09 0 0.00596871 -2.46955e-09
0 0.0059697 -2.34708e-09 0 0.0059697 -2.34708e-09 0 0.00597089 -2.75301e-09 0
0.00597089 -2.75301e-09 0 0.0059725 -3.91104e-09 0 0.0059725 -3.91104e-09 0 0.00597466
-5.52987e-09 0 0.00597466 -5.52987e-09 0 0.00597724 -6.4346e-09 0 0.00597724 -6.4346e-09
0 0.00597965 -5.46174e-09 0 0.00597965 -5.46174e-09 0 0.00598132 -3.29779e-09 0
0.00598132 -3.29779e-09 0 0.00598234 -1.60297e-09 0 0.00598234 -1.60297e-09 0 0.00598314
-1.19259e-09 0 0.00598314 -1.19259e-09 0 0.00598416 -1.80627e-09 0 0.00598416 -1.80627e-09
0 0.00598557 -2.67847e-09 0 0.00598557 -2.67847e-09 0 0.00598733 -3.3413e-09 0
0.00598733 -3.3413e-09 0 0.0059894 -3.88247e-09 0 0.0059894 -3.88247e-09 0 0.00599182
-4.55965e-09 0 0.00599182 -4.55965e-09 0 0.00599467 -5.41943e-09 0 0.00599467 -5.41943e-09
0 0.00599797 -6.3347e-09 0 0.00599797 -6.3347e-09 0 0.00600171 -7.21557e-09 0
0.00600171 -7.21557e-09 0 0.00600584 -8.00877e-09 0 0.00600584 -8.00877e-09 0 0.00601026
-8.54558e-09 0 0.00601026 -8.54558e-09 0 0.00601478 -8.5744e-09 0 0.00601478 -8.5744e-09
0 0.00601917 -8.03274e-09 0 0.00601917 -8.03274e-09 0 0.00602331 -7.22837e-09 0
0.00602331 -7.22837e-09 0 0.00602727 -6.66745e-09 0 0.00602727 -6.66745e-09 0 0.00603128
-6.68658e-09 0 0.00603128 -6.68658e-09 0 0.0060356 -7.24572e-09 0 0.0060356 -7.24572e-09
0 0.00604033 -8.02165e-09 0 0.00604033 -8.02165e-09 0 0.00604544 -8.66346e-09 0
0.00604544 -8.66346e-09 0 0.0060508 -8.99465e-09 0 0.0060508 -8.99465e-09 0 0.00605629
-9.05092e-09 0 0.00605629 -9.05092e-09 0 0.00606182 -8.98084e-09 0 0.00606182 -8.98084e-09
0 0.00606739 -8.92048e-09 0 0.00606739 -8.92048e-09 0 0.00607304 -8.93013e-09 0
0.00607304 -8.93013e-09 0 0.00607879 -9.00104e-09 0 0.00607879 -9.00104e-09 0 0.00608466
-9.09601e-09 0 0.00608466 -9.09601e-09 0 0.00609065 -9.18345e-09 0 0.00609065 -9.18345e-09
0 0.00609674 -9.24953e-09 0 0.00609674 -9.24953e-09 0 0.00610294 -9.29471e-09 0
0.00610294 -9.29471e-09 0 0.00610922 -9.32482e-09 0 0.00610922 -9.32482e-09 0 0.00611558
-9.34528e-09 0 0.00611558 -9.34528e-09 0 0.00612203 -9.35417e-09 0 0.00612203 -9.35417e-09
0 0.00612854 -9.34774e-09 0 0.00612854 -9.34774e-09 0 0.00613512 -9.38728e-09 0
0.00613512 -9.38728e-09 0 0.00614181 -9.38517e-09 0 0.00614181 -9.38517e-09 0 0.00614847
-9.12055e-09 0 0.00614847 -9.12055e-09 0 0.00615491 -8.7079e-09 0 0.00615491 -8.7079e-09
0 0.00616114 -8.38517e-09 0 0.00616114 -8.38517e-09 0 0.00616726 -8.1858e-09 0
0.00616726 -8.1858e-09 0 0.00617333 -8.0716e-09 0 0.00617333 -8.0716e-09 0 0.00617941
-8.00856e-09 0 0.00617941 -8.00856e-09 0 0.00618551 -7.97503e-09 0 0.00618551 -7.97503e-09
0 0.00619166 -7.95845e-09 0 0.00619166 -7.95845e-09 0 0.00619787 -7.9516e-09 0
0.00619787 -7.9516e-09 0 0.00620414 -7.94994e-09 0 0.00620414 -7.94994e-09 0 0.00621047
-7.9504e-09 0 0.00621047 -7.9504e-09 0 0.00621687 -7.95202e-09 0 0.00621687 -7.95202e-09
0 0.00622334 -7.95402e-09 0 0.00622334 -7.95402e-09 0 0.00622988 -7.9558e-09 0
0.00622988 -7.9558e-09 0 0.00623649 -7.95738e-09 0 0.00623649 -7.95738e-09 0 0.00624318
-7.95813e-09 0 0.00624318 -7.95813e-09 0 0.00624993 -7.95821e-09 0 0.00624993 -7.95821e-09
0 0.00625675 -7.9575e-09 0 0.00625675 -7.9575e-09 0 0.00626365 -7.95591e-09 0
0.00626365 -7.95591e-09 0 0.00627061 -7.9534e-09 0 0.00627061 -7.9534e-09 0 0.00627764
-7.95002e-09 0 0.00627764 -7.95002e-09 0 0.00628475 -7.94555e-09 0 0.00628475 -7.94555e-09
0 0.00629192 -7.93938e-09 0 0.00629192 -7.93938e-09 0 0.00629917 -7.9322e-09 0
0.00629917 -7.9322e-09 0 0.00630648 -7.9246e-09 0 0.00630648 -7.9246e-09 0 0.00631386
-7.91522e-09 0 0.00631386 -7.91522e-09 0 0.00632131 -7.9041e-09 0 0.00632131 -7.9041e-09
0 0.00632883 -7.89244e-09 0 0.00632883 -7.89244e-09 0 0.00633641 -7.87968e-09 0
0.00633641 -7.87968e-09 0 0.00634406 -7.8656e-09 0 0.00634406 -7.8656e-09 0 0.00635178
-7.85041e-09 0 0.00635178 -7.85041e-09 0 0.00635956 -7.83356e-09 0 0.00635956 -7.83356e-09
0 0.00636741 -7.81408e-09 0 0.00636741 -7.81408e-09 0 0.00637531 -7.78784e-09 0
0.00637531 -7.78784e-09 0 0.00638328 -7.77547e-09 0 0.00638328 -7.77547e-09 0 0.00639132
-7.75938e-09 0 0.00639132 -7.75938e-09 0 0.00639939 -7.62204e-09 0 0.00639939 -7.62204e-09
0 0.0064073 -7.35375e-09 0 0.0064073 -7.35375e-09 0 0.00641498 -7.09568e-09 0
0.00641498 -7.09568e-09 0 0.00642252 -6.92042e-09 0 0.00642252 -6.92042e-09 0 0.00642999
-6.8104e-09 0 0.00642999 -6.8104e-09 0 0.00643744 -6.74117e-09 0 0.00643744 -6.74117e-09
0 0.00644491 -6.69696e-09 0 0.00644491 -6.69696e-09 0 0.00645242 -6.66731e-09 0
0.00645242 -6.66731e-09 0 0.00645998 -6.64622e-09 0 0.00645998 -6.64622e-09 0 0.0064676
-6.63041e-09 0 0.0064676 -6.63041e-09 0 0.00647529 -6.61728e-09 0 0.00647529 -6.61728e-09
0 0.00648304 -6.60565e-09 0 0.00648304 -6.60565e-09 0 0.00649085 -6.59461e-09 0
0.00649085 -6.59461e-09 0 0.00649874 -6.58344e-09 0 0.00649874 -6.58344e-09 0 0.00650669
-6.57215e-09 0 0.00650669 -6.57215e-09 0 0.00651471 -6.56047e-09 0 0.00651471 -6.56047e-09
0 0.0065228 -6.54796e-09 0 0.0065228 -6.54796e-09 0 0.00653096 -6.53457e-09 0
0.00653096 -6.53457e-09 0 0.00653919 -6.52042e-09 0 0.00653919 -6.52042e-09 0 0.00654748
-6.5054e-09 0 0.00654748 -6.5054e-09 0 0.00655584 -6.48966e-09 0 0.00655584 -6.48966e-09
0 0.00656427 -6.47318e-09 0 0.00656427 -6.47318e-09 0 0.00657276 -6.45587e-09 0
0.00657276 -6.45587e-09 0 0.00658132 -6.4377e-09 0 0.00658132 -6.4377e-09 0 0.00658994
-6.41882e-09 0 0.00658994 -6.41882e-09 0 0.00659862 -6.39931e-09 0 0.00659862 -6.39931e-09
0 0.00660737 -6.37891e-09 0 0.00660737 -6.37891e-09 0 0.00661618 -6.35787e-09 0
0.00661618 -6.35787e-09 0 0.00662506 -6.33602e-09 0 0.00662506 -6.33602e-09 0 0.00663399
-6.31331e-09 0 0.00663399 -6.31331e-09 0 0.00664299 -6.28942e-09 0 0.00664299 -6.28942e-09
0 0.00665204 -6.26255e-09 0 0.00665204 -6.26255e-09 0 0.00666115 -6.23926e-09 0
0.00666115 -6.23926e-09 0 0.00667033 -6.21594e-09 0 0.00667033 -6.21594e-09 0 0.00667955
-6.1306e-09 0 0.00667955 -6.1306e-09 0 0.00668864 -5.95248e-09 0 0.00668864 -5.95248e-09
0 0.00669752 -5.7611e-09 0 0.00669752 -5.7611e-09 0 0.00670623 -5.62026e-09 0
0.00670623 -5.62026e-09 0 0.00671486 -5.52535e-09 0 0.00671486 -5.52535e-09 0 0.00672346
-5.46033e-09 0 0.00672346 -5.46033e-09 0 0.00673207 -5.41395e-09 0 0.00673207 -5.41395e-09
0 0.0067407 -5.37884e-09 0 0.0067407 -5.37884e-09 0 0.00674937 -5.35041e-09 0
0.00674937 -5.35041e-09 0 0.0067581 -5.32627e-09 0 0.0067581 -5.32627e-09 0 0.00676687
-5.3047e-09 0 0.00676687 -5.3047e-09 0 0.0067757 -5.28446e-09 0 0.0067757 -5.28446e-09
0 0.00678459 -5.26518e-09 0 0.00678459 -5.26518e-09 0 0.00679354 -5.24643e-09 0
0.00679354 -5.24643e-09 0 0.00680255 -5.22749e-09 0 0.00680255 -5.22749e-09 0 0.00681162
-5.20833e-09 0 0.00681162 -5.20833e-09 0 0.00682076 -5.18886e-09 0 0.00682076 -5.18886e-09
0 0.00682995 -5.16925e-09 0 0.00682995 -5.16925e-09 0 0.0068392 -5.14941e-09 0
0.0068392 -5.14941e-09 0 0.00684852 -5.12902e-09 0 0.00684852 -5.12902e-09 0 0.00685789
-5.10836e-09 0 0.00685789 -5.10836e-09 0 0.00686732 -5.08736e-09 0 0.00686732 -5.08736e-09
0 0.00687682 -5.06582e-09 0 0.00687682 -5.06582e-09 0 0.00688636 -5.04399e-09 0
0.00688636 -5.04399e-09 0 0.00689597 -5.02163e-09 0 0.00689597 -5.02163e-09 0 0.00690563
-4.99936e-09 0 0.00690563 -4.99936e-09 0 0.00691535 -4.97638e-09 0 0.00691535 -4.97638e-09
0 0.00692513 -4.9522e-09 0 0.00692513 -4.9522e-09 0 0.00693496 -4.92801e-09 0
0.00693496 -4.92801e-09 0 0.00694484 -4.90277e-09 0 0.00694484 -4.90277e-09 0 0.00695478
-4.87823e-09 0 0.00695478 -4.87823e-09 0 0.00696477 -4.8535e-09 0 0.00696477 -4.8535e-09
0 0.0069748 -4.79183e-09 0 0.0069748 -4.79183e-09 0 0.00698473 -4.66692e-09 0
0.00698473 -4.66692e-09 0 0.00699445 -4.52713e-09 0 0.00699445 -4.52713e-09 0 0.007004
-4.41907e-09 0 0.007004 -4.41907e-09 0 0.00701346 -4.3421e-09 0 0.00701346 -4.3421e-09
0 0.00702287 -4.2871e-09 0 0.00702287 -4.2871e-09 0 0.00703228 -4.24597e-09 0
0.00703228 -4.24597e-09 0 0.00704171 -4.21253e-09 0 0.00704171 -4.21253e-09 0 0.00705117
-4.1843e-09 0 0.00705117 -4.1843e-09 0 0.00706067 -4.15959e-09 0 0.00706067 -4.15959e-09
0 0.00707022 -4.13686e-09 0 0.00707022 -4.13686e-09 0 0.00707981 -4.11519e-09 0
0.00707981 -4.11519e-09 0 0.00708945 -4.09447e-09 0 0.00708945 -4.09447e-09 0 0.00709914
-4.07418e-09 0 0.00709914 -4.07418e-09 0 0.00710889 -4.05399e-09 0 0.00710889 -4.05399e-09
0 0.00711869 -4.03384e-09 0 0.00711869 -4.03384e-09 0 0.00712854 -4.01369e-09 0
0.00712854 -4.01369e-09 0 0.00713845 -3.9934e-09 0 0.00713845 -3.9934e-09 0 0.0071484
-3.9732e-09 0 0.0071484 -3.9732e-09 0 0.00715841 -3.95279e-09 0 0.00715841 -3.95279e-09
0 0.00716848 -3.93208e-09 0 0.00716848 -3.93208e-09 0 0.00717859 -3.91138e-09 0
0.00717859 -3.91138e-09 0 0.00718875 -3.89012e-09 0 0.00718875 -3.89012e-09 0 0.00719897
-3.86879e-09 0 0.00719897 -3.86879e-09 0 0.00720923 -3.84764e-09 0 0.00720923 -3.84764e-09
0 0.00721955 -3.82621e-09 0 0.00721955 -3.82621e-09 0 0.00722991 -3.80425e-09 0
0.00722991 -3.80425e-09 0 0.00724032 -3.78159e-09 0 0.00724032 -3.78159e-09 0 0.00725078
-3.75956e-09 0 0.00725078 -3.75956e-09 0 0.00726128 -3.73706e-09 0 0.00726128 -3.73706e-09
0 0.00727182 -3.69041e-09 0 0.00727182 -3.69041e-09 0 0.00728228 -3.6006e-09 0
0.00728228 -3.6006e-09 0 0.00729252 -3.4977e-09 0 0.00729252 -3.4977e-09 0 0.0073026
-3.41495e-09 0 0.0073026 -3.41495e-09 0 0.00731257 -3.3547e-09 0 0.00731257 -3.3547e-09
0 0.0073225 -3.31017e-09 0 0.0073225 -3.31017e-09 0 0.00733241 -3.2753e-09 0
0.00733241 -3.2753e-09 0 0.00734234 -3.24652e-09 0 0.00734234 -3.24652e-09 0 0.00735229
-3.22193e-09 0 0.00735229 -3.22193e-09 0 0.00736226 -3.19952e-09 0 0.00736226 -3.19952e-09
0 0.00737228 -3.17859e-09 0 0.00737228 -3.17859e-09 0 0.00738234 -3.15893e-09 0
0.00738234 -3.15893e-09 0 0.00739243 -3.13985e-09 0 0.00739243 -3.13985e-09 0 0.00740258
-3.12114e-09 0 0.00740258 -3.12114e-09 0 0.00741276 -3.10253e-09 0 0.00741276 -3.10253e-09
0 0.007423 -3.08404e-09 0 0.007423 -3.08404e-09 0 0.00743327 -3.06568e-09 0
0.00743327 -3.06568e-09 0 0.0074436 -3.04777e-09 0 0.0074436 -3.04777e-09 0 0.00745397
-3.0297e-09 0 0.00745397 -3.0297e-09 0 0.00746438 -3.01111e-09 0 0.00746438 -3.01111e-09
0 0.00747484 -2.99267e-09 0 0.00747484 -2.99267e-09 0 0.00748534 -2.97426e-09 0
0.00748534 -2.97426e-09 0 0.00749589 -2.9556e-09 0 0.00749589 -2.9556e-09 0 0.00750648
-2.93692e-09 0 0.00750648 -2.93692e-09 0 0.00751711 -2.9184e-09 0 0.00751711 -2.9184e-09
0 0.00752778 -2.89925e-09 0 0.00752778 -2.89925e-09 0 0.0075385 -2.87986e-09 0
0.0075385 -2.87986e-09 0 0.00754925 -2.86099e-09 0 0.00754925 -2.86099e-09 0 0.00756005
-2.82816e-09 0 0.00756005 -2.82816e-09 0 0.00757077 -2.7641e-09 0 0.00757077 -2.7641e-09
0 0.00758129 -2.68675e-09 0 0.00758129 -2.68675e-09 0 0.00759164 -2.62217e-09 0
0.00759164 -2.62217e-09 0 0.00760187 -2.57406e-09 0 0.00760187 -2.57406e-09 0 0.00761206
-2.53807e-09 0 0.00761206 -2.53807e-09 0 0.00762222 -2.50967e-09 0 0.00762222 -2.50967e-09
0 0.00763238 -2.4858e-09 0 0.00763238 -2.4858e-09 0 0.00764256 -2.46476e-09 0
0.00764256 -2.46476e-09 0 0.00765276 -2.44583e-09 0 0.00765276 -2.44583e-09 0 0.00766299
-2.42772e-09 0 0.00766299 -2.42772e-09 0 0.00767326 -2.41035e-09 0 0.00767326 -2.41035e-09
0 0.00768356 -2.39387e-09 0 0.00768356 -2.39387e-09 0 0.0076939 -2.37814e-09 0
0.0076939 -2.37814e-09 0 0.00770428 -2.36278e-09 0 0.00770428 -2.36278e-09 0 0.00771469
-2.34707e-09 0 0.00771469 -2.34707e-09 0 0.00772515 -2.33143e-09 0 0.00772515 -2.33143e-09
0 0.00773564 -2.3161e-09 0 0.00773564 -2.3161e-09 0 0.00774617 -2.30054e-09 0
0.00774617 -2.30054e-09 0 0.00775674 -2.28477e-09 0 0.00775674 -2.28477e-09 0 0.00776735
-2.26944e-09 0 0.00776735 -2.26944e-09 0 0.007778 -2.25397e-09 0 0.007778 -2.25397e-09
0 0.00778868 -2.23837e-09 0 0.00778868 -2.23837e-09 0 0.0077994 -2.22287e-09 0
0.0077994 -2.22287e-09 0 0.00781015 -2.20705e-09 0 0.00781015 -2.20705e-09 0 0.00782094
-2.19166e-09 0 0.00782094 -2.19166e-09 0 0.00783177 -2.16983e-09 0 0.00783177 -2.16983e-09
0 0.00784257 -2.12768e-09 0 0.00784257 -2.12768e-09 0 0.00785319 -2.06983e-09 0
0.00785319 -2.06983e-09 0 0.00786363 -2.01691e-09 0 0.00786363 -2.01691e-09 0 0.00787393
-1.97688e-09 0 0.00787393 -1.97688e-09 0 0.00788416 -1.94664e-09 0 0.00788416 -1.94664e-09
0 0.00789437 -1.92283e-09 0 0.00789437 -1.92283e-09 0 0.00790456 -1.90301e-09 0
0.00790456 -1.90301e-09 0 0.00791476 -1.8856e-09 0 0.00791476 -1.8856e-09 0 0.00792498
-1.86986e-09 0 0.00792498 -1.86986e-09 0 0.00793522 -1.85524e-09 0 0.00793522 -1.85524e-09
0 0.00794549 -1.84097e-09 0 0.00794549 -1.84097e-09 0 0.00795579 -1.82726e-09 0
0.00795579 -1.82726e-09 0 0.00796612 -1.81401e-09 0 0.00796612 -1.81401e-09 0 0.00797648
-1.80125e-09 0 0.00797648 -1.80125e-09 0 0.00798688 -1.78844e-09 0 0.00798688 -1.78844e-09
0 0.0079973 -1.77533e-09 0 0.0079973 -1.77533e-09 0 0.00800776 -1.76267e-09 0
0.00800776 -1.76267e-09 0 0.00801826 -1.74976e-09 0 0.00801826 -1.74976e-09 0 0.00802878
-1.73672e-09 0 0.00802878 -1.73672e-09 0 0.00803934 -1.72411e-09 0 0.00803934 -1.72411e-09
0 0.00804993 -1.7113e-09 0 0.00804993 -1.7113e-09 0 0.00806055 -1.69856e-09 0
0.00806055 -1.69856e-09 0 0.0080712 -1.68592e-09 0 0.0080712 -1.68592e-09 0 0.00808188
-1.67275e-09 0 0.00808188 -1.67275e-09 0 0.00809258 -1.65068e-09 0 0.00809258 -1.65068e-09
0 0.0081032 -1.61174e-09 0 0.0081032 -1.61174e-09 0 0.00811362 -1.56702e-09 0
0.00811362 -1.56702e-09 0 0.00812386 -1.53027e-09 0 0.00812386 -1.53027e-09 0 0.00813401
-1.50288e-09 0 0.00813401 -1.50288e-09 0 0.0081441 -1.48167e-09 0 0.0081441 -1.48167e-09
0 0.00815417 -1.46449e-09 0 0.00815417 -1.46449e-09 0 0.00816423 -1.4498e-09 0
0.00816423 -1.4498e-09 0 0.00817431 -1.43644e-09 0 0.00817431 -1.43644e-09 0 0.0081844
-1.42421e-09 0 0.0081844 -1.42421e-09 0 0.00819451 -1.41267e-09 0 0.00819451 -1.41267e-09
0 0.00820464 -1.40154e-09 0 0.00820464 -1.40154e-09 0 0.0082148 -1.39087e-09 0
0.0082148 -1.39087e-09 0 0.00822498 -1.3799e-09 0 0.00822498 -1.3799e-09 0 0.00823519
-1.36905e-09 0 0.00823519 -1.36905e-09 0 0.00824543 -1.35879e-09 0 0.00824543 -1.35879e-09
0 0.0082557 -1.34854e-09 0 0.0082557 -1.34854e-09 0 0.00826599 -1.33821e-09 0
0.00826599 -1.33821e-09 0 0.00827631 -1.32751e-09 0 0.00827631 -1.32751e-09 0 0.00828666
-1.31701e-09 0 0.00828666 -1.31701e-09 0 0.00829704 -1.30649e-09 0 0.00829704 -1.30649e-09
0 0.00830744 -1.2963e-09 0 0.00830744 -1.2963e-09 0 0.00831787 -1.28619e-09 0
0.00831787 -1.28619e-09 0 0.00832832 -1.26898e-09 0 0.00832832 -1.26898e-09 0 0.00833868
-1.23922e-09 0 0.00833868 -1.23922e-09 0 0.00834886 -1.20476e-09 0 0.00834886 -1.20476e-09
0 0.00835886 -1.17618e-09 0 0.00835886 -1.17618e-09 0 0.00836875 -1.15481e-09 0
0.00836875 -1.15481e-09 0 0.00837859 -1.13776e-09 0 0.00837859 -1.13776e-09 0 0.00838841
-1.12429e-09 0 0.00838841 -1.12429e-09 0 0.00839822 -1.11292e-09 0 0.00839822 -1.11292e-09
0 0.00840804 -1.10229e-09 0 0.00840804 -1.10229e-09 0 0.00841786 -1.09251e-09 0
0.00841786 -1.09251e-09 0 0.00842771 -1.08333e-09 0 0.00842771 -1.08333e-09 0 0.00843757
-1.07426e-09 0 0.00843757 -1.07426e-09 0 0.00844745 -1.06538e-09 0 0.00844745 -1.06538e-09
0 0.00845736 -1.05681e-09 0 0.00845736 -1.05681e-09 0 0.00846729 -1.0484e-09 0
0.00846729 -1.0484e-09 0 0.00847724 -1.04013e-09 0 0.00847724 -1.04013e-09 0 0.00848722
-1.03186e-09 0 0.00848722 -1.03186e-09 0 0.00849722 -1.02362e-09 0 0.00849722 -1.02362e-09
0 0.00850724 -1.01541e-09 0 0.00850724 -1.01541e-09 0 0.00851728 -1.00708e-09 0
0.00851728 -1.00708e-09 0 0.00852735 -9.98456e-10 0 0.00852735 -9.98456e-10 0 0.00853744
-9.88959e-10 0 0.00853744 -9.88959e-10 0 0.00854752 -9.72282e-10 0 0.00854752 -9.72282e-10
0 0.00855747 -9.45714e-10 0 0.00855747 -9.45714e-10 0 0.00856721 -9.20562e-10 0
0.00856721 -9.20562e-10 0 0.00857683 -8.98186e-10 0 0.00857683 -8.98186e-10 0 0.0085863
-8.88086e-10 0 0.0085863 -8.88086e-10 0 0.00859592 -8.71181e-10 0 0.00859592 -8.71181e-10
0 0.0086052 -8.54977e-10 0 0.0086052 -8.54977e-10 0 0.00861467 -9.05249e-10 0
0.00861467 -9.05249e-10 0 0.0187271 -1.29298e-09 0 0.0187271 -1.29298e-09 0 0.0288429
-1.6336e-09 0 0.0288429 -1.6336e-09 0 
