# vtk DataFile Version 2.0
sampleSurface
ASCII
DATASET POLYDATA
POINTS 1202 float
0 0 0 5.99825e-05 0 0 5.99825e-05 0 0.1 0 0
0.1 0.000120591 0 0 0.000120591 0 0.1 0.000181831 0 0
0.000181831 0 0.1 0.000243709 0 0 0.000243709 0 0.1 0.000306234
0 0 0.000306234 0 0.1 0.00036941 0 0 0.00036941 0
0.1 0.000433245 0 0 0.000433245 0 0.1 0.000497746 0 0
0.000497746 0 0.1 0.000562919 0 0 0.000562919 0 0.1 0.000628772
0 0 0.000628772 0 0.1 0.000695312 0 0 0.000695312 0
0.1 0.000762546 0 0 0.000762546 0 0.1 0.000830481 0 0
0.000830481 0 0.1 0.000899125 0 0 0.000899125 0 0.1 0.000968484
0 0 0.000968484 0 0.1 0.00103857 0 0 0.00103857 0
0.1 0.00110938 0 0 0.00110938 0 0.1 0.00118093 0 0
0.00118093 0 0.1 0.00125323 0 0 0.00125323 0 0.1 0.00132628
0 0 0.00132628 0 0.1 0.0014001 0 0 0.0014001 0
0.1 0.00147468 0 0 0.00147468 0 0.1 0.00155004 0 0
0.00155004 0 0.1 0.00162619 0 0 0.00162619 0 0.1 0.00170313
0 0 0.00170313 0 0.1 0.00178088 0 0 0.00178088 0
0.1 0.00185943 0 0 0.00185943 0 0.1 0.00193881 0 0
0.00193881 0 0.1 0.00201901 0 0 0.00201901 0 0.1 0.00210005
0 0 0.00210005 0 0.1 0.00218193 0 0 0.00218193 0
0.1 0.00226467 0 0 0.00226467 0 0.1 0.00234827 0 0
0.00234827 0 0.1 0.00243274 0 0 0.00243274 0 0.1 0.0025181
0 0 0.0025181 0 0.1 0.00260434 0 0 0.00260434 0
0.1 0.00269148 0 0 0.00269148 0 0.1 0.00277954 0 0
0.00277954 0 0.1 0.00286851 0 0 0.00286851 0 0.1 0.0029584
0 0 0.0029584 0 0.1 0.00304924 0 0 0.00304924 0
0.1 0.00314102 0 0 0.00314102 0 0.1 0.00323376 0 0
0.00323376 0 0.1 0.00332747 0 0 0.00332747 0 0.1 0.00342215
0 0 0.00342215 0 0.1 0.00351783 0 0 0.00351783 0
0.1 0.0036145 0 0 0.0036145 0 0.1 0.00371217 0 0
0.00371217 0 0.1 0.00381087 0 0 0.00381087 0 0.1 0.0039106
0 0 0.0039106 0 0.1 0.00401136 0 0 0.00401136 0
0.1 0.00411318 0 0 0.00411318 0 0.1 0.00421606 0 0
0.00421606 0 0.1 0.00432001 0 0 0.00432001 0 0.1 0.00442505
0 0 0.00442505 0 0.1 0.00453118 0 0 0.00453118 0
0.1 0.00463842 0 0 0.00463842 0 0.1 0.00474677 0 0
0.00474677 0 0.1 0.00485626 0 0 0.00485626 0 0.1 0.00496689
0 0 0.00496689 0 0.1 0.00507867 0 0 0.00507867 0
0.1 0.00519162 0 0 0.00519162 0 0.1 0.00530574 0 0
0.00530574 0 0.1 0.00542106 0 0 0.00542106 0 0.1 0.00553758
0 0 0.00553758 0 0.1 0.00565531 0 0 0.00565531 0
0.1 0.00577427 0 0 0.00577427 0 0.1 0.00589447 0 0
0.00589447 0 0.1 0.00601593 0 0 0.00601593 0 0.1 0.00613865
0 0 0.00613865 0 0.1 0.00626266 0 0 0.00626266 0
0.1 0.00638795 0 0 0.00638795 0 0.1 0.00651455 0 0
0.00651455 0 0.1 0.00664248 0 0 0.00664248 0 0.1 0.00677173
0 0 0.00677173 0 0.1 0.00690234 0 0 0.00690234 0
0.1 0.0070343 0 0 0.0070343 0 0.1 0.00716765 0 0
0.00716765 0 0.1 0.00730238 0 0 0.00730238 0 0.1 0.00743852
0 0 0.00743852 0 0.1 0.00757608 0 0 0.00757608 0
0.1 0.00771507 0 0 0.00771507 0 0.1 0.00785551 0 0
0.00785551 0 0.1 0.00799742 0 0 0.00799742 0 0.1 0.00814081
0 0 0.00814081 0 0.1 0.00828569 0 0 0.00828569 0
0.1 0.00843209 0 0 0.00843209 0 0.1 0.00858001 0 0
0.00858001 0 0.1 0.00872947 0 0 0.00872947 0 0.1 0.00888049
0 0 0.00888049 0 0.1 0.00903309 0 0 0.00903309 0
0.1 0.00918728 0 0 0.00918728 0 0.1 0.00934307 0 0
0.00934307 0 0.1 0.00950049 0 0 0.00950049 0 0.1 0.00965956
0 0 0.00965956 0 0.1 0.00982028 0 0 0.00982028 0
0.1 0.00998268 0 0 0.00998268 0 0.1 0.0101468 0 0
0.0101468 0 0.1 0.0103126 0 0 0.0103126 0 0.1 0.0104801
0 0 0.0104801 0 0.1 0.0106494 0 0 0.0106494 0
0.1 0.0108204 0 0 0.0108204 0 0.1 0.0109933 0 0
0.0109933 0 0.1 0.0111679 0 0 0.0111679 0 0.1 0.0113443
0 0 0.0113443 0 0.1 0.0115226 0 0 0.0115226 0
0.1 0.0117028 0 0 0.0117028 0 0.1 0.0118848 0 0
0.0118848 0 0.1 0.0120687 0 0 0.0120687 0 0.1 0.0122546
0 0 0.0122546 0 0.1 0.0124424 0 0 0.0124424 0
0.1 0.0126321 0 0 0.0126321 0 0.1 0.0128238 0 0
0.0128238 0 0.1 0.0130176 0 0 0.0130176 0 0.1 0.0132133
0 0 0.0132133 0 0.1 0.0134111 0 0 0.0134111 0
0.1 0.0136109 0 0 0.0136109 0 0.1 0.0138129 0 0
0.0138129 0 0.1 0.0140169 0 0 0.0140169 0 0.1 0.0142231
0 0 0.0142231 0 0.1 0.0144314 0 0 0.0144314 0
0.1 0.0146419 0 0 0.0146419 0 0.1 0.0148546 0 0
0.0148546 0 0.1 0.0150695 0 0 0.0150695 0 0.1 0.0152866
0 0 0.0152866 0 0.1 0.015506 0 0 0.015506 0
0.1 0.0157277 0 0 0.0157277 0 0.1 0.0159517 0 0
0.0159517 0 0.1 0.016178 0 0 0.016178 0 0.1 0.0164067
0 0 0.0164067 0 0.1 0.0166378 0 0 0.0166378 0
0.1 0.0168713 0 0 0.0168713 0 0.1 0.0171073 0 0
0.0171073 0 0.1 0.0173457 0 0 0.0173457 0 0.1 0.0175865
0 0 0.0175865 0 0.1 0.0178299 0 0 0.0178299 0
0.1 0.0180759 0 0 0.0180759 0 0.1 0.0183244 0 0
0.0183244 0 0.1 0.0185754 0 0 0.0185754 0 0.1 0.0188291
0 0 0.0188291 0 0.1 0.0190855 0 0 0.0190855 0
0.1 0.0193445 0 0 0.0193445 0 0.1 0.0196063 0 0
0.0196063 0 0.1 0.0198707 0 0 0.0198707 0 0.1 0.0201379
0 0 0.0201379 0 0.1 0.0204079 0 0 0.0204079 0
0.1 0.0206807 0 0 0.0206807 0 0.1 0.0209564 0 0
0.0209564 0 0.1 0.0212349 0 0 0.0212349 0 0.1 0.0215164
0 0 0.0215164 0 0.1 0.0218008 0 0 0.0218008 0
0.1 0.0220881 0 0 0.0220881 0 0.1 0.0223784 0 0
0.0223784 0 0.1 0.0226718 0 0 0.0226718 0 0.1 0.0229682
0 0 0.0229682 0 0.1 0.0232677 0 0 0.0232677 0
0.1 0.0235704 0 0 0.0235704 0 0.1 0.0238762 0 0
0.0238762 0 0.1 0.0241852 0 0 0.0241852 0 0.1 0.0244974
0 0 0.0244974 0 0.1 0.0248128 0 0 0.0248128 0
0.1 0.0251316 0 0 0.0251316 0 0.1 0.0254537 0 0
0.0254537 0 0.1 0.0257791 0 0 0.0257791 0 0.1 0.0261079
0 0 0.0261079 0 0.1 0.0264402 0 0 0.0264402 0
0.1 0.0267759 0 0 0.0267759 0 0.1 0.0271152 0 0
0.0271152 0 0.1 0.0274579 0 0 0.0274579 0 0.1 0.0278043
0 0 0.0278043 0 0.1 0.0281542 0 0 0.0281542 0
0.1 0.0285078 0 0 0.0285078 0 0.1 0.0288651 0 0
0.0288651 0 0.1 0.0292261 0 0 0.0292261 0 0.1 0.0295909
0 0 0.0295909 0 0.1 0.0299595 0 0 0.0299595 0
0.1 0.0303319 0 0 0.0303319 0 0.1 0.0307082 0 0
0.0307082 0 0.1 0.0310885 0 0 0.0310885 0 0.1 0.0314727
0 0 0.0314727 0 0.1 0.0318609 0 0 0.0318609 0
0.1 0.0322532 0 0 0.0322532 0 0.1 0.0326495 0 0
0.0326495 0 0.1 0.03305 0 0 0.03305 0 0.1 0.0334546
0 0 0.0334546 0 0.1 0.0338635 0 0 0.0338635 0
0.1 0.0342767 0 0 0.0342767 0 0.1 0.0346941 0 0
0.0346941 0 0.1 0.0351159 0 0 0.0351159 0 0.1 0.0355421
0 0 0.0355421 0 0.1 0.0359728 0 0 0.0359728 0
0.1 0.0364079 0 0 0.0364079 0 0.1 0.0368476 0 0
0.0368476 0 0.1 0.0372919 0 0 0.0372919 0 0.1 0.0377408
0 0 0.0377408 0 0.1 0.0381944 0 0 0.0381944 0
0.1 0.0386527 0 0 0.0386527 0 0.1 0.0391158 0 0
0.0391158 0 0.1 0.0395837 0 0 0.0395837 0 0.1 0.0400565
0 0 0.0400565 0 0.1 0.0405342 0 0 0.0405342 0
0.1 0.0410169 0 0 0.0410169 0 0.1 0.0415047 0 0
0.0415047 0 0.1 0.0419975 0 0 0.0419975 0 0.1 0.0424955
0 0 0.0424955 0 0.1 0.0429986 0 0 0.0429986 0
0.1 0.0435071 0 0 0.0435071 0 0.1 0.0440208 0 0
0.0440208 0 0.1 0.0445398 0 0 0.0445398 0 0.1 0.0450643
0 0 0.0450643 0 0.1 0.0455943 0 0 0.0455943 0
0.1 0.0461298 0 0 0.0461298 0 0.1 0.0466708 0 0
0.0466708 0 0.1 0.0472176 0 0 0.0472176 0 0.1 0.04777
0 0 0.04777 0 0.1 0.0483281 0 0 0.0483281 0
0.1 0.0488921 0 0 0.0488921 0 0.1 0.049462 0 0
0.049462 0 0.1 0.0500378 0 0 0.0500378 0 0.1 0.0506197
0 0 0.0506197 0 0.1 0.0512076 0 0 0.0512076 0
0.1 0.0518016 0 0 0.0518016 0 0.1 0.0524018 0 0
0.0524018 0 0.1 0.0530083 0 0 0.0530083 0 0.1 0.0536211
0 0 0.0536211 0 0.1 0.0542403 0 0 0.0542403 0
0.1 0.0548659 0 0 0.0548659 0 0.1 0.0554981 0 0
0.0554981 0 0.1 0.0561369 0 0 0.0561369 0 0.1 0.0567823
0 0 0.0567823 0 0.1 0.0574345 0 0 0.0574345 0
0.1 0.0580934 0 0 0.0580934 0 0.1 0.0587593 0 0
0.0587593 0 0.1 0.0594321 0 0 0.0594321 0 0.1 0.0601119
0 0 0.0601119 0 0.1 0.0607987 0 0 0.0607987 0
0.1 0.0614928 0 0 0.0614928 0 0.1 0.0621941 0 0
0.0621941 0 0.1 0.0629027 0 0 0.0629027 0 0.1 0.0636187
0 0 0.0636187 0 0.1 0.0643421 0 0 0.0643421 0
0.1 0.0650732 0 0 0.0650732 0 0.1 0.0658118 0 0
0.0658118 0 0.1 0.0665581 0 0 0.0665581 0 0.1 0.0673122
0 0 0.0673122 0 0.1 0.0680742 0 0 0.0680742 0
0.1 0.0688441 0 0 0.0688441 0 0.1 0.0696221 0 0
0.0696221 0 0.1 0.0704082 0 0 0.0704082 0 0.1 0.0712024
0 0 0.0712024 0 0.1 0.072005 0 0 0.072005 0
0.1 0.0728159 0 0 0.0728159 0 0.1 0.0736353 0 0
0.0736353 0 0.1 0.0744632 0 0 0.0744632 0 0.1 0.0752998
0 0 0.0752998 0 0.1 0.076145 0 0 0.076145 0
0.1 0.0769991 0 0 0.0769991 0 0.1 0.0778621 0 0
0.0778621 0 0.1 0.0787342 0 0 0.0787342 0 0.1 0.0796153
0 0 0.0796153 0 0.1 0.0805055 0 0 0.0805055 0
0.1 0.0814051 0 0 0.0814051 0 0.1 0.0823141 0 0
0.0823141 0 0.1 0.0832325 0 0 0.0832325 0 0.1 0.0841605
0 0 0.0841605 0 0.1 0.0850982 0 0 0.0850982 0
0.1 0.0860457 0 0 0.0860457 0 0.1 0.087003 0 0
0.087003 0 0.1 0.0879704 0 0 0.0879704 0 0.1 0.0889478
0 0 0.0889478 0 0.1 0.0899354 0 0 0.0899354 0
0.1 0.0909333 0 0 0.0909333 0 0.1 0.0919416 0 0
0.0919416 0 0.1 0.0929605 0 0 0.0929605 0 0.1 0.0939899
0 0 0.0939899 0 0.1 0.0950302 0 0 0.0950302 0
0.1 0.0960812 0 0 0.0960812 0 0.1 0.0971432 0 0
0.0971432 0 0.1 0.0982163 0 0 0.0982163 0 0.1 0.0993006
0 0 0.0993006 0 0.1 0.100396 0 0 0.100396 0
0.1 0.101503 0 0 0.101503 0 0.1 0.102622 0 0
0.102622 0 0.1 0.103752 0 0 0.103752 0 0.1 0.104894
0 0 0.104894 0 0.1 0.106048 0 0 0.106048 0
0.1 0.107214 0 0 0.107214 0 0.1 0.108392 0 0
0.108392 0 0.1 0.109582 0 0 0.109582 0 0.1 0.110785
0 0 0.110785 0 0.1 0.112001 0 0 0.112001 0
0.1 0.113229 0 0 0.113229 0 0.1 0.114469 0 0
0.114469 0 0.1 0.115723 0 0 0.115723 0 0.1 0.11699
0 0 0.11699 0 0.1 0.11827 0 0 0.11827 0
0.1 0.119564 0 0 0.119564 0 0.1 0.12087 0 0
0.12087 0 0.1 0.122191 0 0 0.122191 0 0.1 0.123525
0 0 0.123525 0 0.1 0.124873 0 0 0.124873 0
0.1 0.126236 0 0 0.126236 0 0.1 0.127612 0 0
0.127612 0 0.1 0.129003 0 0 0.129003 0 0.1 0.130408
0 0 0.130408 0 0.1 0.131828 0 0 0.131828 0
0.1 0.133263 0 0 0.133263 0 0.1 0.134713 0 0
0.134713 0 0.1 0.136178 0 0 0.136178 0 0.1 0.137658
0 0 0.137658 0 0.1 0.139154 0 0 0.139154 0
0.1 0.140665 0 0 0.140665 0 0.1 0.142192 0 0
0.142192 0 0.1 0.143735 0 0 0.143735 0 0.1 0.145294
0 0 0.145294 0 0.1 0.146869 0 0 0.146869 0
0.1 0.148461 0 0 0.148461 0 0.1 0.150069 0 0
0.150069 0 0.1 0.151694 0 0 0.151694 0 0.1 0.153336
0 0 0.153336 0 0.1 0.154995 0 0 0.154995 0
0.1 0.156672 0 0 0.156672 0 0.1 0.158366 0 0
0.158366 0 0.1 0.160077 0 0 0.160077 0 0.1 0.161807
0 0 0.161807 0 0.1 0.163554 0 0 0.163554 0
0.1 0.16532 0 0 0.16532 0 0.1 0.167104 0 0
0.167104 0 0.1 0.168907 0 0 0.168907 0 0.1 0.170728
0 0 0.170728 0 0.1 0.172569 0 0 0.172569 0
0.1 0.174428 0 0 0.174428 0 0.1 0.176307 0 0
0.176307 0 0.1 0.178206 0 0 0.178206 0 0.1 0.180124
0 0 0.180124 0 0.1 0.182063 0 0 0.182063 0
0.1 0.184022 0 0 0.184022 0 0.1 0.186001 0 0
0.186001 0 0.1 0.188001 0 0 0.188001 0 0.1 0.190021
0 0 0.190021 0 0.1 0.192063 0 0 0.192063 0
0.1 0.194126 0 0 0.194126 0 0.1 0.19621 0 0
0.19621 0 0.1 0.198317 0 0 0.198317 0 0.1 0.200445
0 0 0.200445 0 0.1 0.202595 0 0 0.202595 0
0.1 0.204768 0 0 0.204768 0 0.1 0.206964 0 0
0.206964 0 0.1 0.209182 0 0 0.209182 0 0.1 0.211424
0 0 0.211424 0 0.1 0.213689 0 0 0.213689 0
0.1 0.215977 0 0 0.215977 0 0.1 0.21829 0 0
0.21829 0 0.1 0.220626 0 0 0.220626 0 0.1 0.222987
0 0 0.222987 0 0.1 0.225372 0 0 0.225372 0
0.1 0.227783 0 0 0.227783 0 0.1 0.230218 0 0
0.230218 0 0.1 0.232679 0 0 0.232679 0 0.1 0.235166
0 0 0.235166 0 0.1 0.237678 0 0 0.237678 0
0.1 0.240217 0 0 0.240217 0 0.1 0.242782 0 0
0.242782 0 0.1 0.245374 0 0 0.245374 0 0.1 0.247993
0 0 0.247993 0 0.1 0.25064 0 0 0.25064 0
0.1 0.253313 0 0 0.253313 0 0.1 0.256015 0 0
0.256015 0 0.1 0.258745 0 0 0.258745 0 0.1 0.261504
0 0 0.261504 0 0.1 0.264291 0 0 0.264291 0
0.1 0.267107 0 0 0.267107 0 0.1 0.269953 0 0
0.269953 0 0.1 0.272828 0 0 0.272828 0 0.1 0.275733
0 0 0.275733 0 0.1 0.278669 0 0 0.278669 0
0.1 0.281635 0 0 0.281635 0 0.1 0.284632 0 0
0.284632 0 0.1 0.287661 0 0 0.287661 0 0.1 0.290721
0 0 0.290721 0 0.1 0.293813 0 0 0.293813 0
0.1 0.296937 0 0 0.296937 0 0.1 0.300093 0 0
0.300093 0 0.1 0.303283 0 0 0.303283 0 0.1 0.306506
0 0 0.306506 0 0.1 0.309763 0 0 0.309763 0
0.1 0.313053 0 0 0.313053 0 0.1 0.316378 0 0
0.316378 0 0.1 0.319737 0 0 0.319737 0 0.1 0.323132
0 0 0.323132 0 0.1 0.326562 0 0 0.326562 0
0.1 0.330027 0 0 0.330027 0 0.1 0.333529 0 0
0.333529 0 0.1 0.337068 0 0 0.337068 0 0.1 0.340643
0 0 0.340643 0 0.1 0.344255 0 0 0.344255 0
0.1 0.347906 0 0 0.347906 0 0.1 0.351594 0 0
0.351594 0 0.1 0.355321 0 0 0.355321 0 0.1 0.359086
0 0 0.359086 0 0.1 0.362891 0 0 0.362891 0
0.1 0.366736 0 0 0.366736 0 0.1 0.37062 0 0
0.37062 0 0.1 0.374546 0 0 0.374546 0 0.1 0.378512
0 0 0.378512 0 0.1 0.382519 0 0 0.382519 0
0.1 0.386568 0 0 0.386568 0 0.1 0.39066 0 0
0.39066 0 0.1 0.394794 0 0 0.394794 0 0.1 0.398971
0 0 0.398971 0 0.1 0.403192 0 0 0.403192 0
0.1 0.407457 0 0 0.407457 0 0.1 0.411766 0 0
0.411766 0 0.1 0.416121 0 0 0.416121 0 0.1 0.42052
0 0 0.42052 0 0.1 0.424966 0 0 0.424966 0
0.1 0.429458 0 0 0.429458 0 0.1 0.433997 0 0
0.433997 0 0.1 0.438583 0 0 0.438583 0 0.1 0.443217
0 0 0.443217 0 0.1 0.447899 0 0 0.447899 0
0.1 0.45263 0 0 0.45263 0 0.1 0.457411 0 0
0.457411 0 0.1 0.462241 0 0 0.462241 0 0.1 0.467122
0 0 0.467122 0 0.1 0.472053 0 0 0.472053 0
0.1 0.477036 0 0 0.477036 0 0.1 0.482071 0 0
0.482071 0 0.1 0.487159 0 0 0.487159 0 0.1 0.492299
0 0 0.492299 0 0.1 0.497493 0 0 0.497493 0
0.1 0.502742 0 0 0.502742 0 0.1 0.508045 0 0
0.508045 0 0.1 0.513403 0 0 0.513403 0 0.1 0.518817
0 0 0.518817 0 0.1 0.524288 0 0 0.524288 0
0.1 0.529816 0 0 0.529816 0 0.1 0.535401 0 0
0.535401 0 0.1 0.541045 0 0 0.541045 0 0.1 0.546748
0 0 0.546748 0 0.1 0.55251 0 0 0.55251 0
0.1 0.558332 0 0 0.558332 0 0.1 0.564215 0 0
0.564215 0 0.1 0.570159 0 0 0.570159 0 0.1 0.576165
0 0 0.576165 0 0.1 0.582234 0 0 0.582234 0
0.1 0.588366 0 0 0.588366 0 0.1 0.594562 0 0
0.594562 0 0.1 0.600822 0 0 0.600822 0 0.1 0.607148
0 0 0.607148 0 0.1 0.61354 0 0 0.61354 0
0.1 0.619999 0 0 0.619999 0 0.1 0.626525 0 0
0.626525 0 0.1 0.633119 0 0 0.633119 0 0.1 0.639782
0 0 0.639782 0 0.1 0.646514 0 0 0.646514 0
0.1 0.653316 0 0 0.653316 0 0.1 0.66019 0 0
0.66019 0 0.1 0.667135 0 0 0.667135 0 0.1 0.674152
0 0 0.674152 0 0.1 0.681243 0 0 0.681243 0
0.1 0.688408 0 0 0.688408 0 0.1 0.695647 0 0
0.695647 0 0.1 0.702962 0 0 0.702962 0 0.1 0.710353
0 0 0.710353 0 0.1 0.717821 0 0 0.717821 0
0.1 0.725367 0 0 0.725367 0 0.1 0.732992 0 0
0.732992 0 0.1 0.740697 0 0 0.740697 0 0.1 0.748481
0 0 0.748481 0 0.1 0.756347 0 0 0.756347 0
0.1 0.764295 0 0 0.764295 0 0.1 0.772326 0 0
0.772326 0 0.1 0.78044 0 0 0.78044 0 0.1 0.78864
0 0 0.78864 0 0.1 0.796924 0 0 0.796924 0
0.1 0.805295 0 0 0.805295 0 0.1 0.813754 0 0
0.813754 0 0.1 0.8223 0 0 0.8223 0 0.1 0.830936
0 0 0.830936 0 0.1 0.839662 0 0 0.839662 0
0.1 0.848479 0 0 0.848479 0 0.1 0.857387 0 0
0.857387 0 0.1 0.866389 0 0 0.866389 0 0.1 0.875485
0 0 0.875485 0 0.1 0.884675 0 0 0.884675 0
0.1 0.893961 0 0 0.893961 0 0.1 0.903344 0 0
0.903344 0 0.1 0.912825 0 0 0.912825 0 0.1 0.922405
0 0 0.922405 0 0.1 0.932085 0 0 0.932085 0
0.1 0.941865 0 0 0.941865 0 0.1 0.951748 0 0
0.951748 0 0.1 0.961734 0 0 0.961734 0 0.1 0.971824
0 0 0.971824 0 0.1 0.982019 0 0 0.982019 0
0.1 0.99232 0 0 0.99232 0 0.1 1.00273 0 0
1.00273 0 0.1 1.01325 0 0 1.01325 0 0.1 1.02387
0 0 1.02387 0 0.1 1.03461 0 0 1.03461 0
0.1 1.04546 0 0 1.04546 0 0.1 1.05642 0 0
1.05642 0 0.1 1.0675 0 0 1.0675 0 0.1 1.07869
0 0 1.07869 0 0.1 1.09 0 0 1.09 0
0.1 1.10143 0 0 1.10143 0 0.1 1.11298 0 0
1.11298 0 0.1 1.12465 0 0 1.12465 0 0.1 1.13644
0 0 1.13644 0 0.1 1.14835 0 0 1.14835 0
0.1 1.16038 0 0 1.16038 0 0.1 1.17254 0 0
1.17254 0 0.1 1.18483 0 0 1.18483 0 0.1 1.19725
0 0 1.19725 0 0.1 1.2098 0 0 1.2098 0
0.1 1.22247 0 0 1.22247 0 0.1 1.23528 0 0
1.23528 0 0.1 1.24822 0 0 1.24822 0 0.1 1.2613
0 0 1.2613 0 0.1 1.27452 0 0 1.27452 0
0.1 1.28787 0 0 1.28787 0 0.1 1.30136 0 0
1.30136 0 0.1 1.31499 0 0 1.31499 0 0.1 1.32877
0 0 1.32877 0 0.1 1.34268 0 0 1.34268 0
0.1 1.35675 0 0 1.35675 0 0.1 1.37095 0 0
1.37095 0 0.1 1.38531 0 0 1.38531 0 0.1 1.39982
0 0 1.39982 0 0.1 1.41448 0 0 1.41448 0
0.1 1.42929 0 0 1.42929 0 0.1 1.44426 0 0
1.44426 0 0.1 1.45938 0 0 1.45938 0 0.1 1.47466
0 0 1.47466 0 0.1 1.4901 0 0 1.4901 0
0.1 1.5057 0 0 1.5057 0 0.1 1.52146 0 0
1.52146 0 0.1 1.53739 0 0 1.53739 0 0.1 1.55348
0 0 1.55348 0 0.1 1.56974 0 0 1.56974 0
0.1 1.58617 0 0 1.58617 0 0.1 1.60278 0 0
1.60278 0 0.1 1.61955 0 0 1.61955 0 0.1 1.6365
0 0 1.6365 0 0.1 1.65363 0 0 1.65363 0
0.1 1.67093 0 0 1.67093 0 0.1 1.68842 0 0
1.68842 0 0.1 1.70609 0 0 1.70609 0 0.1 1.72394
0 0 1.72394 0 0.1 1.74198 0 0 1.74198 0
0.1 1.76021 0 0 1.76021 0 0.1 1.77862 0 0
1.77862 0 0.1 1.79723 0 0 1.79723 0 0.1 1.81604
0 0 1.81604 0 0.1 1.83504 0 0 1.83504 0
0.1 1.85423 0 0 1.85423 0 0.1 1.87363 0 0
1.87363 0 0.1 1.89323 0 0 1.89323 0 0.1 1.91304
0 0 1.91304 0 0.1 1.93305 0 0 1.93305 0
0.1 1.95327 0 0 1.95327 0 0.1 1.9737 0 0
1.9737 0 0.1 1.99434 0 0 1.99434 0 0.1 2.0152
0 0 2.0152 0 0.1 2.03628 0 0 2.03628 0
0.1 2.05757 0 0 2.05757 0 0.1 2.07909 0 0
2.07909 0 0.1 2.10083 0 0 2.10083 0 0.1 2.1228
0 0 2.1228 0 0.1 2.145 0 0 2.145 0
0.1 2.16743 0 0 2.16743 0 0.1 2.1901 0 0
2.1901 0 0.1 2.213 0 0 2.213 0 0.1 2.23614
0 0 2.23614 0 0.1 2.25952 0 0 2.25952 0
0.1 2.28314 0 0 2.28314 0 0.1 2.30701 0 0
2.30701 0 0.1 2.33113 0 0 2.33113 0 0.1 2.3555
0 0 2.3555 0 0.1 2.38013 0 0 2.38013 0
0.1 2.40501 0 0 2.40501 0 0.1 2.43015 0 0
2.43015 0 0.1 2.45556 0 0 2.45556 0 0.1 2.48122
0 0 2.48122 0 0.1 2.50716 0 0 2.50716 0
0.1 2.53337 0 0 2.53337 0 0.1 2.55985 0 0
2.55985 0 0.1 2.58661 0 0 2.58661 0 0.1 2.61364
0 0 2.61364 0 0.1 2.64096 0 0 2.64096 0
0.1 2.66856 0 0 2.66856 0 0.1 2.69645 0 0
2.69645 0 0.1 2.72463 0 0 2.72463 0 0.1 2.75311
0 0 2.75311 0 0.1 2.78188 0 0 2.78188 0
0.1 2.81095 0 0 2.81095 0 0.1 2.84033 0 0
2.84033 0 0.1 2.87001 0 0 2.87001 0 0.1 2.9
0 0 2.9 0 0.1 
POLYGONS 600 3000
4 0 1 2 3 4 1 4 5 2 4
4 6 7 5 4 6 8 9 7 4
8 10 11 9 4 10 12 13 11 4
12 14 15 13 4 14 16 17 15 4
16 18 19 17 4 18 20 21 19 4
20 22 23 21 4 22 24 25 23 4
24 26 27 25 4 26 28 29 27 4
28 30 31 29 4 30 32 33 31 4
32 34 35 33 4 34 36 37 35 4
36 38 39 37 4 38 40 41 39 4
40 42 43 41 4 42 44 45 43 4
44 46 47 45 4 46 48 49 47 4
48 50 51 49 4 50 52 53 51 4
52 54 55 53 4 54 56 57 55 4
56 58 59 57 4 58 60 61 59 4
60 62 63 61 4 62 64 65 63 4
64 66 67 65 4 66 68 69 67 4
68 70 71 69 4 70 72 73 71 4
72 74 75 73 4 74 76 77 75 4
76 78 79 77 4 78 80 81 79 4
80 82 83 81 4 82 84 85 83 4
84 86 87 85 4 86 88 89 87 4
88 90 91 89 4 90 92 93 91 4
92 94 95 93 4 94 96 97 95 4
96 98 99 97 4 98 100 101 99 4
100 102 103 101 4 102 104 105 103 4
104 106 107 105 4 106 108 109 107 4
108 110 111 109 4 110 112 113 111 4
112 114 115 113 4 114 116 117 115 4
116 118 119 117 4 118 120 121 119 4
120 122 123 121 4 122 124 125 123 4
124 126 127 125 4 126 128 129 127 4
128 130 131 129 4 130 132 133 131 4
132 134 135 133 4 134 136 137 135 4
136 138 139 137 4 138 140 141 139 4
140 142 143 141 4 142 144 145 143 4
144 146 147 145 4 146 148 149 147 4
148 150 151 149 4 150 152 153 151 4
152 154 155 153 4 154 156 157 155 4
156 158 159 157 4 158 160 161 159 4
160 162 163 161 4 162 164 165 163 4
164 166 167 165 4 166 168 169 167 4
168 170 171 169 4 170 172 173 171 4
172 174 175 173 4 174 176 177 175 4
176 178 179 177 4 178 180 181 179 4
180 182 183 181 4 182 184 185 183 4
184 186 187 185 4 186 188 189 187 4
188 190 191 189 4 190 192 193 191 4
192 194 195 193 4 194 196 197 195 4
196 198 199 197 4 198 200 201 199 4
200 202 203 201 4 202 204 205 203 4
204 206 207 205 4 206 208 209 207 4
208 210 211 209 4 210 212 213 211 4
212 214 215 213 4 214 216 217 215 4
216 218 219 217 4 218 220 221 219 4
220 222 223 221 4 222 224 225 223 4
224 226 227 225 4 226 228 229 227 4
228 230 231 229 4 230 232 233 231 4
232 234 235 233 4 234 236 237 235 4
236 238 239 237 4 238 240 241 239 4
240 242 243 241 4 242 244 245 243 4
244 246 247 245 4 246 248 249 247 4
248 250 251 249 4 250 252 253 251 4
252 254 255 253 4 254 256 257 255 4
256 258 259 257 4 258 260 261 259 4
260 262 263 261 4 262 264 265 263 4
264 266 267 265 4 266 268 269 267 4
268 270 271 269 4 270 272 273 271 4
272 274 275 273 4 274 276 277 275 4
276 278 279 277 4 278 280 281 279 4
280 282 283 281 4 282 284 285 283 4
284 286 287 285 4 286 288 289 287 4
288 290 291 289 4 290 292 293 291 4
292 294 295 293 4 294 296 297 295 4
296 298 299 297 4 298 300 301 299 4
300 302 303 301 4 302 304 305 303 4
304 306 307 305 4 306 308 309 307 4
308 310 311 309 4 310 312 313 311 4
312 314 315 313 4 314 316 317 315 4
316 318 319 317 4 318 320 321 319 4
320 322 323 321 4 322 324 325 323 4
324 326 327 325 4 326 328 329 327 4
328 330 331 329 4 330 332 333 331 4
332 334 335 333 4 334 336 337 335 4
336 338 339 337 4 338 340 341 339 4
340 342 343 341 4 342 344 345 343 4
344 346 347 345 4 346 348 349 347 4
348 350 351 349 4 350 352 353 351 4
352 354 355 353 4 354 356 357 355 4
356 358 359 357 4 358 360 361 359 4
360 362 363 361 4 362 364 365 363 4
364 366 367 365 4 366 368 369 367 4
368 370 371 369 4 370 372 373 371 4
372 374 375 373 4 374 376 377 375 4
376 378 379 377 4 378 380 381 379 4
380 382 383 381 4 382 384 385 383 4
384 386 387 385 4 386 388 389 387 4
388 390 391 389 4 390 392 393 391 4
392 394 395 393 4 394 396 397 395 4
396 398 399 397 4 398 400 401 399 4
400 402 403 401 4 402 404 405 403 4
404 406 407 405 4 406 408 409 407 4
408 410 411 409 4 410 412 413 411 4
412 414 415 413 4 414 416 417 415 4
416 418 419 417 4 418 420 421 419 4
420 422 423 421 4 422 424 425 423 4
424 426 427 425 4 426 428 429 427 4
428 430 431 429 4 430 432 433 431 4
432 434 435 433 4 434 436 437 435 4
436 438 439 437 4 438 440 441 439 4
440 442 443 441 4 442 444 445 443 4
444 446 447 445 4 446 448 449 447 4
448 450 451 449 4 450 452 453 451 4
452 454 455 453 4 454 456 457 455 4
456 458 459 457 4 458 460 461 459 4
460 462 463 461 4 462 464 465 463 4
464 466 467 465 4 466 468 469 467 4
468 470 471 469 4 470 472 473 471 4
472 474 475 473 4 474 476 477 475 4
476 478 479 477 4 478 480 481 479 4
480 482 483 481 4 482 484 485 483 4
484 486 487 485 4 486 488 489 487 4
488 490 491 489 4 490 492 493 491 4
492 494 495 493 4 494 496 497 495 4
496 498 499 497 4 498 500 501 499 4
500 502 503 501 4 502 504 505 503 4
504 506 507 505 4 506 508 509 507 4
508 510 511 509 4 510 512 513 511 4
512 514 515 513 4 514 516 517 515 4
516 518 519 517 4 518 520 521 519 4
520 522 523 521 4 522 524 525 523 4
524 526 527 525 4 526 528 529 527 4
528 530 531 529 4 530 532 533 531 4
532 534 535 533 4 534 536 537 535 4
536 538 539 537 4 538 540 541 539 4
540 542 543 541 4 542 544 545 543 4
544 546 547 545 4 546 548 549 547 4
548 550 551 549 4 550 552 553 551 4
552 554 555 553 4 554 556 557 555 4
556 558 559 557 4 558 560 561 559 4
560 562 563 561 4 562 564 565 563 4
564 566 567 565 4 566 568 569 567 4
568 570 571 569 4 570 572 573 571 4
572 574 575 573 4 574 576 577 575 4
576 578 579 577 4 578 580 581 579 4
580 582 583 581 4 582 584 585 583 4
584 586 587 585 4 586 588 589 587 4
588 590 591 589 4 590 592 593 591 4
592 594 595 593 4 594 596 597 595 4
596 598 599 597 4 598 600 601 599 4
600 602 603 601 4 602 604 605 603 4
604 606 607 605 4 606 608 609 607 4
608 610 611 609 4 610 612 613 611 4
612 614 615 613 4 614 616 617 615 4
616 618 619 617 4 618 620 621 619 4
620 622 623 621 4 622 624 625 623 4
624 626 627 625 4 626 628 629 627 4
628 630 631 629 4 630 632 633 631 4
632 634 635 633 4 634 636 637 635 4
636 638 639 637 4 638 640 641 639 4
640 642 643 641 4 642 644 645 643 4
644 646 647 645 4 646 648 649 647 4
648 650 651 649 4 650 652 653 651 4
652 654 655 653 4 654 656 657 655 4
656 658 659 657 4 658 660 661 659 4
660 662 663 661 4 662 664 665 663 4
664 666 667 665 4 666 668 669 667 4
668 670 671 669 4 670 672 673 671 4
672 674 675 673 4 674 676 677 675 4
676 678 679 677 4 678 680 681 679 4
680 682 683 681 4 682 684 685 683 4
684 686 687 685 4 686 688 689 687 4
688 690 691 689 4 690 692 693 691 4
692 694 695 693 4 694 696 697 695 4
696 698 699 697 4 698 700 701 699 4
700 702 703 701 4 702 704 705 703 4
704 706 707 705 4 706 708 709 707 4
708 710 711 709 4 710 712 713 711 4
712 714 715 713 4 714 716 717 715 4
716 718 719 717 4 718 720 721 719 4
720 722 723 721 4 722 724 725 723 4
724 726 727 725 4 726 728 729 727 4
728 730 731 729 4 730 732 733 731 4
732 734 735 733 4 734 736 737 735 4
736 738 739 737 4 738 740 741 739 4
740 742 743 741 4 742 744 745 743 4
744 746 747 745 4 746 748 749 747 4
748 750 751 749 4 750 752 753 751 4
752 754 755 753 4 754 756 757 755 4
756 758 759 757 4 758 760 761 759 4
760 762 763 761 4 762 764 765 763 4
764 766 767 765 4 766 768 769 767 4
768 770 771 769 4 770 772 773 771 4
772 774 775 773 4 774 776 777 775 4
776 778 779 777 4 778 780 781 779 4
780 782 783 781 4 782 784 785 783 4
784 786 787 785 4 786 788 789 787 4
788 790 791 789 4 790 792 793 791 4
792 794 795 793 4 794 796 797 795 4
796 798 799 797 4 798 800 801 799 4
800 802 803 801 4 802 804 805 803 4
804 806 807 805 4 806 808 809 807 4
808 810 811 809 4 810 812 813 811 4
812 814 815 813 4 814 816 817 815 4
816 818 819 817 4 818 820 821 819 4
820 822 823 821 4 822 824 825 823 4
824 826 827 825 4 826 828 829 827 4
828 830 831 829 4 830 832 833 831 4
832 834 835 833 4 834 836 837 835 4
836 838 839 837 4 838 840 841 839 4
840 842 843 841 4 842 844 845 843 4
844 846 847 845 4 846 848 849 847 4
848 850 851 849 4 850 852 853 851 4
852 854 855 853 4 854 856 857 855 4
856 858 859 857 4 858 860 861 859 4
860 862 863 861 4 862 864 865 863 4
864 866 867 865 4 866 868 869 867 4
868 870 871 869 4 870 872 873 871 4
872 874 875 873 4 874 876 877 875 4
876 878 879 877 4 878 880 881 879 4
880 882 883 881 4 882 884 885 883 4
884 886 887 885 4 886 888 889 887 4
888 890 891 889 4 890 892 893 891 4
892 894 895 893 4 894 896 897 895 4
896 898 899 897 4 898 900 901 899 4
900 902 903 901 4 902 904 905 903 4
904 906 907 905 4 906 908 909 907 4
908 910 911 909 4 910 912 913 911 4
912 914 915 913 4 914 916 917 915 4
916 918 919 917 4 918 920 921 919 4
920 922 923 921 4 922 924 925 923 4
924 926 927 925 4 926 928 929 927 4
928 930 931 929 4 930 932 933 931 4
932 934 935 933 4 934 936 937 935 4
936 938 939 937 4 938 940 941 939 4
940 942 943 941 4 942 944 945 943 4
944 946 947 945 4 946 948 949 947 4
948 950 951 949 4 950 952 953 951 4
952 954 955 953 4 954 956 957 955 4
956 958 959 957 4 958 960 961 959 4
960 962 963 961 4 962 964 965 963 4
964 966 967 965 4 966 968 969 967 4
968 970 971 969 4 970 972 973 971 4
972 974 975 973 4 974 976 977 975 4
976 978 979 977 4 978 980 981 979 4
980 982 983 981 4 982 984 985 983 4
984 986 987 985 4 986 988 989 987 4
988 990 991 989 4 990 992 993 991 4
992 994 995 993 4 994 996 997 995 4
996 998 999 997 4 998 1000 1001 999 4
1000 1002 1003 1001 4 1002 1004 1005 1003 4
1004 1006 1007 1005 4 1006 1008 1009 1007 4
1008 1010 1011 1009 4 1010 1012 1013 1011 4
1012 1014 1015 1013 4 1014 1016 1017 1015 4
1016 1018 1019 1017 4 1018 1020 1021 1019 4
1020 1022 1023 1021 4 1022 1024 1025 1023 4
1024 1026 1027 1025 4 1026 1028 1029 1027 4
1028 1030 1031 1029 4 1030 1032 1033 1031 4
1032 1034 1035 1033 4 1034 1036 1037 1035 4
1036 1038 1039 1037 4 1038 1040 1041 1039 4
1040 1042 1043 1041 4 1042 1044 1045 1043 4
1044 1046 1047 1045 4 1046 1048 1049 1047 4
1048 1050 1051 1049 4 1050 1052 1053 1051 4
1052 1054 1055 1053 4 1054 1056 1057 1055 4
1056 1058 1059 1057 4 1058 1060 1061 1059 4
1060 1062 1063 1061 4 1062 1064 1065 1063 4
1064 1066 1067 1065 4 1066 1068 1069 1067 4
1068 1070 1071 1069 4 1070 1072 1073 1071 4
1072 1074 1075 1073 4 1074 1076 1077 1075 4
1076 1078 1079 1077 4 1078 1080 1081 1079 4
1080 1082 1083 1081 4 1082 1084 1085 1083 4
1084 1086 1087 1085 4 1086 1088 1089 1087 4
1088 1090 1091 1089 4 1090 1092 1093 1091 4
1092 1094 1095 1093 4 1094 1096 1097 1095 4
1096 1098 1099 1097 4 1098 1100 1101 1099 4
1100 1102 1103 1101 4 1102 1104 1105 1103 4
1104 1106 1107 1105 4 1106 1108 1109 1107 4
1108 1110 1111 1109 4 1110 1112 1113 1111 4
1112 1114 1115 1113 4 1114 1116 1117 1115 4
1116 1118 1119 1117 4 1118 1120 1121 1119 4
1120 1122 1123 1121 4 1122 1124 1125 1123 4
1124 1126 1127 1125 4 1126 1128 1129 1127 4
1128 1130 1131 1129 4 1130 1132 1133 1131 4
1132 1134 1135 1133 4 1134 1136 1137 1135 4
1136 1138 1139 1137 4 1138 1140 1141 1139 4
1140 1142 1143 1141 4 1142 1144 1145 1143 4
1144 1146 1147 1145 4 1146 1148 1149 1147 4
1148 1150 1151 1149 4 1150 1152 1153 1151 4
1152 1154 1155 1153 4 1154 1156 1157 1155 4
1156 1158 1159 1157 4 1158 1160 1161 1159 4
1160 1162 1163 1161 4 1162 1164 1165 1163 4
1164 1166 1167 1165 4 1166 1168 1169 1167 4
1168 1170 1171 1169 4 1170 1172 1173 1171 4
1172 1174 1175 1173 4 1174 1176 1177 1175 4
1176 1178 1179 1177 4 1178 1180 1181 1179 4
1180 1182 1183 1181 4 1182 1184 1185 1183 4
1184 1186 1187 1185 4 1186 1188 1189 1187 4
1188 1190 1191 1189 4 1190 1192 1193 1191 4
1192 1194 1195 1193 4 1194 1196 1197 1195 4
1196 1198 1199 1197 4 1198 1200 1201 1199 
POINT_DATA 1202
FIELD attributes 1
U 3 1202 float
1.54628 0.034154 0 0.869932 0.023643 0 0.869932 0.023643 0 1.54628 0.034154
0 0.166332 0.00856566 0 0.166332 0.00856566 0 0.122367 0.00258681 0
0.122367 0.00258681 0 0.0963793 0.000773303 0 0.0963793 0.000773303 0 0.0818347
0.000279202 0 0.0818347 0.000279202 0 0.0730709 0.000175098 0 0.0730709 0.000175098
0 0.0669291 0.00015798 0 0.0669291 0.00015798 0 0.0621527 0.000141708 0
0.0621527 0.000141708 0 0.0582695 0.00012079 0 0.0582695 0.00012079 0 0.055045
0.000100913 0 0.055045 0.000100913 0 0.0523131 8.5885e-05 0 0.0523131 8.5885e-05
0 0.0499488 7.56256e-05 0 0.0499488 7.56256e-05 0 0.0478635 6.77241e-05 0
0.0478635 6.77241e-05 0 0.0459996 6.11525e-05 0 0.0459996 6.11525e-05 0 0.0443177
5.55245e-05 0 0.0443177 5.55245e-05 0 0.0427892 5.06231e-05 0 0.0427892 5.06231e-05
0 0.041392 4.63084e-05 0 0.041392 4.63084e-05 0 0.0401087 4.24862e-05 0
0.0401087 4.24862e-05 0 0.038925 3.90868e-05 0 0.038925 3.90868e-05 0 0.0378292
3.60542e-05 0 0.0378292 3.60542e-05 0 0.0368112 3.33416e-05 0 0.0368112 3.33416e-05
0 0.0358626 3.09095e-05 0 0.0358626 3.09095e-05 0 0.0349759 2.87238e-05 0
0.0349759 2.87238e-05 0 0.0341448 2.67548e-05 0 0.0341448 2.67548e-05 0 0.0333639
2.49769e-05 0 0.0333639 2.49769e-05 0 0.0326283 2.33676e-05 0 0.0326283 2.33676e-05
0 0.0319338 2.19072e-05 0 0.0319338 2.19072e-05 0 0.0312766 2.05787e-05 0
0.0312766 2.05787e-05 0 0.0306535 1.93669e-05 0 0.0306535 1.93669e-05 0 0.0300615
1.82592e-05 0 0.0300615 1.82592e-05 0 0.0294982 1.72441e-05 0 0.0294982 1.72441e-05
0 0.0289611 1.63115e-05 0 0.0289611 1.63115e-05 0 0.0284482 1.54542e-05 0
0.0284482 1.54542e-05 0 0.0279577 1.46614e-05 0 0.0279577 1.46614e-05 0 0.0274877
1.39363e-05 0 0.0274877 1.39363e-05 0 0.0270371 1.32555e-05 0 0.0270371 1.32555e-05
0 0.026604 1.26516e-05 0 0.026604 1.26516e-05 0 0.0261872 1.20478e-05 0
0.0261872 1.20478e-05 0 0.0257871 1.13176e-05 0 0.0257871 1.13176e-05 0 0.0254024
1.07006e-05 0 0.0254024 1.07006e-05 0 0.0250304 1.03195e-05 0 0.0250304 1.03195e-05
0 0.0246687 1.00046e-05 0 0.0246687 1.00046e-05 0 0.0243165 9.68155e-06 0
0.0243165 9.68155e-06 0 0.023974 9.34728e-06 0 0.023974 9.34728e-06 0 0.0236413
9.0076e-06 0 0.0236413 9.0076e-06 0 0.0233182 8.66896e-06 0 0.0233182 8.66896e-06
0 0.0230047 8.33648e-06 0 0.0230047 8.33648e-06 0 0.0227005 8.01349e-06 0
0.0227005 8.01349e-06 0 0.0224053 7.70199e-06 0 0.0224053 7.70199e-06 0 0.0221188
7.40303e-06 0 0.0221188 7.40303e-06 0 0.0218407 7.11704e-06 0 0.0218407 7.11704e-06
0 0.0215707 6.84408e-06 0 0.0215707 6.84408e-06 0 0.0213084 6.58393e-06 0
0.0213084 6.58393e-06 0 0.0210535 6.33622e-06 0 0.0210535 6.33622e-06 0 0.0208057
6.10046e-06 0 0.0208057 6.10046e-06 0 0.0205646 5.87614e-06 0 0.0205646 5.87614e-06
0 0.02033 5.66269e-06 0 0.02033 5.66269e-06 0 0.0201015 5.45958e-06 0
0.0201015 5.45958e-06 0 0.019879 5.26622e-06 0 0.019879 5.26622e-06 0 0.0196622
5.0821e-06 0 0.0196622 5.0821e-06 0 0.0194508 4.90668e-06 0 0.0194508 4.90668e-06
0 0.0192445 4.7395e-06 0 0.0192445 4.7395e-06 0 0.0190433 4.58003e-06 0
0.0190433 4.58003e-06 0 0.0188468 4.42791e-06 0 0.0188468 4.42791e-06 0 0.0186549
4.28262e-06 0 0.0186549 4.28262e-06 0 0.0184673 4.14391e-06 0 0.0184673 4.14391e-06
0 0.018284 4.01124e-06 0 0.018284 4.01124e-06 0 0.0181048 3.88449e-06 0
0.0181048 3.88449e-06 0 0.0179294 3.76308e-06 0 0.0179294 3.76308e-06 0 0.0177577
3.64704e-06 0 0.0177577 3.64704e-06 0 0.0175897 3.53574e-06 0 0.0175897 3.53574e-06
0 0.0174251 3.42931e-06 0 0.0174251 3.42931e-06 0 0.0172638 3.32733e-06 0
0.0172638 3.32733e-06 0 0.0171058 3.22941e-06 0 0.0171058 3.22941e-06 0 0.0169507
3.13731e-06 0 0.0169507 3.13731e-06 0 0.0167987 3.04579e-06 0 0.0167987 3.04579e-06
0 0.0166494 2.96966e-06 0 0.0166494 2.96966e-06 0 0.0165028 2.87481e-06 0
0.0165028 2.87481e-06 0 0.0163596 2.74702e-06 0 0.0163596 2.74702e-06 0 0.016219
2.6725e-06 0 0.016219 2.6725e-06 0 0.0160799 2.64336e-06 0 0.0160799 2.64336e-06
0 0.0159419 2.60464e-06 0 0.0159419 2.60464e-06 0 0.0158051 2.55659e-06 0
0.0158051 2.55659e-06 0 0.0156701 2.5014e-06 0 0.0156701 2.5014e-06 0 0.0155369
2.44198e-06 0 0.0155369 2.44198e-06 0 0.0154058 2.38054e-06 0 0.0154058 2.38054e-06
0 0.0152767 2.31854e-06 0 0.0152767 2.31854e-06 0 0.0151498 2.25689e-06 0
0.0151498 2.25689e-06 0 0.015025 2.19616e-06 0 0.015025 2.19616e-06 0 0.0149023
2.13671e-06 0 0.0149023 2.13671e-06 0 0.0147816 2.07874e-06 0 0.0147816 2.07874e-06
0 0.014663 2.02238e-06 0 0.014663 2.02238e-06 0 0.0145465 1.9677e-06 0
0.0145465 1.9677e-06 0 0.0144318 1.91471e-06 0 0.0144318 1.91471e-06 0 0.0143191
1.8634e-06 0 0.0143191 1.8634e-06 0 0.0142082 1.81376e-06 0 0.0142082 1.81376e-06
0 0.0140991 1.76575e-06 0 0.0140991 1.76575e-06 0 0.0139918 1.71932e-06 0
0.0139918 1.71932e-06 0 0.0138862 1.67442e-06 0 0.0138862 1.67442e-06 0 0.0137823
1.63101e-06 0 0.0137823 1.63101e-06 0 0.01368 1.58902e-06 0 0.01368 1.58902e-06
0 0.0135792 1.54842e-06 0 0.0135792 1.54842e-06 0 0.01348 1.50914e-06 0
0.01348 1.50914e-06 0 0.0133823 1.47116e-06 0 0.0133823 1.47116e-06 0 0.0132861
1.43438e-06 0 0.0132861 1.43438e-06 0 0.0131912 1.3988e-06 0 0.0131912 1.3988e-06
0 0.0130978 1.36434e-06 0 0.0130978 1.36434e-06 0 0.0130057 1.331e-06 0
0.0130057 1.331e-06 0 0.0129148 1.29867e-06 0 0.0129148 1.29867e-06 0 0.0128253
1.26742e-06 0 0.0128253 1.26742e-06 0 0.012737 1.23708e-06 0 0.012737 1.23708e-06
0 0.0126499 1.20778e-06 0 0.0126499 1.20778e-06 0 0.012564 1.17934e-06 0
0.012564 1.17934e-06 0 0.0124792 1.1518e-06 0 0.0124792 1.1518e-06 0 0.0123955
1.12559e-06 0 0.0123955 1.12559e-06 0 0.0123129 1.09913e-06 0 0.0123129 1.09913e-06
0 0.0122313 1.07779e-06 0 0.0122313 1.07779e-06 0 0.0121506 1.05108e-06 0
0.0121506 1.05108e-06 0 0.0120714 1.01317e-06 0 0.0120714 1.01317e-06 0 0.0119932
9.91077e-07 0 0.0119932 9.91077e-07 0 0.0119152 9.85924e-07 0 0.0119152 9.85924e-07
0 0.0118372 9.78933e-07 0 0.0118372 9.78933e-07 0 0.0117595 9.66824e-07 0
0.0117595 9.66824e-07 0 0.0116822 9.50965e-07 0 0.0116822 9.50965e-07 0 0.0116056
9.32836e-07 0 0.0116056 9.32836e-07 0 0.0115298 9.13514e-07 0 0.0115298 9.13514e-07
0 0.0114548 8.9366e-07 0 0.0114548 8.9366e-07 0 0.0113807 8.73681e-07 0
0.0113807 8.73681e-07 0 0.0113076 8.53822e-07 0 0.0113076 8.53822e-07 0 0.0112354
8.34236e-07 0 0.0112354 8.34236e-07 0 0.011164 8.15015e-07 0 0.011164 8.15015e-07
0 0.0110936 7.96217e-07 0 0.0110936 7.96217e-07 0 0.0110241 7.77868e-07 0
0.0110241 7.77868e-07 0 0.0109555 7.59992e-07 0 0.0109555 7.59992e-07 0 0.0108877
7.42588e-07 0 0.0108877 7.42588e-07 0 0.0108208 7.2566e-07 0 0.0108208 7.2566e-07
0 0.0107546 7.09197e-07 0 0.0107546 7.09197e-07 0 0.0106894 6.93196e-07 0
0.0106894 6.93196e-07 0 0.0106249 6.77641e-07 0 0.0106249 6.77641e-07 0 0.0105611
6.62524e-07 0 0.0105611 6.62524e-07 0 0.0104982 6.47826e-07 0 0.0104982 6.47826e-07
0 0.0104359 6.33544e-07 0 0.0104359 6.33544e-07 0 0.0103745 6.1965e-07 0
0.0103745 6.1965e-07 0 0.0103137 6.06149e-07 0 0.0103137 6.06149e-07 0 0.0102536
5.93008e-07 0 0.0102536 5.93008e-07 0 0.0101942 5.8024e-07 0 0.0101942 5.8024e-07
0 0.0101354 5.67802e-07 0 0.0101354 5.67802e-07 0 0.0100773 5.55722e-07 0
0.0100773 5.55722e-07 0 0.0100199 5.4394e-07 0 0.0100199 5.4394e-07 0 0.00996306
5.32512e-07 0 0.00996306 5.32512e-07 0 0.00990685 5.21363e-07 0 0.00990685 5.21363e-07
0 0.00985123 5.10545e-07 0 0.00985123 5.10545e-07 0 0.00979618 5.00127e-07 0
0.00979618 5.00127e-07 0 0.00974174 4.89713e-07 0 0.00974174 4.89713e-07 0 0.00968776
4.81119e-07 0 0.00968776 4.81119e-07 0 0.00963431 4.70232e-07 0 0.00963431 4.70232e-07
0 0.00958171 4.55283e-07 0 0.00958171 4.55283e-07 0 0.0095296 4.47132e-07 0
0.0095296 4.47132e-07 0 0.00947739 4.46661e-07 0 0.00947739 4.46661e-07 0 0.00942492
4.45279e-07 0 0.00942492 4.45279e-07 0 0.00937242 4.40814e-07 0 0.00937242 4.40814e-07
0 0.00932014 4.34331e-07 0 0.00932014 4.34331e-07 0 0.00926822 4.26661e-07 0
0.00926822 4.26661e-07 0 0.00921676 4.18394e-07 0 0.00921676 4.18394e-07 0 0.00916581
4.09857e-07 0 0.00916581 4.09857e-07 0 0.00911539 4.01248e-07 0 0.00911539 4.01248e-07
0 0.00906552 3.9268e-07 0 0.00906552 3.9268e-07 0 0.00901621 3.84221e-07 0
0.00901621 3.84221e-07 0 0.00896745 3.75911e-07 0 0.00896745 3.75911e-07 0 0.00891924
3.67779e-07 0 0.00891924 3.67779e-07 0 0.00887157 3.59833e-07 0 0.00887157 3.59833e-07
0 0.00882443 3.52087e-07 0 0.00882443 3.52087e-07 0 0.00877781 3.44538e-07 0
0.00877781 3.44538e-07 0 0.00873171 3.37192e-07 0 0.00873171 3.37192e-07 0 0.0086861
3.3004e-07 0 0.0086861 3.3004e-07 0 0.00864099 3.23086e-07 0 0.00864099 3.23086e-07
0 0.00859636 3.16318e-07 0 0.00859636 3.16318e-07 0 0.0085522 3.09742e-07 0
0.0085522 3.09742e-07 0 0.00850849 3.03339e-07 0 0.00850849 3.03339e-07 0 0.00846524
2.97121e-07 0 0.00846524 2.97121e-07 0 0.00842242 2.91059e-07 0 0.00842242 2.91059e-07
0 0.00838003 2.85179e-07 0 0.00838003 2.85179e-07 0 0.00833806 2.79435e-07 0
0.00833806 2.79435e-07 0 0.00829649 2.73873e-07 0 0.00829649 2.73873e-07 0 0.00825533
2.6842e-07 0 0.00825533 2.6842e-07 0 0.00821456 2.63166e-07 0 0.00821456 2.63166e-07
0 0.00817418 2.57986e-07 0 0.00817418 2.57986e-07 0 0.00813417 2.53028e-07 0
0.00813417 2.53028e-07 0 0.00809451 2.48161e-07 0 0.00809451 2.48161e-07 0 0.00805526
2.43407e-07 0 0.00805526 2.43407e-07 0 0.00801621 2.39675e-07 0 0.00801621 2.39675e-07
0 0.00797764 2.33093e-07 0 0.00797764 2.33093e-07 0 0.00793967 2.26452e-07 0
0.00793967 2.26452e-07 0 0.00790164 2.2625e-07 0 0.00790164 2.2625e-07 0 0.00786322
2.27388e-07 0 0.00786322 2.27388e-07 0 0.00782455 2.26025e-07 0 0.00782455 2.26025e-07
0 0.00778593 2.23284e-07 0 0.00778593 2.23284e-07 0 0.00774751 2.1964e-07 0
0.00774751 2.1964e-07 0 0.0077094 2.15597e-07 0 0.0077094 2.15597e-07 0 0.00767162
2.11351e-07 0 0.00767162 2.11351e-07 0 0.00763423 2.07048e-07 0 0.00763423 2.07048e-07
0 0.00759721 2.02753e-07 0 0.00759721 2.02753e-07 0 0.00756058 1.98511e-07 0
0.00756058 1.98511e-07 0 0.00752434 1.94347e-07 0 0.00752434 1.94347e-07 0 0.00748849
1.90272e-07 0 0.00748849 1.90272e-07 0 0.00745301 1.863e-07 0 0.00745301 1.863e-07
0 0.00741791 1.82429e-07 0 0.00741791 1.82429e-07 0 0.00738316 1.78663e-07 0
0.00738316 1.78663e-07 0 0.00734877 1.75003e-07 0 0.00734877 1.75003e-07 0 0.00731473
1.71442e-07 0 0.00731473 1.71442e-07 0 0.00728102 1.67985e-07 0 0.00728102 1.67985e-07
0 0.00724765 1.64619e-07 0 0.00724765 1.64619e-07 0 0.00721459 1.61353e-07 0
0.00721459 1.61353e-07 0 0.00718185 1.58165e-07 0 0.00718185 1.58165e-07 0 0.00714942
1.55073e-07 0 0.00714942 1.55073e-07 0 0.00711729 1.52048e-07 0 0.00711729 1.52048e-07
0 0.00708545 1.49113e-07 0 0.00708545 1.49113e-07 0 0.0070539 1.46233e-07 0
0.0070539 1.46233e-07 0 0.00702263 1.43444e-07 0 0.00702263 1.43444e-07 0 0.00699164
1.40693e-07 0 0.00699164 1.40693e-07 0 0.00696093 1.38051e-07 0 0.00696093 1.38051e-07
0 0.00693047 1.35434e-07 0 0.00693047 1.35434e-07 0 0.00690031 1.32903e-07 0
0.00690031 1.32903e-07 0 0.0068703 1.3083e-07 0 0.0068703 1.3083e-07 0 0.00684064
1.27445e-07 0 0.00684064 1.27445e-07 0 0.00681143 1.24135e-07 0 0.00681143 1.24135e-07
0 0.00678214 1.24024e-07 0 0.00678214 1.24024e-07 0 0.00675246 1.24825e-07 0
0.00675246 1.24825e-07 0 0.00672253 1.24347e-07 0 0.00672253 1.24347e-07 0 0.00669259
1.22901e-07 0 0.00669259 1.22901e-07 0 0.0066628 1.20897e-07 0 0.0066628 1.20897e-07
0 0.00663324 1.18649e-07 0 0.00663324 1.18649e-07 0 0.00660395 1.16289e-07 0
0.00660395 1.16289e-07 0 0.00657495 1.13911e-07 0 0.00657495 1.13911e-07 0 0.00654625
1.11547e-07 0 0.00654625 1.11547e-07 0 0.00651785 1.09221e-07 0 0.00651785 1.09221e-07
0 0.00648974 1.06954e-07 0 0.00648974 1.06954e-07 0 0.00646192 1.04736e-07 0
0.00646192 1.04736e-07 0 0.00643439 1.02584e-07 0 0.00643439 1.02584e-07 0 0.00640714
1.00486e-07 0 0.00640714 1.00486e-07 0 0.00638016 9.84468e-08 0 0.00638016 9.84468e-08
0 0.00635345 9.64678e-08 0 0.00635345 9.64678e-08 0 0.00632701 9.45339e-08 0
0.00632701 9.45339e-08 0 0.00630081 9.26613e-08 0 0.00630081 9.26613e-08 0 0.00627487
9.0831e-08 0 0.00627487 9.0831e-08 0 0.00624917 8.90526e-08 0 0.00624917 8.90526e-08
0 0.00622372 8.7323e-08 0 0.00622372 8.7323e-08 0 0.00619849 8.56358e-08 0
0.00619849 8.56358e-08 0 0.00617349 8.39973e-08 0 0.00617349 8.39973e-08 0 0.00614871
8.24042e-08 0 0.00614871 8.24042e-08 0 0.00612415 8.08442e-08 0 0.00612415 8.08442e-08
0 0.00609981 7.93479e-08 0 0.00609981 7.93479e-08 0 0.00607566 7.78644e-08 0
0.00607566 7.78644e-08 0 0.00605173 7.64529e-08 0 0.00605173 7.64529e-08 0 0.00602794
7.52041e-08 0 0.00602794 7.52041e-08 0 0.00600439 7.34355e-08 0 0.00600439 7.34355e-08
0 0.00598118 7.17329e-08 0 0.00598118 7.17329e-08 0 0.00595791 7.15997e-08 0
0.00595791 7.15997e-08 0 0.00593427 7.21915e-08 0 0.00593427 7.21915e-08 0 0.00591037
7.20798e-08 0 0.00591037 7.20798e-08 0 0.00588644 7.1252e-08 0 0.00588644 7.1252e-08
0 0.00586263 7.00731e-08 0 0.00586263 7.00731e-08 0 0.00583901 6.87209e-08 0
0.00583901 6.87209e-08 0 0.00581563 6.7315e-08 0 0.00581563 6.7315e-08 0 0.00579248
6.59053e-08 0 0.00579248 6.59053e-08 0 0.00576958 6.45014e-08 0 0.00576958 6.45014e-08
0 0.00574693 6.31364e-08 0 0.00574693 6.31364e-08 0 0.00572452 6.17985e-08 0
0.00572452 6.17985e-08 0 0.00570236 6.04858e-08 0 0.00570236 6.04858e-08 0 0.00568044
5.92164e-08 0 0.00568044 5.92164e-08 0 0.00565875 5.79594e-08 0 0.00565875 5.79594e-08
0 0.0056373 5.6734e-08 0 0.0056373 5.6734e-08 0 0.00561608 5.55398e-08 0
0.00561608 5.55398e-08 0 0.00559509 5.43563e-08 0 0.00559509 5.43563e-08 0 0.00557433
5.3214e-08 0 0.00557433 5.3214e-08 0 0.00555379 5.21018e-08 0 0.00555379 5.21018e-08
0 0.00553347 5.10068e-08 0 0.00553347 5.10068e-08 0 0.00551335 4.99734e-08 0
0.00551335 4.99734e-08 0 0.00549344 4.89551e-08 0 0.00549344 4.89551e-08 0 0.00547372
4.79797e-08 0 0.00547372 4.79797e-08 0 0.00545418 4.70454e-08 0 0.00545418 4.70454e-08
0 0.00543483 4.61379e-08 0 0.00543483 4.61379e-08 0 0.00541564 4.52343e-08 0
0.00541564 4.52343e-08 0 0.00539666 4.44323e-08 0 0.00539666 4.44323e-08 0 0.00537776
4.36002e-08 0 0.00537776 4.36002e-08 0 0.00535919 4.2362e-08 0 0.00535919 4.2362e-08
0 0.00534083 4.18014e-08 0 0.00534083 4.18014e-08 0 0.00532213 4.22806e-08 0
0.00532213 4.22806e-08 0 0.00530312 4.24807e-08 0 0.00530312 4.24807e-08 0 0.00528403
4.20177e-08 0 0.00528403 4.20177e-08 0 0.00526507 4.12302e-08 0 0.00526507 4.12302e-08
0 0.00524631 4.0341e-08 0 0.00524631 4.0341e-08 0 0.0052278 3.93699e-08 0
0.0052278 3.93699e-08 0 0.00520954 3.83723e-08 0 0.00520954 3.83723e-08 0 0.00519156
3.7426e-08 0 0.00519156 3.7426e-08 0 0.00517385 3.64443e-08 0 0.00517385 3.64443e-08
0 0.00515642 3.54756e-08 0 0.00515642 3.54756e-08 0 0.00513927 3.45691e-08 0
0.00513927 3.45691e-08 0 0.0051224 3.36156e-08 0 0.0051224 3.36156e-08 0 0.00510582
3.26881e-08 0 0.00510582 3.26881e-08 0 0.00508953 3.18191e-08 0 0.00508953 3.18191e-08
0 0.00507352 3.08931e-08 0 0.00507352 3.08931e-08 0 0.00505782 2.99947e-08 0
0.00505782 2.99947e-08 0 0.00504241 2.91546e-08 0 0.00504241 2.91546e-08 0 0.00502731
2.82419e-08 0 0.00502731 2.82419e-08 0 0.00501253 2.73517e-08 0 0.00501253 2.73517e-08
0 0.00499805 2.65309e-08 0 0.00499805 2.65309e-08 0 0.00498391 2.56119e-08 0
0.00498391 2.56119e-08 0 0.00497011 2.47315e-08 0 0.00497011 2.47315e-08 0 0.00495663
2.3916e-08 0 0.00495663 2.3916e-08 0 0.00494351 2.30156e-08 0 0.00494351 2.30156e-08
0 0.00493074 2.21528e-08 0 0.00493074 2.21528e-08 0 0.00491832 2.13762e-08 0
0.00491832 2.13762e-08 0 0.00490623 2.04518e-08 0 0.00490623 2.04518e-08 0 0.00489461
1.95427e-08 0 0.00489461 1.95427e-08 0 0.00488319 1.92354e-08 0 0.00488319 1.92354e-08
0 0.00487167 1.91809e-08 0 0.00487167 1.91809e-08 0 0.00486018 1.88052e-08 0
0.00486018 1.88052e-08 0 0.00484889 1.82535e-08 0 0.00484889 1.82535e-08 0 0.0048379
1.75377e-08 0 0.0048379 1.75377e-08 0 0.00482731 1.66662e-08 0 0.00482731 1.66662e-08
0 0.00481712 1.5872e-08 0 0.00481712 1.5872e-08 0 0.00480734 1.51027e-08 0
0.00480734 1.51027e-08 0 0.00479801 1.42074e-08 0 0.00479801 1.42074e-08 0 0.00478914
1.33443e-08 0 0.00478914 1.33443e-08 0 0.0047807 1.25832e-08 0 0.0047807 1.25832e-08
0 0.00477271 1.17435e-08 0 0.00477271 1.17435e-08 0 0.00476522 1.08665e-08 0
0.00476522 1.08665e-08 0 0.00475816 1.01315e-08 0 0.00475816 1.01315e-08 0 0.00475152
9.43167e-09 0 0.00475152 9.43167e-09 0 0.00474534 8.63853e-09 0 0.00474534 8.63853e-09
0 0.00473959 7.91867e-09 0 0.00473959 7.91867e-09 0 0.00473422 7.35456e-09 0
0.00473422 7.35456e-09 0 0.00472921 6.74968e-09 0 0.00472921 6.74968e-09 0 0.00472462
6.07965e-09 0 0.00472462 6.07965e-09 0 0.00472037 5.5707e-09 0 0.00472037 5.5707e-09
0 0.0047164 5.19793e-09 0 0.0047164 5.19793e-09 0 0.00471274 4.7121e-09 0
0.00471274 4.7121e-09 0 0.00470945 4.15955e-09 0 0.00470945 4.15955e-09 0 0.00470646
3.75556e-09 0 0.00470646 3.75556e-09 0 0.00470374 3.4013e-09 0 0.00470374 3.4013e-09
0 0.00470137 2.88329e-09 0 0.00470137 2.88329e-09 0 0.00469938 2.34446e-09 0
0.00469938 2.34446e-09 0 0.00469768 1.96823e-09 0 0.00469768 1.96823e-09 0 0.00469628
1.61767e-09 0 0.00469628 1.61767e-09 0 0.00469518 1.28871e-09 0 0.00469518 1.28871e-09
0 0.00469418 1.16657e-09 0 0.00469418 1.16657e-09 0 0.00469314 1.20362e-09 0
0.00469314 1.20362e-09 0 0.00469212 1.12909e-09 0 0.00469212 1.12909e-09 0 0.00469131
7.92593e-10 0 0.00469131 7.92593e-10 0 0.00469081 3.98708e-10 0 0.00469081 3.98708e-10
0 0.00469051 2.03222e-10 0 0.00469051 2.03222e-10 0 0.00469035 9.89032e-11 0
0.00469035 9.89032e-11 0 0.00469041 -1.88363e-10 0 0.00469041 -1.88363e-10 0 0.00469082
-6.36752e-10 0 0.00469082 -6.36752e-10 0 0.00469154 -9.58302e-10 0 0.00469154 -9.58302e-10
0 0.00469243 -1.05914e-09 0 0.00469243 -1.05914e-09 0 0.00469346 -1.19609e-09 0
0.00469346 -1.19609e-09 0 0.00469479 -1.57616e-09 0 0.00469479 -1.57616e-09 0 0.0046965
-2.01515e-09 0 0.0046965 -2.01515e-09 0 0.00469844 -2.18917e-09 0 0.00469844 -2.18917e-09
0 0.00470043 -2.11465e-09 0 0.00470043 -2.11465e-09 0 0.00470247 -2.14255e-09 0
0.00470247 -2.14255e-09 0 0.00470478 -2.47595e-09 0 0.00470478 -2.47595e-09 0 0.00470748
-2.9025e-09 0 0.00470748 -2.9025e-09 0 0.00471044 -3.09764e-09 0 0.00471044 -3.09764e-09
0 0.00471346 -3.04778e-09 0 0.00471346 -3.04778e-09 0 0.0047165 -3.02508e-09 0
0.0047165 -3.02508e-09 0 0.00471972 -3.20972e-09 0 0.00471972 -3.20972e-09 0 0.00472321
-3.48949e-09 0 0.00472321 -3.48949e-09 0 0.00472692 -3.64232e-09 0 0.00472692 -3.64232e-09
0 0.00473068 -3.60418e-09 0 0.00473068 -3.60418e-09 0 0.00473442 -3.50231e-09 0
0.00473442 -3.50231e-09 0 0.0047382 -3.49004e-09 0 0.0047382 -3.49004e-09 0 0.00474213
-3.61333e-09 0 0.00474213 -3.61333e-09 0 0.0047463 -3.82629e-09 0 0.0047463 -3.82629e-09
0 0.00475075 -4.08623e-09 0 0.00475075 -4.08623e-09 0 0.00475548 -4.2639e-09 0
0.00475548 -4.2639e-09 0 0.00476027 -4.19079e-09 0 0.00476027 -4.19079e-09 0 0.00476482
-3.93679e-09 0 0.00476482 -3.93679e-09 0 0.00476911 -3.66936e-09 0 0.00476911 -3.66936e-09
0 0.00477321 -3.46842e-09 0 0.00477321 -3.46842e-09 0 0.00477725 -3.38525e-09 0
0.00477725 -3.38525e-09 0 0.00478136 -3.43446e-09 0 0.00478136 -3.43446e-09 0 0.00478565
-3.57877e-09 0 0.00478565 -3.57877e-09 0 0.00479018 -3.75221e-09 0 0.00479018 -3.75221e-09
0 0.00479492 -3.89611e-09 0 0.00479492 -3.89611e-09 0 0.00479982 -3.98346e-09 0
0.00479982 -3.98346e-09 0 0.00480483 -4.0199e-09 0 0.00480483 -4.0199e-09 0 0.00480992
-4.02784e-09 0 0.00480992 -4.02784e-09 0 0.00481508 -4.03005e-09 0 0.00481508 -4.03005e-09
0 0.0048203 -4.03987e-09 0 0.0048203 -4.03987e-09 0 0.00482561 -4.06093e-09 0
0.00482561 -4.06093e-09 0 0.00483102 -4.09086e-09 0 0.00483102 -4.09086e-09 0 0.00483652
-4.12502e-09 0 0.00483652 -4.12502e-09 0 0.00484214 -4.15971e-09 0 0.00484214 -4.15971e-09
0 0.00484786 -4.19175e-09 0 0.00484786 -4.19175e-09 0 0.00485367 -4.2193e-09 0
0.00485367 -4.2193e-09 0 0.00485959 -4.24182e-09 0 0.00485959 -4.24182e-09 0 0.00486559
-4.25932e-09 0 0.00486559 -4.25932e-09 0 0.00487167 -4.2731e-09 0 0.00487167 -4.2731e-09
0 0.00487784 -4.28432e-09 0 0.00487784 -4.28432e-09 0 0.00488408 -4.29362e-09 0
0.00488408 -4.29362e-09 0 0.00489041 -4.30154e-09 0 0.00489041 -4.30154e-09 0 0.00489681
-4.3082e-09 0 0.00489681 -4.3082e-09 0 0.00490329 -4.31335e-09 0 0.00490329 -4.31335e-09
0 0.00490984 -4.31668e-09 0 0.00490984 -4.31668e-09 0 0.00491646 -4.31579e-09 0
0.00491646 -4.31579e-09 0 0.00492315 -4.32082e-09 0 0.00492315 -4.32082e-09 0 0.00492992
-4.31296e-09 0 0.00492992 -4.31296e-09 0 0.00493671 -4.22538e-09 0 0.00493671 -4.22538e-09
0 0.00494333 -4.07448e-09 0 0.00494333 -4.07448e-09 0 0.00494979 -3.95116e-09 0
0.00494979 -3.95116e-09 0 0.00495616 -3.88363e-09 0 0.00495616 -3.88363e-09 0 0.00496253
-3.85051e-09 0 0.00496253 -3.85051e-09 0 0.00496893 -3.83551e-09 0 0.00496893 -3.83551e-09
0 0.00497538 -3.82953e-09 0 0.00497538 -3.82953e-09 0 0.00498189 -3.82799e-09 0
0.00498189 -3.82799e-09 0 0.00498848 -3.82826e-09 0 0.00498848 -3.82826e-09 0 0.00499513
-3.82913e-09 0 0.00499513 -3.82913e-09 0 0.00500185 -3.83035e-09 0 0.00500185 -3.83035e-09
0 0.00500864 -3.83088e-09 0 0.00500864 -3.83088e-09 0 0.00501551 -3.83076e-09 0
0.00501551 -3.83076e-09 0 0.00502244 -3.82981e-09 0 0.00502244 -3.82981e-09 0 0.00502945
-3.82815e-09 0 0.00502945 -3.82815e-09 0 0.00503653 -3.82606e-09 0 0.00503653 -3.82606e-09
0 0.00504367 -3.82298e-09 0 0.00504367 -3.82298e-09 0 0.00505088 -3.81903e-09 0
0.00505088 -3.81903e-09 0 0.00505816 -3.81457e-09 0 0.00505816 -3.81457e-09 0 0.00506551
-3.80968e-09 0 0.00506551 -3.80968e-09 0 0.00507292 -3.80351e-09 0 0.00507292 -3.80351e-09
0 0.0050804 -3.79661e-09 0 0.0050804 -3.79661e-09 0 0.00508794 -3.7894e-09 0
0.00508794 -3.7894e-09 0 0.00509554 -3.78148e-09 0 0.00509554 -3.78148e-09 0 0.00510321
-3.77302e-09 0 0.00510321 -3.77302e-09 0 0.00511094 -3.76401e-09 0 0.00511094 -3.76401e-09
0 0.00511873 -3.75424e-09 0 0.00511873 -3.75424e-09 0 0.00512658 -3.74349e-09 0
0.00512658 -3.74349e-09 0 0.00513449 -3.73176e-09 0 0.00513449 -3.73176e-09 0 0.00514245
-3.72312e-09 0 0.00514245 -3.72312e-09 0 0.00515049 -3.70494e-09 0 0.00515049 -3.70494e-09
0 0.00515854 -3.63688e-09 0 0.00515854 -3.63688e-09 0 0.00516643 -3.52469e-09 0
0.00516643 -3.52469e-09 0 0.00517415 -3.42783e-09 0 0.00517415 -3.42783e-09 0 0.00518179
-3.36951e-09 0 0.00518179 -3.36951e-09 0 0.00518941 -3.33579e-09 0 0.00518941 -3.33579e-09
0 0.00519705 -3.31534e-09 0 0.00519705 -3.31534e-09 0 0.00520473 -3.30134e-09 0
0.00520473 -3.30134e-09 0 0.00521247 -3.29067e-09 0 0.00521247 -3.29067e-09 0 0.00522026
-3.2817e-09 0 0.00522026 -3.2817e-09 0 0.00522812 -3.27324e-09 0 0.00522812 -3.27324e-09
0 0.00523603 -3.26514e-09 0 0.00523603 -3.26514e-09 0 0.00524401 -3.25732e-09 0
0.00524401 -3.25732e-09 0 0.00525205 -3.24898e-09 0 0.00525205 -3.24898e-09 0 0.00526016
-3.24001e-09 0 0.00526016 -3.24001e-09 0 0.00526833 -3.23105e-09 0 0.00526833 -3.23105e-09
0 0.00527655 -3.22149e-09 0 0.00527655 -3.22149e-09 0 0.00528484 -3.21157e-09 0
0.00528484 -3.21157e-09 0 0.00529319 -3.20148e-09 0 0.00529319 -3.20148e-09 0 0.0053016
-3.19086e-09 0 0.0053016 -3.19086e-09 0 0.00531007 -3.17978e-09 0 0.00531007 -3.17978e-09
0 0.00531859 -3.16837e-09 0 0.00531859 -3.16837e-09 0 0.00532718 -3.15661e-09 0
0.00532718 -3.15661e-09 0 0.00533582 -3.14458e-09 0 0.00533582 -3.14458e-09 0 0.00534451
-3.13249e-09 0 0.00534451 -3.13249e-09 0 0.00535326 -3.11981e-09 0 0.00535326 -3.11981e-09
0 0.00536207 -3.10673e-09 0 0.00536207 -3.10673e-09 0 0.00537093 -3.0933e-09 0
0.00537093 -3.0933e-09 0 0.00537985 -3.07929e-09 0 0.00537985 -3.07929e-09 0 0.00538881
-3.06639e-09 0 0.00538881 -3.06639e-09 0 0.00539784 -3.03312e-09 0 0.00539784 -3.03312e-09
0 0.00540679 -2.95811e-09 0 0.00540679 -2.95811e-09 0 0.00541555 -2.87366e-09 0
0.00541555 -2.87366e-09 0 0.00542417 -2.81374e-09 0 0.00542417 -2.81374e-09 0 0.00543275
-2.77652e-09 0 0.00543275 -2.77652e-09 0 0.00544133 -2.75213e-09 0 0.00544133 -2.75213e-09
0 0.00544994 -2.73412e-09 0 0.00544994 -2.73412e-09 0 0.00545858 -2.71966e-09 0
0.00545858 -2.71966e-09 0 0.00546728 -2.70708e-09 0 0.00546728 -2.70708e-09 0 0.00547602
-2.6953e-09 0 0.00547602 -2.6953e-09 0 0.00548482 -2.68391e-09 0 0.00548482 -2.68391e-09
0 0.00549367 -2.67296e-09 0 0.00549367 -2.67296e-09 0 0.00550258 -2.66191e-09 0
0.00550258 -2.66191e-09 0 0.00551155 -2.65059e-09 0 0.00551155 -2.65059e-09 0 0.00552057
-2.63939e-09 0 0.00552057 -2.63939e-09 0 0.00552964 -2.62793e-09 0 0.00552964 -2.62793e-09
0 0.00553877 -2.61619e-09 0 0.00553877 -2.61619e-09 0 0.00554795 -2.60428e-09 0
0.00554795 -2.60428e-09 0 0.00555719 -2.59207e-09 0 0.00555719 -2.59207e-09 0 0.00556647
-2.57992e-09 0 0.00556647 -2.57992e-09 0 0.00557581 -2.56764e-09 0 0.00557581 -2.56764e-09
0 0.0055852 -2.55496e-09 0 0.0055852 -2.55496e-09 0 0.00559464 -2.54214e-09 0
0.00559464 -2.54214e-09 0 0.00560414 -2.52915e-09 0 0.00560414 -2.52915e-09 0 0.00561368
-2.51638e-09 0 0.00561368 -2.51638e-09 0 0.00562327 -2.50279e-09 0 0.00562327 -2.50279e-09
0 0.0056329 -2.48907e-09 0 0.0056329 -2.48907e-09 0 0.00564259 -2.47486e-09 0
0.00564259 -2.47486e-09 0 0.00565231 -2.44333e-09 0 0.00565231 -2.44333e-09 0 0.00566195
-2.3833e-09 0 0.00566195 -2.3833e-09 0 0.0056714 -2.31958e-09 0 0.0056714 -2.31958e-09
0 0.00568072 -2.27486e-09 0 0.00568072 -2.27486e-09 0 0.00569 -2.2454e-09 0
0.00569 -2.2454e-09 0 0.00569928 -2.22459e-09 0 0.00569928 -2.22459e-09 0 0.00570857
-2.20821e-09 0 0.00570857 -2.20821e-09 0 0.00571791 -2.19391e-09 0 0.00571791 -2.19391e-09
0 0.00572728 -2.18135e-09 0 0.00572728 -2.18135e-09 0 0.0057367 -2.16978e-09 0
0.0057367 -2.16978e-09 0 0.00574617 -2.15855e-09 0 0.00574617 -2.15855e-09 0 0.00575568
-2.14734e-09 0 0.00575568 -2.14734e-09 0 0.00576525 -2.13595e-09 0 0.00576525 -2.13595e-09
0 0.00577486 -2.12467e-09 0 0.00577486 -2.12467e-09 0 0.00578452 -2.11334e-09 0
0.00578452 -2.11334e-09 0 0.00579423 -2.10201e-09 0 0.00579423 -2.10201e-09 0 0.00580399
-2.09059e-09 0 0.00580399 -2.09059e-09 0 0.00581379 -2.0788e-09 0 0.00581379 -2.0788e-09
0 0.00582364 -2.06701e-09 0 0.00582364 -2.06701e-09 0 0.00583354 -2.05526e-09 0
0.00583354 -2.05526e-09 0 0.00584348 -2.04344e-09 0 0.00584348 -2.04344e-09 0 0.00585347
-2.03147e-09 0 0.00585347 -2.03147e-09 0 0.0058635 -2.01935e-09 0 0.0058635 -2.01935e-09
0 0.00587358 -2.00697e-09 0 0.00587358 -2.00697e-09 0 0.0058837 -1.99454e-09 0
0.0058837 -1.99454e-09 0 0.00589386 -1.98276e-09 0 0.00589386 -1.98276e-09 0 0.00590407
-1.96252e-09 0 0.00590407 -1.96252e-09 0 0.00591423 -1.92103e-09 0 0.00591423 -1.92103e-09
0 0.00592422 -1.86999e-09 0 0.00592422 -1.86999e-09 0 0.00593405 -1.82982e-09 0
0.00593405 -1.82982e-09 0 0.00594381 -1.80308e-09 0 0.00594381 -1.80308e-09 0 0.00595356
-1.78441e-09 0 0.00595356 -1.78441e-09 0 0.00596332 -1.76956e-09 0 0.00596332 -1.76956e-09
0 0.00597311 -1.75669e-09 0 0.00597311 -1.75669e-09 0 0.00598293 -1.74499e-09 0
0.00598293 -1.74499e-09 0 0.00599279 -1.73382e-09 0 0.00599279 -1.73382e-09 0 0.00600269
-1.7235e-09 0 0.00600269 -1.7235e-09 0 0.00601264 -1.713e-09 0 0.00601264 -1.713e-09
0 0.00602262 -1.7024e-09 0 0.00602262 -1.7024e-09 0 0.00603265 -1.69237e-09 0
0.00603265 -1.69237e-09 0 0.00604272 -1.68202e-09 0 0.00604272 -1.68202e-09 0 0.00605284
-1.67152e-09 0 0.00605284 -1.67152e-09 0 0.006063 -1.661e-09 0 0.006063 -1.661e-09
0 0.0060732 -1.6505e-09 0 0.0060732 -1.6505e-09 0 0.00608343 -1.64e-09 0
0.00608343 -1.64e-09 0 0.00609372 -1.62952e-09 0 0.00609372 -1.62952e-09 0 0.00610404
-1.61899e-09 0 0.00610404 -1.61899e-09 0 0.0061144 -1.60822e-09 0 0.0061144 -1.60822e-09
0 0.00612479 -1.59757e-09 0 0.00612479 -1.59757e-09 0 0.00613523 -1.58666e-09 0
0.00613523 -1.58666e-09 0 0.00614571 -1.57567e-09 0 0.00614571 -1.57567e-09 0 0.00615621
-1.55571e-09 0 0.00615621 -1.55571e-09 0 0.00616663 -1.51931e-09 0 0.00616663 -1.51931e-09
0 0.00617686 -1.48036e-09 0 0.00617686 -1.48036e-09 0 0.00618697 -1.45161e-09 0
0.00618697 -1.45161e-09 0 0.00619701 -1.43204e-09 0 0.00619701 -1.43204e-09 0 0.00620705
-1.4177e-09 0 0.00620705 -1.4177e-09 0 0.0062171 -1.4058e-09 0 0.0062171 -1.4058e-09
0 0.00622718 -1.39507e-09 0 0.00622718 -1.39507e-09 0 0.00623728 -1.38531e-09 0
0.00623728 -1.38531e-09 0 0.00624743 -1.37584e-09 0 0.00624743 -1.37584e-09 0 0.0062576
-1.36615e-09 0 0.0062576 -1.36615e-09 0 0.00626782 -1.35706e-09 0 0.00626782 -1.35706e-09
0 0.00627807 -1.34801e-09 0 0.00627807 -1.34801e-09 0 0.00628836 -1.33895e-09 0
0.00628836 -1.33895e-09 0 0.00629869 -1.3301e-09 0 0.00629869 -1.3301e-09 0 0.00630905
-1.32115e-09 0 0.00630905 -1.32115e-09 0 0.00631945 -1.31155e-09 0 0.00631945 -1.31155e-09
0 0.00632989 -1.30252e-09 0 0.00632989 -1.30252e-09 0 0.00634036 -1.29401e-09 0
0.00634036 -1.29401e-09 0 0.00635087 -1.28449e-09 0 0.00635087 -1.28449e-09 0 0.00636142
-1.27545e-09 0 0.00636142 -1.27545e-09 0 0.00637199 -1.26654e-09 0 0.00637199 -1.26654e-09
0 0.00638261 -1.25752e-09 0 0.00638261 -1.25752e-09 0 0.00639325 -1.24377e-09 0
0.00639325 -1.24377e-09 0 0.00640385 -1.21738e-09 0 0.00640385 -1.21738e-09 0 0.00641426
-1.18569e-09 0 0.00641426 -1.18569e-09 0 0.00642453 -1.16102e-09 0 0.00642453 -1.16102e-09
0 0.00643472 -1.14384e-09 0 0.00643472 -1.14384e-09 0 0.00644489 -1.13097e-09 0
0.00644489 -1.13097e-09 0 0.00645507 -1.12072e-09 0 0.00645507 -1.12072e-09 0 0.00646526
-1.11174e-09 0 0.00646526 -1.11174e-09 0 0.00647549 -1.10318e-09 0 0.00647549 -1.10318e-09
0 0.00648574 -1.09503e-09 0 0.00648574 -1.09503e-09 0 0.00649602 -1.08725e-09 0
0.00649602 -1.08725e-09 0 0.00650633 -1.0795e-09 0 0.00650633 -1.0795e-09 0 0.00651668
-1.07173e-09 0 0.00651668 -1.07173e-09 0 0.00652706 -1.06381e-09 0 0.00652706 -1.06381e-09
0 0.00653748 -1.05652e-09 0 0.00653748 -1.05652e-09 0 0.00654793 -1.04814e-09 0
0.00654793 -1.04814e-09 0 0.00655839 -1.04151e-09 0 0.00655839 -1.04151e-09 0 0.00656894
-1.03138e-09 0 0.00656894 -1.03138e-09 0 0.00657941 -1.02769e-09 0 0.00657941 -1.02769e-09
0 0.0065901 -1.0155e-09 0 0.0065901 -1.0155e-09 0 0.00660053 -1.01277e-09 0
0.00660053 -1.01277e-09 0 0.00661139 -1.00235e-09 0 0.00661139 -1.00235e-09 0 0.00662181
-9.87138e-10 0 0.00662181 -9.87138e-10 0 0.00663258 -9.78244e-10 0 0.00663258 -9.78244e-10
0 0.00664301 -9.19334e-10 0 0.00664301 -9.19334e-10 0 0.00665272 -9.76195e-10 0
0.00665272 -9.76195e-10 0 0.0144728 -1.49373e-09 0 0.0144728 -1.49373e-09 0 0.0222939
-1.9143e-09 0 0.0222939 -1.9143e-09 0 
