# vtk DataFile Version 2.0
sampleSurface
ASCII
DATASET POLYDATA
POINTS 1202 float
0 0 0 5.99825e-05 0 0 5.99825e-05 0 0.1 0 0
0.1 0.000120591 0 0 0.000120591 0 0.1 0.000181831 0 0
0.000181831 0 0.1 0.000243709 0 0 0.000243709 0 0.1 0.000306234
0 0 0.000306234 0 0.1 0.00036941 0 0 0.00036941 0
0.1 0.000433245 0 0 0.000433245 0 0.1 0.000497746 0 0
0.000497746 0 0.1 0.000562919 0 0 0.000562919 0 0.1 0.000628772
0 0 0.000628772 0 0.1 0.000695312 0 0 0.000695312 0
0.1 0.000762546 0 0 0.000762546 0 0.1 0.000830481 0 0
0.000830481 0 0.1 0.000899125 0 0 0.000899125 0 0.1 0.000968484
0 0 0.000968484 0 0.1 0.00103857 0 0 0.00103857 0
0.1 0.00110938 0 0 0.00110938 0 0.1 0.00118093 0 0
0.00118093 0 0.1 0.00125323 0 0 0.00125323 0 0.1 0.00132628
0 0 0.00132628 0 0.1 0.0014001 0 0 0.0014001 0
0.1 0.00147468 0 0 0.00147468 0 0.1 0.00155004 0 0
0.00155004 0 0.1 0.00162619 0 0 0.00162619 0 0.1 0.00170313
0 0 0.00170313 0 0.1 0.00178088 0 0 0.00178088 0
0.1 0.00185943 0 0 0.00185943 0 0.1 0.00193881 0 0
0.00193881 0 0.1 0.00201901 0 0 0.00201901 0 0.1 0.00210005
0 0 0.00210005 0 0.1 0.00218193 0 0 0.00218193 0
0.1 0.00226467 0 0 0.00226467 0 0.1 0.00234827 0 0
0.00234827 0 0.1 0.00243274 0 0 0.00243274 0 0.1 0.0025181
0 0 0.0025181 0 0.1 0.00260434 0 0 0.00260434 0
0.1 0.00269148 0 0 0.00269148 0 0.1 0.00277954 0 0
0.00277954 0 0.1 0.00286851 0 0 0.00286851 0 0.1 0.0029584
0 0 0.0029584 0 0.1 0.00304924 0 0 0.00304924 0
0.1 0.00314102 0 0 0.00314102 0 0.1 0.00323376 0 0
0.00323376 0 0.1 0.00332747 0 0 0.00332747 0 0.1 0.00342215
0 0 0.00342215 0 0.1 0.00351783 0 0 0.00351783 0
0.1 0.0036145 0 0 0.0036145 0 0.1 0.00371217 0 0
0.00371217 0 0.1 0.00381087 0 0 0.00381087 0 0.1 0.0039106
0 0 0.0039106 0 0.1 0.00401136 0 0 0.00401136 0
0.1 0.00411318 0 0 0.00411318 0 0.1 0.00421606 0 0
0.00421606 0 0.1 0.00432001 0 0 0.00432001 0 0.1 0.00442505
0 0 0.00442505 0 0.1 0.00453118 0 0 0.00453118 0
0.1 0.00463842 0 0 0.00463842 0 0.1 0.00474677 0 0
0.00474677 0 0.1 0.00485626 0 0 0.00485626 0 0.1 0.00496689
0 0 0.00496689 0 0.1 0.00507867 0 0 0.00507867 0
0.1 0.00519162 0 0 0.00519162 0 0.1 0.00530574 0 0
0.00530574 0 0.1 0.00542106 0 0 0.00542106 0 0.1 0.00553758
0 0 0.00553758 0 0.1 0.00565531 0 0 0.00565531 0
0.1 0.00577427 0 0 0.00577427 0 0.1 0.00589447 0 0
0.00589447 0 0.1 0.00601593 0 0 0.00601593 0 0.1 0.00613865
0 0 0.00613865 0 0.1 0.00626266 0 0 0.00626266 0
0.1 0.00638795 0 0 0.00638795 0 0.1 0.00651455 0 0
0.00651455 0 0.1 0.00664248 0 0 0.00664248 0 0.1 0.00677173
0 0 0.00677173 0 0.1 0.00690234 0 0 0.00690234 0
0.1 0.0070343 0 0 0.0070343 0 0.1 0.00716765 0 0
0.00716765 0 0.1 0.00730238 0 0 0.00730238 0 0.1 0.00743852
0 0 0.00743852 0 0.1 0.00757608 0 0 0.00757608 0
0.1 0.00771507 0 0 0.00771507 0 0.1 0.00785551 0 0
0.00785551 0 0.1 0.00799742 0 0 0.00799742 0 0.1 0.00814081
0 0 0.00814081 0 0.1 0.00828569 0 0 0.00828569 0
0.1 0.00843209 0 0 0.00843209 0 0.1 0.00858001 0 0
0.00858001 0 0.1 0.00872947 0 0 0.00872947 0 0.1 0.00888049
0 0 0.00888049 0 0.1 0.00903309 0 0 0.00903309 0
0.1 0.00918728 0 0 0.00918728 0 0.1 0.00934307 0 0
0.00934307 0 0.1 0.00950049 0 0 0.00950049 0 0.1 0.00965956
0 0 0.00965956 0 0.1 0.00982028 0 0 0.00982028 0
0.1 0.00998268 0 0 0.00998268 0 0.1 0.0101468 0 0
0.0101468 0 0.1 0.0103126 0 0 0.0103126 0 0.1 0.0104801
0 0 0.0104801 0 0.1 0.0106494 0 0 0.0106494 0
0.1 0.0108204 0 0 0.0108204 0 0.1 0.0109933 0 0
0.0109933 0 0.1 0.0111679 0 0 0.0111679 0 0.1 0.0113443
0 0 0.0113443 0 0.1 0.0115226 0 0 0.0115226 0
0.1 0.0117028 0 0 0.0117028 0 0.1 0.0118848 0 0
0.0118848 0 0.1 0.0120687 0 0 0.0120687 0 0.1 0.0122546
0 0 0.0122546 0 0.1 0.0124424 0 0 0.0124424 0
0.1 0.0126321 0 0 0.0126321 0 0.1 0.0128238 0 0
0.0128238 0 0.1 0.0130176 0 0 0.0130176 0 0.1 0.0132133
0 0 0.0132133 0 0.1 0.0134111 0 0 0.0134111 0
0.1 0.0136109 0 0 0.0136109 0 0.1 0.0138129 0 0
0.0138129 0 0.1 0.0140169 0 0 0.0140169 0 0.1 0.0142231
0 0 0.0142231 0 0.1 0.0144314 0 0 0.0144314 0
0.1 0.0146419 0 0 0.0146419 0 0.1 0.0148546 0 0
0.0148546 0 0.1 0.0150695 0 0 0.0150695 0 0.1 0.0152866
0 0 0.0152866 0 0.1 0.015506 0 0 0.015506 0
0.1 0.0157277 0 0 0.0157277 0 0.1 0.0159517 0 0
0.0159517 0 0.1 0.016178 0 0 0.016178 0 0.1 0.0164067
0 0 0.0164067 0 0.1 0.0166378 0 0 0.0166378 0
0.1 0.0168713 0 0 0.0168713 0 0.1 0.0171073 0 0
0.0171073 0 0.1 0.0173457 0 0 0.0173457 0 0.1 0.0175865
0 0 0.0175865 0 0.1 0.0178299 0 0 0.0178299 0
0.1 0.0180759 0 0 0.0180759 0 0.1 0.0183244 0 0
0.0183244 0 0.1 0.0185754 0 0 0.0185754 0 0.1 0.0188291
0 0 0.0188291 0 0.1 0.0190855 0 0 0.0190855 0
0.1 0.0193445 0 0 0.0193445 0 0.1 0.0196063 0 0
0.0196063 0 0.1 0.0198707 0 0 0.0198707 0 0.1 0.0201379
0 0 0.0201379 0 0.1 0.0204079 0 0 0.0204079 0
0.1 0.0206807 0 0 0.0206807 0 0.1 0.0209564 0 0
0.0209564 0 0.1 0.0212349 0 0 0.0212349 0 0.1 0.0215164
0 0 0.0215164 0 0.1 0.0218008 0 0 0.0218008 0
0.1 0.0220881 0 0 0.0220881 0 0.1 0.0223784 0 0
0.0223784 0 0.1 0.0226718 0 0 0.0226718 0 0.1 0.0229682
0 0 0.0229682 0 0.1 0.0232677 0 0 0.0232677 0
0.1 0.0235704 0 0 0.0235704 0 0.1 0.0238762 0 0
0.0238762 0 0.1 0.0241852 0 0 0.0241852 0 0.1 0.0244974
0 0 0.0244974 0 0.1 0.0248128 0 0 0.0248128 0
0.1 0.0251316 0 0 0.0251316 0 0.1 0.0254537 0 0
0.0254537 0 0.1 0.0257791 0 0 0.0257791 0 0.1 0.0261079
0 0 0.0261079 0 0.1 0.0264402 0 0 0.0264402 0
0.1 0.0267759 0 0 0.0267759 0 0.1 0.0271152 0 0
0.0271152 0 0.1 0.0274579 0 0 0.0274579 0 0.1 0.0278043
0 0 0.0278043 0 0.1 0.0281542 0 0 0.0281542 0
0.1 0.0285078 0 0 0.0285078 0 0.1 0.0288651 0 0
0.0288651 0 0.1 0.0292261 0 0 0.0292261 0 0.1 0.0295909
0 0 0.0295909 0 0.1 0.0299595 0 0 0.0299595 0
0.1 0.0303319 0 0 0.0303319 0 0.1 0.0307082 0 0
0.0307082 0 0.1 0.0310885 0 0 0.0310885 0 0.1 0.0314727
0 0 0.0314727 0 0.1 0.0318609 0 0 0.0318609 0
0.1 0.0322532 0 0 0.0322532 0 0.1 0.0326495 0 0
0.0326495 0 0.1 0.03305 0 0 0.03305 0 0.1 0.0334546
0 0 0.0334546 0 0.1 0.0338635 0 0 0.0338635 0
0.1 0.0342767 0 0 0.0342767 0 0.1 0.0346941 0 0
0.0346941 0 0.1 0.0351159 0 0 0.0351159 0 0.1 0.0355421
0 0 0.0355421 0 0.1 0.0359728 0 0 0.0359728 0
0.1 0.0364079 0 0 0.0364079 0 0.1 0.0368476 0 0
0.0368476 0 0.1 0.0372919 0 0 0.0372919 0 0.1 0.0377408
0 0 0.0377408 0 0.1 0.0381944 0 0 0.0381944 0
0.1 0.0386527 0 0 0.0386527 0 0.1 0.0391158 0 0
0.0391158 0 0.1 0.0395837 0 0 0.0395837 0 0.1 0.0400565
0 0 0.0400565 0 0.1 0.0405342 0 0 0.0405342 0
0.1 0.0410169 0 0 0.0410169 0 0.1 0.0415047 0 0
0.0415047 0 0.1 0.0419975 0 0 0.0419975 0 0.1 0.0424955
0 0 0.0424955 0 0.1 0.0429986 0 0 0.0429986 0
0.1 0.0435071 0 0 0.0435071 0 0.1 0.0440208 0 0
0.0440208 0 0.1 0.0445398 0 0 0.0445398 0 0.1 0.0450643
0 0 0.0450643 0 0.1 0.0455943 0 0 0.0455943 0
0.1 0.0461298 0 0 0.0461298 0 0.1 0.0466708 0 0
0.0466708 0 0.1 0.0472176 0 0 0.0472176 0 0.1 0.04777
0 0 0.04777 0 0.1 0.0483281 0 0 0.0483281 0
0.1 0.0488921 0 0 0.0488921 0 0.1 0.049462 0 0
0.049462 0 0.1 0.0500378 0 0 0.0500378 0 0.1 0.0506197
0 0 0.0506197 0 0.1 0.0512076 0 0 0.0512076 0
0.1 0.0518016 0 0 0.0518016 0 0.1 0.0524018 0 0
0.0524018 0 0.1 0.0530083 0 0 0.0530083 0 0.1 0.0536211
0 0 0.0536211 0 0.1 0.0542403 0 0 0.0542403 0
0.1 0.0548659 0 0 0.0548659 0 0.1 0.0554981 0 0
0.0554981 0 0.1 0.0561369 0 0 0.0561369 0 0.1 0.0567823
0 0 0.0567823 0 0.1 0.0574345 0 0 0.0574345 0
0.1 0.0580934 0 0 0.0580934 0 0.1 0.0587593 0 0
0.0587593 0 0.1 0.0594321 0 0 0.0594321 0 0.1 0.0601119
0 0 0.0601119 0 0.1 0.0607987 0 0 0.0607987 0
0.1 0.0614928 0 0 0.0614928 0 0.1 0.0621941 0 0
0.0621941 0 0.1 0.0629027 0 0 0.0629027 0 0.1 0.0636187
0 0 0.0636187 0 0.1 0.0643421 0 0 0.0643421 0
0.1 0.0650732 0 0 0.0650732 0 0.1 0.0658118 0 0
0.0658118 0 0.1 0.0665581 0 0 0.0665581 0 0.1 0.0673122
0 0 0.0673122 0 0.1 0.0680742 0 0 0.0680742 0
0.1 0.0688441 0 0 0.0688441 0 0.1 0.0696221 0 0
0.0696221 0 0.1 0.0704082 0 0 0.0704082 0 0.1 0.0712024
0 0 0.0712024 0 0.1 0.072005 0 0 0.072005 0
0.1 0.0728159 0 0 0.0728159 0 0.1 0.0736353 0 0
0.0736353 0 0.1 0.0744632 0 0 0.0744632 0 0.1 0.0752998
0 0 0.0752998 0 0.1 0.076145 0 0 0.076145 0
0.1 0.0769991 0 0 0.0769991 0 0.1 0.0778621 0 0
0.0778621 0 0.1 0.0787342 0 0 0.0787342 0 0.1 0.0796153
0 0 0.0796153 0 0.1 0.0805055 0 0 0.0805055 0
0.1 0.0814051 0 0 0.0814051 0 0.1 0.0823141 0 0
0.0823141 0 0.1 0.0832325 0 0 0.0832325 0 0.1 0.0841605
0 0 0.0841605 0 0.1 0.0850982 0 0 0.0850982 0
0.1 0.0860457 0 0 0.0860457 0 0.1 0.087003 0 0
0.087003 0 0.1 0.0879704 0 0 0.0879704 0 0.1 0.0889478
0 0 0.0889478 0 0.1 0.0899354 0 0 0.0899354 0
0.1 0.0909333 0 0 0.0909333 0 0.1 0.0919416 0 0
0.0919416 0 0.1 0.0929605 0 0 0.0929605 0 0.1 0.0939899
0 0 0.0939899 0 0.1 0.0950302 0 0 0.0950302 0
0.1 0.0960812 0 0 0.0960812 0 0.1 0.0971432 0 0
0.0971432 0 0.1 0.0982163 0 0 0.0982163 0 0.1 0.0993006
0 0 0.0993006 0 0.1 0.100396 0 0 0.100396 0
0.1 0.101503 0 0 0.101503 0 0.1 0.102622 0 0
0.102622 0 0.1 0.103752 0 0 0.103752 0 0.1 0.104894
0 0 0.104894 0 0.1 0.106048 0 0 0.106048 0
0.1 0.107214 0 0 0.107214 0 0.1 0.108392 0 0
0.108392 0 0.1 0.109582 0 0 0.109582 0 0.1 0.110785
0 0 0.110785 0 0.1 0.112001 0 0 0.112001 0
0.1 0.113229 0 0 0.113229 0 0.1 0.114469 0 0
0.114469 0 0.1 0.115723 0 0 0.115723 0 0.1 0.11699
0 0 0.11699 0 0.1 0.11827 0 0 0.11827 0
0.1 0.119564 0 0 0.119564 0 0.1 0.12087 0 0
0.12087 0 0.1 0.122191 0 0 0.122191 0 0.1 0.123525
0 0 0.123525 0 0.1 0.124873 0 0 0.124873 0
0.1 0.126236 0 0 0.126236 0 0.1 0.127612 0 0
0.127612 0 0.1 0.129003 0 0 0.129003 0 0.1 0.130408
0 0 0.130408 0 0.1 0.131828 0 0 0.131828 0
0.1 0.133263 0 0 0.133263 0 0.1 0.134713 0 0
0.134713 0 0.1 0.136178 0 0 0.136178 0 0.1 0.137658
0 0 0.137658 0 0.1 0.139154 0 0 0.139154 0
0.1 0.140665 0 0 0.140665 0 0.1 0.142192 0 0
0.142192 0 0.1 0.143735 0 0 0.143735 0 0.1 0.145294
0 0 0.145294 0 0.1 0.146869 0 0 0.146869 0
0.1 0.148461 0 0 0.148461 0 0.1 0.150069 0 0
0.150069 0 0.1 0.151694 0 0 0.151694 0 0.1 0.153336
0 0 0.153336 0 0.1 0.154995 0 0 0.154995 0
0.1 0.156672 0 0 0.156672 0 0.1 0.158366 0 0
0.158366 0 0.1 0.160077 0 0 0.160077 0 0.1 0.161807
0 0 0.161807 0 0.1 0.163554 0 0 0.163554 0
0.1 0.16532 0 0 0.16532 0 0.1 0.167104 0 0
0.167104 0 0.1 0.168907 0 0 0.168907 0 0.1 0.170728
0 0 0.170728 0 0.1 0.172569 0 0 0.172569 0
0.1 0.174428 0 0 0.174428 0 0.1 0.176307 0 0
0.176307 0 0.1 0.178206 0 0 0.178206 0 0.1 0.180124
0 0 0.180124 0 0.1 0.182063 0 0 0.182063 0
0.1 0.184022 0 0 0.184022 0 0.1 0.186001 0 0
0.186001 0 0.1 0.188001 0 0 0.188001 0 0.1 0.190021
0 0 0.190021 0 0.1 0.192063 0 0 0.192063 0
0.1 0.194126 0 0 0.194126 0 0.1 0.19621 0 0
0.19621 0 0.1 0.198317 0 0 0.198317 0 0.1 0.200445
0 0 0.200445 0 0.1 0.202595 0 0 0.202595 0
0.1 0.204768 0 0 0.204768 0 0.1 0.206964 0 0
0.206964 0 0.1 0.209182 0 0 0.209182 0 0.1 0.211424
0 0 0.211424 0 0.1 0.213689 0 0 0.213689 0
0.1 0.215977 0 0 0.215977 0 0.1 0.21829 0 0
0.21829 0 0.1 0.220626 0 0 0.220626 0 0.1 0.222987
0 0 0.222987 0 0.1 0.225372 0 0 0.225372 0
0.1 0.227783 0 0 0.227783 0 0.1 0.230218 0 0
0.230218 0 0.1 0.232679 0 0 0.232679 0 0.1 0.235166
0 0 0.235166 0 0.1 0.237678 0 0 0.237678 0
0.1 0.240217 0 0 0.240217 0 0.1 0.242782 0 0
0.242782 0 0.1 0.245374 0 0 0.245374 0 0.1 0.247993
0 0 0.247993 0 0.1 0.25064 0 0 0.25064 0
0.1 0.253313 0 0 0.253313 0 0.1 0.256015 0 0
0.256015 0 0.1 0.258745 0 0 0.258745 0 0.1 0.261504
0 0 0.261504 0 0.1 0.264291 0 0 0.264291 0
0.1 0.267107 0 0 0.267107 0 0.1 0.269953 0 0
0.269953 0 0.1 0.272828 0 0 0.272828 0 0.1 0.275733
0 0 0.275733 0 0.1 0.278669 0 0 0.278669 0
0.1 0.281635 0 0 0.281635 0 0.1 0.284632 0 0
0.284632 0 0.1 0.287661 0 0 0.287661 0 0.1 0.290721
0 0 0.290721 0 0.1 0.293813 0 0 0.293813 0
0.1 0.296937 0 0 0.296937 0 0.1 0.300093 0 0
0.300093 0 0.1 0.303283 0 0 0.303283 0 0.1 0.306506
0 0 0.306506 0 0.1 0.309763 0 0 0.309763 0
0.1 0.313053 0 0 0.313053 0 0.1 0.316378 0 0
0.316378 0 0.1 0.319737 0 0 0.319737 0 0.1 0.323132
0 0 0.323132 0 0.1 0.326562 0 0 0.326562 0
0.1 0.330027 0 0 0.330027 0 0.1 0.333529 0 0
0.333529 0 0.1 0.337068 0 0 0.337068 0 0.1 0.340643
0 0 0.340643 0 0.1 0.344255 0 0 0.344255 0
0.1 0.347906 0 0 0.347906 0 0.1 0.351594 0 0
0.351594 0 0.1 0.355321 0 0 0.355321 0 0.1 0.359086
0 0 0.359086 0 0.1 0.362891 0 0 0.362891 0
0.1 0.366736 0 0 0.366736 0 0.1 0.37062 0 0
0.37062 0 0.1 0.374546 0 0 0.374546 0 0.1 0.378512
0 0 0.378512 0 0.1 0.382519 0 0 0.382519 0
0.1 0.386568 0 0 0.386568 0 0.1 0.39066 0 0
0.39066 0 0.1 0.394794 0 0 0.394794 0 0.1 0.398971
0 0 0.398971 0 0.1 0.403192 0 0 0.403192 0
0.1 0.407457 0 0 0.407457 0 0.1 0.411766 0 0
0.411766 0 0.1 0.416121 0 0 0.416121 0 0.1 0.42052
0 0 0.42052 0 0.1 0.424966 0 0 0.424966 0
0.1 0.429458 0 0 0.429458 0 0.1 0.433997 0 0
0.433997 0 0.1 0.438583 0 0 0.438583 0 0.1 0.443217
0 0 0.443217 0 0.1 0.447899 0 0 0.447899 0
0.1 0.45263 0 0 0.45263 0 0.1 0.457411 0 0
0.457411 0 0.1 0.462241 0 0 0.462241 0 0.1 0.467122
0 0 0.467122 0 0.1 0.472053 0 0 0.472053 0
0.1 0.477036 0 0 0.477036 0 0.1 0.482071 0 0
0.482071 0 0.1 0.487159 0 0 0.487159 0 0.1 0.492299
0 0 0.492299 0 0.1 0.497493 0 0 0.497493 0
0.1 0.502742 0 0 0.502742 0 0.1 0.508045 0 0
0.508045 0 0.1 0.513403 0 0 0.513403 0 0.1 0.518817
0 0 0.518817 0 0.1 0.524288 0 0 0.524288 0
0.1 0.529816 0 0 0.529816 0 0.1 0.535401 0 0
0.535401 0 0.1 0.541045 0 0 0.541045 0 0.1 0.546748
0 0 0.546748 0 0.1 0.55251 0 0 0.55251 0
0.1 0.558332 0 0 0.558332 0 0.1 0.564215 0 0
0.564215 0 0.1 0.570159 0 0 0.570159 0 0.1 0.576165
0 0 0.576165 0 0.1 0.582234 0 0 0.582234 0
0.1 0.588366 0 0 0.588366 0 0.1 0.594562 0 0
0.594562 0 0.1 0.600822 0 0 0.600822 0 0.1 0.607148
0 0 0.607148 0 0.1 0.61354 0 0 0.61354 0
0.1 0.619999 0 0 0.619999 0 0.1 0.626525 0 0
0.626525 0 0.1 0.633119 0 0 0.633119 0 0.1 0.639782
0 0 0.639782 0 0.1 0.646514 0 0 0.646514 0
0.1 0.653316 0 0 0.653316 0 0.1 0.66019 0 0
0.66019 0 0.1 0.667135 0 0 0.667135 0 0.1 0.674152
0 0 0.674152 0 0.1 0.681243 0 0 0.681243 0
0.1 0.688408 0 0 0.688408 0 0.1 0.695647 0 0
0.695647 0 0.1 0.702962 0 0 0.702962 0 0.1 0.710353
0 0 0.710353 0 0.1 0.717821 0 0 0.717821 0
0.1 0.725367 0 0 0.725367 0 0.1 0.732992 0 0
0.732992 0 0.1 0.740697 0 0 0.740697 0 0.1 0.748481
0 0 0.748481 0 0.1 0.756347 0 0 0.756347 0
0.1 0.764295 0 0 0.764295 0 0.1 0.772326 0 0
0.772326 0 0.1 0.78044 0 0 0.78044 0 0.1 0.78864
0 0 0.78864 0 0.1 0.796924 0 0 0.796924 0
0.1 0.805295 0 0 0.805295 0 0.1 0.813754 0 0
0.813754 0 0.1 0.8223 0 0 0.8223 0 0.1 0.830936
0 0 0.830936 0 0.1 0.839662 0 0 0.839662 0
0.1 0.848479 0 0 0.848479 0 0.1 0.857387 0 0
0.857387 0 0.1 0.866389 0 0 0.866389 0 0.1 0.875485
0 0 0.875485 0 0.1 0.884675 0 0 0.884675 0
0.1 0.893961 0 0 0.893961 0 0.1 0.903344 0 0
0.903344 0 0.1 0.912825 0 0 0.912825 0 0.1 0.922405
0 0 0.922405 0 0.1 0.932085 0 0 0.932085 0
0.1 0.941865 0 0 0.941865 0 0.1 0.951748 0 0
0.951748 0 0.1 0.961734 0 0 0.961734 0 0.1 0.971824
0 0 0.971824 0 0.1 0.982019 0 0 0.982019 0
0.1 0.99232 0 0 0.99232 0 0.1 1.00273 0 0
1.00273 0 0.1 1.01325 0 0 1.01325 0 0.1 1.02387
0 0 1.02387 0 0.1 1.03461 0 0 1.03461 0
0.1 1.04546 0 0 1.04546 0 0.1 1.05642 0 0
1.05642 0 0.1 1.0675 0 0 1.0675 0 0.1 1.07869
0 0 1.07869 0 0.1 1.09 0 0 1.09 0
0.1 1.10143 0 0 1.10143 0 0.1 1.11298 0 0
1.11298 0 0.1 1.12465 0 0 1.12465 0 0.1 1.13644
0 0 1.13644 0 0.1 1.14835 0 0 1.14835 0
0.1 1.16038 0 0 1.16038 0 0.1 1.17254 0 0
1.17254 0 0.1 1.18483 0 0 1.18483 0 0.1 1.19725
0 0 1.19725 0 0.1 1.2098 0 0 1.2098 0
0.1 1.22247 0 0 1.22247 0 0.1 1.23528 0 0
1.23528 0 0.1 1.24822 0 0 1.24822 0 0.1 1.2613
0 0 1.2613 0 0.1 1.27452 0 0 1.27452 0
0.1 1.28787 0 0 1.28787 0 0.1 1.30136 0 0
1.30136 0 0.1 1.31499 0 0 1.31499 0 0.1 1.32877
0 0 1.32877 0 0.1 1.34268 0 0 1.34268 0
0.1 1.35675 0 0 1.35675 0 0.1 1.37095 0 0
1.37095 0 0.1 1.38531 0 0 1.38531 0 0.1 1.39982
0 0 1.39982 0 0.1 1.41448 0 0 1.41448 0
0.1 1.42929 0 0 1.42929 0 0.1 1.44426 0 0
1.44426 0 0.1 1.45938 0 0 1.45938 0 0.1 1.47466
0 0 1.47466 0 0.1 1.4901 0 0 1.4901 0
0.1 1.5057 0 0 1.5057 0 0.1 1.52146 0 0
1.52146 0 0.1 1.53739 0 0 1.53739 0 0.1 1.55348
0 0 1.55348 0 0.1 1.56974 0 0 1.56974 0
0.1 1.58617 0 0 1.58617 0 0.1 1.60278 0 0
1.60278 0 0.1 1.61955 0 0 1.61955 0 0.1 1.6365
0 0 1.6365 0 0.1 1.65363 0 0 1.65363 0
0.1 1.67093 0 0 1.67093 0 0.1 1.68842 0 0
1.68842 0 0.1 1.70609 0 0 1.70609 0 0.1 1.72394
0 0 1.72394 0 0.1 1.74198 0 0 1.74198 0
0.1 1.76021 0 0 1.76021 0 0.1 1.77862 0 0
1.77862 0 0.1 1.79723 0 0 1.79723 0 0.1 1.81604
0 0 1.81604 0 0.1 1.83504 0 0 1.83504 0
0.1 1.85423 0 0 1.85423 0 0.1 1.87363 0 0
1.87363 0 0.1 1.89323 0 0 1.89323 0 0.1 1.91304
0 0 1.91304 0 0.1 1.93305 0 0 1.93305 0
0.1 1.95327 0 0 1.95327 0 0.1 1.9737 0 0
1.9737 0 0.1 1.99434 0 0 1.99434 0 0.1 2.0152
0 0 2.0152 0 0.1 2.03628 0 0 2.03628 0
0.1 2.05757 0 0 2.05757 0 0.1 2.07909 0 0
2.07909 0 0.1 2.10083 0 0 2.10083 0 0.1 2.1228
0 0 2.1228 0 0.1 2.145 0 0 2.145 0
0.1 2.16743 0 0 2.16743 0 0.1 2.1901 0 0
2.1901 0 0.1 2.213 0 0 2.213 0 0.1 2.23614
0 0 2.23614 0 0.1 2.25952 0 0 2.25952 0
0.1 2.28314 0 0 2.28314 0 0.1 2.30701 0 0
2.30701 0 0.1 2.33113 0 0 2.33113 0 0.1 2.3555
0 0 2.3555 0 0.1 2.38013 0 0 2.38013 0
0.1 2.40501 0 0 2.40501 0 0.1 2.43015 0 0
2.43015 0 0.1 2.45556 0 0 2.45556 0 0.1 2.48122
0 0 2.48122 0 0.1 2.50716 0 0 2.50716 0
0.1 2.53337 0 0 2.53337 0 0.1 2.55985 0 0
2.55985 0 0.1 2.58661 0 0 2.58661 0 0.1 2.61364
0 0 2.61364 0 0.1 2.64096 0 0 2.64096 0
0.1 2.66856 0 0 2.66856 0 0.1 2.69645 0 0
2.69645 0 0.1 2.72463 0 0 2.72463 0 0.1 2.75311
0 0 2.75311 0 0.1 2.78188 0 0 2.78188 0
0.1 2.81095 0 0 2.81095 0 0.1 2.84033 0 0
2.84033 0 0.1 2.87001 0 0 2.87001 0 0.1 2.9
0 0 2.9 0 0.1 
POLYGONS 600 3000
4 0 1 2 3 4 1 4 5 2 4
4 6 7 5 4 6 8 9 7 4
8 10 11 9 4 10 12 13 11 4
12 14 15 13 4 14 16 17 15 4
16 18 19 17 4 18 20 21 19 4
20 22 23 21 4 22 24 25 23 4
24 26 27 25 4 26 28 29 27 4
28 30 31 29 4 30 32 33 31 4
32 34 35 33 4 34 36 37 35 4
36 38 39 37 4 38 40 41 39 4
40 42 43 41 4 42 44 45 43 4
44 46 47 45 4 46 48 49 47 4
48 50 51 49 4 50 52 53 51 4
52 54 55 53 4 54 56 57 55 4
56 58 59 57 4 58 60 61 59 4
60 62 63 61 4 62 64 65 63 4
64 66 67 65 4 66 68 69 67 4
68 70 71 69 4 70 72 73 71 4
72 74 75 73 4 74 76 77 75 4
76 78 79 77 4 78 80 81 79 4
80 82 83 81 4 82 84 85 83 4
84 86 87 85 4 86 88 89 87 4
88 90 91 89 4 90 92 93 91 4
92 94 95 93 4 94 96 97 95 4
96 98 99 97 4 98 100 101 99 4
100 102 103 101 4 102 104 105 103 4
104 106 107 105 4 106 108 109 107 4
108 110 111 109 4 110 112 113 111 4
112 114 115 113 4 114 116 117 115 4
116 118 119 117 4 118 120 121 119 4
120 122 123 121 4 122 124 125 123 4
124 126 127 125 4 126 128 129 127 4
128 130 131 129 4 130 132 133 131 4
132 134 135 133 4 134 136 137 135 4
136 138 139 137 4 138 140 141 139 4
140 142 143 141 4 142 144 145 143 4
144 146 147 145 4 146 148 149 147 4
148 150 151 149 4 150 152 153 151 4
152 154 155 153 4 154 156 157 155 4
156 158 159 157 4 158 160 161 159 4
160 162 163 161 4 162 164 165 163 4
164 166 167 165 4 166 168 169 167 4
168 170 171 169 4 170 172 173 171 4
172 174 175 173 4 174 176 177 175 4
176 178 179 177 4 178 180 181 179 4
180 182 183 181 4 182 184 185 183 4
184 186 187 185 4 186 188 189 187 4
188 190 191 189 4 190 192 193 191 4
192 194 195 193 4 194 196 197 195 4
196 198 199 197 4 198 200 201 199 4
200 202 203 201 4 202 204 205 203 4
204 206 207 205 4 206 208 209 207 4
208 210 211 209 4 210 212 213 211 4
212 214 215 213 4 214 216 217 215 4
216 218 219 217 4 218 220 221 219 4
220 222 223 221 4 222 224 225 223 4
224 226 227 225 4 226 228 229 227 4
228 230 231 229 4 230 232 233 231 4
232 234 235 233 4 234 236 237 235 4
236 238 239 237 4 238 240 241 239 4
240 242 243 241 4 242 244 245 243 4
244 246 247 245 4 246 248 249 247 4
248 250 251 249 4 250 252 253 251 4
252 254 255 253 4 254 256 257 255 4
256 258 259 257 4 258 260 261 259 4
260 262 263 261 4 262 264 265 263 4
264 266 267 265 4 266 268 269 267 4
268 270 271 269 4 270 272 273 271 4
272 274 275 273 4 274 276 277 275 4
276 278 279 277 4 278 280 281 279 4
280 282 283 281 4 282 284 285 283 4
284 286 287 285 4 286 288 289 287 4
288 290 291 289 4 290 292 293 291 4
292 294 295 293 4 294 296 297 295 4
296 298 299 297 4 298 300 301 299 4
300 302 303 301 4 302 304 305 303 4
304 306 307 305 4 306 308 309 307 4
308 310 311 309 4 310 312 313 311 4
312 314 315 313 4 314 316 317 315 4
316 318 319 317 4 318 320 321 319 4
320 322 323 321 4 322 324 325 323 4
324 326 327 325 4 326 328 329 327 4
328 330 331 329 4 330 332 333 331 4
332 334 335 333 4 334 336 337 335 4
336 338 339 337 4 338 340 341 339 4
340 342 343 341 4 342 344 345 343 4
344 346 347 345 4 346 348 349 347 4
348 350 351 349 4 350 352 353 351 4
352 354 355 353 4 354 356 357 355 4
356 358 359 357 4 358 360 361 359 4
360 362 363 361 4 362 364 365 363 4
364 366 367 365 4 366 368 369 367 4
368 370 371 369 4 370 372 373 371 4
372 374 375 373 4 374 376 377 375 4
376 378 379 377 4 378 380 381 379 4
380 382 383 381 4 382 384 385 383 4
384 386 387 385 4 386 388 389 387 4
388 390 391 389 4 390 392 393 391 4
392 394 395 393 4 394 396 397 395 4
396 398 399 397 4 398 400 401 399 4
400 402 403 401 4 402 404 405 403 4
404 406 407 405 4 406 408 409 407 4
408 410 411 409 4 410 412 413 411 4
412 414 415 413 4 414 416 417 415 4
416 418 419 417 4 418 420 421 419 4
420 422 423 421 4 422 424 425 423 4
424 426 427 425 4 426 428 429 427 4
428 430 431 429 4 430 432 433 431 4
432 434 435 433 4 434 436 437 435 4
436 438 439 437 4 438 440 441 439 4
440 442 443 441 4 442 444 445 443 4
444 446 447 445 4 446 448 449 447 4
448 450 451 449 4 450 452 453 451 4
452 454 455 453 4 454 456 457 455 4
456 458 459 457 4 458 460 461 459 4
460 462 463 461 4 462 464 465 463 4
464 466 467 465 4 466 468 469 467 4
468 470 471 469 4 470 472 473 471 4
472 474 475 473 4 474 476 477 475 4
476 478 479 477 4 478 480 481 479 4
480 482 483 481 4 482 484 485 483 4
484 486 487 485 4 486 488 489 487 4
488 490 491 489 4 490 492 493 491 4
492 494 495 493 4 494 496 497 495 4
496 498 499 497 4 498 500 501 499 4
500 502 503 501 4 502 504 505 503 4
504 506 507 505 4 506 508 509 507 4
508 510 511 509 4 510 512 513 511 4
512 514 515 513 4 514 516 517 515 4
516 518 519 517 4 518 520 521 519 4
520 522 523 521 4 522 524 525 523 4
524 526 527 525 4 526 528 529 527 4
528 530 531 529 4 530 532 533 531 4
532 534 535 533 4 534 536 537 535 4
536 538 539 537 4 538 540 541 539 4
540 542 543 541 4 542 544 545 543 4
544 546 547 545 4 546 548 549 547 4
548 550 551 549 4 550 552 553 551 4
552 554 555 553 4 554 556 557 555 4
556 558 559 557 4 558 560 561 559 4
560 562 563 561 4 562 564 565 563 4
564 566 567 565 4 566 568 569 567 4
568 570 571 569 4 570 572 573 571 4
572 574 575 573 4 574 576 577 575 4
576 578 579 577 4 578 580 581 579 4
580 582 583 581 4 582 584 585 583 4
584 586 587 585 4 586 588 589 587 4
588 590 591 589 4 590 592 593 591 4
592 594 595 593 4 594 596 597 595 4
596 598 599 597 4 598 600 601 599 4
600 602 603 601 4 602 604 605 603 4
604 606 607 605 4 606 608 609 607 4
608 610 611 609 4 610 612 613 611 4
612 614 615 613 4 614 616 617 615 4
616 618 619 617 4 618 620 621 619 4
620 622 623 621 4 622 624 625 623 4
624 626 627 625 4 626 628 629 627 4
628 630 631 629 4 630 632 633 631 4
632 634 635 633 4 634 636 637 635 4
636 638 639 637 4 638 640 641 639 4
640 642 643 641 4 642 644 645 643 4
644 646 647 645 4 646 648 649 647 4
648 650 651 649 4 650 652 653 651 4
652 654 655 653 4 654 656 657 655 4
656 658 659 657 4 658 660 661 659 4
660 662 663 661 4 662 664 665 663 4
664 666 667 665 4 666 668 669 667 4
668 670 671 669 4 670 672 673 671 4
672 674 675 673 4 674 676 677 675 4
676 678 679 677 4 678 680 681 679 4
680 682 683 681 4 682 684 685 683 4
684 686 687 685 4 686 688 689 687 4
688 690 691 689 4 690 692 693 691 4
692 694 695 693 4 694 696 697 695 4
696 698 699 697 4 698 700 701 699 4
700 702 703 701 4 702 704 705 703 4
704 706 707 705 4 706 708 709 707 4
708 710 711 709 4 710 712 713 711 4
712 714 715 713 4 714 716 717 715 4
716 718 719 717 4 718 720 721 719 4
720 722 723 721 4 722 724 725 723 4
724 726 727 725 4 726 728 729 727 4
728 730 731 729 4 730 732 733 731 4
732 734 735 733 4 734 736 737 735 4
736 738 739 737 4 738 740 741 739 4
740 742 743 741 4 742 744 745 743 4
744 746 747 745 4 746 748 749 747 4
748 750 751 749 4 750 752 753 751 4
752 754 755 753 4 754 756 757 755 4
756 758 759 757 4 758 760 761 759 4
760 762 763 761 4 762 764 765 763 4
764 766 767 765 4 766 768 769 767 4
768 770 771 769 4 770 772 773 771 4
772 774 775 773 4 774 776 777 775 4
776 778 779 777 4 778 780 781 779 4
780 782 783 781 4 782 784 785 783 4
784 786 787 785 4 786 788 789 787 4
788 790 791 789 4 790 792 793 791 4
792 794 795 793 4 794 796 797 795 4
796 798 799 797 4 798 800 801 799 4
800 802 803 801 4 802 804 805 803 4
804 806 807 805 4 806 808 809 807 4
808 810 811 809 4 810 812 813 811 4
812 814 815 813 4 814 816 817 815 4
816 818 819 817 4 818 820 821 819 4
820 822 823 821 4 822 824 825 823 4
824 826 827 825 4 826 828 829 827 4
828 830 831 829 4 830 832 833 831 4
832 834 835 833 4 834 836 837 835 4
836 838 839 837 4 838 840 841 839 4
840 842 843 841 4 842 844 845 843 4
844 846 847 845 4 846 848 849 847 4
848 850 851 849 4 850 852 853 851 4
852 854 855 853 4 854 856 857 855 4
856 858 859 857 4 858 860 861 859 4
860 862 863 861 4 862 864 865 863 4
864 866 867 865 4 866 868 869 867 4
868 870 871 869 4 870 872 873 871 4
872 874 875 873 4 874 876 877 875 4
876 878 879 877 4 878 880 881 879 4
880 882 883 881 4 882 884 885 883 4
884 886 887 885 4 886 888 889 887 4
888 890 891 889 4 890 892 893 891 4
892 894 895 893 4 894 896 897 895 4
896 898 899 897 4 898 900 901 899 4
900 902 903 901 4 902 904 905 903 4
904 906 907 905 4 906 908 909 907 4
908 910 911 909 4 910 912 913 911 4
912 914 915 913 4 914 916 917 915 4
916 918 919 917 4 918 920 921 919 4
920 922 923 921 4 922 924 925 923 4
924 926 927 925 4 926 928 929 927 4
928 930 931 929 4 930 932 933 931 4
932 934 935 933 4 934 936 937 935 4
936 938 939 937 4 938 940 941 939 4
940 942 943 941 4 942 944 945 943 4
944 946 947 945 4 946 948 949 947 4
948 950 951 949 4 950 952 953 951 4
952 954 955 953 4 954 956 957 955 4
956 958 959 957 4 958 960 961 959 4
960 962 963 961 4 962 964 965 963 4
964 966 967 965 4 966 968 969 967 4
968 970 971 969 4 970 972 973 971 4
972 974 975 973 4 974 976 977 975 4
976 978 979 977 4 978 980 981 979 4
980 982 983 981 4 982 984 985 983 4
984 986 987 985 4 986 988 989 987 4
988 990 991 989 4 990 992 993 991 4
992 994 995 993 4 994 996 997 995 4
996 998 999 997 4 998 1000 1001 999 4
1000 1002 1003 1001 4 1002 1004 1005 1003 4
1004 1006 1007 1005 4 1006 1008 1009 1007 4
1008 1010 1011 1009 4 1010 1012 1013 1011 4
1012 1014 1015 1013 4 1014 1016 1017 1015 4
1016 1018 1019 1017 4 1018 1020 1021 1019 4
1020 1022 1023 1021 4 1022 1024 1025 1023 4
1024 1026 1027 1025 4 1026 1028 1029 1027 4
1028 1030 1031 1029 4 1030 1032 1033 1031 4
1032 1034 1035 1033 4 1034 1036 1037 1035 4
1036 1038 1039 1037 4 1038 1040 1041 1039 4
1040 1042 1043 1041 4 1042 1044 1045 1043 4
1044 1046 1047 1045 4 1046 1048 1049 1047 4
1048 1050 1051 1049 4 1050 1052 1053 1051 4
1052 1054 1055 1053 4 1054 1056 1057 1055 4
1056 1058 1059 1057 4 1058 1060 1061 1059 4
1060 1062 1063 1061 4 1062 1064 1065 1063 4
1064 1066 1067 1065 4 1066 1068 1069 1067 4
1068 1070 1071 1069 4 1070 1072 1073 1071 4
1072 1074 1075 1073 4 1074 1076 1077 1075 4
1076 1078 1079 1077 4 1078 1080 1081 1079 4
1080 1082 1083 1081 4 1082 1084 1085 1083 4
1084 1086 1087 1085 4 1086 1088 1089 1087 4
1088 1090 1091 1089 4 1090 1092 1093 1091 4
1092 1094 1095 1093 4 1094 1096 1097 1095 4
1096 1098 1099 1097 4 1098 1100 1101 1099 4
1100 1102 1103 1101 4 1102 1104 1105 1103 4
1104 1106 1107 1105 4 1106 1108 1109 1107 4
1108 1110 1111 1109 4 1110 1112 1113 1111 4
1112 1114 1115 1113 4 1114 1116 1117 1115 4
1116 1118 1119 1117 4 1118 1120 1121 1119 4
1120 1122 1123 1121 4 1122 1124 1125 1123 4
1124 1126 1127 1125 4 1126 1128 1129 1127 4
1128 1130 1131 1129 4 1130 1132 1133 1131 4
1132 1134 1135 1133 4 1134 1136 1137 1135 4
1136 1138 1139 1137 4 1138 1140 1141 1139 4
1140 1142 1143 1141 4 1142 1144 1145 1143 4
1144 1146 1147 1145 4 1146 1148 1149 1147 4
1148 1150 1151 1149 4 1150 1152 1153 1151 4
1152 1154 1155 1153 4 1154 1156 1157 1155 4
1156 1158 1159 1157 4 1158 1160 1161 1159 4
1160 1162 1163 1161 4 1162 1164 1165 1163 4
1164 1166 1167 1165 4 1166 1168 1169 1167 4
1168 1170 1171 1169 4 1170 1172 1173 1171 4
1172 1174 1175 1173 4 1174 1176 1177 1175 4
1176 1178 1179 1177 4 1178 1180 1181 1179 4
1180 1182 1183 1181 4 1182 1184 1185 1183 4
1184 1186 1187 1185 4 1186 1188 1189 1187 4
1188 1190 1191 1189 4 1190 1192 1193 1191 4
1192 1194 1195 1193 4 1194 1196 1197 1195 4
1196 1198 1199 1197 4 1198 1200 1201 1199 
POINT_DATA 1202
FIELD attributes 1
U 3 1202 float
1.5475 0.0341762 0 0.870643 0.0236614 0 0.870643 0.0236614 0 1.5475 0.0341762
0 0.166507 0.00857596 0 0.166507 0.00857596 0 0.122495 0.00259065 0
0.122495 0.00259065 0 0.0964768 0.000774391 0 0.0964768 0.000774391 0 0.0819135
0.000279408 0 0.0819135 0.000279408 0 0.0731387 0.000175133 0 0.0731387 0.000175133
0 0.0669897 0.000158053 0 0.0669897 0.000158053 0 0.0622078 0.000141825 0
0.0622078 0.000141825 0 0.0583198 0.000120928 0 0.0583198 0.000120928 0 0.0550912
0.00010103 0 0.0550912 0.00010103 0 0.0523559 8.59673e-05 0 0.0523559 8.59673e-05
0 0.0499887 7.56963e-05 0 0.0499887 7.56963e-05 0 0.0479008 6.77913e-05 0
0.0479008 6.77913e-05 0 0.0460345 6.12176e-05 0 0.0460345 6.12176e-05 0 0.0443504
5.55878e-05 0 0.0443504 5.55878e-05 0 0.0428197 5.06842e-05 0 0.0428197 5.06842e-05
0 0.0414206 4.63671e-05 0 0.0414206 4.63671e-05 0 0.0401354 4.25424e-05 0
0.0401354 4.25424e-05 0 0.0389499 3.91404e-05 0 0.0389499 3.91404e-05 0 0.0378524
3.61051e-05 0 0.0378524 3.61051e-05 0 0.0368328 3.33899e-05 0 0.0368328 3.33899e-05
0 0.0358826 3.09553e-05 0 0.0358826 3.09553e-05 0 0.0349945 2.87672e-05 0
0.0349945 2.87672e-05 0 0.0341621 2.6796e-05 0 0.0341621 2.6796e-05 0 0.0333798
2.50159e-05 0 0.0333798 2.50159e-05 0 0.032643 2.34047e-05 0 0.032643 2.34047e-05
0 0.0319472 2.19423e-05 0 0.0319472 2.19423e-05 0 0.0312889 2.06121e-05 0
0.0312889 2.06121e-05 0 0.0306647 1.93988e-05 0 0.0306647 1.93988e-05 0 0.0300717
1.82895e-05 0 0.0300717 1.82895e-05 0 0.0295073 1.7273e-05 0 0.0295073 1.7273e-05
0 0.0289693 1.6339e-05 0 0.0289693 1.6339e-05 0 0.0284554 1.54805e-05 0
0.0284554 1.54805e-05 0 0.027964 1.46864e-05 0 0.027964 1.46864e-05 0 0.0274932
1.39602e-05 0 0.0274932 1.39602e-05 0 0.0270418 1.32784e-05 0 0.0270418 1.32784e-05
0 0.0266079 1.26733e-05 0 0.0266079 1.26733e-05 0 0.0261903 1.20688e-05 0
0.0261903 1.20688e-05 0 0.0257895 1.13379e-05 0 0.0257895 1.13379e-05 0 0.0254041
1.07193e-05 0 0.0254041 1.07193e-05 0 0.0250314 1.0337e-05 0 0.0250314 1.0337e-05
0 0.024669 1.00217e-05 0 0.024669 1.00217e-05 0 0.0243162 9.69816e-06 0
0.0243162 9.69816e-06 0 0.0239731 9.36326e-06 0 0.0239731 9.36326e-06 0 0.0236398
9.0229e-06 0 0.0236398 9.0229e-06 0 0.0233162 8.68351e-06 0 0.0233162 8.68351e-06
0 0.0230021 8.35023e-06 0 0.0230021 8.35023e-06 0 0.0226974 8.02647e-06 0
0.0226974 8.02647e-06 0 0.0224017 7.71419e-06 0 0.0224017 7.71419e-06 0 0.0221148
7.41445e-06 0 0.0221148 7.41445e-06 0 0.0218363 7.12771e-06 0 0.0218363 7.12771e-06
0 0.0215659 6.85401e-06 0 0.0215659 6.85401e-06 0 0.0213032 6.59313e-06 0
0.0213032 6.59313e-06 0 0.021048 6.3447e-06 0 0.021048 6.3447e-06 0 0.0207998
6.10826e-06 0 0.0207998 6.10826e-06 0 0.0205584 5.88327e-06 0 0.0205584 5.88327e-06
0 0.0203236 5.66918e-06 0 0.0203236 5.66918e-06 0 0.0200949 5.46543e-06 0
0.0200949 5.46543e-06 0 0.0198722 5.27145e-06 0 0.0198722 5.27145e-06 0 0.0196551
5.08674e-06 0 0.0196551 5.08674e-06 0 0.0194435 4.91075e-06 0 0.0194435 4.91075e-06
0 0.0192372 4.743e-06 0 0.0192372 4.743e-06 0 0.0190358 4.58299e-06 0
0.0190358 4.58299e-06 0 0.0188392 4.43035e-06 0 0.0188392 4.43035e-06 0 0.0186472
4.28455e-06 0 0.0186472 4.28455e-06 0 0.0184596 4.14535e-06 0 0.0184596 4.14535e-06
0 0.0182763 4.01221e-06 0 0.0182763 4.01221e-06 0 0.018097 3.885e-06 0
0.018097 3.885e-06 0 0.0179216 3.76316e-06 0 0.0179216 3.76316e-06 0 0.01775
3.64669e-06 0 0.01775 3.64669e-06 0 0.017582 3.535e-06 0 0.017582 3.535e-06
0 0.0174175 3.42819e-06 0 0.0174175 3.42819e-06 0 0.0172563 3.32584e-06 0
0.0172563 3.32584e-06 0 0.0170983 3.22762e-06 0 0.0170983 3.22762e-06 0 0.0169434
3.1351e-06 0 0.0169434 3.1351e-06 0 0.0167916 3.04357e-06 0 0.0167916 3.04357e-06
0 0.0166423 2.96673e-06 0 0.0166423 2.96673e-06 0 0.0164959 2.87074e-06 0
0.0164959 2.87074e-06 0 0.0163529 2.74376e-06 0 0.0163529 2.74376e-06 0 0.0162125
2.66998e-06 0 0.0162125 2.66998e-06 0 0.0160736 2.64033e-06 0 0.0160736 2.64033e-06
0 0.0159357 2.60115e-06 0 0.0159357 2.60115e-06 0 0.0157992 2.5527e-06 0
0.0157992 2.5527e-06 0 0.0156644 2.49722e-06 0 0.0156644 2.49722e-06 0 0.0155315
2.43758e-06 0 0.0155315 2.43758e-06 0 0.0154006 2.37599e-06 0 0.0154006 2.37599e-06
0 0.0152718 2.31388e-06 0 0.0152718 2.31388e-06 0 0.0151451 2.25216e-06 0
0.0151451 2.25216e-06 0 0.0150206 2.19138e-06 0 0.0150206 2.19138e-06 0 0.0148982
2.13192e-06 0 0.0148982 2.13192e-06 0 0.0147778 2.07396e-06 0 0.0147778 2.07396e-06
0 0.0146595 2.01765e-06 0 0.0146595 2.01765e-06 0 0.0145432 1.96302e-06 0
0.0145432 1.96302e-06 0 0.0144288 1.91011e-06 0 0.0144288 1.91011e-06 0 0.0143163
1.8589e-06 0 0.0143163 1.8589e-06 0 0.0142057 1.80938e-06 0 0.0142057 1.80938e-06
0 0.0140969 1.76149e-06 0 0.0140969 1.76149e-06 0 0.0139898 1.71521e-06 0
0.0139898 1.71521e-06 0 0.0138845 1.67047e-06 0 0.0138845 1.67047e-06 0 0.0137808
1.62723e-06 0 0.0137808 1.62723e-06 0 0.0136787 1.58543e-06 0 0.0136787 1.58543e-06
0 0.0135781 1.54502e-06 0 0.0135781 1.54502e-06 0 0.0134791 1.50594e-06 0
0.0134791 1.50594e-06 0 0.0133816 1.46816e-06 0 0.0133816 1.46816e-06 0 0.0132855
1.43159e-06 0 0.0132855 1.43159e-06 0 0.0131908 1.39623e-06 0 0.0131908 1.39623e-06
0 0.0130975 1.36198e-06 0 0.0130975 1.36198e-06 0 0.0130055 1.32887e-06 0
0.0130055 1.32887e-06 0 0.0129148 1.29675e-06 0 0.0129148 1.29675e-06 0 0.0128254
1.26572e-06 0 0.0128254 1.26572e-06 0 0.0127372 1.23559e-06 0 0.0127372 1.23559e-06
0 0.0126501 1.20649e-06 0 0.0126501 1.20649e-06 0 0.0125643 1.17825e-06 0
0.0125643 1.17825e-06 0 0.0124795 1.15091e-06 0 0.0124795 1.15091e-06 0 0.0123959
1.12487e-06 0 0.0123959 1.12487e-06 0 0.0123133 1.09858e-06 0 0.0123133 1.09858e-06
0 0.0122317 1.07739e-06 0 0.0122317 1.07739e-06 0 0.0121511 1.05084e-06 0
0.0121511 1.05084e-06 0 0.0120718 1.01308e-06 0 0.0120718 1.01308e-06 0 0.0119936
9.91043e-07 0 0.0119936 9.91043e-07 0 0.0119157 9.85951e-07 0 0.0119157 9.85951e-07
0 0.0118377 9.79052e-07 0 0.0118377 9.79052e-07 0 0.0117599 9.67016e-07 0
0.0117599 9.67016e-07 0 0.0116826 9.51208e-07 0 0.0116826 9.51208e-07 0 0.011606
9.33104e-07 0 0.011606 9.33104e-07 0 0.0115301 9.13786e-07 0 0.0115301 9.13786e-07
0 0.0114552 8.93915e-07 0 0.0114552 8.93915e-07 0 0.0113811 8.73897e-07 0
0.0113811 8.73897e-07 0 0.0113079 8.53983e-07 0 0.0113079 8.53983e-07 0 0.0112357
8.34325e-07 0 0.0112357 8.34325e-07 0 0.0111644 8.15014e-07 0 0.0111644 8.15014e-07
0 0.011094 7.96112e-07 0 0.011094 7.96112e-07 0 0.0110245 7.7765e-07 0
0.0110245 7.7765e-07 0 0.0109559 7.59648e-07 0 0.0109559 7.59648e-07 0 0.0108882
7.42114e-07 0 0.0108882 7.42114e-07 0 0.0108213 7.25051e-07 0 0.0108213 7.25051e-07
0 0.0107553 7.08452e-07 0 0.0107553 7.08452e-07 0 0.0106901 6.92315e-07 0
0.0106901 6.92315e-07 0 0.0106257 6.76628e-07 0 0.0106257 6.76628e-07 0 0.0105621
6.61387e-07 0 0.0105621 6.61387e-07 0 0.0104992 6.46577e-07 0 0.0104992 6.46577e-07
0 0.0104371 6.32195e-07 0 0.0104371 6.32195e-07 0 0.0103758 6.18219e-07 0
0.0103758 6.18219e-07 0 0.0103151 6.04654e-07 0 0.0103151 6.04654e-07 0 0.0102551
5.91469e-07 0 0.0102551 5.91469e-07 0 0.0101959 5.78679e-07 0 0.0101959 5.78679e-07
0 0.0101373 5.66245e-07 0 0.0101373 5.66245e-07 0 0.0100793 5.54193e-07 0
0.0100793 5.54193e-07 0 0.010022 5.42469e-07 0 0.010022 5.42469e-07 0 0.00996525
5.31122e-07 0 0.00996525 5.31122e-07 0 0.00990913 5.20085e-07 0 0.00990913 5.20085e-07
0 0.0098536 5.09399e-07 0 0.0098536 5.09399e-07 0 0.00979861 4.9914e-07 0
0.00979861 4.9914e-07 0 0.00974421 4.88913e-07 0 0.00974421 4.88913e-07 0 0.00969026
4.80478e-07 0 0.00969026 4.80478e-07 0 0.00963682 4.69892e-07 0 0.00963682 4.69892e-07
0 0.00958418 4.5522e-07 0 0.00958418 4.5522e-07 0 0.00953203 4.47119e-07 0
0.00953203 4.47119e-07 0 0.00947977 4.46818e-07 0 0.00947977 4.46818e-07 0 0.00942722
4.45746e-07 0 0.00942722 4.45746e-07 0 0.00937461 4.41557e-07 0 0.00937461 4.41557e-07
0 0.0093222 4.35325e-07 0 0.0093222 4.35325e-07 0 0.00927013 4.27873e-07 0
0.00927013 4.27873e-07 0 0.0092185 4.19793e-07 0 0.0092185 4.19793e-07 0 0.00916736
4.11412e-07 0 0.00916736 4.11412e-07 0 0.00911675 4.02921e-07 0 0.00911675 4.02921e-07
0 0.00906669 3.94435e-07 0 0.00906669 3.94435e-07 0 0.00901718 3.86018e-07 0
0.00901718 3.86018e-07 0 0.00896822 3.77711e-07 0 0.00896822 3.77711e-07 0 0.00891983
3.6954e-07 0 0.00891983 3.6954e-07 0 0.00887198 3.61517e-07 0 0.00887198 3.61517e-07
0 0.00882469 3.53657e-07 0 0.00882469 3.53657e-07 0 0.00877794 3.45958e-07 0
0.00877794 3.45958e-07 0 0.00873172 3.38434e-07 0 0.00873172 3.38434e-07 0 0.00868603
3.31079e-07 0 0.00868603 3.31079e-07 0 0.00864086 3.23904e-07 0 0.00864086 3.23904e-07
0 0.0085962 3.16901e-07 0 0.0085962 3.16901e-07 0 0.00855204 3.10087e-07 0
0.00855204 3.10087e-07 0 0.00850836 3.03447e-07 0 0.00850836 3.03447e-07 0 0.00846516
2.97002e-07 0 0.00846516 2.97002e-07 0 0.00842242 2.90728e-07 0 0.00842242 2.90728e-07
0 0.00838013 2.84659e-07 0 0.00838013 2.84659e-07 0 0.00833827 2.78751e-07 0
0.00833827 2.78751e-07 0 0.00829683 2.73061e-07 0 0.00829683 2.73061e-07 0 0.00825581
2.67512e-07 0 0.00825581 2.67512e-07 0 0.00821517 2.62201e-07 0 0.00821517 2.62201e-07
0 0.00817491 2.56999e-07 0 0.00817491 2.56999e-07 0 0.00813503 2.52061e-07 0
0.00813503 2.52061e-07 0 0.00809547 2.47248e-07 0 0.00809547 2.47248e-07 0 0.00805631
2.42572e-07 0 0.00805631 2.42572e-07 0 0.00801732 2.38986e-07 0 0.00801732 2.38986e-07
0 0.00797879 2.32549e-07 0 0.00797879 2.32549e-07 0 0.00794084 2.2601e-07 0
0.00794084 2.2601e-07 0 0.0079028 2.25971e-07 0 0.0079028 2.25971e-07 0 0.00786433
2.27318e-07 0 0.00786433 2.27318e-07 0 0.00782558 2.26151e-07 0 0.00782558 2.26151e-07
0 0.00778686 2.23588e-07 0 0.00778686 2.23588e-07 0 0.00774831 2.20103e-07 0
0.00774831 2.20103e-07 0 0.00771005 2.16187e-07 0 0.00771005 2.16187e-07 0 0.00767212
2.1204e-07 0 0.00767212 2.1204e-07 0 0.00763455 2.07795e-07 0 0.00763455 2.07795e-07
0 0.00759738 2.03519e-07 0 0.00759738 2.03519e-07 0 0.0075606 1.99251e-07 0
0.0075606 1.99251e-07 0 0.00752422 1.95016e-07 0 0.00752422 1.95016e-07 0 0.00748826
1.9083e-07 0 0.00748826 1.9083e-07 0 0.0074527 1.86704e-07 0 0.0074527 1.86704e-07
0 0.00741756 1.82648e-07 0 0.00741756 1.82648e-07 0 0.00738282 1.78668e-07 0
0.00738282 1.78668e-07 0 0.00734848 1.74778e-07 0 0.00734848 1.74778e-07 0 0.00731453
1.7098e-07 0 0.00731453 1.7098e-07 0 0.00728097 1.67288e-07 0 0.00728097 1.67288e-07
0 0.00724778 1.63702e-07 0 0.00724778 1.63702e-07 0 0.00721495 1.60241e-07 0
0.00721495 1.60241e-07 0 0.00718247 1.56894e-07 0 0.00718247 1.56894e-07 0 0.00715032
1.53684e-07 0 0.00715032 1.53684e-07 0 0.00711849 1.50592e-07 0 0.00711849 1.50592e-07
0 0.00708695 1.4764e-07 0 0.00708695 1.4764e-07 0 0.00705571 1.44801e-07 0
0.00705571 1.44801e-07 0 0.00702472 1.42102e-07 0 0.00702472 1.42102e-07 0 0.00699399
1.39492e-07 0 0.00699399 1.39492e-07 0 0.00696351 1.37032e-07 0 0.00696351 1.37032e-07
0 0.00693323 1.34633e-07 0 0.00693323 1.34633e-07 0 0.00690321 1.32343e-07 0
0.00690321 1.32343e-07 0 0.00687329 1.30515e-07 0 0.00687329 1.30515e-07 0 0.00684366
1.2743e-07 0 0.00684366 1.2743e-07 0 0.00681444 1.24353e-07 0 0.00681444 1.24353e-07
0 0.00678509 1.24376e-07 0 0.00678509 1.24376e-07 0 0.00675533 1.25388e-07 0
0.00675533 1.25388e-07 0 0.00672526 1.25099e-07 0 0.00672526 1.25099e-07 0 0.00669517
1.2377e-07 0 0.00669517 1.2377e-07 0 0.00666521 1.21819e-07 0 0.00666521 1.21819e-07
0 0.00663548 1.19533e-07 0 0.00663548 1.19533e-07 0 0.00660604 1.171e-07 0
0.00660604 1.171e-07 0 0.0065769 1.14578e-07 0 0.0065769 1.14578e-07 0 0.0065481
1.12032e-07 0 0.0065481 1.12032e-07 0 0.00651964 1.09517e-07 0 0.00651964 1.09517e-07
0 0.00649151 1.07021e-07 0 0.00649151 1.07021e-07 0 0.00646372 1.04608e-07 0
0.00646372 1.04608e-07 0 0.00643625 1.02269e-07 0 0.00643625 1.02269e-07 0 0.00640909
1.00002e-07 0 0.00640909 1.00002e-07 0 0.00638223 9.78513e-08 0 0.00638223 9.78513e-08
0 0.00635566 9.57659e-08 0 0.00635566 9.57659e-08 0 0.00632937 9.37644e-08 0
0.00632937 9.37644e-08 0 0.00630334 9.18498e-08 0 0.00630334 9.18498e-08 0 0.00627758
8.99642e-08 0 0.00627758 8.99642e-08 0 0.00625208 8.81469e-08 0 0.00625208 8.81469e-08
0 0.00622683 8.63647e-08 0 0.00622683 8.63647e-08 0 0.00620183 8.46001e-08 0
0.00620183 8.46001e-08 0 0.00617709 8.28865e-08 0 0.00617709 8.28865e-08 0 0.0061526
8.12026e-08 0 0.0061526 8.12026e-08 0 0.00612835 7.95485e-08 0 0.00612835 7.95485e-08
0 0.00610435 7.79709e-08 0 0.00610435 7.79709e-08 0 0.00608056 7.64335e-08 0
0.00608056 7.64335e-08 0 0.00605701 7.49715e-08 0 0.00605701 7.49715e-08 0 0.00603362
7.37141e-08 0 0.00603362 7.37141e-08 0 0.00601045 7.20502e-08 0 0.00601045 7.20502e-08
0 0.00598762 7.03463e-08 0 0.00598762 7.03463e-08 0 0.00596476 7.01461e-08 0
0.00596476 7.01461e-08 0 0.00594153 7.08358e-08 0 0.00594153 7.08358e-08 0 0.00591801
7.08614e-08 0 0.00591801 7.08614e-08 0 0.00589445 7.01213e-08 0 0.00589445 7.01213e-08
0 0.00587101 6.89769e-08 0 0.00587101 6.89769e-08 0 0.00584779 6.75788e-08 0
0.00584779 6.75788e-08 0 0.00582484 6.60839e-08 0 0.00582484 6.60839e-08 0 0.00580219
6.4549e-08 0 0.00580219 6.4549e-08 0 0.00577985 6.29439e-08 0 0.00577985 6.29439e-08
0 0.00575785 6.13589e-08 0 0.00575785 6.13589e-08 0 0.00573619 5.98006e-08 0
0.00573619 5.98006e-08 0 0.00571487 5.81918e-08 0 0.00571487 5.81918e-08 0 0.00569391
5.66283e-08 0 0.00569391 5.66283e-08 0 0.00567331 5.50876e-08 0 0.00567331 5.50876e-08
0 0.0056531 5.3469e-08 0 0.0056531 5.3469e-08 0 0.00563327 5.18729e-08 0
0.00563327 5.18729e-08 0 0.00561386 5.0285e-08 0 0.00561386 5.0285e-08 0 0.00559488
4.8578e-08 0 0.00559488 4.8578e-08 0 0.00557636 4.68908e-08 0 0.00557636 4.68908e-08
0 0.00555829 4.52329e-08 0 0.00555829 4.52329e-08 0 0.00554072 4.34713e-08 0
0.00554072 4.34713e-08 0 0.00552363 4.17755e-08 0 0.00552363 4.17755e-08 0 0.00550702
4.01769e-08 0 0.00550702 4.01769e-08 0 0.00549086 3.85846e-08 0 0.00549086 3.85846e-08
0 0.00547516 3.70519e-08 0 0.00547516 3.70519e-08 0 0.00545986 3.57567e-08 0
0.00545986 3.57567e-08 0 0.00544492 3.45089e-08 0 0.00544492 3.45089e-08 0 0.00543037
3.32939e-08 0 0.00543037 3.32939e-08 0 0.00541609 3.22361e-08 0 0.00541609 3.22361e-08
0 0.00540223 3.10108e-08 0 0.00540223 3.10108e-08 0 0.00538866 3.03097e-08 0
0.00538866 3.03097e-08 0 0.00537497 3.0425e-08 0 0.00537497 3.0425e-08 0 0.00536117
3.03435e-08 0 0.00536117 3.03435e-08 0 0.00534751 2.9597e-08 0 0.00534751 2.9597e-08
0 0.00533421 2.84232e-08 0 0.00533421 2.84232e-08 0 0.00532134 2.72419e-08 0
0.00532134 2.72419e-08 0 0.00530892 2.60431e-08 0 0.00530892 2.60431e-08 0 0.00529703
2.45802e-08 0 0.00529703 2.45802e-08 0 0.00528571 2.31178e-08 0 0.00528571 2.31178e-08
0 0.0052749 2.19013e-08 0 0.0052749 2.19013e-08 0 0.00526462 2.05872e-08 0
0.00526462 2.05872e-08 0 0.00525493 1.90707e-08 0 0.00525493 1.90707e-08 0 0.00524579
1.778e-08 0 0.00524579 1.778e-08 0 0.00523715 1.67085e-08 0 0.00523715 1.67085e-08
0 0.00522903 1.54349e-08 0 0.00522903 1.54349e-08 0 0.00522149 1.40679e-08 0
0.00522149 1.40679e-08 0 0.00521446 1.30118e-08 0 0.00521446 1.30118e-08 0 0.00520786
1.21425e-08 0 0.00520786 1.21425e-08 0 0.00520172 1.10934e-08 0 0.00520172 1.10934e-08
0 0.00519609 9.95187e-09 0 0.00519609 9.95187e-09 0 0.00519092 9.08175e-09 0
0.00519092 9.08175e-09 0 0.00518609 8.48536e-09 0 0.00518609 8.48536e-09 0 0.00518162
7.75422e-09 0 0.00518162 7.75422e-09 0 0.00517763 6.72764e-09 0 0.00517763 6.72764e-09
0 0.00517411 5.82042e-09 0 0.00517411 5.82042e-09 0 0.00517092 5.32209e-09 0
0.00517092 5.32209e-09 0 0.00516804 4.78712e-09 0 0.00516804 4.78712e-09 0 0.00516563
3.78714e-09 0 0.00516563 3.78714e-09 0 0.00516373 2.7724e-09 0 0.00516373 2.7724e-09
0 0.00516215 2.39297e-09 0 0.00516215 2.39297e-09 0 0.0051607 2.28604e-09 0
0.0051607 2.28604e-09 0 0.00515961 1.51973e-09 0 0.00515961 1.51973e-09 0 0.00515911
4.17728e-10 0 0.00515911 4.17728e-10 0 0.0051588 2.16238e-10 0 0.0051588 2.16238e-10
0 0.0051582 9.39748e-10 0 0.0051582 9.39748e-10 0 0.00515733 1.44235e-09 0
0.00515733 1.44235e-09 0 0.0051566 9.99632e-10 0 0.0051566 9.99632e-10 0 0.00515632
7.76498e-11 0 0.00515632 7.76498e-11 0 0.00515636 -3.67597e-10 0 0.00515636 -3.67597e-10
0 0.00515643 -1.47971e-10 0 0.00515643 -1.47971e-10 0 0.00515647 4.54122e-11 0
0.00515647 4.54122e-11 0 0.00515676 -4.04351e-10 0 0.00515676 -4.04351e-10 0 0.00515761
-1.43152e-09 0 0.00515761 -1.43152e-09 0 0.0051591 -2.51874e-09 0 0.0051591 -2.51874e-09
0 0.00516105 -3.1621e-09 0 0.00516105 -3.1621e-09 0 0.00516314 -3.16385e-09 0
0.00516314 -3.16385e-09 0 0.00516514 -2.78103e-09 0 0.00516514 -2.78103e-09 0 0.00516711
-2.61419e-09 0 0.00516711 -2.61419e-09 0 0.00516937 -3.13715e-09 0 0.00516937 -3.13715e-09
0 0.00517226 -4.22413e-09 0 0.00517226 -4.22413e-09 0 0.00517576 -5.19942e-09 0
0.00517576 -5.19942e-09 0 0.00517951 -5.43473e-09 0 0.00517951 -5.43473e-09 0 0.00518306
-4.88273e-09 0 0.00518306 -4.88273e-09 0 0.00518615 -4.01097e-09 0 0.00518615 -4.01097e-09
0 0.00518887 -3.34027e-09 0 0.00518887 -3.34027e-09 0 0.00519147 -3.13767e-09 0
0.00519147 -3.13767e-09 0 0.00519426 -3.41208e-09 0 0.00519426 -3.41208e-09 0 0.00519745
-4.00069e-09 0 0.00519745 -4.00069e-09 0 0.00520112 -4.63753e-09 0 0.00520112 -4.63753e-09
0 0.00520516 -5.08033e-09 0 0.00520516 -5.08033e-09 0 0.00520943 -5.27329e-09 0
0.00520943 -5.27329e-09 0 0.00521384 -5.3716e-09 0 0.00521384 -5.3716e-09 0 0.00521844
-5.5661e-09 0 0.00521844 -5.5661e-09 0 0.00522329 -5.88328e-09 0 0.00522329 -5.88328e-09
0 0.0052284 -6.15403e-09 0 0.0052284 -6.15403e-09 0 0.00523363 -6.22338e-09 0
0.00523363 -6.22338e-09 0 0.00523885 -6.0578e-09 0 0.00523885 -6.0578e-09 0 0.00524391
-5.64738e-09 0 0.00524391 -5.64738e-09 0 0.00524865 -5.15065e-09 0 0.00524865 -5.15065e-09
0 0.00525314 -4.85645e-09 0 0.00525314 -4.85645e-09 0 0.00525759 -4.83296e-09 0
0.00525759 -4.83296e-09 0 0.00526214 -4.95072e-09 0 0.00526214 -4.95072e-09 0 0.00526685
-5.08939e-09 0 0.00526685 -5.08939e-09 0 0.00527171 -5.1929e-09 0 0.00527171 -5.1929e-09
0 0.00527667 -5.2575e-09 0 0.00527667 -5.2575e-09 0 0.00528174 -5.30209e-09 0
0.00528174 -5.30209e-09 0 0.00528691 -5.34461e-09 0 0.00528691 -5.34461e-09 0 0.00529218
-5.39274e-09 0 0.00529218 -5.39274e-09 0 0.00529755 -5.44539e-09 0 0.00529755 -5.44539e-09
0 0.00530304 -5.49678e-09 0 0.00530304 -5.49678e-09 0 0.00530863 -5.54282e-09 0
0.00530863 -5.54282e-09 0 0.00531432 -5.5824e-09 0 0.00531432 -5.5824e-09 0 0.00532011
-5.61568e-09 0 0.00532011 -5.61568e-09 0 0.00532599 -5.64371e-09 0 0.00532599 -5.64371e-09
0 0.00533196 -5.66737e-09 0 0.00533196 -5.66737e-09 0 0.00533801 -5.68726e-09 0
0.00533801 -5.68726e-09 0 0.00534415 -5.70459e-09 0 0.00534415 -5.70459e-09 0 0.00535037
-5.71926e-09 0 0.00535037 -5.71926e-09 0 0.00535666 -5.7309e-09 0 0.00535666 -5.7309e-09
0 0.00536304 -5.74016e-09 0 0.00536304 -5.74016e-09 0 0.00536949 -5.74696e-09 0
0.00536949 -5.74696e-09 0 0.00537601 -5.75103e-09 0 0.00537601 -5.75103e-09 0 0.0053826
-5.75284e-09 0 0.0053826 -5.75284e-09 0 0.00538926 -5.7525e-09 0 0.00538926 -5.7525e-09
0 0.00539599 -5.74989e-09 0 0.00539599 -5.74989e-09 0 0.00540279 -5.74561e-09 0
0.00540279 -5.74561e-09 0 0.00540965 -5.73961e-09 0 0.00540965 -5.73961e-09 0 0.00541657
-5.73175e-09 0 0.00541657 -5.73175e-09 0 0.00542356 -5.71986e-09 0 0.00542356 -5.71986e-09
0 0.0054306 -5.70977e-09 0 0.0054306 -5.70977e-09 0 0.00543771 -5.70826e-09 0
0.00543771 -5.70826e-09 0 0.00544489 -5.64238e-09 0 0.00544489 -5.64238e-09 0 0.00545196
-5.45737e-09 0 0.00545196 -5.45737e-09 0 0.00545882 -5.25582e-09 0 0.00545882 -5.25582e-09
0 0.00546553 -5.12474e-09 0 0.00546553 -5.12474e-09 0 0.0054722 -5.05097e-09 0
0.0054722 -5.05097e-09 0 0.00547886 -5.01107e-09 0 0.00547886 -5.01107e-09 0 0.00548556
-4.99007e-09 0 0.00548556 -4.99007e-09 0 0.00549231 -4.97893e-09 0 0.00549231 -4.97893e-09
0 0.00549912 -4.97329e-09 0 0.00549912 -4.97329e-09 0 0.00550599 -4.97033e-09 0
0.00550599 -4.97033e-09 0 0.00551293 -4.96799e-09 0 0.00551293 -4.96799e-09 0 0.00551994
-4.96603e-09 0 0.00551994 -4.96603e-09 0 0.00552702 -4.96429e-09 0 0.00552702 -4.96429e-09
0 0.00553418 -4.96168e-09 0 0.00553418 -4.96168e-09 0 0.0055414 -4.95825e-09 0
0.0055414 -4.95825e-09 0 0.00554869 -4.95434e-09 0 0.00554869 -4.95434e-09 0 0.00555605
-4.94944e-09 0 0.00555605 -4.94944e-09 0 0.00556348 -4.94352e-09 0 0.00556348 -4.94352e-09
0 0.00557098 -4.93684e-09 0 0.00557098 -4.93684e-09 0 0.00557855 -4.92949e-09 0
0.00557855 -4.92949e-09 0 0.00558618 -4.9212e-09 0 0.00558618 -4.9212e-09 0 0.00559388
-4.91203e-09 0 0.00559388 -4.91203e-09 0 0.00560164 -4.90225e-09 0 0.00560164 -4.90225e-09
0 0.00560947 -4.89171e-09 0 0.00560947 -4.89171e-09 0 0.00561737 -4.88047e-09 0
0.00561737 -4.88047e-09 0 0.00562532 -4.86883e-09 0 0.00562532 -4.86883e-09 0 0.00563334
-4.8564e-09 0 0.00563334 -4.8564e-09 0 0.00564143 -4.84288e-09 0 0.00564143 -4.84288e-09
0 0.00564957 -4.82874e-09 0 0.00564957 -4.82874e-09 0 0.00565777 -4.8137e-09 0
0.00565777 -4.8137e-09 0 0.00566604 -4.79636e-09 0 0.00566604 -4.79636e-09 0 0.00567435
-4.78428e-09 0 0.00567435 -4.78428e-09 0 0.00568275 -4.75912e-09 0 0.00568275 -4.75912e-09
0 0.00569114 -4.66511e-09 0 0.00569114 -4.66511e-09 0 0.00569936 -4.51567e-09 0
0.00569936 -4.51567e-09 0 0.0057074 -4.38666e-09 0 0.0057074 -4.38666e-09 0 0.00571533
-4.30443e-09 0 0.00571533 -4.30443e-09 0 0.00572323 -4.25394e-09 0 0.00572323 -4.25394e-09
0 0.00573114 -4.22172e-09 0 0.00573114 -4.22172e-09 0 0.00573909 -4.19941e-09 0
0.00573909 -4.19941e-09 0 0.00574708 -4.18222e-09 0 0.00574708 -4.18222e-09 0 0.00575513
-4.16862e-09 0 0.00575513 -4.16862e-09 0 0.00576323 -4.15638e-09 0 0.00576323 -4.15638e-09
0 0.0057714 -4.1442e-09 0 0.0057714 -4.1442e-09 0 0.00577963 -4.13271e-09 0
0.00577963 -4.13271e-09 0 0.00578792 -4.12129e-09 0 0.00578792 -4.12129e-09 0 0.00579627
-4.10975e-09 0 0.00579627 -4.10975e-09 0 0.00580469 -4.0977e-09 0 0.00580469 -4.0977e-09
0 0.00581317 -4.08519e-09 0 0.00581317 -4.08519e-09 0 0.00582171 -4.07195e-09 0
0.00582171 -4.07195e-09 0 0.00583031 -4.05873e-09 0 0.00583031 -4.05873e-09 0 0.00583897
-4.04549e-09 0 0.00583897 -4.04549e-09 0 0.0058477 -4.03099e-09 0 0.0058477 -4.03099e-09
0 0.00585648 -4.01621e-09 0 0.00585648 -4.01621e-09 0 0.00586532 -4.00139e-09 0
0.00586532 -4.00139e-09 0 0.00587422 -3.98634e-09 0 0.00587422 -3.98634e-09 0 0.00588318
-3.97064e-09 0 0.00588318 -3.97064e-09 0 0.0058922 -3.95444e-09 0 0.0058922 -3.95444e-09
0 0.00590127 -3.93785e-09 0 0.00590127 -3.93785e-09 0 0.00591039 -3.92078e-09 0
0.00591039 -3.92078e-09 0 0.00591958 -3.90332e-09 0 0.00591958 -3.90332e-09 0 0.00592881
-3.88453e-09 0 0.00592881 -3.88453e-09 0 0.0059381 -3.86874e-09 0 0.0059381 -3.86874e-09
0 0.00594745 -3.83678e-09 0 0.00594745 -3.83678e-09 0 0.00595677 -3.75371e-09 0
0.00595677 -3.75371e-09 0 0.0059659 -3.64221e-09 0 0.0059659 -3.64221e-09 0 0.00597487
-3.55159e-09 0 0.00597487 -3.55159e-09 0 0.00598374 -3.49173e-09 0 0.00598374 -3.49173e-09
0 0.00599258 -3.45191e-09 0 0.00599258 -3.45191e-09 0 0.00600144 -3.42359e-09 0
0.00600144 -3.42359e-09 0 0.00601032 -3.40156e-09 0 0.00601032 -3.40156e-09 0 0.00601924
-3.38292e-09 0 0.00601924 -3.38292e-09 0 0.00602821 -3.36648e-09 0 0.00602821 -3.36648e-09
0 0.00603724 -3.35113e-09 0 0.00603724 -3.35113e-09 0 0.00604631 -3.33633e-09 0
0.00604631 -3.33633e-09 0 0.00605544 -3.32192e-09 0 0.00605544 -3.32192e-09 0 0.00606463
-3.3077e-09 0 0.00606463 -3.3077e-09 0 0.00607387 -3.29327e-09 0 0.00607387 -3.29327e-09
0 0.00608316 -3.27855e-09 0 0.00608316 -3.27855e-09 0 0.00609251 -3.26375e-09 0
0.00609251 -3.26375e-09 0 0.00610192 -3.24871e-09 0 0.00610192 -3.24871e-09 0 0.00611138
-3.23382e-09 0 0.00611138 -3.23382e-09 0 0.00612089 -3.21859e-09 0 0.00612089 -3.21859e-09
0 0.00613046 -3.20287e-09 0 0.00613046 -3.20287e-09 0 0.00614008 -3.18694e-09 0
0.00614008 -3.18694e-09 0 0.00614975 -3.17101e-09 0 0.00614975 -3.17101e-09 0 0.00615947
-3.15492e-09 0 0.00615947 -3.15492e-09 0 0.00616924 -3.13833e-09 0 0.00616924 -3.13833e-09
0 0.00617906 -3.12178e-09 0 0.00617906 -3.12178e-09 0 0.00618894 -3.10482e-09 0
0.00618894 -3.10482e-09 0 0.00619886 -3.08721e-09 0 0.00619886 -3.08721e-09 0 0.00620883
-3.07119e-09 0 0.00620883 -3.07119e-09 0 0.00621885 -3.04402e-09 0 0.00621885 -3.04402e-09
0 0.00622884 -2.98211e-09 0 0.00622884 -2.98211e-09 0 0.00623866 -2.89853e-09 0
0.00623866 -2.89853e-09 0 0.0062483 -2.82842e-09 0 0.0062483 -2.82842e-09 0 0.00625784
-2.78056e-09 0 0.00625784 -2.78056e-09 0 0.00626736 -2.74712e-09 0 0.00626736 -2.74712e-09
0 0.00627687 -2.72194e-09 0 0.00627687 -2.72194e-09 0 0.00628641 -2.70152e-09 0
0.00628641 -2.70152e-09 0 0.00629598 -2.68384e-09 0 0.00629598 -2.68384e-09 0 0.00630559
-2.66783e-09 0 0.00630559 -2.66783e-09 0 0.00631524 -2.65286e-09 0 0.00631524 -2.65286e-09
0 0.00632494 -2.63825e-09 0 0.00632494 -2.63825e-09 0 0.00633469 -2.62378e-09 0
0.00633469 -2.62378e-09 0 0.00634448 -2.60978e-09 0 0.00634448 -2.60978e-09 0 0.00635433
-2.59612e-09 0 0.00635433 -2.59612e-09 0 0.00636422 -2.58174e-09 0 0.00636422 -2.58174e-09
0 0.00637416 -2.56733e-09 0 0.00637416 -2.56733e-09 0 0.00638415 -2.55278e-09 0
0.00638415 -2.55278e-09 0 0.00639419 -2.53796e-09 0 0.00639419 -2.53796e-09 0 0.00640427
-2.52382e-09 0 0.00640427 -2.52382e-09 0 0.0064144 -2.50916e-09 0 0.0064144 -2.50916e-09
0 0.00642458 -2.49403e-09 0 0.00642458 -2.49403e-09 0 0.0064348 -2.47928e-09 0
0.0064348 -2.47928e-09 0 0.00644506 -2.46448e-09 0 0.00644506 -2.46448e-09 0 0.00645537
-2.44924e-09 0 0.00645537 -2.44924e-09 0 0.00646572 -2.43352e-09 0 0.00646572 -2.43352e-09
0 0.00647612 -2.41859e-09 0 0.00647612 -2.41859e-09 0 0.00648656 -2.40039e-09 0
0.00648656 -2.40039e-09 0 0.00649701 -2.36105e-09 0 0.00649701 -2.36105e-09 0 0.00650732
-2.29925e-09 0 0.00650732 -2.29925e-09 0 0.00651743 -2.24066e-09 0 0.00651743 -2.24066e-09
0 0.00652743 -2.19867e-09 0 0.00652743 -2.19867e-09 0 0.00653738 -2.16909e-09 0
0.00653738 -2.16909e-09 0 0.00654731 -2.14681e-09 0 0.00654731 -2.14681e-09 0 0.00655726
-2.12838e-09 0 0.00655726 -2.12838e-09 0 0.00656723 -2.11232e-09 0 0.00656723 -2.11232e-09
0 0.00657723 -2.09788e-09 0 0.00657723 -2.09788e-09 0 0.00658727 -2.08411e-09 0
0.00658727 -2.08411e-09 0 0.00659735 -2.07104e-09 0 0.00659735 -2.07104e-09 0 0.00660747
-2.0582e-09 0 0.00660747 -2.0582e-09 0 0.00661764 -2.04516e-09 0 0.00661764 -2.04516e-09
0 0.00662784 -2.03218e-09 0 0.00662784 -2.03218e-09 0 0.00663809 -2.01949e-09 0
0.00663809 -2.01949e-09 0 0.00664838 -2.00696e-09 0 0.00664838 -2.00696e-09 0 0.00665871
-1.99419e-09 0 0.00665871 -1.99419e-09 0 0.00666908 -1.98142e-09 0 0.00666908 -1.98142e-09
0 0.00667949 -1.96885e-09 0 0.00667949 -1.96885e-09 0 0.00668994 -1.95612e-09 0
0.00668994 -1.95612e-09 0 0.00670044 -1.94319e-09 0 0.00670044 -1.94319e-09 0 0.00671097
-1.93031e-09 0 0.00671097 -1.93031e-09 0 0.00672154 -1.91736e-09 0 0.00672154 -1.91736e-09
0 0.00673215 -1.90433e-09 0 0.00673215 -1.90433e-09 0 0.0067428 -1.89149e-09 0
0.0067428 -1.89149e-09 0 0.00675349 -1.87147e-09 0 0.00675349 -1.87147e-09 0 0.00676412
-1.83272e-09 0 0.00676412 -1.83272e-09 0 0.00677458 -1.78338e-09 0 0.00677458 -1.78338e-09
0 0.00678487 -1.74258e-09 0 0.00678487 -1.74258e-09 0 0.00679507 -1.71417e-09 0
0.00679507 -1.71417e-09 0 0.00680523 -1.69297e-09 0 0.00680523 -1.69297e-09 0 0.00681539
-1.67612e-09 0 0.00681539 -1.67612e-09 0 0.00682556 -1.6617e-09 0 0.00682556 -1.6617e-09
0 0.00683575 -1.64878e-09 0 0.00683575 -1.64878e-09 0 0.00684597 -1.63666e-09 0
0.00684597 -1.63666e-09 0 0.00685623 -1.6252e-09 0 0.00685623 -1.6252e-09 0 0.00686652
-1.61398e-09 0 0.00686652 -1.61398e-09 0 0.00687684 -1.60272e-09 0 0.00687684 -1.60272e-09
0 0.00688721 -1.59172e-09 0 0.00688721 -1.59172e-09 0 0.0068976 -1.58075e-09 0
0.0068976 -1.58075e-09 0 0.00690804 -1.56995e-09 0 0.00690804 -1.56995e-09 0 0.00691851
-1.55914e-09 0 0.00691851 -1.55914e-09 0 0.00692902 -1.5482e-09 0 0.00692902 -1.5482e-09
0 0.00693956 -1.53737e-09 0 0.00693956 -1.53737e-09 0 0.00695014 -1.52665e-09 0
0.00695014 -1.52665e-09 0 0.00696075 -1.51592e-09 0 0.00696075 -1.51592e-09 0 0.0069714
-1.50502e-09 0 0.0069714 -1.50502e-09 0 0.00698208 -1.49398e-09 0 0.00698208 -1.49398e-09
0 0.00699279 -1.48342e-09 0 0.00699279 -1.48342e-09 0 0.00700354 -1.468e-09 0
0.00700354 -1.468e-09 0 0.00701424 -1.43804e-09 0 0.00701424 -1.43804e-09 0 0.00702477
-1.3993e-09 0 0.00702477 -1.3993e-09 0 0.00703512 -1.36688e-09 0 0.00703512 -1.36688e-09
0 0.00704538 -1.34406e-09 0 0.00704538 -1.34406e-09 0 0.0070556 -1.32718e-09 0
0.0070556 -1.32718e-09 0 0.00706582 -1.3134e-09 0 0.00706582 -1.3134e-09 0 0.00707604
-1.30152e-09 0 0.00707604 -1.30152e-09 0 0.00708628 -1.29061e-09 0 0.00708628 -1.29061e-09
0 0.00709654 -1.2803e-09 0 0.00709654 -1.2803e-09 0 0.00710684 -1.27105e-09 0
0.00710684 -1.27105e-09 0 0.00711716 -1.26159e-09 0 0.00711716 -1.26159e-09 0 0.00712751
-1.25218e-09 0 0.00712751 -1.25218e-09 0 0.0071379 -1.24328e-09 0 0.0071379 -1.24328e-09
0 0.00714831 -1.23423e-09 0 0.00714831 -1.23423e-09 0 0.00715876 -1.22529e-09 0
0.00715876 -1.22529e-09 0 0.00716924 -1.21599e-09 0 0.00716924 -1.21599e-09 0 0.00717975
-1.20681e-09 0 0.00717975 -1.20681e-09 0 0.00719029 -1.19819e-09 0 0.00719029 -1.19819e-09
0 0.00720086 -1.1892e-09 0 0.00720086 -1.1892e-09 0 0.00721146 -1.18006e-09 0
0.00721146 -1.18006e-09 0 0.00722209 -1.17112e-09 0 0.00722209 -1.17112e-09 0 0.00723275
-1.16146e-09 0 0.00723275 -1.16146e-09 0 0.00724343 -1.14447e-09 0 0.00724343 -1.14447e-09
0 0.00725399 -1.11625e-09 0 0.00725399 -1.11625e-09 0 0.00726435 -1.08682e-09 0
0.00726435 -1.08682e-09 0 0.00727458 -1.06488e-09 0 0.00727458 -1.06488e-09 0 0.00728475
-1.04939e-09 0 0.00728475 -1.04939e-09 0 0.00729488 -1.03733e-09 0 0.00729488 -1.03733e-09
0 0.00730502 -1.02698e-09 0 0.00730502 -1.02698e-09 0 0.00731517 -1.01777e-09 0
0.00731517 -1.01777e-09 0 0.00732533 -1.00941e-09 0 0.00732533 -1.00941e-09 0 0.00733553
-1.00073e-09 0 0.00733553 -1.00073e-09 0 0.00734573 -9.94414e-10 0 0.00734573 -9.94414e-10
0 0.007356 -9.84221e-10 0 0.007356 -9.84221e-10 0 0.0073662 -9.81151e-10 0
0.0073662 -9.81151e-10 0 0.00737662 -9.67697e-10 0 0.00737662 -9.67697e-10 0 0.00738674
-9.65301e-10 0 0.00738674 -9.65301e-10 0 0.00739734 -9.60787e-10 0 0.00739734 -9.60787e-10
0 0.00740756 -9.27561e-10 0 0.00740756 -9.27561e-10 0 0.00741767 -9.98402e-10 0
0.00741767 -9.98402e-10 0 0.0161331 -1.48209e-09 0 0.0161331 -1.48209e-09 0 0.0248502
-1.88306e-09 0 0.0248502 -1.88306e-09 0 
