# vtk DataFile Version 2.0
sampleSurface
ASCII
DATASET POLYDATA
POINTS 1202 float
0 0 0 5.99825e-05 0 0 5.99825e-05 0 0.1 0 0
0.1 0.000120591 0 0 0.000120591 0 0.1 0.000181831 0 0
0.000181831 0 0.1 0.000243709 0 0 0.000243709 0 0.1 0.000306234
0 0 0.000306234 0 0.1 0.00036941 0 0 0.00036941 0
0.1 0.000433245 0 0 0.000433245 0 0.1 0.000497746 0 0
0.000497746 0 0.1 0.000562919 0 0 0.000562919 0 0.1 0.000628772
0 0 0.000628772 0 0.1 0.000695312 0 0 0.000695312 0
0.1 0.000762546 0 0 0.000762546 0 0.1 0.000830481 0 0
0.000830481 0 0.1 0.000899125 0 0 0.000899125 0 0.1 0.000968484
0 0 0.000968484 0 0.1 0.00103857 0 0 0.00103857 0
0.1 0.00110938 0 0 0.00110938 0 0.1 0.00118093 0 0
0.00118093 0 0.1 0.00125323 0 0 0.00125323 0 0.1 0.00132628
0 0 0.00132628 0 0.1 0.0014001 0 0 0.0014001 0
0.1 0.00147468 0 0 0.00147468 0 0.1 0.00155004 0 0
0.00155004 0 0.1 0.00162619 0 0 0.00162619 0 0.1 0.00170313
0 0 0.00170313 0 0.1 0.00178088 0 0 0.00178088 0
0.1 0.00185943 0 0 0.00185943 0 0.1 0.00193881 0 0
0.00193881 0 0.1 0.00201901 0 0 0.00201901 0 0.1 0.00210005
0 0 0.00210005 0 0.1 0.00218193 0 0 0.00218193 0
0.1 0.00226467 0 0 0.00226467 0 0.1 0.00234827 0 0
0.00234827 0 0.1 0.00243274 0 0 0.00243274 0 0.1 0.0025181
0 0 0.0025181 0 0.1 0.00260434 0 0 0.00260434 0
0.1 0.00269148 0 0 0.00269148 0 0.1 0.00277954 0 0
0.00277954 0 0.1 0.00286851 0 0 0.00286851 0 0.1 0.0029584
0 0 0.0029584 0 0.1 0.00304924 0 0 0.00304924 0
0.1 0.00314102 0 0 0.00314102 0 0.1 0.00323376 0 0
0.00323376 0 0.1 0.00332747 0 0 0.00332747 0 0.1 0.00342215
0 0 0.00342215 0 0.1 0.00351783 0 0 0.00351783 0
0.1 0.0036145 0 0 0.0036145 0 0.1 0.00371217 0 0
0.00371217 0 0.1 0.00381087 0 0 0.00381087 0 0.1 0.0039106
0 0 0.0039106 0 0.1 0.00401136 0 0 0.00401136 0
0.1 0.00411318 0 0 0.00411318 0 0.1 0.00421606 0 0
0.00421606 0 0.1 0.00432001 0 0 0.00432001 0 0.1 0.00442505
0 0 0.00442505 0 0.1 0.00453118 0 0 0.00453118 0
0.1 0.00463842 0 0 0.00463842 0 0.1 0.00474677 0 0
0.00474677 0 0.1 0.00485626 0 0 0.00485626 0 0.1 0.00496689
0 0 0.00496689 0 0.1 0.00507867 0 0 0.00507867 0
0.1 0.00519162 0 0 0.00519162 0 0.1 0.00530574 0 0
0.00530574 0 0.1 0.00542106 0 0 0.00542106 0 0.1 0.00553758
0 0 0.00553758 0 0.1 0.00565531 0 0 0.00565531 0
0.1 0.00577427 0 0 0.00577427 0 0.1 0.00589447 0 0
0.00589447 0 0.1 0.00601593 0 0 0.00601593 0 0.1 0.00613865
0 0 0.00613865 0 0.1 0.00626266 0 0 0.00626266 0
0.1 0.00638795 0 0 0.00638795 0 0.1 0.00651455 0 0
0.00651455 0 0.1 0.00664248 0 0 0.00664248 0 0.1 0.00677173
0 0 0.00677173 0 0.1 0.00690234 0 0 0.00690234 0
0.1 0.0070343 0 0 0.0070343 0 0.1 0.00716765 0 0
0.00716765 0 0.1 0.00730238 0 0 0.00730238 0 0.1 0.00743852
0 0 0.00743852 0 0.1 0.00757608 0 0 0.00757608 0
0.1 0.00771507 0 0 0.00771507 0 0.1 0.00785551 0 0
0.00785551 0 0.1 0.00799742 0 0 0.00799742 0 0.1 0.00814081
0 0 0.00814081 0 0.1 0.00828569 0 0 0.00828569 0
0.1 0.00843209 0 0 0.00843209 0 0.1 0.00858001 0 0
0.00858001 0 0.1 0.00872947 0 0 0.00872947 0 0.1 0.00888049
0 0 0.00888049 0 0.1 0.00903309 0 0 0.00903309 0
0.1 0.00918728 0 0 0.00918728 0 0.1 0.00934307 0 0
0.00934307 0 0.1 0.00950049 0 0 0.00950049 0 0.1 0.00965956
0 0 0.00965956 0 0.1 0.00982028 0 0 0.00982028 0
0.1 0.00998268 0 0 0.00998268 0 0.1 0.0101468 0 0
0.0101468 0 0.1 0.0103126 0 0 0.0103126 0 0.1 0.0104801
0 0 0.0104801 0 0.1 0.0106494 0 0 0.0106494 0
0.1 0.0108204 0 0 0.0108204 0 0.1 0.0109933 0 0
0.0109933 0 0.1 0.0111679 0 0 0.0111679 0 0.1 0.0113443
0 0 0.0113443 0 0.1 0.0115226 0 0 0.0115226 0
0.1 0.0117028 0 0 0.0117028 0 0.1 0.0118848 0 0
0.0118848 0 0.1 0.0120687 0 0 0.0120687 0 0.1 0.0122546
0 0 0.0122546 0 0.1 0.0124424 0 0 0.0124424 0
0.1 0.0126321 0 0 0.0126321 0 0.1 0.0128238 0 0
0.0128238 0 0.1 0.0130176 0 0 0.0130176 0 0.1 0.0132133
0 0 0.0132133 0 0.1 0.0134111 0 0 0.0134111 0
0.1 0.0136109 0 0 0.0136109 0 0.1 0.0138129 0 0
0.0138129 0 0.1 0.0140169 0 0 0.0140169 0 0.1 0.0142231
0 0 0.0142231 0 0.1 0.0144314 0 0 0.0144314 0
0.1 0.0146419 0 0 0.0146419 0 0.1 0.0148546 0 0
0.0148546 0 0.1 0.0150695 0 0 0.0150695 0 0.1 0.0152866
0 0 0.0152866 0 0.1 0.015506 0 0 0.015506 0
0.1 0.0157277 0 0 0.0157277 0 0.1 0.0159517 0 0
0.0159517 0 0.1 0.016178 0 0 0.016178 0 0.1 0.0164067
0 0 0.0164067 0 0.1 0.0166378 0 0 0.0166378 0
0.1 0.0168713 0 0 0.0168713 0 0.1 0.0171073 0 0
0.0171073 0 0.1 0.0173457 0 0 0.0173457 0 0.1 0.0175865
0 0 0.0175865 0 0.1 0.0178299 0 0 0.0178299 0
0.1 0.0180759 0 0 0.0180759 0 0.1 0.0183244 0 0
0.0183244 0 0.1 0.0185754 0 0 0.0185754 0 0.1 0.0188291
0 0 0.0188291 0 0.1 0.0190855 0 0 0.0190855 0
0.1 0.0193445 0 0 0.0193445 0 0.1 0.0196063 0 0
0.0196063 0 0.1 0.0198707 0 0 0.0198707 0 0.1 0.0201379
0 0 0.0201379 0 0.1 0.0204079 0 0 0.0204079 0
0.1 0.0206807 0 0 0.0206807 0 0.1 0.0209564 0 0
0.0209564 0 0.1 0.0212349 0 0 0.0212349 0 0.1 0.0215164
0 0 0.0215164 0 0.1 0.0218008 0 0 0.0218008 0
0.1 0.0220881 0 0 0.0220881 0 0.1 0.0223784 0 0
0.0223784 0 0.1 0.0226718 0 0 0.0226718 0 0.1 0.0229682
0 0 0.0229682 0 0.1 0.0232677 0 0 0.0232677 0
0.1 0.0235704 0 0 0.0235704 0 0.1 0.0238762 0 0
0.0238762 0 0.1 0.0241852 0 0 0.0241852 0 0.1 0.0244974
0 0 0.0244974 0 0.1 0.0248128 0 0 0.0248128 0
0.1 0.0251316 0 0 0.0251316 0 0.1 0.0254537 0 0
0.0254537 0 0.1 0.0257791 0 0 0.0257791 0 0.1 0.0261079
0 0 0.0261079 0 0.1 0.0264402 0 0 0.0264402 0
0.1 0.0267759 0 0 0.0267759 0 0.1 0.0271152 0 0
0.0271152 0 0.1 0.0274579 0 0 0.0274579 0 0.1 0.0278043
0 0 0.0278043 0 0.1 0.0281542 0 0 0.0281542 0
0.1 0.0285078 0 0 0.0285078 0 0.1 0.0288651 0 0
0.0288651 0 0.1 0.0292261 0 0 0.0292261 0 0.1 0.0295909
0 0 0.0295909 0 0.1 0.0299595 0 0 0.0299595 0
0.1 0.0303319 0 0 0.0303319 0 0.1 0.0307082 0 0
0.0307082 0 0.1 0.0310885 0 0 0.0310885 0 0.1 0.0314727
0 0 0.0314727 0 0.1 0.0318609 0 0 0.0318609 0
0.1 0.0322532 0 0 0.0322532 0 0.1 0.0326495 0 0
0.0326495 0 0.1 0.03305 0 0 0.03305 0 0.1 0.0334546
0 0 0.0334546 0 0.1 0.0338635 0 0 0.0338635 0
0.1 0.0342767 0 0 0.0342767 0 0.1 0.0346941 0 0
0.0346941 0 0.1 0.0351159 0 0 0.0351159 0 0.1 0.0355421
0 0 0.0355421 0 0.1 0.0359728 0 0 0.0359728 0
0.1 0.0364079 0 0 0.0364079 0 0.1 0.0368476 0 0
0.0368476 0 0.1 0.0372919 0 0 0.0372919 0 0.1 0.0377408
0 0 0.0377408 0 0.1 0.0381944 0 0 0.0381944 0
0.1 0.0386527 0 0 0.0386527 0 0.1 0.0391158 0 0
0.0391158 0 0.1 0.0395837 0 0 0.0395837 0 0.1 0.0400565
0 0 0.0400565 0 0.1 0.0405342 0 0 0.0405342 0
0.1 0.0410169 0 0 0.0410169 0 0.1 0.0415047 0 0
0.0415047 0 0.1 0.0419975 0 0 0.0419975 0 0.1 0.0424955
0 0 0.0424955 0 0.1 0.0429986 0 0 0.0429986 0
0.1 0.0435071 0 0 0.0435071 0 0.1 0.0440208 0 0
0.0440208 0 0.1 0.0445398 0 0 0.0445398 0 0.1 0.0450643
0 0 0.0450643 0 0.1 0.0455943 0 0 0.0455943 0
0.1 0.0461298 0 0 0.0461298 0 0.1 0.0466708 0 0
0.0466708 0 0.1 0.0472176 0 0 0.0472176 0 0.1 0.04777
0 0 0.04777 0 0.1 0.0483281 0 0 0.0483281 0
0.1 0.0488921 0 0 0.0488921 0 0.1 0.049462 0 0
0.049462 0 0.1 0.0500378 0 0 0.0500378 0 0.1 0.0506197
0 0 0.0506197 0 0.1 0.0512076 0 0 0.0512076 0
0.1 0.0518016 0 0 0.0518016 0 0.1 0.0524018 0 0
0.0524018 0 0.1 0.0530083 0 0 0.0530083 0 0.1 0.0536211
0 0 0.0536211 0 0.1 0.0542403 0 0 0.0542403 0
0.1 0.0548659 0 0 0.0548659 0 0.1 0.0554981 0 0
0.0554981 0 0.1 0.0561369 0 0 0.0561369 0 0.1 0.0567823
0 0 0.0567823 0 0.1 0.0574345 0 0 0.0574345 0
0.1 0.0580934 0 0 0.0580934 0 0.1 0.0587593 0 0
0.0587593 0 0.1 0.0594321 0 0 0.0594321 0 0.1 0.0601119
0 0 0.0601119 0 0.1 0.0607987 0 0 0.0607987 0
0.1 0.0614928 0 0 0.0614928 0 0.1 0.0621941 0 0
0.0621941 0 0.1 0.0629027 0 0 0.0629027 0 0.1 0.0636187
0 0 0.0636187 0 0.1 0.0643421 0 0 0.0643421 0
0.1 0.0650732 0 0 0.0650732 0 0.1 0.0658118 0 0
0.0658118 0 0.1 0.0665581 0 0 0.0665581 0 0.1 0.0673122
0 0 0.0673122 0 0.1 0.0680742 0 0 0.0680742 0
0.1 0.0688441 0 0 0.0688441 0 0.1 0.0696221 0 0
0.0696221 0 0.1 0.0704082 0 0 0.0704082 0 0.1 0.0712024
0 0 0.0712024 0 0.1 0.072005 0 0 0.072005 0
0.1 0.0728159 0 0 0.0728159 0 0.1 0.0736353 0 0
0.0736353 0 0.1 0.0744632 0 0 0.0744632 0 0.1 0.0752998
0 0 0.0752998 0 0.1 0.076145 0 0 0.076145 0
0.1 0.0769991 0 0 0.0769991 0 0.1 0.0778621 0 0
0.0778621 0 0.1 0.0787342 0 0 0.0787342 0 0.1 0.0796153
0 0 0.0796153 0 0.1 0.0805055 0 0 0.0805055 0
0.1 0.0814051 0 0 0.0814051 0 0.1 0.0823141 0 0
0.0823141 0 0.1 0.0832325 0 0 0.0832325 0 0.1 0.0841605
0 0 0.0841605 0 0.1 0.0850982 0 0 0.0850982 0
0.1 0.0860457 0 0 0.0860457 0 0.1 0.087003 0 0
0.087003 0 0.1 0.0879704 0 0 0.0879704 0 0.1 0.0889478
0 0 0.0889478 0 0.1 0.0899354 0 0 0.0899354 0
0.1 0.0909333 0 0 0.0909333 0 0.1 0.0919416 0 0
0.0919416 0 0.1 0.0929605 0 0 0.0929605 0 0.1 0.0939899
0 0 0.0939899 0 0.1 0.0950302 0 0 0.0950302 0
0.1 0.0960812 0 0 0.0960812 0 0.1 0.0971432 0 0
0.0971432 0 0.1 0.0982163 0 0 0.0982163 0 0.1 0.0993006
0 0 0.0993006 0 0.1 0.100396 0 0 0.100396 0
0.1 0.101503 0 0 0.101503 0 0.1 0.102622 0 0
0.102622 0 0.1 0.103752 0 0 0.103752 0 0.1 0.104894
0 0 0.104894 0 0.1 0.106048 0 0 0.106048 0
0.1 0.107214 0 0 0.107214 0 0.1 0.108392 0 0
0.108392 0 0.1 0.109582 0 0 0.109582 0 0.1 0.110785
0 0 0.110785 0 0.1 0.112001 0 0 0.112001 0
0.1 0.113229 0 0 0.113229 0 0.1 0.114469 0 0
0.114469 0 0.1 0.115723 0 0 0.115723 0 0.1 0.11699
0 0 0.11699 0 0.1 0.11827 0 0 0.11827 0
0.1 0.119564 0 0 0.119564 0 0.1 0.12087 0 0
0.12087 0 0.1 0.122191 0 0 0.122191 0 0.1 0.123525
0 0 0.123525 0 0.1 0.124873 0 0 0.124873 0
0.1 0.126236 0 0 0.126236 0 0.1 0.127612 0 0
0.127612 0 0.1 0.129003 0 0 0.129003 0 0.1 0.130408
0 0 0.130408 0 0.1 0.131828 0 0 0.131828 0
0.1 0.133263 0 0 0.133263 0 0.1 0.134713 0 0
0.134713 0 0.1 0.136178 0 0 0.136178 0 0.1 0.137658
0 0 0.137658 0 0.1 0.139154 0 0 0.139154 0
0.1 0.140665 0 0 0.140665 0 0.1 0.142192 0 0
0.142192 0 0.1 0.143735 0 0 0.143735 0 0.1 0.145294
0 0 0.145294 0 0.1 0.146869 0 0 0.146869 0
0.1 0.148461 0 0 0.148461 0 0.1 0.150069 0 0
0.150069 0 0.1 0.151694 0 0 0.151694 0 0.1 0.153336
0 0 0.153336 0 0.1 0.154995 0 0 0.154995 0
0.1 0.156672 0 0 0.156672 0 0.1 0.158366 0 0
0.158366 0 0.1 0.160077 0 0 0.160077 0 0.1 0.161807
0 0 0.161807 0 0.1 0.163554 0 0 0.163554 0
0.1 0.16532 0 0 0.16532 0 0.1 0.167104 0 0
0.167104 0 0.1 0.168907 0 0 0.168907 0 0.1 0.170728
0 0 0.170728 0 0.1 0.172569 0 0 0.172569 0
0.1 0.174428 0 0 0.174428 0 0.1 0.176307 0 0
0.176307 0 0.1 0.178206 0 0 0.178206 0 0.1 0.180124
0 0 0.180124 0 0.1 0.182063 0 0 0.182063 0
0.1 0.184022 0 0 0.184022 0 0.1 0.186001 0 0
0.186001 0 0.1 0.188001 0 0 0.188001 0 0.1 0.190021
0 0 0.190021 0 0.1 0.192063 0 0 0.192063 0
0.1 0.194126 0 0 0.194126 0 0.1 0.19621 0 0
0.19621 0 0.1 0.198317 0 0 0.198317 0 0.1 0.200445
0 0 0.200445 0 0.1 0.202595 0 0 0.202595 0
0.1 0.204768 0 0 0.204768 0 0.1 0.206964 0 0
0.206964 0 0.1 0.209182 0 0 0.209182 0 0.1 0.211424
0 0 0.211424 0 0.1 0.213689 0 0 0.213689 0
0.1 0.215977 0 0 0.215977 0 0.1 0.21829 0 0
0.21829 0 0.1 0.220626 0 0 0.220626 0 0.1 0.222987
0 0 0.222987 0 0.1 0.225372 0 0 0.225372 0
0.1 0.227783 0 0 0.227783 0 0.1 0.230218 0 0
0.230218 0 0.1 0.232679 0 0 0.232679 0 0.1 0.235166
0 0 0.235166 0 0.1 0.237678 0 0 0.237678 0
0.1 0.240217 0 0 0.240217 0 0.1 0.242782 0 0
0.242782 0 0.1 0.245374 0 0 0.245374 0 0.1 0.247993
0 0 0.247993 0 0.1 0.25064 0 0 0.25064 0
0.1 0.253313 0 0 0.253313 0 0.1 0.256015 0 0
0.256015 0 0.1 0.258745 0 0 0.258745 0 0.1 0.261504
0 0 0.261504 0 0.1 0.264291 0 0 0.264291 0
0.1 0.267107 0 0 0.267107 0 0.1 0.269953 0 0
0.269953 0 0.1 0.272828 0 0 0.272828 0 0.1 0.275733
0 0 0.275733 0 0.1 0.278669 0 0 0.278669 0
0.1 0.281635 0 0 0.281635 0 0.1 0.284632 0 0
0.284632 0 0.1 0.287661 0 0 0.287661 0 0.1 0.290721
0 0 0.290721 0 0.1 0.293813 0 0 0.293813 0
0.1 0.296937 0 0 0.296937 0 0.1 0.300093 0 0
0.300093 0 0.1 0.303283 0 0 0.303283 0 0.1 0.306506
0 0 0.306506 0 0.1 0.309763 0 0 0.309763 0
0.1 0.313053 0 0 0.313053 0 0.1 0.316378 0 0
0.316378 0 0.1 0.319737 0 0 0.319737 0 0.1 0.323132
0 0 0.323132 0 0.1 0.326562 0 0 0.326562 0
0.1 0.330027 0 0 0.330027 0 0.1 0.333529 0 0
0.333529 0 0.1 0.337068 0 0 0.337068 0 0.1 0.340643
0 0 0.340643 0 0.1 0.344255 0 0 0.344255 0
0.1 0.347906 0 0 0.347906 0 0.1 0.351594 0 0
0.351594 0 0.1 0.355321 0 0 0.355321 0 0.1 0.359086
0 0 0.359086 0 0.1 0.362891 0 0 0.362891 0
0.1 0.366736 0 0 0.366736 0 0.1 0.37062 0 0
0.37062 0 0.1 0.374546 0 0 0.374546 0 0.1 0.378512
0 0 0.378512 0 0.1 0.382519 0 0 0.382519 0
0.1 0.386568 0 0 0.386568 0 0.1 0.39066 0 0
0.39066 0 0.1 0.394794 0 0 0.394794 0 0.1 0.398971
0 0 0.398971 0 0.1 0.403192 0 0 0.403192 0
0.1 0.407457 0 0 0.407457 0 0.1 0.411766 0 0
0.411766 0 0.1 0.416121 0 0 0.416121 0 0.1 0.42052
0 0 0.42052 0 0.1 0.424966 0 0 0.424966 0
0.1 0.429458 0 0 0.429458 0 0.1 0.433997 0 0
0.433997 0 0.1 0.438583 0 0 0.438583 0 0.1 0.443217
0 0 0.443217 0 0.1 0.447899 0 0 0.447899 0
0.1 0.45263 0 0 0.45263 0 0.1 0.457411 0 0
0.457411 0 0.1 0.462241 0 0 0.462241 0 0.1 0.467122
0 0 0.467122 0 0.1 0.472053 0 0 0.472053 0
0.1 0.477036 0 0 0.477036 0 0.1 0.482071 0 0
0.482071 0 0.1 0.487159 0 0 0.487159 0 0.1 0.492299
0 0 0.492299 0 0.1 0.497493 0 0 0.497493 0
0.1 0.502742 0 0 0.502742 0 0.1 0.508045 0 0
0.508045 0 0.1 0.513403 0 0 0.513403 0 0.1 0.518817
0 0 0.518817 0 0.1 0.524288 0 0 0.524288 0
0.1 0.529816 0 0 0.529816 0 0.1 0.535401 0 0
0.535401 0 0.1 0.541045 0 0 0.541045 0 0.1 0.546748
0 0 0.546748 0 0.1 0.55251 0 0 0.55251 0
0.1 0.558332 0 0 0.558332 0 0.1 0.564215 0 0
0.564215 0 0.1 0.570159 0 0 0.570159 0 0.1 0.576165
0 0 0.576165 0 0.1 0.582234 0 0 0.582234 0
0.1 0.588366 0 0 0.588366 0 0.1 0.594562 0 0
0.594562 0 0.1 0.600822 0 0 0.600822 0 0.1 0.607148
0 0 0.607148 0 0.1 0.61354 0 0 0.61354 0
0.1 0.619999 0 0 0.619999 0 0.1 0.626525 0 0
0.626525 0 0.1 0.633119 0 0 0.633119 0 0.1 0.639782
0 0 0.639782 0 0.1 0.646514 0 0 0.646514 0
0.1 0.653316 0 0 0.653316 0 0.1 0.66019 0 0
0.66019 0 0.1 0.667135 0 0 0.667135 0 0.1 0.674152
0 0 0.674152 0 0.1 0.681243 0 0 0.681243 0
0.1 0.688408 0 0 0.688408 0 0.1 0.695647 0 0
0.695647 0 0.1 0.702962 0 0 0.702962 0 0.1 0.710353
0 0 0.710353 0 0.1 0.717821 0 0 0.717821 0
0.1 0.725367 0 0 0.725367 0 0.1 0.732992 0 0
0.732992 0 0.1 0.740697 0 0 0.740697 0 0.1 0.748481
0 0 0.748481 0 0.1 0.756347 0 0 0.756347 0
0.1 0.764295 0 0 0.764295 0 0.1 0.772326 0 0
0.772326 0 0.1 0.78044 0 0 0.78044 0 0.1 0.78864
0 0 0.78864 0 0.1 0.796924 0 0 0.796924 0
0.1 0.805295 0 0 0.805295 0 0.1 0.813754 0 0
0.813754 0 0.1 0.8223 0 0 0.8223 0 0.1 0.830936
0 0 0.830936 0 0.1 0.839662 0 0 0.839662 0
0.1 0.848479 0 0 0.848479 0 0.1 0.857387 0 0
0.857387 0 0.1 0.866389 0 0 0.866389 0 0.1 0.875485
0 0 0.875485 0 0.1 0.884675 0 0 0.884675 0
0.1 0.893961 0 0 0.893961 0 0.1 0.903344 0 0
0.903344 0 0.1 0.912825 0 0 0.912825 0 0.1 0.922405
0 0 0.922405 0 0.1 0.932085 0 0 0.932085 0
0.1 0.941865 0 0 0.941865 0 0.1 0.951748 0 0
0.951748 0 0.1 0.961734 0 0 0.961734 0 0.1 0.971824
0 0 0.971824 0 0.1 0.982019 0 0 0.982019 0
0.1 0.99232 0 0 0.99232 0 0.1 1.00273 0 0
1.00273 0 0.1 1.01325 0 0 1.01325 0 0.1 1.02387
0 0 1.02387 0 0.1 1.03461 0 0 1.03461 0
0.1 1.04546 0 0 1.04546 0 0.1 1.05642 0 0
1.05642 0 0.1 1.0675 0 0 1.0675 0 0.1 1.07869
0 0 1.07869 0 0.1 1.09 0 0 1.09 0
0.1 1.10143 0 0 1.10143 0 0.1 1.11298 0 0
1.11298 0 0.1 1.12465 0 0 1.12465 0 0.1 1.13644
0 0 1.13644 0 0.1 1.14835 0 0 1.14835 0
0.1 1.16038 0 0 1.16038 0 0.1 1.17254 0 0
1.17254 0 0.1 1.18483 0 0 1.18483 0 0.1 1.19725
0 0 1.19725 0 0.1 1.2098 0 0 1.2098 0
0.1 1.22247 0 0 1.22247 0 0.1 1.23528 0 0
1.23528 0 0.1 1.24822 0 0 1.24822 0 0.1 1.2613
0 0 1.2613 0 0.1 1.27452 0 0 1.27452 0
0.1 1.28787 0 0 1.28787 0 0.1 1.30136 0 0
1.30136 0 0.1 1.31499 0 0 1.31499 0 0.1 1.32877
0 0 1.32877 0 0.1 1.34268 0 0 1.34268 0
0.1 1.35675 0 0 1.35675 0 0.1 1.37095 0 0
1.37095 0 0.1 1.38531 0 0 1.38531 0 0.1 1.39982
0 0 1.39982 0 0.1 1.41448 0 0 1.41448 0
0.1 1.42929 0 0 1.42929 0 0.1 1.44426 0 0
1.44426 0 0.1 1.45938 0 0 1.45938 0 0.1 1.47466
0 0 1.47466 0 0.1 1.4901 0 0 1.4901 0
0.1 1.5057 0 0 1.5057 0 0.1 1.52146 0 0
1.52146 0 0.1 1.53739 0 0 1.53739 0 0.1 1.55348
0 0 1.55348 0 0.1 1.56974 0 0 1.56974 0
0.1 1.58617 0 0 1.58617 0 0.1 1.60278 0 0
1.60278 0 0.1 1.61955 0 0 1.61955 0 0.1 1.6365
0 0 1.6365 0 0.1 1.65363 0 0 1.65363 0
0.1 1.67093 0 0 1.67093 0 0.1 1.68842 0 0
1.68842 0 0.1 1.70609 0 0 1.70609 0 0.1 1.72394
0 0 1.72394 0 0.1 1.74198 0 0 1.74198 0
0.1 1.76021 0 0 1.76021 0 0.1 1.77862 0 0
1.77862 0 0.1 1.79723 0 0 1.79723 0 0.1 1.81604
0 0 1.81604 0 0.1 1.83504 0 0 1.83504 0
0.1 1.85423 0 0 1.85423 0 0.1 1.87363 0 0
1.87363 0 0.1 1.89323 0 0 1.89323 0 0.1 1.91304
0 0 1.91304 0 0.1 1.93305 0 0 1.93305 0
0.1 1.95327 0 0 1.95327 0 0.1 1.9737 0 0
1.9737 0 0.1 1.99434 0 0 1.99434 0 0.1 2.0152
0 0 2.0152 0 0.1 2.03628 0 0 2.03628 0
0.1 2.05757 0 0 2.05757 0 0.1 2.07909 0 0
2.07909 0 0.1 2.10083 0 0 2.10083 0 0.1 2.1228
0 0 2.1228 0 0.1 2.145 0 0 2.145 0
0.1 2.16743 0 0 2.16743 0 0.1 2.1901 0 0
2.1901 0 0.1 2.213 0 0 2.213 0 0.1 2.23614
0 0 2.23614 0 0.1 2.25952 0 0 2.25952 0
0.1 2.28314 0 0 2.28314 0 0.1 2.30701 0 0
2.30701 0 0.1 2.33113 0 0 2.33113 0 0.1 2.3555
0 0 2.3555 0 0.1 2.38013 0 0 2.38013 0
0.1 2.40501 0 0 2.40501 0 0.1 2.43015 0 0
2.43015 0 0.1 2.45556 0 0 2.45556 0 0.1 2.48122
0 0 2.48122 0 0.1 2.50716 0 0 2.50716 0
0.1 2.53337 0 0 2.53337 0 0.1 2.55985 0 0
2.55985 0 0.1 2.58661 0 0 2.58661 0 0.1 2.61364
0 0 2.61364 0 0.1 2.64096 0 0 2.64096 0
0.1 2.66856 0 0 2.66856 0 0.1 2.69645 0 0
2.69645 0 0.1 2.72463 0 0 2.72463 0 0.1 2.75311
0 0 2.75311 0 0.1 2.78188 0 0 2.78188 0
0.1 2.81095 0 0 2.81095 0 0.1 2.84033 0 0
2.84033 0 0.1 2.87001 0 0 2.87001 0 0.1 2.9
0 0 2.9 0 0.1 
POLYGONS 600 3000
4 0 1 2 3 4 1 4 5 2 4
4 6 7 5 4 6 8 9 7 4
8 10 11 9 4 10 12 13 11 4
12 14 15 13 4 14 16 17 15 4
16 18 19 17 4 18 20 21 19 4
20 22 23 21 4 22 24 25 23 4
24 26 27 25 4 26 28 29 27 4
28 30 31 29 4 30 32 33 31 4
32 34 35 33 4 34 36 37 35 4
36 38 39 37 4 38 40 41 39 4
40 42 43 41 4 42 44 45 43 4
44 46 47 45 4 46 48 49 47 4
48 50 51 49 4 50 52 53 51 4
52 54 55 53 4 54 56 57 55 4
56 58 59 57 4 58 60 61 59 4
60 62 63 61 4 62 64 65 63 4
64 66 67 65 4 66 68 69 67 4
68 70 71 69 4 70 72 73 71 4
72 74 75 73 4 74 76 77 75 4
76 78 79 77 4 78 80 81 79 4
80 82 83 81 4 82 84 85 83 4
84 86 87 85 4 86 88 89 87 4
88 90 91 89 4 90 92 93 91 4
92 94 95 93 4 94 96 97 95 4
96 98 99 97 4 98 100 101 99 4
100 102 103 101 4 102 104 105 103 4
104 106 107 105 4 106 108 109 107 4
108 110 111 109 4 110 112 113 111 4
112 114 115 113 4 114 116 117 115 4
116 118 119 117 4 118 120 121 119 4
120 122 123 121 4 122 124 125 123 4
124 126 127 125 4 126 128 129 127 4
128 130 131 129 4 130 132 133 131 4
132 134 135 133 4 134 136 137 135 4
136 138 139 137 4 138 140 141 139 4
140 142 143 141 4 142 144 145 143 4
144 146 147 145 4 146 148 149 147 4
148 150 151 149 4 150 152 153 151 4
152 154 155 153 4 154 156 157 155 4
156 158 159 157 4 158 160 161 159 4
160 162 163 161 4 162 164 165 163 4
164 166 167 165 4 166 168 169 167 4
168 170 171 169 4 170 172 173 171 4
172 174 175 173 4 174 176 177 175 4
176 178 179 177 4 178 180 181 179 4
180 182 183 181 4 182 184 185 183 4
184 186 187 185 4 186 188 189 187 4
188 190 191 189 4 190 192 193 191 4
192 194 195 193 4 194 196 197 195 4
196 198 199 197 4 198 200 201 199 4
200 202 203 201 4 202 204 205 203 4
204 206 207 205 4 206 208 209 207 4
208 210 211 209 4 210 212 213 211 4
212 214 215 213 4 214 216 217 215 4
216 218 219 217 4 218 220 221 219 4
220 222 223 221 4 222 224 225 223 4
224 226 227 225 4 226 228 229 227 4
228 230 231 229 4 230 232 233 231 4
232 234 235 233 4 234 236 237 235 4
236 238 239 237 4 238 240 241 239 4
240 242 243 241 4 242 244 245 243 4
244 246 247 245 4 246 248 249 247 4
248 250 251 249 4 250 252 253 251 4
252 254 255 253 4 254 256 257 255 4
256 258 259 257 4 258 260 261 259 4
260 262 263 261 4 262 264 265 263 4
264 266 267 265 4 266 268 269 267 4
268 270 271 269 4 270 272 273 271 4
272 274 275 273 4 274 276 277 275 4
276 278 279 277 4 278 280 281 279 4
280 282 283 281 4 282 284 285 283 4
284 286 287 285 4 286 288 289 287 4
288 290 291 289 4 290 292 293 291 4
292 294 295 293 4 294 296 297 295 4
296 298 299 297 4 298 300 301 299 4
300 302 303 301 4 302 304 305 303 4
304 306 307 305 4 306 308 309 307 4
308 310 311 309 4 310 312 313 311 4
312 314 315 313 4 314 316 317 315 4
316 318 319 317 4 318 320 321 319 4
320 322 323 321 4 322 324 325 323 4
324 326 327 325 4 326 328 329 327 4
328 330 331 329 4 330 332 333 331 4
332 334 335 333 4 334 336 337 335 4
336 338 339 337 4 338 340 341 339 4
340 342 343 341 4 342 344 345 343 4
344 346 347 345 4 346 348 349 347 4
348 350 351 349 4 350 352 353 351 4
352 354 355 353 4 354 356 357 355 4
356 358 359 357 4 358 360 361 359 4
360 362 363 361 4 362 364 365 363 4
364 366 367 365 4 366 368 369 367 4
368 370 371 369 4 370 372 373 371 4
372 374 375 373 4 374 376 377 375 4
376 378 379 377 4 378 380 381 379 4
380 382 383 381 4 382 384 385 383 4
384 386 387 385 4 386 388 389 387 4
388 390 391 389 4 390 392 393 391 4
392 394 395 393 4 394 396 397 395 4
396 398 399 397 4 398 400 401 399 4
400 402 403 401 4 402 404 405 403 4
404 406 407 405 4 406 408 409 407 4
408 410 411 409 4 410 412 413 411 4
412 414 415 413 4 414 416 417 415 4
416 418 419 417 4 418 420 421 419 4
420 422 423 421 4 422 424 425 423 4
424 426 427 425 4 426 428 429 427 4
428 430 431 429 4 430 432 433 431 4
432 434 435 433 4 434 436 437 435 4
436 438 439 437 4 438 440 441 439 4
440 442 443 441 4 442 444 445 443 4
444 446 447 445 4 446 448 449 447 4
448 450 451 449 4 450 452 453 451 4
452 454 455 453 4 454 456 457 455 4
456 458 459 457 4 458 460 461 459 4
460 462 463 461 4 462 464 465 463 4
464 466 467 465 4 466 468 469 467 4
468 470 471 469 4 470 472 473 471 4
472 474 475 473 4 474 476 477 475 4
476 478 479 477 4 478 480 481 479 4
480 482 483 481 4 482 484 485 483 4
484 486 487 485 4 486 488 489 487 4
488 490 491 489 4 490 492 493 491 4
492 494 495 493 4 494 496 497 495 4
496 498 499 497 4 498 500 501 499 4
500 502 503 501 4 502 504 505 503 4
504 506 507 505 4 506 508 509 507 4
508 510 511 509 4 510 512 513 511 4
512 514 515 513 4 514 516 517 515 4
516 518 519 517 4 518 520 521 519 4
520 522 523 521 4 522 524 525 523 4
524 526 527 525 4 526 528 529 527 4
528 530 531 529 4 530 532 533 531 4
532 534 535 533 4 534 536 537 535 4
536 538 539 537 4 538 540 541 539 4
540 542 543 541 4 542 544 545 543 4
544 546 547 545 4 546 548 549 547 4
548 550 551 549 4 550 552 553 551 4
552 554 555 553 4 554 556 557 555 4
556 558 559 557 4 558 560 561 559 4
560 562 563 561 4 562 564 565 563 4
564 566 567 565 4 566 568 569 567 4
568 570 571 569 4 570 572 573 571 4
572 574 575 573 4 574 576 577 575 4
576 578 579 577 4 578 580 581 579 4
580 582 583 581 4 582 584 585 583 4
584 586 587 585 4 586 588 589 587 4
588 590 591 589 4 590 592 593 591 4
592 594 595 593 4 594 596 597 595 4
596 598 599 597 4 598 600 601 599 4
600 602 603 601 4 602 604 605 603 4
604 606 607 605 4 606 608 609 607 4
608 610 611 609 4 610 612 613 611 4
612 614 615 613 4 614 616 617 615 4
616 618 619 617 4 618 620 621 619 4
620 622 623 621 4 622 624 625 623 4
624 626 627 625 4 626 628 629 627 4
628 630 631 629 4 630 632 633 631 4
632 634 635 633 4 634 636 637 635 4
636 638 639 637 4 638 640 641 639 4
640 642 643 641 4 642 644 645 643 4
644 646 647 645 4 646 648 649 647 4
648 650 651 649 4 650 652 653 651 4
652 654 655 653 4 654 656 657 655 4
656 658 659 657 4 658 660 661 659 4
660 662 663 661 4 662 664 665 663 4
664 666 667 665 4 666 668 669 667 4
668 670 671 669 4 670 672 673 671 4
672 674 675 673 4 674 676 677 675 4
676 678 679 677 4 678 680 681 679 4
680 682 683 681 4 682 684 685 683 4
684 686 687 685 4 686 688 689 687 4
688 690 691 689 4 690 692 693 691 4
692 694 695 693 4 694 696 697 695 4
696 698 699 697 4 698 700 701 699 4
700 702 703 701 4 702 704 705 703 4
704 706 707 705 4 706 708 709 707 4
708 710 711 709 4 710 712 713 711 4
712 714 715 713 4 714 716 717 715 4
716 718 719 717 4 718 720 721 719 4
720 722 723 721 4 722 724 725 723 4
724 726 727 725 4 726 728 729 727 4
728 730 731 729 4 730 732 733 731 4
732 734 735 733 4 734 736 737 735 4
736 738 739 737 4 738 740 741 739 4
740 742 743 741 4 742 744 745 743 4
744 746 747 745 4 746 748 749 747 4
748 750 751 749 4 750 752 753 751 4
752 754 755 753 4 754 756 757 755 4
756 758 759 757 4 758 760 761 759 4
760 762 763 761 4 762 764 765 763 4
764 766 767 765 4 766 768 769 767 4
768 770 771 769 4 770 772 773 771 4
772 774 775 773 4 774 776 777 775 4
776 778 779 777 4 778 780 781 779 4
780 782 783 781 4 782 784 785 783 4
784 786 787 785 4 786 788 789 787 4
788 790 791 789 4 790 792 793 791 4
792 794 795 793 4 794 796 797 795 4
796 798 799 797 4 798 800 801 799 4
800 802 803 801 4 802 804 805 803 4
804 806 807 805 4 806 808 809 807 4
808 810 811 809 4 810 812 813 811 4
812 814 815 813 4 814 816 817 815 4
816 818 819 817 4 818 820 821 819 4
820 822 823 821 4 822 824 825 823 4
824 826 827 825 4 826 828 829 827 4
828 830 831 829 4 830 832 833 831 4
832 834 835 833 4 834 836 837 835 4
836 838 839 837 4 838 840 841 839 4
840 842 843 841 4 842 844 845 843 4
844 846 847 845 4 846 848 849 847 4
848 850 851 849 4 850 852 853 851 4
852 854 855 853 4 854 856 857 855 4
856 858 859 857 4 858 860 861 859 4
860 862 863 861 4 862 864 865 863 4
864 866 867 865 4 866 868 869 867 4
868 870 871 869 4 870 872 873 871 4
872 874 875 873 4 874 876 877 875 4
876 878 879 877 4 878 880 881 879 4
880 882 883 881 4 882 884 885 883 4
884 886 887 885 4 886 888 889 887 4
888 890 891 889 4 890 892 893 891 4
892 894 895 893 4 894 896 897 895 4
896 898 899 897 4 898 900 901 899 4
900 902 903 901 4 902 904 905 903 4
904 906 907 905 4 906 908 909 907 4
908 910 911 909 4 910 912 913 911 4
912 914 915 913 4 914 916 917 915 4
916 918 919 917 4 918 920 921 919 4
920 922 923 921 4 922 924 925 923 4
924 926 927 925 4 926 928 929 927 4
928 930 931 929 4 930 932 933 931 4
932 934 935 933 4 934 936 937 935 4
936 938 939 937 4 938 940 941 939 4
940 942 943 941 4 942 944 945 943 4
944 946 947 945 4 946 948 949 947 4
948 950 951 949 4 950 952 953 951 4
952 954 955 953 4 954 956 957 955 4
956 958 959 957 4 958 960 961 959 4
960 962 963 961 4 962 964 965 963 4
964 966 967 965 4 966 968 969 967 4
968 970 971 969 4 970 972 973 971 4
972 974 975 973 4 974 976 977 975 4
976 978 979 977 4 978 980 981 979 4
980 982 983 981 4 982 984 985 983 4
984 986 987 985 4 986 988 989 987 4
988 990 991 989 4 990 992 993 991 4
992 994 995 993 4 994 996 997 995 4
996 998 999 997 4 998 1000 1001 999 4
1000 1002 1003 1001 4 1002 1004 1005 1003 4
1004 1006 1007 1005 4 1006 1008 1009 1007 4
1008 1010 1011 1009 4 1010 1012 1013 1011 4
1012 1014 1015 1013 4 1014 1016 1017 1015 4
1016 1018 1019 1017 4 1018 1020 1021 1019 4
1020 1022 1023 1021 4 1022 1024 1025 1023 4
1024 1026 1027 1025 4 1026 1028 1029 1027 4
1028 1030 1031 1029 4 1030 1032 1033 1031 4
1032 1034 1035 1033 4 1034 1036 1037 1035 4
1036 1038 1039 1037 4 1038 1040 1041 1039 4
1040 1042 1043 1041 4 1042 1044 1045 1043 4
1044 1046 1047 1045 4 1046 1048 1049 1047 4
1048 1050 1051 1049 4 1050 1052 1053 1051 4
1052 1054 1055 1053 4 1054 1056 1057 1055 4
1056 1058 1059 1057 4 1058 1060 1061 1059 4
1060 1062 1063 1061 4 1062 1064 1065 1063 4
1064 1066 1067 1065 4 1066 1068 1069 1067 4
1068 1070 1071 1069 4 1070 1072 1073 1071 4
1072 1074 1075 1073 4 1074 1076 1077 1075 4
1076 1078 1079 1077 4 1078 1080 1081 1079 4
1080 1082 1083 1081 4 1082 1084 1085 1083 4
1084 1086 1087 1085 4 1086 1088 1089 1087 4
1088 1090 1091 1089 4 1090 1092 1093 1091 4
1092 1094 1095 1093 4 1094 1096 1097 1095 4
1096 1098 1099 1097 4 1098 1100 1101 1099 4
1100 1102 1103 1101 4 1102 1104 1105 1103 4
1104 1106 1107 1105 4 1106 1108 1109 1107 4
1108 1110 1111 1109 4 1110 1112 1113 1111 4
1112 1114 1115 1113 4 1114 1116 1117 1115 4
1116 1118 1119 1117 4 1118 1120 1121 1119 4
1120 1122 1123 1121 4 1122 1124 1125 1123 4
1124 1126 1127 1125 4 1126 1128 1129 1127 4
1128 1130 1131 1129 4 1130 1132 1133 1131 4
1132 1134 1135 1133 4 1134 1136 1137 1135 4
1136 1138 1139 1137 4 1138 1140 1141 1139 4
1140 1142 1143 1141 4 1142 1144 1145 1143 4
1144 1146 1147 1145 4 1146 1148 1149 1147 4
1148 1150 1151 1149 4 1150 1152 1153 1151 4
1152 1154 1155 1153 4 1154 1156 1157 1155 4
1156 1158 1159 1157 4 1158 1160 1161 1159 4
1160 1162 1163 1161 4 1162 1164 1165 1163 4
1164 1166 1167 1165 4 1166 1168 1169 1167 4
1168 1170 1171 1169 4 1170 1172 1173 1171 4
1172 1174 1175 1173 4 1174 1176 1177 1175 4
1176 1178 1179 1177 4 1178 1180 1181 1179 4
1180 1182 1183 1181 4 1182 1184 1185 1183 4
1184 1186 1187 1185 4 1186 1188 1189 1187 4
1188 1190 1191 1189 4 1190 1192 1193 1191 4
1192 1194 1195 1193 4 1194 1196 1197 1195 4
1196 1198 1199 1197 4 1198 1200 1201 1199 
POINT_DATA 1202
FIELD attributes 1
U 3 1202 float
1.54638 0.0341555 0 0.869989 0.0236444 0 0.869989 0.0236444 0 1.54638 0.0341555
0 0.166348 0.00856647 0 0.166348 0.00856647 0 0.122379 0.00258711 0
0.122379 0.00258711 0 0.0963893 0.00077338 0 0.0963893 0.00077338 0 0.0818435
0.000279206 0 0.0818435 0.000279206 0 0.0730789 0.000175087 0 0.0730789 0.000175087
0 0.0669368 0.000157973 0 0.0669368 0.000157973 0 0.0621602 0.000141708 0
0.0621602 0.000141708 0 0.0582768 0.000120795 0 0.0582768 0.000120795 0 0.055052
0.000100916 0 0.055052 0.000100916 0 0.05232 8.5885e-05 0 0.05232 8.5885e-05
0 0.0499557 7.56248e-05 0 0.0499557 7.56248e-05 0 0.0478703 6.77234e-05 0
0.0478703 6.77234e-05 0 0.0460064 6.11521e-05 0 0.0460064 6.11521e-05 0 0.0443245
5.55245e-05 0 0.0443245 5.55245e-05 0 0.0427959 5.06234e-05 0 0.0427959 5.06234e-05
0 0.0413987 4.63088e-05 0 0.0413987 4.63088e-05 0 0.0401153 4.24869e-05 0
0.0401153 4.24869e-05 0 0.0389316 3.90876e-05 0 0.0389316 3.90876e-05 0 0.0378358
3.6055e-05 0 0.0378358 3.6055e-05 0 0.0368178 3.33425e-05 0 0.0368178 3.33425e-05
0 0.035869 3.09105e-05 0 0.035869 3.09105e-05 0 0.0349823 2.87248e-05 0
0.0349823 2.87248e-05 0 0.0341512 2.67559e-05 0 0.0341512 2.67559e-05 0 0.0333703
2.4978e-05 0 0.0333703 2.4978e-05 0 0.0326346 2.33687e-05 0 0.0326346 2.33687e-05
0 0.0319401 2.19083e-05 0 0.0319401 2.19083e-05 0 0.0312828 2.05798e-05 0
0.0312828 2.05798e-05 0 0.0306597 1.93682e-05 0 0.0306597 1.93682e-05 0 0.0300677
1.82605e-05 0 0.0300677 1.82605e-05 0 0.0295043 1.72454e-05 0 0.0295043 1.72454e-05
0 0.0289671 1.63128e-05 0 0.0289671 1.63128e-05 0 0.0284542 1.54555e-05 0
0.0284542 1.54555e-05 0 0.0279636 1.46628e-05 0 0.0279636 1.46628e-05 0 0.0274936
1.39376e-05 0 0.0274936 1.39376e-05 0 0.027043 1.3257e-05 0 0.027043 1.3257e-05
0 0.0266098 1.26528e-05 0 0.0266098 1.26528e-05 0 0.0261929 1.20497e-05 0
0.0261929 1.20497e-05 0 0.0257927 1.13211e-05 0 0.0257927 1.13211e-05 0 0.025408
1.07029e-05 0 0.025408 1.07029e-05 0 0.0250359 1.03201e-05 0 0.0250359 1.03201e-05
0 0.0246741 1.00053e-05 0 0.0246741 1.00053e-05 0 0.0243219 9.68268e-06 0
0.0243219 9.68268e-06 0 0.0239794 9.34875e-06 0 0.0239794 9.34875e-06 0 0.0236466
9.00935e-06 0 0.0236466 9.00935e-06 0 0.0233234 8.67091e-06 0 0.0233234 8.67091e-06
0 0.0230098 8.33858e-06 0 0.0230098 8.33858e-06 0 0.0227055 8.01572e-06 0
0.0227055 8.01572e-06 0 0.0224102 7.70431e-06 0 0.0224102 7.70431e-06 0 0.0221237
7.40541e-06 0 0.0221237 7.40541e-06 0 0.0218455 7.11949e-06 0 0.0218455 7.11949e-06
0 0.0215754 6.84658e-06 0 0.0215754 6.84658e-06 0 0.021313 6.58646e-06 0
0.021313 6.58646e-06 0 0.021058 6.33877e-06 0 0.021058 6.33877e-06 0 0.02081
6.10304e-06 0 0.02081 6.10304e-06 0 0.0205688 5.87874e-06 0 0.0205688 5.87874e-06
0 0.0203341 5.66531e-06 0 0.0203341 5.66531e-06 0 0.0201056 5.46221e-06 0
0.0201056 5.46221e-06 0 0.0198829 5.26886e-06 0 0.0198829 5.26886e-06 0 0.019666
5.08476e-06 0 0.019666 5.08476e-06 0 0.0194544 4.90934e-06 0 0.0194544 4.90934e-06
0 0.0192481 4.74217e-06 0 0.0192481 4.74217e-06 0 0.0190467 4.5827e-06 0
0.0190467 4.5827e-06 0 0.0188501 4.43057e-06 0 0.0188501 4.43057e-06 0 0.0186581
4.28529e-06 0 0.0186581 4.28529e-06 0 0.0184704 4.14657e-06 0 0.0184704 4.14657e-06
0 0.018287 4.01389e-06 0 0.018287 4.01389e-06 0 0.0181076 3.88713e-06 0
0.0181076 3.88713e-06 0 0.0179321 3.76571e-06 0 0.0179321 3.76571e-06 0 0.0177603
3.64966e-06 0 0.0177603 3.64966e-06 0 0.0175921 3.53834e-06 0 0.0175921 3.53834e-06
0 0.0174274 3.4319e-06 0 0.0174274 3.4319e-06 0 0.017266 3.32989e-06 0
0.017266 3.32989e-06 0 0.0171078 3.23194e-06 0 0.0171078 3.23194e-06 0 0.0169527
3.13983e-06 0 0.0169527 3.13983e-06 0 0.0168006 3.04822e-06 0 0.0168006 3.04822e-06
0 0.0166511 2.97215e-06 0 0.0166511 2.97215e-06 0 0.0165043 2.87744e-06 0
0.0165043 2.87744e-06 0 0.016361 2.74937e-06 0 0.016361 2.74937e-06 0 0.0162203
2.67464e-06 0 0.0162203 2.67464e-06 0 0.0160812 2.64555e-06 0 0.0160812 2.64555e-06
0 0.015943 2.60686e-06 0 0.015943 2.60686e-06 0 0.0158061 2.55881e-06 0
0.0158061 2.55881e-06 0 0.0156709 2.50361e-06 0 0.0156709 2.50361e-06 0 0.0155377
2.44415e-06 0 0.0155377 2.44415e-06 0 0.0154064 2.38268e-06 0 0.0154064 2.38268e-06
0 0.0152772 2.32063e-06 0 0.0152772 2.32063e-06 0 0.0151502 2.25892e-06 0
0.0151502 2.25892e-06 0 0.0150252 2.19813e-06 0 0.0150252 2.19813e-06 0 0.0149024
2.13861e-06 0 0.0149024 2.13861e-06 0 0.0147817 2.08057e-06 0 0.0147817 2.08057e-06
0 0.014663 2.02416e-06 0 0.014663 2.02416e-06 0 0.0145463 1.96941e-06 0
0.0145463 1.96941e-06 0 0.0144316 1.91635e-06 0 0.0144316 1.91635e-06 0 0.0143188
1.86498e-06 0 0.0143188 1.86498e-06 0 0.0142078 1.81527e-06 0 0.0142078 1.81527e-06
0 0.0140986 1.76718e-06 0 0.0140986 1.76718e-06 0 0.0139912 1.72069e-06 0
0.0139912 1.72069e-06 0 0.0138856 1.67572e-06 0 0.0138856 1.67572e-06 0 0.0137816
1.63224e-06 0 0.0137816 1.63224e-06 0 0.0136792 1.5902e-06 0 0.0136792 1.5902e-06
0 0.0135784 1.54953e-06 0 0.0135784 1.54953e-06 0 0.0134791 1.51018e-06 0
0.0134791 1.51018e-06 0 0.0133813 1.47214e-06 0 0.0133813 1.47214e-06 0 0.013285
1.43529e-06 0 0.013285 1.43529e-06 0 0.0131901 1.39966e-06 0 0.0131901 1.39966e-06
0 0.0130966 1.36513e-06 0 0.0130966 1.36513e-06 0 0.0130044 1.33174e-06 0
0.0130044 1.33174e-06 0 0.0129136 1.29935e-06 0 0.0129136 1.29935e-06 0 0.012824
1.26804e-06 0 0.012824 1.26804e-06 0 0.0127356 1.23764e-06 0 0.0127356 1.23764e-06
0 0.0126485 1.20829e-06 0 0.0126485 1.20829e-06 0 0.0125626 1.1798e-06 0
0.0125626 1.1798e-06 0 0.0124777 1.15221e-06 0 0.0124777 1.15221e-06 0 0.012394
1.12595e-06 0 0.012394 1.12595e-06 0 0.0123114 1.09943e-06 0 0.0123114 1.09943e-06
0 0.0122298 1.07809e-06 0 0.0122298 1.07809e-06 0 0.0121491 1.05127e-06 0
0.0121491 1.05127e-06 0 0.0120699 1.01322e-06 0 0.0120699 1.01322e-06 0 0.0119917
9.91251e-07 0 0.0119917 9.91251e-07 0 0.0119137 9.86158e-07 0 0.0119137 9.86158e-07
0 0.0118357 9.79075e-07 0 0.0118357 9.79075e-07 0 0.0117579 9.66888e-07 0
0.0117579 9.66888e-07 0 0.0116806 9.50961e-07 0 0.0116806 9.50961e-07 0 0.011604
9.32775e-07 0 0.011604 9.32775e-07 0 0.0115282 9.13404e-07 0 0.0115282 9.13404e-07
0 0.0114533 8.93505e-07 0 0.0114533 8.93505e-07 0 0.0113793 8.73485e-07 0
0.0113793 8.73485e-07 0 0.0113061 8.53589e-07 0 0.0113061 8.53589e-07 0 0.0112339
8.33966e-07 0 0.0112339 8.33966e-07 0 0.0111626 8.14711e-07 0 0.0111626 8.14711e-07
0 0.0110923 7.95879e-07 0 0.0110923 7.95879e-07 0 0.0110228 7.775e-07 0
0.0110228 7.775e-07 0 0.0109542 7.59591e-07 0 0.0109542 7.59591e-07 0 0.0108864
7.42157e-07 0 0.0108864 7.42157e-07 0 0.0108196 7.25199e-07 0 0.0108196 7.25199e-07
0 0.0107535 7.08709e-07 0 0.0107535 7.08709e-07 0 0.0106883 6.9268e-07 0
0.0106883 6.9268e-07 0 0.0106238 6.77099e-07 0 0.0106238 6.77099e-07 0 0.0105602
6.61958e-07 0 0.0105602 6.61958e-07 0 0.0104972 6.47237e-07 0 0.0104972 6.47237e-07
0 0.0104351 6.32934e-07 0 0.0104351 6.32934e-07 0 0.0103737 6.19022e-07 0
0.0103737 6.19022e-07 0 0.0103129 6.05504e-07 0 0.0103129 6.05504e-07 0 0.0102529
5.9235e-07 0 0.0102529 5.9235e-07 0 0.0101936 5.79571e-07 0 0.0101936 5.79571e-07
0 0.0101349 5.67124e-07 0 0.0101349 5.67124e-07 0 0.0100769 5.55041e-07 0
0.0100769 5.55041e-07 0 0.0100195 5.43259e-07 0 0.0100195 5.43259e-07 0 0.00996277
5.31835e-07 0 0.00996277 5.31835e-07 0 0.00990662 5.20694e-07 0 0.00990662 5.20694e-07
0 0.00985108 5.09889e-07 0 0.00985108 5.09889e-07 0 0.00979609 4.99489e-07 0
0.00979609 4.99489e-07 0 0.00974171 4.891e-07 0 0.00974171 4.891e-07 0 0.0096878
4.80529e-07 0 0.0096878 4.80529e-07 0 0.00963441 4.69683e-07 0 0.00963441 4.69683e-07
0 0.00958185 4.54784e-07 0 0.00958185 4.54784e-07 0 0.00952979 4.46656e-07 0
0.00952979 4.46656e-07 0 0.00947763 4.46215e-07 0 0.00947763 4.46215e-07 0 0.0094252
4.44888e-07 0 0.0094252 4.44888e-07 0 0.00937273 4.40481e-07 0 0.00937273 4.40481e-07
0 0.00932047 4.34063e-07 0 0.00932047 4.34063e-07 0 0.00926857 4.26458e-07 0
0.00926857 4.26458e-07 0 0.00921712 4.18259e-07 0 0.00921712 4.18259e-07 0 0.00916617
4.0979e-07 0 0.00916617 4.0979e-07 0 0.00911575 4.01248e-07 0 0.00911575 4.01248e-07
0 0.00906587 3.92745e-07 0 0.00906587 3.92745e-07 0 0.00901654 3.84349e-07 0
0.00901654 3.84349e-07 0 0.00896775 3.761e-07 0 0.00896775 3.761e-07 0 0.0089195
3.68022e-07 0 0.0089195 3.68022e-07 0 0.00887179 3.60128e-07 0 0.00887179 3.60128e-07
0 0.00882461 3.52425e-07 0 0.00882461 3.52425e-07 0 0.00877795 3.44912e-07 0
0.00877795 3.44912e-07 0 0.00873179 3.37596e-07 0 0.00873179 3.37596e-07 0 0.00868614
3.30465e-07 0 0.00868614 3.30465e-07 0 0.00864097 3.23525e-07 0 0.00864097 3.23525e-07
0 0.00859629 3.1676e-07 0 0.00859629 3.1676e-07 0 0.00855207 3.1018e-07 0
0.00855207 3.1018e-07 0 0.00850832 3.03763e-07 0 0.00850832 3.03763e-07 0 0.00846501
2.97524e-07 0 0.00846501 2.97524e-07 0 0.00842215 2.91433e-07 0 0.00842215 2.91433e-07
0 0.00837972 2.85519e-07 0 0.00837972 2.85519e-07 0 0.00833772 2.79733e-07 0
0.00833772 2.79733e-07 0 0.00829613 2.74128e-07 0 0.00829613 2.74128e-07 0 0.00825495
2.68628e-07 0 0.00825495 2.68628e-07 0 0.00821417 2.63324e-07 0 0.00821417 2.63324e-07
0 0.00817378 2.58096e-07 0 0.00817378 2.58096e-07 0 0.00813377 2.53091e-07 0
0.00813377 2.53091e-07 0 0.00809411 2.4818e-07 0 0.00809411 2.4818e-07 0 0.00805486
2.43391e-07 0 0.00805486 2.43391e-07 0 0.00801582 2.39619e-07 0 0.00801582 2.39619e-07
0 0.00797727 2.33009e-07 0 0.00797727 2.33009e-07 0 0.00793932 2.26369e-07 0
0.00793932 2.26369e-07 0 0.0079013 2.26162e-07 0 0.0079013 2.26162e-07 0 0.00786289
2.27292e-07 0 0.00786289 2.27292e-07 0 0.00782423 2.25935e-07 0 0.00782423 2.25935e-07
0 0.00778562 2.23206e-07 0 0.00778562 2.23206e-07 0 0.0077472 2.19587e-07 0
0.0077472 2.19587e-07 0 0.00770908 2.15571e-07 0 0.00770908 2.15571e-07 0 0.0076713
2.11361e-07 0 0.0076713 2.11361e-07 0 0.00763388 2.07094e-07 0 0.00763388 2.07094e-07
0 0.00759684 2.02837e-07 0 0.00759684 2.02837e-07 0 0.00756018 1.98633e-07 0
0.00756018 1.98633e-07 0 0.00752391 1.94501e-07 0 0.00752391 1.94501e-07 0 0.00748801
1.90459e-07 0 0.00748801 1.90459e-07 0 0.00745249 1.86508e-07 0 0.00745249 1.86508e-07
0 0.00741733 1.82655e-07 0 0.00741733 1.82655e-07 0 0.00738254 1.78897e-07 0
0.00738254 1.78897e-07 0 0.0073481 1.75237e-07 0 0.0073481 1.75237e-07 0 0.00731401
1.71669e-07 0 0.00731401 1.71669e-07 0 0.00728026 1.68193e-07 0 0.00728026 1.68193e-07
0 0.00724685 1.64803e-07 0 0.00724685 1.64803e-07 0 0.00721376 1.61502e-07 0
0.00721376 1.61502e-07 0 0.007181 1.58278e-07 0 0.007181 1.58278e-07 0 0.00714855
1.55141e-07 0 0.00714855 1.55141e-07 0 0.00711641 1.52072e-07 0 0.00711641 1.52072e-07
0 0.00708457 1.49092e-07 0 0.00708457 1.49092e-07 0 0.00705304 1.46167e-07 0
0.00705304 1.46167e-07 0 0.00702179 1.43342e-07 0 0.00702179 1.43342e-07 0 0.00699083
1.40554e-07 0 0.00699083 1.40554e-07 0 0.00696015 1.37889e-07 0 0.00696015 1.37889e-07
0 0.00692972 1.35254e-07 0 0.00692972 1.35254e-07 0 0.0068996 1.32718e-07 0
0.0068996 1.32718e-07 0 0.00686963 1.30652e-07 0 0.00686963 1.30652e-07 0 0.00684
1.27273e-07 0 0.00684 1.27273e-07 0 0.00681083 1.23996e-07 0 0.00681083 1.23996e-07
0 0.00678156 1.23934e-07 0 0.00678156 1.23934e-07 0 0.00675189 1.24784e-07 0
0.00675189 1.24784e-07 0 0.00672196 1.24348e-07 0 0.00672196 1.24348e-07 0 0.00669201
1.22954e-07 0 0.00669201 1.22954e-07 0 0.0066622 1.21008e-07 0 0.0066622 1.21008e-07
0 0.00663261 1.18811e-07 0 0.00663261 1.18811e-07 0 0.00660328 1.16506e-07 0
0.00660328 1.16506e-07 0 0.00657422 1.14167e-07 0 0.00657422 1.14167e-07 0 0.00654546
1.11839e-07 0 0.00654546 1.11839e-07 0 0.00651699 1.09538e-07 0 0.00651699 1.09538e-07
0 0.00648881 1.0728e-07 0 0.00648881 1.0728e-07 0 0.00646092 1.05069e-07 0
0.00646092 1.05069e-07 0 0.00643332 1.02904e-07 0 0.00643332 1.02904e-07 0 0.00640601
1.00794e-07 0 0.00640601 1.00794e-07 0 0.00637897 9.87307e-08 0 0.00637897 9.87307e-08
0 0.0063522 9.67234e-08 0 0.0063522 9.67234e-08 0 0.0063257 9.47642e-08 0
0.0063257 9.47642e-08 0 0.00629946 9.28574e-08 0 0.00629946 9.28574e-08 0 0.00627348
9.10031e-08 0 0.00627348 9.10031e-08 0 0.00624774 8.91962e-08 0 0.00624774 8.91962e-08
0 0.00622225 8.74428e-08 0 0.00622225 8.74428e-08 0 0.00619699 8.57367e-08 0
0.00619699 8.57367e-08 0 0.00617197 8.40752e-08 0 0.00617197 8.40752e-08 0 0.00614717
8.2469e-08 0 0.00614717 8.2469e-08 0 0.00612259 8.0891e-08 0 0.00612259 8.0891e-08
0 0.00609823 7.93817e-08 0 0.00609823 7.93817e-08 0 0.00607406 7.78863e-08 0
0.00607406 7.78863e-08 0 0.00605013 7.64641e-08 0 0.00605013 7.64641e-08 0 0.00602632
7.52125e-08 0 0.00602632 7.52125e-08 0 0.00600277 7.34249e-08 0 0.00600277 7.34249e-08
0 0.00597955 7.17357e-08 0 0.00597955 7.17357e-08 0 0.00595625 7.16442e-08 0
0.00595625 7.16442e-08 0 0.00593259 7.22467e-08 0 0.00593259 7.22467e-08 0 0.00590866
7.21361e-08 0 0.00590866 7.21361e-08 0 0.0058847 7.13248e-08 0 0.0058847 7.13248e-08
0 0.00586085 7.01661e-08 0 0.00586085 7.01661e-08 0 0.00583719 6.88353e-08 0
0.00583719 6.88353e-08 0 0.00581376 6.74558e-08 0 0.00581376 6.74558e-08 0 0.00579056
6.6063e-08 0 0.00579056 6.6063e-08 0 0.0057676 6.46811e-08 0 0.0057676 6.46811e-08
0 0.00574488 6.33367e-08 0 0.00574488 6.33367e-08 0 0.0057224 6.20122e-08 0
0.0057224 6.20122e-08 0 0.00570015 6.07321e-08 0 0.00570015 6.07321e-08 0 0.00567814
5.94849e-08 0 0.00567814 5.94849e-08 0 0.00565635 5.8264e-08 0 0.00565635 5.8264e-08
0 0.00563477 5.70898e-08 0 0.00563477 5.70898e-08 0 0.00561342 5.59308e-08 0
0.00561342 5.59308e-08 0 0.00559227 5.48113e-08 0 0.00559227 5.48113e-08 0 0.00557133
5.37198e-08 0 0.00557133 5.37198e-08 0 0.00555059 5.26447e-08 0 0.00555059 5.26447e-08
0 0.00553005 5.16097e-08 0 0.00553005 5.16097e-08 0 0.00550971 5.05884e-08 0
0.00550971 5.05884e-08 0 0.00548956 4.95883e-08 0 0.00548956 4.95883e-08 0 0.0054696
4.8627e-08 0 0.0054696 4.8627e-08 0 0.00544983 4.76574e-08 0 0.00544983 4.76574e-08
0 0.00543024 4.67462e-08 0 0.00543024 4.67462e-08 0 0.00541083 4.58211e-08 0
0.00541083 4.58211e-08 0 0.00539162 4.49776e-08 0 0.00539162 4.49776e-08 0 0.00537251
4.41231e-08 0 0.00537251 4.41231e-08 0 0.00535372 4.29044e-08 0 0.00535372 4.29044e-08
0 0.00533508 4.24345e-08 0 0.00533508 4.24345e-08 0 0.00531609 4.29611e-08 0
0.00531609 4.29611e-08 0 0.00529678 4.3139e-08 0 0.00529678 4.3139e-08 0 0.00527738
4.27303e-08 0 0.00527738 4.27303e-08 0 0.00525807 4.20259e-08 0 0.00525807 4.20259e-08
0 0.00523892 4.11792e-08 0 0.00523892 4.11792e-08 0 0.00521998 4.03125e-08 0
0.00521998 4.03125e-08 0 0.00520126 3.94077e-08 0 0.00520126 3.94077e-08 0 0.00518276
3.85191e-08 0 0.00518276 3.85191e-08 0 0.00516449 3.76575e-08 0 0.00516449 3.76575e-08
0 0.00514645 3.67883e-08 0 0.00514645 3.67883e-08 0 0.00512863 3.59626e-08 0
0.00512863 3.59626e-08 0 0.00511102 3.51577e-08 0 0.00511102 3.51577e-08 0 0.00509364
3.43524e-08 0 0.00509364 3.43524e-08 0 0.00507646 3.35953e-08 0 0.00507646 3.35953e-08
0 0.00505949 3.28391e-08 0 0.00505949 3.28391e-08 0 0.00504274 3.20831e-08 0
0.00504274 3.20831e-08 0 0.0050262 3.13671e-08 0 0.0050262 3.13671e-08 0 0.00500987
3.06286e-08 0 0.00500987 3.06286e-08 0 0.00499376 2.98974e-08 0 0.00499376 2.98974e-08
0 0.00497788 2.91913e-08 0 0.00497788 2.91913e-08 0 0.00496221 2.84635e-08 0
0.00496221 2.84635e-08 0 0.00494679 2.77418e-08 0 0.00494679 2.77418e-08 0 0.00493158
2.70644e-08 0 0.00493158 2.70644e-08 0 0.00491662 2.63356e-08 0 0.00491662 2.63356e-08
0 0.0049019 2.56863e-08 0 0.0049019 2.56863e-08 0 0.00488734 2.50425e-08 0
0.00488734 2.50425e-08 0 0.00487316 2.41363e-08 0 0.00487316 2.41363e-08 0 0.00485923
2.37003e-08 0 0.00485923 2.37003e-08 0 0.00484508 2.38987e-08 0 0.00484508 2.38987e-08
0 0.00483076 2.38741e-08 0 0.00483076 2.38741e-08 0 0.00481645 2.34661e-08 0
0.00481645 2.34661e-08 0 0.00480235 2.28665e-08 0 0.00480235 2.28665e-08 0 0.00478852
2.21278e-08 0 0.00478852 2.21278e-08 0 0.00477502 2.13691e-08 0 0.00477502 2.13691e-08
0 0.00476185 2.06258e-08 0 0.00476185 2.06258e-08 0 0.00474904 1.98345e-08 0
0.00474904 1.98345e-08 0 0.0047366 1.90558e-08 0 0.0047366 1.90558e-08 0 0.00472452
1.83206e-08 0 0.00472452 1.83206e-08 0 0.00471281 1.7544e-08 0 0.00471281 1.7544e-08
0 0.00470149 1.67728e-08 0 0.00470149 1.67728e-08 0 0.00469054 1.60632e-08 0
0.00469054 1.60632e-08 0 0.00467997 1.53209e-08 0 0.00467997 1.53209e-08 0 0.0046698
1.45668e-08 0 0.0046698 1.45668e-08 0 0.00466001 1.38937e-08 0 0.00466001 1.38937e-08
0 0.00465059 1.32117e-08 0 0.00465059 1.32117e-08 0 0.00464157 1.24958e-08 0
0.00464157 1.24958e-08 0 0.00463293 1.18592e-08 0 0.00463293 1.18592e-08 0 0.00462464
1.12455e-08 0 0.00462464 1.12455e-08 0 0.00461675 1.05756e-08 0 0.00461675 1.05756e-08
0 0.00460924 9.94711e-09 0 0.00460924 9.94711e-09 0 0.0046021 9.388e-09 0
0.0046021 9.388e-09 0 0.00459533 8.77152e-09 0 0.00459533 8.77152e-09 0 0.00458896
8.13603e-09 0 0.00458896 8.13603e-09 0 0.00458295 7.64649e-09 0 0.00458295 7.64649e-09
0 0.00457727 7.06493e-09 0 0.00457727 7.06493e-09 0 0.00457209 6.40617e-09 0
0.00457209 6.40617e-09 0 0.00456715 6.21288e-09 0 0.00456715 6.21288e-09 0 0.00456212
6.26134e-09 0 0.00456212 6.26134e-09 0 0.00455715 6.02357e-09 0 0.00455715 6.02357e-09
0 0.00455241 5.6251e-09 0 0.00455241 5.6251e-09 0 0.00454794 5.25477e-09 0
0.00454794 5.25477e-09 0 0.00454377 4.82435e-09 0 0.00454377 4.82435e-09 0 0.00453997
4.31083e-09 0 0.00453997 4.31083e-09 0 0.00453653 3.86337e-09 0 0.00453653 3.86337e-09
0 0.00453339 3.4885e-09 0 0.00453339 3.4885e-09 0 0.0045306 3.04414e-09 0
0.0045306 3.04414e-09 0 0.00452818 2.56422e-09 0 0.00452818 2.56422e-09 0 0.00452608
2.19296e-09 0 0.00452608 2.19296e-09 0 0.00452427 1.87214e-09 0 0.00452427 1.87214e-09
0 0.00452278 1.4702e-09 0 0.00452278 1.4702e-09 0 0.00452162 1.08447e-09 0
0.00452162 1.08447e-09 0 0.0045207 8.56824e-10 0 0.0045207 8.56824e-10 0 0.00451997
6.66035e-10 0 0.00451997 6.66035e-10 0 0.0045195 3.47846e-10 0 0.0045195 3.47846e-10
0 0.00451934 1.89801e-11 0 0.00451934 1.89801e-11 0 0.0045194 -1.55751e-10 0
0.0045194 -1.55751e-10 0 0.00451962 -3.03675e-10 0 0.00451962 -3.03675e-10 0 0.00452011
-6.14332e-10 0 0.00452011 -6.14332e-10 0 0.00452094 -9.7822e-10 0 0.00452094 -9.7822e-10
0 0.00452202 -1.1833e-09 0 0.00452202 -1.1833e-09 0 0.00452326 -1.29589e-09 0
0.00452326 -1.29589e-09 0 0.00452472 -1.52701e-09 0 0.00452472 -1.52701e-09 0 0.00452649
-1.84268e-09 0 0.00452649 -1.84268e-09 0 0.00452849 -2.0202e-09 0 0.00452849 -2.0202e-09
0 0.00453058 -2.02633e-09 0 0.00453058 -2.02633e-09 0 0.00453276 -2.10177e-09 0
0.00453276 -2.10177e-09 0 0.00453519 -2.30839e-09 0 0.00453519 -2.30839e-09 0 0.0045378
-2.37924e-09 0 0.0045378 -2.37924e-09 0 0.0045403 -2.2475e-09 0 0.0045403 -2.2475e-09
0 0.00454267 -2.11654e-09 0 0.00454267 -2.11654e-09 0 0.00454504 -2.12873e-09 0
0.00454504 -2.12873e-09 0 0.00454755 -2.27165e-09 0 0.00454755 -2.27165e-09 0 0.00455026
-2.43186e-09 0 0.00455026 -2.43186e-09 0 0.00455313 -2.52918e-09 0 0.00455313 -2.52918e-09
0 0.00455612 -2.58467e-09 0 0.00455612 -2.58467e-09 0 0.00455923 -2.66572e-09 0
0.00455923 -2.66572e-09 0 0.00456252 -2.80363e-09 0 0.00456252 -2.80363e-09 0 0.00456603
-2.96738e-09 0 0.00456603 -2.96738e-09 0 0.00456972 -3.09382e-09 0 0.00456972 -3.09382e-09
0 0.00457354 -3.13808e-09 0 0.00457354 -3.13808e-09 0 0.00457739 -3.11013e-09 0
0.00457739 -3.11013e-09 0 0.00458126 -3.07431e-09 0 0.00458126 -3.07431e-09 0 0.00458521
-3.10548e-09 0 0.00458521 -3.10548e-09 0 0.00458933 -3.23283e-09 0 0.00458933 -3.23283e-09
0 0.0045937 -3.41711e-09 0 0.0045937 -3.41711e-09 0 0.00459832 -3.57837e-09 0
0.00459832 -3.57837e-09 0 0.0046031 -3.65367e-09 0 0.0046031 -3.65367e-09 0 0.00460794
-3.63808e-09 0 0.00460794 -3.63808e-09 0 0.00461277 -3.57918e-09 0 0.00461277 -3.57918e-09
0 0.00461761 -3.53677e-09 0 0.00461761 -3.53677e-09 0 0.0046225 -3.54544e-09 0
0.0046225 -3.54544e-09 0 0.00462751 -3.60298e-09 0 0.00462751 -3.60298e-09 0 0.00463268
-3.68363e-09 0 0.00463268 -3.68363e-09 0 0.004638 -3.75968e-09 0 0.004638 -3.75968e-09
0 0.00464346 -3.81318e-09 0 0.00464346 -3.81318e-09 0 0.00464903 -3.84079e-09 0
0.00464903 -3.84079e-09 0 0.00465467 -3.84922e-09 0 0.00465467 -3.84922e-09 0 0.00466038
-3.86092e-09 0 0.00466038 -3.86092e-09 0 0.00466619 -3.84079e-09 0 0.00466619 -3.84079e-09
0 0.00467195 -3.72681e-09 0 0.00467195 -3.72681e-09 0 0.00467753 -3.58703e-09 0
0.00467753 -3.58703e-09 0 0.00468301 -3.50718e-09 0 0.00468301 -3.50718e-09 0 0.00468847
-3.48015e-09 0 0.00468847 -3.48015e-09 0 0.00469397 -3.47932e-09 0 0.00469397 -3.47932e-09
0 0.00469954 -3.48953e-09 0 0.00469954 -3.48953e-09 0 0.00470519 -3.50328e-09 0
0.00470519 -3.50328e-09 0 0.00471093 -3.51797e-09 0 0.00471093 -3.51797e-09 0 0.00471674
-3.5325e-09 0 0.00471674 -3.5325e-09 0 0.00472264 -3.54681e-09 0 0.00472264 -3.54681e-09
0 0.00472863 -3.56075e-09 0 0.00472863 -3.56075e-09 0 0.0047347 -3.57331e-09 0
0.0047347 -3.57331e-09 0 0.00474086 -3.58495e-09 0 0.00474086 -3.58495e-09 0 0.0047471
-3.59492e-09 0 0.0047471 -3.59492e-09 0 0.00475342 -3.60299e-09 0 0.00475342 -3.60299e-09
0 0.00475981 -3.60907e-09 0 0.00475981 -3.60907e-09 0 0.00476628 -3.61331e-09 0
0.00476628 -3.61331e-09 0 0.00477283 -3.61612e-09 0 0.00477283 -3.61612e-09 0 0.00477945
-3.61788e-09 0 0.00477945 -3.61788e-09 0 0.00478613 -3.61871e-09 0 0.00478613 -3.61871e-09
0 0.00479289 -3.61791e-09 0 0.00479289 -3.61791e-09 0 0.00479972 -3.61635e-09 0
0.00479972 -3.61635e-09 0 0.00480661 -3.61444e-09 0 0.00480661 -3.61444e-09 0 0.00481358
-3.61175e-09 0 0.00481358 -3.61175e-09 0 0.0048206 -3.60792e-09 0 0.0048206 -3.60792e-09
0 0.0048277 -3.60316e-09 0 0.0048277 -3.60316e-09 0 0.00483485 -3.59764e-09 0
0.00483485 -3.59764e-09 0 0.00484208 -3.59105e-09 0 0.00484208 -3.59105e-09 0 0.00484936
-3.58331e-09 0 0.00484936 -3.58331e-09 0 0.0048567 -3.58006e-09 0 0.0048567 -3.58006e-09
0 0.00486412 -3.55195e-09 0 0.00486412 -3.55195e-09 0 0.00487148 -3.4592e-09 0
0.00487148 -3.4592e-09 0 0.00487866 -3.34616e-09 0 0.00487866 -3.34616e-09 0 0.00488571
-3.26951e-09 0 0.00488571 -3.26951e-09 0 0.00489272 -3.2279e-09 0 0.00489272 -3.2279e-09
0 0.00489974 -3.20634e-09 0 0.00489974 -3.20634e-09 0 0.00490679 -3.19457e-09 0
0.00490679 -3.19457e-09 0 0.0049139 -3.18707e-09 0 0.0049139 -3.18707e-09 0 0.00492107
-3.18199e-09 0 0.00492107 -3.18199e-09 0 0.00492831 -3.17762e-09 0 0.00492831 -3.17762e-09
0 0.00493561 -3.17345e-09 0 0.00493561 -3.17345e-09 0 0.00494297 -3.1692e-09 0
0.00494297 -3.1692e-09 0 0.00495041 -3.16444e-09 0 0.00495041 -3.16444e-09 0 0.00495791
-3.15933e-09 0 0.00495791 -3.15933e-09 0 0.00496547 -3.15395e-09 0 0.00496547 -3.15395e-09
0 0.0049731 -3.14801e-09 0 0.0049731 -3.14801e-09 0 0.0049808 -3.14138e-09 0
0.0049808 -3.14138e-09 0 0.00498855 -3.13428e-09 0 0.00498855 -3.13428e-09 0 0.00499637
-3.12676e-09 0 0.00499637 -3.12676e-09 0 0.00500426 -3.11891e-09 0 0.00500426 -3.11891e-09
0 0.0050122 -3.11062e-09 0 0.0050122 -3.11062e-09 0 0.0050202 -3.10175e-09 0
0.0050202 -3.10175e-09 0 0.00502827 -3.09227e-09 0 0.00502827 -3.09227e-09 0 0.00503639
-3.08249e-09 0 0.00503639 -3.08249e-09 0 0.00504457 -3.07258e-09 0 0.00504457 -3.07258e-09
0 0.00505281 -3.06224e-09 0 0.00505281 -3.06224e-09 0 0.00506111 -3.05161e-09 0
0.00506111 -3.05161e-09 0 0.00506946 -3.03999e-09 0 0.00506946 -3.03999e-09 0 0.00507787
-3.02849e-09 0 0.00507787 -3.02849e-09 0 0.00508633 -3.01486e-09 0 0.00508633 -3.01486e-09
0 0.00509484 -2.97161e-09 0 0.00509484 -2.97161e-09 0 0.00510322 -2.88884e-09 0
0.00510322 -2.88884e-09 0 0.00511143 -2.80936e-09 0 0.00511143 -2.80936e-09 0 0.00511954
-2.75973e-09 0 0.00511954 -2.75973e-09 0 0.00512762 -2.73021e-09 0 0.00512762 -2.73021e-09
0 0.00513572 -2.71115e-09 0 0.00513572 -2.71115e-09 0 0.00514386 -2.69739e-09 0
0.00514386 -2.69739e-09 0 0.00515205 -2.68618e-09 0 0.00515205 -2.68618e-09 0 0.00516029
-2.6763e-09 0 0.00516029 -2.6763e-09 0 0.00516859 -2.66709e-09 0 0.00516859 -2.66709e-09
0 0.00517695 -2.6581e-09 0 0.00517695 -2.6581e-09 0 0.00518536 -2.64887e-09 0
0.00518536 -2.64887e-09 0 0.00519383 -2.63964e-09 0 0.00519383 -2.63964e-09 0 0.00520237
-2.6303e-09 0 0.00520237 -2.6303e-09 0 0.00521095 -2.62055e-09 0 0.00521095 -2.62055e-09
0 0.0052196 -2.61062e-09 0 0.0052196 -2.61062e-09 0 0.0052283 -2.60066e-09 0
0.0052283 -2.60066e-09 0 0.00523706 -2.59026e-09 0 0.00523706 -2.59026e-09 0 0.00524587
-2.57959e-09 0 0.00524587 -2.57959e-09 0 0.00525474 -2.56863e-09 0 0.00525474 -2.56863e-09
0 0.00526366 -2.55708e-09 0 0.00526366 -2.55708e-09 0 0.00527264 -2.54558e-09 0
0.00527264 -2.54558e-09 0 0.00528167 -2.53416e-09 0 0.00528167 -2.53416e-09 0 0.00529075
-2.52248e-09 0 0.00529075 -2.52248e-09 0 0.00529988 -2.5105e-09 0 0.00529988 -2.5105e-09
0 0.00530906 -2.49806e-09 0 0.00530906 -2.49806e-09 0 0.00531829 -2.48569e-09 0
0.00531829 -2.48569e-09 0 0.00532758 -2.47227e-09 0 0.00532758 -2.47227e-09 0 0.0053369
-2.43968e-09 0 0.0053369 -2.43968e-09 0 0.00534612 -2.37699e-09 0 0.00534612 -2.37699e-09
0 0.00535516 -2.31424e-09 0 0.00535516 -2.31424e-09 0 0.00536408 -2.27281e-09 0
0.00536408 -2.27281e-09 0 0.00537298 -2.24599e-09 0 0.00537298 -2.24599e-09 0 0.00538189
-2.22741e-09 0 0.00538189 -2.22741e-09 0 0.00539082 -2.21278e-09 0 0.00539082 -2.21278e-09
0 0.0053998 -2.20061e-09 0 0.0053998 -2.20061e-09 0 0.00540882 -2.18964e-09 0
0.00540882 -2.18964e-09 0 0.00541789 -2.17898e-09 0 0.00541789 -2.17898e-09 0 0.00542701
-2.16848e-09 0 0.00542701 -2.16848e-09 0 0.00543618 -2.15792e-09 0 0.00543618 -2.15792e-09
0 0.00544541 -2.14758e-09 0 0.00544541 -2.14758e-09 0 0.00545468 -2.13753e-09 0
0.00545468 -2.13753e-09 0 0.00546401 -2.12733e-09 0 0.00546401 -2.12733e-09 0 0.00547339
-2.11669e-09 0 0.00547339 -2.11669e-09 0 0.00548282 -2.10566e-09 0 0.00548282 -2.10566e-09
0 0.00549229 -2.09494e-09 0 0.00549229 -2.09494e-09 0 0.00550182 -2.08414e-09 0
0.00550182 -2.08414e-09 0 0.0055114 -2.07278e-09 0 0.0055114 -2.07278e-09 0 0.00552102
-2.06158e-09 0 0.00552102 -2.06158e-09 0 0.00553069 -2.05031e-09 0 0.00553069 -2.05031e-09
0 0.0055404 -2.03878e-09 0 0.0055404 -2.03878e-09 0 0.00555017 -2.02715e-09 0
0.00555017 -2.02715e-09 0 0.00555997 -2.01528e-09 0 0.00555997 -2.01528e-09 0 0.00556982
-2.00414e-09 0 0.00556982 -2.00414e-09 0 0.00557973 -1.98667e-09 0 0.00557973 -1.98667e-09
0 0.00558961 -1.94863e-09 0 0.00558961 -1.94863e-09 0 0.00559933 -1.897e-09 0
0.00559933 -1.897e-09 0 0.00560889 -1.85457e-09 0 0.00560889 -1.85457e-09 0 0.00561838
-1.82727e-09 0 0.00561838 -1.82727e-09 0 0.00562786 -1.80833e-09 0 0.00562786 -1.80833e-09
0 0.00563735 -1.79379e-09 0 0.00563735 -1.79379e-09 0 0.00564687 -1.78171e-09 0
0.00564687 -1.78171e-09 0 0.00565643 -1.77077e-09 0 0.00565643 -1.77077e-09 0 0.00566603
-1.76037e-09 0 0.00566603 -1.76037e-09 0 0.00567568 -1.75022e-09 0 0.00567568 -1.75022e-09
0 0.00568537 -1.74022e-09 0 0.00568537 -1.74022e-09 0 0.00569511 -1.73031e-09 0
0.00569511 -1.73031e-09 0 0.00570489 -1.72061e-09 0 0.00570489 -1.72061e-09 0 0.00571471
-1.711e-09 0 0.00571471 -1.711e-09 0 0.00572459 -1.70092e-09 0 0.00572459 -1.70092e-09
0 0.0057345 -1.69068e-09 0 0.0057345 -1.69068e-09 0 0.00574446 -1.6809e-09 0
0.00574446 -1.6809e-09 0 0.00575447 -1.6708e-09 0 0.00575447 -1.6708e-09 0 0.00576451
-1.66024e-09 0 0.00576451 -1.66024e-09 0 0.0057746 -1.6499e-09 0 0.0057746 -1.6499e-09
0 0.00578473 -1.63971e-09 0 0.00578473 -1.63971e-09 0 0.00579491 -1.62933e-09 0
0.00579491 -1.62933e-09 0 0.00580512 -1.61875e-09 0 0.00580512 -1.61875e-09 0 0.00581537
-1.60854e-09 0 0.00581537 -1.60854e-09 0 0.00582567 -1.59391e-09 0 0.00582567 -1.59391e-09
0 0.00583594 -1.564e-09 0 0.00583594 -1.564e-09 0 0.00584606 -1.52338e-09 0
0.00584606 -1.52338e-09 0 0.00585601 -1.48969e-09 0 0.00585601 -1.48969e-09 0 0.00586589
-1.46758e-09 0 0.00586589 -1.46758e-09 0 0.00587575 -1.45181e-09 0 0.00587575 -1.45181e-09
0 0.00588563 -1.43937e-09 0 0.00588563 -1.43937e-09 0 0.00589553 -1.4288e-09 0
0.00589553 -1.4288e-09 0 0.00590546 -1.41897e-09 0 0.00590546 -1.41897e-09 0 0.00591542
-1.40957e-09 0 0.00591542 -1.40957e-09 0 0.00592543 -1.40042e-09 0 0.00592543 -1.40042e-09
0 0.00593548 -1.3913e-09 0 0.00593548 -1.3913e-09 0 0.00594556 -1.38293e-09 0
0.00594556 -1.38293e-09 0 0.00595569 -1.37416e-09 0 0.00595569 -1.37416e-09 0 0.00596586
-1.36491e-09 0 0.00596586 -1.36491e-09 0 0.00597606 -1.35609e-09 0 0.00597606 -1.35609e-09
0 0.00598631 -1.34706e-09 0 0.00598631 -1.34706e-09 0 0.00599659 -1.3382e-09 0
0.00599659 -1.3382e-09 0 0.00600691 -1.32937e-09 0 0.00600691 -1.32937e-09 0 0.00601727
-1.3203e-09 0 0.00601727 -1.3203e-09 0 0.00602767 -1.31084e-09 0 0.00602767 -1.31084e-09
0 0.00603811 -1.30195e-09 0 0.00603811 -1.30195e-09 0 0.00604857 -1.29321e-09 0
0.00604857 -1.29321e-09 0 0.00605908 -1.28363e-09 0 0.00605908 -1.28363e-09 0 0.00606962
-1.26695e-09 0 0.00606962 -1.26695e-09 0 0.00608006 -1.23748e-09 0 0.00608006 -1.23748e-09
0 0.00609031 -1.20651e-09 0 0.00609031 -1.20651e-09 0 0.00610045 -1.18428e-09 0
0.00610045 -1.18428e-09 0 0.00611054 -1.16863e-09 0 0.00611054 -1.16863e-09 0 0.00612062
-1.15728e-09 0 0.00612062 -1.15728e-09 0 0.00613073 -1.14802e-09 0 0.00613073 -1.14802e-09
0 0.00614085 -1.13914e-09 0 0.00614085 -1.13914e-09 0 0.00615101 -1.13102e-09 0
0.00615101 -1.13102e-09 0 0.0061612 -1.12314e-09 0 0.0061612 -1.12314e-09 0 0.00617142
-1.11542e-09 0 0.00617142 -1.11542e-09 0 0.00618168 -1.10768e-09 0 0.00618168 -1.10768e-09
0 0.00619198 -1.09988e-09 0 0.00619198 -1.09988e-09 0 0.00620231 -1.09225e-09 0
0.00620231 -1.09225e-09 0 0.00621268 -1.08452e-09 0 0.00621268 -1.08452e-09 0 0.00622307
-1.07719e-09 0 0.00622307 -1.07719e-09 0 0.00623351 -1.06931e-09 0 0.00623351 -1.06931e-09
0 0.00624397 -1.06236e-09 0 0.00624397 -1.06236e-09 0 0.00625449 -1.05331e-09 0
0.00625449 -1.05331e-09 0 0.00626499 -1.04752e-09 0 0.00626499 -1.04752e-09 0 0.00627562
-1.03652e-09 0 0.00627562 -1.03652e-09 0 0.00628611 -1.03336e-09 0 0.00628611 -1.03336e-09
0 0.0062969 -1.01652e-09 0 0.0062969 -1.01652e-09 0 0.00630725 -9.96917e-10 0
0.00630725 -9.96917e-10 0 0.00631785 -9.71697e-10 0 0.00631785 -9.71697e-10 0 0.00632788
-9.46551e-10 0 0.00632788 -9.46551e-10 0 0.00633817 -9.49814e-10 0 0.00633817 -9.49814e-10
0 0.00634846 -9.06128e-10 0 0.00634846 -9.06128e-10 0 0.00635802 -9.70921e-10 0
0.00635802 -9.70921e-10 0 0.0138334 -1.51322e-09 0 0.0138334 -1.51322e-09 0 0.0213095
-1.95001e-09 0 0.0213095 -1.95001e-09 0 
