# vtk DataFile Version 2.0
sampleSurface
ASCII
DATASET POLYDATA
POINTS 1202 float
0 0 0 5.99825e-05 0 0 5.99825e-05 0 0.1 0 0
0.1 0.000120591 0 0 0.000120591 0 0.1 0.000181831 0 0
0.000181831 0 0.1 0.000243709 0 0 0.000243709 0 0.1 0.000306234
0 0 0.000306234 0 0.1 0.00036941 0 0 0.00036941 0
0.1 0.000433245 0 0 0.000433245 0 0.1 0.000497746 0 0
0.000497746 0 0.1 0.000562919 0 0 0.000562919 0 0.1 0.000628772
0 0 0.000628772 0 0.1 0.000695312 0 0 0.000695312 0
0.1 0.000762546 0 0 0.000762546 0 0.1 0.000830481 0 0
0.000830481 0 0.1 0.000899125 0 0 0.000899125 0 0.1 0.000968484
0 0 0.000968484 0 0.1 0.00103857 0 0 0.00103857 0
0.1 0.00110938 0 0 0.00110938 0 0.1 0.00118093 0 0
0.00118093 0 0.1 0.00125323 0 0 0.00125323 0 0.1 0.00132628
0 0 0.00132628 0 0.1 0.0014001 0 0 0.0014001 0
0.1 0.00147468 0 0 0.00147468 0 0.1 0.00155004 0 0
0.00155004 0 0.1 0.00162619 0 0 0.00162619 0 0.1 0.00170313
0 0 0.00170313 0 0.1 0.00178088 0 0 0.00178088 0
0.1 0.00185943 0 0 0.00185943 0 0.1 0.00193881 0 0
0.00193881 0 0.1 0.00201901 0 0 0.00201901 0 0.1 0.00210005
0 0 0.00210005 0 0.1 0.00218193 0 0 0.00218193 0
0.1 0.00226467 0 0 0.00226467 0 0.1 0.00234827 0 0
0.00234827 0 0.1 0.00243274 0 0 0.00243274 0 0.1 0.0025181
0 0 0.0025181 0 0.1 0.00260434 0 0 0.00260434 0
0.1 0.00269148 0 0 0.00269148 0 0.1 0.00277954 0 0
0.00277954 0 0.1 0.00286851 0 0 0.00286851 0 0.1 0.0029584
0 0 0.0029584 0 0.1 0.00304924 0 0 0.00304924 0
0.1 0.00314102 0 0 0.00314102 0 0.1 0.00323376 0 0
0.00323376 0 0.1 0.00332747 0 0 0.00332747 0 0.1 0.00342215
0 0 0.00342215 0 0.1 0.00351783 0 0 0.00351783 0
0.1 0.0036145 0 0 0.0036145 0 0.1 0.00371217 0 0
0.00371217 0 0.1 0.00381087 0 0 0.00381087 0 0.1 0.0039106
0 0 0.0039106 0 0.1 0.00401136 0 0 0.00401136 0
0.1 0.00411318 0 0 0.00411318 0 0.1 0.00421606 0 0
0.00421606 0 0.1 0.00432001 0 0 0.00432001 0 0.1 0.00442505
0 0 0.00442505 0 0.1 0.00453118 0 0 0.00453118 0
0.1 0.00463842 0 0 0.00463842 0 0.1 0.00474677 0 0
0.00474677 0 0.1 0.00485626 0 0 0.00485626 0 0.1 0.00496689
0 0 0.00496689 0 0.1 0.00507867 0 0 0.00507867 0
0.1 0.00519162 0 0 0.00519162 0 0.1 0.00530574 0 0
0.00530574 0 0.1 0.00542106 0 0 0.00542106 0 0.1 0.00553758
0 0 0.00553758 0 0.1 0.00565531 0 0 0.00565531 0
0.1 0.00577427 0 0 0.00577427 0 0.1 0.00589447 0 0
0.00589447 0 0.1 0.00601593 0 0 0.00601593 0 0.1 0.00613865
0 0 0.00613865 0 0.1 0.00626266 0 0 0.00626266 0
0.1 0.00638795 0 0 0.00638795 0 0.1 0.00651455 0 0
0.00651455 0 0.1 0.00664248 0 0 0.00664248 0 0.1 0.00677173
0 0 0.00677173 0 0.1 0.00690234 0 0 0.00690234 0
0.1 0.0070343 0 0 0.0070343 0 0.1 0.00716765 0 0
0.00716765 0 0.1 0.00730238 0 0 0.00730238 0 0.1 0.00743852
0 0 0.00743852 0 0.1 0.00757608 0 0 0.00757608 0
0.1 0.00771507 0 0 0.00771507 0 0.1 0.00785551 0 0
0.00785551 0 0.1 0.00799742 0 0 0.00799742 0 0.1 0.00814081
0 0 0.00814081 0 0.1 0.00828569 0 0 0.00828569 0
0.1 0.00843209 0 0 0.00843209 0 0.1 0.00858001 0 0
0.00858001 0 0.1 0.00872947 0 0 0.00872947 0 0.1 0.00888049
0 0 0.00888049 0 0.1 0.00903309 0 0 0.00903309 0
0.1 0.00918728 0 0 0.00918728 0 0.1 0.00934307 0 0
0.00934307 0 0.1 0.00950049 0 0 0.00950049 0 0.1 0.00965956
0 0 0.00965956 0 0.1 0.00982028 0 0 0.00982028 0
0.1 0.00998268 0 0 0.00998268 0 0.1 0.0101468 0 0
0.0101468 0 0.1 0.0103126 0 0 0.0103126 0 0.1 0.0104801
0 0 0.0104801 0 0.1 0.0106494 0 0 0.0106494 0
0.1 0.0108204 0 0 0.0108204 0 0.1 0.0109933 0 0
0.0109933 0 0.1 0.0111679 0 0 0.0111679 0 0.1 0.0113443
0 0 0.0113443 0 0.1 0.0115226 0 0 0.0115226 0
0.1 0.0117028 0 0 0.0117028 0 0.1 0.0118848 0 0
0.0118848 0 0.1 0.0120687 0 0 0.0120687 0 0.1 0.0122546
0 0 0.0122546 0 0.1 0.0124424 0 0 0.0124424 0
0.1 0.0126321 0 0 0.0126321 0 0.1 0.0128238 0 0
0.0128238 0 0.1 0.0130176 0 0 0.0130176 0 0.1 0.0132133
0 0 0.0132133 0 0.1 0.0134111 0 0 0.0134111 0
0.1 0.0136109 0 0 0.0136109 0 0.1 0.0138129 0 0
0.0138129 0 0.1 0.0140169 0 0 0.0140169 0 0.1 0.0142231
0 0 0.0142231 0 0.1 0.0144314 0 0 0.0144314 0
0.1 0.0146419 0 0 0.0146419 0 0.1 0.0148546 0 0
0.0148546 0 0.1 0.0150695 0 0 0.0150695 0 0.1 0.0152866
0 0 0.0152866 0 0.1 0.015506 0 0 0.015506 0
0.1 0.0157277 0 0 0.0157277 0 0.1 0.0159517 0 0
0.0159517 0 0.1 0.016178 0 0 0.016178 0 0.1 0.0164067
0 0 0.0164067 0 0.1 0.0166378 0 0 0.0166378 0
0.1 0.0168713 0 0 0.0168713 0 0.1 0.0171073 0 0
0.0171073 0 0.1 0.0173457 0 0 0.0173457 0 0.1 0.0175865
0 0 0.0175865 0 0.1 0.0178299 0 0 0.0178299 0
0.1 0.0180759 0 0 0.0180759 0 0.1 0.0183244 0 0
0.0183244 0 0.1 0.0185754 0 0 0.0185754 0 0.1 0.0188291
0 0 0.0188291 0 0.1 0.0190855 0 0 0.0190855 0
0.1 0.0193445 0 0 0.0193445 0 0.1 0.0196063 0 0
0.0196063 0 0.1 0.0198707 0 0 0.0198707 0 0.1 0.0201379
0 0 0.0201379 0 0.1 0.0204079 0 0 0.0204079 0
0.1 0.0206807 0 0 0.0206807 0 0.1 0.0209564 0 0
0.0209564 0 0.1 0.0212349 0 0 0.0212349 0 0.1 0.0215164
0 0 0.0215164 0 0.1 0.0218008 0 0 0.0218008 0
0.1 0.0220881 0 0 0.0220881 0 0.1 0.0223784 0 0
0.0223784 0 0.1 0.0226718 0 0 0.0226718 0 0.1 0.0229682
0 0 0.0229682 0 0.1 0.0232677 0 0 0.0232677 0
0.1 0.0235704 0 0 0.0235704 0 0.1 0.0238762 0 0
0.0238762 0 0.1 0.0241852 0 0 0.0241852 0 0.1 0.0244974
0 0 0.0244974 0 0.1 0.0248128 0 0 0.0248128 0
0.1 0.0251316 0 0 0.0251316 0 0.1 0.0254537 0 0
0.0254537 0 0.1 0.0257791 0 0 0.0257791 0 0.1 0.0261079
0 0 0.0261079 0 0.1 0.0264402 0 0 0.0264402 0
0.1 0.0267759 0 0 0.0267759 0 0.1 0.0271152 0 0
0.0271152 0 0.1 0.0274579 0 0 0.0274579 0 0.1 0.0278043
0 0 0.0278043 0 0.1 0.0281542 0 0 0.0281542 0
0.1 0.0285078 0 0 0.0285078 0 0.1 0.0288651 0 0
0.0288651 0 0.1 0.0292261 0 0 0.0292261 0 0.1 0.0295909
0 0 0.0295909 0 0.1 0.0299595 0 0 0.0299595 0
0.1 0.0303319 0 0 0.0303319 0 0.1 0.0307082 0 0
0.0307082 0 0.1 0.0310885 0 0 0.0310885 0 0.1 0.0314727
0 0 0.0314727 0 0.1 0.0318609 0 0 0.0318609 0
0.1 0.0322532 0 0 0.0322532 0 0.1 0.0326495 0 0
0.0326495 0 0.1 0.03305 0 0 0.03305 0 0.1 0.0334546
0 0 0.0334546 0 0.1 0.0338635 0 0 0.0338635 0
0.1 0.0342767 0 0 0.0342767 0 0.1 0.0346941 0 0
0.0346941 0 0.1 0.0351159 0 0 0.0351159 0 0.1 0.0355421
0 0 0.0355421 0 0.1 0.0359728 0 0 0.0359728 0
0.1 0.0364079 0 0 0.0364079 0 0.1 0.0368476 0 0
0.0368476 0 0.1 0.0372919 0 0 0.0372919 0 0.1 0.0377408
0 0 0.0377408 0 0.1 0.0381944 0 0 0.0381944 0
0.1 0.0386527 0 0 0.0386527 0 0.1 0.0391158 0 0
0.0391158 0 0.1 0.0395837 0 0 0.0395837 0 0.1 0.0400565
0 0 0.0400565 0 0.1 0.0405342 0 0 0.0405342 0
0.1 0.0410169 0 0 0.0410169 0 0.1 0.0415047 0 0
0.0415047 0 0.1 0.0419975 0 0 0.0419975 0 0.1 0.0424955
0 0 0.0424955 0 0.1 0.0429986 0 0 0.0429986 0
0.1 0.0435071 0 0 0.0435071 0 0.1 0.0440208 0 0
0.0440208 0 0.1 0.0445398 0 0 0.0445398 0 0.1 0.0450643
0 0 0.0450643 0 0.1 0.0455943 0 0 0.0455943 0
0.1 0.0461298 0 0 0.0461298 0 0.1 0.0466708 0 0
0.0466708 0 0.1 0.0472176 0 0 0.0472176 0 0.1 0.04777
0 0 0.04777 0 0.1 0.0483281 0 0 0.0483281 0
0.1 0.0488921 0 0 0.0488921 0 0.1 0.049462 0 0
0.049462 0 0.1 0.0500378 0 0 0.0500378 0 0.1 0.0506197
0 0 0.0506197 0 0.1 0.0512076 0 0 0.0512076 0
0.1 0.0518016 0 0 0.0518016 0 0.1 0.0524018 0 0
0.0524018 0 0.1 0.0530083 0 0 0.0530083 0 0.1 0.0536211
0 0 0.0536211 0 0.1 0.0542403 0 0 0.0542403 0
0.1 0.0548659 0 0 0.0548659 0 0.1 0.0554981 0 0
0.0554981 0 0.1 0.0561369 0 0 0.0561369 0 0.1 0.0567823
0 0 0.0567823 0 0.1 0.0574345 0 0 0.0574345 0
0.1 0.0580934 0 0 0.0580934 0 0.1 0.0587593 0 0
0.0587593 0 0.1 0.0594321 0 0 0.0594321 0 0.1 0.0601119
0 0 0.0601119 0 0.1 0.0607987 0 0 0.0607987 0
0.1 0.0614928 0 0 0.0614928 0 0.1 0.0621941 0 0
0.0621941 0 0.1 0.0629027 0 0 0.0629027 0 0.1 0.0636187
0 0 0.0636187 0 0.1 0.0643421 0 0 0.0643421 0
0.1 0.0650732 0 0 0.0650732 0 0.1 0.0658118 0 0
0.0658118 0 0.1 0.0665581 0 0 0.0665581 0 0.1 0.0673122
0 0 0.0673122 0 0.1 0.0680742 0 0 0.0680742 0
0.1 0.0688441 0 0 0.0688441 0 0.1 0.0696221 0 0
0.0696221 0 0.1 0.0704082 0 0 0.0704082 0 0.1 0.0712024
0 0 0.0712024 0 0.1 0.072005 0 0 0.072005 0
0.1 0.0728159 0 0 0.0728159 0 0.1 0.0736353 0 0
0.0736353 0 0.1 0.0744632 0 0 0.0744632 0 0.1 0.0752998
0 0 0.0752998 0 0.1 0.076145 0 0 0.076145 0
0.1 0.0769991 0 0 0.0769991 0 0.1 0.0778621 0 0
0.0778621 0 0.1 0.0787342 0 0 0.0787342 0 0.1 0.0796153
0 0 0.0796153 0 0.1 0.0805055 0 0 0.0805055 0
0.1 0.0814051 0 0 0.0814051 0 0.1 0.0823141 0 0
0.0823141 0 0.1 0.0832325 0 0 0.0832325 0 0.1 0.0841605
0 0 0.0841605 0 0.1 0.0850982 0 0 0.0850982 0
0.1 0.0860457 0 0 0.0860457 0 0.1 0.087003 0 0
0.087003 0 0.1 0.0879704 0 0 0.0879704 0 0.1 0.0889478
0 0 0.0889478 0 0.1 0.0899354 0 0 0.0899354 0
0.1 0.0909333 0 0 0.0909333 0 0.1 0.0919416 0 0
0.0919416 0 0.1 0.0929605 0 0 0.0929605 0 0.1 0.0939899
0 0 0.0939899 0 0.1 0.0950302 0 0 0.0950302 0
0.1 0.0960812 0 0 0.0960812 0 0.1 0.0971432 0 0
0.0971432 0 0.1 0.0982163 0 0 0.0982163 0 0.1 0.0993006
0 0 0.0993006 0 0.1 0.100396 0 0 0.100396 0
0.1 0.101503 0 0 0.101503 0 0.1 0.102622 0 0
0.102622 0 0.1 0.103752 0 0 0.103752 0 0.1 0.104894
0 0 0.104894 0 0.1 0.106048 0 0 0.106048 0
0.1 0.107214 0 0 0.107214 0 0.1 0.108392 0 0
0.108392 0 0.1 0.109582 0 0 0.109582 0 0.1 0.110785
0 0 0.110785 0 0.1 0.112001 0 0 0.112001 0
0.1 0.113229 0 0 0.113229 0 0.1 0.114469 0 0
0.114469 0 0.1 0.115723 0 0 0.115723 0 0.1 0.11699
0 0 0.11699 0 0.1 0.11827 0 0 0.11827 0
0.1 0.119564 0 0 0.119564 0 0.1 0.12087 0 0
0.12087 0 0.1 0.122191 0 0 0.122191 0 0.1 0.123525
0 0 0.123525 0 0.1 0.124873 0 0 0.124873 0
0.1 0.126236 0 0 0.126236 0 0.1 0.127612 0 0
0.127612 0 0.1 0.129003 0 0 0.129003 0 0.1 0.130408
0 0 0.130408 0 0.1 0.131828 0 0 0.131828 0
0.1 0.133263 0 0 0.133263 0 0.1 0.134713 0 0
0.134713 0 0.1 0.136178 0 0 0.136178 0 0.1 0.137658
0 0 0.137658 0 0.1 0.139154 0 0 0.139154 0
0.1 0.140665 0 0 0.140665 0 0.1 0.142192 0 0
0.142192 0 0.1 0.143735 0 0 0.143735 0 0.1 0.145294
0 0 0.145294 0 0.1 0.146869 0 0 0.146869 0
0.1 0.148461 0 0 0.148461 0 0.1 0.150069 0 0
0.150069 0 0.1 0.151694 0 0 0.151694 0 0.1 0.153336
0 0 0.153336 0 0.1 0.154995 0 0 0.154995 0
0.1 0.156672 0 0 0.156672 0 0.1 0.158366 0 0
0.158366 0 0.1 0.160077 0 0 0.160077 0 0.1 0.161807
0 0 0.161807 0 0.1 0.163554 0 0 0.163554 0
0.1 0.16532 0 0 0.16532 0 0.1 0.167104 0 0
0.167104 0 0.1 0.168907 0 0 0.168907 0 0.1 0.170728
0 0 0.170728 0 0.1 0.172569 0 0 0.172569 0
0.1 0.174428 0 0 0.174428 0 0.1 0.176307 0 0
0.176307 0 0.1 0.178206 0 0 0.178206 0 0.1 0.180124
0 0 0.180124 0 0.1 0.182063 0 0 0.182063 0
0.1 0.184022 0 0 0.184022 0 0.1 0.186001 0 0
0.186001 0 0.1 0.188001 0 0 0.188001 0 0.1 0.190021
0 0 0.190021 0 0.1 0.192063 0 0 0.192063 0
0.1 0.194126 0 0 0.194126 0 0.1 0.19621 0 0
0.19621 0 0.1 0.198317 0 0 0.198317 0 0.1 0.200445
0 0 0.200445 0 0.1 0.202595 0 0 0.202595 0
0.1 0.204768 0 0 0.204768 0 0.1 0.206964 0 0
0.206964 0 0.1 0.209182 0 0 0.209182 0 0.1 0.211424
0 0 0.211424 0 0.1 0.213689 0 0 0.213689 0
0.1 0.215977 0 0 0.215977 0 0.1 0.21829 0 0
0.21829 0 0.1 0.220626 0 0 0.220626 0 0.1 0.222987
0 0 0.222987 0 0.1 0.225372 0 0 0.225372 0
0.1 0.227783 0 0 0.227783 0 0.1 0.230218 0 0
0.230218 0 0.1 0.232679 0 0 0.232679 0 0.1 0.235166
0 0 0.235166 0 0.1 0.237678 0 0 0.237678 0
0.1 0.240217 0 0 0.240217 0 0.1 0.242782 0 0
0.242782 0 0.1 0.245374 0 0 0.245374 0 0.1 0.247993
0 0 0.247993 0 0.1 0.25064 0 0 0.25064 0
0.1 0.253313 0 0 0.253313 0 0.1 0.256015 0 0
0.256015 0 0.1 0.258745 0 0 0.258745 0 0.1 0.261504
0 0 0.261504 0 0.1 0.264291 0 0 0.264291 0
0.1 0.267107 0 0 0.267107 0 0.1 0.269953 0 0
0.269953 0 0.1 0.272828 0 0 0.272828 0 0.1 0.275733
0 0 0.275733 0 0.1 0.278669 0 0 0.278669 0
0.1 0.281635 0 0 0.281635 0 0.1 0.284632 0 0
0.284632 0 0.1 0.287661 0 0 0.287661 0 0.1 0.290721
0 0 0.290721 0 0.1 0.293813 0 0 0.293813 0
0.1 0.296937 0 0 0.296937 0 0.1 0.300093 0 0
0.300093 0 0.1 0.303283 0 0 0.303283 0 0.1 0.306506
0 0 0.306506 0 0.1 0.309763 0 0 0.309763 0
0.1 0.313053 0 0 0.313053 0 0.1 0.316378 0 0
0.316378 0 0.1 0.319737 0 0 0.319737 0 0.1 0.323132
0 0 0.323132 0 0.1 0.326562 0 0 0.326562 0
0.1 0.330027 0 0 0.330027 0 0.1 0.333529 0 0
0.333529 0 0.1 0.337068 0 0 0.337068 0 0.1 0.340643
0 0 0.340643 0 0.1 0.344255 0 0 0.344255 0
0.1 0.347906 0 0 0.347906 0 0.1 0.351594 0 0
0.351594 0 0.1 0.355321 0 0 0.355321 0 0.1 0.359086
0 0 0.359086 0 0.1 0.362891 0 0 0.362891 0
0.1 0.366736 0 0 0.366736 0 0.1 0.37062 0 0
0.37062 0 0.1 0.374546 0 0 0.374546 0 0.1 0.378512
0 0 0.378512 0 0.1 0.382519 0 0 0.382519 0
0.1 0.386568 0 0 0.386568 0 0.1 0.39066 0 0
0.39066 0 0.1 0.394794 0 0 0.394794 0 0.1 0.398971
0 0 0.398971 0 0.1 0.403192 0 0 0.403192 0
0.1 0.407457 0 0 0.407457 0 0.1 0.411766 0 0
0.411766 0 0.1 0.416121 0 0 0.416121 0 0.1 0.42052
0 0 0.42052 0 0.1 0.424966 0 0 0.424966 0
0.1 0.429458 0 0 0.429458 0 0.1 0.433997 0 0
0.433997 0 0.1 0.438583 0 0 0.438583 0 0.1 0.443217
0 0 0.443217 0 0.1 0.447899 0 0 0.447899 0
0.1 0.45263 0 0 0.45263 0 0.1 0.457411 0 0
0.457411 0 0.1 0.462241 0 0 0.462241 0 0.1 0.467122
0 0 0.467122 0 0.1 0.472053 0 0 0.472053 0
0.1 0.477036 0 0 0.477036 0 0.1 0.482071 0 0
0.482071 0 0.1 0.487159 0 0 0.487159 0 0.1 0.492299
0 0 0.492299 0 0.1 0.497493 0 0 0.497493 0
0.1 0.502742 0 0 0.502742 0 0.1 0.508045 0 0
0.508045 0 0.1 0.513403 0 0 0.513403 0 0.1 0.518817
0 0 0.518817 0 0.1 0.524288 0 0 0.524288 0
0.1 0.529816 0 0 0.529816 0 0.1 0.535401 0 0
0.535401 0 0.1 0.541045 0 0 0.541045 0 0.1 0.546748
0 0 0.546748 0 0.1 0.55251 0 0 0.55251 0
0.1 0.558332 0 0 0.558332 0 0.1 0.564215 0 0
0.564215 0 0.1 0.570159 0 0 0.570159 0 0.1 0.576165
0 0 0.576165 0 0.1 0.582234 0 0 0.582234 0
0.1 0.588366 0 0 0.588366 0 0.1 0.594562 0 0
0.594562 0 0.1 0.600822 0 0 0.600822 0 0.1 0.607148
0 0 0.607148 0 0.1 0.61354 0 0 0.61354 0
0.1 0.619999 0 0 0.619999 0 0.1 0.626525 0 0
0.626525 0 0.1 0.633119 0 0 0.633119 0 0.1 0.639782
0 0 0.639782 0 0.1 0.646514 0 0 0.646514 0
0.1 0.653316 0 0 0.653316 0 0.1 0.66019 0 0
0.66019 0 0.1 0.667135 0 0 0.667135 0 0.1 0.674152
0 0 0.674152 0 0.1 0.681243 0 0 0.681243 0
0.1 0.688408 0 0 0.688408 0 0.1 0.695647 0 0
0.695647 0 0.1 0.702962 0 0 0.702962 0 0.1 0.710353
0 0 0.710353 0 0.1 0.717821 0 0 0.717821 0
0.1 0.725367 0 0 0.725367 0 0.1 0.732992 0 0
0.732992 0 0.1 0.740697 0 0 0.740697 0 0.1 0.748481
0 0 0.748481 0 0.1 0.756347 0 0 0.756347 0
0.1 0.764295 0 0 0.764295 0 0.1 0.772326 0 0
0.772326 0 0.1 0.78044 0 0 0.78044 0 0.1 0.78864
0 0 0.78864 0 0.1 0.796924 0 0 0.796924 0
0.1 0.805295 0 0 0.805295 0 0.1 0.813754 0 0
0.813754 0 0.1 0.8223 0 0 0.8223 0 0.1 0.830936
0 0 0.830936 0 0.1 0.839662 0 0 0.839662 0
0.1 0.848479 0 0 0.848479 0 0.1 0.857387 0 0
0.857387 0 0.1 0.866389 0 0 0.866389 0 0.1 0.875485
0 0 0.875485 0 0.1 0.884675 0 0 0.884675 0
0.1 0.893961 0 0 0.893961 0 0.1 0.903344 0 0
0.903344 0 0.1 0.912825 0 0 0.912825 0 0.1 0.922405
0 0 0.922405 0 0.1 0.932085 0 0 0.932085 0
0.1 0.941865 0 0 0.941865 0 0.1 0.951748 0 0
0.951748 0 0.1 0.961734 0 0 0.961734 0 0.1 0.971824
0 0 0.971824 0 0.1 0.982019 0 0 0.982019 0
0.1 0.99232 0 0 0.99232 0 0.1 1.00273 0 0
1.00273 0 0.1 1.01325 0 0 1.01325 0 0.1 1.02387
0 0 1.02387 0 0.1 1.03461 0 0 1.03461 0
0.1 1.04546 0 0 1.04546 0 0.1 1.05642 0 0
1.05642 0 0.1 1.0675 0 0 1.0675 0 0.1 1.07869
0 0 1.07869 0 0.1 1.09 0 0 1.09 0
0.1 1.10143 0 0 1.10143 0 0.1 1.11298 0 0
1.11298 0 0.1 1.12465 0 0 1.12465 0 0.1 1.13644
0 0 1.13644 0 0.1 1.14835 0 0 1.14835 0
0.1 1.16038 0 0 1.16038 0 0.1 1.17254 0 0
1.17254 0 0.1 1.18483 0 0 1.18483 0 0.1 1.19725
0 0 1.19725 0 0.1 1.2098 0 0 1.2098 0
0.1 1.22247 0 0 1.22247 0 0.1 1.23528 0 0
1.23528 0 0.1 1.24822 0 0 1.24822 0 0.1 1.2613
0 0 1.2613 0 0.1 1.27452 0 0 1.27452 0
0.1 1.28787 0 0 1.28787 0 0.1 1.30136 0 0
1.30136 0 0.1 1.31499 0 0 1.31499 0 0.1 1.32877
0 0 1.32877 0 0.1 1.34268 0 0 1.34268 0
0.1 1.35675 0 0 1.35675 0 0.1 1.37095 0 0
1.37095 0 0.1 1.38531 0 0 1.38531 0 0.1 1.39982
0 0 1.39982 0 0.1 1.41448 0 0 1.41448 0
0.1 1.42929 0 0 1.42929 0 0.1 1.44426 0 0
1.44426 0 0.1 1.45938 0 0 1.45938 0 0.1 1.47466
0 0 1.47466 0 0.1 1.4901 0 0 1.4901 0
0.1 1.5057 0 0 1.5057 0 0.1 1.52146 0 0
1.52146 0 0.1 1.53739 0 0 1.53739 0 0.1 1.55348
0 0 1.55348 0 0.1 1.56974 0 0 1.56974 0
0.1 1.58617 0 0 1.58617 0 0.1 1.60278 0 0
1.60278 0 0.1 1.61955 0 0 1.61955 0 0.1 1.6365
0 0 1.6365 0 0.1 1.65363 0 0 1.65363 0
0.1 1.67093 0 0 1.67093 0 0.1 1.68842 0 0
1.68842 0 0.1 1.70609 0 0 1.70609 0 0.1 1.72394
0 0 1.72394 0 0.1 1.74198 0 0 1.74198 0
0.1 1.76021 0 0 1.76021 0 0.1 1.77862 0 0
1.77862 0 0.1 1.79723 0 0 1.79723 0 0.1 1.81604
0 0 1.81604 0 0.1 1.83504 0 0 1.83504 0
0.1 1.85423 0 0 1.85423 0 0.1 1.87363 0 0
1.87363 0 0.1 1.89323 0 0 1.89323 0 0.1 1.91304
0 0 1.91304 0 0.1 1.93305 0 0 1.93305 0
0.1 1.95327 0 0 1.95327 0 0.1 1.9737 0 0
1.9737 0 0.1 1.99434 0 0 1.99434 0 0.1 2.0152
0 0 2.0152 0 0.1 2.03628 0 0 2.03628 0
0.1 2.05757 0 0 2.05757 0 0.1 2.07909 0 0
2.07909 0 0.1 2.10083 0 0 2.10083 0 0.1 2.1228
0 0 2.1228 0 0.1 2.145 0 0 2.145 0
0.1 2.16743 0 0 2.16743 0 0.1 2.1901 0 0
2.1901 0 0.1 2.213 0 0 2.213 0 0.1 2.23614
0 0 2.23614 0 0.1 2.25952 0 0 2.25952 0
0.1 2.28314 0 0 2.28314 0 0.1 2.30701 0 0
2.30701 0 0.1 2.33113 0 0 2.33113 0 0.1 2.3555
0 0 2.3555 0 0.1 2.38013 0 0 2.38013 0
0.1 2.40501 0 0 2.40501 0 0.1 2.43015 0 0
2.43015 0 0.1 2.45556 0 0 2.45556 0 0.1 2.48122
0 0 2.48122 0 0.1 2.50716 0 0 2.50716 0
0.1 2.53337 0 0 2.53337 0 0.1 2.55985 0 0
2.55985 0 0.1 2.58661 0 0 2.58661 0 0.1 2.61364
0 0 2.61364 0 0.1 2.64096 0 0 2.64096 0
0.1 2.66856 0 0 2.66856 0 0.1 2.69645 0 0
2.69645 0 0.1 2.72463 0 0 2.72463 0 0.1 2.75311
0 0 2.75311 0 0.1 2.78188 0 0 2.78188 0
0.1 2.81095 0 0 2.81095 0 0.1 2.84033 0 0
2.84033 0 0.1 2.87001 0 0 2.87001 0 0.1 2.9
0 0 2.9 0 0.1 
POLYGONS 600 3000
4 0 1 2 3 4 1 4 5 2 4
4 6 7 5 4 6 8 9 7 4
8 10 11 9 4 10 12 13 11 4
12 14 15 13 4 14 16 17 15 4
16 18 19 17 4 18 20 21 19 4
20 22 23 21 4 22 24 25 23 4
24 26 27 25 4 26 28 29 27 4
28 30 31 29 4 30 32 33 31 4
32 34 35 33 4 34 36 37 35 4
36 38 39 37 4 38 40 41 39 4
40 42 43 41 4 42 44 45 43 4
44 46 47 45 4 46 48 49 47 4
48 50 51 49 4 50 52 53 51 4
52 54 55 53 4 54 56 57 55 4
56 58 59 57 4 58 60 61 59 4
60 62 63 61 4 62 64 65 63 4
64 66 67 65 4 66 68 69 67 4
68 70 71 69 4 70 72 73 71 4
72 74 75 73 4 74 76 77 75 4
76 78 79 77 4 78 80 81 79 4
80 82 83 81 4 82 84 85 83 4
84 86 87 85 4 86 88 89 87 4
88 90 91 89 4 90 92 93 91 4
92 94 95 93 4 94 96 97 95 4
96 98 99 97 4 98 100 101 99 4
100 102 103 101 4 102 104 105 103 4
104 106 107 105 4 106 108 109 107 4
108 110 111 109 4 110 112 113 111 4
112 114 115 113 4 114 116 117 115 4
116 118 119 117 4 118 120 121 119 4
120 122 123 121 4 122 124 125 123 4
124 126 127 125 4 126 128 129 127 4
128 130 131 129 4 130 132 133 131 4
132 134 135 133 4 134 136 137 135 4
136 138 139 137 4 138 140 141 139 4
140 142 143 141 4 142 144 145 143 4
144 146 147 145 4 146 148 149 147 4
148 150 151 149 4 150 152 153 151 4
152 154 155 153 4 154 156 157 155 4
156 158 159 157 4 158 160 161 159 4
160 162 163 161 4 162 164 165 163 4
164 166 167 165 4 166 168 169 167 4
168 170 171 169 4 170 172 173 171 4
172 174 175 173 4 174 176 177 175 4
176 178 179 177 4 178 180 181 179 4
180 182 183 181 4 182 184 185 183 4
184 186 187 185 4 186 188 189 187 4
188 190 191 189 4 190 192 193 191 4
192 194 195 193 4 194 196 197 195 4
196 198 199 197 4 198 200 201 199 4
200 202 203 201 4 202 204 205 203 4
204 206 207 205 4 206 208 209 207 4
208 210 211 209 4 210 212 213 211 4
212 214 215 213 4 214 216 217 215 4
216 218 219 217 4 218 220 221 219 4
220 222 223 221 4 222 224 225 223 4
224 226 227 225 4 226 228 229 227 4
228 230 231 229 4 230 232 233 231 4
232 234 235 233 4 234 236 237 235 4
236 238 239 237 4 238 240 241 239 4
240 242 243 241 4 242 244 245 243 4
244 246 247 245 4 246 248 249 247 4
248 250 251 249 4 250 252 253 251 4
252 254 255 253 4 254 256 257 255 4
256 258 259 257 4 258 260 261 259 4
260 262 263 261 4 262 264 265 263 4
264 266 267 265 4 266 268 269 267 4
268 270 271 269 4 270 272 273 271 4
272 274 275 273 4 274 276 277 275 4
276 278 279 277 4 278 280 281 279 4
280 282 283 281 4 282 284 285 283 4
284 286 287 285 4 286 288 289 287 4
288 290 291 289 4 290 292 293 291 4
292 294 295 293 4 294 296 297 295 4
296 298 299 297 4 298 300 301 299 4
300 302 303 301 4 302 304 305 303 4
304 306 307 305 4 306 308 309 307 4
308 310 311 309 4 310 312 313 311 4
312 314 315 313 4 314 316 317 315 4
316 318 319 317 4 318 320 321 319 4
320 322 323 321 4 322 324 325 323 4
324 326 327 325 4 326 328 329 327 4
328 330 331 329 4 330 332 333 331 4
332 334 335 333 4 334 336 337 335 4
336 338 339 337 4 338 340 341 339 4
340 342 343 341 4 342 344 345 343 4
344 346 347 345 4 346 348 349 347 4
348 350 351 349 4 350 352 353 351 4
352 354 355 353 4 354 356 357 355 4
356 358 359 357 4 358 360 361 359 4
360 362 363 361 4 362 364 365 363 4
364 366 367 365 4 366 368 369 367 4
368 370 371 369 4 370 372 373 371 4
372 374 375 373 4 374 376 377 375 4
376 378 379 377 4 378 380 381 379 4
380 382 383 381 4 382 384 385 383 4
384 386 387 385 4 386 388 389 387 4
388 390 391 389 4 390 392 393 391 4
392 394 395 393 4 394 396 397 395 4
396 398 399 397 4 398 400 401 399 4
400 402 403 401 4 402 404 405 403 4
404 406 407 405 4 406 408 409 407 4
408 410 411 409 4 410 412 413 411 4
412 414 415 413 4 414 416 417 415 4
416 418 419 417 4 418 420 421 419 4
420 422 423 421 4 422 424 425 423 4
424 426 427 425 4 426 428 429 427 4
428 430 431 429 4 430 432 433 431 4
432 434 435 433 4 434 436 437 435 4
436 438 439 437 4 438 440 441 439 4
440 442 443 441 4 442 444 445 443 4
444 446 447 445 4 446 448 449 447 4
448 450 451 449 4 450 452 453 451 4
452 454 455 453 4 454 456 457 455 4
456 458 459 457 4 458 460 461 459 4
460 462 463 461 4 462 464 465 463 4
464 466 467 465 4 466 468 469 467 4
468 470 471 469 4 470 472 473 471 4
472 474 475 473 4 474 476 477 475 4
476 478 479 477 4 478 480 481 479 4
480 482 483 481 4 482 484 485 483 4
484 486 487 485 4 486 488 489 487 4
488 490 491 489 4 490 492 493 491 4
492 494 495 493 4 494 496 497 495 4
496 498 499 497 4 498 500 501 499 4
500 502 503 501 4 502 504 505 503 4
504 506 507 505 4 506 508 509 507 4
508 510 511 509 4 510 512 513 511 4
512 514 515 513 4 514 516 517 515 4
516 518 519 517 4 518 520 521 519 4
520 522 523 521 4 522 524 525 523 4
524 526 527 525 4 526 528 529 527 4
528 530 531 529 4 530 532 533 531 4
532 534 535 533 4 534 536 537 535 4
536 538 539 537 4 538 540 541 539 4
540 542 543 541 4 542 544 545 543 4
544 546 547 545 4 546 548 549 547 4
548 550 551 549 4 550 552 553 551 4
552 554 555 553 4 554 556 557 555 4
556 558 559 557 4 558 560 561 559 4
560 562 563 561 4 562 564 565 563 4
564 566 567 565 4 566 568 569 567 4
568 570 571 569 4 570 572 573 571 4
572 574 575 573 4 574 576 577 575 4
576 578 579 577 4 578 580 581 579 4
580 582 583 581 4 582 584 585 583 4
584 586 587 585 4 586 588 589 587 4
588 590 591 589 4 590 592 593 591 4
592 594 595 593 4 594 596 597 595 4
596 598 599 597 4 598 600 601 599 4
600 602 603 601 4 602 604 605 603 4
604 606 607 605 4 606 608 609 607 4
608 610 611 609 4 610 612 613 611 4
612 614 615 613 4 614 616 617 615 4
616 618 619 617 4 618 620 621 619 4
620 622 623 621 4 622 624 625 623 4
624 626 627 625 4 626 628 629 627 4
628 630 631 629 4 630 632 633 631 4
632 634 635 633 4 634 636 637 635 4
636 638 639 637 4 638 640 641 639 4
640 642 643 641 4 642 644 645 643 4
644 646 647 645 4 646 648 649 647 4
648 650 651 649 4 650 652 653 651 4
652 654 655 653 4 654 656 657 655 4
656 658 659 657 4 658 660 661 659 4
660 662 663 661 4 662 664 665 663 4
664 666 667 665 4 666 668 669 667 4
668 670 671 669 4 670 672 673 671 4
672 674 675 673 4 674 676 677 675 4
676 678 679 677 4 678 680 681 679 4
680 682 683 681 4 682 684 685 683 4
684 686 687 685 4 686 688 689 687 4
688 690 691 689 4 690 692 693 691 4
692 694 695 693 4 694 696 697 695 4
696 698 699 697 4 698 700 701 699 4
700 702 703 701 4 702 704 705 703 4
704 706 707 705 4 706 708 709 707 4
708 710 711 709 4 710 712 713 711 4
712 714 715 713 4 714 716 717 715 4
716 718 719 717 4 718 720 721 719 4
720 722 723 721 4 722 724 725 723 4
724 726 727 725 4 726 728 729 727 4
728 730 731 729 4 730 732 733 731 4
732 734 735 733 4 734 736 737 735 4
736 738 739 737 4 738 740 741 739 4
740 742 743 741 4 742 744 745 743 4
744 746 747 745 4 746 748 749 747 4
748 750 751 749 4 750 752 753 751 4
752 754 755 753 4 754 756 757 755 4
756 758 759 757 4 758 760 761 759 4
760 762 763 761 4 762 764 765 763 4
764 766 767 765 4 766 768 769 767 4
768 770 771 769 4 770 772 773 771 4
772 774 775 773 4 774 776 777 775 4
776 778 779 777 4 778 780 781 779 4
780 782 783 781 4 782 784 785 783 4
784 786 787 785 4 786 788 789 787 4
788 790 791 789 4 790 792 793 791 4
792 794 795 793 4 794 796 797 795 4
796 798 799 797 4 798 800 801 799 4
800 802 803 801 4 802 804 805 803 4
804 806 807 805 4 806 808 809 807 4
808 810 811 809 4 810 812 813 811 4
812 814 815 813 4 814 816 817 815 4
816 818 819 817 4 818 820 821 819 4
820 822 823 821 4 822 824 825 823 4
824 826 827 825 4 826 828 829 827 4
828 830 831 829 4 830 832 833 831 4
832 834 835 833 4 834 836 837 835 4
836 838 839 837 4 838 840 841 839 4
840 842 843 841 4 842 844 845 843 4
844 846 847 845 4 846 848 849 847 4
848 850 851 849 4 850 852 853 851 4
852 854 855 853 4 854 856 857 855 4
856 858 859 857 4 858 860 861 859 4
860 862 863 861 4 862 864 865 863 4
864 866 867 865 4 866 868 869 867 4
868 870 871 869 4 870 872 873 871 4
872 874 875 873 4 874 876 877 875 4
876 878 879 877 4 878 880 881 879 4
880 882 883 881 4 882 884 885 883 4
884 886 887 885 4 886 888 889 887 4
888 890 891 889 4 890 892 893 891 4
892 894 895 893 4 894 896 897 895 4
896 898 899 897 4 898 900 901 899 4
900 902 903 901 4 902 904 905 903 4
904 906 907 905 4 906 908 909 907 4
908 910 911 909 4 910 912 913 911 4
912 914 915 913 4 914 916 917 915 4
916 918 919 917 4 918 920 921 919 4
920 922 923 921 4 922 924 925 923 4
924 926 927 925 4 926 928 929 927 4
928 930 931 929 4 930 932 933 931 4
932 934 935 933 4 934 936 937 935 4
936 938 939 937 4 938 940 941 939 4
940 942 943 941 4 942 944 945 943 4
944 946 947 945 4 946 948 949 947 4
948 950 951 949 4 950 952 953 951 4
952 954 955 953 4 954 956 957 955 4
956 958 959 957 4 958 960 961 959 4
960 962 963 961 4 962 964 965 963 4
964 966 967 965 4 966 968 969 967 4
968 970 971 969 4 970 972 973 971 4
972 974 975 973 4 974 976 977 975 4
976 978 979 977 4 978 980 981 979 4
980 982 983 981 4 982 984 985 983 4
984 986 987 985 4 986 988 989 987 4
988 990 991 989 4 990 992 993 991 4
992 994 995 993 4 994 996 997 995 4
996 998 999 997 4 998 1000 1001 999 4
1000 1002 1003 1001 4 1002 1004 1005 1003 4
1004 1006 1007 1005 4 1006 1008 1009 1007 4
1008 1010 1011 1009 4 1010 1012 1013 1011 4
1012 1014 1015 1013 4 1014 1016 1017 1015 4
1016 1018 1019 1017 4 1018 1020 1021 1019 4
1020 1022 1023 1021 4 1022 1024 1025 1023 4
1024 1026 1027 1025 4 1026 1028 1029 1027 4
1028 1030 1031 1029 4 1030 1032 1033 1031 4
1032 1034 1035 1033 4 1034 1036 1037 1035 4
1036 1038 1039 1037 4 1038 1040 1041 1039 4
1040 1042 1043 1041 4 1042 1044 1045 1043 4
1044 1046 1047 1045 4 1046 1048 1049 1047 4
1048 1050 1051 1049 4 1050 1052 1053 1051 4
1052 1054 1055 1053 4 1054 1056 1057 1055 4
1056 1058 1059 1057 4 1058 1060 1061 1059 4
1060 1062 1063 1061 4 1062 1064 1065 1063 4
1064 1066 1067 1065 4 1066 1068 1069 1067 4
1068 1070 1071 1069 4 1070 1072 1073 1071 4
1072 1074 1075 1073 4 1074 1076 1077 1075 4
1076 1078 1079 1077 4 1078 1080 1081 1079 4
1080 1082 1083 1081 4 1082 1084 1085 1083 4
1084 1086 1087 1085 4 1086 1088 1089 1087 4
1088 1090 1091 1089 4 1090 1092 1093 1091 4
1092 1094 1095 1093 4 1094 1096 1097 1095 4
1096 1098 1099 1097 4 1098 1100 1101 1099 4
1100 1102 1103 1101 4 1102 1104 1105 1103 4
1104 1106 1107 1105 4 1106 1108 1109 1107 4
1108 1110 1111 1109 4 1110 1112 1113 1111 4
1112 1114 1115 1113 4 1114 1116 1117 1115 4
1116 1118 1119 1117 4 1118 1120 1121 1119 4
1120 1122 1123 1121 4 1122 1124 1125 1123 4
1124 1126 1127 1125 4 1126 1128 1129 1127 4
1128 1130 1131 1129 4 1130 1132 1133 1131 4
1132 1134 1135 1133 4 1134 1136 1137 1135 4
1136 1138 1139 1137 4 1138 1140 1141 1139 4
1140 1142 1143 1141 4 1142 1144 1145 1143 4
1144 1146 1147 1145 4 1146 1148 1149 1147 4
1148 1150 1151 1149 4 1150 1152 1153 1151 4
1152 1154 1155 1153 4 1154 1156 1157 1155 4
1156 1158 1159 1157 4 1158 1160 1161 1159 4
1160 1162 1163 1161 4 1162 1164 1165 1163 4
1164 1166 1167 1165 4 1166 1168 1169 1167 4
1168 1170 1171 1169 4 1170 1172 1173 1171 4
1172 1174 1175 1173 4 1174 1176 1177 1175 4
1176 1178 1179 1177 4 1178 1180 1181 1179 4
1180 1182 1183 1181 4 1182 1184 1185 1183 4
1184 1186 1187 1185 4 1186 1188 1189 1187 4
1188 1190 1191 1189 4 1190 1192 1193 1191 4
1192 1194 1195 1193 4 1194 1196 1197 1195 4
1196 1198 1199 1197 4 1198 1200 1201 1199 
POINT_DATA 1202
FIELD attributes 1
U 3 1202 float
1.60307 0.035199 0 0.903282 0.0245149 0 0.903282 0.0245149 0 1.60307 0.035199
0 0.174862 0.0090555 0 0.174862 0.0090555 0 0.128652 0.00276914 0
0.128652 0.00276914 0 0.101242 0.000822973 0 0.101242 0.000822973 0 0.0858192
0.000286074 0 0.0858192 0.000286074 0 0.076541 0.000174106 0 0.076541 0.000174106
0 0.0700614 0.000159792 0 0.0700614 0.000159792 0 0.0650237 0.000146025 0
0.0650237 0.000146025 0 0.0609166 0.000126083 0 0.0609166 0.000126083 0 0.0574929
0.000106542 0 0.0574929 0.000106542 0 0.0545866 9.03886e-05 0 0.0545866 9.03886e-05
0 0.0520708 7.88086e-05 0 0.0520708 7.88086e-05 0 0.0498505 7.06238e-05 0
0.0498505 7.06238e-05 0 0.0478604 6.40764e-05 0 0.0478604 6.40764e-05 0 0.0460573
5.84945e-05 0 0.0460573 5.84945e-05 0 0.0444114 5.36183e-05 0 0.0444114 5.36183e-05
0 0.0429003 4.93007e-05 0 0.0429003 4.93007e-05 0 0.0415062 4.54484e-05 0
0.0415062 4.54484e-05 0 0.0402151 4.19971e-05 0 0.0402151 4.19971e-05 0 0.0390152
3.88966e-05 0 0.0390152 3.88966e-05 0 0.0378965 3.61047e-05 0 0.0378965 3.61047e-05
0 0.0368505 3.35854e-05 0 0.0368505 3.35854e-05 0 0.03587 3.13072e-05 0
0.03587 3.13072e-05 0 0.0349487 2.92426e-05 0 0.0349487 2.92426e-05 0 0.0340811
2.73672e-05 0 0.0340811 2.73672e-05 0 0.0332623 2.56597e-05 0 0.0332623 2.56597e-05
0 0.0324881 2.41007e-05 0 0.0324881 2.41007e-05 0 0.0317549 2.2674e-05 0
0.0317549 2.2674e-05 0 0.0310595 2.13642e-05 0 0.0310595 2.13642e-05 0 0.0303988
2.0159e-05 0 0.0303988 2.0159e-05 0 0.0297703 1.90462e-05 0 0.0297703 1.90462e-05
0 0.0291719 1.80167e-05 0 0.0291719 1.80167e-05 0 0.0286014 1.70614e-05 0
0.0286014 1.70614e-05 0 0.028057 1.61708e-05 0 0.028057 1.61708e-05 0 0.027537
1.53486e-05 0 0.027537 1.53486e-05 0 0.0270402 1.45639e-05 0 0.0270402 1.45639e-05
0 0.0265646 1.38722e-05 0 0.0265646 1.38722e-05 0 0.0261094 1.31462e-05 0
0.0261094 1.31462e-05 0 0.025675 1.22623e-05 0 0.025675 1.22623e-05 0 0.0252598
1.15808e-05 0 0.0252598 1.15808e-05 0 0.0248604 1.11615e-05 0 0.0248604 1.11615e-05
0 0.0244745 1.07573e-05 0 0.0244745 1.07573e-05 0 0.0241021 1.03311e-05 0
0.0241021 1.03311e-05 0 0.0237433 9.89032e-06 0 0.0237433 9.89032e-06 0 0.0233982
9.44442e-06 0 0.0233982 9.44442e-06 0 0.0230666 9.00204e-06 0 0.0230666 9.00204e-06
0 0.0227483 8.56951e-06 0 0.0227483 8.56951e-06 0 0.0224429 8.15089e-06 0
0.0224429 8.15089e-06 0 0.02215 7.74867e-06 0 0.02215 7.74867e-06 0 0.0218689
7.3643e-06 0 0.0218689 7.3643e-06 0 0.0215993 6.99855e-06 0 0.0215993 6.99855e-06
0 0.0213406 6.65171e-06 0 0.0213406 6.65171e-06 0 0.0210921 6.32377e-06 0
0.0210921 6.32377e-06 0 0.0208535 6.01449e-06 0 0.0208535 6.01449e-06 0 0.020624
5.72347e-06 0 0.020624 5.72347e-06 0 0.0204032 5.45013e-06 0 0.0204032 5.45013e-06
0 0.0201905 5.19385e-06 0 0.0201905 5.19385e-06 0 0.0199855 4.95389e-06 0
0.0199855 4.95389e-06 0 0.0197876 4.72952e-06 0 0.0197876 4.72952e-06 0 0.0195964
4.52001e-06 0 0.0195964 4.52001e-06 0 0.0194113 4.32468e-06 0 0.0194113 4.32468e-06
0 0.019232 4.14283e-06 0 0.019232 4.14283e-06 0 0.0190579 3.97392e-06 0
0.0190579 3.97392e-06 0 0.0188887 3.81721e-06 0 0.0188887 3.81721e-06 0 0.018724
3.67226e-06 0 0.018724 3.67226e-06 0 0.0185633 3.53829e-06 0 0.0185633 3.53829e-06
0 0.0184063 3.41495e-06 0 0.0184063 3.41495e-06 0 0.0182526 3.30139e-06 0
0.0182526 3.30139e-06 0 0.0181019 3.19736e-06 0 0.0181019 3.19736e-06 0 0.0179538
3.10205e-06 0 0.0179538 3.10205e-06 0 0.0178081 3.01516e-06 0 0.0178081 3.01516e-06
0 0.0176644 2.93613e-06 0 0.0176644 2.93613e-06 0 0.0175225 2.86444e-06 0
0.0175225 2.86444e-06 0 0.0173821 2.79995e-06 0 0.0173821 2.79995e-06 0 0.017243
2.74153e-06 0 0.017243 2.74153e-06 0 0.0171049 2.6911e-06 0 0.0171049 2.6911e-06
0 0.0169678 2.64252e-06 0 0.0169678 2.64252e-06 0 0.0168311 2.61129e-06 0
0.0168311 2.61129e-06 0 0.016695 2.56475e-06 0 0.016695 2.56475e-06 0 0.0165602
2.48249e-06 0 0.0165602 2.48249e-06 0 0.016426 2.44993e-06 0 0.016426 2.44993e-06
0 0.0162912 2.46373e-06 0 0.0162912 2.46373e-06 0 0.0161554 2.46924e-06 0
0.0161554 2.46924e-06 0 0.016019 2.46545e-06 0 0.016019 2.46545e-06 0 0.0158824
2.45314e-06 0 0.0158824 2.45314e-06 0 0.0157461 2.43382e-06 0 0.0157461 2.43382e-06
0 0.0156103 2.40851e-06 0 0.0156103 2.40851e-06 0 0.0154754 2.37764e-06 0
0.0154754 2.37764e-06 0 0.0153417 2.34128e-06 0 0.0153417 2.34128e-06 0 0.0152096
2.29928e-06 0 0.0152096 2.29928e-06 0 0.0150793 2.25145e-06 0 0.0150793 2.25145e-06
0 0.0149513 2.19758e-06 0 0.0149513 2.19758e-06 0 0.0148257 2.13762e-06 0
0.0148257 2.13762e-06 0 0.0147029 2.07171e-06 0 0.0147029 2.07171e-06 0 0.0145831
2.0003e-06 0 0.0145831 2.0003e-06 0 0.0144666 1.92416e-06 0 0.0144666 1.92416e-06
0 0.0143535 1.8444e-06 0 0.0143535 1.8444e-06 0 0.0142439 1.76237e-06 0
0.0142439 1.76237e-06 0 0.0141377 1.67968e-06 0 0.0141377 1.67968e-06 0 0.0140351
1.59801e-06 0 0.0140351 1.59801e-06 0 0.0139358 1.51906e-06 0 0.0139358 1.51906e-06
0 0.0138396 1.44442e-06 0 0.0138396 1.44442e-06 0 0.0137463 1.37543e-06 0
0.0137463 1.37543e-06 0 0.0136556 1.31323e-06 0 0.0136556 1.31323e-06 0 0.0135671
1.25854e-06 0 0.0135671 1.25854e-06 0 0.0134806 1.21183e-06 0 0.0134806 1.21183e-06
0 0.0133956 1.17313e-06 0 0.0133956 1.17313e-06 0 0.0133118 1.14232e-06 0
0.0133118 1.14232e-06 0 0.013229 1.11874e-06 0 0.013229 1.11874e-06 0 0.0131468
1.10191e-06 0 0.0131468 1.10191e-06 0 0.013065 1.09058e-06 0 0.013065 1.09058e-06
0 0.0129834 1.08394e-06 0 0.0129834 1.08394e-06 0 0.0129021 1.0804e-06 0
0.0129021 1.0804e-06 0 0.0128208 1.07866e-06 0 0.0128208 1.07866e-06 0 0.0127398
1.07724e-06 0 0.0127398 1.07724e-06 0 0.012659 1.07414e-06 0 0.012659 1.07414e-06
0 0.0125787 1.06857e-06 0 0.0125787 1.06857e-06 0 0.0124992 1.05844e-06 0
0.0124992 1.05844e-06 0 0.0124205 1.04556e-06 0 0.0124205 1.04556e-06 0 0.0123433
1.01737e-06 0 0.0123433 1.01737e-06 0 0.0122681 9.77915e-07 0 0.0122681 9.77915e-07
0 0.0121945 9.53907e-07 0 0.0121945 9.53907e-07 0 0.0121221 9.35329e-07 0
0.0121221 9.35329e-07 0 0.0120509 9.07538e-07 0 0.0120509 9.07538e-07 0 0.0119813
8.74594e-07 0 0.0119813 8.74594e-07 0 0.0119134 8.39465e-07 0 0.0119134 8.39465e-07
0 0.0118473 8.04977e-07 0 0.0118473 8.04977e-07 0 0.0117828 7.7292e-07 0
0.0117828 7.7292e-07 0 0.0117198 7.44128e-07 0 0.0117198 7.44128e-07 0 0.0116581
7.18505e-07 0 0.0116581 7.18505e-07 0 0.0115977 6.95303e-07 0 0.0115977 6.95303e-07
0 0.0115386 6.73383e-07 0 0.0115386 6.73383e-07 0 0.0114808 6.51423e-07 0
0.0114808 6.51423e-07 0 0.0114243 6.28281e-07 0 0.0114243 6.28281e-07 0 0.0113695
6.03205e-07 0 0.0113695 6.03205e-07 0 0.0113164 5.7584e-07 0 0.0113164 5.7584e-07
0 0.0112653 5.46383e-07 0 0.0112653 5.46383e-07 0 0.0112163 5.15557e-07 0
0.0112163 5.15557e-07 0 0.0111694 4.84301e-07 0 0.0111694 4.84301e-07 0 0.0111246
4.53719e-07 0 0.0111246 4.53719e-07 0 0.0110818 4.24971e-07 0 0.0110818 4.24971e-07
0 0.0110409 3.98832e-07 0 0.0110409 3.98832e-07 0 0.0110018 3.75647e-07 0
0.0110018 3.75647e-07 0 0.0109643 3.55497e-07 0 0.0109643 3.55497e-07 0 0.0109283
3.37981e-07 0 0.0109283 3.37981e-07 0 0.0108936 3.22374e-07 0 0.0108936 3.22374e-07
0 0.0108602 3.08159e-07 0 0.0108602 3.08159e-07 0 0.0108281 2.9471e-07 0
0.0108281 2.9471e-07 0 0.0107973 2.81062e-07 0 0.0107973 2.81062e-07 0 0.0107679
2.6687e-07 0 0.0107679 2.6687e-07 0 0.0107398 2.52748e-07 0 0.0107398 2.52748e-07
0 0.0107131 2.39234e-07 0 0.0107131 2.39234e-07 0 0.0106877 2.2662e-07 0
0.0106877 2.2662e-07 0 0.0106636 2.15681e-07 0 0.0106636 2.15681e-07 0 0.0106407
2.06932e-07 0 0.0106407 2.06932e-07 0 0.010619 1.99269e-07 0 0.010619 1.99269e-07
0 0.0105985 1.90549e-07 0 0.0105985 1.90549e-07 0 0.0105796 1.79139e-07 0
0.0105796 1.79139e-07 0 0.0105625 1.64211e-07 0 0.0105625 1.64211e-07 0 0.0105475
1.45384e-07 0 0.0105475 1.45384e-07 0 0.0105348 1.22965e-07 0 0.0105348 1.22965e-07
0 0.0105245 9.79194e-08 0 0.0105245 9.79194e-08 0 0.0105169 7.21024e-08 0
0.0105169 7.21024e-08 0 0.0105117 4.57347e-08 0 0.0105117 4.57347e-08 0 0.0105089
1.86718e-08 0 0.0105089 1.86718e-08 0 0.0105083 -3.56719e-09 0 0.0105083 -3.56719e-09
0 0.0105093 -1.74907e-08 0 0.0105093 -1.74907e-08 0 0.0105113 -2.59258e-08 0
0.0105113 -2.59258e-08 0 0.0105139 -3.19378e-08 0 0.0105139 -3.19378e-08 0 0.0105171
-3.74541e-08 0 0.0105171 -3.74541e-08 0 0.0105207 -4.28946e-08 0 0.0105207 -4.28946e-08
0 0.0105245 -4.62176e-08 0 0.0105245 -4.62176e-08 0 0.0105282 -4.44334e-08 0
0.0105282 -4.44334e-08 0 0.0105314 -3.72545e-08 0 0.0105314 -3.72545e-08 0 0.0105338
-2.72935e-08 0 0.0105338 -2.72935e-08 0 0.0105355 -1.75827e-08 0 0.0105355 -1.75827e-08
0 0.0105368 -9.88787e-09 0 0.0105368 -9.88787e-09 0 0.0105377 -4.95102e-09 0
0.0105377 -4.95102e-09 0 0.0105388 -3.65724e-09 0 0.0105388 -3.65724e-09 0 0.0105403
-6.39083e-09 0 0.0105403 -6.39083e-09 0 0.0105425 -1.22313e-08 0 0.0105425 -1.22313e-08
0 0.0105456 -1.98422e-08 0 0.0105456 -1.98422e-08 0 0.0105496 -2.82899e-08 0
0.0105496 -2.82899e-08 0 0.0105546 -3.69412e-08 0 0.0105546 -3.69412e-08 0 0.0105603
-4.4353e-08 0 0.0105603 -4.4353e-08 0 0.0105664 -4.82389e-08 0 0.0105664 -4.82389e-08
0 0.0105725 -4.70743e-08 0 0.0105725 -4.70743e-08 0 0.0105784 -4.17857e-08 0
0.0105784 -4.17857e-08 0 0.0105838 -3.55807e-08 0 0.0105838 -3.55807e-08 0 0.010589
-3.18605e-08 0 0.010589 -3.18605e-08 0 0.0105943 -3.20937e-08 0 0.0105943 -3.20937e-08
0 0.0106001 -3.5315e-08 0 0.0106001 -3.5315e-08 0 0.0106063 -3.92881e-08 0
0.0106063 -3.92881e-08 0 0.0106129 -4.21232e-08 0 0.0106129 -4.21232e-08 0 0.0106198
-4.3167e-08 0 0.0106198 -4.3167e-08 0 0.0106267 -4.28636e-08 0 0.0106267 -4.28636e-08
0 0.0106337 -4.20612e-08 0 0.0106337 -4.20612e-08 0 0.0106406 -4.14012e-08 0
0.0106406 -4.14012e-08 0 0.0106476 -4.1102e-08 0 0.0106476 -4.1102e-08 0 0.0106547
-4.10738e-08 0 0.0106547 -4.10738e-08 0 0.0106619 -4.11332e-08 0 0.0106619 -4.11332e-08
0 0.0106691 -4.1149e-08 0 0.0106691 -4.1149e-08 0 0.0106765 -4.10744e-08 0
0.0106765 -4.10744e-08 0 0.0106838 -4.09182e-08 0 0.0106838 -4.09182e-08 0 0.0106913
-4.07063e-08 0 0.0106913 -4.07063e-08 0 0.0106987 -4.04611e-08 0 0.0106987 -4.04611e-08
0 0.0107062 -4.0199e-08 0 0.0107062 -4.0199e-08 0 0.0107138 -3.99293e-08 0
0.0107138 -3.99293e-08 0 0.0107214 -3.96536e-08 0 0.0107214 -3.96536e-08 0 0.010729
-3.93706e-08 0 0.010729 -3.93706e-08 0 0.0107366 -3.90774e-08 0 0.0107366 -3.90774e-08
0 0.0107442 -3.87721e-08 0 0.0107442 -3.87721e-08 0 0.0107519 -3.84564e-08 0
0.0107519 -3.84564e-08 0 0.0107596 -3.81306e-08 0 0.0107596 -3.81306e-08 0 0.0107673
-3.77917e-08 0 0.0107673 -3.77917e-08 0 0.0107751 -3.73685e-08 0 0.0107751 -3.73685e-08
0 0.0107828 -3.68448e-08 0 0.0107828 -3.68448e-08 0 0.0107906 -3.69519e-08 0
0.0107906 -3.69519e-08 0 0.0107984 -3.73914e-08 0 0.0107984 -3.73914e-08 0 0.0108063
-3.64527e-08 0 0.0108063 -3.64527e-08 0 0.0108139 -3.43515e-08 0 0.0108139 -3.43515e-08
0 0.0108212 -3.2297e-08 0 0.0108212 -3.2297e-08 0 0.0108281 -3.06115e-08 0
0.0108281 -3.06115e-08 0 0.0108348 -2.93329e-08 0 0.0108348 -2.93329e-08 0 0.0108414
-2.83913e-08 0 0.0108414 -2.83913e-08 0 0.0108478 -2.77046e-08 0 0.0108478 -2.77046e-08
0 0.0108542 -2.72053e-08 0 0.0108542 -2.72053e-08 0 0.0108605 -2.6842e-08 0
0.0108605 -2.6842e-08 0 0.0108669 -2.65775e-08 0 0.0108669 -2.65775e-08 0 0.0108732
-2.6385e-08 0 0.0108732 -2.6385e-08 0 0.0108796 -2.62455e-08 0 0.0108796 -2.62455e-08
0 0.0108861 -2.61445e-08 0 0.0108861 -2.61445e-08 0 0.0108926 -2.60716e-08 0
0.0108926 -2.60716e-08 0 0.0108991 -2.60189e-08 0 0.0108991 -2.60189e-08 0 0.0109057
-2.59815e-08 0 0.0109057 -2.59815e-08 0 0.0109124 -2.59547e-08 0 0.0109124 -2.59547e-08
0 0.0109191 -2.59346e-08 0 0.0109191 -2.59346e-08 0 0.0109259 -2.59201e-08 0
0.0109259 -2.59201e-08 0 0.0109328 -2.59092e-08 0 0.0109328 -2.59092e-08 0 0.0109397
-2.59002e-08 0 0.0109397 -2.59002e-08 0 0.0109467 -2.58918e-08 0 0.0109467 -2.58918e-08
0 0.0109538 -2.58835e-08 0 0.0109538 -2.58835e-08 0 0.010961 -2.58747e-08 0
0.010961 -2.58747e-08 0 0.0109682 -2.58649e-08 0 0.0109682 -2.58649e-08 0 0.0109755
-2.58534e-08 0 0.0109755 -2.58534e-08 0 0.0109829 -2.58402e-08 0 0.0109829 -2.58402e-08
0 0.0109904 -2.58254e-08 0 0.0109904 -2.58254e-08 0 0.0109979 -2.58081e-08 0
0.0109979 -2.58081e-08 0 0.0110055 -2.57887e-08 0 0.0110055 -2.57887e-08 0 0.0110132
-2.57672e-08 0 0.0110132 -2.57672e-08 0 0.0110209 -2.57431e-08 0 0.0110209 -2.57431e-08
0 0.0110288 -2.57166e-08 0 0.0110288 -2.57166e-08 0 0.0110367 -2.56875e-08 0
0.0110367 -2.56875e-08 0 0.0110447 -2.56559e-08 0 0.0110447 -2.56559e-08 0 0.0110527
-2.56219e-08 0 0.0110527 -2.56219e-08 0 0.0110608 -2.55853e-08 0 0.0110608 -2.55853e-08
0 0.011069 -2.55458e-08 0 0.011069 -2.55458e-08 0 0.0110773 -2.55033e-08 0
0.0110773 -2.55033e-08 0 0.0110857 -2.54579e-08 0 0.0110857 -2.54579e-08 0 0.0110941
-2.5409e-08 0 0.0110941 -2.5409e-08 0 0.0111026 -2.53559e-08 0 0.0111026 -2.53559e-08
0 0.0111112 -2.52975e-08 0 0.0111112 -2.52975e-08 0 0.0111198 -2.52301e-08 0
0.0111198 -2.52301e-08 0 0.0111285 -2.51463e-08 0 0.0111285 -2.51463e-08 0 0.0111373
-2.49782e-08 0 0.0111373 -2.49782e-08 0 0.0111461 -2.49477e-08 0 0.0111461 -2.49477e-08
0 0.011155 -2.51709e-08 0 0.011155 -2.51709e-08 0 0.011164 -2.49864e-08 0
0.011164 -2.49864e-08 0 0.0111729 -2.4107e-08 0 0.0111729 -2.4107e-08 0 0.0111815
-2.30014e-08 0 0.0111815 -2.30014e-08 0 0.0111899 -2.20151e-08 0 0.0111899 -2.20151e-08
0 0.0111979 -2.12365e-08 0 0.0111979 -2.12365e-08 0 0.0112059 -2.0652e-08 0
0.0112059 -2.0652e-08 0 0.0112137 -2.02195e-08 0 0.0112137 -2.02195e-08 0 0.0112215
-1.99e-08 0 0.0112215 -1.99e-08 0 0.0112292 -1.96632e-08 0 0.0112292 -1.96632e-08
0 0.0112369 -1.94863e-08 0 0.0112369 -1.94863e-08 0 0.0112447 -1.93527e-08 0
0.0112447 -1.93527e-08 0 0.0112525 -1.92507e-08 0 0.0112525 -1.92507e-08 0 0.0112603
-1.91716e-08 0 0.0112603 -1.91716e-08 0 0.0112682 -1.91089e-08 0 0.0112682 -1.91089e-08
0 0.0112762 -1.90582e-08 0 0.0112762 -1.90582e-08 0 0.0112842 -1.9016e-08 0
0.0112842 -1.9016e-08 0 0.0112923 -1.89796e-08 0 0.0112923 -1.89796e-08 0 0.0113004
-1.89466e-08 0 0.0113004 -1.89466e-08 0 0.0113087 -1.89163e-08 0 0.0113087 -1.89163e-08
0 0.011317 -1.88873e-08 0 0.011317 -1.88873e-08 0 0.0113253 -1.88588e-08 0
0.0113253 -1.88588e-08 0 0.0113338 -1.883e-08 0 0.0113338 -1.883e-08 0 0.0113423
-1.88005e-08 0 0.0113423 -1.88005e-08 0 0.0113509 -1.87702e-08 0 0.0113509 -1.87702e-08
0 0.0113596 -1.87384e-08 0 0.0113596 -1.87384e-08 0 0.0113683 -1.8705e-08 0
0.0113683 -1.8705e-08 0 0.0113771 -1.86701e-08 0 0.0113771 -1.86701e-08 0 0.011386
-1.86335e-08 0 0.011386 -1.86335e-08 0 0.011395 -1.85952e-08 0 0.011395 -1.85952e-08
0 0.011404 -1.85551e-08 0 0.011404 -1.85551e-08 0 0.0114132 -1.85131e-08 0
0.0114132 -1.85131e-08 0 0.0114224 -1.84692e-08 0 0.0114224 -1.84692e-08 0 0.0114316
-1.84232e-08 0 0.0114316 -1.84232e-08 0 0.011441 -1.83753e-08 0 0.011441 -1.83753e-08
0 0.0114504 -1.83257e-08 0 0.0114504 -1.83257e-08 0 0.0114599 -1.82741e-08 0
0.0114599 -1.82741e-08 0 0.0114694 -1.82203e-08 0 0.0114694 -1.82203e-08 0 0.0114791
-1.81641e-08 0 0.0114791 -1.81641e-08 0 0.0114888 -1.81051e-08 0 0.0114888 -1.81051e-08
0 0.0114985 -1.80422e-08 0 0.0114985 -1.80422e-08 0 0.0115084 -1.79711e-08 0
0.0115084 -1.79711e-08 0 0.0115183 -1.78673e-08 0 0.0115183 -1.78673e-08 0 0.0115282
-1.78192e-08 0 0.0115282 -1.78192e-08 0 0.0115382 -1.78492e-08 0 0.0115382 -1.78492e-08
0 0.0115484 -1.76661e-08 0 0.0115484 -1.76661e-08 0 0.0115584 -1.71488e-08 0
0.0115584 -1.71488e-08 0 0.0115681 -1.65001e-08 0 0.0115681 -1.65001e-08 0 0.0115776
-1.58954e-08 0 0.0115776 -1.58954e-08 0 0.0115869 -1.53975e-08 0 0.0115869 -1.53975e-08
0 0.011596 -1.50055e-08 0 0.011596 -1.50055e-08 0 0.011605 -1.47002e-08 0
0.011605 -1.47002e-08 0 0.0116139 -1.44612e-08 0 0.0116139 -1.44612e-08 0 0.0116228
-1.42722e-08 0 0.0116228 -1.42722e-08 0 0.0116316 -1.41204e-08 0 0.0116316 -1.41204e-08
0 0.0116405 -1.3996e-08 0 0.0116405 -1.3996e-08 0 0.0116494 -1.38923e-08 0
0.0116494 -1.38923e-08 0 0.0116583 -1.38039e-08 0 0.0116583 -1.38039e-08 0 0.0116673
-1.37269e-08 0 0.0116673 -1.37269e-08 0 0.0116763 -1.36584e-08 0 0.0116763 -1.36584e-08
0 0.0116854 -1.35963e-08 0 0.0116854 -1.35963e-08 0 0.0116945 -1.35387e-08 0
0.0116945 -1.35387e-08 0 0.0117037 -1.34844e-08 0 0.0117037 -1.34844e-08 0 0.0117129
-1.34322e-08 0 0.0117129 -1.34322e-08 0 0.0117222 -1.33817e-08 0 0.0117222 -1.33817e-08
0 0.0117316 -1.33322e-08 0 0.0117316 -1.33322e-08 0 0.011741 -1.32831e-08 0
0.011741 -1.32831e-08 0 0.0117505 -1.32342e-08 0 0.0117505 -1.32342e-08 0 0.01176
-1.31858e-08 0 0.01176 -1.31858e-08 0 0.0117696 -1.3137e-08 0 0.0117696 -1.3137e-08
0 0.0117793 -1.30876e-08 0 0.0117793 -1.30876e-08 0 0.011789 -1.30376e-08 0
0.011789 -1.30376e-08 0 0.0117988 -1.29872e-08 0 0.0117988 -1.29872e-08 0 0.0118087
-1.29362e-08 0 0.0118087 -1.29362e-08 0 0.0118186 -1.28844e-08 0 0.0118186 -1.28844e-08
0 0.0118286 -1.28321e-08 0 0.0118286 -1.28321e-08 0 0.0118387 -1.27791e-08 0
0.0118387 -1.27791e-08 0 0.0118488 -1.27249e-08 0 0.0118488 -1.27249e-08 0 0.011859
-1.26698e-08 0 0.011859 -1.26698e-08 0 0.0118692 -1.26136e-08 0 0.0118692 -1.26136e-08
0 0.0118795 -1.25556e-08 0 0.0118795 -1.25556e-08 0 0.0118899 -1.24945e-08 0
0.0118899 -1.24945e-08 0 0.0119003 -1.24212e-08 0 0.0119003 -1.24212e-08 0 0.0119108
-1.2364e-08 0 0.0119108 -1.2364e-08 0 0.0119213 -1.23347e-08 0 0.0119213 -1.23347e-08
0 0.0119319 -1.22159e-08 0 0.0119319 -1.22159e-08 0 0.0119424 -1.19221e-08 0
0.0119424 -1.19221e-08 0 0.0119527 -1.15273e-08 0 0.0119527 -1.15273e-08 0 0.0119628
-1.11371e-08 0 0.0119628 -1.11371e-08 0 0.0119726 -1.0801e-08 0 0.0119726 -1.0801e-08
0 0.0119823 -1.0526e-08 0 0.0119823 -1.0526e-08 0 0.0119919 -1.03039e-08 0
0.0119919 -1.03039e-08 0 0.0120013 -1.01245e-08 0 0.0120013 -1.01245e-08 0 0.0120107
-9.97692e-09 0 0.0120107 -9.97692e-09 0 0.0120201 -9.85335e-09 0 0.0120201 -9.85335e-09
0 0.0120295 -9.74895e-09 0 0.0120295 -9.74895e-09 0 0.0120389 -9.65889e-09 0
0.0120389 -9.65889e-09 0 0.0120483 -9.57938e-09 0 0.0120483 -9.57938e-09 0 0.0120577
-9.50811e-09 0 0.0120577 -9.50811e-09 0 0.0120671 -9.44337e-09 0 0.0120671 -9.44337e-09
0 0.0120766 -9.38322e-09 0 0.0120766 -9.38322e-09 0 0.0120861 -9.32687e-09 0
0.0120861 -9.32687e-09 0 0.0120957 -9.27333e-09 0 0.0120957 -9.27333e-09 0 0.0121053
-9.22177e-09 0 0.0121053 -9.22177e-09 0 0.012115 -9.17194e-09 0 0.012115 -9.17194e-09
0 0.0121247 -9.12293e-09 0 0.0121247 -9.12293e-09 0 0.0121344 -9.07445e-09 0
0.0121344 -9.07445e-09 0 0.0121442 -9.02705e-09 0 0.0121442 -9.02705e-09 0 0.0121541
-8.98037e-09 0 0.0121541 -8.98037e-09 0 0.012164 -8.93373e-09 0 0.012164 -8.93373e-09
0 0.0121739 -8.88733e-09 0 0.0121739 -8.88733e-09 0 0.0121839 -8.84086e-09 0
0.0121839 -8.84086e-09 0 0.012194 -8.79432e-09 0 0.012194 -8.79432e-09 0 0.0122041
-8.74772e-09 0 0.0122041 -8.74772e-09 0 0.0122143 -8.70083e-09 0 0.0122143 -8.70083e-09
0 0.0122245 -8.65375e-09 0 0.0122245 -8.65375e-09 0 0.0122348 -8.60634e-09 0
0.0122348 -8.60634e-09 0 0.0122451 -8.55824e-09 0 0.0122451 -8.55824e-09 0 0.0122554
-8.50799e-09 0 0.0122554 -8.50799e-09 0 0.0122658 -8.45402e-09 0 0.0122658 -8.45402e-09
0 0.0122763 -8.41085e-09 0 0.0122763 -8.41085e-09 0 0.0122868 -8.36688e-09 0
0.0122868 -8.36688e-09 0 0.0122973 -8.25282e-09 0 0.0122973 -8.25282e-09 0 0.0123078
-8.0418e-09 0 0.0123078 -8.0418e-09 0 0.012318 -7.78544e-09 0 0.012318 -7.78544e-09
0 0.012328 -7.539e-09 0 0.012328 -7.539e-09 0 0.0123378 -7.3262e-09 0
0.0123378 -7.3262e-09 0 0.0123474 -7.14917e-09 0 0.0123474 -7.14917e-09 0 0.0123569
-7.0029e-09 0 0.0123569 -7.0029e-09 0 0.0123664 -6.88127e-09 0 0.0123664 -6.88127e-09
0 0.0123758 -6.77888e-09 0 0.0123758 -6.77888e-09 0 0.0123851 -6.69132e-09 0
0.0123851 -6.69132e-09 0 0.0123945 -6.61518e-09 0 0.0123945 -6.61518e-09 0 0.0124038
-6.54789e-09 0 0.0124038 -6.54789e-09 0 0.0124131 -6.4875e-09 0 0.0124131 -6.4875e-09
0 0.0124225 -6.43249e-09 0 0.0124225 -6.43249e-09 0 0.0124319 -6.38169e-09 0
0.0124319 -6.38169e-09 0 0.0124413 -6.33412e-09 0 0.0124413 -6.33412e-09 0 0.0124507
-6.28879e-09 0 0.0124507 -6.28879e-09 0 0.0124602 -6.24549e-09 0 0.0124602 -6.24549e-09
0 0.0124697 -6.20371e-09 0 0.0124697 -6.20371e-09 0 0.0124792 -6.1631e-09 0
0.0124792 -6.1631e-09 0 0.0124888 -6.12362e-09 0 0.0124888 -6.12362e-09 0 0.0124984
-6.08481e-09 0 0.0124984 -6.08481e-09 0 0.012508 -6.04644e-09 0 0.012508 -6.04644e-09
0 0.0125177 -6.00852e-09 0 0.0125177 -6.00852e-09 0 0.0125274 -5.971e-09 0
0.0125274 -5.971e-09 0 0.0125372 -5.93372e-09 0 0.0125372 -5.93372e-09 0 0.012547
-5.89643e-09 0 0.012547 -5.89643e-09 0 0.0125568 -5.85919e-09 0 0.0125568 -5.85919e-09
0 0.0125667 -5.82202e-09 0 0.0125667 -5.82202e-09 0 0.0125767 -5.78457e-09 0
0.0125767 -5.78457e-09 0 0.0125866 -5.74569e-09 0 0.0125866 -5.74569e-09 0 0.0125966
-5.70693e-09 0 0.0125966 -5.70693e-09 0 0.0126067 -5.67344e-09 0 0.0126067 -5.67344e-09
0 0.0126167 -5.6273e-09 0 0.0126167 -5.6273e-09 0 0.0126268 -5.53057e-09 0
0.0126268 -5.53057e-09 0 0.0126367 -5.37949e-09 0 0.0126367 -5.37949e-09 0 0.0126465
-5.20954e-09 0 0.0126465 -5.20954e-09 0 0.012656 -5.05151e-09 0 0.012656 -5.05151e-09
0 0.0126653 -4.91553e-09 0 0.0126653 -4.91553e-09 0 0.0126745 -4.80123e-09 0
0.0126745 -4.80123e-09 0 0.0126837 -4.70543e-09 0 0.0126837 -4.70543e-09 0 0.0126927
-4.62509e-09 0 0.0126927 -4.62509e-09 0 0.0127017 -4.55601e-09 0 0.0127017 -4.55601e-09
0 0.0127106 -4.49536e-09 0 0.0127106 -4.49536e-09 0 0.0127195 -4.44217e-09 0
0.0127195 -4.44217e-09 0 0.0127284 -4.39466e-09 0 0.0127284 -4.39466e-09 0 0.0127374
-4.35138e-09 0 0.0127374 -4.35138e-09 0 0.0127463 -4.31149e-09 0 0.0127463 -4.31149e-09
0 0.0127552 -4.27422e-09 0 0.0127552 -4.27422e-09 0 0.0127642 -4.23847e-09 0
0.0127642 -4.23847e-09 0 0.0127732 -4.20489e-09 0 0.0127732 -4.20489e-09 0 0.0127822
-4.17287e-09 0 0.0127822 -4.17287e-09 0 0.0127912 -4.14136e-09 0 0.0127912 -4.14136e-09
0 0.0128002 -4.11106e-09 0 0.0128002 -4.11106e-09 0 0.0128093 -4.08173e-09 0
0.0128093 -4.08173e-09 0 0.0128184 -4.05283e-09 0 0.0128184 -4.05283e-09 0 0.0128276
-4.02423e-09 0 0.0128276 -4.02423e-09 0 0.0128367 -3.99575e-09 0 0.0128367 -3.99575e-09
0 0.0128459 -3.96752e-09 0 0.0128459 -3.96752e-09 0 0.0128552 -3.93953e-09 0
0.0128552 -3.93953e-09 0 0.0128644 -3.91171e-09 0 0.0128644 -3.91171e-09 0 0.0128737
-3.88341e-09 0 0.0128737 -3.88341e-09 0 0.012883 -3.85528e-09 0 0.012883 -3.85528e-09
0 0.0128924 -3.82966e-09 0 0.0128924 -3.82966e-09 0 0.0129018 -3.796e-09 0
0.0129018 -3.796e-09 0 0.0129111 -3.73141e-09 0 0.0129111 -3.73141e-09 0 0.0129204
-3.63134e-09 0 0.0129204 -3.63134e-09 0 0.0129295 -3.5171e-09 0 0.0129295 -3.5171e-09
0 0.0129383 -3.40965e-09 0 0.0129383 -3.40965e-09 0 0.012947 -3.31642e-09 0
0.012947 -3.31642e-09 0 0.0129556 -3.23768e-09 0 0.0129556 -3.23768e-09 0 0.0129641
-3.17127e-09 0 0.0129641 -3.17127e-09 0 0.0129725 -3.11474e-09 0 0.0129725 -3.11474e-09
0 0.0129808 -3.06604e-09 0 0.0129808 -3.06604e-09 0 0.0129891 -3.02349e-09 0
0.0129891 -3.02349e-09 0 0.0129974 -2.98598e-09 0 0.0129974 -2.98598e-09 0 0.0130056
-2.95196e-09 0 0.0130056 -2.95196e-09 0 0.0130139 -2.92074e-09 0 0.0130139 -2.92074e-09
0 0.0130222 -2.89208e-09 0 0.0130222 -2.89208e-09 0 0.0130304 -2.86522e-09 0
0.0130304 -2.86522e-09 0 0.0130387 -2.83969e-09 0 0.0130387 -2.83969e-09 0 0.013047
-2.81539e-09 0 0.013047 -2.81539e-09 0 0.0130553 -2.79207e-09 0 0.0130553 -2.79207e-09
0 0.0130636 -2.76959e-09 0 0.0130636 -2.76959e-09 0 0.013072 -2.74771e-09 0
0.013072 -2.74771e-09 0 0.0130804 -2.72626e-09 0 0.0130804 -2.72626e-09 0 0.0130887
-2.70536e-09 0 0.0130887 -2.70536e-09 0 0.0130972 -2.68476e-09 0 0.0130972 -2.68476e-09
0 0.0131056 -2.66421e-09 0 0.0131056 -2.66421e-09 0 0.013114 -2.64387e-09 0
0.013114 -2.64387e-09 0 0.0131225 -2.62366e-09 0 0.0131225 -2.62366e-09 0 0.013131
-2.60389e-09 0 0.013131 -2.60389e-09 0 0.0131396 -2.58435e-09 0 0.0131396 -2.58435e-09
0 0.0131481 -2.55481e-09 0 0.0131481 -2.55481e-09 0 0.0131566 -2.50149e-09 0
0.0131566 -2.50149e-09 0 0.013165 -2.42782e-09 0 0.013165 -2.42782e-09 0 0.0131732
-2.35008e-09 0 0.0131732 -2.35008e-09 0 0.0131812 -2.27948e-09 0 0.0131812 -2.27948e-09
0 0.013189 -2.21858e-09 0 0.013189 -2.21858e-09 0 0.0131968 -2.16711e-09 0
0.0131968 -2.16711e-09 0 0.0132044 -2.12362e-09 0 0.0132044 -2.12362e-09 0 0.013212
-2.08615e-09 0 0.013212 -2.08615e-09 0 0.0132196 -2.05367e-09 0 0.0132196 -2.05367e-09
0 0.0132271 -2.0251e-09 0 0.0132271 -2.0251e-09 0 0.0132346 -1.99967e-09 0
0.0132346 -1.99967e-09 0 0.0132421 -1.97669e-09 0 0.0132421 -1.97669e-09 0 0.0132495
-1.9558e-09 0 0.0132495 -1.9558e-09 0 0.013257 -1.93603e-09 0 0.013257 -1.93603e-09
0 0.0132645 -1.91754e-09 0 0.0132645 -1.91754e-09 0 0.013272 -1.89992e-09 0
0.013272 -1.89992e-09 0 0.0132795 -1.88242e-09 0 0.0132795 -1.88242e-09 0 0.013287
-1.86618e-09 0 0.013287 -1.86618e-09 0 0.0132945 -1.85073e-09 0 0.0132945 -1.85073e-09
0 0.013302 -1.83536e-09 0 0.013302 -1.83536e-09 0 0.0133096 -1.82019e-09 0
0.0133096 -1.82019e-09 0 0.0133171 -1.80546e-09 0 0.0133171 -1.80546e-09 0 0.0133247
-1.79058e-09 0 0.0133247 -1.79058e-09 0 0.0133323 -1.77575e-09 0 0.0133323 -1.77575e-09
0 0.0133399 -1.76189e-09 0 0.0133399 -1.76189e-09 0 0.0133476 -1.7467e-09 0
0.0133476 -1.7467e-09 0 0.0133552 -1.72006e-09 0 0.0133552 -1.72006e-09 0 0.0133628
-1.67606e-09 0 0.0133628 -1.67606e-09 0 0.0133702 -1.62231e-09 0 0.0133702 -1.62231e-09
0 0.0133774 -1.56973e-09 0 0.0133774 -1.56973e-09 0 0.0133845 -1.52335e-09 0
0.0133845 -1.52335e-09 0 0.0133914 -1.48389e-09 0 0.0133914 -1.48389e-09 0 0.0133983
-1.45065e-09 0 0.0133983 -1.45065e-09 0 0.0134051 -1.42231e-09 0 0.0134051 -1.42231e-09
0 0.0134118 -1.39805e-09 0 0.0134118 -1.39805e-09 0 0.0134185 -1.37678e-09 0
0.0134185 -1.37678e-09 0 0.0134252 -1.35771e-09 0 0.0134252 -1.35771e-09 0 0.0134318
-1.34065e-09 0 0.0134318 -1.34065e-09 0 0.0134385 -1.3252e-09 0 0.0134385 -1.3252e-09
0 0.0134451 -1.31074e-09 0 0.0134451 -1.31074e-09 0 0.0134517 -1.29736e-09 0
0.0134517 -1.29736e-09 0 0.0134583 -1.28492e-09 0 0.0134583 -1.28492e-09 0 0.013465
-1.27302e-09 0 0.013465 -1.27302e-09 0 0.0134716 -1.26142e-09 0 0.0134716 -1.26142e-09
0 0.0134783 -1.25009e-09 0 0.0134783 -1.25009e-09 0 0.0134849 -1.23927e-09 0
0.0134849 -1.23927e-09 0 0.0134916 -1.22863e-09 0 0.0134916 -1.22863e-09 0 0.0134983
-1.21811e-09 0 0.0134983 -1.21811e-09 0 0.013505 -1.20806e-09 0 0.013505 -1.20806e-09
0 0.0135117 -1.19813e-09 0 0.0135117 -1.19813e-09 0 0.0135185 -1.1854e-09 0
0.0135185 -1.1854e-09 0 0.0135252 -1.16322e-09 0 0.0135252 -1.16322e-09 0 0.0135318
-1.12988e-09 0 0.0135318 -1.12988e-09 0 0.0135382 -1.09135e-09 0 0.0135382 -1.09135e-09
0 0.0135445 -1.05514e-09 0 0.0135445 -1.05514e-09 0 0.0135507 -1.02447e-09 0
0.0135507 -1.02447e-09 0 0.0135568 -9.9829e-10 0 0.0135568 -9.9829e-10 0 0.0135627
-9.75784e-10 0 0.0135627 -9.75784e-10 0 0.0135687 -9.56918e-10 0 0.0135687 -9.56918e-10
0 0.0135745 -9.40711e-10 0 0.0135745 -9.40711e-10 0 0.0135804 -9.26254e-10 0
0.0135804 -9.26254e-10 0 0.0135862 -9.13647e-10 0 0.0135862 -9.13647e-10 0 0.013592
-9.02328e-10 0 0.013592 -9.02328e-10 0 0.0135978 -8.91954e-10 0 0.0135978 -8.91954e-10
0 0.0136036 -8.82269e-10 0 0.0136036 -8.82269e-10 0 0.0136093 -8.73229e-10 0
0.0136093 -8.73229e-10 0 0.0136151 -8.64444e-10 0 0.0136151 -8.64444e-10 0 0.0136209
-8.56115e-10 0 0.0136209 -8.56115e-10 0 0.0136267 -8.48378e-10 0 0.0136267 -8.48378e-10
0 0.0136325 -8.40786e-10 0 0.0136325 -8.40786e-10 0 0.0136383 -8.33352e-10 0
0.0136383 -8.33352e-10 0 0.0136441 -8.26087e-10 0 0.0136441 -8.26087e-10 0 0.01365
-8.19224e-10 0 0.01365 -8.19224e-10 0 0.0136558 -8.10417e-10 0 0.0136558 -8.10417e-10
0 0.0136616 -7.94872e-10 0 0.0136616 -7.94872e-10 0 0.0136674 -7.71749e-10 0
0.0136674 -7.71749e-10 0 0.0136729 -7.44645e-10 0 0.0136729 -7.44645e-10 0 0.0136784
-7.18495e-10 0 0.0136784 -7.18495e-10 0 0.0136837 -6.96234e-10 0 0.0136837 -6.96234e-10
0 0.0136889 -6.77598e-10 0 0.0136889 -6.77598e-10 0 0.0136941 -6.61935e-10 0
0.0136941 -6.61935e-10 0 0.0136992 -6.48627e-10 0 0.0136992 -6.48627e-10 0 0.0137042
-6.37226e-10 0 0.0137042 -6.37226e-10 0 0.0137093 -6.26985e-10 0 0.0137093 -6.26985e-10
0 0.0137143 -6.18138e-10 0 0.0137143 -6.18138e-10 0 0.0137192 -6.10683e-10 0
0.0137192 -6.10683e-10 0 0.0137242 -6.0312e-10 0 0.0137242 -6.0312e-10 0 0.0137292
-5.96376e-10 0 0.0137292 -5.96376e-10 0 0.0137341 -5.90521e-10 0 0.0137341 -5.90521e-10
0 0.0137391 -5.84574e-10 0 0.0137391 -5.84574e-10 0 0.0137441 -5.7902e-10 0
0.0137441 -5.7902e-10 0 0.0137491 -5.73355e-10 0 0.0137491 -5.73355e-10 0 0.013754
-5.68122e-10 0 0.013754 -5.68122e-10 0 0.013759 -5.6333e-10 0 0.013759 -5.6333e-10
0 0.013764 -5.58095e-10 0 0.013764 -5.58095e-10 0 0.013769 -5.50266e-10 0
0.013769 -5.50266e-10 0 0.013774 -5.36466e-10 0 0.013774 -5.36466e-10 0 0.0137788
-5.17753e-10 0 0.0137788 -5.17753e-10 0 0.0137835 -4.9835e-10 0 0.0137835 -4.9835e-10
0 0.0137881 -4.81166e-10 0 0.0137881 -4.81166e-10 0 0.0137926 -4.66643e-10 0
0.0137926 -4.66643e-10 0 0.013797 -4.54303e-10 0 0.013797 -4.54303e-10 0 0.0138013
-4.44115e-10 0 0.0138013 -4.44115e-10 0 0.0138056 -4.35668e-10 0 0.0138056 -4.35668e-10
0 0.0138099 -4.28313e-10 0 0.0138099 -4.28313e-10 0 0.0138141 -4.21779e-10 0
0.0138141 -4.21779e-10 0 0.0138183 -4.15611e-10 0 0.0138183 -4.15611e-10 0 0.0138226
-4.10378e-10 0 0.0138226 -4.10378e-10 0 0.0138268 -4.05865e-10 0 0.0138268 -4.05865e-10
0 0.013831 -4.01617e-10 0 0.013831 -4.01617e-10 0 0.0138352 -3.97566e-10 0
0.0138352 -3.97566e-10 0 0.0138394 -3.93632e-10 0 0.0138394 -3.93632e-10 0 0.0138436
-3.90075e-10 0 0.0138436 -3.90075e-10 0 0.0138478 -3.86405e-10 0 0.0138478 -3.86405e-10
0 0.013852 -3.8254e-10 0 0.013852 -3.8254e-10 0 0.0138562 -3.86708e-10 0
0.0138562 -3.86708e-10 0 0.0300864 -5.36095e-10 0 0.0300864 -5.36095e-10 0 0.0463282
-6.79433e-10 0 0.0463282 -6.79433e-10 0 
