# vtk DataFile Version 2.0
sampleSurface
ASCII
DATASET POLYDATA
POINTS 1202 float
0 0 0 5.99825e-05 0 0 5.99825e-05 0 0.1 0 0
0.1 0.000120591 0 0 0.000120591 0 0.1 0.000181831 0 0
0.000181831 0 0.1 0.000243709 0 0 0.000243709 0 0.1 0.000306234
0 0 0.000306234 0 0.1 0.00036941 0 0 0.00036941 0
0.1 0.000433245 0 0 0.000433245 0 0.1 0.000497746 0 0
0.000497746 0 0.1 0.000562919 0 0 0.000562919 0 0.1 0.000628772
0 0 0.000628772 0 0.1 0.000695312 0 0 0.000695312 0
0.1 0.000762546 0 0 0.000762546 0 0.1 0.000830481 0 0
0.000830481 0 0.1 0.000899125 0 0 0.000899125 0 0.1 0.000968484
0 0 0.000968484 0 0.1 0.00103857 0 0 0.00103857 0
0.1 0.00110938 0 0 0.00110938 0 0.1 0.00118093 0 0
0.00118093 0 0.1 0.00125323 0 0 0.00125323 0 0.1 0.00132628
0 0 0.00132628 0 0.1 0.0014001 0 0 0.0014001 0
0.1 0.00147468 0 0 0.00147468 0 0.1 0.00155004 0 0
0.00155004 0 0.1 0.00162619 0 0 0.00162619 0 0.1 0.00170313
0 0 0.00170313 0 0.1 0.00178088 0 0 0.00178088 0
0.1 0.00185943 0 0 0.00185943 0 0.1 0.00193881 0 0
0.00193881 0 0.1 0.00201901 0 0 0.00201901 0 0.1 0.00210005
0 0 0.00210005 0 0.1 0.00218193 0 0 0.00218193 0
0.1 0.00226467 0 0 0.00226467 0 0.1 0.00234827 0 0
0.00234827 0 0.1 0.00243274 0 0 0.00243274 0 0.1 0.0025181
0 0 0.0025181 0 0.1 0.00260434 0 0 0.00260434 0
0.1 0.00269148 0 0 0.00269148 0 0.1 0.00277954 0 0
0.00277954 0 0.1 0.00286851 0 0 0.00286851 0 0.1 0.0029584
0 0 0.0029584 0 0.1 0.00304924 0 0 0.00304924 0
0.1 0.00314102 0 0 0.00314102 0 0.1 0.00323376 0 0
0.00323376 0 0.1 0.00332747 0 0 0.00332747 0 0.1 0.00342215
0 0 0.00342215 0 0.1 0.00351783 0 0 0.00351783 0
0.1 0.0036145 0 0 0.0036145 0 0.1 0.00371217 0 0
0.00371217 0 0.1 0.00381087 0 0 0.00381087 0 0.1 0.0039106
0 0 0.0039106 0 0.1 0.00401136 0 0 0.00401136 0
0.1 0.00411318 0 0 0.00411318 0 0.1 0.00421606 0 0
0.00421606 0 0.1 0.00432001 0 0 0.00432001 0 0.1 0.00442505
0 0 0.00442505 0 0.1 0.00453118 0 0 0.00453118 0
0.1 0.00463842 0 0 0.00463842 0 0.1 0.00474677 0 0
0.00474677 0 0.1 0.00485626 0 0 0.00485626 0 0.1 0.00496689
0 0 0.00496689 0 0.1 0.00507867 0 0 0.00507867 0
0.1 0.00519162 0 0 0.00519162 0 0.1 0.00530574 0 0
0.00530574 0 0.1 0.00542106 0 0 0.00542106 0 0.1 0.00553758
0 0 0.00553758 0 0.1 0.00565531 0 0 0.00565531 0
0.1 0.00577427 0 0 0.00577427 0 0.1 0.00589447 0 0
0.00589447 0 0.1 0.00601593 0 0 0.00601593 0 0.1 0.00613865
0 0 0.00613865 0 0.1 0.00626266 0 0 0.00626266 0
0.1 0.00638795 0 0 0.00638795 0 0.1 0.00651455 0 0
0.00651455 0 0.1 0.00664248 0 0 0.00664248 0 0.1 0.00677173
0 0 0.00677173 0 0.1 0.00690234 0 0 0.00690234 0
0.1 0.0070343 0 0 0.0070343 0 0.1 0.00716765 0 0
0.00716765 0 0.1 0.00730238 0 0 0.00730238 0 0.1 0.00743852
0 0 0.00743852 0 0.1 0.00757608 0 0 0.00757608 0
0.1 0.00771507 0 0 0.00771507 0 0.1 0.00785551 0 0
0.00785551 0 0.1 0.00799742 0 0 0.00799742 0 0.1 0.00814081
0 0 0.00814081 0 0.1 0.00828569 0 0 0.00828569 0
0.1 0.00843209 0 0 0.00843209 0 0.1 0.00858001 0 0
0.00858001 0 0.1 0.00872947 0 0 0.00872947 0 0.1 0.00888049
0 0 0.00888049 0 0.1 0.00903309 0 0 0.00903309 0
0.1 0.00918728 0 0 0.00918728 0 0.1 0.00934307 0 0
0.00934307 0 0.1 0.00950049 0 0 0.00950049 0 0.1 0.00965956
0 0 0.00965956 0 0.1 0.00982028 0 0 0.00982028 0
0.1 0.00998268 0 0 0.00998268 0 0.1 0.0101468 0 0
0.0101468 0 0.1 0.0103126 0 0 0.0103126 0 0.1 0.0104801
0 0 0.0104801 0 0.1 0.0106494 0 0 0.0106494 0
0.1 0.0108204 0 0 0.0108204 0 0.1 0.0109933 0 0
0.0109933 0 0.1 0.0111679 0 0 0.0111679 0 0.1 0.0113443
0 0 0.0113443 0 0.1 0.0115226 0 0 0.0115226 0
0.1 0.0117028 0 0 0.0117028 0 0.1 0.0118848 0 0
0.0118848 0 0.1 0.0120687 0 0 0.0120687 0 0.1 0.0122546
0 0 0.0122546 0 0.1 0.0124424 0 0 0.0124424 0
0.1 0.0126321 0 0 0.0126321 0 0.1 0.0128238 0 0
0.0128238 0 0.1 0.0130176 0 0 0.0130176 0 0.1 0.0132133
0 0 0.0132133 0 0.1 0.0134111 0 0 0.0134111 0
0.1 0.0136109 0 0 0.0136109 0 0.1 0.0138129 0 0
0.0138129 0 0.1 0.0140169 0 0 0.0140169 0 0.1 0.0142231
0 0 0.0142231 0 0.1 0.0144314 0 0 0.0144314 0
0.1 0.0146419 0 0 0.0146419 0 0.1 0.0148546 0 0
0.0148546 0 0.1 0.0150695 0 0 0.0150695 0 0.1 0.0152866
0 0 0.0152866 0 0.1 0.015506 0 0 0.015506 0
0.1 0.0157277 0 0 0.0157277 0 0.1 0.0159517 0 0
0.0159517 0 0.1 0.016178 0 0 0.016178 0 0.1 0.0164067
0 0 0.0164067 0 0.1 0.0166378 0 0 0.0166378 0
0.1 0.0168713 0 0 0.0168713 0 0.1 0.0171073 0 0
0.0171073 0 0.1 0.0173457 0 0 0.0173457 0 0.1 0.0175865
0 0 0.0175865 0 0.1 0.0178299 0 0 0.0178299 0
0.1 0.0180759 0 0 0.0180759 0 0.1 0.0183244 0 0
0.0183244 0 0.1 0.0185754 0 0 0.0185754 0 0.1 0.0188291
0 0 0.0188291 0 0.1 0.0190855 0 0 0.0190855 0
0.1 0.0193445 0 0 0.0193445 0 0.1 0.0196063 0 0
0.0196063 0 0.1 0.0198707 0 0 0.0198707 0 0.1 0.0201379
0 0 0.0201379 0 0.1 0.0204079 0 0 0.0204079 0
0.1 0.0206807 0 0 0.0206807 0 0.1 0.0209564 0 0
0.0209564 0 0.1 0.0212349 0 0 0.0212349 0 0.1 0.0215164
0 0 0.0215164 0 0.1 0.0218008 0 0 0.0218008 0
0.1 0.0220881 0 0 0.0220881 0 0.1 0.0223784 0 0
0.0223784 0 0.1 0.0226718 0 0 0.0226718 0 0.1 0.0229682
0 0 0.0229682 0 0.1 0.0232677 0 0 0.0232677 0
0.1 0.0235704 0 0 0.0235704 0 0.1 0.0238762 0 0
0.0238762 0 0.1 0.0241852 0 0 0.0241852 0 0.1 0.0244974
0 0 0.0244974 0 0.1 0.0248128 0 0 0.0248128 0
0.1 0.0251316 0 0 0.0251316 0 0.1 0.0254537 0 0
0.0254537 0 0.1 0.0257791 0 0 0.0257791 0 0.1 0.0261079
0 0 0.0261079 0 0.1 0.0264402 0 0 0.0264402 0
0.1 0.0267759 0 0 0.0267759 0 0.1 0.0271152 0 0
0.0271152 0 0.1 0.0274579 0 0 0.0274579 0 0.1 0.0278043
0 0 0.0278043 0 0.1 0.0281542 0 0 0.0281542 0
0.1 0.0285078 0 0 0.0285078 0 0.1 0.0288651 0 0
0.0288651 0 0.1 0.0292261 0 0 0.0292261 0 0.1 0.0295909
0 0 0.0295909 0 0.1 0.0299595 0 0 0.0299595 0
0.1 0.0303319 0 0 0.0303319 0 0.1 0.0307082 0 0
0.0307082 0 0.1 0.0310885 0 0 0.0310885 0 0.1 0.0314727
0 0 0.0314727 0 0.1 0.0318609 0 0 0.0318609 0
0.1 0.0322532 0 0 0.0322532 0 0.1 0.0326495 0 0
0.0326495 0 0.1 0.03305 0 0 0.03305 0 0.1 0.0334546
0 0 0.0334546 0 0.1 0.0338635 0 0 0.0338635 0
0.1 0.0342767 0 0 0.0342767 0 0.1 0.0346941 0 0
0.0346941 0 0.1 0.0351159 0 0 0.0351159 0 0.1 0.0355421
0 0 0.0355421 0 0.1 0.0359728 0 0 0.0359728 0
0.1 0.0364079 0 0 0.0364079 0 0.1 0.0368476 0 0
0.0368476 0 0.1 0.0372919 0 0 0.0372919 0 0.1 0.0377408
0 0 0.0377408 0 0.1 0.0381944 0 0 0.0381944 0
0.1 0.0386527 0 0 0.0386527 0 0.1 0.0391158 0 0
0.0391158 0 0.1 0.0395837 0 0 0.0395837 0 0.1 0.0400565
0 0 0.0400565 0 0.1 0.0405342 0 0 0.0405342 0
0.1 0.0410169 0 0 0.0410169 0 0.1 0.0415047 0 0
0.0415047 0 0.1 0.0419975 0 0 0.0419975 0 0.1 0.0424955
0 0 0.0424955 0 0.1 0.0429986 0 0 0.0429986 0
0.1 0.0435071 0 0 0.0435071 0 0.1 0.0440208 0 0
0.0440208 0 0.1 0.0445398 0 0 0.0445398 0 0.1 0.0450643
0 0 0.0450643 0 0.1 0.0455943 0 0 0.0455943 0
0.1 0.0461298 0 0 0.0461298 0 0.1 0.0466708 0 0
0.0466708 0 0.1 0.0472176 0 0 0.0472176 0 0.1 0.04777
0 0 0.04777 0 0.1 0.0483281 0 0 0.0483281 0
0.1 0.0488921 0 0 0.0488921 0 0.1 0.049462 0 0
0.049462 0 0.1 0.0500378 0 0 0.0500378 0 0.1 0.0506197
0 0 0.0506197 0 0.1 0.0512076 0 0 0.0512076 0
0.1 0.0518016 0 0 0.0518016 0 0.1 0.0524018 0 0
0.0524018 0 0.1 0.0530083 0 0 0.0530083 0 0.1 0.0536211
0 0 0.0536211 0 0.1 0.0542403 0 0 0.0542403 0
0.1 0.0548659 0 0 0.0548659 0 0.1 0.0554981 0 0
0.0554981 0 0.1 0.0561369 0 0 0.0561369 0 0.1 0.0567823
0 0 0.0567823 0 0.1 0.0574345 0 0 0.0574345 0
0.1 0.0580934 0 0 0.0580934 0 0.1 0.0587593 0 0
0.0587593 0 0.1 0.0594321 0 0 0.0594321 0 0.1 0.0601119
0 0 0.0601119 0 0.1 0.0607987 0 0 0.0607987 0
0.1 0.0614928 0 0 0.0614928 0 0.1 0.0621941 0 0
0.0621941 0 0.1 0.0629027 0 0 0.0629027 0 0.1 0.0636187
0 0 0.0636187 0 0.1 0.0643421 0 0 0.0643421 0
0.1 0.0650732 0 0 0.0650732 0 0.1 0.0658118 0 0
0.0658118 0 0.1 0.0665581 0 0 0.0665581 0 0.1 0.0673122
0 0 0.0673122 0 0.1 0.0680742 0 0 0.0680742 0
0.1 0.0688441 0 0 0.0688441 0 0.1 0.0696221 0 0
0.0696221 0 0.1 0.0704082 0 0 0.0704082 0 0.1 0.0712024
0 0 0.0712024 0 0.1 0.072005 0 0 0.072005 0
0.1 0.0728159 0 0 0.0728159 0 0.1 0.0736353 0 0
0.0736353 0 0.1 0.0744632 0 0 0.0744632 0 0.1 0.0752998
0 0 0.0752998 0 0.1 0.076145 0 0 0.076145 0
0.1 0.0769991 0 0 0.0769991 0 0.1 0.0778621 0 0
0.0778621 0 0.1 0.0787342 0 0 0.0787342 0 0.1 0.0796153
0 0 0.0796153 0 0.1 0.0805055 0 0 0.0805055 0
0.1 0.0814051 0 0 0.0814051 0 0.1 0.0823141 0 0
0.0823141 0 0.1 0.0832325 0 0 0.0832325 0 0.1 0.0841605
0 0 0.0841605 0 0.1 0.0850982 0 0 0.0850982 0
0.1 0.0860457 0 0 0.0860457 0 0.1 0.087003 0 0
0.087003 0 0.1 0.0879704 0 0 0.0879704 0 0.1 0.0889478
0 0 0.0889478 0 0.1 0.0899354 0 0 0.0899354 0
0.1 0.0909333 0 0 0.0909333 0 0.1 0.0919416 0 0
0.0919416 0 0.1 0.0929605 0 0 0.0929605 0 0.1 0.0939899
0 0 0.0939899 0 0.1 0.0950302 0 0 0.0950302 0
0.1 0.0960812 0 0 0.0960812 0 0.1 0.0971432 0 0
0.0971432 0 0.1 0.0982163 0 0 0.0982163 0 0.1 0.0993006
0 0 0.0993006 0 0.1 0.100396 0 0 0.100396 0
0.1 0.101503 0 0 0.101503 0 0.1 0.102622 0 0
0.102622 0 0.1 0.103752 0 0 0.103752 0 0.1 0.104894
0 0 0.104894 0 0.1 0.106048 0 0 0.106048 0
0.1 0.107214 0 0 0.107214 0 0.1 0.108392 0 0
0.108392 0 0.1 0.109582 0 0 0.109582 0 0.1 0.110785
0 0 0.110785 0 0.1 0.112001 0 0 0.112001 0
0.1 0.113229 0 0 0.113229 0 0.1 0.114469 0 0
0.114469 0 0.1 0.115723 0 0 0.115723 0 0.1 0.11699
0 0 0.11699 0 0.1 0.11827 0 0 0.11827 0
0.1 0.119564 0 0 0.119564 0 0.1 0.12087 0 0
0.12087 0 0.1 0.122191 0 0 0.122191 0 0.1 0.123525
0 0 0.123525 0 0.1 0.124873 0 0 0.124873 0
0.1 0.126236 0 0 0.126236 0 0.1 0.127612 0 0
0.127612 0 0.1 0.129003 0 0 0.129003 0 0.1 0.130408
0 0 0.130408 0 0.1 0.131828 0 0 0.131828 0
0.1 0.133263 0 0 0.133263 0 0.1 0.134713 0 0
0.134713 0 0.1 0.136178 0 0 0.136178 0 0.1 0.137658
0 0 0.137658 0 0.1 0.139154 0 0 0.139154 0
0.1 0.140665 0 0 0.140665 0 0.1 0.142192 0 0
0.142192 0 0.1 0.143735 0 0 0.143735 0 0.1 0.145294
0 0 0.145294 0 0.1 0.146869 0 0 0.146869 0
0.1 0.148461 0 0 0.148461 0 0.1 0.150069 0 0
0.150069 0 0.1 0.151694 0 0 0.151694 0 0.1 0.153336
0 0 0.153336 0 0.1 0.154995 0 0 0.154995 0
0.1 0.156672 0 0 0.156672 0 0.1 0.158366 0 0
0.158366 0 0.1 0.160077 0 0 0.160077 0 0.1 0.161807
0 0 0.161807 0 0.1 0.163554 0 0 0.163554 0
0.1 0.16532 0 0 0.16532 0 0.1 0.167104 0 0
0.167104 0 0.1 0.168907 0 0 0.168907 0 0.1 0.170728
0 0 0.170728 0 0.1 0.172569 0 0 0.172569 0
0.1 0.174428 0 0 0.174428 0 0.1 0.176307 0 0
0.176307 0 0.1 0.178206 0 0 0.178206 0 0.1 0.180124
0 0 0.180124 0 0.1 0.182063 0 0 0.182063 0
0.1 0.184022 0 0 0.184022 0 0.1 0.186001 0 0
0.186001 0 0.1 0.188001 0 0 0.188001 0 0.1 0.190021
0 0 0.190021 0 0.1 0.192063 0 0 0.192063 0
0.1 0.194126 0 0 0.194126 0 0.1 0.19621 0 0
0.19621 0 0.1 0.198317 0 0 0.198317 0 0.1 0.200445
0 0 0.200445 0 0.1 0.202595 0 0 0.202595 0
0.1 0.204768 0 0 0.204768 0 0.1 0.206964 0 0
0.206964 0 0.1 0.209182 0 0 0.209182 0 0.1 0.211424
0 0 0.211424 0 0.1 0.213689 0 0 0.213689 0
0.1 0.215977 0 0 0.215977 0 0.1 0.21829 0 0
0.21829 0 0.1 0.220626 0 0 0.220626 0 0.1 0.222987
0 0 0.222987 0 0.1 0.225372 0 0 0.225372 0
0.1 0.227783 0 0 0.227783 0 0.1 0.230218 0 0
0.230218 0 0.1 0.232679 0 0 0.232679 0 0.1 0.235166
0 0 0.235166 0 0.1 0.237678 0 0 0.237678 0
0.1 0.240217 0 0 0.240217 0 0.1 0.242782 0 0
0.242782 0 0.1 0.245374 0 0 0.245374 0 0.1 0.247993
0 0 0.247993 0 0.1 0.25064 0 0 0.25064 0
0.1 0.253313 0 0 0.253313 0 0.1 0.256015 0 0
0.256015 0 0.1 0.258745 0 0 0.258745 0 0.1 0.261504
0 0 0.261504 0 0.1 0.264291 0 0 0.264291 0
0.1 0.267107 0 0 0.267107 0 0.1 0.269953 0 0
0.269953 0 0.1 0.272828 0 0 0.272828 0 0.1 0.275733
0 0 0.275733 0 0.1 0.278669 0 0 0.278669 0
0.1 0.281635 0 0 0.281635 0 0.1 0.284632 0 0
0.284632 0 0.1 0.287661 0 0 0.287661 0 0.1 0.290721
0 0 0.290721 0 0.1 0.293813 0 0 0.293813 0
0.1 0.296937 0 0 0.296937 0 0.1 0.300093 0 0
0.300093 0 0.1 0.303283 0 0 0.303283 0 0.1 0.306506
0 0 0.306506 0 0.1 0.309763 0 0 0.309763 0
0.1 0.313053 0 0 0.313053 0 0.1 0.316378 0 0
0.316378 0 0.1 0.319737 0 0 0.319737 0 0.1 0.323132
0 0 0.323132 0 0.1 0.326562 0 0 0.326562 0
0.1 0.330027 0 0 0.330027 0 0.1 0.333529 0 0
0.333529 0 0.1 0.337068 0 0 0.337068 0 0.1 0.340643
0 0 0.340643 0 0.1 0.344255 0 0 0.344255 0
0.1 0.347906 0 0 0.347906 0 0.1 0.351594 0 0
0.351594 0 0.1 0.355321 0 0 0.355321 0 0.1 0.359086
0 0 0.359086 0 0.1 0.362891 0 0 0.362891 0
0.1 0.366736 0 0 0.366736 0 0.1 0.37062 0 0
0.37062 0 0.1 0.374546 0 0 0.374546 0 0.1 0.378512
0 0 0.378512 0 0.1 0.382519 0 0 0.382519 0
0.1 0.386568 0 0 0.386568 0 0.1 0.39066 0 0
0.39066 0 0.1 0.394794 0 0 0.394794 0 0.1 0.398971
0 0 0.398971 0 0.1 0.403192 0 0 0.403192 0
0.1 0.407457 0 0 0.407457 0 0.1 0.411766 0 0
0.411766 0 0.1 0.416121 0 0 0.416121 0 0.1 0.42052
0 0 0.42052 0 0.1 0.424966 0 0 0.424966 0
0.1 0.429458 0 0 0.429458 0 0.1 0.433997 0 0
0.433997 0 0.1 0.438583 0 0 0.438583 0 0.1 0.443217
0 0 0.443217 0 0.1 0.447899 0 0 0.447899 0
0.1 0.45263 0 0 0.45263 0 0.1 0.457411 0 0
0.457411 0 0.1 0.462241 0 0 0.462241 0 0.1 0.467122
0 0 0.467122 0 0.1 0.472053 0 0 0.472053 0
0.1 0.477036 0 0 0.477036 0 0.1 0.482071 0 0
0.482071 0 0.1 0.487159 0 0 0.487159 0 0.1 0.492299
0 0 0.492299 0 0.1 0.497493 0 0 0.497493 0
0.1 0.502742 0 0 0.502742 0 0.1 0.508045 0 0
0.508045 0 0.1 0.513403 0 0 0.513403 0 0.1 0.518817
0 0 0.518817 0 0.1 0.524288 0 0 0.524288 0
0.1 0.529816 0 0 0.529816 0 0.1 0.535401 0 0
0.535401 0 0.1 0.541045 0 0 0.541045 0 0.1 0.546748
0 0 0.546748 0 0.1 0.55251 0 0 0.55251 0
0.1 0.558332 0 0 0.558332 0 0.1 0.564215 0 0
0.564215 0 0.1 0.570159 0 0 0.570159 0 0.1 0.576165
0 0 0.576165 0 0.1 0.582234 0 0 0.582234 0
0.1 0.588366 0 0 0.588366 0 0.1 0.594562 0 0
0.594562 0 0.1 0.600822 0 0 0.600822 0 0.1 0.607148
0 0 0.607148 0 0.1 0.61354 0 0 0.61354 0
0.1 0.619999 0 0 0.619999 0 0.1 0.626525 0 0
0.626525 0 0.1 0.633119 0 0 0.633119 0 0.1 0.639782
0 0 0.639782 0 0.1 0.646514 0 0 0.646514 0
0.1 0.653316 0 0 0.653316 0 0.1 0.66019 0 0
0.66019 0 0.1 0.667135 0 0 0.667135 0 0.1 0.674152
0 0 0.674152 0 0.1 0.681243 0 0 0.681243 0
0.1 0.688408 0 0 0.688408 0 0.1 0.695647 0 0
0.695647 0 0.1 0.702962 0 0 0.702962 0 0.1 0.710353
0 0 0.710353 0 0.1 0.717821 0 0 0.717821 0
0.1 0.725367 0 0 0.725367 0 0.1 0.732992 0 0
0.732992 0 0.1 0.740697 0 0 0.740697 0 0.1 0.748481
0 0 0.748481 0 0.1 0.756347 0 0 0.756347 0
0.1 0.764295 0 0 0.764295 0 0.1 0.772326 0 0
0.772326 0 0.1 0.78044 0 0 0.78044 0 0.1 0.78864
0 0 0.78864 0 0.1 0.796924 0 0 0.796924 0
0.1 0.805295 0 0 0.805295 0 0.1 0.813754 0 0
0.813754 0 0.1 0.8223 0 0 0.8223 0 0.1 0.830936
0 0 0.830936 0 0.1 0.839662 0 0 0.839662 0
0.1 0.848479 0 0 0.848479 0 0.1 0.857387 0 0
0.857387 0 0.1 0.866389 0 0 0.866389 0 0.1 0.875485
0 0 0.875485 0 0.1 0.884675 0 0 0.884675 0
0.1 0.893961 0 0 0.893961 0 0.1 0.903344 0 0
0.903344 0 0.1 0.912825 0 0 0.912825 0 0.1 0.922405
0 0 0.922405 0 0.1 0.932085 0 0 0.932085 0
0.1 0.941865 0 0 0.941865 0 0.1 0.951748 0 0
0.951748 0 0.1 0.961734 0 0 0.961734 0 0.1 0.971824
0 0 0.971824 0 0.1 0.982019 0 0 0.982019 0
0.1 0.99232 0 0 0.99232 0 0.1 1.00273 0 0
1.00273 0 0.1 1.01325 0 0 1.01325 0 0.1 1.02387
0 0 1.02387 0 0.1 1.03461 0 0 1.03461 0
0.1 1.04546 0 0 1.04546 0 0.1 1.05642 0 0
1.05642 0 0.1 1.0675 0 0 1.0675 0 0.1 1.07869
0 0 1.07869 0 0.1 1.09 0 0 1.09 0
0.1 1.10143 0 0 1.10143 0 0.1 1.11298 0 0
1.11298 0 0.1 1.12465 0 0 1.12465 0 0.1 1.13644
0 0 1.13644 0 0.1 1.14835 0 0 1.14835 0
0.1 1.16038 0 0 1.16038 0 0.1 1.17254 0 0
1.17254 0 0.1 1.18483 0 0 1.18483 0 0.1 1.19725
0 0 1.19725 0 0.1 1.2098 0 0 1.2098 0
0.1 1.22247 0 0 1.22247 0 0.1 1.23528 0 0
1.23528 0 0.1 1.24822 0 0 1.24822 0 0.1 1.2613
0 0 1.2613 0 0.1 1.27452 0 0 1.27452 0
0.1 1.28787 0 0 1.28787 0 0.1 1.30136 0 0
1.30136 0 0.1 1.31499 0 0 1.31499 0 0.1 1.32877
0 0 1.32877 0 0.1 1.34268 0 0 1.34268 0
0.1 1.35675 0 0 1.35675 0 0.1 1.37095 0 0
1.37095 0 0.1 1.38531 0 0 1.38531 0 0.1 1.39982
0 0 1.39982 0 0.1 1.41448 0 0 1.41448 0
0.1 1.42929 0 0 1.42929 0 0.1 1.44426 0 0
1.44426 0 0.1 1.45938 0 0 1.45938 0 0.1 1.47466
0 0 1.47466 0 0.1 1.4901 0 0 1.4901 0
0.1 1.5057 0 0 1.5057 0 0.1 1.52146 0 0
1.52146 0 0.1 1.53739 0 0 1.53739 0 0.1 1.55348
0 0 1.55348 0 0.1 1.56974 0 0 1.56974 0
0.1 1.58617 0 0 1.58617 0 0.1 1.60278 0 0
1.60278 0 0.1 1.61955 0 0 1.61955 0 0.1 1.6365
0 0 1.6365 0 0.1 1.65363 0 0 1.65363 0
0.1 1.67093 0 0 1.67093 0 0.1 1.68842 0 0
1.68842 0 0.1 1.70609 0 0 1.70609 0 0.1 1.72394
0 0 1.72394 0 0.1 1.74198 0 0 1.74198 0
0.1 1.76021 0 0 1.76021 0 0.1 1.77862 0 0
1.77862 0 0.1 1.79723 0 0 1.79723 0 0.1 1.81604
0 0 1.81604 0 0.1 1.83504 0 0 1.83504 0
0.1 1.85423 0 0 1.85423 0 0.1 1.87363 0 0
1.87363 0 0.1 1.89323 0 0 1.89323 0 0.1 1.91304
0 0 1.91304 0 0.1 1.93305 0 0 1.93305 0
0.1 1.95327 0 0 1.95327 0 0.1 1.9737 0 0
1.9737 0 0.1 1.99434 0 0 1.99434 0 0.1 2.0152
0 0 2.0152 0 0.1 2.03628 0 0 2.03628 0
0.1 2.05757 0 0 2.05757 0 0.1 2.07909 0 0
2.07909 0 0.1 2.10083 0 0 2.10083 0 0.1 2.1228
0 0 2.1228 0 0.1 2.145 0 0 2.145 0
0.1 2.16743 0 0 2.16743 0 0.1 2.1901 0 0
2.1901 0 0.1 2.213 0 0 2.213 0 0.1 2.23614
0 0 2.23614 0 0.1 2.25952 0 0 2.25952 0
0.1 2.28314 0 0 2.28314 0 0.1 2.30701 0 0
2.30701 0 0.1 2.33113 0 0 2.33113 0 0.1 2.3555
0 0 2.3555 0 0.1 2.38013 0 0 2.38013 0
0.1 2.40501 0 0 2.40501 0 0.1 2.43015 0 0
2.43015 0 0.1 2.45556 0 0 2.45556 0 0.1 2.48122
0 0 2.48122 0 0.1 2.50716 0 0 2.50716 0
0.1 2.53337 0 0 2.53337 0 0.1 2.55985 0 0
2.55985 0 0.1 2.58661 0 0 2.58661 0 0.1 2.61364
0 0 2.61364 0 0.1 2.64096 0 0 2.64096 0
0.1 2.66856 0 0 2.66856 0 0.1 2.69645 0 0
2.69645 0 0.1 2.72463 0 0 2.72463 0 0.1 2.75311
0 0 2.75311 0 0.1 2.78188 0 0 2.78188 0
0.1 2.81095 0 0 2.81095 0 0.1 2.84033 0 0
2.84033 0 0.1 2.87001 0 0 2.87001 0 0.1 2.9
0 0 2.9 0 0.1 
POLYGONS 600 3000
4 0 1 2 3 4 1 4 5 2 4
4 6 7 5 4 6 8 9 7 4
8 10 11 9 4 10 12 13 11 4
12 14 15 13 4 14 16 17 15 4
16 18 19 17 4 18 20 21 19 4
20 22 23 21 4 22 24 25 23 4
24 26 27 25 4 26 28 29 27 4
28 30 31 29 4 30 32 33 31 4
32 34 35 33 4 34 36 37 35 4
36 38 39 37 4 38 40 41 39 4
40 42 43 41 4 42 44 45 43 4
44 46 47 45 4 46 48 49 47 4
48 50 51 49 4 50 52 53 51 4
52 54 55 53 4 54 56 57 55 4
56 58 59 57 4 58 60 61 59 4
60 62 63 61 4 62 64 65 63 4
64 66 67 65 4 66 68 69 67 4
68 70 71 69 4 70 72 73 71 4
72 74 75 73 4 74 76 77 75 4
76 78 79 77 4 78 80 81 79 4
80 82 83 81 4 82 84 85 83 4
84 86 87 85 4 86 88 89 87 4
88 90 91 89 4 90 92 93 91 4
92 94 95 93 4 94 96 97 95 4
96 98 99 97 4 98 100 101 99 4
100 102 103 101 4 102 104 105 103 4
104 106 107 105 4 106 108 109 107 4
108 110 111 109 4 110 112 113 111 4
112 114 115 113 4 114 116 117 115 4
116 118 119 117 4 118 120 121 119 4
120 122 123 121 4 122 124 125 123 4
124 126 127 125 4 126 128 129 127 4
128 130 131 129 4 130 132 133 131 4
132 134 135 133 4 134 136 137 135 4
136 138 139 137 4 138 140 141 139 4
140 142 143 141 4 142 144 145 143 4
144 146 147 145 4 146 148 149 147 4
148 150 151 149 4 150 152 153 151 4
152 154 155 153 4 154 156 157 155 4
156 158 159 157 4 158 160 161 159 4
160 162 163 161 4 162 164 165 163 4
164 166 167 165 4 166 168 169 167 4
168 170 171 169 4 170 172 173 171 4
172 174 175 173 4 174 176 177 175 4
176 178 179 177 4 178 180 181 179 4
180 182 183 181 4 182 184 185 183 4
184 186 187 185 4 186 188 189 187 4
188 190 191 189 4 190 192 193 191 4
192 194 195 193 4 194 196 197 195 4
196 198 199 197 4 198 200 201 199 4
200 202 203 201 4 202 204 205 203 4
204 206 207 205 4 206 208 209 207 4
208 210 211 209 4 210 212 213 211 4
212 214 215 213 4 214 216 217 215 4
216 218 219 217 4 218 220 221 219 4
220 222 223 221 4 222 224 225 223 4
224 226 227 225 4 226 228 229 227 4
228 230 231 229 4 230 232 233 231 4
232 234 235 233 4 234 236 237 235 4
236 238 239 237 4 238 240 241 239 4
240 242 243 241 4 242 244 245 243 4
244 246 247 245 4 246 248 249 247 4
248 250 251 249 4 250 252 253 251 4
252 254 255 253 4 254 256 257 255 4
256 258 259 257 4 258 260 261 259 4
260 262 263 261 4 262 264 265 263 4
264 266 267 265 4 266 268 269 267 4
268 270 271 269 4 270 272 273 271 4
272 274 275 273 4 274 276 277 275 4
276 278 279 277 4 278 280 281 279 4
280 282 283 281 4 282 284 285 283 4
284 286 287 285 4 286 288 289 287 4
288 290 291 289 4 290 292 293 291 4
292 294 295 293 4 294 296 297 295 4
296 298 299 297 4 298 300 301 299 4
300 302 303 301 4 302 304 305 303 4
304 306 307 305 4 306 308 309 307 4
308 310 311 309 4 310 312 313 311 4
312 314 315 313 4 314 316 317 315 4
316 318 319 317 4 318 320 321 319 4
320 322 323 321 4 322 324 325 323 4
324 326 327 325 4 326 328 329 327 4
328 330 331 329 4 330 332 333 331 4
332 334 335 333 4 334 336 337 335 4
336 338 339 337 4 338 340 341 339 4
340 342 343 341 4 342 344 345 343 4
344 346 347 345 4 346 348 349 347 4
348 350 351 349 4 350 352 353 351 4
352 354 355 353 4 354 356 357 355 4
356 358 359 357 4 358 360 361 359 4
360 362 363 361 4 362 364 365 363 4
364 366 367 365 4 366 368 369 367 4
368 370 371 369 4 370 372 373 371 4
372 374 375 373 4 374 376 377 375 4
376 378 379 377 4 378 380 381 379 4
380 382 383 381 4 382 384 385 383 4
384 386 387 385 4 386 388 389 387 4
388 390 391 389 4 390 392 393 391 4
392 394 395 393 4 394 396 397 395 4
396 398 399 397 4 398 400 401 399 4
400 402 403 401 4 402 404 405 403 4
404 406 407 405 4 406 408 409 407 4
408 410 411 409 4 410 412 413 411 4
412 414 415 413 4 414 416 417 415 4
416 418 419 417 4 418 420 421 419 4
420 422 423 421 4 422 424 425 423 4
424 426 427 425 4 426 428 429 427 4
428 430 431 429 4 430 432 433 431 4
432 434 435 433 4 434 436 437 435 4
436 438 439 437 4 438 440 441 439 4
440 442 443 441 4 442 444 445 443 4
444 446 447 445 4 446 448 449 447 4
448 450 451 449 4 450 452 453 451 4
452 454 455 453 4 454 456 457 455 4
456 458 459 457 4 458 460 461 459 4
460 462 463 461 4 462 464 465 463 4
464 466 467 465 4 466 468 469 467 4
468 470 471 469 4 470 472 473 471 4
472 474 475 473 4 474 476 477 475 4
476 478 479 477 4 478 480 481 479 4
480 482 483 481 4 482 484 485 483 4
484 486 487 485 4 486 488 489 487 4
488 490 491 489 4 490 492 493 491 4
492 494 495 493 4 494 496 497 495 4
496 498 499 497 4 498 500 501 499 4
500 502 503 501 4 502 504 505 503 4
504 506 507 505 4 506 508 509 507 4
508 510 511 509 4 510 512 513 511 4
512 514 515 513 4 514 516 517 515 4
516 518 519 517 4 518 520 521 519 4
520 522 523 521 4 522 524 525 523 4
524 526 527 525 4 526 528 529 527 4
528 530 531 529 4 530 532 533 531 4
532 534 535 533 4 534 536 537 535 4
536 538 539 537 4 538 540 541 539 4
540 542 543 541 4 542 544 545 543 4
544 546 547 545 4 546 548 549 547 4
548 550 551 549 4 550 552 553 551 4
552 554 555 553 4 554 556 557 555 4
556 558 559 557 4 558 560 561 559 4
560 562 563 561 4 562 564 565 563 4
564 566 567 565 4 566 568 569 567 4
568 570 571 569 4 570 572 573 571 4
572 574 575 573 4 574 576 577 575 4
576 578 579 577 4 578 580 581 579 4
580 582 583 581 4 582 584 585 583 4
584 586 587 585 4 586 588 589 587 4
588 590 591 589 4 590 592 593 591 4
592 594 595 593 4 594 596 597 595 4
596 598 599 597 4 598 600 601 599 4
600 602 603 601 4 602 604 605 603 4
604 606 607 605 4 606 608 609 607 4
608 610 611 609 4 610 612 613 611 4
612 614 615 613 4 614 616 617 615 4
616 618 619 617 4 618 620 621 619 4
620 622 623 621 4 622 624 625 623 4
624 626 627 625 4 626 628 629 627 4
628 630 631 629 4 630 632 633 631 4
632 634 635 633 4 634 636 637 635 4
636 638 639 637 4 638 640 641 639 4
640 642 643 641 4 642 644 645 643 4
644 646 647 645 4 646 648 649 647 4
648 650 651 649 4 650 652 653 651 4
652 654 655 653 4 654 656 657 655 4
656 658 659 657 4 658 660 661 659 4
660 662 663 661 4 662 664 665 663 4
664 666 667 665 4 666 668 669 667 4
668 670 671 669 4 670 672 673 671 4
672 674 675 673 4 674 676 677 675 4
676 678 679 677 4 678 680 681 679 4
680 682 683 681 4 682 684 685 683 4
684 686 687 685 4 686 688 689 687 4
688 690 691 689 4 690 692 693 691 4
692 694 695 693 4 694 696 697 695 4
696 698 699 697 4 698 700 701 699 4
700 702 703 701 4 702 704 705 703 4
704 706 707 705 4 706 708 709 707 4
708 710 711 709 4 710 712 713 711 4
712 714 715 713 4 714 716 717 715 4
716 718 719 717 4 718 720 721 719 4
720 722 723 721 4 722 724 725 723 4
724 726 727 725 4 726 728 729 727 4
728 730 731 729 4 730 732 733 731 4
732 734 735 733 4 734 736 737 735 4
736 738 739 737 4 738 740 741 739 4
740 742 743 741 4 742 744 745 743 4
744 746 747 745 4 746 748 749 747 4
748 750 751 749 4 750 752 753 751 4
752 754 755 753 4 754 756 757 755 4
756 758 759 757 4 758 760 761 759 4
760 762 763 761 4 762 764 765 763 4
764 766 767 765 4 766 768 769 767 4
768 770 771 769 4 770 772 773 771 4
772 774 775 773 4 774 776 777 775 4
776 778 779 777 4 778 780 781 779 4
780 782 783 781 4 782 784 785 783 4
784 786 787 785 4 786 788 789 787 4
788 790 791 789 4 790 792 793 791 4
792 794 795 793 4 794 796 797 795 4
796 798 799 797 4 798 800 801 799 4
800 802 803 801 4 802 804 805 803 4
804 806 807 805 4 806 808 809 807 4
808 810 811 809 4 810 812 813 811 4
812 814 815 813 4 814 816 817 815 4
816 818 819 817 4 818 820 821 819 4
820 822 823 821 4 822 824 825 823 4
824 826 827 825 4 826 828 829 827 4
828 830 831 829 4 830 832 833 831 4
832 834 835 833 4 834 836 837 835 4
836 838 839 837 4 838 840 841 839 4
840 842 843 841 4 842 844 845 843 4
844 846 847 845 4 846 848 849 847 4
848 850 851 849 4 850 852 853 851 4
852 854 855 853 4 854 856 857 855 4
856 858 859 857 4 858 860 861 859 4
860 862 863 861 4 862 864 865 863 4
864 866 867 865 4 866 868 869 867 4
868 870 871 869 4 870 872 873 871 4
872 874 875 873 4 874 876 877 875 4
876 878 879 877 4 878 880 881 879 4
880 882 883 881 4 882 884 885 883 4
884 886 887 885 4 886 888 889 887 4
888 890 891 889 4 890 892 893 891 4
892 894 895 893 4 894 896 897 895 4
896 898 899 897 4 898 900 901 899 4
900 902 903 901 4 902 904 905 903 4
904 906 907 905 4 906 908 909 907 4
908 910 911 909 4 910 912 913 911 4
912 914 915 913 4 914 916 917 915 4
916 918 919 917 4 918 920 921 919 4
920 922 923 921 4 922 924 925 923 4
924 926 927 925 4 926 928 929 927 4
928 930 931 929 4 930 932 933 931 4
932 934 935 933 4 934 936 937 935 4
936 938 939 937 4 938 940 941 939 4
940 942 943 941 4 942 944 945 943 4
944 946 947 945 4 946 948 949 947 4
948 950 951 949 4 950 952 953 951 4
952 954 955 953 4 954 956 957 955 4
956 958 959 957 4 958 960 961 959 4
960 962 963 961 4 962 964 965 963 4
964 966 967 965 4 966 968 969 967 4
968 970 971 969 4 970 972 973 971 4
972 974 975 973 4 974 976 977 975 4
976 978 979 977 4 978 980 981 979 4
980 982 983 981 4 982 984 985 983 4
984 986 987 985 4 986 988 989 987 4
988 990 991 989 4 990 992 993 991 4
992 994 995 993 4 994 996 997 995 4
996 998 999 997 4 998 1000 1001 999 4
1000 1002 1003 1001 4 1002 1004 1005 1003 4
1004 1006 1007 1005 4 1006 1008 1009 1007 4
1008 1010 1011 1009 4 1010 1012 1013 1011 4
1012 1014 1015 1013 4 1014 1016 1017 1015 4
1016 1018 1019 1017 4 1018 1020 1021 1019 4
1020 1022 1023 1021 4 1022 1024 1025 1023 4
1024 1026 1027 1025 4 1026 1028 1029 1027 4
1028 1030 1031 1029 4 1030 1032 1033 1031 4
1032 1034 1035 1033 4 1034 1036 1037 1035 4
1036 1038 1039 1037 4 1038 1040 1041 1039 4
1040 1042 1043 1041 4 1042 1044 1045 1043 4
1044 1046 1047 1045 4 1046 1048 1049 1047 4
1048 1050 1051 1049 4 1050 1052 1053 1051 4
1052 1054 1055 1053 4 1054 1056 1057 1055 4
1056 1058 1059 1057 4 1058 1060 1061 1059 4
1060 1062 1063 1061 4 1062 1064 1065 1063 4
1064 1066 1067 1065 4 1066 1068 1069 1067 4
1068 1070 1071 1069 4 1070 1072 1073 1071 4
1072 1074 1075 1073 4 1074 1076 1077 1075 4
1076 1078 1079 1077 4 1078 1080 1081 1079 4
1080 1082 1083 1081 4 1082 1084 1085 1083 4
1084 1086 1087 1085 4 1086 1088 1089 1087 4
1088 1090 1091 1089 4 1090 1092 1093 1091 4
1092 1094 1095 1093 4 1094 1096 1097 1095 4
1096 1098 1099 1097 4 1098 1100 1101 1099 4
1100 1102 1103 1101 4 1102 1104 1105 1103 4
1104 1106 1107 1105 4 1106 1108 1109 1107 4
1108 1110 1111 1109 4 1110 1112 1113 1111 4
1112 1114 1115 1113 4 1114 1116 1117 1115 4
1116 1118 1119 1117 4 1118 1120 1121 1119 4
1120 1122 1123 1121 4 1122 1124 1125 1123 4
1124 1126 1127 1125 4 1126 1128 1129 1127 4
1128 1130 1131 1129 4 1130 1132 1133 1131 4
1132 1134 1135 1133 4 1134 1136 1137 1135 4
1136 1138 1139 1137 4 1138 1140 1141 1139 4
1140 1142 1143 1141 4 1142 1144 1145 1143 4
1144 1146 1147 1145 4 1146 1148 1149 1147 4
1148 1150 1151 1149 4 1150 1152 1153 1151 4
1152 1154 1155 1153 4 1154 1156 1157 1155 4
1156 1158 1159 1157 4 1158 1160 1161 1159 4
1160 1162 1163 1161 4 1162 1164 1165 1163 4
1164 1166 1167 1165 4 1166 1168 1169 1167 4
1168 1170 1171 1169 4 1170 1172 1173 1171 4
1172 1174 1175 1173 4 1174 1176 1177 1175 4
1176 1178 1179 1177 4 1178 1180 1181 1179 4
1180 1182 1183 1181 4 1182 1184 1185 1183 4
1184 1186 1187 1185 4 1186 1188 1189 1187 4
1188 1190 1191 1189 4 1190 1192 1193 1191 4
1192 1194 1195 1193 4 1194 1196 1197 1195 4
1196 1198 1199 1197 4 1198 1200 1201 1199 
POINT_DATA 1202
FIELD attributes 1
U 3 1202 float
1.54633 0.0341547 0 0.86996 0.0236436 0 0.86996 0.0236436 0 1.54633 0.0341547
0 0.166339 0.00856606 0 0.166339 0.00856606 0 0.122372 0.00258696 0
0.122372 0.00258696 0 0.0963838 0.000773345 0 0.0963838 0.000773345 0 0.0818386
0.000279209 0 0.0818386 0.000279209 0 0.0730744 0.000175097 0 0.0730744 0.000175097
0 0.0669324 0.00015798 0 0.0669324 0.00015798 0 0.0621559 0.000141711 0
0.0621559 0.000141711 0 0.0582725 0.000120794 0 0.0582725 0.000120794 0 0.0550479
0.000100916 0 0.0550479 0.000100916 0 0.0523159 8.58868e-05 0 0.0523159 8.58868e-05
0 0.0499515 7.5627e-05 0 0.0499515 7.5627e-05 0 0.0478662 6.77254e-05 0
0.0478662 6.77254e-05 0 0.0460022 6.11539e-05 0 0.0460022 6.11539e-05 0 0.0443203
5.5526e-05 0 0.0443203 5.5526e-05 0 0.0427918 5.06247e-05 0 0.0427918 5.06247e-05
0 0.0413945 4.63099e-05 0 0.0413945 4.63099e-05 0 0.0401112 4.24878e-05 0
0.0401112 4.24878e-05 0 0.0389275 3.90884e-05 0 0.0389275 3.90884e-05 0 0.0378316
3.60557e-05 0 0.0378316 3.60557e-05 0 0.0368135 3.33431e-05 0 0.0368135 3.33431e-05
0 0.0358648 3.0911e-05 0 0.0358648 3.0911e-05 0 0.0349781 2.87252e-05 0
0.0349781 2.87252e-05 0 0.034147 2.67563e-05 0 0.034147 2.67563e-05 0 0.0333661
2.49783e-05 0 0.0333661 2.49783e-05 0 0.0326304 2.3369e-05 0 0.0326304 2.3369e-05
0 0.0319359 2.19085e-05 0 0.0319359 2.19085e-05 0 0.0312786 2.058e-05 0
0.0312786 2.058e-05 0 0.0306555 1.93682e-05 0 0.0306555 1.93682e-05 0 0.0300635
1.82605e-05 0 0.0300635 1.82605e-05 0 0.0295001 1.72454e-05 0 0.0295001 1.72454e-05
0 0.0289629 1.63128e-05 0 0.0289629 1.63128e-05 0 0.02845 1.54554e-05 0
0.02845 1.54554e-05 0 0.0279595 1.46626e-05 0 0.0279595 1.46626e-05 0 0.0274895
1.39374e-05 0 0.0274895 1.39374e-05 0 0.0270389 1.32567e-05 0 0.0270389 1.32567e-05
0 0.0266057 1.26526e-05 0 0.0266057 1.26526e-05 0 0.0261889 1.2049e-05 0
0.0261889 1.2049e-05 0 0.0257887 1.13193e-05 0 0.0257887 1.13193e-05 0 0.025404
1.07019e-05 0 0.025404 1.07019e-05 0 0.025032 1.03203e-05 0 0.025032 1.03203e-05
0 0.0246702 1.00054e-05 0 0.0246702 1.00054e-05 0 0.024318 9.68242e-06 0
0.024318 9.68242e-06 0 0.0239755 9.34821e-06 0 0.0239755 9.34821e-06 0 0.0236427
9.00858e-06 0 0.0236427 9.00858e-06 0 0.0233196 8.66996e-06 0 0.0233196 8.66996e-06
0 0.023006 8.33748e-06 0 0.023006 8.33748e-06 0 0.0227018 8.0145e-06 0
0.0227018 8.0145e-06 0 0.0224066 7.70299e-06 0 0.0224066 7.70299e-06 0 0.0221201
7.40401e-06 0 0.0221201 7.40401e-06 0 0.021842 7.11801e-06 0 0.021842 7.11801e-06
0 0.0215719 6.84503e-06 0 0.0215719 6.84503e-06 0 0.0213096 6.58485e-06 0
0.0213096 6.58485e-06 0 0.0210546 6.33711e-06 0 0.0210546 6.33711e-06 0 0.0208068
6.10132e-06 0 0.0208068 6.10132e-06 0 0.0205657 5.87698e-06 0 0.0205657 5.87698e-06
0 0.020331 5.6635e-06 0 0.020331 5.6635e-06 0 0.0201026 5.46036e-06 0
0.0201026 5.46036e-06 0 0.01988 5.26697e-06 0 0.01988 5.26697e-06 0 0.0196632
5.08283e-06 0 0.0196632 5.08283e-06 0 0.0194517 4.90738e-06 0 0.0194517 4.90738e-06
0 0.0192455 4.74017e-06 0 0.0192455 4.74017e-06 0 0.0190442 4.58067e-06 0
0.0190442 4.58067e-06 0 0.0188477 4.42852e-06 0 0.0188477 4.42852e-06 0 0.0186557
4.28321e-06 0 0.0186557 4.28321e-06 0 0.0184682 4.14447e-06 0 0.0184682 4.14447e-06
0 0.0182848 4.01178e-06 0 0.0182848 4.01178e-06 0 0.0181056 3.885e-06 0
0.0181056 3.885e-06 0 0.0179302 3.76357e-06 0 0.0179302 3.76357e-06 0 0.0177585
3.6475e-06 0 0.0177585 3.6475e-06 0 0.0175904 3.53618e-06 0 0.0175904 3.53618e-06
0 0.0174258 3.42973e-06 0 0.0174258 3.42973e-06 0 0.0172645 3.32772e-06 0
0.0172645 3.32772e-06 0 0.0171065 3.22978e-06 0 0.0171065 3.22978e-06 0 0.0169514
3.13767e-06 0 0.0169514 3.13767e-06 0 0.0167994 3.0461e-06 0 0.0167994 3.0461e-06
0 0.01665 2.96999e-06 0 0.01665 2.96999e-06 0 0.0165034 2.87522e-06 0
0.0165034 2.87522e-06 0 0.0163602 2.74731e-06 0 0.0163602 2.74731e-06 0 0.0162197
2.67269e-06 0 0.0162197 2.67269e-06 0 0.0160806 2.64356e-06 0 0.0160806 2.64356e-06
0 0.0159425 2.60486e-06 0 0.0159425 2.60486e-06 0 0.0158058 2.55681e-06 0
0.0158058 2.55681e-06 0 0.0156707 2.50164e-06 0 0.0156707 2.50164e-06 0 0.0155375
2.44222e-06 0 0.0155375 2.44222e-06 0 0.0154063 2.38079e-06 0 0.0154063 2.38079e-06
0 0.0152773 2.31879e-06 0 0.0152773 2.31879e-06 0 0.0151503 2.25714e-06 0
0.0151503 2.25714e-06 0 0.0150255 2.19642e-06 0 0.0150255 2.19642e-06 0 0.0149028
2.13697e-06 0 0.0149028 2.13697e-06 0 0.0147822 2.079e-06 0 0.0147822 2.079e-06
0 0.0146636 2.02266e-06 0 0.0146636 2.02266e-06 0 0.0145469 1.96798e-06 0
0.0145469 1.96798e-06 0 0.0144323 1.915e-06 0 0.0144323 1.915e-06 0 0.0143195
1.86371e-06 0 0.0143195 1.86371e-06 0 0.0142086 1.81408e-06 0 0.0142086 1.81408e-06
0 0.0140995 1.76608e-06 0 0.0140995 1.76608e-06 0 0.0139922 1.71967e-06 0
0.0139922 1.71967e-06 0 0.0138866 1.67479e-06 0 0.0138866 1.67479e-06 0 0.0137826
1.6314e-06 0 0.0137826 1.6314e-06 0 0.0136803 1.58943e-06 0 0.0136803 1.58943e-06
0 0.0135795 1.54886e-06 0 0.0135795 1.54886e-06 0 0.0134803 1.5096e-06 0
0.0134803 1.5096e-06 0 0.0133826 1.47163e-06 0 0.0133826 1.47163e-06 0 0.0132863
1.43487e-06 0 0.0132863 1.43487e-06 0 0.0131914 1.39932e-06 0 0.0131914 1.39932e-06
0 0.0130979 1.36488e-06 0 0.0130979 1.36488e-06 0 0.0130057 1.33157e-06 0
0.0130057 1.33157e-06 0 0.0129149 1.29925e-06 0 0.0129149 1.29925e-06 0 0.0128253
1.26803e-06 0 0.0128253 1.26803e-06 0 0.0127369 1.2377e-06 0 0.0127369 1.2377e-06
0 0.0126498 1.20842e-06 0 0.0126498 1.20842e-06 0 0.0125638 1.18e-06 0
0.0125638 1.18e-06 0 0.012479 1.15247e-06 0 0.012479 1.15247e-06 0 0.0123952
1.12628e-06 0 0.0123952 1.12628e-06 0 0.0123126 1.09983e-06 0 0.0123126 1.09983e-06
0 0.0122309 1.07851e-06 0 0.0122309 1.07851e-06 0 0.0121502 1.05179e-06 0
0.0121502 1.05179e-06 0 0.0120709 1.01384e-06 0 0.0120709 1.01384e-06 0 0.0119927
9.91799e-07 0 0.0119927 9.91799e-07 0 0.0119146 9.86689e-07 0 0.0119146 9.86689e-07
0 0.0118366 9.79683e-07 0 0.0118366 9.79683e-07 0 0.0117588 9.67556e-07 0
0.0117588 9.67556e-07 0 0.0116814 9.51676e-07 0 0.0116814 9.51676e-07 0 0.0116048
9.33524e-07 0 0.0116048 9.33524e-07 0 0.0115289 9.14174e-07 0 0.0115289 9.14174e-07
0 0.0114539 8.9429e-07 0 0.0114539 8.9429e-07 0 0.0113798 8.74277e-07 0
0.0113798 8.74277e-07 0 0.0113066 8.54381e-07 0 0.0113066 8.54381e-07 0 0.0112343
8.34755e-07 0 0.0112343 8.34755e-07 0 0.011163 8.15491e-07 0 0.011163 8.15491e-07
0 0.0110925 7.96645e-07 0 0.0110925 7.96645e-07 0 0.011023 7.78248e-07 0
0.011023 7.78248e-07 0 0.0109543 7.60319e-07 0 0.0109543 7.60319e-07 0 0.0108865
7.4286e-07 0 0.0108865 7.4286e-07 0 0.0108196 7.25875e-07 0 0.0108196 7.25875e-07
0 0.0107534 7.09354e-07 0 0.0107534 7.09354e-07 0 0.0106881 6.93293e-07 0
0.0106881 6.93293e-07 0 0.0106236 6.77678e-07 0 0.0106236 6.77678e-07 0 0.0105599
6.62501e-07 0 0.0105599 6.62501e-07 0 0.010497 6.47743e-07 0 0.010497 6.47743e-07
0 0.0104348 6.33401e-07 0 0.0104348 6.33401e-07 0 0.0103733 6.19451e-07 0
0.0103733 6.19451e-07 0 0.0103126 6.05896e-07 0 0.0103126 6.05896e-07 0 0.0102525
5.92704e-07 0 0.0102525 5.92704e-07 0 0.0101931 5.79887e-07 0 0.0101931 5.79887e-07
0 0.0101344 5.67404e-07 0 0.0101344 5.67404e-07 0 0.0100764 5.55285e-07 0
0.0100764 5.55285e-07 0 0.010019 5.43469e-07 0 0.010019 5.43469e-07 0 0.00996222
5.32014e-07 0 0.00996222 5.32014e-07 0 0.00990605 5.20844e-07 0 0.00990605 5.20844e-07
0 0.00985049 5.10011e-07 0 0.00985049 5.10011e-07 0 0.0097955 4.99587e-07 0
0.0097955 4.99587e-07 0 0.00974111 4.89172e-07 0 0.00974111 4.89172e-07 0 0.00968718
4.80591e-07 0 0.00968718 4.80591e-07 0 0.00963379 4.69706e-07 0 0.00963379 4.69706e-07
0 0.00958123 4.54776e-07 0 0.00958123 4.54776e-07 0 0.00952917 4.46682e-07 0
0.00952917 4.46682e-07 0 0.00947701 4.4625e-07 0 0.00947701 4.4625e-07 0 0.00942457
4.44897e-07 0 0.00942457 4.44897e-07 0 0.0093721 4.40474e-07 0 0.0093721 4.40474e-07
0 0.00931985 4.34042e-07 0 0.00931985 4.34042e-07 0 0.00926795 4.2643e-07 0
0.00926795 4.2643e-07 0 0.0092165 4.18226e-07 0 0.0092165 4.18226e-07 0 0.00916555
4.09756e-07 0 0.00916555 4.09756e-07 0 0.00911514 4.01214e-07 0 0.00911514 4.01214e-07
0 0.00906526 3.92713e-07 0 0.00906526 3.92713e-07 0 0.00901593 3.84321e-07 0
0.00901593 3.84321e-07 0 0.00896715 3.76075e-07 0 0.00896715 3.76075e-07 0 0.0089189
3.68001e-07 0 0.0089189 3.68001e-07 0 0.0088712 3.60111e-07 0 0.0088712 3.60111e-07
0 0.00882402 3.52413e-07 0 0.00882402 3.52413e-07 0 0.00877735 3.44906e-07 0
0.00877735 3.44906e-07 0 0.0087312 3.37593e-07 0 0.0087312 3.37593e-07 0 0.00868555
3.30467e-07 0 0.00868555 3.30467e-07 0 0.00864038 3.23531e-07 0 0.00864038 3.23531e-07
0 0.0085957 3.1677e-07 0 0.0085957 3.1677e-07 0 0.00855148 3.10193e-07 0
0.00855148 3.10193e-07 0 0.00850773 3.0378e-07 0 0.00850773 3.0378e-07 0 0.00846443
2.97544e-07 0 0.00846443 2.97544e-07 0 0.00842157 2.91457e-07 0 0.00842157 2.91457e-07
0 0.00837914 2.85545e-07 0 0.00837914 2.85545e-07 0 0.00833713 2.79762e-07 0
0.00833713 2.79762e-07 0 0.00829554 2.74159e-07 0 0.00829554 2.74159e-07 0 0.00825436
2.68662e-07 0 0.00825436 2.68662e-07 0 0.00821357 2.63361e-07 0 0.00821357 2.63361e-07
0 0.00817317 2.58137e-07 0 0.00817317 2.58137e-07 0 0.00813316 2.53136e-07 0
0.00813316 2.53136e-07 0 0.00809349 2.48229e-07 0 0.00809349 2.48229e-07 0 0.00805424
2.43449e-07 0 0.00805424 2.43449e-07 0 0.00801519 2.39666e-07 0 0.00801519 2.39666e-07
0 0.00797663 2.33057e-07 0 0.00797663 2.33057e-07 0 0.00793867 2.26454e-07 0
0.00793867 2.26454e-07 0 0.00790064 2.26259e-07 0 0.00790064 2.26259e-07 0 0.00786221
2.2738e-07 0 0.00786221 2.2738e-07 0 0.00782354 2.26018e-07 0 0.00782354 2.26018e-07
0 0.00778492 2.23287e-07 0 0.00778492 2.23287e-07 0 0.00774649 2.19667e-07 0
0.00774649 2.19667e-07 0 0.00770836 2.1565e-07 0 0.00770836 2.1565e-07 0 0.00767056
2.11438e-07 0 0.00767056 2.11438e-07 0 0.00763313 2.07169e-07 0 0.00763313 2.07169e-07
0 0.00759608 2.02909e-07 0 0.00759608 2.02909e-07 0 0.00755941 1.987e-07 0
0.00755941 1.987e-07 0 0.00752313 1.94564e-07 0 0.00752313 1.94564e-07 0 0.00748722
1.90515e-07 0 0.00748722 1.90515e-07 0 0.00745169 1.86558e-07 0 0.00745169 1.86558e-07
0 0.00741652 1.82699e-07 0 0.00741652 1.82699e-07 0 0.00738172 1.78934e-07 0
0.00738172 1.78934e-07 0 0.00734728 1.75269e-07 0 0.00734728 1.75269e-07 0 0.00731318
1.71696e-07 0 0.00731318 1.71696e-07 0 0.00727943 1.68217e-07 0 0.00727943 1.68217e-07
0 0.00724601 1.64826e-07 0 0.00724601 1.64826e-07 0 0.00721291 1.61527e-07 0
0.00721291 1.61527e-07 0 0.00718014 1.58307e-07 0 0.00718014 1.58307e-07 0 0.00714768
1.55178e-07 0 0.00714768 1.55178e-07 0 0.00711553 1.52118e-07 0 0.00711553 1.52118e-07
0 0.00708368 1.49151e-07 0 0.00708368 1.49151e-07 0 0.00705212 1.46241e-07 0
0.00705212 1.46241e-07 0 0.00702085 1.43431e-07 0 0.00702085 1.43431e-07 0 0.00698987
1.40661e-07 0 0.00698987 1.40661e-07 0 0.00695916 1.38013e-07 0 0.00695916 1.38013e-07
0 0.0069287 1.35395e-07 0 0.0069287 1.35395e-07 0 0.00689855 1.32872e-07 0
0.00689855 1.32872e-07 0 0.00686854 1.30825e-07 0 0.00686854 1.30825e-07 0 0.00683888
1.27434e-07 0 0.00683888 1.27434e-07 0 0.00680967 1.24165e-07 0 0.00680967 1.24165e-07
0 0.00678035 1.24145e-07 0 0.00678035 1.24145e-07 0 0.00675064 1.24994e-07 0
0.00675064 1.24994e-07 0 0.00672066 1.24534e-07 0 0.00672066 1.24534e-07 0 0.00669068
1.23118e-07 0 0.00669068 1.23118e-07 0 0.00666084 1.2115e-07 0 0.00666084 1.2115e-07
0 0.00663122 1.18934e-07 0 0.00663122 1.18934e-07 0 0.00660186 1.16609e-07 0
0.00660186 1.16609e-07 0 0.00657279 1.14255e-07 0 0.00657279 1.14255e-07 0 0.00654401
1.11912e-07 0 0.00654401 1.11912e-07 0 0.00651552 1.09603e-07 0 0.00651552 1.09603e-07
0 0.00648732 1.0734e-07 0 0.00648732 1.0734e-07 0 0.00645942 1.05128e-07 0
0.00645942 1.05128e-07 0 0.0064318 1.0297e-07 0 0.0064318 1.0297e-07 0 0.00640446
1.00868e-07 0 0.00640446 1.00868e-07 0 0.00637739 9.88207e-08 0 0.00637739 9.88207e-08
0 0.0063506 9.68283e-08 0 0.0063506 9.68283e-08 0 0.00632406 9.48869e-08 0
0.00632406 9.48869e-08 0 0.00629778 9.29988e-08 0 0.00629778 9.29988e-08 0 0.00627176
9.11581e-08 0 0.00627176 9.11581e-08 0 0.00624598 8.93676e-08 0 0.00624598 8.93676e-08
0 0.00622043 8.76206e-08 0 0.00622043 8.76206e-08 0 0.00619513 8.5923e-08 0
0.00619513 8.5923e-08 0 0.00617005 8.42635e-08 0 0.00617005 8.42635e-08 0 0.0061452
8.26555e-08 0 0.0061452 8.26555e-08 0 0.00612057 8.10777e-08 0 0.00612057 8.10777e-08
0 0.00609615 7.9562e-08 0 0.00609615 7.9562e-08 0 0.00607193 7.80663e-08 0
0.00607193 7.80663e-08 0 0.00604795 7.66427e-08 0 0.00604795 7.66427e-08 0 0.00602408
7.53966e-08 0 0.00602408 7.53966e-08 0 0.00600048 7.35922e-08 0 0.00600048 7.35922e-08
0 0.0059772 7.19216e-08 0 0.0059772 7.19216e-08 0 0.00595383 7.19015e-08 0
0.00595383 7.19015e-08 0 0.00593008 7.25146e-08 0 0.00593008 7.25146e-08 0 0.00590607
7.2396e-08 0 0.00590607 7.2396e-08 0 0.00588202 7.15923e-08 0 0.00588202 7.15923e-08
0 0.00585809 7.0437e-08 0 0.00585809 7.0437e-08 0 0.00583434 6.91233e-08 0
0.00583434 6.91233e-08 0 0.0058108 6.77498e-08 0 0.0058108 6.77498e-08 0 0.0057875
6.63646e-08 0 0.0057875 6.63646e-08 0 0.00576444 6.49906e-08 0 0.00576444 6.49906e-08
0 0.00574162 6.36413e-08 0 0.00574162 6.36413e-08 0 0.00571904 6.23219e-08 0
0.00571904 6.23219e-08 0 0.00569669 6.10358e-08 0 0.00569669 6.10358e-08 0 0.00567456
5.97843e-08 0 0.00567456 5.97843e-08 0 0.00565267 5.85656e-08 0 0.00565267 5.85656e-08
0 0.00563099 5.73809e-08 0 0.00563099 5.73809e-08 0 0.00560952 5.62278e-08 0
0.00560952 5.62278e-08 0 0.00558826 5.51075e-08 0 0.00558826 5.51075e-08 0 0.00556721
5.40155e-08 0 0.00556721 5.40155e-08 0 0.00554636 5.29544e-08 0 0.00554636 5.29544e-08
0 0.0055257 5.19202e-08 0 0.0055257 5.19202e-08 0 0.00550522 5.09153e-08 0
0.00550522 5.09153e-08 0 0.00548494 4.99344e-08 0 0.00548494 4.99344e-08 0 0.00546483
4.89841e-08 0 0.00546483 4.89841e-08 0 0.00544491 4.80531e-08 0 0.00544491 4.80531e-08
0 0.00542515 4.71611e-08 0 0.00542515 4.71611e-08 0 0.00540556 4.62768e-08 0
0.00540556 4.62768e-08 0 0.00538613 4.54846e-08 0 0.00538613 4.54846e-08 0 0.00536681
4.46171e-08 0 0.00536681 4.46171e-08 0 0.00534779 4.34961e-08 0 0.00534779 4.34961e-08
0 0.00532885 4.3162e-08 0 0.00532885 4.3162e-08 0 0.00530954 4.37088e-08 0
0.00530954 4.37088e-08 0 0.00528991 4.38912e-08 0 0.00528991 4.38912e-08 0 0.00527018
4.34827e-08 0 0.00527018 4.34827e-08 0 0.00525053 4.28014e-08 0 0.00525053 4.28014e-08
0 0.00523103 4.1992e-08 0 0.00523103 4.1992e-08 0 0.00521171 4.11427e-08 0
0.00521171 4.11427e-08 0 0.0051926 4.02842e-08 0 0.0051926 4.02842e-08 0 0.00517369
3.94344e-08 0 0.00517369 3.94344e-08 0 0.00515498 3.86027e-08 0 0.00515498 3.86027e-08
0 0.00513647 3.77896e-08 0 0.00513647 3.77896e-08 0 0.00511816 3.7e-08 0
0.00511816 3.7e-08 0 0.00510004 3.62315e-08 0 0.00510004 3.62315e-08 0 0.00508211
3.54845e-08 0 0.00508211 3.54845e-08 0 0.00506437 3.47598e-08 0 0.00506437 3.47598e-08
0 0.0050468 3.40534e-08 0 0.0050468 3.40534e-08 0 0.00502941 3.33684e-08 0
0.00502941 3.33684e-08 0 0.00501218 3.27015e-08 0 0.00501218 3.27015e-08 0 0.00499512
3.20517e-08 0 0.00499512 3.20517e-08 0 0.00497823 3.1422e-08 0 0.00497823 3.1422e-08
0 0.00496149 3.08052e-08 0 0.00496149 3.08052e-08 0 0.00494491 3.02093e-08 0
0.00494491 3.02093e-08 0 0.00492848 2.96254e-08 0 0.00492848 2.96254e-08 0 0.0049122
2.90629e-08 0 0.0049122 2.90629e-08 0 0.00489606 2.85115e-08 0 0.00489606 2.85115e-08
0 0.00488005 2.80121e-08 0 0.00488005 2.80121e-08 0 0.00486415 2.74369e-08 0
0.00486415 2.74369e-08 0 0.00484851 2.68072e-08 0 0.00484851 2.68072e-08 0 0.00483287
2.67661e-08 0 0.00483287 2.67661e-08 0 0.00481684 2.71558e-08 0 0.00481684 2.71558e-08
0 0.00480055 2.7213e-08 0 0.00480055 2.7213e-08 0 0.00478421 2.68999e-08 0
0.00478421 2.68999e-08 0 0.00476797 2.64255e-08 0 0.00476797 2.64255e-08 0 0.00475189
2.58827e-08 0 0.00475189 2.58827e-08 0 0.00473598 2.53263e-08 0 0.00473598 2.53263e-08
0 0.00472025 2.47667e-08 0 0.00472025 2.47667e-08 0 0.00470471 2.42176e-08 0
0.00470471 2.42176e-08 0 0.00468935 2.36824e-08 0 0.00468935 2.36824e-08 0 0.00467417
2.31566e-08 0 0.00467417 2.31566e-08 0 0.00465918 2.26489e-08 0 0.00465918 2.26489e-08
0 0.00464435 2.21529e-08 0 0.00464435 2.21529e-08 0 0.0046297 2.16687e-08 0
0.0046297 2.16687e-08 0 0.00461522 2.12008e-08 0 0.00461522 2.12008e-08 0 0.0046009
2.07398e-08 0 0.0046009 2.07398e-08 0 0.00458674 2.02923e-08 0 0.00458674 2.02923e-08
0 0.00457275 1.98567e-08 0 0.00457275 1.98567e-08 0 0.00455891 1.94258e-08 0
0.00455891 1.94258e-08 0 0.00454523 1.90101e-08 0 0.00454523 1.90101e-08 0 0.0045317
1.85998e-08 0 0.0045317 1.85998e-08 0 0.00451833 1.81985e-08 0 0.00451833 1.81985e-08
0 0.00450511 1.78073e-08 0 0.00450511 1.78073e-08 0 0.00449204 1.74311e-08 0
0.00449204 1.74311e-08 0 0.0044791 1.70663e-08 0 0.0044791 1.70663e-08 0 0.00446633
1.66275e-08 0 0.00446633 1.66275e-08 0 0.00445378 1.63237e-08 0 0.00445378 1.63237e-08
0 0.0044411 1.64224e-08 0 0.0044411 1.64224e-08 0 0.00442811 1.65883e-08 0
0.00442811 1.65883e-08 0 0.00441501 1.64776e-08 0 0.00441501 1.64776e-08 0 0.00440198
1.617e-08 0 0.00440198 1.617e-08 0 0.00438911 1.57759e-08 0 0.00438911 1.57759e-08
0 0.00437644 1.53486e-08 0 0.00437644 1.53486e-08 0 0.004364 1.49226e-08 0
0.004364 1.49226e-08 0 0.00435178 1.44912e-08 0 0.00435178 1.44912e-08 0 0.00433979
1.40636e-08 0 0.00433979 1.40636e-08 0 0.00432803 1.36496e-08 0 0.00432803 1.36496e-08
0 0.00431651 1.32333e-08 0 0.00431651 1.32333e-08 0 0.00430522 1.28239e-08 0
0.00430522 1.28239e-08 0 0.00429417 1.24263e-08 0 0.00429417 1.24263e-08 0 0.00428336
1.20226e-08 0 0.00428336 1.20226e-08 0 0.00427279 1.16269e-08 0 0.00427279 1.16269e-08
0 0.00426247 1.12388e-08 0 0.00426247 1.12388e-08 0 0.0042524 1.08444e-08 0
0.0042524 1.08444e-08 0 0.00424259 1.0455e-08 0 0.00424259 1.0455e-08 0 0.00423303
1.0074e-08 0 0.00423303 1.0074e-08 0 0.00422373 9.68789e-09 0 0.00422373 9.68789e-09
0 0.00421471 9.30462e-09 0 0.00421471 9.30462e-09 0 0.00420594 8.93817e-09 0
0.00420594 8.93817e-09 0 0.00419746 8.5531e-09 0 0.00419746 8.5531e-09 0 0.00418926
8.20476e-09 0 0.00418926 8.20476e-09 0 0.00418129 7.825e-09 0 0.00418129 7.825e-09
0 0.00417373 7.42007e-09 0 0.00417373 7.42007e-09 0 0.00416632 7.31493e-09 0
0.00416632 7.31493e-09 0 0.00415875 7.35778e-09 0 0.00415875 7.35778e-09 0 0.0041512
7.19761e-09 0 0.0041512 7.19761e-09 0 0.00414385 6.88522e-09 0 0.00414385 6.88522e-09
0 0.00413679 6.52645e-09 0 0.00413679 6.52645e-09 0 0.00413006 6.14572e-09 0
0.00413006 6.14572e-09 0 0.00412366 5.76516e-09 0 0.00412366 5.76516e-09 0 0.00411761
5.40165e-09 0 0.00411761 5.40165e-09 0 0.00411188 5.04184e-09 0 0.00411188 5.04184e-09
0 0.0041065 4.68679e-09 0 0.0041065 4.68679e-09 0 0.00410144 4.3526e-09 0
0.00410144 4.3526e-09 0 0.0040967 4.02755e-09 0 0.0040967 4.02755e-09 0 0.00409229
3.70314e-09 0 0.00409229 3.70314e-09 0 0.00408819 3.3969e-09 0 0.00408819 3.3969e-09
0 0.0040844 3.10992e-09 0 0.0040844 3.10992e-09 0 0.0040809 2.82559e-09 0
0.0040809 2.82559e-09 0 0.0040777 2.55085e-09 0 0.0040777 2.55085e-09 0 0.00407479
2.29525e-09 0 0.00407479 2.29525e-09 0 0.00407215 2.0437e-09 0 0.00407215 2.0437e-09
0 0.0040698 1.79292e-09 0 0.0040698 1.79292e-09 0 0.00406772 1.55747e-09 0
0.00406772 1.55747e-09 0 0.00406591 1.33587e-09 0 0.00406591 1.33587e-09 0 0.00406436
1.1171e-09 0 0.00406436 1.1171e-09 0 0.00406307 9.05443e-10 0 0.00406307 9.05443e-10
0 0.00406203 7.15698e-10 0 0.00406203 7.15698e-10 0 0.00406122 5.38088e-10 0
0.00406122 5.38088e-10 0 0.00406064 3.31605e-10 0 0.00406064 3.31605e-10 0 0.00406035
1.88495e-10 0 0.00406035 1.88495e-10 0 0.0040601 2.08969e-10 0 0.0040601 2.08969e-10
0 0.00405976 2.36945e-10 0 0.00405976 2.36945e-10 0 0.00405947 1.5927e-10 0
0.00405947 1.5927e-10 0 0.00405933 3.57006e-11 0 0.00405933 3.57006e-11 0 0.00405938
-1.03699e-10 0 0.00405938 -1.03699e-10 0 0.00405965 -2.60934e-10 0 0.00405965 -2.60934e-10
0 0.00406015 -4.20317e-10 0 0.00406015 -4.20317e-10 0 0.00406088 -5.62732e-10 0
0.00406088 -5.62732e-10 0 0.00406181 -6.94688e-10 0 0.00406181 -6.94688e-10 0 0.00406295
-8.2877e-10 0 0.00406295 -8.2877e-10 0 0.0040643 -9.57223e-10 0 0.0040643 -9.57223e-10
0 0.00406584 -1.07162e-09 0 0.00406584 -1.07162e-09 0 0.00406758 -1.18379e-09 0
0.00406758 -1.18379e-09 0 0.00406951 -1.30257e-09 0 0.00406951 -1.30257e-09 0 0.00407165
-1.41164e-09 0 0.00407165 -1.41164e-09 0 0.00407395 -1.4951e-09 0 0.00407395 -1.4951e-09
0 0.00407639 -1.56778e-09 0 0.00407639 -1.56778e-09 0 0.004079 -1.65438e-09 0
0.004079 -1.65438e-09 0 0.00408179 -1.75092e-09 0 0.00408179 -1.75092e-09 0 0.00408475
-1.83246e-09 0 0.00408475 -1.83246e-09 0 0.00408785 -1.8926e-09 0 0.00408785 -1.8926e-09
0 0.00409109 -1.9513e-09 0 0.00409109 -1.9513e-09 0 0.00409448 -2.02248e-09 0
0.00409448 -2.02248e-09 0 0.00409802 -2.09203e-09 0 0.00409802 -2.09203e-09 0 0.0041017
-2.14034e-09 0 0.0041017 -2.14034e-09 0 0.00410548 -2.17258e-09 0 0.00410548 -2.17258e-09
0 0.00410937 -2.21004e-09 0 0.00410937 -2.21004e-09 0 0.00411339 -2.27451e-09 0
0.00411339 -2.27451e-09 0 0.00411758 -2.3194e-09 0 0.00411758 -2.3194e-09 0 0.00412181
-2.26438e-09 0 0.00412181 -2.26438e-09 0 0.00412586 -2.15744e-09 0 0.00412586 -2.15744e-09
0 0.0041298 -2.09593e-09 0 0.0041298 -2.09593e-09 0 0.00413375 -2.09665e-09 0
0.00413375 -2.09665e-09 0 0.00413779 -2.13299e-09 0 0.00413779 -2.13299e-09 0 0.00414195
-2.17477e-09 0 0.00414195 -2.17477e-09 0 0.00414621 -2.20372e-09 0 0.00414621 -2.20372e-09
0 0.00415056 -2.22097e-09 0 0.00415056 -2.22097e-09 0 0.00415499 -2.23957e-09 0
0.00415499 -2.23957e-09 0 0.00415952 -2.2678e-09 0 0.00415952 -2.2678e-09 0 0.00416416
-2.30258e-09 0 0.00416416 -2.30258e-09 0 0.00416893 -2.33484e-09 0 0.00416893 -2.33484e-09
0 0.00417379 -2.35895e-09 0 0.00417379 -2.35895e-09 0 0.00417875 -2.37632e-09 0
0.00417875 -2.37632e-09 0 0.00418379 -2.39365e-09 0 0.00418379 -2.39365e-09 0 0.00418893
-2.41527e-09 0 0.00418893 -2.41527e-09 0 0.00419418 -2.43904e-09 0 0.00419418 -2.43904e-09
0 0.00419953 -2.46228e-09 0 0.00419953 -2.46228e-09 0 0.00420498 -2.48219e-09 0
0.00420498 -2.48219e-09 0 0.00421053 -2.49696e-09 0 0.00421053 -2.49696e-09 0 0.00421616
-2.50828e-09 0 0.00421616 -2.50828e-09 0 0.00422188 -2.51898e-09 0 0.00422188 -2.51898e-09
0 0.00422768 -2.53058e-09 0 0.00422768 -2.53058e-09 0 0.00423357 -2.54215e-09 0
0.00423357 -2.54215e-09 0 0.00423955 -2.55235e-09 0 0.00423955 -2.55235e-09 0 0.00424561
-2.56064e-09 0 0.00424561 -2.56064e-09 0 0.00425176 -2.56626e-09 0 0.00425176 -2.56626e-09
0 0.00425798 -2.57366e-09 0 0.00425798 -2.57366e-09 0 0.00426429 -2.57358e-09 0
0.00426429 -2.57358e-09 0 0.00427064 -2.53044e-09 0 0.00427064 -2.53044e-09 0 0.00427686
-2.45145e-09 0 0.00427686 -2.45145e-09 0 0.00428295 -2.39122e-09 0 0.00428295 -2.39122e-09
0 0.004289 -2.36632e-09 0 0.004289 -2.36632e-09 0 0.00429509 -2.35989e-09 0
0.00429509 -2.35989e-09 0 0.00430124 -2.36087e-09 0 0.00430124 -2.36087e-09 0 0.00430745
-2.36456e-09 0 0.00430745 -2.36456e-09 0 0.00431375 -2.36865e-09 0 0.00431375 -2.36865e-09
0 0.00432012 -2.37258e-09 0 0.00432012 -2.37258e-09 0 0.00432656 -2.37584e-09 0
0.00432656 -2.37584e-09 0 0.00433308 -2.37794e-09 0 0.00433308 -2.37794e-09 0 0.00433967
-2.37962e-09 0 0.00433967 -2.37962e-09 0 0.00434634 -2.38052e-09 0 0.00434634 -2.38052e-09
0 0.00435307 -2.38053e-09 0 0.00435307 -2.38053e-09 0 0.00435988 -2.37986e-09 0
0.00435988 -2.37986e-09 0 0.00436675 -2.37858e-09 0 0.00436675 -2.37858e-09 0 0.00437369
-2.37697e-09 0 0.00437369 -2.37697e-09 0 0.0043807 -2.37455e-09 0 0.0043807 -2.37455e-09
0 0.00438777 -2.37164e-09 0 0.00438777 -2.37164e-09 0 0.00439491 -2.36833e-09 0
0.00439491 -2.36833e-09 0 0.00440211 -2.36453e-09 0 0.00440211 -2.36453e-09 0 0.00440937
-2.36043e-09 0 0.00440937 -2.36043e-09 0 0.00441669 -2.35563e-09 0 0.00441669 -2.35563e-09
0 0.00442408 -2.35055e-09 0 0.00442408 -2.35055e-09 0 0.00443152 -2.34504e-09 0
0.00443152 -2.34504e-09 0 0.00443903 -2.33874e-09 0 0.00443903 -2.33874e-09 0 0.00444659
-2.33254e-09 0 0.00444659 -2.33254e-09 0 0.00445421 -2.32647e-09 0 0.00445421 -2.32647e-09
0 0.00446189 -2.29917e-09 0 0.00446189 -2.29917e-09 0 0.00446949 -2.23706e-09 0
0.00446949 -2.23706e-09 0 0.00447691 -2.17533e-09 0 0.00447691 -2.17533e-09 0 0.00448424
-2.13944e-09 0 0.00448424 -2.13944e-09 0 0.00449157 -2.12069e-09 0 0.00449157 -2.12069e-09
0 0.00449893 -2.10993e-09 0 0.00449893 -2.10993e-09 0 0.00450634 -2.10302e-09 0
0.00450634 -2.10302e-09 0 0.00451381 -2.0978e-09 0 0.00451381 -2.0978e-09 0 0.00452134
-2.0931e-09 0 0.00452134 -2.0931e-09 0 0.00452892 -2.08839e-09 0 0.00452892 -2.08839e-09
0 0.00453657 -2.0835e-09 0 0.00453657 -2.0835e-09 0 0.00454428 -2.07862e-09 0
0.00454428 -2.07862e-09 0 0.00455206 -2.07334e-09 0 0.00455206 -2.07334e-09 0 0.00455989
-2.06802e-09 0 0.00455989 -2.06802e-09 0 0.00456778 -2.06212e-09 0 0.00456778 -2.06212e-09
0 0.00457573 -2.05616e-09 0 0.00457573 -2.05616e-09 0 0.00458375 -2.0499e-09 0
0.00458375 -2.0499e-09 0 0.00459181 -2.04258e-09 0 0.00459181 -2.04258e-09 0 0.00459994
-2.03567e-09 0 0.00459994 -2.03567e-09 0 0.00460812 -2.02857e-09 0 0.00460812 -2.02857e-09
0 0.00461636 -2.0211e-09 0 0.00461636 -2.0211e-09 0 0.00462465 -2.01354e-09 0
0.00462465 -2.01354e-09 0 0.00463299 -2.00573e-09 0 0.00463299 -2.00573e-09 0 0.00464139
-1.99715e-09 0 0.00464139 -1.99715e-09 0 0.00464984 -1.98812e-09 0 0.00464984 -1.98812e-09
0 0.00465835 -1.97959e-09 0 0.00465835 -1.97959e-09 0 0.0046669 -1.97205e-09 0
0.0046669 -1.97205e-09 0 0.00467551 -1.951e-09 0 0.00467551 -1.951e-09 0 0.00468405
-1.90377e-09 0 0.00468405 -1.90377e-09 0 0.00469242 -1.85341e-09 0 0.00469242 -1.85341e-09
0 0.00470069 -1.82109e-09 0 0.00470069 -1.82109e-09 0 0.00470894 -1.80261e-09 0
0.00470894 -1.80261e-09 0 0.00471721 -1.79055e-09 0 0.00471721 -1.79055e-09 0 0.00472553
-1.78144e-09 0 0.00472553 -1.78144e-09 0 0.00473389 -1.77381e-09 0 0.00473389 -1.77381e-09
0 0.0047423 -1.76666e-09 0 0.0047423 -1.76666e-09 0 0.00475077 -1.75959e-09 0
0.00475077 -1.75959e-09 0 0.00475929 -1.75267e-09 0 0.00475929 -1.75267e-09 0 0.00476786
-1.74564e-09 0 0.00476786 -1.74564e-09 0 0.00477649 -1.7383e-09 0 0.00477649 -1.7383e-09
0 0.00478517 -1.73087e-09 0 0.00478517 -1.73087e-09 0 0.00479391 -1.72335e-09 0
0.00479391 -1.72335e-09 0 0.0048027 -1.71561e-09 0 0.0048027 -1.71561e-09 0 0.00481154
-1.70778e-09 0 0.00481154 -1.70778e-09 0 0.00482043 -1.69984e-09 0 0.00482043 -1.69984e-09
0 0.00482937 -1.69176e-09 0 0.00482937 -1.69176e-09 0 0.00483836 -1.6836e-09 0
0.00483836 -1.6836e-09 0 0.0048474 -1.67539e-09 0 0.0048474 -1.67539e-09 0 0.00485649
-1.66694e-09 0 0.00485649 -1.66694e-09 0 0.00486563 -1.65822e-09 0 0.00486563 -1.65822e-09
0 0.00487481 -1.64942e-09 0 0.00487481 -1.64942e-09 0 0.00488404 -1.64089e-09 0
0.00488404 -1.64089e-09 0 0.00489332 -1.63108e-09 0 0.00489332 -1.63108e-09 0 0.00490263
-1.60864e-09 0 0.00490263 -1.60864e-09 0 0.00491183 -1.56858e-09 0 0.00491183 -1.56858e-09
0 0.00492087 -1.53052e-09 0 0.00492087 -1.53052e-09 0 0.00492983 -1.50737e-09 0
0.00492983 -1.50737e-09 0 0.00493877 -1.49285e-09 0 0.00493877 -1.49285e-09 0 0.00494774
-1.48223e-09 0 0.00494774 -1.48223e-09 0 0.00495675 -1.47346e-09 0 0.00495675 -1.47346e-09
0 0.0049658 -1.4653e-09 0 0.0049658 -1.4653e-09 0 0.0049749 -1.45759e-09 0
0.0049749 -1.45759e-09 0 0.00498404 -1.45025e-09 0 0.00498404 -1.45025e-09 0 0.00499323
-1.44308e-09 0 0.00499323 -1.44308e-09 0 0.00500247 -1.43578e-09 0 0.00500247 -1.43578e-09
0 0.00501176 -1.4282e-09 0 0.00501176 -1.4282e-09 0 0.0050211 -1.42047e-09 0
0.0050211 -1.42047e-09 0 0.00503048 -1.41261e-09 0 0.00503048 -1.41261e-09 0 0.00503991
-1.4048e-09 0 0.00503991 -1.4048e-09 0 0.00504938 -1.39718e-09 0 0.00504938 -1.39718e-09
0 0.0050589 -1.38941e-09 0 0.0050589 -1.38941e-09 0 0.00506847 -1.38145e-09 0
0.00506847 -1.38145e-09 0 0.00507808 -1.37345e-09 0 0.00507808 -1.37345e-09 0 0.00508773
-1.36535e-09 0 0.00508773 -1.36535e-09 0 0.00509742 -1.35699e-09 0 0.00509742 -1.35699e-09
0 0.00510716 -1.34855e-09 0 0.00510716 -1.34855e-09 0 0.00511694 -1.34126e-09 0
0.00511694 -1.34126e-09 0 0.00512676 -1.32723e-09 0 0.00512676 -1.32723e-09 0 0.00513653
-1.29813e-09 0 0.00513653 -1.29813e-09 0 0.00514613 -1.2656e-09 0 0.00514613 -1.2656e-09
0 0.00515562 -1.24258e-09 0 0.00515562 -1.24258e-09 0 0.00516507 -1.22822e-09 0
0.00516507 -1.22822e-09 0 0.00517453 -1.21802e-09 0 0.00517453 -1.21802e-09 0 0.00518402
-1.20955e-09 0 0.00518402 -1.20955e-09 0 0.00519354 -1.20137e-09 0 0.00519354 -1.20137e-09
0 0.00520311 -1.19415e-09 0 0.00520311 -1.19415e-09 0 0.00521272 -1.18766e-09 0
0.00521272 -1.18766e-09 0 0.00522237 -1.18025e-09 0 0.00522237 -1.18025e-09 0 0.00523206
-1.1733e-09 0 0.00523206 -1.1733e-09 0 0.0052418 -1.16649e-09 0 0.0052418 -1.16649e-09
0 0.00525158 -1.15929e-09 0 0.00525158 -1.15929e-09 0 0.0052614 -1.15225e-09 0
0.0052614 -1.15225e-09 0 0.00527126 -1.14479e-09 0 0.00527126 -1.14479e-09 0 0.00528116
-1.13776e-09 0 0.00528116 -1.13776e-09 0 0.00529111 -1.13084e-09 0 0.00529111 -1.13084e-09
0 0.00530109 -1.12383e-09 0 0.00530109 -1.12383e-09 0 0.00531111 -1.11645e-09 0
0.00531111 -1.11645e-09 0 0.00532117 -1.10918e-09 0 0.00532117 -1.10918e-09 0 0.00533128
-1.10173e-09 0 0.00533128 -1.10173e-09 0 0.00534141 -1.09486e-09 0 0.00534141 -1.09486e-09
0 0.00535159 -1.0823e-09 0 0.00535159 -1.0823e-09 0 0.0053617 -1.05996e-09 0
0.0053617 -1.05996e-09 0 0.00537167 -1.03268e-09 0 0.00537167 -1.03268e-09 0 0.00538147
-1.01558e-09 0 0.00538147 -1.01558e-09 0 0.00539132 -1.00147e-09 0 0.00539132 -1.00147e-09
0 0.00540104 -9.94956e-10 0 0.00540104 -9.94956e-10 0 0.00541098 -9.84982e-10 0
0.00541098 -9.84982e-10 0 0.0054207 -9.80433e-10 0 0.0054207 -9.80433e-10 0 0.00543076
-9.7246e-10 0 0.00543076 -9.7246e-10 0 0.00544051 -9.66719e-10 0 0.00544051 -9.66719e-10
0 0.00545066 -9.61637e-10 0 0.00545066 -9.61637e-10 0 0.00546051 -9.52217e-10 0
0.00546051 -9.52217e-10 0 0.00547068 -9.51618e-10 0 0.00547068 -9.51618e-10 0 0.00548072
-9.36005e-10 0 0.00548072 -9.36005e-10 0 0.00549077 -9.46002e-10 0 0.00549077 -9.46002e-10
0 0.00550123 -9.07454e-10 0 0.00550123 -9.07454e-10 0 0.00551065 -9.66859e-10 0
0.00551065 -9.66859e-10 0 0.0119946 -1.55499e-09 0 0.0119946 -1.55499e-09 0 0.0184788
-2.02922e-09 0 0.0184788 -2.02922e-09 0 
